<svg xmlns="http://www.w3.org/2000/svg" height="1024" preserveAspectRatio="none" style="display: block;" version="1.1" viewBox="0 0 2048 2048" width="1024">
<path d="M 0 0 L 2048 0 L 2048 1704.7 L 2048 1939.58 L 2048 2048 L 1948.78 2048 L 1086.62 2048 L 1002.13 2048 L 964.395 2048 L 915.33 2048 L 100.522 2048 L 0 2048 L 0 1938.21 L 0 1704.37 L 0 0 z" fill="rgb(58,36,32)" transform="translate(0,0)"></path>
<path d="M 659.697 1353.98 C 689.6 1383.57 722.264 1413.37 752.928 1442.52 L 910.135 1592.26 C 946.408 1626.11 982.406 1660.26 1018.13 1694.7 L 1023.95 1699.36 L 1030.58 1693.37 C 1060.49 1667.64 1094.62 1633.37 1123.72 1605.89 C 1157.16 1574.31 1195.18 1539.34 1227.37 1506.77 C 1244.58 1492.78 1265.4 1470.87 1281.72 1455.19 C 1311.81 1426.3 1350.1 1393.37 1378.23 1363.11 C 1382.77 1358.81 1383.78 1357.83 1389.12 1354.24 C 1418.02 1396.91 1446.3 1439.98 1473.97 1483.45 L 1480.42 1494.33 L 1490.29 1497.55 C 1524.93 1509.73 1558.89 1523.04 1593.32 1535.68 L 1939.04 1664.09 C 1974.06 1676.97 2013.56 1692.87 2048 1704.7 L 2048 1939.58 L 2048 2048 L 1948.78 2048 L 1086.62 2048 L 1002.13 2048 L 964.395 2048 L 915.33 2048 L 100.522 2048 L 0 2048 L 0 1938.21 L 0 1704.37 C 21.4311 1695.86 43.6154 1688.2 65.2692 1680.14 C 116.07 1661.04 166.998 1642.28 218.05 1623.85 L 558.282 1497.42 L 568.516 1494.26 L 577.108 1480.57 C 601.445 1442.14 627.589 1404.71 651.539 1366 C 654.073 1361.9 656.902 1357.9 659.697 1353.98 z" fill="rgb(245,237,230)" transform="translate(0,0)"></path>
<path d="M 1127.35 1755.58 L 1164.49 1791.52 C 1168.83 1795.75 1196.17 1821.7 1196.67 1824.14 C 1175.78 1844.25 1150.58 1856.22 1121.41 1858.31 C 1119.44 1872.24 1115.59 1885.93 1111.46 1899.37 C 1103.29 1925.92 1096.51 1953.12 1087.03 1979.22 C 1084.51 1986.17 1078.06 1987.2 1073.89 1991.74 C 1067.35 1992.6 1047.48 1992.25 1039.97 1992.17 C 1021.69 1991.97 1001.89 1992.55 983.759 1991.78 L 979.441 1993.15 L 979.567 1990.17 L 981.66 1989.38 C 1002.84 1920.24 1044.92 1863.52 1112.97 1835.29 C 1105.37 1825.24 1099.7 1823.27 1088.41 1818.99 C 1093.92 1795.03 1109.86 1772.41 1127.35 1755.58 z" fill="rgb(58,36,32)" transform="translate(0,0)"></path>
<path d="M 962.806 1819.63 C 976.583 1817.57 1008.38 1818.1 1023.66 1818.19 C 1042.02 1818.31 1070.95 1817.29 1088.41 1818.99 C 1099.7 1823.27 1105.37 1825.24 1112.97 1835.29 C 1044.92 1863.52 1002.84 1920.24 981.66 1989.38 L 979.567 1990.17 C 974.202 1988.51 968.198 1986.26 964.294 1982.03 C 958.851 1976.14 932.449 1882.59 929.665 1870.18 C 928.897 1866.76 928.69 1863.4 928.732 1859.9 C 932.211 1834.43 940.496 1829.34 962.806 1819.63 z" fill="rgb(43,16,22)" transform="translate(0,0)"></path>
<path d="M 921.92 1755.75 C 943.509 1772.34 952.095 1792.27 961.451 1817.11 C 962.049 1818.7 961.706 1817.96 962.806 1819.63 C 940.496 1829.34 932.211 1834.43 928.732 1859.9 C 927.505 1859.1 905.308 1854.5 901.41 1853.33 C 893.535 1850.97 889.373 1849.29 881.543 1845.75 C 869.546 1838.93 861.596 1832.73 851.819 1823.21 C 863.33 1812.8 875.273 1800.42 886.349 1789.37 C 897.018 1779.34 910.933 1764.54 921.92 1755.75 z" fill="rgb(58,36,32)" transform="translate(0,0)"></path>
<path d="M 983.759 1991.78 C 1001.89 1992.55 1021.69 1991.97 1039.97 1992.17 C 1047.48 1992.25 1067.35 1992.6 1073.89 1991.74 C 1075.16 1997.02 1076.2 2002.62 1077.48 2007.78 L 1077.82 2009.72 C 1078.72 2015.51 1079.93 2021.28 1081.25 2026.99 L 1083.29 2035.46 L 1084.27 2039.46 C 1084.98 2042.33 1085.82 2045.16 1086.62 2048 L 1002.13 2048 L 964.395 2048 C 968.056 2031.22 974.565 2009.92 979.441 1993.15 L 983.759 1991.78 z" fill="rgb(43,16,22)" transform="translate(0,0)"></path>
<path d="M 1077.48 2007.78 L 1077.82 2009.72 C 1078.72 2015.51 1079.93 2021.28 1081.25 2026.99 L 1083.29 2035.46 L 1084.27 2039.46 C 1084.98 2042.33 1085.82 2045.16 1086.62 2048 L 1002.13 2048 C 1022.01 2034.11 1055.42 2018.81 1077.48 2007.78 z" fill="rgb(58,36,32)" transform="translate(0,0)"></path>
<path d="M 773.229 415.413 C 792.234 441.982 809.785 459.753 834.913 479.62 C 821.132 493.326 803.197 510.291 790.93 524.861 L 790.916 648.95 C 790.932 658.769 789.742 704.531 793.237 710.77 L 799.71 704.766 C 828.826 712.277 858.999 719.49 888.412 725.676 C 921.748 732.688 956.727 743.384 990.124 748.534 C 986.208 759.965 978.935 780.05 976.54 791.765 C 977.298 791.478 978.057 791.191 978.815 790.904 C 992.728 769.252 1008.14 731.802 1020.19 711.022 C 1015.8 770.678 1017.99 848.708 1018.03 909.385 L 1018.09 1034.16 C 1018.09 1055.62 1017.34 1080.14 1018.15 1101.19 C 1041.1 1101.83 1051.25 1100.28 1064.11 1079.99 C 1073.98 1079.78 1097.08 1077.71 1105.12 1081.21 C 1130.09 1092.36 1176.34 1109.3 1196.36 1123.33 C 1219.81 1144.64 1223.46 1164.73 1232.2 1194.27 C 1235.77 1206.36 1239.75 1219.7 1242.72 1231.89 C 1244.35 1237.92 1246.11 1243.91 1248 1249.87 L 1236.95 1245.56 C 1234.61 1251.28 1221.76 1278.93 1221.7 1282.12 C 1221.24 1307.2 1219.08 1357.37 1221.08 1380.84 C 1260.67 1333.76 1300.56 1288.12 1339.31 1240.17 C 1337.01 1247.2 1334.63 1252.89 1331.77 1259.72 C 1323.43 1281.86 1311.85 1306.42 1302.35 1328.47 L 1253.48 1443.61 C 1245.49 1462.57 1232.59 1487.79 1227.37 1506.77 C 1195.18 1539.34 1157.16 1574.31 1123.72 1605.89 C 1094.62 1633.37 1060.49 1667.64 1030.58 1693.37 L 1023.95 1699.36 L 1018.13 1694.7 C 982.406 1660.26 946.408 1626.11 910.135 1592.26 L 752.928 1442.52 C 722.264 1413.37 689.6 1383.57 659.697 1353.98 C 661.74 1351.73 667.32 1348.78 670.176 1347.11 L 670.062 1233.6 C 670.034 1218.72 669.807 1203.84 669.381 1188.97 C 656.543 1172.89 658.65 1151.73 657.588 1131.91 C 656.012 1104.32 654.832 1076.72 654.049 1049.1 C 617.678 1048.95 594.651 1025.58 576.278 996.302 C 544.635 945.875 518.771 869.244 531.467 809.874 C 544.534 748.768 611.487 743.666 642.929 796.253 L 642.79 835.166 C 642.787 854.075 642.535 873.634 643.13 892.483 C 652.023 888.043 683.713 860.995 693.798 853.173 C 691.814 824.404 693.285 783.983 692.794 753.571 C 699.664 743.697 709.573 731.989 717.227 722.259 C 728.316 708.164 740.048 692.629 751.792 679.216 C 744.73 662.36 738.782 643.418 732.868 626.037 C 720.495 589.672 709.483 552.881 696.666 516.651 C 722.356 483.033 747.878 449.287 773.229 415.413 z" fill="rgb(255,90,31)" transform="translate(0,0)"></path>
<path d="M 948.047 1081.34 C 952.763 1079.92 979.162 1079.02 985.765 1078.97 C 996.293 1094.33 1000.04 1096.9 1018.15 1101.19 C 1041.1 1101.83 1051.25 1100.28 1064.11 1079.99 C 1073.98 1079.78 1097.08 1077.71 1105.12 1081.21 C 1130.09 1092.36 1176.34 1109.3 1196.36 1123.33 C 1219.81 1144.64 1223.46 1164.73 1232.2 1194.27 C 1235.77 1206.36 1239.75 1219.7 1242.72 1231.89 C 1244.35 1237.92 1246.11 1243.91 1248 1249.87 L 1236.95 1245.56 C 1234.61 1251.28 1221.76 1278.93 1221.7 1282.12 C 1221.24 1307.2 1219.08 1357.37 1221.08 1380.84 C 1219.63 1383.33 1202.33 1402.94 1199.41 1406.18 C 1184.3 1422.97 1169.44 1441.46 1153.92 1457.69 C 1121.44 1458.37 1087.59 1457.17 1054.92 1457.03 L 897.55 1456.78 C 881.515 1439.62 866.802 1421.43 851.366 1403.75 C 845.262 1396.76 839.327 1389.83 833.894 1382.29 C 832.487 1350.96 834.753 1312.95 832.172 1281.5 C 831.638 1275 822.098 1254.75 819.699 1245.2 L 819.406 1244 C 815.746 1245.64 807.593 1248.3 803.524 1249.75 C 806.275 1241.27 808.884 1232.75 811.349 1224.19 C 818.359 1202.63 824.462 1180.74 831.738 1159.27 C 843.879 1123.45 870.663 1112.94 902.788 1099.92 L 948.047 1081.34 z" fill="rgb(255,140,66)" transform="translate(0,0)"></path>
<path d="M 948.047 1081.34 C 952.763 1079.92 979.162 1079.02 985.765 1078.97 C 996.293 1094.33 1000.04 1096.9 1018.15 1101.19 C 1041.1 1101.83 1051.25 1100.28 1064.11 1079.99 C 1073.98 1079.78 1097.08 1077.71 1105.12 1081.21 C 1130.09 1092.36 1176.34 1109.3 1196.36 1123.33 C 1219.81 1144.64 1223.46 1164.73 1232.2 1194.27 C 1235.77 1206.36 1239.75 1219.7 1242.72 1231.89 C 1244.35 1237.92 1246.11 1243.91 1248 1249.87 L 1236.95 1245.56 C 1188.56 1226.04 1138.76 1202.24 1090.48 1182.21 C 1085.4 1180.1 1047.91 1180.96 1039.55 1180.99 C 1035.59 1160.37 1031.61 1139.79 1025.94 1119.55 C 1022.65 1139.6 1018.05 1161.02 1014.04 1181.03 C 1005.31 1181.03 970.402 1180.24 964.691 1182.31 C 917.629 1199.36 865.614 1226.29 819.406 1244 C 815.746 1245.64 807.593 1248.3 803.524 1249.75 C 806.275 1241.27 808.884 1232.75 811.349 1224.19 C 818.359 1202.63 824.462 1180.74 831.738 1159.27 C 843.879 1123.45 870.663 1112.94 902.788 1099.92 L 948.047 1081.34 z" fill="rgb(43,16,22)" transform="translate(0,0)"></path>
<path d="M 892.708 1220.18 C 978.195 1290.95 1074.63 1288.09 1160.07 1219.15 C 1138.3 1250.85 1111.26 1271.93 1075.14 1285.44 C 1098.1 1302.16 1107.38 1313.29 1119.48 1339.59 C 1102.88 1323.24 1084.94 1316 1062.57 1309.99 C 1014.98 1297.2 971.486 1310.17 931.968 1337.52 C 944.035 1311.91 955.128 1300.62 978.209 1285.13 C 942.248 1273.64 914.148 1250.91 892.708 1220.18 z" fill="rgb(255,90,31)" transform="translate(0,0)"></path>
<path d="M 1060.59 1190.24 C 1089.07 1201.84 1125.94 1205.34 1155.76 1214.2 C 1157.91 1214.84 1159.95 1216.91 1160.07 1219.15 C 1153 1218.76 1141.96 1220.2 1134.6 1220.88 C 1098.51 1224.24 1062.05 1232.72 1025.92 1234.7 C 1017.03 1235.19 999.741 1231.82 990.419 1230.65 C 968.235 1227.98 946.069 1225.16 923.923 1222.18 C 915.62 1221.02 898.969 1218.12 891.551 1218.2 L 890.667 1217.35 C 895.793 1213.74 979.779 1193.75 991.881 1191.32 C 1003.15 1195.87 1014.83 1200.54 1025.17 1206.97 C 1036.28 1201.67 1049.43 1194.98 1060.59 1190.24 z" fill="rgb(207,43,40)" transform="translate(0,0)"></path>
<path d="M 779.101 835.249 C 813.463 817.466 856.345 811.122 893.586 823.408 C 903.139 826.56 942.985 844.383 944.873 853.556 L 932.012 866.377 C 928.707 873.428 919.934 883.332 914.711 889.306 C 880.814 928.081 840.977 938.346 790.772 940.731 C 830.929 952.523 872.121 946.441 908.673 926.038 C 939.302 908.94 974.276 872.023 983.774 837.591 L 985.591 839.278 C 981.194 861.236 974.984 976.694 968.143 984.117 C 948.878 994.154 934.235 1008.46 927.097 1029.5 C 923.918 1038.86 925.44 1049.19 921.766 1055.3 L 923.437 1065.68 C 932.961 1076.58 937.587 1075.58 948.047 1081.34 L 902.788 1099.92 C 870.663 1112.94 843.879 1123.45 831.738 1159.27 C 824.462 1180.74 818.359 1202.63 811.349 1224.19 C 810.339 1223.48 810.245 1223.5 809.328 1222.38 C 804.646 1216.68 720.242 1001.42 718.411 990.399 C 716.469 978.715 717.667 965.33 717.625 953.425 C 717.539 929.016 717.148 904.552 717.876 880.154 C 731.333 864.833 755.124 840.169 769.614 826.392 C 774.201 829.352 776.841 830.441 779.101 835.249 z" fill="rgb(255,140,66)" transform="translate(0,0)"></path>
<path d="M 779.101 835.249 C 813.463 817.466 856.345 811.122 893.586 823.408 C 903.139 826.56 942.985 844.383 944.873 853.556 L 932.012 866.377 C 887.194 896.673 844.247 904.839 793.812 878.521 C 785.585 874.228 763.047 859.966 760.339 851.03 L 762.118 848.189 C 764.318 844.882 775.23 837.899 779.101 835.249 z" fill="rgb(245,237,230)" transform="translate(0,0)"></path>
<path d="M 779.101 835.249 C 813.463 817.466 856.345 811.122 893.586 823.408 C 903.139 826.56 942.985 844.383 944.873 853.556 C 921.596 841.522 915.019 832.764 887.754 829.592 C 910.126 889.726 799.952 893.825 821.075 827.533 C 795.377 832.416 785.111 837.52 762.118 848.189 C 764.318 844.882 775.23 837.899 779.101 835.249 z" fill="rgb(43,16,22)" transform="translate(0,0)"></path>
<path d="M 869.951 834.567 C 874.817 832.999 880.029 835.692 881.566 840.568 C 883.102 845.444 880.374 850.639 875.488 852.143 C 870.648 853.633 865.512 850.936 863.99 846.106 C 862.468 841.275 865.13 836.121 869.951 834.567 z" fill="rgb(245,237,230)" transform="translate(0,0)"></path>
<path d="M 968.143 984.117 C 948.878 994.154 934.235 1008.46 927.097 1029.5 C 923.918 1038.86 925.44 1049.19 921.766 1055.3 C 912.019 1066.08 899.743 1076.92 889.153 1087.09 C 878.626 1097.21 867.781 1108.19 856.848 1117.66 C 878.297 1082.51 902.796 1047.73 925.041 1012.95 C 936.356 995.256 947.328 987.771 968.143 984.117 z" fill="rgb(152,32,29)" transform="translate(0,0)"></path>
<path d="M 670.062 1233.6 C 674.825 1238.69 681.405 1248.88 685.613 1254.96 C 693.784 1266.83 702.068 1278.62 710.466 1290.32 L 835.012 1464.26 C 844.463 1477.33 853.814 1490.46 863.064 1503.67 C 867.699 1510.24 874.83 1521.05 880.168 1526.62 C 916.314 1528.63 950.96 1527.49 986.998 1527.66 C 1045.63 1527.92 1105.12 1527.08 1163.71 1528.53 L 1262.41 1366.02 C 1272.05 1350.12 1320.34 1265.61 1331.77 1259.72 C 1323.43 1281.86 1311.85 1306.42 1302.35 1328.47 L 1253.48 1443.61 C 1245.49 1462.57 1232.59 1487.79 1227.37 1506.77 C 1195.18 1539.34 1157.16 1574.31 1123.72 1605.89 C 1094.62 1633.37 1060.49 1667.64 1030.58 1693.37 L 1023.95 1699.36 L 1018.13 1694.7 C 982.406 1660.26 946.408 1626.11 910.135 1592.26 L 752.928 1442.52 C 722.264 1413.37 689.6 1383.57 659.697 1353.98 C 661.74 1351.73 667.32 1348.78 670.176 1347.11 L 670.062 1233.6 z" fill="rgb(255,140,66)" transform="translate(0,0)"></path>
<path d="M 793.237 710.77 L 799.71 704.766 C 828.826 712.277 858.999 719.49 888.412 725.676 C 921.748 732.688 956.727 743.384 990.124 748.534 C 986.208 759.965 978.935 780.05 976.54 791.765 C 973.261 800.135 969.998 810.136 966.951 818.72 C 911.052 803.886 848.581 792.461 791.693 780.639 C 788.483 779.972 763.908 785.602 758.685 786.704 C 740.245 790.619 721.784 794.436 703.303 798.155 C 733.567 771.606 765.192 739.433 793.237 710.77 z" fill="rgb(43,16,22)" transform="translate(0,0)"></path>
<path d="M 654.049 1049.1 C 617.678 1048.95 594.651 1025.58 576.278 996.302 C 544.635 945.875 518.771 869.244 531.467 809.874 C 544.534 748.768 611.487 743.666 642.929 796.253 L 642.79 835.166 C 632.548 819.126 621.446 800.885 601.48 797.118 C 572.558 791.661 555.207 817.223 551.125 842.199 C 547.087 866.906 549.682 885.371 557.833 908.386 C 557.943 887.7 555.084 831.549 587.578 832.265 C 596.008 832.518 603.948 836.279 609.485 842.639 C 618.34 852.655 619.596 864.326 620.49 876.863 C 607.801 883.284 598.145 889.781 593.365 903.977 C 584.953 928.961 599.828 946.223 616.751 961.162 C 615.063 992.729 616.601 1018.55 651.195 1029.86 L 652.816 1031.02 C 653.455 1037.24 653.571 1042.97 654.049 1049.1 z" fill="rgb(255,140,66)" transform="translate(0,0)"></path>
<path d="M 923.437 1065.68 C 938.32 1058.26 952.853 1052.68 967.556 1044.26 C 973.221 1055.87 980.259 1067.57 985.765 1078.97 C 979.162 1079.02 952.763 1079.92 948.047 1081.34 C 937.587 1075.58 932.961 1076.58 923.437 1065.68 z" fill="rgb(152,32,29)" transform="translate(0,0)"></path>
<path d="M 642.287 892.446 C 646.213 896.389 645.752 917.857 644.797 922.864 C 638.216 927.695 634.917 932.34 628.599 937.614 L 627.802 936.09 C 617.842 917.407 619.754 898.943 642.287 892.446 z" fill="rgb(255,140,66)" transform="translate(0,0)"></path>
<path d="M 834.913 479.62 C 902.754 529.789 987.712 551.032 1071.18 538.695 C 1153.77 526.145 1224.58 485.604 1274.35 418.116 C 1275.16 417.019 1275.96 415.913 1276.76 414.801 C 1292.06 432.041 1312.26 460.377 1326.9 479.447 C 1315.66 491.043 1304.24 502.467 1292.65 513.714 C 1286.5 519.69 1276.31 528.891 1270.98 535.022 L 1271.95 695.988 C 1278.81 705.392 1288.91 715.692 1296.94 724.341 C 1311.15 739.639 1325.52 754.791 1340.05 769.795 C 1340.1 776.279 1339.91 786.001 1340.61 792.166 L 1342.61 795.452 C 1336.35 804.514 1344.84 961.443 1340.55 991.564 C 1338.81 1003.79 1328.75 1023.61 1323.81 1035.66 L 1275.09 1152.37 L 1252.19 1208.61 C 1250.47 1212.89 1244.71 1229.06 1242.72 1231.89 C 1239.75 1219.7 1235.77 1206.36 1232.2 1194.27 C 1223.46 1164.73 1219.81 1144.64 1196.36 1123.33 C 1176.34 1109.3 1130.09 1092.36 1105.12 1081.21 C 1097.08 1077.71 1073.98 1079.78 1064.11 1079.99 C 1051.25 1100.28 1041.1 1101.83 1018.15 1101.19 C 1017.34 1080.14 1018.09 1055.62 1018.09 1034.16 L 1018.03 909.385 C 1017.99 848.708 1015.8 770.678 1020.19 711.022 C 1008.14 731.802 992.728 769.252 978.815 790.904 C 978.057 791.191 977.298 791.478 976.54 791.765 C 978.935 780.05 986.208 759.965 990.124 748.534 C 956.727 743.384 921.748 732.688 888.412 725.676 C 858.999 719.49 828.826 712.277 799.71 704.766 L 793.237 710.77 C 789.742 704.531 790.932 658.769 790.916 648.95 L 790.93 524.861 C 803.197 510.291 821.132 493.326 834.913 479.62 z" fill="rgb(255,140,66)" transform="translate(0,0)"></path>
<path d="M 1066.94 828.945 C 1062.49 804.26 1053.06 771.167 1046.6 746.521 C 1051.7 753.056 1066.17 778.423 1069.53 780.883 L 1071.75 780.217 C 1075.63 791.928 1080.43 807.728 1084.97 818.85 C 1128.05 808.748 1171.2 798.944 1214.41 789.438 C 1222.15 787.747 1255.66 779.639 1260.84 780.258 C 1287.09 783.396 1314.77 791.854 1341.05 796.414 L 1342.61 795.452 C 1336.35 804.514 1344.84 961.443 1340.55 991.564 C 1338.81 1003.79 1328.75 1023.61 1323.81 1035.66 L 1275.09 1152.37 L 1252.19 1208.61 C 1250.47 1212.89 1244.71 1229.06 1242.72 1231.89 C 1239.75 1219.7 1235.77 1206.36 1232.2 1194.27 C 1223.46 1164.73 1219.81 1144.64 1196.36 1123.33 C 1176.34 1109.3 1130.09 1092.36 1105.12 1081.21 C 1109.07 1079.1 1112.97 1077.9 1117 1075.82 C 1122 1073.24 1125.24 1069.76 1129.55 1066.52 C 1130.5 1060.17 1130.37 1047.75 1130.36 1041.17 C 1125.67 1015.44 1108.53 994.934 1085.1 984.038 L 1083.34 982.881 C 1077.74 945.278 1076.4 904.69 1071.49 866.807 C 1070.61 859.977 1070.1 852.655 1069.8 845.771 L 1066.94 828.945 z" fill="rgb(255,140,66)" transform="translate(0,0)"></path>
<path d="M 1066.94 828.945 C 1062.49 804.26 1053.06 771.167 1046.6 746.521 C 1051.7 753.056 1066.17 778.423 1069.53 780.883 L 1071.75 780.217 C 1075.63 791.928 1080.43 807.728 1084.97 818.85 C 1128.05 808.748 1171.2 798.944 1214.41 789.438 C 1222.15 787.747 1255.66 779.639 1260.84 780.258 C 1287.09 783.396 1314.77 791.854 1341.05 796.414 C 1327.56 800.771 1262.74 821.821 1257.24 828.448 C 1209.5 809.771 1157.27 814.035 1116.26 845.853 C 1113.44 848.064 1108.86 850.871 1107.69 853.686 L 1108.85 853.755 C 1113.5 858.224 1118.34 863.015 1123.14 867.269 C 1124.73 873.818 1130.95 881.512 1135.44 886.601 C 1168.29 923.804 1211.98 938.868 1260.4 941.589 C 1254.69 943.832 1248.12 945.112 1242.01 945.919 C 1179.24 954.211 1111.01 917.032 1079.89 862.751 C 1076.59 856.996 1073.2 851.393 1069.8 845.771 L 1066.94 828.945 z" fill="rgb(255,90,31)" transform="translate(0,0)"></path>
<path d="M 1116.26 845.853 C 1157.27 814.035 1209.5 809.771 1257.24 828.448 C 1264.19 831.623 1291.26 844.816 1293.83 851.43 C 1290.86 855.637 1286.31 858.791 1282.36 862.089 C 1238.41 898.799 1179.63 907.146 1131.19 873.126 C 1128.48 871.211 1125.8 869.258 1123.14 867.269 C 1118.34 863.015 1113.5 858.224 1108.85 853.755 L 1107.69 853.686 C 1108.86 850.871 1113.44 848.064 1116.26 845.853 z" fill="rgb(245,237,230)" transform="translate(0,0)"></path>
<path d="M 1116.26 845.853 C 1157.27 814.035 1209.5 809.771 1257.24 828.448 C 1264.19 831.623 1291.26 844.816 1293.83 851.43 C 1270.93 838.231 1256.46 833.665 1231.88 826.682 C 1233.31 834.717 1234.68 842.266 1232.94 850.37 C 1231.06 859.128 1225.73 866.757 1218.15 871.532 C 1195.17 886.24 1160.81 870.667 1162.42 841.86 C 1162.7 836.714 1163.72 832.93 1165.04 828.015 C 1145.59 832.989 1134.48 838.691 1117.02 848.059 L 1108.85 853.755 L 1107.69 853.686 C 1108.86 850.871 1113.44 848.064 1116.26 845.853 z" fill="rgb(43,16,22)" transform="translate(0,0)"></path>
<path d="M 1178.05 835.395 C 1181.15 834.479 1184.5 835.322 1186.8 837.593 C 1189.1 839.865 1189.98 843.206 1189.1 846.315 C 1188.22 849.424 1185.72 851.808 1182.57 852.538 C 1177.9 853.622 1173.21 850.797 1171.99 846.159 C 1170.77 841.522 1173.45 836.754 1178.05 835.395 z" fill="rgb(245,237,230)" transform="translate(0,0)"></path>
<path d="M 1085.1 984.038 C 1111.62 983.563 1130.29 1018.04 1143 1037.05 L 1192.08 1111.6 L 1190.1 1113.15 C 1186 1107.64 1172.61 1094.86 1167.12 1089.42 C 1154.87 1077.41 1142.87 1065.16 1131.12 1052.65 C 1131.12 1048.26 1130.87 1045.55 1130.36 1041.17 C 1125.67 1015.44 1108.53 994.934 1085.1 984.038 z" fill="rgb(152,32,29)" transform="translate(0,0)"></path>
<path d="M 1192.08 1111.6 C 1194.23 1114.25 1195.89 1116.01 1196.52 1119.43 C 1195.84 1118.91 1191.62 1114.52 1190.1 1113.15 L 1192.08 1111.6 z" fill="rgb(255,90,31)" transform="translate(0,0)"></path>
<path d="M 1061.42 748.557 C 1078.25 745.616 1095.44 741.65 1112.02 737.499 C 1158.52 725.851 1206.08 717.249 1252.35 704.761 C 1279.95 734.592 1312.02 763.019 1340.61 792.166 L 1342.61 795.452 L 1341.05 796.414 C 1314.77 791.854 1287.09 783.396 1260.84 780.258 C 1255.66 779.639 1222.15 787.747 1214.41 789.438 C 1171.2 798.944 1128.05 808.748 1084.97 818.85 C 1080.43 807.728 1075.63 791.928 1071.75 780.217 C 1068.48 769.607 1065.04 759.052 1061.42 748.557 z" fill="rgb(43,16,22)" transform="translate(0,0)"></path>
<path d="M 1039.98 829.042 C 1049.26 829.297 1057.69 829.153 1066.94 828.945 L 1069.8 845.771 C 1070.1 852.655 1070.61 859.977 1071.49 866.807 C 1076.4 904.69 1077.74 945.278 1083.34 982.881 L 1085.1 984.038 C 1108.53 994.934 1125.67 1015.44 1130.36 1041.17 C 1130.37 1047.75 1130.5 1060.17 1129.55 1066.52 C 1125.24 1069.76 1122 1073.24 1117 1075.82 C 1112.97 1077.9 1109.07 1079.1 1105.12 1081.21 C 1097.08 1077.71 1073.98 1079.78 1064.11 1079.99 C 1069.5 1070.83 1081.09 1053.51 1085.03 1044.53 C 1077.74 1045.77 1050.57 1055.55 1040.29 1058.56 L 1039.98 829.042 z" fill="rgb(255,209,102)" transform="translate(0,0)"></path>
<path d="M 1085.03 1044.53 C 1100.1 1051.42 1114.46 1060.04 1129.55 1066.52 C 1125.24 1069.76 1122 1073.24 1117 1075.82 C 1112.97 1077.9 1109.07 1079.1 1105.12 1081.21 C 1097.08 1077.71 1073.98 1079.78 1064.11 1079.99 C 1069.5 1070.83 1081.09 1053.51 1085.03 1044.53 z" fill="rgb(152,32,29)" transform="translate(0,0)"></path>
<path d="M 892.14 636.115 L 1189.88 636.067 C 1193.37 635.989 1194.19 635.469 1196.97 636.956 C 1193.82 638.535 1192.73 638.507 1189.32 638.99 C 1152.28 645.104 1114.23 654.613 1077.26 661.248 C 1065.8 663.307 1037.28 669.835 1026.88 669.66 C 1006.93 669.325 975.289 661.808 955.342 657.612 L 862.884 638.557 C 858.647 638.069 853.738 637.075 849.481 636.325 C 862.479 635.597 879.135 635.748 892.14 636.115 z" fill="rgb(255,90,31)" transform="translate(0,0)"></path>
<path d="M 1326.9 479.447 C 1336.22 491.347 1347.39 505.279 1355.97 517.642 C 1343.77 555.729 1329.5 593.995 1316.96 632.029 C 1311.86 647.492 1304.73 664.517 1300.12 679.836 C 1311.91 693.78 1323.51 707.881 1334.93 722.134 C 1341.82 730.695 1351.52 743.423 1359.01 750.957 C 1359.46 785.411 1359.5 819.87 1359.16 854.325 C 1375.38 865.805 1390.31 879.12 1406.07 890.847 C 1407.7 886.088 1407.05 851.842 1407.02 844.935 L 1407.13 798.606 C 1438.21 743.194 1506.12 745.741 1521.11 813.954 C 1535.92 881.37 1481.28 1050.6 1399.03 1049.24 C 1396.85 1084.49 1396.57 1119.89 1394.16 1155.16 C 1392.95 1172.98 1392.88 1179.09 1378.8 1191.6 C 1378.25 1243.19 1378.03 1294.78 1378.14 1346.37 C 1382.47 1349.2 1385.47 1350.36 1389.12 1354.24 C 1383.78 1357.83 1382.77 1358.81 1378.23 1363.11 C 1350.1 1393.37 1311.81 1426.3 1281.72 1455.19 C 1265.4 1470.87 1244.58 1492.78 1227.37 1506.77 C 1232.59 1487.79 1245.49 1462.57 1253.48 1443.61 L 1302.35 1328.47 C 1311.85 1306.42 1323.43 1281.86 1331.77 1259.72 C 1334.63 1252.89 1337.01 1247.2 1339.31 1240.17 C 1300.56 1288.12 1260.67 1333.76 1221.08 1380.84 C 1219.08 1357.37 1221.24 1307.2 1221.7 1282.12 C 1221.76 1278.93 1234.61 1251.28 1236.95 1245.56 L 1248 1249.87 C 1246.11 1243.91 1244.35 1237.92 1242.72 1231.89 C 1244.71 1229.06 1250.47 1212.89 1252.19 1208.61 L 1275.09 1152.37 L 1323.81 1035.66 C 1328.75 1023.61 1338.81 1003.79 1340.55 991.564 C 1344.84 961.443 1336.35 804.514 1342.61 795.452 L 1340.61 792.166 C 1339.91 786.001 1340.1 776.279 1340.05 769.795 C 1325.52 754.791 1311.15 739.639 1296.94 724.341 C 1288.91 715.692 1278.81 705.392 1271.95 695.988 L 1270.98 535.022 C 1276.31 528.891 1286.5 519.69 1292.65 513.714 C 1304.24 502.467 1315.66 491.043 1326.9 479.447 z" fill="rgb(255,209,102)" transform="translate(0,0)"></path>
<path d="M 1407.02 844.935 C 1411.35 835.867 1414.1 827.17 1420.23 818.926 C 1447.88 781.728 1487.35 793.419 1500.03 835.362 C 1507.61 860.433 1501.95 884.789 1495.92 909.782 L 1495.81 908.479 C 1493.96 883.645 1500.66 847.036 1473.8 833.056 C 1439.04 831.991 1436.07 848.857 1431.59 878.478 C 1474.69 898.908 1470.73 937.419 1433.99 961.307 C 1438.48 990.823 1435.09 1021.49 1400.64 1030.28 C 1402.02 995.524 1403.48 957.878 1404.17 923.086 C 1408.68 926.533 1420.33 936.655 1424.96 936.205 C 1434.85 930.718 1432.91 893.633 1406.07 890.847 C 1407.7 886.088 1407.05 851.842 1407.02 844.935 z" fill="rgb(255,140,66)" transform="translate(0,0)"></path>
<path d="M 1378.14 1346.37 C 1382.47 1349.2 1385.47 1350.36 1389.12 1354.24 C 1383.78 1357.83 1382.77 1358.81 1378.23 1363.11 C 1377.54 1357.16 1377.95 1352.34 1378.14 1346.37 z" fill="rgb(255,140,66)" transform="translate(0,0)"></path>
<path d="M 944.678 294.394 C 1034.12 266.367 1138.8 268.174 1224.87 308.311 C 1241.69 316.154 1259.61 336.624 1271.23 350.889 C 1326.42 365.192 1361.88 388.95 1392.04 438.995 C 1415.55 477.994 1429.18 533.558 1429.17 579.466 C 1430.93 589.749 1430.04 611.535 1428.94 621.999 C 1428.58 618.411 1427.13 606.075 1427.28 603.064 C 1426.07 589.747 1423 574.902 1419.83 561.85 C 1394.69 458.197 1340.36 400.912 1251.98 346.994 C 1161.51 291.805 1050.36 271.196 946.832 296.656 C 945.184 295.877 945.293 296.017 944.678 294.394 z" fill="rgb(255,209,102)" transform="translate(0,0)"></path>
<path d="M 1429.17 579.466 C 1430.93 589.749 1430.04 611.535 1428.94 621.999 C 1428.58 618.411 1427.13 606.075 1427.28 603.064 C 1430.62 601.945 1428.89 584.077 1429.17 579.466 z" fill="rgb(171,120,56)" transform="translate(0,0)"></path>
<path d="M 946.832 296.656 C 944.357 297.633 921.85 303.71 920.494 303.467 C 927.379 300.567 937.543 295.677 944.678 294.394 C 945.293 296.017 945.184 295.877 946.832 296.656 z" fill="rgb(171,120,56)" transform="translate(0,0)"></path>
<metadata><recraft-signature>{"signed_by": "recraft", "signature_b64": "RRVVZ+tlqqVGShmGB2OiAx9bOLZdKQGEID1PBuwExUvbDmi5s+EMkRJDVNKBZeCsrMyo7poBGFINGSN1v6hUBA==", "signing_algo": "Ed25519", "generation_timestamp": 1783313383, "identifier": "3f14f9cf-b6b9-47e6-94e9-9c870fb5e90e"}</recraft-signature></metadata></svg>