<svg xmlns="http://www.w3.org/2000/svg" height="1024" preserveAspectRatio="none" style="display: block;" version="1.1" viewBox="0 0 2048 2048" width="1024">
<path d="M 0 0 L 2048 0 L 2048 2048 L 1865.8 2048 L 1710.59 2048 L 1707.55 2048 L 1569.02 2048 L 1521.63 2048 L 1516.55 2048 L 1354.17 2048 L 1348.95 2048 L 1137.37 2048 L 1134.28 2048 L 1000.35 2048 L 912.949 2048 L 697.647 2048 L 692.044 2048 L 619.404 2048 L 530.451 2048 L 479.13 2048 L 340.948 2048 L 337.504 2048 L 207.352 2048 L 182.406 2048 L 0 2048 L 0 0 z" fill="rgb(58,36,32)" transform="translate(0,0)"></path>
<path d="M 718.886 1193.16 L 720.572 1191.06 C 731.264 1225.65 739.58 1261.55 749.956 1296.19 C 759.036 1312.9 799.828 1348.96 813.956 1364.44 C 829.78 1381.78 851.82 1399.95 868.149 1417.53 C 874.6 1424.47 909.154 1458.89 913.975 1460.88 L 914.414 1460.77 C 918.19 1456.79 913.788 1409.48 916.68 1402.23 L 916.994 1376.8 C 919.543 1379.9 920.314 1380.47 923.068 1382.8 C 927.513 1386.55 930.612 1395.49 934.252 1400.58 C 942.755 1412.44 951.132 1402.49 954.312 1416.7 C 955.249 1420.89 971.855 1427.65 977.627 1428.59 C 980.448 1427.8 980.461 1427.76 983.005 1426.28 C 984.907 1427.7 989.893 1432.77 990.518 1433.13 C 994.411 1435.35 1006.82 1436.85 1011.49 1437.6 C 1015.55 1435.51 1018.97 1432.7 1023.01 1434.31 C 1030.39 1437.24 1038.51 1439.34 1046.25 1436.26 C 1053.03 1433.55 1054.05 1427.05 1062.43 1429.71 C 1070.37 1432.22 1080.29 1427.05 1085.99 1421.87 C 1085.87 1419.19 1085.29 1418.02 1086.52 1416.35 L 1087.73 1416.88 C 1091.06 1418.32 1093.26 1419.83 1096.36 1418.2 C 1102.85 1414.81 1112.74 1408.57 1115.55 1401.81 C 1124.12 1397.05 1127.92 1395.08 1134.85 1387.82 C 1134.76 1409.29 1134.34 1431.8 1134.92 1453.18 C 1134.36 1464.17 1134.46 1479.01 1134.96 1490.1 C 1132.73 1675.27 1137.58 1863.22 1134.28 2048 L 1000.35 2048 L 912.949 2048 L 697.647 2048 L 692.044 2048 L 619.404 2048 L 530.451 2048 L 479.13 2048 L 340.948 2048 L 337.504 2048 L 207.352 2048 L 182.406 2048 C 193.323 2001.45 208.561 1950.03 221.002 1903.61 L 233.871 1855.37 C 235.886 1847.86 239.073 1834.32 242.064 1827.7 L 242.439 1823.09 L 335.256 1479.7 L 353.665 1412.08 C 355.102 1406.67 362.491 1376.68 364.405 1373.45 L 367.329 1371.51 C 366.399 1368.42 366.402 1369.62 366.872 1366.56 C 373.39 1359.94 391.878 1352.39 400.935 1348.25 C 404.919 1345.59 432.768 1332.48 438.676 1329.62 L 520.924 1289.72 L 656.352 1224.25 C 674.024 1215.64 702.017 1200.43 718.886 1193.16 z" fill="rgb(255,90,31)" transform="translate(0,0)"></path>
<path d="M 412.252 1544.24 C 423.261 1552.48 444.504 1574.89 455.556 1585.27 C 497.054 1624.39 538.255 1663.82 579.156 1703.57 L 670.921 1790.91 C 680.526 1800.02 709.71 1826.68 717.257 1835.92 C 733.068 1850.55 748.68 1865.39 764.088 1880.44 L 859.38 1972.27 C 872.559 1984.94 897.217 2009.82 910.764 2020.71 C 914.808 2025.64 913.065 2040.4 912.949 2048 L 697.647 2048 L 692.044 2048 L 619.404 2048 L 530.451 2048 L 479.13 2048 L 340.948 2048 C 345.868 2027.32 349.978 2004.08 354.472 1982.94 C 364.555 1936.4 374.32 1889.79 383.765 1843.12 C 392.75 1798.49 405.052 1750.4 409.048 1705.41 C 412.375 1667.96 415.537 1628.8 417.379 1591.28 L 420.97 1588.67 C 420.359 1586.7 419.827 1585.47 419.04 1583.58 L 422.548 1582.68 C 419.19 1570.13 415.334 1556.78 412.252 1544.24 z" fill="rgb(255,140,66)" transform="translate(0,0)"></path>
<path d="M 422.548 1582.68 C 432.436 1623.91 444.893 1666.46 455.232 1708.47 L 477.405 1797.89 C 480.406 1810.01 488.594 1850.29 495.18 1858.09 C 494.862 1858.49 493.58 1860.01 493.412 1860.4 C 493.211 1868.12 508.264 1936.7 510.582 1948.33 L 523.574 2014.11 C 525.268 2022.74 528.143 2040.04 530.451 2048 L 479.13 2048 L 340.948 2048 C 345.868 2027.32 349.978 2004.08 354.472 1982.94 C 364.555 1936.4 374.32 1889.79 383.765 1843.12 C 392.75 1798.49 405.052 1750.4 409.048 1705.41 C 412.375 1667.96 415.537 1628.8 417.379 1591.28 L 420.97 1588.67 C 420.359 1586.7 419.827 1585.47 419.04 1583.58 L 422.548 1582.68 z" fill="rgb(255,140,66)" transform="translate(0,0)"></path>
<path d="M 422.548 1582.68 C 432.436 1623.91 444.893 1666.46 455.232 1708.47 L 477.405 1797.89 C 480.406 1810.01 488.594 1850.29 495.18 1858.09 C 494.862 1858.49 493.58 1860.01 493.412 1860.4 C 493.211 1868.12 508.264 1936.7 510.582 1948.33 L 523.574 2014.11 C 525.268 2022.74 528.143 2040.04 530.451 2048 L 479.13 2048 C 478.467 2022.7 474.13 1986.83 471.718 1961.18 C 467.494 1913.72 462.937 1866.28 458.047 1818.88 C 452.695 1767.34 450.526 1711.2 440.077 1660.34 C 435.285 1637.02 426.366 1612.49 420.97 1588.67 C 420.359 1586.7 419.827 1585.47 419.04 1583.58 L 422.548 1582.68 z" fill="rgb(58,36,32)" transform="translate(0,0)"></path>
<path d="M 493.412 1860.4 C 524.473 1888.95 555.301 1917.76 585.892 1946.82 C 603.808 1963.54 627.626 1984.59 644.534 2002.1 C 660.25 2017.52 676.087 2032.82 692.044 2048 L 619.404 2048 L 530.451 2048 C 528.143 2040.04 525.268 2022.74 523.574 2014.11 L 510.582 1948.33 C 508.264 1936.7 493.211 1868.12 493.412 1860.4 z" fill="rgb(255,140,66)" transform="translate(0,0)"></path>
<path d="M 493.412 1860.4 C 493.58 1860.01 494.862 1858.49 495.18 1858.09 C 524.422 1884.88 553.386 1911.98 582.066 1939.38 C 602.811 1958.85 625.695 1979.22 645.818 1999.17 L 690.667 2042.03 C 692.995 2044.06 695.236 2046.06 697.647 2048 L 692.044 2048 C 676.087 2032.82 660.25 2017.52 644.534 2002.1 C 627.626 1984.59 603.808 1963.54 585.892 1946.82 C 555.301 1917.76 524.473 1888.95 493.412 1860.4 z" fill="rgb(43,16,22)" transform="translate(0,0)"></path>
<path d="M 916.994 1376.8 C 919.543 1379.9 920.314 1380.47 923.068 1382.8 C 927.513 1386.55 930.612 1395.49 934.252 1400.58 C 942.755 1412.44 951.132 1402.49 954.312 1416.7 C 955.249 1420.89 971.855 1427.65 977.627 1428.59 C 980.448 1427.8 980.461 1427.76 983.005 1426.28 C 984.907 1427.7 989.893 1432.77 990.518 1433.13 C 994.411 1435.35 1006.82 1436.85 1011.49 1437.6 C 1015.55 1435.51 1018.97 1432.7 1023.01 1434.31 C 1030.39 1437.24 1038.51 1439.34 1046.25 1436.26 C 1053.03 1433.55 1054.05 1427.05 1062.43 1429.71 C 1070.37 1432.22 1080.29 1427.05 1085.99 1421.87 C 1085.87 1419.19 1085.29 1418.02 1086.52 1416.35 L 1087.73 1416.88 C 1091.06 1418.32 1093.26 1419.83 1096.36 1418.2 C 1102.85 1414.81 1112.74 1408.57 1115.55 1401.81 C 1124.12 1397.05 1127.92 1395.08 1134.85 1387.82 C 1134.76 1409.29 1134.34 1431.8 1134.92 1453.18 C 1134.36 1464.17 1134.46 1479.01 1134.96 1490.1 C 1132.73 1675.27 1137.58 1863.22 1134.28 2048 L 1000.35 2048 L 912.949 2048 C 913.065 2040.4 914.808 2025.64 910.764 2020.71 L 912.549 2017.95 C 913.673 2012.62 913.028 1959.88 913.081 1950.68 C 913.6 1912.94 913.819 1875.2 913.74 1837.46 C 913.658 1803.04 912.937 1766.64 914.102 1732.36 C 917.954 1727.16 914.775 1629.02 916.185 1612.56 C 916.437 1609.69 916.226 1605.01 916.188 1602.01 C 917.478 1583.1 916.693 1553.9 916.718 1534.41 L 916.68 1402.23 L 916.994 1376.8 z" fill="rgb(245,237,230)" transform="translate(0,0)"></path>
<path d="M 916.185 1612.56 C 918.635 1662.37 912.895 1714.39 920.881 1763.78 C 921.984 1770.6 922.983 1777.52 924.066 1784.34 C 934.939 1851.69 951.787 1917.94 974.41 1982.29 C 981.064 2001.73 990.79 2029.68 1000.35 2048 L 912.949 2048 C 913.065 2040.4 914.808 2025.64 910.764 2020.71 L 912.549 2017.95 C 913.673 2012.62 913.028 1959.88 913.081 1950.68 C 913.6 1912.94 913.819 1875.2 913.74 1837.46 C 913.658 1803.04 912.937 1766.64 914.102 1732.36 C 917.954 1727.16 914.775 1629.02 916.185 1612.56 z" fill="rgb(58,36,32)" transform="translate(0,0)"></path>
<path d="M 718.886 1193.16 L 720.572 1191.06 C 731.264 1225.65 739.58 1261.55 749.956 1296.19 C 748.802 1298.28 748.954 1299.02 747.502 1299.57 C 743.709 1302.68 734.49 1307.32 733.715 1308.07 C 623.815 1371.34 510.036 1431.54 400.539 1495.16 C 393.114 1468.89 386.131 1442.49 379.592 1415.98 C 375.718 1401.28 371.912 1385.95 367.329 1371.51 C 366.399 1368.42 366.402 1369.62 366.872 1366.56 C 373.39 1359.94 391.878 1352.39 400.935 1348.25 C 404.919 1345.59 432.768 1332.48 438.676 1329.62 L 520.924 1289.72 L 656.352 1224.25 C 674.024 1215.64 702.017 1200.43 718.886 1193.16 z" fill="rgb(245,237,230)" transform="translate(0,0)"></path>
<path d="M 718.886 1193.16 L 720.572 1191.06 C 731.264 1225.65 739.58 1261.55 749.956 1296.19 C 748.802 1298.28 748.954 1299.02 747.502 1299.57 C 743.728 1289.47 737.935 1264.35 734.75 1252.88 C 729.746 1234.84 722.195 1211.09 718.886 1193.16 z" fill="rgb(43,16,22)" transform="translate(0,0)"></path>
<path d="M 271.724 1811.12 C 281.566 1804.48 295.987 1796.57 306.689 1790.77 C 338.496 1773.54 370.208 1751.9 401.974 1735.05 C 394.406 1784.26 380.534 1842.07 370.446 1891.63 C 363.348 1926.93 356 1962.18 348.404 1997.37 C 345.247 2012.21 341.335 2033.92 337.504 2048 L 207.352 2048 L 182.406 2048 C 193.323 2001.45 208.561 1950.03 221.002 1903.61 L 233.871 1855.37 C 235.886 1847.86 239.073 1834.32 242.064 1827.7 C 249.701 1824.11 263.139 1815.65 271.724 1811.12 z" fill="rgb(245,237,230)" transform="translate(0,0)"></path>
<path d="M 242.439 1823.09 L 335.256 1479.7 L 353.665 1412.08 C 355.102 1406.67 362.491 1376.68 364.405 1373.45 C 366.953 1379.66 370.498 1395.19 372.335 1402.4 L 386.165 1456.49 C 395.125 1490.93 408.043 1534.73 415.028 1570.08 C 417.793 1584.08 410.979 1613.53 411.717 1628.7 C 408.987 1662.02 407.227 1696.44 403.614 1729.55 C 391.144 1737.16 250.234 1821.56 242.439 1823.09 z" fill="rgb(245,237,230)" transform="translate(0,0)"></path>
<path d="M 400.539 1495.16 C 510.036 1431.54 623.815 1371.34 733.715 1308.07 L 736.835 1309.56 L 488.627 1449.32 C 459.12 1466 430.18 1481.16 400.876 1498.42 C 404.063 1511.42 407.488 1526.18 411.476 1538.94 C 424.086 1548.32 439.071 1564.93 450.717 1576.24 L 513.753 1636.48 L 621.606 1739.81 C 652.592 1769.12 686.07 1799.84 716.251 1829.79 L 764.752 1876.85 C 801.084 1913.12 840.254 1948.13 876.822 1984.33 C 888.219 1995.61 901.471 2006.77 912.549 2017.95 L 910.764 2020.71 C 897.217 2009.82 872.559 1984.94 859.38 1972.27 L 764.088 1880.44 C 748.68 1865.39 733.068 1850.55 717.257 1835.92 C 709.71 1826.68 680.526 1800.02 670.921 1790.91 L 579.156 1703.57 C 538.255 1663.82 497.054 1624.39 455.556 1585.27 C 444.504 1574.89 423.261 1552.48 412.252 1544.24 C 415.334 1556.78 419.19 1570.13 422.548 1582.68 L 419.04 1583.58 C 419.827 1585.47 420.359 1586.7 420.97 1588.67 L 417.379 1591.28 C 415.537 1628.8 412.375 1667.96 409.048 1705.41 C 405.052 1750.4 392.75 1798.49 383.765 1843.12 C 374.32 1889.79 364.555 1936.4 354.472 1982.94 C 349.978 2004.08 345.868 2027.32 340.948 2048 L 337.504 2048 C 341.335 2033.92 345.247 2012.21 348.404 1997.37 C 356 1962.18 363.348 1926.93 370.446 1891.63 C 380.534 1842.07 394.406 1784.26 401.974 1735.05 C 370.208 1751.9 338.496 1773.54 306.689 1790.77 C 295.987 1796.57 281.566 1804.48 271.724 1811.12 C 263.139 1815.65 249.701 1824.11 242.064 1827.7 L 242.439 1823.09 C 250.234 1821.56 391.144 1737.16 403.614 1729.55 C 407.227 1696.44 408.987 1662.02 411.717 1628.7 C 410.979 1613.53 417.793 1584.08 415.028 1570.08 C 408.043 1534.73 395.125 1490.93 386.165 1456.49 L 372.335 1402.4 C 370.498 1395.19 366.953 1379.66 364.405 1373.45 L 367.329 1371.51 C 371.912 1385.95 375.718 1401.28 379.592 1415.98 C 386.131 1442.49 393.114 1468.89 400.539 1495.16 z" fill="rgb(43,16,22)" transform="translate(0,0)"></path>
<path d="M 417.379 1591.28 C 417.653 1588.66 417.053 1585.29 419.04 1583.58 C 419.827 1585.47 420.359 1586.7 420.97 1588.67 L 417.379 1591.28 z" fill="rgb(255,90,31)" transform="translate(0,0)"></path>
<path d="M 747.502 1299.57 C 748.954 1299.02 748.802 1298.28 749.956 1296.19 C 759.036 1312.9 799.828 1348.96 813.956 1364.44 C 829.78 1381.78 851.82 1399.95 868.149 1417.53 C 874.6 1424.47 909.154 1458.89 913.975 1460.88 L 914.414 1460.77 C 918.19 1456.79 913.788 1409.48 916.68 1402.23 L 916.718 1534.41 C 916.693 1553.9 917.478 1583.1 916.188 1602.01 C 915.012 1593.73 916.058 1580.94 915.715 1572.27 C 914.697 1546.56 917.438 1513.58 915.426 1488.5 L 914.596 1488.93 L 913.78 1496.51 C 913.734 1495.12 913.548 1487.6 912.639 1486.67 C 893.252 1466.9 872.796 1448.1 853.254 1428.52 C 815.312 1390.69 778.332 1351.91 742.35 1312.22 C 739.909 1309.95 740.127 1310.05 736.835 1309.56 L 733.715 1308.07 C 734.49 1307.32 743.709 1302.68 747.502 1299.57 z" fill="rgb(58,36,32)" transform="translate(0,0)"></path>
<path d="M 913.78 1496.51 L 914.596 1488.93 L 915.426 1488.5 C 917.438 1513.58 914.697 1546.56 915.715 1572.27 C 916.058 1580.94 915.012 1593.73 916.188 1602.01 C 916.226 1605.01 916.437 1609.69 916.185 1612.56 C 914.775 1629.02 917.954 1727.16 914.102 1732.36 C 913.382 1712.75 913.986 1688.82 913.949 1668.96 L 913.68 1543.46 C 913.848 1527.81 913.881 1512.16 913.78 1496.51 z" fill="rgb(43,16,22)" transform="translate(0,0)"></path>
<path d="M 1146.17 1234.09 C 1169.47 1224.22 1195.65 1211.32 1218.82 1200.66 L 1330.98 1149.38 C 1331.1 1159.11 1332.45 1183.79 1329.01 1191.9 L 1330.27 1194.82 C 1337.75 1195.53 1493.89 1273.51 1515.52 1283.94 L 1626.82 1337.31 C 1645.83 1346.43 1665.89 1355.44 1684.53 1365.13 C 1686.11 1367.41 1685.55 1366.18 1685.76 1369.03 C 1686.93 1371.57 1686.41 1370.98 1688.19 1372.98 C 1684.36 1382.47 1680.47 1399.56 1677.67 1410.04 L 1660.02 1476.25 L 1644.73 1533.31 C 1643.41 1538.25 1636.47 1563.74 1636.54 1566.99 C 1636.95 1586.33 1638.48 1611.28 1640.21 1630.48 C 1643.07 1662.35 1643.3 1698.34 1647.29 1729.68 C 1649.07 1731.09 1648.87 1731.07 1650.86 1732.07 L 1649.46 1735.24 C 1645.99 1742.73 1705.54 2010.75 1710.59 2048 L 1707.55 2048 L 1569.02 2048 L 1521.63 2048 L 1516.55 2048 L 1354.17 2048 L 1348.95 2048 L 1137.37 2048 L 1134.28 2048 C 1137.58 1863.22 1132.73 1675.27 1134.96 1490.1 C 1134.46 1479.01 1134.36 1464.17 1134.92 1453.18 L 1135.89 1453.39 C 1136.98 1451.34 1136.92 1434.34 1137.21 1429.72 C 1138.23 1414 1137.17 1383.61 1137.16 1366.99 C 1136.97 1323.97 1137.25 1280.94 1137.98 1237.91 C 1140.27 1236.7 1143.73 1235.22 1146.17 1234.09 z" fill="rgb(255,90,31)" transform="translate(0,0)"></path>
<path d="M 1500.71 1667.88 C 1525.39 1640.96 1556.3 1615.57 1582.09 1589.11 C 1601.31 1569.39 1622.54 1551.41 1641.82 1531.33 C 1638.03 1547.64 1633.04 1564.47 1628.51 1580.65 L 1631.98 1580.03 L 1632.77 1579.87 C 1635.2 1590.21 1635.58 1609.84 1636.32 1620.8 C 1637.99 1648.98 1640.35 1677.11 1642.11 1705.29 C 1644.44 1742.76 1654.24 1779.08 1660.95 1815.95 C 1675.06 1893.48 1693.12 1970.6 1707.55 2048 L 1569.02 2048 L 1521.63 2048 L 1516.55 2048 L 1354.17 2048 L 1348.95 2048 L 1137.37 2048 C 1137.48 2037.48 1137.26 2026.52 1137.2 2015.97 L 1389.05 1773.87 L 1461.78 1704.37 C 1473.15 1693.52 1489.05 1677.53 1500.71 1667.88 z" fill="rgb(255,140,66)" transform="translate(0,0)"></path>
<path d="M 1631.98 1580.03 L 1632.77 1579.87 C 1635.2 1590.21 1635.58 1609.84 1636.32 1620.8 C 1637.99 1648.98 1640.35 1677.11 1642.11 1705.29 C 1644.44 1742.76 1654.24 1779.08 1660.95 1815.95 C 1675.06 1893.48 1693.12 1970.6 1707.55 2048 L 1569.02 2048 L 1521.63 2048 C 1529.96 1993.87 1541.62 1939.65 1552.39 1885.91 C 1554.19 1876.93 1556.29 1868.19 1557.53 1859.09 L 1558.85 1854.39 C 1559.05 1847.27 1572.8 1794.1 1575.38 1783.81 C 1592.04 1715.82 1609.75 1648.09 1628.51 1580.65 L 1631.98 1580.03 z" fill="rgb(255,140,66)" transform="translate(0,0)"></path>
<path d="M 1628.51 1580.65 L 1631.98 1580.03 C 1627.23 1593.2 1625.08 1608.2 1620.74 1621.27 C 1609.14 1656.22 1604.95 1684.64 1601.29 1721.08 L 1593.74 1798.24 L 1575.75 1983.29 C 1573.96 2000.35 1571.72 2031.99 1569.02 2048 L 1521.63 2048 C 1529.96 1993.87 1541.62 1939.65 1552.39 1885.91 C 1554.19 1876.93 1556.29 1868.19 1557.53 1859.09 L 1558.85 1854.39 C 1559.05 1847.27 1572.8 1794.1 1575.38 1783.81 C 1592.04 1715.82 1609.75 1648.09 1628.51 1580.65 z" fill="rgb(58,36,32)" transform="translate(0,0)"></path>
<path d="M 1557.53 1859.09 C 1556.29 1868.19 1554.19 1876.93 1552.39 1885.91 C 1541.62 1939.65 1529.96 1993.87 1521.63 2048 L 1516.55 2048 L 1354.17 2048 C 1396.07 2010.19 1437.52 1970.05 1479.52 1931.79 C 1504.5 1907.31 1531.8 1883.04 1557.53 1859.09 z" fill="rgb(255,140,66)" transform="translate(0,0)"></path>
<path d="M 1479.19 1926.99 L 1528.83 1880.87 C 1536.29 1873.96 1550.9 1859.72 1558.85 1854.39 L 1557.53 1859.09 C 1531.8 1883.04 1504.5 1907.31 1479.52 1931.79 C 1437.52 1970.05 1396.07 2010.19 1354.17 2048 L 1348.95 2048 L 1425.18 1977.45 C 1442.5 1961.49 1462.71 1943.61 1479.19 1926.99 z" fill="rgb(43,16,22)" transform="translate(0,0)"></path>
<path d="M 1330.27 1194.82 C 1337.75 1195.53 1493.89 1273.51 1515.52 1283.94 L 1626.82 1337.31 C 1645.83 1346.43 1665.89 1355.44 1684.53 1365.13 C 1686.11 1367.41 1685.55 1366.18 1685.76 1369.03 C 1680.85 1382.54 1676.26 1402 1672.44 1416.4 C 1665.56 1442.74 1658.49 1469.04 1651.23 1495.28 C 1619.07 1478.43 1586.41 1459.46 1554.6 1441.76 L 1367.47 1337.67 C 1347.86 1326.81 1328 1314.89 1308.26 1304.48 C 1304.39 1299.94 1300.62 1303.79 1301.65 1295.7 C 1306.36 1286.4 1328.65 1205.32 1330.27 1194.82 z" fill="rgb(245,237,230)" transform="translate(0,0)"></path>
<path d="M 1146.17 1234.09 C 1169.47 1224.22 1195.65 1211.32 1218.82 1200.66 L 1330.98 1149.38 C 1331.1 1159.11 1332.45 1183.79 1329.01 1191.9 L 1330.27 1194.82 C 1328.65 1205.32 1306.36 1286.4 1301.65 1295.7 L 1298.56 1295.09 C 1293.48 1306.87 1275.39 1322.81 1265.72 1332.27 L 1220.19 1376.57 C 1193.52 1402.5 1165.93 1431.95 1137.99 1456.3 C 1137.74 1448.52 1137.86 1437.06 1137.21 1429.72 C 1138.23 1414 1137.17 1383.61 1137.16 1366.99 C 1136.97 1323.97 1137.25 1280.94 1137.98 1237.91 C 1140.27 1236.7 1143.73 1235.22 1146.17 1234.09 z" fill="rgb(255,90,31)" transform="translate(0,0)"></path>
<path d="M 1329.01 1191.9 L 1330.27 1194.82 C 1328.65 1205.32 1306.36 1286.4 1301.65 1295.7 L 1298.56 1295.09 C 1308.63 1268.85 1321.1 1219.87 1329.01 1191.9 z" fill="rgb(43,16,22)" transform="translate(0,0)"></path>
<path d="M 1308.26 1304.48 C 1328 1314.89 1347.86 1326.81 1367.47 1337.67 L 1554.6 1441.76 C 1586.41 1459.46 1619.07 1478.43 1651.23 1495.28 C 1658.49 1469.04 1665.56 1442.74 1672.44 1416.4 C 1676.26 1402 1680.85 1382.54 1685.76 1369.03 C 1686.93 1371.57 1686.41 1370.98 1688.19 1372.98 C 1684.36 1382.47 1680.47 1399.56 1677.67 1410.04 L 1660.02 1476.25 L 1644.73 1533.31 C 1643.41 1538.25 1636.47 1563.74 1636.54 1566.99 C 1636.95 1586.33 1638.48 1611.28 1640.21 1630.48 C 1643.07 1662.35 1643.3 1698.34 1647.29 1729.68 C 1649.07 1731.09 1648.87 1731.07 1650.86 1732.07 L 1649.46 1735.24 C 1645.99 1742.73 1705.54 2010.75 1710.59 2048 L 1707.55 2048 C 1693.12 1970.6 1675.06 1893.48 1660.95 1815.95 C 1654.24 1779.08 1644.44 1742.76 1642.11 1705.29 C 1640.35 1677.11 1637.99 1648.98 1636.32 1620.8 C 1635.58 1609.84 1635.2 1590.21 1632.77 1579.87 L 1631.98 1580.03 L 1628.51 1580.65 C 1633.04 1564.47 1638.03 1547.64 1641.82 1531.33 C 1622.54 1551.41 1601.31 1569.39 1582.09 1589.11 C 1556.3 1615.57 1525.39 1640.96 1500.71 1667.88 C 1489.05 1677.53 1473.15 1693.52 1461.78 1704.37 L 1389.05 1773.87 L 1137.2 2015.97 C 1137.26 2026.52 1137.48 2037.48 1137.37 2048 L 1134.28 2048 C 1137.58 1863.22 1132.73 1675.27 1134.96 1490.1 L 1136.26 1486.58 C 1137.61 1494.03 1136.39 1511.06 1137.24 1520.01 C 1137.86 1561.8 1137.28 1604.63 1137.28 1646.49 L 1137.24 1881.23 C 1137.22 1923.6 1136.42 1968.88 1137.44 2010.98 L 1408.84 1750.73 C 1432.01 1728.26 1455.3 1705.91 1478.7 1683.68 C 1488.19 1674.7 1509.97 1655.39 1517.92 1646.19 C 1521.37 1643.95 1554.74 1610.91 1561.13 1604.73 L 1612.55 1555.38 C 1622.5 1545.82 1634.38 1534.91 1643.02 1524.29 C 1646.04 1520.57 1649.61 1504.41 1651.03 1498.91 L 1616.87 1480.37 L 1418.85 1369.51 C 1382.16 1349.04 1343.93 1329.02 1308.02 1307.2 L 1308.26 1304.48 z" fill="rgb(43,16,22)" transform="translate(0,0)"></path>
<path d="M 1298.56 1295.09 L 1301.65 1295.7 C 1300.62 1303.79 1304.39 1299.94 1308.26 1304.48 L 1308.02 1307.2 C 1291.24 1327.19 1269.49 1349.05 1251.12 1368.2 L 1137.76 1484.69 C 1137.7 1494.96 1137.99 1510.14 1137.24 1520.01 C 1136.39 1511.06 1137.61 1494.03 1136.26 1486.58 L 1134.96 1490.1 C 1134.46 1479.01 1134.36 1464.17 1134.92 1453.18 L 1135.89 1453.39 C 1136.98 1451.34 1136.92 1434.34 1137.21 1429.72 C 1137.86 1437.06 1137.74 1448.52 1137.99 1456.3 C 1165.93 1431.95 1193.52 1402.5 1220.19 1376.57 L 1265.72 1332.27 C 1275.39 1322.81 1293.48 1306.87 1298.56 1295.09 z" fill="rgb(58,36,32)" transform="translate(0,0)"></path>
<path d="M 1186.38 1643.51 C 1202.93 1640.02 1219.21 1650.53 1222.83 1667.06 C 1226.46 1683.59 1216.09 1699.95 1199.59 1703.71 C 1182.9 1707.53 1166.3 1697 1162.63 1680.28 C 1158.96 1663.55 1169.62 1647.04 1186.38 1643.51 z" fill="rgb(43,16,22)" transform="translate(0,0)"></path>
<path d="M 1187.4 1646.45 C 1202.31 1643.63 1216.71 1653.3 1219.75 1668.17 C 1222.79 1683.03 1213.34 1697.58 1198.53 1700.85 C 1188.74 1703 1178.55 1699.72 1171.86 1692.26 C 1165.18 1684.79 1163.03 1674.3 1166.25 1664.81 C 1169.47 1655.32 1177.55 1648.3 1187.4 1646.45 z" fill="rgb(245,237,230)" transform="translate(0,0)"></path>
<path d="M 719.409 1089.82 C 732.534 1095.27 749.919 1104.97 762.858 1111.77 C 799.171 1131.26 851.571 1159.69 889.052 1176.83 L 891.737 1174.93 C 899.666 1178.82 907.493 1182.92 915.209 1187.22 C 915.793 1212.58 916.221 1237.94 916.493 1263.3 C 997.136 1295.61 1053.9 1296.67 1134.66 1262.8 C 1134.78 1252.86 1134.69 1241.51 1135.1 1231.67 L 1136.68 1231.24 C 1137.95 1222.26 1135.51 1194.03 1137.6 1189.47 L 1137.7 1190.51 C 1138.81 1203.27 1137.03 1222.44 1138.55 1233.9 C 1141.86 1233.65 1143.07 1232.83 1146.04 1231.44 L 1146.17 1234.09 C 1143.73 1235.22 1140.27 1236.7 1137.98 1237.91 C 1137.25 1280.94 1136.97 1323.97 1137.16 1366.99 C 1137.17 1383.61 1138.23 1414 1137.21 1429.72 C 1136.92 1434.34 1136.98 1451.34 1135.89 1453.39 L 1134.92 1453.18 C 1134.34 1431.8 1134.76 1409.29 1134.85 1387.82 C 1127.92 1395.08 1124.12 1397.05 1115.55 1401.81 C 1112.74 1408.57 1102.85 1414.81 1096.36 1418.2 C 1093.26 1419.83 1091.06 1418.32 1087.73 1416.88 L 1086.52 1416.35 C 1085.29 1418.02 1085.87 1419.19 1085.99 1421.87 C 1080.29 1427.05 1070.37 1432.22 1062.43 1429.71 C 1054.05 1427.05 1053.03 1433.55 1046.25 1436.26 C 1038.51 1439.34 1030.39 1437.24 1023.01 1434.31 C 1018.97 1432.7 1015.55 1435.51 1011.49 1437.6 C 1006.82 1436.85 994.411 1435.35 990.518 1433.13 C 989.893 1432.77 984.907 1427.7 983.005 1426.28 C 980.461 1427.76 980.448 1427.8 977.627 1428.59 C 971.855 1427.65 955.249 1420.89 954.312 1416.7 C 951.132 1402.49 942.755 1412.44 934.252 1400.58 C 930.612 1395.49 927.513 1386.55 923.068 1382.8 C 920.314 1380.47 919.543 1379.9 916.994 1376.8 L 916.68 1402.23 C 913.788 1409.48 918.19 1456.79 914.414 1460.77 L 913.975 1460.88 C 909.154 1458.89 874.6 1424.47 868.149 1417.53 C 851.82 1399.95 829.78 1381.78 813.956 1364.44 C 799.828 1348.96 759.036 1312.9 749.956 1296.19 C 739.58 1261.55 731.264 1225.65 720.572 1191.06 C 716.658 1182.27 717.997 1159.46 718.095 1148.57 C 720.702 1149.86 723.359 1150.72 726.095 1151.7 C 729.567 1151.75 730.845 1151.97 734.163 1152.54 C 730.148 1150.09 722.729 1146.77 718.217 1144.61 C 718.343 1132.13 717.876 1100.82 719.409 1089.82 z" fill="rgb(43,16,22)" transform="translate(0,0)"></path>
<path d="M 718.095 1148.57 C 720.702 1149.86 723.359 1150.72 726.095 1151.7 C 770.081 1173.08 814.363 1193.85 858.928 1214 C 876.369 1221.95 895.838 1231.78 913.081 1238.98 C 913.889 1292.96 912.683 1346.45 913.586 1400.36 C 913.907 1419.47 913.056 1442.26 913.975 1460.88 C 909.154 1458.89 874.6 1424.47 868.149 1417.53 C 851.82 1399.95 829.78 1381.78 813.956 1364.44 C 799.828 1348.96 759.036 1312.9 749.956 1296.19 C 739.58 1261.55 731.264 1225.65 720.572 1191.06 C 716.658 1182.27 717.997 1159.46 718.095 1148.57 z" fill="rgb(255,90,31)" transform="translate(0,0)"></path>
<path d="M 719.409 1089.82 C 732.534 1095.27 749.919 1104.97 762.858 1111.77 C 799.171 1131.26 851.571 1159.69 889.052 1176.83 C 892.209 1178.96 908.551 1187.04 912.866 1189.32 C 913.062 1204.36 912.856 1219.84 912.843 1234.92 C 893.649 1227.1 874.65 1217.45 855.729 1208.68 L 777.601 1173.15 C 765.525 1167.6 745.707 1156.53 734.163 1152.54 C 730.148 1150.09 722.729 1146.77 718.217 1144.61 C 718.343 1132.13 717.876 1100.82 719.409 1089.82 z" fill="rgb(245,237,230)" transform="translate(0,0)"></path>
<path d="M 916.866 1315.76 C 965.777 1339.72 1033.21 1343.74 1085.83 1331.68 C 1102.47 1327.87 1118.39 1321.89 1134.37 1315.99 C 1134.62 1323.26 1134.36 1331.72 1134.32 1339.09 C 1131.71 1342.76 1126.92 1349.31 1125.23 1353.05 C 1120.8 1362.81 1119.43 1361.11 1110.89 1366.69 C 1104.66 1371.96 1102.79 1373.63 1100.55 1381.42 C 1091.21 1384.55 1084.38 1386.33 1078.83 1394.56 C 1072.74 1395.86 1067.2 1396.91 1061.73 1400.19 C 1059.64 1401.28 1050.28 1406.89 1050.27 1406.89 C 1041.67 1403.97 1034.5 1406.32 1026.19 1408.88 C 1020.68 1411.25 1015.95 1407.88 1010.36 1406.31 C 1004.28 1404.6 998.733 1404.31 992.277 1404.77 C 981.629 1396.86 977.249 1394.64 964.883 1389.6 C 962.788 1386.42 957.901 1379.7 955.016 1377.11 C 951.783 1374.21 944.222 1371.65 941.347 1367.79 C 941.471 1367.96 939.458 1362.22 939.458 1362.22 C 937 1354.27 933.516 1352.54 926.944 1348.18 C 924.029 1338.48 922.848 1335.32 916.961 1327.26 L 916.866 1315.76 z" fill="rgb(245,237,230)" transform="translate(0,0)"></path>
<path d="M 1133.88 1265.99 C 1135.04 1270.68 1134.33 1306.67 1134.26 1312.98 C 1114.27 1319.92 1095.28 1326.48 1074.41 1330.65 C 1021.11 1340.76 966 1334.39 916.412 1312.4 C 916.76 1297.29 916.653 1281.66 916.747 1266.51 C 924.332 1270.13 932.112 1273.33 940.051 1276.08 C 1003.44 1298.57 1073.17 1294.94 1133.88 1265.99 z" fill="rgb(245,237,230)" transform="translate(0,0)"></path>
<path d="M 972.987 1402.26 C 971.022 1402.44 959.429 1403.67 959.141 1403.67 C 959.524 1404.57 959.443 1396.53 960.387 1397.06 C 960.744 1397.26 963.388 1395.27 962.94 1394.5 C 963.014 1393.99 963.089 1393.49 963.163 1392.98 C 964.733 1389.93 980.89 1400.26 982.474 1401.65 L 983.767 1402.44 C 995.068 1409.12 984.386 1409.67 979.878 1412.4 C 985.528 1416.05 987.859 1417.03 981.453 1424 C 976.099 1429.14 957.962 1417.62 956.378 1413.64 C 951.151 1400.36 966.003 1414.6 969.497 1414.83 C 975.634 1415.24 981.001 1422.25 979.281 1412.18 C 978.221 1409.4 977.832 1408.75 976.305 1406.18 C 974.989 1405.02 974.073 1403.65 972.987 1402.26 z" fill="rgb(255,209,102)" transform="translate(0,0)"></path>
<path d="M 992.813 1414.34 C 991.631 1413.72 989.034 1412.73 990.118 1410.53 C 993.313 1404.07 1012.58 1408.27 1016.13 1411.47 C 1017.84 1413.01 1018 1422.75 1018.79 1426.66 C 1021.98 1435.98 1002.63 1434.07 998.013 1431.87 C 993.251 1429.61 987.498 1430.95 987.303 1422.98 C 987.239 1420.36 993.833 1422.96 994.76 1423.39 C 1000.68 1426.13 1005.2 1427.12 1011.58 1426.21 C 1019.43 1415.36 1008.21 1414.78 999.305 1413.79 C 996.928 1416.4 995.532 1421.97 994.378 1421.44 C 983.883 1416.57 991.546 1416.88 992.813 1414.34 z" fill="rgb(255,209,102)" transform="translate(0,0)"></path>
<path d="M 953.77 1404.44 C 945.833 1412.39 928.724 1392.87 929.149 1385.04 C 929.37 1380.98 941.632 1387.7 936.815 1381.27 C 935.209 1379.13 932.874 1378.93 936.589 1376.11 C 944.415 1369.42 950.704 1377.54 956.134 1382.92 C 956.533 1383.31 961.195 1388.85 960.108 1389.95 C 955.091 1395 958.448 1393.01 957.876 1395.52 C 956.465 1395.87 950.167 1395.56 948.451 1395.48 C 959.548 1395.33 949.456 1380.2 941.801 1383.52 C 932.605 1387.51 941.996 1395.29 947.732 1397.67 C 952.908 1398.14 960.692 1398.26 953.77 1404.44 z" fill="rgb(255,209,102)" transform="translate(0,0)"></path>
<path d="M 921.753 1353.45 C 916.587 1352.41 916.7 1352.54 916.496 1346.52 L 916.443 1344.49 C 916.272 1338.99 916.2 1333.48 916.229 1327.97 C 917.885 1331.72 922.957 1341.41 921.761 1344.96 C 921.519 1345.67 921.067 1346.63 921.134 1347.43 C 924.024 1349.34 924.55 1348.82 927.881 1351.52 L 928.9 1352.54 C 932.46 1356.04 946.075 1368.81 932.422 1368.99 C 930.172 1369.02 929.23 1358.57 921.753 1353.45 z" fill="rgb(255,209,102)" transform="translate(0,0)"></path>
<path d="M 1107.39 1388.67 C 1110 1390.96 1113.28 1396.54 1112.66 1400 C 1111.74 1405.14 1098.71 1414.03 1094.24 1415.41 L 1092.31 1416.05 C 1078.4 1407.63 1094.68 1409.43 1102.19 1402.54 C 1107.53 1397.65 1105.41 1395.1 1107.39 1388.67 z" fill="rgb(255,209,102)" transform="translate(0,0)"></path>
<path d="M 1071.94 1398.95 C 1080.22 1399.32 1080.18 1406.77 1078.74 1407.28 C 1075.52 1408.42 1072 1403.58 1065.52 1407.98 C 1063.02 1409.65 1061.3 1412.27 1060.77 1415.24 C 1060.7 1415.66 1060.62 1416.08 1060.55 1416.5 L 1060.18 1418.38 C 1059.49 1418.93 1058.01 1420.53 1057.12 1420.61 C 1056.15 1420.17 1052.24 1411.09 1053.38 1409.2 C 1056.66 1403.82 1066.36 1400.9 1071.94 1398.95 z" fill="rgb(255,209,102)" transform="translate(0,0)"></path>
<path d="M 1028.14 1424.4 C 1034.72 1430.77 1045.08 1427.73 1050.05 1420.49 C 1054.49 1414.04 1053.07 1426.55 1052.69 1428.15 L 1051.41 1429.32 C 1047.23 1433.27 1034.7 1435.86 1029.99 1434.07 C 1019.74 1430.17 1024.58 1427.39 1028.14 1424.4 z" fill="rgb(255,209,102)" transform="translate(0,0)"></path>
<path d="M 1028.14 1424.4 C 1026.66 1423.72 1022.6 1422.77 1022.16 1421.46 C 1017.9 1408.77 1040.12 1408.74 1046.81 1409.13 C 1061.26 1420.73 1035.77 1413.6 1032.77 1416.41 C 1028.99 1419.96 1029.46 1419.04 1028.14 1424.4 z" fill="rgb(255,209,102)" transform="translate(0,0)"></path>
<path d="M 1096.82 1385.07 C 1102.99 1384.78 1104.71 1384.27 1103.48 1390.61 C 1103.3 1391.54 1104.61 1393.64 1102.92 1393.61 C 1101.95 1392.93 1100.84 1390.36 1099.61 1390.81 C 1094.12 1392.78 1088.71 1395.78 1089.64 1402.05 L 1089.84 1403.59 C 1092.39 1406.96 1084.2 1406.87 1082.92 1404.58 C 1077.12 1394.17 1088.76 1389.46 1095.93 1385.56 L 1096.82 1385.07 z" fill="rgb(255,209,102)" transform="translate(0,0)"></path>
<path d="M 1131.11 1372.3 C 1131.23 1372.35 1131.34 1372.41 1131.46 1372.46 C 1132.12 1372.74 1132.94 1372.98 1133.46 1373.52 C 1134.43 1374.53 1134.07 1376.25 1134.07 1377.49 C 1134.06 1379.57 1134.47 1382.39 1133.42 1384.32 C 1130.64 1389.46 1124.72 1394.94 1118.9 1396.33 C 1118.55 1396.42 1117.62 1396.58 1117.32 1396.27 C 1117.04 1395.97 1117.19 1394.87 1117.19 1394.79 C 1116.36 1393.7 1111.27 1388.89 1112.58 1388.18 C 1113.87 1388.29 1114.56 1389.14 1116.5 1389.19 C 1120.42 1389.29 1126.47 1381.1 1128.59 1379.35 C 1130.39 1377.86 1125.21 1376.13 1129.86 1373.14 L 1131.11 1372.3 z" fill="rgb(255,209,102)" transform="translate(0,0)"></path>
<path d="M 1079.67 1408.54 C 1083.62 1410.99 1084.97 1416.2 1082.45 1420.1 C 1079.22 1425.09 1068.29 1427.5 1062.64 1428.56 C 1062.06 1428.12 1061.47 1427.69 1060.89 1427.26 C 1059.08 1426.07 1056.63 1423.36 1059.11 1422.5 C 1071.05 1418.36 1073.31 1423.33 1079.67 1408.54 z" fill="rgb(255,209,102)" transform="translate(0,0)"></path>
<path d="M 1121.38 1363.87 C 1130.38 1379.47 1116.85 1367.63 1113.69 1378.52 C 1112.78 1381.67 1116.59 1384.48 1111.35 1385.21 C 1109.73 1384.17 1103.85 1381.45 1104.83 1379.09 C 1107.81 1371.91 1114.95 1367.43 1121.38 1363.87 z" fill="rgb(255,209,102)" transform="translate(0,0)"></path>
<path d="M 1133.77 1344.98 C 1136.92 1349.15 1132.29 1365.76 1127.59 1370.66 C 1126.07 1366.75 1125.38 1363.08 1124.34 1359.02 L 1125.17 1357.65 C 1127.78 1353.23 1130.72 1349.11 1133.77 1344.98 z" fill="rgb(255,209,102)" transform="translate(0,0)"></path>
<path d="M 916.859 1365.78 L 918.103 1365.26 C 919.041 1366.43 927.105 1375.35 927.117 1375.98 C 927.35 1388.15 917.805 1377.05 917.234 1371.51 C 917.087 1370.08 917.16 1367.93 916.859 1365.78 z" fill="rgb(255,209,102)" transform="translate(0,0)"></path>
<path d="M 1069.24 1407.43 C 1078.07 1410.65 1074.74 1412.73 1069.03 1419.2 C 1068.06 1418.93 1066.44 1418.7 1065.52 1418.09 C 1065.34 1418.07 1065.15 1417.15 1065.25 1417.1 C 1066.44 1416.47 1064.32 1412.75 1064.34 1412.65 C 1064.56 1411.27 1068.13 1408.45 1069.24 1407.43 z" fill="rgb(255,209,102)" transform="translate(0,0)"></path>
<path d="M 963.499 1405.47 C 968.385 1405.06 980.505 1404.59 973.538 1413.59 L 972.021 1413.03 C 969.777 1412.21 959.304 1408.22 963.499 1405.47 z" fill="rgb(255,209,102)" transform="translate(0,0)"></path>
<path d="M 1000.06 1417 C 1006.41 1417.19 1011.82 1416.62 1009.38 1424.35 C 1002.75 1423.55 996.939 1424.28 1000.06 1417 z" fill="rgb(255,209,102)" transform="translate(0,0)"></path>
<path d="M 1032.88 1418.94 C 1035.63 1418.81 1048.08 1417.47 1043.38 1423.43 C 1036.91 1424.97 1030.32 1428.01 1032.88 1418.94 z" fill="rgb(255,209,102)" transform="translate(0,0)"></path>
<path d="M 1096.82 1393.88 C 1101.12 1395.73 1104.53 1397.85 1099.35 1401.47 L 1096.35 1403.54 C 1089.57 1400.68 1092.33 1397.11 1096.82 1393.88 z" fill="rgb(255,209,102)" transform="translate(0,0)"></path>
<path d="M 1121.02 1374.61 C 1129.41 1377.5 1124.42 1379.94 1119.67 1384.75 C 1115.93 1387.24 1114.81 1378.32 1119.83 1375.34 L 1121.02 1374.61 z" fill="rgb(255,209,102)" transform="translate(0,0)"></path>
<path d="M 928.079 1369.91 C 937.702 1370.93 937.718 1371 931.653 1377.48 C 926.425 1384.74 928.696 1373.56 928.079 1369.91 z" fill="rgb(255,209,102)" transform="translate(0,0)"></path>
<path d="M 950.534 1389.67 C 946.72 1397.4 931.66 1385.05 948.247 1386.03 C 949.165 1387.11 949.827 1388.44 950.534 1389.67 z" fill="rgb(255,209,102)" transform="translate(0,0)"></path>
<path d="M 921.62 1359.89 C 924.595 1358.74 926.806 1360.68 926.956 1363.04 C 927.624 1373.56 922.009 1367.5 919.343 1361.21 L 921.62 1359.89 z" fill="rgb(255,140,66)" transform="translate(0,0)"></path>
<path d="M 916.859 1365.78 C 914.046 1352.77 924.444 1352.46 921.62 1359.89 L 919.343 1361.21 C 919.168 1360.54 919.221 1360.14 918.764 1359.8 C 918.694 1359.83 918.624 1359.86 918.553 1359.89 C 917.851 1361.17 918.077 1363.91 918.103 1365.26 L 916.859 1365.78 z" fill="rgb(133,74,45)" transform="translate(0,0)"></path>
<path d="M 889.836 1006.51 C 899.228 1016.98 908.675 1028.37 919.284 1037.6 C 988.021 1097.4 1095.93 1099.7 1164.58 1037.59 C 1168.65 1033.89 1172.57 1030.03 1176.33 1026.02 C 1176.01 1030.92 1176 1032.47 1176.52 1037.4 C 1175.52 1052.53 1175.96 1070.95 1175.98 1086.36 L 1176.09 1164.8 C 1165.1 1172.16 1146.96 1180.69 1134.82 1186.68 C 1134.89 1197.89 1134.17 1221.87 1135.1 1231.67 C 1134.69 1241.51 1134.78 1252.86 1134.66 1262.8 C 1053.9 1296.67 997.136 1295.61 916.493 1263.3 C 916.221 1237.94 915.793 1212.58 915.209 1187.22 C 907.493 1182.92 899.666 1178.82 891.737 1174.93 L 889.082 1172.54 C 890.541 1167.24 889.904 1131.29 889.928 1123.27 C 890.046 1084.4 889.369 1045.38 889.836 1006.51 z" fill="rgb(171,70,60)" transform="translate(0,0)"></path>
<path d="M 1649.46 1735.24 C 1665.03 1743.74 1680.02 1753.58 1695.37 1762.39 C 1731.69 1783.23 1767.75 1805.45 1804.17 1826.04 C 1805.16 1826.64 1806.38 1827.36 1807.81 1828.21 C 1810.1 1833.05 1812.51 1843.75 1813.76 1848.7 L 1846.74 1976.02 C 1852.97 1999.57 1860.41 2024.5 1865.8 2048 L 1710.59 2048 C 1705.54 2010.75 1645.99 1742.73 1649.46 1735.24 z" fill="rgb(245,237,230)" transform="translate(0,0)"></path>
<path d="M 1650.86 1732.07 C 1648.87 1731.07 1649.07 1731.09 1647.29 1729.68 C 1643.3 1698.34 1643.07 1662.35 1640.21 1630.48 C 1638.48 1611.28 1636.95 1586.33 1636.54 1566.99 C 1636.47 1563.74 1643.41 1538.25 1644.73 1533.31 L 1660.02 1476.25 L 1677.67 1410.04 C 1680.47 1399.56 1684.36 1382.47 1688.19 1372.98 C 1694.58 1388.41 1705.53 1435.53 1710.33 1454.2 L 1748.05 1599.23 L 1785.65 1742.3 C 1791.7 1764.87 1802.47 1800.53 1806.81 1823 C 1792.66 1815.76 1776.9 1806.01 1763.15 1797.91 L 1693.03 1756.92 C 1679.36 1748.87 1664.68 1739.55 1650.86 1732.07 z" fill="rgb(245,237,230)" transform="translate(0,0)"></path>
<path d="M 1137.6 1189.47 C 1200.9 1155.41 1266.87 1122.66 1330.72 1089.13 L 1330.89 1144.38 C 1322.88 1148.97 1313.66 1153.13 1305.23 1157.01 C 1257.33 1179.05 1209.83 1201.91 1161.71 1223.47 C 1157.2 1225.49 1150.03 1228.84 1146.04 1231.44 C 1143.07 1232.83 1141.86 1233.65 1138.55 1233.9 C 1137.03 1222.44 1138.81 1203.27 1137.7 1190.51 L 1137.6 1189.47 z" fill="rgb(245,237,230)" transform="translate(0,0)"></path>
<path d="M 1179.74 1004.15 C 1221.72 1020.74 1296.37 1054.2 1329.37 1086.54 C 1317.07 1092.74 1295.94 1104.16 1283.52 1109.16 C 1258.94 1090.91 1236.06 1073.7 1207.62 1061.55 C 1203.65 1059.85 1180.93 1050.86 1179.3 1049.44 C 1178.34 1050.24 1178.33 1050.65 1177.38 1051.18 L 1177.14 1050.96 C 1176.4 1047.18 1177.65 1042 1176.52 1037.4 C 1176 1032.47 1176.01 1030.92 1176.33 1026.02 C 1178.51 1023.16 1178.4 1022.46 1179.19 1018.96 L 1179.74 1004.15 z" fill="rgb(245,237,230)" transform="translate(0,0)"></path>
<path d="M 1179.19 1018.96 C 1179.32 1029.12 1179.35 1039.28 1179.3 1049.44 C 1178.34 1050.24 1178.33 1050.65 1177.38 1051.18 L 1177.14 1050.96 C 1176.4 1047.18 1177.65 1042 1176.52 1037.4 C 1176 1032.47 1176.01 1030.92 1176.33 1026.02 C 1178.51 1023.16 1178.4 1022.46 1179.19 1018.96 z" fill="rgb(43,16,22)" transform="translate(0,0)"></path>
<path d="M 863.964 1007.18 C 864.038 1015.13 863.206 1046.01 864.633 1051.4 C 860.795 1054.67 840.279 1063.28 834.422 1065.82 C 825.206 1069.83 814.422 1076.23 806.517 1080.16 C 798.351 1084.21 770.169 1107.7 765.159 1109.15 C 750.908 1102.17 734.673 1093.45 720.874 1085.61 C 725.881 1081.25 736.075 1074.62 741.685 1070.5 C 779.246 1042.97 820.322 1023.33 863.964 1007.18 z" fill="rgb(245,237,230)" transform="translate(0,0)"></path>
<path d="M 867.12 945.998 L 868.579 945.754 C 875.667 952.5 882.692 959.284 890.04 965.749 C 889.945 977.519 889.227 995.228 889.836 1006.51 C 889.369 1045.38 890.046 1084.4 889.928 1123.27 C 889.904 1131.29 890.541 1167.24 889.082 1172.54 C 881.831 1169.14 874.633 1165.62 867.492 1162 C 866.042 1132.9 867.798 1100.92 867.168 1071.44 C 866.355 1065.59 867.176 1059.21 866.313 1052.37 L 864.633 1051.4 C 863.206 1046.01 864.038 1015.13 863.964 1007.18 L 865.544 1006.35 C 867.918 1002.27 866.35 955.473 867.12 945.998 z" fill="rgb(245,237,230)" transform="translate(0,0)"></path>
<path d="M 867.12 945.998 C 868.869 966.413 867.623 995.841 867.895 1017.19 C 868.06 1030.17 868.501 1059.93 867.168 1071.44 C 866.355 1065.59 867.176 1059.21 866.313 1052.37 L 864.633 1051.4 C 863.206 1046.01 864.038 1015.13 863.964 1007.18 L 865.544 1006.35 C 867.918 1002.27 866.35 955.473 867.12 945.998 z" fill="rgb(151,51,47)" transform="translate(0,0)"></path>
<path d="M 955.589 494.348 L 955.081 495.722 C 957.627 497.163 967.135 498.203 970.88 498.853 C 1008.02 505.301 1041.58 503.425 1078.08 493.21 C 1107.89 484.866 1135.23 474.168 1158.92 453.399 C 1171.19 442.646 1173.97 436.727 1182.87 422.982 C 1183.69 421.714 1183.14 421.997 1184.79 422.439 C 1184.45 428.62 1175.45 441.359 1171.31 446.145 C 1149.35 471.576 1118.2 484.375 1087.31 495.278 C 1144.2 506.071 1195.13 494.622 1248.11 474.961 C 1248.31 494.665 1248.32 514.37 1248.14 534.075 C 1248.09 546.838 1246.96 560.628 1249.42 573.205 C 1254.3 598.048 1274.11 631.304 1283.28 656.321 C 1286.85 666.071 1285.42 765.361 1284.55 781.064 C 1284.03 790.317 1282.87 799.522 1281.05 808.61 C 1283.04 810.441 1283.3 810.007 1283.86 811.967 C 1293.77 812.29 1300.24 812.048 1309.97 810.677 L 1309.31 813.912 C 1327.66 808.626 1335.48 801.892 1349.35 788.854 C 1349.36 836.017 1353.69 868.83 1317.06 905.645 C 1284.36 938.516 1248.51 937.112 1205.43 936.596 C 1201.91 936.554 1193.45 936.937 1191.07 934.737 L 1188.34 932.597 L 1187.44 933.282 C 1163.22 952.043 1142.25 977.622 1116.35 995.185 C 1080.34 1019.61 1039.16 1024.78 996.851 1019.25 C 992.239 1018.68 985.453 1018.17 981.46 1016.21 C 975.884 1015.18 970.384 1013.77 964.999 1011.99 C 922.339 997.858 886.515 957.928 854.49 927.454 C 825.433 899.804 794.812 875.005 776.296 838.872 C 771.337 827.573 768.216 817.16 765.763 805.094 C 763.964 794.324 763.021 785.201 762.902 774.309 C 761.534 767.602 761.944 751.391 761.974 743.921 C 761.963 741.781 761.979 739.641 762.023 737.502 C 762.329 714.074 760.363 688.146 762.283 664.909 C 762.897 657.476 769.937 644.658 772.337 638.236 C 776.842 626.179 797.216 583.496 798.626 573.3 C 801.39 553.306 799.571 510.499 799.131 489.245 C 805.145 488.816 811.166 488.477 817.191 488.231 L 817.985 489.467 L 824.609 490.017 L 820.798 491.615 C 824.938 493.935 837.223 495.725 842.18 496.516 C 882.424 502.936 915.74 498.68 955.011 490.82 L 951.031 493.805 C 953.243 493.8 953.568 493.518 955.589 494.348 z" fill="rgb(171,70,60)" transform="translate(0,0)"></path>
<path d="M 1309.31 813.912 C 1327.66 808.626 1335.48 801.892 1349.35 788.854 C 1349.36 836.017 1353.69 868.83 1317.06 905.645 C 1284.36 938.516 1248.51 937.112 1205.43 936.596 C 1201.91 936.554 1193.45 936.937 1191.07 934.737 L 1188.34 932.597 C 1232.27 893.048 1268.18 870.808 1281.05 808.61 C 1283.04 810.441 1283.3 810.007 1283.86 811.967 C 1293.77 812.29 1300.24 812.048 1309.97 810.677 L 1309.31 813.912 z" fill="rgb(255,90,31)" transform="translate(0,0)"></path>
<path d="M 1281.05 808.61 C 1283.04 810.441 1283.3 810.007 1283.86 811.967 C 1293.77 812.29 1300.24 812.048 1309.97 810.677 L 1309.31 813.912 C 1300.09 815.342 1291.99 815.238 1282.69 814.841 C 1269.6 861.973 1252.62 880.063 1216 912.233 C 1211.78 915.942 1193.91 931.428 1191.07 934.737 L 1188.34 932.597 C 1232.27 893.048 1268.18 870.808 1281.05 808.61 z" fill="rgb(43,16,22)" transform="translate(0,0)"></path>
<path d="M 761.974 743.921 L 764.112 745.935 L 764.552 753.085 C 782.094 847.728 807.142 867.814 874.079 931.472 C 895.825 952.152 914.07 974.527 940.362 992.533 C 946.935 997.087 953.735 1001.3 960.735 1005.17 C 964.061 1007 980.358 1015.21 981.46 1016.21 C 975.884 1015.18 970.384 1013.77 964.999 1011.99 C 922.339 997.858 886.515 957.928 854.49 927.454 C 825.433 899.804 794.812 875.005 776.296 838.872 C 771.337 827.573 768.216 817.16 765.763 805.094 C 763.964 794.324 763.021 785.201 762.902 774.309 C 761.534 767.602 761.944 751.391 761.974 743.921 z" fill="rgb(245,237,230)" transform="translate(0,0)"></path>
<path d="M 762.023 737.502 L 762.662 739.215 C 763.657 741.733 763.915 743.263 764.112 745.935 L 761.974 743.921 C 761.963 741.781 761.979 739.641 762.023 737.502 z" fill="rgb(214,140,138)" transform="translate(0,0)"></path>
<path d="M 1006.92 949.842 C 943.632 941.548 881.08 882.322 875.402 818.093 C 874.719 810.365 873.48 799.862 878.625 793.599 C 879.476 793.239 880.327 792.878 881.178 792.518 C 887.951 794.513 899.085 801.395 905.144 804.356 C 939.411 821.103 979.299 828.613 1016.82 831.528 C 1039.06 832.83 1067.32 828.729 1089.02 824.113 L 1093.51 823.13 C 1096.71 822.453 1099.9 821.711 1103 820.69 C 1117.11 816.279 1130.93 810.981 1144.37 804.828 C 1152.27 801.191 1163.48 794.914 1171.16 792.285 C 1174.46 794.936 1175.15 800.071 1175.39 804.115 C 1178.44 856.14 1137.04 909.696 1093.47 932.343 C 1064.97 948.029 1039.16 953.345 1006.92 949.842 z" fill="rgb(58,36,32)" transform="translate(0,0)"></path>
<path d="M 1016.82 831.528 C 1039.06 832.83 1067.32 828.729 1089.02 824.113 L 1093.51 823.13 C 1096.71 822.453 1099.9 821.711 1103 820.69 C 1103.87 821.729 1104.4 822.169 1105.43 823.138 C 1105.95 834.082 1104.81 847.956 1105.83 858.821 C 1104.04 859.048 1103.49 859.911 1102.12 861.032 C 1091.97 867.249 1076.87 873.147 1065.4 876.099 C 1033.42 884.193 999.751 882.485 968.758 871.196 C 960.236 868.165 950.097 866.737 948.39 857.31 C 948.475 849.565 948.75 836.344 948.158 828.911 L 948.869 825.017 C 950.978 823.809 965.162 827.472 968.734 828.21 C 981.551 830.922 994.526 832.823 1007.58 833.902 C 1011.32 833.079 1012.81 832.076 1016.82 831.528 z" fill="rgb(245,237,230)" transform="translate(0,0)"></path>
<path d="M 1016.82 831.528 C 1039.06 832.83 1067.32 828.729 1089.02 824.113 L 1093.51 823.13 C 1096.71 822.453 1099.9 821.711 1103 820.69 C 1103.87 821.729 1104.4 822.169 1105.43 823.138 C 1105.95 834.082 1104.81 847.956 1105.83 858.821 C 1104.04 859.048 1103.49 859.911 1102.12 861.032 L 1101.99 824.043 C 1095.89 825.668 1089.74 827.11 1083.56 828.366 C 1057.31 833.686 1034.17 835.429 1007.58 833.902 C 1011.32 833.079 1012.81 832.076 1016.82 831.528 z" fill="rgb(43,16,22)" transform="translate(0,0)"></path>
<path d="M 959.921 930.52 C 987.329 903.514 1037.23 899.427 1070.62 916.352 C 1076.86 919.514 1086.44 924.358 1091.08 929.392 C 1091.8 930.309 1092.67 931.527 1093.47 932.343 C 1064.97 948.029 1039.16 953.345 1006.92 949.842 L 1007.78 946.49 C 987.256 942.655 978.525 939.268 959.921 930.52 z" fill="rgb(255,140,66)" transform="translate(0,0)"></path>
<path d="M 1007.78 946.49 C 1037.36 950.465 1065.27 944.326 1091.08 929.392 C 1091.8 930.309 1092.67 931.527 1093.47 932.343 C 1064.97 948.029 1039.16 953.345 1006.92 949.842 L 1007.78 946.49 z" fill="rgb(43,16,22)" transform="translate(0,0)"></path>
<path d="M 922.051 815.885 C 926.292 817.2 944.365 820.774 945.216 824.947 C 945.098 824.37 945.753 828.649 945.626 827.774 C 945.905 826.88 946.455 823.977 946.854 823.426 C 947.8 823.019 947.99 827.975 948.158 828.911 C 948.75 836.344 948.475 849.565 948.39 857.31 C 947.416 859.229 947.372 858.998 945.236 858.961 C 940.332 857.975 926.806 848.383 922.151 845.057 C 922.032 835.333 921.998 825.609 922.051 815.885 z" fill="rgb(245,237,230)" transform="translate(0,0)"></path>
<path d="M 945.626 827.774 C 945.905 826.88 946.455 823.977 946.854 823.426 C 947.8 823.019 947.99 827.975 948.158 828.911 C 948.75 836.344 948.475 849.565 948.39 857.31 C 947.416 859.229 947.372 858.998 945.236 858.961 C 944.99 851.934 944.657 834.151 945.626 827.774 z" fill="rgb(43,16,22)" transform="translate(0,0)"></path>
<path d="M 1105.43 823.138 C 1112.65 820.597 1119.94 818.234 1127.28 816.052 C 1127.28 825.613 1127.24 835.173 1127.14 844.732 C 1120.49 849.946 1113.14 854.579 1105.83 858.821 C 1104.81 847.956 1105.95 834.082 1105.43 823.138 z" fill="rgb(245,237,230)" transform="translate(0,0)"></path>
<path d="M 1096.99 564.56 C 1136.56 558.745 1176.68 541.399 1209.75 565.925 C 1227.41 578.986 1239.07 598.615 1242.09 620.379 C 1242.7 624.645 1243.13 628.935 1243.38 633.238 C 1215.7 610.418 1190.65 604.373 1155.78 613.933 C 1133.84 619.949 1110.98 627.046 1088.96 632.566 C 1084.12 621.022 1066.86 585.87 1067.88 575.51 L 1069.19 573.497 C 1072.22 574.78 1079.69 597.09 1081.63 601.732 C 1082.67 599.515 1082.87 598.807 1083.53 596.45 C 1082.24 588.411 1080.94 578.666 1079.1 570.865 C 1080.73 568.383 1079.63 569.142 1082.5 568.494 C 1086.92 571.905 1088.11 591.442 1090.76 600.279 C 1093.07 588.415 1095.15 576.506 1096.99 564.56 z" fill="rgb(58,36,32)" transform="translate(0,0)"></path>
<path d="M 1083.53 596.45 C 1083.78 598.149 1084.57 603.796 1083.74 605.3 L 1083.56 605.414 C 1082.43 604.699 1081.98 602.992 1081.63 601.732 C 1082.67 599.515 1082.87 598.807 1083.53 596.45 z" fill="rgb(171,70,60)" transform="translate(0,0)"></path>
<path d="M 881.145 551.416 C 903.97 552.872 930.927 561.374 954.666 564.568 C 955.892 578.98 957.468 589.551 960.534 603.523 C 962.076 593.488 963.159 583.543 964.471 573.493 C 964.893 570.258 965.592 569.973 967.617 568.568 L 969.551 569.224 C 971.542 573.191 965.31 602.266 964.384 609.369 C 968.58 601.684 977.305 577.353 980.963 574.1 C 983.548 574.62 982.334 574.064 984.288 576.595 C 983.984 578.804 979.99 589.275 978.774 591.548 C 975.322 597.995 965.142 630.052 960.266 631.799 C 897.358 619.411 866.086 585.869 807.599 634.293 C 810.169 589.216 834.739 556.617 881.145 551.416 z" fill="rgb(58,36,32)" transform="translate(0,0)"></path>
<path d="M 870.803 655.356 C 896.531 651.765 927.504 664.093 944.354 683.781 C 948.366 688.468 956.694 700.735 956.066 706.783 L 954.448 707.749 C 951.253 706.334 942.901 696.333 936.363 692.256 C 926.3 702.671 920.844 706.023 906.808 707.635 C 881.37 707.616 872.977 690.871 871.352 668.321 C 860.625 669.298 852.005 671.806 842.364 676.661 C 836.018 679.857 833.462 686.376 827.142 686.805 L 825.668 684.978 C 824.583 670.244 858.181 657.052 870.803 655.356 z" fill="rgb(58,36,32)" transform="translate(0,0)"></path>
<path d="M 1169.47 654.431 C 1190.82 655.358 1207.44 661.577 1220.81 679.166 C 1222.59 681.494 1222.69 682.324 1222.21 684.924 C 1217.32 688.212 1210.26 677.566 1204.32 674.843 C 1195.52 670.802 1188.73 670.148 1179.31 669.004 C 1178.78 690.65 1171.35 700.914 1150.75 707.219 C 1132.78 708.661 1126.2 702.87 1113.48 691.498 C 1108.24 695.341 1098.61 708.979 1093.67 706.307 C 1093.15 700.821 1101.45 690.021 1105.09 685.767 C 1122.31 665.668 1143.24 656.132 1169.47 654.431 z" fill="rgb(58,36,32)" transform="translate(0,0)"></path>
<path d="M 981.07 724.588 C 981.026 710.956 979.533 668.069 982.577 658.206 C 984.571 662.312 984.366 719.709 984.657 728.97 C 977.995 728.191 973.794 728.174 967.463 731.182 C 960.22 734.555 954.695 740.773 952.195 748.362 C 946.326 766.297 956.812 779.706 973.757 784.75 C 972.656 777.732 968.136 775.913 971.279 768.578 C 980.024 766.469 993.142 806.939 1040.52 795.083 C 1046.39 793.669 1051.88 791.021 1056.64 787.318 C 1062.29 782.934 1075.69 766.384 1083.01 769.213 C 1084.09 775.975 1077.53 781.809 1072.97 785.741 C 1083.07 783.331 1089.68 781.14 1095.66 771.354 C 1099.67 764.796 1100.86 756.897 1098.96 749.449 C 1096.88 741.554 1091.57 736.383 1084.97 731.963 C 1078.72 727.783 1071.05 730.477 1066.85 728.086 C 1065.32 721.025 1065.93 665.609 1068.8 658.422 C 1070.62 666.945 1069.91 713.673 1069.88 724.809 C 1088.35 725.366 1103.49 738.441 1103.11 757.529 C 1102.96 766.209 1099.34 774.465 1093.05 780.448 C 1084.04 788.862 1073.76 789.884 1062.15 787.873 C 1036.26 803.691 1013.68 804.995 987.85 787.837 C 983.766 787.944 977.764 788.369 973.946 787.559 C 960.129 785.477 949.433 776.318 947.666 762.091 C 946.576 753.373 949.007 744.579 954.422 737.66 C 961.675 728.433 970.052 725.696 981.07 724.588 z" fill="rgb(43,16,22)" transform="translate(0,0)"></path>
<path d="M 983.426 971.831 C 987.91 972.643 995.833 977.741 1002.69 979.928 C 1021.69 986.428 1043.03 983.684 1060.48 973.978 C 1063.26 972.435 1067.33 970.289 1065.64 975.768 C 1054.61 981.669 1047.48 985.574 1034 987.162 C 1016.9 989.474 999.186 984.735 984.555 975.926 C 983.701 975.412 983.332 974.015 983.387 973.055 L 983.426 971.831 z" fill="rgb(43,16,22)" transform="translate(0,0)"></path>
<path d="M 1225.65 732.627 C 1236.57 734.712 1230.91 740.032 1226.44 746.756 C 1223.13 751.726 1219.62 756.885 1215.2 760.882 C 1214.32 760.791 1207.91 760.397 1208.53 758.503 C 1210.92 751.075 1220.79 738.424 1225.65 732.627 z" fill="rgb(151,51,47)" transform="translate(0,0)"></path>
<path d="M 841.524 733.858 C 859.237 733.024 838.959 750.947 833.268 760.945 C 822.515 761.417 825.711 758.124 830.206 749.992 C 833.372 744.264 837.129 738.717 841.524 733.858 z" fill="rgb(151,51,47)" transform="translate(0,0)"></path>
<path d="M 1175.12 733.59 C 1175.64 733.617 1183.18 733.628 1182.56 735.375 C 1179.71 743.402 1171.49 754.514 1166.51 761.41 C 1154.47 763.687 1163.41 752.664 1166.23 748.081 C 1169.15 743.336 1171.98 738.167 1175.12 733.59 z" fill="rgb(151,51,47)" transform="translate(0,0)"></path>
<path d="M 892.043 733.469 C 894.357 734.361 897.742 734.956 898.423 737.57 C 896.708 741.096 885.084 759.209 882.693 762.272 C 872.473 759.993 876.191 758.017 881.004 749.789 C 884.242 744.253 887.992 738.402 892.043 733.469 z" fill="rgb(151,51,47)" transform="translate(0,0)"></path>
<path d="M 1199.96 732.954 C 1201.02 733.034 1207.7 733.024 1207.02 735 C 1204.72 741.76 1195.33 755.58 1190.9 760.948 C 1190.8 760.931 1183.66 759.757 1184.43 758.336 C 1188.71 750.512 1194.74 740.099 1199.96 732.954 z" fill="rgb(151,51,47)" transform="translate(0,0)"></path>
<path d="M 866.982 732.685 C 881.065 734.57 870.398 739.274 865.47 748.917 C 863.917 751.957 859.129 758.208 856.964 760.87 C 855.075 760.695 851.252 760.973 850.451 758.622 C 850.697 757.485 865.28 735.115 866.982 732.685 z" fill="rgb(151,51,47)" transform="translate(0,0)"></path>
<path d="M 990.134 161.331 C 987.602 157.266 995.628 152.195 998.612 150.248 C 1009.19 143.347 1023.79 141.238 1035.99 144.241 C 1041.47 145.674 1062.27 154.801 1060.2 161.687 C 1062.38 162.517 1063.47 162.435 1063.57 164.914 C 1143.73 174.826 1226.8 197.666 1279.19 264.317 C 1319.24 315.273 1317.92 361.862 1317.97 421.861 L 1318 505.574 C 1292.66 477.652 1267.64 459.161 1236.22 439.089 C 1243.24 441.666 1260.17 448.66 1266.84 448.099 C 1265.78 445.623 1265.77 445.346 1264.25 443.318 C 1263.62 444.499 1263.47 445.027 1261.96 444.503 C 1240.88 437.206 1219.66 430.147 1198.43 423.291 C 1195.69 422.407 1193.33 422.02 1190.68 420.794 C 1189.24 420.1 1189.29 420.21 1188.48 418.954 C 1186.49 419.861 1152.1 410.755 1146.22 409.508 C 1144.42 405.405 1144.11 364.473 1146.88 360.08 C 1148.11 339.529 1138.85 320.041 1125.34 305.088 C 1080.99 255.979 980.721 254.769 933.151 298.222 C 916.096 313.528 905.962 335.086 905.059 357.984 C 904.395 373.664 905.01 392.723 905.007 408.684 C 848.543 421.653 795.592 442.951 753.874 484.865 C 745.099 493.048 739.151 498.625 732.046 508.268 L 731.808 421.898 C 731.665 358.507 730.501 313.517 773.884 260.143 C 784.766 246.624 797.434 234.647 811.542 224.54 C 845.764 199.83 907.44 174.325 949.657 170.034 C 957.438 168.013 967.85 167.058 976.01 166.13 C 981.462 165.875 988.38 165.003 993.928 164.458 C 991.078 163.687 988.434 164.349 990.134 161.331 z" fill="rgb(255,90,31)" transform="translate(0,0)"></path>
<path d="M 976.01 166.13 C 972.195 168.217 965.356 169.887 961.018 170.56 C 885.35 193.135 818.939 222.549 777.949 295.809 C 746.818 351.449 754.279 421.567 753.874 484.865 C 745.099 493.048 739.151 498.625 732.046 508.268 L 731.808 421.898 C 731.665 358.507 730.501 313.517 773.884 260.143 C 784.766 246.624 797.434 234.647 811.542 224.54 C 845.764 199.83 907.44 174.325 949.657 170.034 C 957.438 168.013 967.85 167.058 976.01 166.13 z" fill="rgb(245,237,230)" transform="translate(0,0)"></path>
<path d="M 1202.81 387.634 C 1224.17 395.572 1252.23 404.114 1272.22 413.661 C 1269.74 423.274 1266.94 433.753 1264.25 443.318 C 1263.62 444.499 1263.47 445.027 1261.96 444.503 C 1240.88 437.206 1219.66 430.147 1198.43 423.291 C 1195.69 422.407 1193.33 422.02 1190.68 420.794 C 1195.25 409.853 1198.72 398.807 1202.81 387.634 z" fill="rgb(255,90,31)" transform="translate(0,0)"></path>
<path d="M 990.134 161.331 C 987.602 157.266 995.628 152.195 998.612 150.248 C 1009.19 143.347 1023.79 141.238 1035.99 144.241 C 1041.47 145.674 1062.27 154.801 1060.2 161.687 C 1062.38 162.517 1063.47 162.435 1063.57 164.914 C 1038.92 164.298 1019.45 162.258 993.928 164.458 C 991.078 163.687 988.434 164.349 990.134 161.331 z" fill="rgb(255,90,31)" transform="translate(0,0)"></path>
<path d="M 990.134 161.331 C 1010.87 160.094 1039.63 159.73 1060.2 161.687 C 1062.38 162.517 1063.47 162.435 1063.57 164.914 C 1038.92 164.298 1019.45 162.258 993.928 164.458 C 991.078 163.687 988.434 164.349 990.134 161.331 z" fill="rgb(43,16,22)" transform="translate(0,0)"></path>
<path d="M 1200.72 384.031 L 1202.68 384.604 C 1215.69 388.16 1229.77 394.084 1242.59 398.653 C 1254.3 402.825 1266.77 406.848 1278.31 411.285 C 1273.55 423.246 1269.71 435.554 1266.84 448.099 C 1265.78 445.623 1265.77 445.346 1264.25 443.318 C 1266.94 433.753 1269.74 423.274 1272.22 413.661 C 1252.23 404.114 1224.17 395.572 1202.81 387.634 C 1198.72 398.807 1195.25 409.853 1190.68 420.794 C 1189.24 420.1 1189.29 420.21 1188.48 418.954 C 1191.48 408.585 1197.08 395.042 1200.72 384.031 z" fill="rgb(43,16,22)" transform="translate(0,0)"></path>
<path d="M 1146.88 360.08 C 1147.11 368.828 1147.62 402.549 1146.22 409.508 C 1144.42 405.405 1144.11 364.473 1146.88 360.08 z" fill="rgb(43,16,22)" transform="translate(0,0)"></path>
<path d="M 1283.86 811.967 C 1292.01 775.819 1286.63 736.079 1288.11 698.877 C 1288.59 683.144 1286.28 664.098 1292.42 649.247 C 1299.42 631.208 1324.85 612.545 1344.64 615.485 C 1415.77 626.06 1393.53 700.532 1371.99 743.151 C 1355.56 775.668 1342.89 798.943 1309.97 810.677 C 1300.24 812.048 1293.77 812.29 1283.86 811.967 z" fill="rgb(171,70,60)" transform="translate(0,0)"></path>
<path d="M 1355.71 648.157 C 1359.38 647.833 1366.63 646.512 1368.84 649.481 C 1367.31 651.105 1363.12 651.113 1360.54 651.462 C 1341.62 654.021 1331.76 666.369 1321.23 682.084 C 1346.27 702.235 1345.81 730.131 1331.54 756.427 C 1325.45 748.734 1324.58 746.811 1315.07 745.069 C 1299.31 751.608 1302.02 762.331 1295.64 767.637 C 1288.81 752.338 1306.86 701.218 1314.96 686.446 C 1325.29 667.597 1334.8 654.813 1355.71 648.157 z" fill="rgb(58,36,32)" transform="translate(0,0)"></path>
<path d="M 688.95 765.974 C 675.728 744.303 668.16 724.168 660.528 700.166 C 650.505 668.645 657.319 626.21 695.536 617.418 C 709.233 614.25 723.627 616.686 735.518 624.184 C 745.114 630.302 754.178 641.376 756.58 652.753 C 759.285 661.876 757.999 678.941 758.358 688.898 C 759.557 722.16 755.216 780.213 763.847 811.072 C 759.408 811.124 752.342 811.811 748.543 811.533 C 730.43 810.207 714.062 798.612 702.475 785.409 L 699.218 780.698 C 695.917 776.7 691.958 770.444 688.95 765.974 z" fill="rgb(171,70,60)" transform="translate(0,0)"></path>
<path d="M 688.95 765.974 C 675.728 744.303 668.16 724.168 660.528 700.166 C 650.505 668.645 657.319 626.21 695.536 617.418 C 709.233 614.25 723.627 616.686 735.518 624.184 C 745.114 630.302 754.178 641.376 756.58 652.753 L 755.473 653.385 C 754.755 652.525 754.029 651.672 753.297 650.824 C 733.651 628.017 705.242 627.443 682.93 647.509 C 681.692 648.609 680.442 649.619 679.35 650.847 C 664.436 686.995 670.745 715.962 685.676 751.594 C 687.558 755.983 689.503 760.345 691.51 764.678 C 694.051 769.268 698.198 775.819 699.218 780.698 C 695.917 776.7 691.958 770.444 688.95 765.974 z" fill="rgb(245,237,230)" transform="translate(0,0)"></path>
<path d="M 682.93 647.509 C 698.655 647.882 707.546 650.799 719.035 662.919 C 745.696 691.043 755.194 732.386 756.724 769.901 C 748.456 751.805 735.88 732.245 719.135 757.22 C 702.928 732.433 705.433 699.862 728.547 680.304 C 715.292 660.595 703.757 651.644 679.35 650.847 C 680.442 649.619 681.692 648.609 682.93 647.509 z" fill="rgb(58,36,32)" transform="translate(0,0)"></path>
<path d="M 907.586 360.635 C 923.271 358.53 944.504 357.815 960.503 356.839 C 1021.62 353.113 1083.13 355.948 1144.2 360.249 L 1144.18 409.208 C 1131.04 407.128 1105.73 404.53 1092.38 404.883 C 1086.99 403.988 1083.26 404.114 1077.86 404.121 C 1040.33 402.74 1002.76 402.724 965.22 404.075 C 953.284 404.555 916.65 408.115 907.626 407.593 C 907.26 407.57 906.828 407.633 906.584 407.375 C 905.596 403.487 905.102 364.822 907.586 360.635 z" fill="rgb(255,90,31)" transform="translate(0,0)"></path>
<path d="M 907.586 360.635 C 908.522 366.036 908.544 401.704 907.626 407.593 C 907.26 407.57 906.828 407.633 906.584 407.375 C 905.596 403.487 905.102 364.822 907.586 360.635 z" fill="rgb(43,16,22)" transform="translate(0,0)"></path>
<path d="M 702.475 785.409 C 714.062 798.612 730.43 810.207 748.543 811.533 C 752.342 811.811 759.408 811.124 763.847 811.072 C 764.587 809.327 764.959 807.257 765.763 805.094 C 768.216 817.16 771.337 827.573 776.296 838.872 L 774.402 840.989 C 791.853 878.797 827.926 906.549 858.374 936.017 C 840.937 936.974 807.72 937.661 790.884 935.298 C 762.566 931.113 737.076 915.834 720.037 892.832 C 702.199 868.696 699.647 845.995 699.771 817.001 C 699.809 807.941 698.858 797.94 700.214 788.956 L 701.324 788.535 C 701.724 786.786 701.608 786.811 702.475 785.409 z" fill="rgb(255,90,31)" transform="translate(0,0)"></path>
<path d="M 702.475 785.409 C 714.062 798.612 730.43 810.207 748.543 811.533 C 752.342 811.811 759.408 811.124 763.847 811.072 C 764.587 809.327 764.959 807.257 765.763 805.094 C 768.216 817.16 771.337 827.573 776.296 838.872 L 774.402 840.989 C 770.46 831.594 767.952 824.735 765.118 814.942 C 735.868 815.67 721.47 811.109 701.324 788.535 C 701.724 786.786 701.608 786.811 702.475 785.409 z" fill="rgb(43,16,22)" transform="translate(0,0)"></path>
<path d="M 731.98 525.633 C 731.964 523.99 731.162 516.147 733.562 515.697 L 733.276 516.221 L 734.255 517 C 734.528 518.193 734.541 519.075 734.623 520.328 C 741.379 561.427 750.094 601.344 756.427 642.375 C 748.721 630.76 744.755 625.914 732.136 618.888 L 731.98 525.633 z" fill="rgb(245,237,230)" transform="translate(0,0)"></path>
<path d="M 731.98 525.633 C 731.964 523.99 731.162 516.147 733.562 515.697 L 733.276 516.221 L 734.255 517 C 734.528 518.193 734.541 519.075 734.623 520.328 C 732.363 520.615 732.611 523.424 731.98 525.633 z" fill="rgb(213,192,194)" transform="translate(0,0)"></path>
<path d="M 1077.47 406.734 L 1080.51 406.354 C 1067.31 451.742 997.972 485.673 955.589 494.348 C 953.568 493.518 953.243 493.8 951.031 493.805 L 955.011 490.82 C 999.991 478.554 1059.44 453.804 1077.47 406.734 z" fill="rgb(255,90,31)" transform="translate(0,0)"></path>
<path d="M 817.191 488.231 C 857.096 481.586 902.273 469.866 928.467 435.436 C 933.962 428.214 939.411 411.617 941.385 409.796 C 942.787 412.354 942.172 413.936 941.323 417.096 C 934.941 440.864 914.453 457.043 893.86 468.512 C 878.353 477.149 842.128 489.955 824.609 490.017 L 817.985 489.467 L 817.191 488.231 z" fill="rgb(255,90,31)" transform="translate(0,0)"></path>
<metadata><recraft-signature>{"signed_by": "recraft", "signature_b64": "uMfgH0RpvOUdrOBeAEdkNhpCAjj2sLPppg7dNMY4PpyNl6FY39KjcNSL5cu/hYYUqrLxd26A8zCQ5zWe/xxiBQ==", "signing_algo": "Ed25519", "generation_timestamp": 1783313424, "identifier": "a81de74a-c2a9-4f43-b53c-5922292f6659"}</recraft-signature></metadata></svg>