<svg xmlns="http://www.w3.org/2000/svg" height="1024" preserveAspectRatio="none" style="display: block;" version="1.1" viewBox="0 0 2048 2048" width="1024">
<defs>
	<linearGradient gradientUnits="userSpaceOnUse" id="Gradient1" x1="1007.46" x2="997.286" y1="786.611" y2="793.559">
		<stop class="stop0" offset="0" stop-color="rgb(249,123,43)" stop-opacity="1"></stop>
		<stop class="stop1" offset="1" stop-color="rgb(255,91,44)" stop-opacity="1"></stop>
	</linearGradient>
</defs>
<path d="M 0 0 L 2048 0 L 2048 2048 L 1923.33 2048 L 1887.97 2048 L 1651.95 2048 L 1634.99 2048 L 1583.01 2048 L 1566.76 2048 L 1514.12 2048 L 1497.86 2048 L 1374.68 2048 L 1311.65 2048 L 1143.43 2048 L 902.796 2048 L 735.09 2048 L 672.214 2048 L 547.029 2048 L 531.078 2048 L 478.408 2048 L 463.366 2048 L 409.875 2048 L 394.947 2048 L 350.492 2048 L 334.059 2048 L 318.496 2048 L 309.286 2048 L 281.314 2048 L 212.084 2048 L 166.214 2048 L 0 2048 L 0 0 z" fill="rgb(58,36,32)" transform="translate(0,0)"></path>
<path d="M 826.433 481.121 C 818.246 449.536 821.337 416.306 831.063 385.433 C 847.551 333.824 883.966 290.936 932.218 266.297 C 987.903 237.515 1038.65 238.034 1096.79 256.599 C 1106.7 261.21 1115.96 265.663 1125.55 270.915 C 1196.69 309.857 1245.09 400.88 1222.58 481.439 C 1264.91 499.549 1288.17 515.04 1324.54 541.4 C 1344.19 558.577 1365.44 577.406 1382.81 597.03 C 1449.41 673.487 1488.72 769.906 1494.55 871.134 C 1498.19 934.99 1487.8 998.868 1464.13 1058.28 C 1474.05 1059.54 1481.1 1060.84 1490.8 1063.56 C 1537.06 1084.46 1555.23 1133.67 1535.76 1180.74 C 1529.44 1196.04 1516.25 1208.33 1507.29 1222.01 L 1506.29 1223.85 C 1510.93 1229.89 1523.46 1238.91 1528.75 1245.95 C 1546.41 1269.47 1553.45 1294.52 1549.62 1322.88 C 1545.93 1351.63 1530.81 1377.68 1507.67 1395.14 C 1484.45 1412.75 1455.09 1420.24 1426.27 1415.9 C 1399.23 1411.86 1383.17 1401.19 1363.82 1382.82 C 1355.78 1379.14 1348.8 1365.66 1343.81 1358 C 1339.87 1360.65 1333.04 1371.38 1330.09 1375.36 C 1313.41 1397.84 1296.39 1415.59 1271.59 1429.15 C 1266.54 1431.91 1256.23 1445 1250.74 1448.64 C 1238.19 1457.86 1223.97 1467.25 1211.29 1476.24 C 1200.15 1484.13 1185.96 1488.85 1176.79 1495.35 C 1176.6 1499.53 1177.23 1502.22 1176.13 1506.39 C 1175.65 1502.01 1175.46 1498.5 1174.17 1494.27 C 1112.22 1524.47 1045.21 1538.64 976.473 1529.77 C 966.73 1528.51 946.593 1526.83 937.848 1523.27 L 923.743 1520.52 L 915.93 1518.63 C 901.074 1514.87 886.054 1508.1 870.994 1503.32 C 862.16 1501.41 842.332 1492.14 833.696 1487.77 C 780.283 1460.74 731.096 1413.74 698.8 1363.53 C 681.732 1336.99 669.608 1305.79 659.981 1276.08 C 646.116 1280.4 626.177 1277.01 612.723 1272.46 C 578.548 1264.1 558.617 1239.38 538.918 1212.55 C 533.238 1204.81 523.197 1199.1 518.36 1189.33 C 489.836 1131.71 520.024 1070.56 583.755 1058.94 C 577.404 1038.46 571.504 1021.85 566.824 1000.8 C 547.96 914.715 553.466 825.072 582.724 741.94 C 614.007 654.548 671.555 578.972 747.479 525.573 C 776.186 505.671 795.211 496.052 826.433 481.121 z" fill="rgb(245,237,230)" transform="translate(0,0)"></path>
<path d="M 1001.14 1052.32 C 1019.87 1044.32 1028.58 1043.18 1047.2 1053.01 C 1045.97 1065.34 1046.65 1076.53 1048.49 1088.72 C 1064.25 1193.43 1159.74 1259.41 1263.75 1241.49 C 1336.29 1228.99 1389.5 1178.67 1413.28 1109.45 C 1415.58 1102.76 1425.37 1067.14 1427.96 1064.76 C 1440.53 1060.57 1450.92 1058.06 1464.13 1058.28 C 1474.05 1059.54 1481.1 1060.84 1490.8 1063.56 C 1537.06 1084.46 1555.23 1133.67 1535.76 1180.74 C 1529.44 1196.04 1516.25 1208.33 1507.29 1222.01 L 1506.29 1223.85 C 1510.93 1229.89 1523.46 1238.91 1528.75 1245.95 C 1546.41 1269.47 1553.45 1294.52 1549.62 1322.88 C 1545.93 1351.63 1530.81 1377.68 1507.67 1395.14 C 1484.45 1412.75 1455.09 1420.24 1426.27 1415.9 C 1399.23 1411.86 1383.17 1401.19 1363.82 1382.82 C 1355.78 1379.14 1348.8 1365.66 1343.81 1358 C 1339.87 1360.65 1333.04 1371.38 1330.09 1375.36 C 1313.41 1397.84 1296.39 1415.59 1271.59 1429.15 C 1266.54 1431.91 1256.23 1445 1250.74 1448.64 C 1238.19 1457.86 1223.97 1467.25 1211.29 1476.24 C 1200.15 1484.13 1185.96 1488.85 1176.79 1495.35 C 1176.6 1499.53 1177.23 1502.22 1176.13 1506.39 C 1175.65 1502.01 1175.46 1498.5 1174.17 1494.27 C 1112.22 1524.47 1045.21 1538.64 976.473 1529.77 C 966.73 1528.51 946.593 1526.83 937.848 1523.27 L 938.25 1522.63 C 934.72 1520.46 931.859 1519.76 927.921 1518.47 C 782.706 1461.7 704.053 1339.32 680.079 1188.81 C 689.683 1196.31 698.058 1204.24 708.237 1211.34 C 790.898 1268.95 914.511 1249.66 970.282 1164.23 C 991.649 1131.5 1003.44 1091.4 1001.14 1052.32 z" fill="rgb(255,140,66)" transform="translate(0,0)"></path>
<path d="M 1174.17 1494.27 C 1187.33 1486.03 1202.88 1479.08 1218.2 1469.21 C 1268.04 1436.67 1309.4 1392.71 1338.84 1340.97 C 1346.82 1360.28 1350.6 1366.67 1363.82 1382.82 C 1355.78 1379.14 1348.8 1365.66 1343.81 1358 C 1339.87 1360.65 1333.04 1371.38 1330.09 1375.36 C 1313.41 1397.84 1296.39 1415.59 1271.59 1429.15 C 1266.54 1431.91 1256.23 1445 1250.74 1448.64 C 1238.19 1457.86 1223.97 1467.25 1211.29 1476.24 C 1200.15 1484.13 1185.96 1488.85 1176.79 1495.35 C 1176.6 1499.53 1177.23 1502.22 1176.13 1506.39 C 1175.65 1502.01 1175.46 1498.5 1174.17 1494.27 z" fill="rgb(170,29,36)" transform="translate(0,0)"></path>
<path d="M 1071.97 1290.95 C 1082.59 1290.42 1093.17 1289.46 1103.48 1292.65 C 1139.87 1303.9 1142.43 1355.84 1107.57 1370.77 C 1103.95 1372.32 1095 1373.52 1090.88 1373.54 C 1049.56 1373.76 1008.21 1373.57 966.886 1373.75 C 959.686 1373.78 952.121 1373.69 945.052 1372.29 C 926.055 1366.36 914.063 1351.39 914.465 1331.81 C 914.614 1320.19 919.524 1309.14 928.046 1301.23 C 942.674 1287.6 960.396 1289.83 978.835 1290.41 C 991.296 1290.96 1003.77 1290.24 1016.15 1290.5 C 1016.17 1302.92 1015.75 1316.98 1016.31 1329.19 C 1017.06 1318.19 1016.62 1301.84 1016.64 1290.44 C 1022.7 1290.38 1028.75 1290.43 1034.81 1290.57 C 1046.91 1291.02 1059.79 1290.79 1071.97 1290.95 z" fill="rgb(58,36,32)" transform="translate(0,0)"></path>
<path d="M 978.835 1290.41 C 991.296 1290.96 1003.77 1290.24 1016.15 1290.5 C 1016.17 1302.92 1015.75 1316.98 1016.31 1329.19 C 1013.26 1330.99 985.046 1330.15 978.888 1330.13 L 978.835 1290.41 z" fill="rgb(245,237,230)" transform="translate(0,0)"></path>
<path d="M 1034.81 1290.57 C 1046.91 1291.02 1059.79 1290.79 1071.97 1290.95 L 1072.1 1330.28 C 1059.66 1330.11 1047.21 1330.06 1034.76 1330.13 L 1034.81 1290.57 z" fill="rgb(245,237,230)" transform="translate(0,0)"></path>
<path d="M 1473.93 1244.08 C 1509.6 1255.42 1525.6 1299.18 1514.42 1333.16 C 1508.06 1352.28 1494.2 1368 1476.02 1376.69 C 1457.51 1385.79 1436.13 1387.11 1416.65 1380.34 C 1396.29 1373.27 1381.01 1357.79 1372.33 1338.27 L 1371.85 1337.19 C 1361.76 1315.26 1364.37 1295.61 1372.6 1273.97 C 1388.32 1278.9 1397.54 1278.94 1413.46 1279.05 C 1437.82 1274.85 1459.15 1264.56 1473.93 1244.08 z" fill="rgb(58,36,32)" transform="translate(0,0)"></path>
<path d="M 1372.6 1273.97 C 1388.32 1278.9 1397.54 1278.94 1413.46 1279.05 L 1411.67 1280.27 C 1406.37 1283.83 1395.22 1279.27 1393.47 1280.48 C 1387.63 1284.54 1371.65 1308.02 1367.46 1313.32 C 1367.02 1314.98 1372.26 1333 1372.33 1338.27 L 1371.85 1337.19 C 1361.76 1315.26 1364.37 1295.61 1372.6 1273.97 z" fill="rgb(170,29,36)" transform="translate(0,0)"></path>
<path d="M 1021.25 1145.42 C 1096.58 1141.53 1108.33 1231.25 1028.98 1240.62 C 1013.96 1242.14 997.249 1236.71 985.107 1227.82 C 964.176 1212.5 958.618 1185.96 975.746 1165.35 C 987.904 1150.71 1003.11 1146.92 1021.25 1145.42 z" fill="rgb(255,90,31)" transform="translate(0,0)"></path>
<path d="M 1393.64 1203.6 C 1397.67 1188.44 1400.16 1157.14 1405.97 1145.44 C 1418.43 1120.34 1465.43 1107.66 1488.79 1124.38 C 1498.13 1131.07 1500.03 1133.42 1506.04 1141.94 C 1485.79 1143.27 1463.07 1144.05 1443.79 1150.11 C 1444.41 1152.48 1444.92 1154.88 1445.31 1157.29 C 1448.24 1175.66 1446.37 1187.82 1435.49 1202.93 C 1433.24 1206.05 1432.06 1208.58 1428.53 1209.75 C 1425.86 1209.32 1426.5 1209.54 1423.99 1208.53 C 1424.98 1212.24 1425.29 1210.66 1423.73 1213.53 L 1419.48 1215.85 C 1415.82 1217.32 1411.7 1218.96 1407.93 1220.05 L 1404.31 1219.26 C 1399.36 1220.69 1396.62 1222.09 1392.19 1219.07 C 1390.99 1214.72 1391.74 1215.24 1393.35 1210.06 L 1393.64 1203.6 z" fill="rgb(255,90,31)" transform="translate(0,0)"></path>
<path d="M 1493.82 1229.78 C 1500.56 1232.41 1511.05 1243.8 1516.17 1248.9 C 1524.25 1256.94 1540.89 1290.3 1536.67 1300.44 C 1534.18 1299.58 1532.58 1299.56 1532.11 1296.57 C 1530.03 1283.57 1525.43 1271.04 1517.61 1260.36 C 1512.53 1253.42 1506.4 1247.63 1500.2 1241.73 C 1497.57 1239.23 1494.2 1236.92 1492.3 1234.02 C 1491.88 1233.37 1492.98 1231.35 1493.22 1230.91 L 1493.82 1229.78 z" fill="rgb(245,237,230)" transform="translate(0,0)"></path>
<path d="M 576.104 1215.09 C 563.862 1209.31 556.673 1205.01 548.44 1193.81 C 511.877 1144.09 552.116 1047.42 619.766 1060.14 C 624.243 1068.02 632.313 1108.69 637.995 1119.78 C 639.802 1123.31 646.9 1141.19 646.793 1145.37 C 644.033 1158.78 647.883 1206.56 649.37 1221.58 C 652.07 1240.95 654.947 1257.19 659.981 1276.08 C 646.116 1280.4 626.177 1277.01 612.723 1272.46 C 611.339 1269.38 606.311 1266.49 603.174 1263.93 C 587.956 1251.5 579.953 1234.04 576.104 1215.09 z" fill="rgb(255,140,66)" transform="translate(0,0)"></path>
<path d="M 541 1145.6 C 560.624 1114.75 592.823 1109.17 623.333 1126.79 C 632.724 1132.21 638.776 1138.43 646.793 1145.37 C 644.033 1158.78 647.883 1206.56 649.37 1221.58 C 631.194 1219.5 617.275 1210.2 608.145 1194.37 C 599.14 1178.76 601.144 1166.84 605.593 1150.36 C 584.819 1143.96 562.444 1141.51 541 1145.6 z" fill="rgb(255,90,31)" transform="translate(0,0)"></path>
<path d="M 727.647 830.906 C 750.937 803.752 814.953 765.968 849.94 760.776 C 939.431 747.495 996.698 713.504 1022.94 621.514 C 1026.61 638.026 1032.81 653.872 1041.32 668.491 C 1064.27 708.701 1099 733.614 1142.44 748.942 C 1151.89 752.274 1165.56 753.557 1175.35 756.285 L 1176.71 756.672 C 1189.31 757.639 1200.57 760.987 1212.57 764.648 C 1254 777.296 1282.35 795.386 1314.97 823.329 L 1320.65 828.741 C 1322.54 830.595 1324.02 831.889 1325.64 833.994 L 1329.36 838.115 C 1332.69 841.63 1336.72 846.393 1339.85 850.093 C 1352.57 864.055 1356.11 874.273 1365.91 886.445 L 1366.04 887.864 C 1375.74 903.617 1380.87 916.978 1387.68 934.035 C 1384.59 935.042 1370.85 933.139 1367.43 932.063 L 1366.31 932.028 C 1357.11 931.967 1341.63 930.191 1331.99 929.535 C 1314.35 928.374 1296.68 927.907 1279 928.135 C 1232.46 928.987 1191.01 935.323 1147.09 951.469 C 1104.37 968.297 1074.53 983.874 1052.75 1025.39 C 1029.48 1017.01 1018.05 1016.91 994.888 1025.91 C 971.659 982.674 948.616 970.657 904.175 952.799 C 862.245 937.149 825.091 931.705 780.886 928.15 C 761.909 927.753 742.925 928.007 723.966 928.912 C 720.32 929.008 717.107 929.159 713.475 929.495 C 710.77 929.612 707.453 929.84 704.801 929.843 C 697.075 930.556 665.682 934.789 661.902 932.998 C 666.203 922.397 672.179 907.127 678.111 897.707 C 684.869 884.326 693.578 871.992 702.314 859.854 C 706.989 853.556 710.134 849.78 715.421 843.977 C 719.43 839.458 723.466 835.259 727.647 830.906 z" fill="rgb(255,140,66)" transform="translate(0,0)"></path>
<path d="M 727.647 830.906 C 750.937 803.752 814.953 765.968 849.94 760.776 C 939.431 747.495 996.698 713.504 1022.94 621.514 C 1026.61 638.026 1032.81 653.872 1041.32 668.491 C 1064.27 708.701 1099 733.614 1142.44 748.942 C 1151.89 752.274 1165.56 753.557 1175.35 756.285 L 1176.71 756.672 C 1189.31 757.639 1200.57 760.987 1212.57 764.648 C 1254 777.296 1282.35 795.386 1314.97 823.329 C 1314.37 825.564 1314.7 825.379 1313.45 827.136 L 1311.54 826.915 C 1311.77 831.497 1314.45 839.125 1313.31 842.452 L 1310.38 845.608 L 1310.57 846.99 C 1318.1 846.434 1318.14 859.116 1317.37 864.463 L 1316.63 863.879 C 1315.39 862.926 1315.86 863.283 1314.08 862.067 C 1311.46 862.828 1308.47 863.512 1306.14 864.831 L 1305.19 866.186 L 1303.1 866.388 C 1301.32 868.044 1300.4 869.78 1299.1 871.827 L 1298.04 871.584 L 1296.68 865.953 C 1295.05 864.407 1294.51 863.637 1293.12 861.837 C 1289.35 860.672 1288.92 862.917 1284.67 859.87 C 1283.6 856.35 1284.52 853.91 1285.27 850.256 C 1288.94 847.59 1287.07 848.015 1290.82 847.771 C 1293.76 849.325 1296.04 850.715 1298.86 852.474 C 1297.47 854.93 1296.1 857.156 1294.96 859.741 C 1297.25 862.201 1297.21 862.572 1300.52 863.366 C 1302.98 861.968 1302.27 862.992 1303.14 860.587 C 1307.39 857.265 1309.38 855.649 1309.68 850.153 C 1308.27 847.699 1309.25 848.555 1306.67 847.469 C 1303.34 848.297 1304.94 847.595 1302.1 850.471 C 1303.03 846.38 1305.41 840.576 1308.45 837.7 L 1308.32 836.959 C 1304.63 838.714 1304.43 840.236 1299.99 841.819 L 1299.61 845.381 L 1298.02 846.611 L 1296.66 845.169 C 1296.23 840.705 1295.95 842.89 1298.1 838.478 C 1299.38 834.213 1298.81 833.967 1297.42 830.593 C 1298.75 829.636 1300.51 828.045 1301.81 826.949 C 1299.35 825.749 1297.74 823.673 1295.83 821.653 L 1294.22 821.89 C 1291.57 823.093 1290.87 823.578 1288.01 824.257 L 1288.07 825.119 L 1288.79 829.768 C 1286.21 831.126 1287.53 830.861 1284.73 830.738 L 1282.73 827.273 C 1281.69 823.852 1281.71 822.945 1278.86 820.752 C 1274.18 820.915 1269.54 827.791 1268.41 832.052 L 1265.28 833.319 L 1261.95 834.526 L 1258.07 832.446 L 1257.29 832.539 C 1255.61 835.362 1254.42 836.889 1251.08 836.641 C 1249.37 834.428 1249.64 834.035 1249.24 831.163 L 1253.49 830.067 C 1255.8 828.81 1255.04 829.376 1256.77 827.401 C 1257.13 824.106 1256.59 823.871 1254.89 821.004 L 1255.84 818.813 C 1258.46 817.897 1259.09 817.682 1261.5 816.348 C 1260.75 814.014 1261.19 815.05 1260.28 813.208 C 1258.79 813.201 1259.56 813.013 1258.06 814.058 C 1254.84 816.429 1253.85 814.975 1250.37 813.586 C 1252.2 809.848 1252.46 809.781 1255.87 807.207 L 1258.17 808.354 C 1257.4 805.634 1256.33 805.744 1256.13 802.321 C 1259.22 802.592 1260.63 803.306 1262.81 802.063 C 1261.88 797.398 1257.87 795.091 1254.02 793.053 C 1251.58 795.252 1251.8 795.341 1250.56 798.461 C 1252.13 801.607 1253.13 802.247 1252.03 806 L 1250.25 808.259 C 1248.18 806.952 1248.91 807.404 1247.53 804.969 C 1242.63 804.984 1238.3 809.886 1234.09 809.076 L 1232.13 805.754 L 1230.61 805.49 C 1229.69 807.836 1229.96 806.875 1230.33 809.658 L 1228.65 810.267 L 1225.24 808.145 C 1223.82 807.282 1224.31 807.579 1222.37 807.056 C 1222.16 805.384 1222.25 804.85 1222.3 803.162 L 1224.32 802.81 C 1225.25 802.048 1226.27 801.017 1227.16 800.171 L 1226.8 797.945 C 1224.24 795.66 1223.29 795.594 1220.07 794.593 C 1216.92 794.501 1215.44 793.046 1212.25 794.522 L 1205.72 795.336 C 1206.02 791.247 1208.52 789.903 1211.51 787.435 L 1211.85 785.904 C 1209.42 784.482 1205.47 783.526 1202.62 782.665 L 1197.78 784.659 L 1195.51 785.717 L 1195.7 787.002 L 1200.13 789.251 L 1199.55 790.256 L 1196.07 789.345 L 1195.68 790.978 C 1199.45 794.534 1205 797.35 1205.29 802.206 C 1205.55 806.542 1206.33 811.106 1206.3 815.455 C 1204.89 815.482 1204.49 815.284 1203.1 814.992 C 1200.38 810.801 1202.67 811.371 1200.8 805.795 L 1199.87 805.92 L 1199.44 810.405 C 1194.79 810.326 1196.79 809.691 1193.12 811.914 L 1191.05 811.03 L 1188.94 810.939 L 1186.23 813.705 C 1185.55 811.876 1185.6 812.871 1186.46 810.727 C 1185.22 808.621 1183.91 807.178 1182.38 805.279 C 1179.21 807.775 1179.19 808.19 1177.7 811.84 L 1176.99 813.528 L 1176.51 814.717 C 1172.1 815.175 1173.61 813.266 1170.48 811.444 L 1166.7 811.263 C 1164.08 813.882 1164.01 815.532 1164.97 819.306 C 1168.45 821.994 1167.26 821.915 1170.86 821.964 C 1174.55 819.279 1175.88 818.047 1180.64 819.121 L 1181.65 818.996 L 1183.46 820.087 L 1187.59 820.322 C 1189.54 820.718 1193.25 821.341 1195 821.934 C 1201.53 821.886 1202.96 822.299 1209.13 823.818 C 1214.53 826.026 1216.25 830.121 1222.24 828.429 L 1224.16 826.894 C 1223.97 824.475 1224.15 825.615 1223.68 823.468 L 1224.63 822.743 L 1226.37 823.202 C 1228.89 831.373 1225.39 834.133 1229.64 842.953 L 1227.5 844.675 L 1225.81 844.451 C 1223.4 838.559 1225.58 833.659 1223.07 829.372 L 1221.07 828.911 L 1219.67 830.064 C 1220.13 836.408 1223.65 839.213 1222.88 843.378 C 1219.3 840.847 1220.72 834.778 1216.79 829.339 L 1215.68 829.664 L 1213.96 832.825 L 1212.16 832.632 C 1211.35 831.046 1211.35 831.073 1210.76 829.338 C 1204.55 827.03 1189.55 826.829 1182.59 826.83 C 1177.12 829.876 1185.84 829.413 1174.93 831.025 C 1174.61 833.426 1174.58 832.368 1174.79 834.197 L 1174.67 835.239 L 1173.22 833.763 L 1172.26 833.652 C 1168.39 833.18 1164.19 832.942 1161.75 829.841 L 1164.93 829.012 L 1165.48 828.025 C 1163.54 824.78 1160.78 822.45 1158.06 819.824 L 1159.55 819.846 L 1159.62 818.447 L 1156.47 816.582 C 1155.59 813.906 1155.96 814.607 1154.47 812.217 C 1151.34 812.087 1149.69 812.399 1147.32 810.422 L 1147.38 808.992 C 1150.09 809.208 1151.56 809.489 1154.2 809.979 C 1154.55 809.377 1155.31 808.727 1155.57 806.605 C 1156 802.969 1160.77 804.059 1164.91 798.96 L 1164.04 796.647 L 1162.41 796.151 C 1156.94 797.572 1156.94 798.888 1152.23 801.26 C 1149.08 803.342 1145.96 804.787 1144.69 808.188 C 1144.87 816.365 1151.14 814.908 1152.24 820.702 L 1151.24 822.676 L 1149.97 822.679 C 1148.47 822.692 1147.34 822.757 1145.85 822.867 C 1143.06 827.138 1142.35 831.697 1139 834.269 C 1136.32 831.981 1137.82 832.695 1134.3 832.106 L 1132.79 835.183 L 1132.79 836.07 C 1133.95 840.041 1132.79 838.775 1135.73 840.554 C 1138.41 840.185 1139.41 840.071 1141.98 839.306 L 1143.04 841.542 L 1142.15 842.621 C 1137.51 842.859 1137.07 842.448 1135.4 847.263 L 1133.61 847.581 C 1132.86 845.991 1132.01 844.509 1131.06 843.027 C 1128.01 842.176 1128.07 842.513 1124.82 842.916 L 1123.31 841.986 L 1123.07 840.116 C 1125.68 839.046 1125.77 839.203 1128.64 839.068 L 1125.01 834.422 L 1123.74 835.033 C 1120.44 836.653 1112.4 842.359 1111.2 842.604 L 1109.9 840.537 C 1109.71 837.4 1109.27 836.535 1110.98 833.984 C 1114.65 831.254 1115.56 832.681 1119.46 832.176 C 1125.92 831.341 1123.7 824.591 1126.85 819.095 C 1129.85 817.417 1128.21 817.889 1132.03 818.154 L 1132.26 819.354 C 1130.41 822.321 1127.18 826.44 1128.68 829.759 L 1133.87 830.853 C 1134.6 824.341 1135.68 820.359 1131.56 814.965 C 1133.04 811.165 1136.1 810.838 1137.64 807.056 L 1135.93 805.317 L 1130.09 806.323 C 1129.99 811.466 1126.14 815.086 1122.91 819.487 L 1121.33 819.08 C 1120.16 820.762 1119.66 821.694 1118.98 823.629 C 1115.41 825.245 1117.16 825.067 1113.64 824.705 C 1110.34 821.989 1110.18 820.949 1108.31 816.926 L 1107.27 815.449 L 1104.05 811.989 L 1103.5 809.241 C 1101.51 803.894 1100.76 800.938 1096.62 797.106 C 1096.62 803.139 1096.78 803.778 1093.21 808.848 L 1091.74 810.275 L 1091.19 813.722 C 1091.45 817.493 1091.53 821.096 1089.83 824.476 C 1087.45 824.395 1088.28 824.595 1086.05 823.646 C 1082.9 826.141 1083.1 826.385 1081.74 830.053 C 1080.71 829.002 1079.93 828.453 1078.78 827.539 C 1076.23 829.348 1073.32 830.34 1070.31 829.36 C 1069.05 825.376 1069.72 825.949 1070.99 821.121 C 1069.3 816.57 1070.13 810.907 1065.45 807.959 C 1065.43 810.545 1065.5 809.854 1066.41 812.463 C 1068.42 817.128 1068.28 815.246 1067.79 820.108 L 1067.97 821.069 L 1067.06 822.391 L 1065.5 822.447 C 1060.03 822.673 1056.98 824.327 1051.99 822.71 L 1051.29 823.742 C 1050.97 828.3 1051.36 828.857 1048.52 831.356 C 1044.83 829.566 1045.3 822.847 1042.54 816.739 L 1041.76 815.033 L 1038.93 814.557 C 1034.82 815.084 1031.61 814.617 1028.86 816.578 C 1028.06 820.113 1028.67 821.612 1028.22 824.379 L 1027.19 826 C 1027.44 826.123 1030.65 827.786 1031.09 827.909 L 1033.4 826.446 C 1039.35 828.384 1044.45 824.768 1045.39 835.029 L 1044.37 836.328 L 1043.58 835.971 C 1034.98 836.394 1033.65 835.377 1026 830.86 C 1024.47 830.712 1024.04 830.532 1022.55 830.145 C 1022.3 826.723 1023.61 826.121 1025.86 822.435 C 1022.01 820.625 1022.99 820.35 1019.63 821.054 C 1018.63 822.315 1017.48 823.643 1016.62 824.998 C 1026.13 833.552 1018.42 835.318 1023.99 841.837 L 1022.76 845.101 C 1016.1 841.045 1018.73 838.561 1017.33 831.363 L 1015.44 830.281 C 1009.9 833.423 1010.03 832.7 1005.31 829.212 C 999.732 832.93 998.693 832.085 991.068 832.133 C 989.11 829.65 989.815 831.124 990.31 826.791 C 986.37 824.054 983.399 819.339 980.474 818.811 C 978.04 821.063 978.147 822.511 977.011 826.017 L 975.712 826.589 C 972.523 823.556 973.582 824.096 973.206 818.144 L 971.864 817.485 C 968.594 811.437 968.893 810.734 961.999 810.681 C 963.767 814.387 964.969 817.537 969.584 818.028 L 969.918 819.123 C 970.58 825.11 969.333 825.292 965.344 830.879 L 969.514 831.055 L 970.133 832.202 C 965.817 835.5 957.431 825.514 945.173 830.545 C 943.095 834.064 945.06 835.85 947.177 839.108 L 946.45 841.191 L 944.425 842.001 C 942.052 840.268 939.777 838.87 937.978 836.569 C 940.01 834.268 939.267 835.063 942.311 833.65 C 936.665 829.37 928.2 837.467 922.177 835.925 L 920.177 834.358 L 921.699 831.36 C 919.853 827.525 908.617 821.175 904.282 820.768 C 902.217 818.605 900.832 816.255 898.53 815.919 L 898.372 816.843 C 901.133 819.009 903.859 821.222 906.547 823.479 C 905.989 825.253 904.398 825.459 902.118 826.653 C 898.732 823.779 899.319 823.232 896.074 823.38 L 895.712 825.138 C 898.039 828.459 897.009 827.376 901.285 829.049 C 901.522 832.154 903.588 833.648 905.646 835.859 L 905.264 837.541 C 902.563 838.797 902.466 838.433 899.431 837.848 C 895.942 839.989 897.199 838.567 895.472 842.222 L 895.842 843.464 C 898.341 842.531 898.759 842.373 901.032 841.003 L 902.587 841.417 L 902.571 841.676 C 900.357 842.789 901.543 842.347 898.996 842.956 C 898.302 845.612 898.18 844.285 899.077 847.01 C 901.468 847.351 900.401 847.525 902.311 846.763 C 906.415 837.403 921.475 831.03 925.873 840.753 C 925.821 845.711 923.351 855.116 917.33 855.15 L 916.11 854.305 C 900.72 849.741 901.968 865.439 891.614 847.628 L 889.755 846.988 L 889.173 848.13 C 890.701 851.434 894.425 856.552 894.458 858.322 L 891.898 858.94 C 888.548 857.877 885.865 854.586 883.269 851.986 C 881.418 854.633 879.981 857.544 877.145 858.627 C 876.436 855.484 878.825 848.488 879.77 844.979 C 878.696 842.404 873.612 839.174 871.131 837.313 C 870.919 837.664 870.707 838.015 870.495 838.366 C 862.814 845.213 866.428 842.596 864.427 848.9 L 861.919 851.587 L 858.041 851.372 C 855.363 851.308 853.179 850.095 850.536 849.064 L 850.257 852.638 C 853.438 854.363 857.116 855.473 859.327 858.115 C 859.696 860.053 859.874 861.063 860.096 863.047 L 859.571 863.781 C 857.085 868.348 857.957 869.32 856.1 872.632 L 853.392 878.793 C 851.252 879.247 849.566 879.212 847.383 879.314 C 846.168 876.836 845.841 876.847 846.274 874.216 C 848.11 872.971 849.363 872.015 851.125 870.677 C 848.998 868.311 848.791 868.156 847.264 865.405 C 848.173 862.588 848.53 863.132 851.57 861.02 L 849.262 860.563 C 847.269 860.65 844.184 860.452 842.098 860.387 C 838.341 862.86 833.367 862.1 828.815 861.467 L 827.753 862.65 L 825.498 861.576 C 824.378 858.525 824.976 859.131 826.822 855.016 C 829.162 851.47 831.09 850.555 834.668 848.061 L 836.167 846.847 C 840.247 844.569 838.726 845.208 844.163 845.743 L 845.094 843.93 C 844.798 840.051 845.239 839.313 846.388 835.693 C 845.249 832.044 843.508 831.932 840.134 830.095 L 837.891 830.94 L 838.007 832.616 L 843.202 835.714 C 842.84 838.815 843.019 838.674 840.933 840.952 C 833.333 841.527 840.331 837.803 834.043 839.837 C 832.937 841.076 833.678 840.424 831.59 841.495 C 829.79 839.806 829.513 839.476 827.058 839.132 C 823.572 845.87 822.203 841.754 820.831 850.924 C 815.093 850.33 814.858 850.883 808.629 847.808 C 807.645 847.322 805.826 849.224 804.632 850.123 L 803.982 850.432 C 798.531 849.501 804.691 850.054 798.977 843.931 C 796.944 852.748 791.192 852.586 789.996 856.803 C 792.354 856.87 791.556 857.026 793.774 855.912 C 797.334 856.865 802.843 858.449 804.602 861.996 L 803.787 864.048 C 798.071 863.462 797.979 855.058 792.079 858.461 L 791.057 863.333 C 786.896 864.744 785.015 857.978 780.439 870.831 C 775.123 869.562 776.977 867.916 771.969 867.837 C 772.419 875.291 776.493 875.863 783.07 877.853 C 784.803 875.389 785.581 871.421 786.402 868.377 L 787.215 867.189 L 788.968 867.246 C 791.794 867.321 799.13 865.906 800.404 868.132 C 804.86 875.918 803.342 878.157 796.166 880.596 L 791.28 879.887 C 788.18 887.455 791.73 884.001 791.629 891.33 L 789.928 893.658 L 787.469 890.914 L 787.479 889.602 C 784.661 885.303 782.831 882.159 777.571 881.422 C 768.47 880.145 770.731 875.946 768.321 873.149 L 763.444 873.189 C 761.847 875.879 762.037 875.759 759.279 877.205 L 763.334 882.017 L 762.736 887.654 L 760.239 888.504 C 758.906 885.952 756.233 877.821 754.873 877.438 C 751.331 876.439 753.704 878.481 749.854 874.729 C 747.268 868.872 744.643 857.991 742.256 854.648 L 740.801 854.907 C 737.732 865.309 738.141 857.884 732.001 861.6 L 729.897 865.88 C 729.053 865.513 728.209 865.147 727.365 864.78 L 723.172 867.587 C 721.217 870.774 720.276 873.227 716.964 874.749 L 714.108 874.838 C 713.11 885.009 721.322 879.923 725.934 890.31 L 722.858 893.9 L 721.093 896.108 L 721.657 897.731 C 722.766 897.872 724.076 898.098 725.163 898.105 L 729.95 896.2 C 734.293 895.688 742.587 897.835 743.838 897.134 C 747.822 895.384 749.479 894.12 753.557 894.767 L 754.857 895.788 C 753.531 898.89 752.858 898.622 748.981 900.372 L 748.686 900.994 L 750.131 904.712 L 749.269 906.452 C 746.011 906.078 745.714 905.431 743.068 902.352 L 741.795 901.852 C 735.316 897.318 733.155 899.314 726.058 901.695 C 721.221 900.39 720.731 899.42 717.866 895.57 L 719.751 891.252 C 719.141 887.204 719.908 888.965 717.375 885.762 L 715.464 885.803 C 713.509 888.874 714.182 888.101 714.689 892.716 L 711.017 892.058 C 710.352 892.543 709.233 893.285 708.701 893.837 L 707.478 896.714 C 704.566 894.439 705.341 894.456 703.94 890.181 L 700.697 893.324 L 699.9 900.605 L 700.648 900.839 C 701.386 901.624 703.506 903.991 704.204 904.546 L 703.786 906.019 C 700.873 907.194 700.741 907.161 697.6 907.603 L 696.714 906.194 L 698.627 900.921 C 695.997 901.873 695.341 902.018 692.581 902.533 C 689.17 901.757 689.082 901.254 686.57 898.859 L 685.009 897.873 C 681.663 898.488 681.372 898.822 678.111 897.707 C 684.869 884.326 693.578 871.992 702.314 859.854 C 706.989 853.556 710.134 849.78 715.421 843.977 C 719.43 839.458 723.466 835.259 727.647 830.906 z" fill="rgb(255,90,31)" transform="translate(0,0)"></path>
<path d="M 993.822 800.995 C 997.346 802.022 999.218 803.829 1002.67 805.269 L 1001.69 807.336 L 1002.49 809.477 C 1002.95 811.082 1003.17 815.613 1003.63 816.282 C 1003.01 817.697 1001.22 814.797 999.973 818.026 C 999.742 819.769 999.456 824.04 996.474 823.379 C 993.941 820.959 996.095 819.48 991.778 820.638 C 989.675 821.203 986.338 817.468 985.96 814.968 C 985.4 811.259 987.528 809.795 989.4 806.477 C 989.363 805.241 989.33 804.531 989.422 803.288 C 990.905 802.528 992.358 801.793 993.822 800.995 z" fill="rgb(255,140,66)" transform="translate(0,0)"></path>
<path d="M 923.11 789.837 C 922.933 788.82 922.225 786.706 923.11 785.768 C 922.714 785.82 931.44 788.135 931.642 788.246 L 933.184 789.032 L 933.015 789.729 C 938.203 791.08 936.733 794.162 934.705 798.659 C 932.296 803.999 934.407 801.803 936.515 806.03 L 935.405 806.914 C 930.542 804.216 928.688 807.484 925.65 806.651 C 924.504 804.763 926.318 804.002 926.035 803.439 C 923.503 798.405 921.942 800.164 923.541 794.322 L 923.959 792.671 C 923.644 791.348 923.597 791.068 923.11 789.837 z" fill="rgb(255,140,66)" transform="translate(0,0)"></path>
<path d="M 996.724 781.065 C 998.822 781.132 1000.55 781.296 1002.59 781.753 C 1003.21 781.893 1003.89 781.845 1004.47 782.092 C 1004.93 782.286 1005.6 782.55 1005.75 783.097 C 1005.9 783.581 1005.23 784.373 1004.95 784.699 C 1004.78 784.896 1004.58 785.063 1004.41 785.261 C 1004.02 785.725 1004.24 786.346 1004.35 786.866 C 1007.61 792.969 1007.39 791.103 1008.59 797.649 C 1008.49 798.675 1008.39 799.7 1008.28 800.726 L 1007.39 800.811 C 1004.41 799.875 1003.86 800.477 1001.47 799.894 C 1000.23 798.232 1002.33 794.718 997.389 790.966 C 993.413 786.963 1000.78 788.663 997.39 782.543 L 996.724 781.065 z" fill="url(#Gradient1)" transform="translate(0,0)"></path>
<path d="M 1033.29 808.797 C 1031.26 802.855 1024.83 794.363 1036.29 800.717 C 1036.73 801.554 1035.87 803.171 1036.33 803.258 C 1040.99 804.482 1039.77 806.53 1043.48 804.792 C 1049.02 802.194 1031.74 795.533 1044.55 797.906 C 1048.32 798.603 1050.26 800.078 1054.54 800.083 C 1056.69 800.085 1058 801.135 1059.37 802.079 C 1053.34 802.27 1052.82 800.067 1048.3 803.567 C 1047.33 804.985 1047.3 805.309 1045.91 806.083 C 1039.39 811.424 1044.78 808.827 1037.35 807.903 L 1033.29 808.797 z" fill="rgb(255,140,66)" transform="translate(0,0)"></path>
<path d="M 1087.38 791.128 C 1094.17 786.054 1092.47 798.57 1097.52 788.002 C 1098.81 785.301 1099 790.931 1106.93 789.45 C 1110.41 792.938 1109.81 792.602 1107.99 797.16 C 1107.23 799.251 1106.1 799.152 1104.02 800.079 C 1101.57 795.926 1100.96 790.813 1096.07 795.945 C 1090.93 795.819 1091.64 794.681 1087.38 791.128 z" fill="rgb(255,140,66)" transform="translate(0,0)"></path>
<path d="M 1083.32 800.663 C 1084.89 801.803 1089.76 805.327 1089.95 807.502 C 1090.14 809.679 1088.47 811.939 1086.04 811.808 L 1079.75 811.489 C 1080.14 805.255 1080.38 806.713 1083.32 800.663 z" fill="rgb(255,140,66)" transform="translate(0,0)"></path>
<path d="M 746.526 853.128 C 744.935 848.888 742.929 848.864 746.393 845.981 C 747.551 847.629 748.645 849.201 749.748 850.893 L 751.288 852.264 C 753.146 854.295 753.462 854.51 755.809 856.101 C 753.816 862.789 752.158 858.799 748.114 857.279 L 746.526 853.128 z" fill="rgb(255,140,66)" transform="translate(0,0)"></path>
<path d="M 1182.73 797.701 C 1194.02 790.162 1187.78 800.659 1191.2 804.989 C 1193.46 807.85 1189.34 808.09 1187.95 808.342 C 1185.4 804.002 1184.21 802.505 1182.73 797.701 z" fill="rgb(255,140,66)" transform="translate(0,0)"></path>
<path d="M 930.311 822.812 C 928.91 819.842 932.918 820.198 934.635 821.795 C 941.684 826.683 939.783 822.71 945.351 824.859 C 943.94 830.815 941.769 826.704 935.752 828.73 C 933.412 824.987 933.842 825.448 930.311 822.812 z" fill="rgb(255,140,66)" transform="translate(0,0)"></path>
<path d="M 1122.32 795.147 C 1123.78 794.155 1123.73 794.293 1125.6 793.825 C 1132.14 804.166 1130.53 804.464 1120.9 801.313 L 1120.05 800.209 C 1120.91 798.435 1121.58 796.957 1122.32 795.147 z" fill="rgb(255,140,66)" transform="translate(0,0)"></path>
<path d="M 959.994 800.161 C 962.719 798.619 962.55 798.735 965.836 798.45 L 965.896 801.926 C 965.342 802.702 964.871 803.455 964.355 804.255 C 962.435 810.524 955.707 811.013 959.505 800.117 L 959.994 800.161 z" fill="rgb(255,140,66)" transform="translate(0,0)"></path>
<path d="M 1214.1 784.064 L 1214.93 782.526 C 1218.29 775.112 1224.29 778.386 1220.59 781.981 C 1219.42 784.612 1217.76 790.227 1214.7 785.024 L 1214.1 784.064 z" fill="rgb(255,140,66)" transform="translate(0,0)"></path>
<path d="M 1043.8 779.377 C 1050.88 781.233 1047.27 783.89 1043.62 788.467 C 1038.46 788.934 1042.73 782.083 1043.8 779.377 z" fill="rgb(255,140,66)" transform="translate(0,0)"></path>
<path d="M 727.603 835.976 L 727.96 837.495 C 728.806 840.883 726.274 843.078 724.745 846.577 C 720.751 852.842 722.295 844.2 722.398 842.27 C 724.136 840.174 725.84 838.052 727.603 835.976 z" fill="rgb(255,140,66)" transform="translate(0,0)"></path>
<path d="M 1015 801.275 C 1018.47 801.556 1020.55 804.515 1023.08 807.27 C 1022.41 808.665 1021.36 808.523 1019.95 808.933 C 1017.6 807.073 1016.56 806.374 1015.62 803.476 L 1015.15 802.082 L 1015 801.275 z" fill="rgb(255,140,66)" transform="translate(0,0)"></path>
<path d="M 907.325 792.061 C 905.265 788.138 906.606 780.949 912.566 783.877 C 910.13 787.243 909.315 788.497 907.325 792.061 z" fill="rgb(255,140,66)" transform="translate(0,0)"></path>
<path d="M 1025.16 807.977 L 1026.6 807.88 C 1029.42 807.636 1029.84 808.814 1031.14 811.127 C 1027.83 814.799 1024.1 811.51 1025.16 807.977 z" fill="rgb(255,140,66)" transform="translate(0,0)"></path>
<path d="M 754.559 830.831 C 760.26 832.373 751.796 834.889 750.364 835.459 C 741.657 833.369 752.373 831.287 754.559 830.831 z" fill="rgb(255,140,66)" transform="translate(0,0)"></path>
<path d="M 1157.98 766.473 C 1164.66 764.191 1162.65 766.541 1163.1 772.834 C 1161.84 772.619 1160.58 772.418 1159.32 772.232 C 1158.93 770.299 1158.49 768.379 1157.98 766.473 z" fill="rgb(255,140,66)" transform="translate(0,0)"></path>
<path d="M 1033.09 745.104 C 1038.43 744.906 1038.43 745.08 1042.22 749.068 C 1037.19 748.165 1036.82 748.301 1033.09 745.104 z" fill="rgb(255,140,66)" transform="translate(0,0)"></path>
<path d="M 1097.27 749.814 C 1099.37 749.107 1099.7 749.162 1100.75 751.162 C 1098.36 752.201 1096.79 752.912 1097.27 749.814 z" fill="rgb(255,140,66)" transform="translate(0,0)"></path>
<path d="M 843.018 800.92 C 843.585 800.683 844.188 800.252 844.804 800.298 C 844.98 800.732 844.749 801.079 844.604 801.599 C 844.093 801.964 843.78 802.347 843.232 802.382 C 842.926 801.956 843.04 801.531 843.018 800.92 z" fill="rgb(255,140,66)" transform="translate(0,0)"></path>
<path d="M 1193.06 881.097 L 1195.89 879.384 C 1197.49 874.666 1197.44 873.465 1202.4 872.181 L 1202.77 876.25 C 1204.87 878.337 1208.24 877.138 1213.18 878.034 C 1250.8 882.624 1263.05 894.697 1279 928.135 C 1232.46 928.987 1191.01 935.323 1147.09 951.469 C 1137.89 919.135 1164.99 891.699 1193.06 881.097 z" fill="rgb(255,90,31)" transform="translate(0,0)"></path>
<path d="M 799.288 909.131 C 816.836 897.077 835.884 892.023 857.13 895.882 C 872.095 898.495 885.401 906.965 894.103 919.417 C 899.339 926.854 906.915 943.916 904.175 952.799 C 862.245 937.149 825.091 931.705 780.886 928.15 C 785.875 923.664 794.152 914.361 799.288 909.131 z" fill="rgb(255,90,31)" transform="translate(0,0)"></path>
<path d="M 1329.6 850.21 C 1326.66 845.401 1324.43 841.866 1329.36 838.115 C 1332.69 841.63 1336.72 846.393 1339.85 850.093 C 1338.49 851.499 1335.29 864.2 1335.48 865.855 C 1336.5 874.953 1332.01 865.289 1330.77 863.035 C 1327.68 857.426 1333.69 854.501 1329.6 850.21 z" fill="rgb(255,90,31)" transform="translate(0,0)"></path>
<path d="M 716.082 915.276 C 717.565 915.589 720.505 916.856 718.97 918.391 C 715.011 922.352 714.101 925.749 721.071 926.395 C 721.875 926.469 723.483 922.098 725.336 923.431 C 726.645 924.792 724.665 927.817 723.966 928.912 C 720.32 929.008 717.107 929.159 713.475 929.495 C 713.293 928.787 713.099 928.082 712.892 927.381 C 711.897 923.98 712.059 922.87 712.978 919.496 L 713.403 917.815 C 714.473 916.892 715.029 916.323 716.082 915.276 z" fill="rgb(255,90,31)" transform="translate(0,0)"></path>
<path d="M 1365.91 886.445 L 1366.04 887.864 C 1365.71 890.401 1366.29 897.205 1365.47 897.893 C 1364.5 898.064 1356.11 890.626 1364.44 887.1 L 1365.91 886.445 z" fill="rgb(255,90,31)" transform="translate(0,0)"></path>
<path d="M 973.467 835.174 C 974.92 833.267 976.831 827.396 979.946 832.135 C 981.286 834.68 986.919 831.991 985.966 837.153 C 985.389 840.276 979.665 836.809 980.723 842.98 C 981.654 848.413 976.097 846.652 982.895 851.884 C 982.141 856.094 981.777 856.228 980.016 860.079 C 972.936 862.949 974.794 862.02 969.078 856.826 C 968.517 856.316 968.528 855.881 968.594 855.262 C 973.173 852.975 974.283 859.349 977.374 856.053 C 978.344 855.018 977.726 851.379 976.65 850.568 C 975.364 851.826 973.916 853.838 973.268 850.148 C 971.433 847.975 971.216 847.837 969.989 845.424 C 968.285 840.144 971.675 841.903 973.467 835.174 z" fill="rgb(255,90,31)" transform="translate(0,0)"></path>
<path d="M 1134.37 855.856 C 1134.44 855.406 1134.82 852.367 1135.24 851.798 L 1135.39 851.77 L 1135.39 851.813 C 1141.74 859.929 1138.21 852.456 1146.46 852.213 C 1147.86 854.048 1157.14 853.309 1157.68 859.94 C 1157.87 862.364 1165.82 863.742 1164.32 868.419 C 1160.57 874.539 1160.9 859.672 1155.96 866.625 C 1153.22 868.311 1153.34 866.465 1151.35 865.868 C 1146.08 864.291 1154.76 859.514 1150.86 858.335 C 1149.02 857.78 1145.85 858.087 1143.54 857.683 C 1141.78 858.967 1142.1 861.836 1142.47 863.65 C 1142.68 864.615 1142.45 865.62 1141.85 866.403 C 1141.13 867.127 1140.45 867.869 1139.76 868.625 L 1138.83 868.019 C 1135.44 865.855 1133.04 863.245 1131.83 859.282 C 1132.66 858.131 1133.51 856.988 1134.37 855.856 z" fill="rgb(255,90,31)" transform="translate(0,0)"></path>
<path d="M 1060.25 845.459 C 1055.57 848.187 1057.28 850.466 1055.83 854.979 C 1054.31 859.727 1047.05 862.838 1049.69 855.727 C 1050.33 853.995 1053.56 855.925 1054.19 852.997 C 1053.6 851.468 1052.19 852.505 1051.42 852.781 C 1049.62 853.428 1047.51 841.352 1052.37 845.173 C 1053.07 845.726 1053.42 846.701 1054.36 846.275 C 1054.61 845.722 1053.44 841.741 1056.06 841.385 C 1058.38 842.781 1056.63 844.17 1060.53 841.984 C 1061.78 841.281 1063.35 841.913 1063.88 843.545 L 1065.75 844.681 C 1069.03 846.634 1075.74 844.773 1070.01 854.416 C 1066.5 860.323 1066.05 849.726 1065.01 849.111 C 1062.61 847.601 1061.5 846.486 1060.25 845.459 z" fill="rgb(255,90,31)" transform="translate(0,0)"></path>
<path d="M 1207.39 853.191 C 1207.76 855.783 1211.76 858.1 1209.28 864.999 C 1208.92 866.001 1214.56 868.961 1213.03 871.049 C 1211.28 873.416 1206.28 869.863 1204.1 869.094 C 1203.56 868.622 1203.7 868.818 1203.54 868.498 C 1204.19 867.533 1205.28 867.325 1205.42 866.071 C 1204.86 864.717 1199.54 860.169 1199.45 859.164 C 1200.72 856.299 1204.35 858.359 1204.53 853.261 C 1205.87 854.085 1204.89 855.644 1207.39 853.191 z" fill="rgb(255,90,31)" transform="translate(0,0)"></path>
<path d="M 806.523 882.034 C 802.217 878.926 807.851 872.594 813.059 874.669 C 819.252 877.136 813.52 877.092 816.403 881.423 C 818.497 884.808 814.783 885.252 815.105 888.028 C 815.427 890.805 821.848 888.489 819.557 892.256 C 818.495 894.002 811.892 890.683 809.107 890.205 C 813.799 883.245 813.587 873.543 806.523 882.034 z" fill="rgb(255,90,31)" transform="translate(0,0)"></path>
<path d="M 953.795 853.708 C 939.906 862.344 943.263 843.896 954.191 849.352 C 955.992 851.378 960.41 854.117 960.545 849.189 L 960.755 849.255 C 960.83 849.565 961.039 850.223 961.172 850.497 C 961.657 850.558 961.775 850.452 962.174 850.164 C 962.507 849.193 962.487 849.499 962.448 849.077 L 962.16 848.677 L 962.345 848.747 L 962.18 848.897 L 962.259 848.772 C 961.883 847.023 962.901 850.997 962.637 850.529 C 963.325 851.748 964.96 853.454 965.828 854.665 C 969.013 859.111 963.226 861.693 962.439 856.251 C 962.254 854.973 961.417 853.748 959.936 854.739 C 957.072 856.816 956.263 855.162 953.795 853.708 z" fill="rgb(255,90,31)" transform="translate(0,0)"></path>
<path d="M 1339.79 887.759 C 1336.58 886.392 1332.79 885.894 1338.96 879.72 C 1339.56 879.123 1350.66 884.356 1344.82 885.881 L 1344.85 886.812 C 1345.05 889.411 1344.42 892.869 1344.55 894.913 C 1345.55 896.288 1348.76 895.442 1349.74 896.284 C 1350.42 896.867 1349.82 898.262 1349.27 898.446 C 1346.39 899.42 1341.55 897.05 1341.7 893.557 C 1341.75 892.543 1340.1 888.563 1339.79 887.759 z" fill="rgb(255,90,31)" transform="translate(0,0)"></path>
<path d="M 1241 843.274 C 1253.83 844.499 1250.08 845.9 1248.06 852.553 C 1249.23 854.751 1249.65 854.379 1250.19 856.81 C 1245.43 857.023 1245.94 856.66 1241.39 855.154 C 1239.65 855.228 1236.8 853.778 1239.57 852.115 C 1243.97 849.472 1242.18 847.73 1241 843.274 z" fill="rgb(255,90,31)" transform="translate(0,0)"></path>
<path d="M 1201.67 835.324 C 1205.13 837.941 1204.68 837.56 1205.12 841.377 C 1205.47 844.376 1211.68 839.166 1212.2 841.314 C 1212.63 843.084 1211.96 849.757 1211.91 851.805 C 1207.52 850.103 1202.7 846.183 1200.42 841.883 C 1199.35 839.862 1200.95 837.678 1201.67 835.324 z" fill="rgb(255,90,31)" transform="translate(0,0)"></path>
<path d="M 700.854 910.968 L 703.901 910.601 C 703.919 912.429 703.96 914.257 704.025 916.084 L 703.794 917.093 C 702.498 922.231 705.432 921.91 701.892 926.709 C 702.398 926.349 699.164 928.936 699.141 927.672 C 699.029 926.427 703.776 924.193 700.536 923.598 C 696.84 922.919 691.878 918.68 696.53 915.304 C 699.203 913.364 699.173 913.866 700.854 910.968 z" fill="rgb(255,90,31)" transform="translate(0,0)"></path>
<path d="M 1098.49 868.907 C 1100.96 869.361 1103.39 869.902 1105.4 871.658 C 1106.11 872.271 1106.51 873.169 1106.49 874.108 C 1106.49 874.937 1106.08 876.066 1105.39 876.403 C 1100.82 878.666 1110.19 883.705 1113.18 886.109 C 1112.51 890.654 1106.48 884.599 1104.08 883.833 C 1103.4 883.615 1098.69 869.653 1098.49 868.907 z" fill="rgb(255,90,31)" transform="translate(0,0)"></path>
<path d="M 1107.97 853.538 C 1127.21 853.46 1113.39 861.559 1109.64 859.999 C 1109.61 859.941 1109.58 859.882 1109.55 859.824 C 1109.25 859.485 1108.96 859.146 1108.66 858.807 L 1108.51 858.961 C 1108.45 859.659 1108.83 860.366 1109.07 860.992 C 1108.18 863.22 1099.93 864.261 1106.92 854.99 L 1107.97 853.538 z" fill="rgb(255,90,31)" transform="translate(0,0)"></path>
<path d="M 1147.94 827.538 C 1149.26 827.72 1154.16 827.998 1154.83 829.164 C 1155.93 831.062 1154.75 840.054 1154.21 842.144 C 1149.08 836.493 1146.67 835.343 1147.94 827.538 z" fill="rgb(255,90,31)" transform="translate(0,0)"></path>
<path d="M 728.853 867.537 C 732.924 870.78 732.465 881.573 730.065 884.792 L 729.334 884.141 C 727.688 882.699 725.722 881.565 726.792 879.084 C 728.648 874.779 726.233 873.629 728.115 869.356 L 728.853 867.537 z" fill="rgb(255,90,31)" transform="translate(0,0)"></path>
<path d="M 958.622 838.108 C 960.508 838.332 965.878 839.039 963.543 842.128 L 963.595 842.23 C 962.715 843.122 957.978 843.457 955.529 844.508 C 955.395 844.888 955.262 845.269 955.128 845.649 C 952.924 848.358 950.878 842.675 951.521 841.248 C 952.059 840.051 955.727 839.49 956.888 838.944 L 958.622 838.108 z" fill="rgb(255,90,31)" transform="translate(0,0)"></path>
<path d="M 817.989 873.896 C 820.531 873.929 831.634 875.346 832.143 877.677 C 831.508 878.603 831.137 878.324 830.24 877.783 C 824.397 880.964 820.023 882.26 817.989 873.896 z" fill="rgb(255,90,31)" transform="translate(0,0)"></path>
<path d="M 809.3 861.984 C 803.82 850.35 824.336 852.315 811.918 863.355 L 809.3 861.984 z" fill="rgb(255,90,31)" transform="translate(0,0)"></path>
<path d="M 910.951 855.431 C 916.037 856.356 919.979 859.894 916.603 864.944 C 911.01 859.16 904.125 862.528 910.951 855.431 z" fill="rgb(255,90,31)" transform="translate(0,0)"></path>
<path d="M 878.868 865.905 C 872.398 866.739 864.146 863.832 876.658 861.015 L 878.322 861.481 C 883.226 862.781 885.883 868.509 878.868 865.905 z" fill="rgb(255,90,31)" transform="translate(0,0)"></path>
<path d="M 1034.14 843.557 C 1039.14 845.029 1042.61 847.104 1039.97 852.576 C 1034.65 851.566 1031.73 849.163 1034.14 843.557 z" fill="rgb(255,90,31)" transform="translate(0,0)"></path>
<path d="M 1009.12 847.293 C 1014.93 848.692 1015.8 853.25 1014.66 858.674 C 1009.39 856.68 1008.63 852.959 1009.12 847.293 z" fill="rgb(255,90,31)" transform="translate(0,0)"></path>
<path d="M 1044.06 840 C 1051.66 841.249 1048.08 845.331 1045.54 848.956 C 1039.61 847.285 1042.48 843 1044.06 840 z" fill="rgb(255,90,31)" transform="translate(0,0)"></path>
<path d="M 773.612 893.19 C 780.71 894.144 776.899 896.687 773.759 900.785 C 768.106 901.994 770.382 897.053 772.581 894.505 L 773.612 893.19 z" fill="rgb(255,90,31)" transform="translate(0,0)"></path>
<path d="M 745.124 880.943 C 749.167 884.034 742.443 885.571 739.955 887.976 C 734.121 883.061 738.733 883.864 745.124 880.943 z" fill="rgb(255,90,31)" transform="translate(0,0)"></path>
<path d="M 769.258 907.329 C 768.245 901.013 775.046 899.003 774.372 912.917 L 773.548 912.258 C 772.204 911.207 771.08 910.163 770.169 908.699 L 769.258 907.329 z" fill="rgb(255,90,31)" transform="translate(0,0)"></path>
<path d="M 1097.96 832.852 C 1101.95 828.083 1110.07 841.054 1104.01 839.038 C 1103.52 838.872 1099.75 834.969 1097.84 833.662 L 1097.96 832.852 z" fill="rgb(255,90,31)" transform="translate(0,0)"></path>
<path d="M 833.189 870.163 C 833.091 871.245 833.379 868.453 833.339 868.492 C 840.188 861.944 845.663 873.663 835.737 871.553 C 835.089 871.166 834.003 870.421 833.189 870.163 z" fill="rgb(255,90,31)" transform="translate(0,0)"></path>
<path d="M 1314.93 876.647 C 1321.35 869.039 1326.59 871.658 1319.7 878.754 C 1317.86 878.019 1316.72 877.543 1314.93 876.647 z" fill="rgb(255,90,31)" transform="translate(0,0)"></path>
<path d="M 1348.66 888.816 C 1352.94 889.222 1357.21 888.433 1358.11 892.607 C 1351.96 894.597 1352.19 894.575 1348.66 888.816 z" fill="rgb(255,90,31)" transform="translate(0,0)"></path>
<path d="M 941.638 870.454 C 947.068 872.011 946.888 873.502 946.96 879.06 C 944.126 878.457 943.696 878.127 942.861 875.04 L 941.638 870.454 z" fill="rgb(255,90,31)" transform="translate(0,0)"></path>
<path d="M 866.441 869.788 C 869.246 872.973 868.513 874.68 865.174 876.538 C 860.387 872.435 860.683 872.105 866.441 869.788 z" fill="rgb(255,90,31)" transform="translate(0,0)"></path>
<path d="M 892.327 888.275 C 896.809 889.655 897.465 891.718 896.189 896.386 C 893.091 894.934 891.653 893.629 892.142 889.878 L 892.327 888.275 z" fill="rgb(255,90,31)" transform="translate(0,0)"></path>
<path d="M 1085.44 858.096 C 1088.45 857.176 1088.4 857.062 1089.12 860.115 C 1083.86 863.888 1076.35 863.119 1085.44 858.096 z" fill="rgb(255,90,31)" transform="translate(0,0)"></path>
<path d="M 1071.37 840.166 C 1072.33 836.913 1071.77 835.824 1075.48 836.348 C 1076.29 844.226 1078.84 846.595 1071.37 840.166 z" fill="rgb(255,90,31)" transform="translate(0,0)"></path>
<path d="M 1109.15 845.817 C 1110.63 845.934 1111.77 847.193 1111.73 848.683 C 1111.69 850.173 1110.49 851.373 1109 851.414 C 1107.97 851.443 1107 850.896 1106.49 849.994 C 1105.98 849.092 1106 847.981 1106.56 847.106 C 1107.12 846.231 1108.11 845.735 1109.15 845.817 z" fill="rgb(255,90,31)" transform="translate(0,0)"></path>
<path d="M 1226.62 818.408 C 1225.61 819.234 1224.17 819.263 1223.13 818.477 C 1222.09 817.692 1221.72 816.296 1222.24 815.1 C 1222.76 813.904 1224.03 813.218 1225.31 813.442 C 1226.6 813.665 1227.56 814.738 1227.65 816.039 C 1227.71 816.948 1227.33 817.83 1226.62 818.408 z" fill="rgb(255,90,31)" transform="translate(0,0)"></path>
<path d="M 1138.62 886.239 C 1139.59 886.05 1140.59 886.406 1141.22 887.167 C 1141.85 887.928 1142.02 888.972 1141.65 889.891 C 1141.29 890.81 1140.45 891.457 1139.47 891.579 C 1138.02 891.759 1136.7 890.759 1136.47 889.319 C 1136.24 887.879 1137.19 886.516 1138.62 886.239 z" fill="rgb(255,90,31)" transform="translate(0,0)"></path>
<path d="M 759.843 921.239 C 759.432 917.139 758.471 912.726 763.115 912.148 C 762.673 917.935 763.624 917.484 759.843 921.239 z" fill="rgb(255,90,31)" transform="translate(0,0)"></path>
<path d="M 1216.18 863.27 C 1221.3 864.824 1220.65 865.203 1218.96 870.427 C 1216.17 868.654 1215.8 868.186 1216.08 864.877 L 1216.18 863.27 z" fill="rgb(255,90,31)" transform="translate(0,0)"></path>
<path d="M 747.28 914.372 C 751.942 916.993 750.732 917.69 750.918 923.134 C 748.62 920.778 746.525 919.409 747.063 915.937 L 747.28 914.372 z" fill="rgb(255,90,31)" transform="translate(0,0)"></path>
<path d="M 927.867 852.576 C 928.735 852.128 929.783 852.216 930.564 852.802 C 931.345 853.388 931.722 854.369 931.535 855.328 C 931.347 856.286 930.628 857.053 929.684 857.302 C 928.428 857.632 927.124 856.965 926.658 855.753 C 926.192 854.54 926.713 853.172 927.867 852.576 z" fill="rgb(255,90,31)" transform="translate(0,0)"></path>
<path d="M 900.787 887.698 C 901.388 886.973 902.339 886.637 903.262 886.822 C 904.186 887.008 904.932 887.686 905.206 888.588 C 905.48 889.489 905.236 890.468 904.573 891.136 C 903.608 892.107 902.05 892.147 901.036 891.226 C 900.023 890.306 899.913 888.751 900.787 887.698 z" fill="rgb(255,90,31)" transform="translate(0,0)"></path>
<path d="M 1266.04 859.904 C 1269.26 862.384 1269.96 862.829 1265.84 864.273 C 1265.03 862.934 1263.57 861.807 1265.18 860.586 L 1266.04 859.904 z" fill="rgb(255,90,31)" transform="translate(0,0)"></path>
<path d="M 1293 830.994 C 1295.29 832.429 1297.15 833.105 1293.64 834.079 C 1290.13 833.953 1290.36 832.901 1293 830.994 z" fill="rgb(255,90,31)" transform="translate(0,0)"></path>
<path d="M 935.939 868.175 C 937.804 867.367 938.76 867.944 937.805 869.899 C 936.639 870.245 935.951 870.649 934.855 870.175 C 934.366 869.194 935.011 869.019 935.939 868.175 z" fill="rgb(255,90,31)" transform="translate(0,0)"></path>
<path d="M 1335.77 919.406 C 1336.52 919.044 1336.85 918.737 1337.31 918.878 C 1337.36 919.515 1337.26 920.068 1337.15 920.725 C 1336.42 920.977 1336.24 921.148 1335.81 920.971 C 1335.8 920.449 1335.78 919.928 1335.77 919.406 z" fill="rgb(255,90,31)" transform="translate(0,0)"></path>
<path d="M 1314.07 893.35 C 1314.54 893.138 1315 892.925 1315.47 892.712 C 1315.48 893.37 1315.36 893.956 1315.23 894.627 C 1314.54 894.917 1314.22 895.182 1313.81 895.03 C 1313.81 894.86 1313.81 894.691 1313.81 894.521 C 1313.9 894.131 1313.98 893.74 1314.07 893.35 z" fill="rgb(255,90,31)" transform="translate(0,0)"></path>
<path d="M 1022.93 858.525 C 1022.94 858.523 1025.08 857.812 1024.88 858.78 C 1024.75 859.371 1023.68 859.607 1023.32 859.758 C 1022.76 859.65 1022.2 859.542 1021.64 859.434 L 1021.66 859.275 C 1022.07 858.898 1022.36 858.816 1022.93 858.525 z" fill="rgb(255,90,31)" transform="translate(0,0)"></path>
<path d="M 722.499 909.78 C 723.857 911.726 723.824 911.809 721.854 913.004 C 721.114 913.113 720.088 913.624 719.703 912.837 C 719.917 912.102 720.548 911.591 721.097 911.09 L 722.499 909.78 z" fill="rgb(255,90,31)" transform="translate(0,0)"></path>
<path d="M 1072.65 887.217 C 1072.85 887.226 1073.05 887.235 1073.26 887.244 C 1073.56 887.746 1073.5 888.207 1073.51 888.82 C 1073.07 888.905 1072.87 889.018 1072.53 888.864 C 1072.46 888.305 1072.55 887.804 1072.65 887.217 z" fill="rgb(255,90,31)" transform="translate(0,0)"></path>
<path d="M 1163.94 981.702 C 1197.32 974.469 1233.12 974.424 1267.18 974.733 C 1296.73 975.421 1316.61 976.705 1344.16 988.194 C 1368.86 999.825 1381.48 1016.56 1385.69 1043.89 C 1392.34 1072.82 1383.01 1118.26 1368.71 1144.36 C 1349.4 1180.3 1316.42 1206.94 1277.22 1218.27 C 1194.67 1241.51 1105.52 1201.89 1082.32 1115.66 C 1062.26 1041.11 1090.48 1000.86 1163.94 981.702 z" fill="rgb(255,140,66)" transform="translate(0,0)"></path>
<path d="M 1344.16 988.194 C 1368.86 999.825 1381.48 1016.56 1385.69 1043.89 C 1363.07 1065.9 1342.49 1089.04 1318.78 1111.23 C 1298.1 1130.59 1275.59 1166.91 1242.04 1143 C 1231.88 1135.76 1226.18 1113.81 1233.43 1102.96 C 1241.12 1091.45 1252.08 1081.5 1262.09 1071.53 L 1310.03 1024.04 C 1320.82 1013.41 1335.04 1000.18 1344.16 988.194 z" fill="rgb(255,209,102)" transform="translate(0,0)"></path>
<path d="M 1163.94 981.702 C 1197.32 974.469 1233.12 974.424 1267.18 974.733 C 1251.42 996.407 1226.88 1003.17 1201 999.982 C 1188.75 998.471 1171.43 992.034 1163.94 981.702 z" fill="rgb(255,90,31)" transform="translate(0,0)"></path>
<path d="M 1206.68 1029.25 C 1237.89 1029.64 1237.55 1057.46 1231.36 1081.62 C 1229.9 1087.32 1218.65 1091.58 1213.3 1092.98 C 1187.91 1093.98 1185.46 1078.71 1186 1058.5 C 1186.47 1040.88 1187.43 1033.37 1206.68 1029.25 z" fill="rgb(58,36,32)" transform="translate(0,0)"></path>
<path d="M 750.236 976.707 C 764.229 974.684 813.415 973.025 827.112 974.863 C 846.839 975.417 863.175 976.758 882.444 981.33 C 884.754 981.881 887.048 982.494 889.325 983.17 C 906.331 988.387 921.518 994.711 936.303 1003.93 C 952.231 1013.85 967.621 1034.58 970.323 1053.41 C 975.225 1087.59 965.779 1130.25 945.673 1158.47 C 919.899 1195.07 889.968 1213.64 846.391 1221.6 C 760.466 1238.27 675.101 1184.43 662.978 1095.45 C 652.694 1019.98 677.107 987.863 750.236 976.707 z" fill="rgb(255,140,66)" transform="translate(0,0)"></path>
<path d="M 750.236 976.707 C 764.229 974.684 813.415 973.025 827.112 974.863 C 821.67 975.118 794.476 974.347 791.707 975.281 C 791.224 976.033 791.235 977.25 791.14 978.089 C 788.132 984.146 763.484 1006.52 756.988 1013.32 C 743.614 1027.33 729.902 1041.96 715.664 1055.41 C 703.589 1066.82 682.101 1055.28 691.248 1037.94 C 707.489 1015.31 732.736 998.968 750.236 976.707 z" fill="rgb(255,209,102)" transform="translate(0,0)"></path>
<path d="M 827.112 974.863 C 846.839 975.417 863.175 976.758 882.444 981.33 C 884.754 981.881 887.048 982.494 889.325 983.17 C 864.602 1009.45 813.006 1007.17 791.14 978.089 C 791.235 977.25 791.224 976.033 791.707 975.281 C 794.476 974.347 821.67 975.118 827.112 974.863 z" fill="rgb(255,90,31)" transform="translate(0,0)"></path>
<path d="M 834.419 1029.14 C 863.383 1027.4 863.402 1048.38 862.793 1070.01 C 862.433 1082.77 854.83 1089.31 843.792 1092.99 C 819.982 1094.55 814.151 1082.96 815.028 1062.31 C 815.871 1042.46 813.723 1037.1 834.419 1029.14 z" fill="rgb(58,36,32)" transform="translate(0,0)"></path>
<path d="M 1005.53 410.407 C 1013.47 409.477 1031.49 409.917 1039.6 410.347 C 1098.88 413.487 1154.33 436.433 1200.99 472.717 C 1141.47 450.887 1097.99 442.835 1035.25 440.361 C 970.895 437.948 901.213 451.817 841.551 475.677 C 894.293 436.661 938.88 415.744 1005.53 410.407 z" fill="rgb(255,90,31)" transform="translate(0,0)"></path>
<path d="M 1174.17 1494.27 C 1175.46 1498.5 1175.65 1502.01 1176.13 1506.39 C 1175.65 1513.77 1176.64 1522.16 1176.74 1529.73 C 1176.79 1533.74 1175.95 1541.43 1176.21 1544.6 C 1176.8 1548.33 1177.29 1550.68 1177.22 1554.43 C 1177.28 1557.44 1177.06 1560.39 1178.14 1563.14 C 1177.77 1567.81 1174.71 1588.49 1175.26 1591.01 C 1187.59 1611.7 1191.06 1619.08 1197.67 1642.45 C 1198.42 1645.75 1200.66 1663.08 1200.52 1662.79 C 1201.66 1678.16 1202.01 1695.39 1200.71 1710.85 C 1199.92 1716.56 1199.4 1721.77 1198.88 1727.5 C 1196.69 1743.38 1194.05 1763.35 1190.61 1778.96 L 1188.14 1794.84 C 1185.82 1810.01 1182.41 1836.03 1178.92 1850.42 C 1177.72 1856.09 1177.16 1860.33 1176.46 1866.06 C 1173.78 1884.03 1170.88 1903.37 1167.25 1921.18 C 1166 1927.25 1164.84 1933.34 1163.78 1939.44 C 1161.25 1955.84 1157.06 1981.02 1153.18 1997.13 L 1150.28 2013.96 C 1148.03 2025.2 1145.86 2036.82 1143.43 2048 L 902.796 2048 C 900.607 2036.67 898.848 2024.95 896.992 2013.54 C 896.167 2008.23 895.584 2003.79 894.109 1998.59 C 890.131 1981.39 887.328 1957.44 883.606 1938.84 C 882.735 1933.02 881.948 1927.94 880.73 1922.17 C 877.06 1904.15 874.205 1884.27 871.276 1866.01 C 869.997 1860.75 869.373 1855.55 868.605 1850.2 C 865.109 1837.18 861.111 1808.87 858.713 1794.59 L 856.527 1779.43 C 853.406 1766.44 849.838 1740.16 848.7 1726.93 C 848.171 1719.13 848.802 1709.61 847.262 1702.43 C 846.088 1689.13 847.678 1671.19 849.064 1657.81 C 849.703 1651.83 850.457 1647.28 851.53 1641.39 C 857.341 1616.47 860.465 1611.09 872.445 1588.85 C 872.638 1588.44 873.186 1585.7 873.304 1585.16 L 875.695 1576.35 C 882.987 1561.02 888.402 1551.91 898.363 1538.17 C 888.446 1527.21 880.149 1518.43 872.014 1505.97 L 870.994 1503.32 C 886.054 1508.1 901.074 1514.87 915.93 1518.63 L 923.743 1520.52 L 937.848 1523.27 C 946.593 1526.83 966.73 1528.51 976.473 1529.77 C 1045.21 1538.64 1112.22 1524.47 1174.17 1494.27 z" fill="rgb(43,16,22)" transform="translate(0,0)"></path>
<path d="M 1174.17 1494.27 C 1175.46 1498.5 1175.65 1502.01 1176.13 1506.39 C 1175.65 1513.77 1176.64 1522.16 1176.74 1529.73 C 1176.79 1533.74 1175.95 1541.43 1176.21 1544.6 C 1176.8 1548.33 1177.29 1550.68 1177.22 1554.43 C 1177.28 1557.44 1177.06 1560.39 1178.14 1563.14 C 1177.77 1567.81 1174.71 1588.49 1175.26 1591.01 C 1160.01 1703.54 982.711 1717.53 909.764 1657.64 C 886.061 1638.18 875.879 1618.67 872.445 1588.85 C 872.638 1588.44 873.186 1585.7 873.304 1585.16 L 875.695 1576.35 C 882.987 1561.02 888.402 1551.91 898.363 1538.17 C 888.446 1527.21 880.149 1518.43 872.014 1505.97 L 870.994 1503.32 C 886.054 1508.1 901.074 1514.87 915.93 1518.63 L 923.743 1520.52 L 937.848 1523.27 C 946.593 1526.83 966.73 1528.51 976.473 1529.77 C 1045.21 1538.64 1112.22 1524.47 1174.17 1494.27 z" fill="rgb(255,90,31)" transform="translate(0,0)"></path>
<path d="M 1174.17 1494.27 C 1175.46 1498.5 1175.65 1502.01 1176.13 1506.39 C 1175.65 1513.77 1176.64 1522.16 1176.74 1529.73 C 1176.79 1533.74 1175.95 1541.43 1176.21 1544.6 L 1174.29 1552.21 C 1169.76 1565.67 1161.98 1577.8 1151.63 1587.53 C 1127.91 1610.22 1091.62 1620.94 1059.37 1619.56 C 997.455 1616.91 939.731 1583.35 898.16 1539.09 C 903.972 1532 909.426 1525.11 915.93 1518.63 L 923.743 1520.52 L 937.848 1523.27 C 946.593 1526.83 966.73 1528.51 976.473 1529.77 C 1045.21 1538.64 1112.22 1524.47 1174.17 1494.27 z" fill="rgb(43,16,22)" transform="translate(0,0)"></path>
<path d="M 1197.67 1642.45 L 1342.04 1668.41 C 1347.29 1671.87 1353.04 1680.09 1356.45 1685.4 L 1356.12 1687.64 C 1361.71 1689.11 1377.02 1711.31 1382.29 1717.46 C 1395.7 1719.54 1409.01 1722.23 1422.18 1725.5 C 1429.87 1727.36 1442.87 1731.06 1450.25 1732.27 C 1463.8 1736.66 1485.86 1742.02 1497.92 1747.54 L 1497.86 2048 L 1374.68 2048 L 1311.65 2048 L 1143.43 2048 C 1145.86 2036.82 1148.03 2025.2 1150.28 2013.96 L 1153.18 1997.13 C 1157.06 1981.02 1161.25 1955.84 1163.78 1939.44 C 1164.84 1933.34 1166 1927.25 1167.25 1921.18 C 1170.88 1903.37 1173.78 1884.03 1176.46 1866.06 C 1177.16 1860.33 1177.72 1856.09 1178.92 1850.42 C 1182.41 1836.03 1185.82 1810.01 1188.14 1794.84 L 1190.61 1778.96 C 1194.05 1763.35 1196.69 1743.38 1198.88 1727.5 C 1199.4 1721.77 1199.92 1716.56 1200.71 1710.85 C 1202.01 1695.39 1201.66 1678.16 1200.52 1662.79 C 1200.66 1663.08 1198.42 1645.75 1197.67 1642.45 z" fill="rgb(255,140,66)" transform="translate(0,0)"></path>
<path d="M 1382.86 1719.51 C 1388.59 1724.91 1406.1 1745.49 1411.74 1752.54 C 1423.7 1767.49 1455.77 1799.14 1463.94 1813.24 C 1443.2 1869.15 1422.04 1924.91 1400.46 1980.51 C 1393.07 1999.56 1383.01 2030.71 1374.68 2048 L 1311.65 2048 L 1311.11 2045.42 C 1312 2041.69 1313.04 2032.78 1313.64 2028.64 C 1315.94 2020.43 1317.86 2009.29 1320.18 2000.54 C 1322.26 1992.74 1326.37 1977.9 1327.27 1970.41 C 1328.21 1965.04 1328.93 1960.67 1330.42 1955.39 C 1334.2 1936.65 1338.55 1915.3 1343.57 1896.96 C 1344.91 1891.67 1345.85 1887.02 1346.89 1881.68 C 1349.76 1864.54 1355.18 1843.81 1358.62 1826.01 C 1359.81 1821.12 1360.92 1816.22 1361.95 1811.29 C 1365.68 1800.56 1367.97 1773.59 1372.43 1759.02 C 1373.53 1753.91 1374.74 1749.32 1376.1 1744.3 C 1378.02 1736.62 1380.18 1726.79 1382.86 1719.51 z" fill="rgb(255,90,31)" transform="translate(0,0)"></path>
<path d="M 1163.78 1939.44 C 1215.33 1948.63 1276.63 1959.1 1327.27 1970.41 C 1326.37 1977.9 1322.26 1992.74 1320.18 2000.54 C 1317.86 2009.29 1315.94 2020.43 1313.64 2028.64 C 1313.04 2032.78 1312 2041.69 1311.11 2045.42 L 1311.65 2048 L 1143.43 2048 C 1145.86 2036.82 1148.03 2025.2 1150.28 2013.96 L 1153.18 1997.13 C 1157.06 1981.02 1161.25 1955.84 1163.78 1939.44 z" fill="rgb(255,140,66)" transform="translate(0,0)"></path>
<path d="M 1150.28 2013.96 L 1153.18 1997.13 C 1156.85 1999.74 1297.58 2025.45 1313.64 2028.64 C 1313.04 2032.78 1312 2041.69 1311.11 2045.42 L 1311.65 2048 L 1143.43 2048 C 1145.86 2036.82 1148.03 2025.2 1150.28 2013.96 z" fill="rgb(255,140,66)" transform="translate(0,0)"></path>
<path d="M 1150.28 2013.96 L 1153.18 1997.13 C 1156.85 1999.74 1297.58 2025.45 1313.64 2028.64 C 1313.04 2032.78 1312 2041.69 1311.11 2045.42 C 1295.14 2040.34 1265.72 2035.49 1248.74 2032.26 C 1215.95 2025.98 1183.13 2019.88 1150.28 2013.96 z" fill="rgb(58,36,32)" transform="translate(0,0)"></path>
<path d="M 1176.46 1866.06 C 1207.91 1870.79 1242.45 1878.33 1274.09 1884.07 C 1292.35 1887.39 1326.33 1892.59 1343.57 1896.96 C 1338.55 1915.3 1334.2 1936.65 1330.42 1955.39 C 1328.93 1960.67 1328.21 1965.04 1327.27 1970.41 C 1276.63 1959.1 1215.33 1948.63 1163.78 1939.44 C 1164.84 1933.34 1166 1927.25 1167.25 1921.18 C 1170.88 1903.37 1173.78 1884.03 1176.46 1866.06 z" fill="rgb(255,140,66)" transform="translate(0,0)"></path>
<path d="M 1163.78 1939.44 C 1164.84 1933.34 1166 1927.25 1167.25 1921.18 C 1171.32 1927.03 1311.12 1949.94 1330.42 1955.39 C 1328.93 1960.67 1328.21 1965.04 1327.27 1970.41 C 1276.63 1959.1 1215.33 1948.63 1163.78 1939.44 z" fill="rgb(58,36,32)" transform="translate(0,0)"></path>
<path d="M 1188.14 1794.84 C 1244.83 1805.95 1301.67 1816.34 1358.62 1826.01 C 1355.18 1843.81 1349.76 1864.54 1346.89 1881.68 C 1345.85 1887.02 1344.91 1891.67 1343.57 1896.96 C 1326.33 1892.59 1292.35 1887.39 1274.09 1884.07 C 1242.45 1878.33 1207.91 1870.79 1176.46 1866.06 C 1177.16 1860.33 1177.72 1856.09 1178.92 1850.42 C 1182.41 1836.03 1185.82 1810.01 1188.14 1794.84 z" fill="rgb(255,140,66)" transform="translate(0,0)"></path>
<path d="M 1178.92 1850.42 L 1287.33 1870.59 C 1306.4 1874.1 1328.22 1877.57 1346.89 1881.68 C 1345.85 1887.02 1344.91 1891.67 1343.57 1896.96 C 1326.33 1892.59 1292.35 1887.39 1274.09 1884.07 C 1242.45 1878.33 1207.91 1870.79 1176.46 1866.06 C 1177.16 1860.33 1177.72 1856.09 1178.92 1850.42 z" fill="rgb(58,36,32)" transform="translate(0,0)"></path>
<path d="M 1198.88 1727.5 C 1231.64 1730.59 1276.45 1742.25 1309.94 1747.81 C 1324.31 1750.19 1360.06 1755.52 1372.43 1759.02 C 1367.97 1773.59 1365.68 1800.56 1361.95 1811.29 C 1360.92 1816.22 1359.81 1821.12 1358.62 1826.01 C 1301.67 1816.34 1244.83 1805.95 1188.14 1794.84 L 1190.61 1778.96 C 1194.05 1763.35 1196.69 1743.38 1198.88 1727.5 z" fill="rgb(255,140,66)" transform="translate(0,0)"></path>
<path d="M 1190.61 1778.96 C 1230.31 1787.45 1270.85 1793.97 1310.72 1801.62 C 1327.25 1804.79 1345.68 1807.54 1361.95 1811.29 C 1360.92 1816.22 1359.81 1821.12 1358.62 1826.01 C 1301.67 1816.34 1244.83 1805.95 1188.14 1794.84 L 1190.61 1778.96 z" fill="rgb(58,36,32)" transform="translate(0,0)"></path>
<path d="M 1200.71 1710.85 C 1257.65 1723.68 1319.26 1731.78 1376.1 1744.3 C 1374.74 1749.32 1373.53 1753.91 1372.43 1759.02 C 1360.06 1755.52 1324.31 1750.19 1309.94 1747.81 C 1276.45 1742.25 1231.64 1730.59 1198.88 1727.5 C 1199.4 1721.77 1199.92 1716.56 1200.71 1710.85 z" fill="rgb(58,36,32)" transform="translate(0,0)"></path>
<path d="M 1197.67 1642.45 L 1342.04 1668.41 C 1347.29 1671.87 1353.04 1680.09 1356.45 1685.4 L 1356.12 1687.64 C 1338.98 1684.59 1206.08 1658.18 1201.27 1659.65 L 1200.52 1662.79 C 1200.66 1663.08 1198.42 1645.75 1197.67 1642.45 z" fill="rgb(58,36,32)" transform="translate(0,0)"></path>
<path d="M 1651.69 1821.22 C 1750.8 1881.73 1826.53 1949.57 1887.97 2048 L 1651.95 2048 L 1651.7 1883.52 C 1651.94 1863.12 1651.14 1841.23 1651.69 1821.22 z" fill="rgb(255,140,66)" transform="translate(0,0)"></path>
<path d="M 666.192 1719.67 L 669.058 1722.34 C 668.183 1728.69 669.991 1738.13 671.136 1744.61 C 672.044 1749.61 672.695 1755.21 674.843 1759.7 C 674.984 1765.21 684.655 1804.43 686.442 1812.14 C 687.171 1815.46 688.817 1823.99 689.921 1826.73 C 690.165 1833.22 699.479 1876.43 701.781 1882.24 C 702.692 1887.23 703.734 1892.18 704.905 1897.11 C 706.465 1904.24 715.962 1949.66 718.229 1954.97 C 719.073 1958.85 720.269 1967.6 722.844 1969.79 C 720.381 1973.82 732.79 2019.77 734.497 2028.71 C 735.06 2033.26 735.395 2041.32 737.92 2044.66 L 735.09 2048 L 672.214 2048 C 669.487 2042.02 665.771 2030.54 663.304 2023.75 C 657.401 2007.41 651.407 1991.09 645.321 1974.82 L 583.371 1813.31 C 600.328 1790.75 626.097 1768.63 643.033 1745 C 648.362 1737.57 655.488 1731.77 660.074 1723.42 C 661.077 1722.64 664.901 1720.45 666.192 1719.67 z" fill="rgb(255,90,31)" transform="translate(0,0)"></path>
<path d="M 660.074 1723.42 C 655.488 1731.77 648.362 1737.57 643.033 1745 C 626.097 1768.63 600.328 1790.75 583.371 1813.31 L 645.321 1974.82 C 651.407 1991.09 657.401 2007.41 663.304 2023.75 C 665.771 2030.54 669.487 2042.02 672.214 2048 L 547.029 2048 L 546.612 1796.94 L 546.746 1778.48 C 551.586 1776.07 556.456 1773.73 561.355 1771.45 L 567.099 1767.69 C 576.343 1764.06 586.439 1758.44 595.351 1753.79 L 599.139 1751.68 C 608.656 1747.08 618.197 1742.54 627.76 1738.04 L 630.801 1736.69 C 639.682 1733.26 651.252 1727.53 660.074 1723.42 z" fill="rgb(255,140,66)" transform="translate(0,0)"></path>
<path d="M 554.394 1817.62 L 555.087 1818.21 C 557.294 1820.12 556.125 1820.89 553.701 1820.67 C 552.883 1820.66 551.955 1820.94 551.452 1820.23 C 551.57 1819.46 552.652 1818.89 553.196 1818.51 L 554.394 1817.62 z" fill="rgb(255,209,102)" transform="translate(0,0)"></path>
<path d="M 393.699 1866.46 L 394.855 1865.34 C 395.32 1892.03 395.812 1926.78 394.981 1953.4 L 394.967 1954.51 L 394.947 2048 L 350.492 2048 L 334.059 2048 L 318.496 2048 L 309.286 2048 L 281.314 2048 L 212.084 2048 C 224.161 2026.23 239.085 2008.29 254.926 1989.24 L 256.268 1987.89 C 267.577 1976.74 278.867 1964.84 289.961 1953.42 L 291.541 1951.97 L 306.503 1937.7 C 308.941 1935.01 311.616 1932.44 314.201 1929.88 C 319.281 1925.28 332.792 1912.57 338.084 1909.61 C 340.762 1906.8 345.791 1902.74 348.881 1900.07 C 350.601 1899.18 356.928 1893.99 358.828 1892.49 C 364.876 1888.66 377.217 1878.27 383.972 1873.36 L 393.699 1866.46 z" fill="rgb(255,209,102)" transform="translate(0,0)"></path>
<path d="M 393.699 1866.46 L 394.855 1865.34 C 395.32 1892.03 395.812 1926.78 394.981 1953.4 L 394.967 1954.51 L 394.947 2048 L 350.492 2048 L 334.059 2048 L 318.496 2048 L 309.286 2048 C 308.972 2046.32 308.583 2045.88 307.837 2044.29 C 305.657 2040.93 305.737 2042.37 305.619 2039.12 C 308.098 2038.28 308.163 2038.68 311.077 2039.07 L 312.507 2037.39 C 313.311 2034.71 313.963 2034.8 314.121 2032.03 L 314.841 2033.44 L 318.785 2034.18 C 320.087 2032.05 318.658 2026.04 318.277 2022.83 C 313.989 2023.87 310.56 2026.6 307.569 2026.84 L 306.163 2024.86 C 307.472 2022.46 306.8 2023.34 309.389 2021.8 L 310.171 2017.64 C 314.186 2016.75 318.28 2019.02 322.4 2020.71 C 322.661 2023.07 322.831 2021.98 322.051 2023.98 L 323.286 2028.23 L 324.509 2028.78 C 328.082 2025.01 326.314 2025.89 331.123 2024.76 L 334.032 2029.08 L 335.474 2029.22 L 336.021 2027.84 C 339.229 2027.16 340.398 2028.13 342.128 2026.5 L 336.806 2020.45 L 335.481 2020.74 C 333.193 2016.55 333.632 2018.71 333.956 2014.08 C 336.407 2015.04 336.58 2015.42 337.979 2017.64 L 340.91 2018.24 L 341.999 2017.35 C 344.417 2015.41 345.718 2013.79 348.666 2013.64 C 350.914 2015.78 351.163 2016.67 350.928 2020.06 L 351.247 2023.94 L 354.548 2020.36 C 356.259 2016.98 356.267 2017.11 358.837 2014.63 C 361.944 2013.3 365.29 2013.53 369.656 2011.64 L 370.267 2010.83 C 371.039 2006.17 370.837 2005.87 369.697 2001.15 L 365.361 2001.21 C 363.739 2003.36 363.874 2003.68 361.404 2004.46 C 358.215 2003.67 355.68 2001 353.098 1998.8 C 351.073 1999.39 351.893 1999.3 349.729 1998.84 C 346.431 1998.66 347.78 1998.11 345.371 1999.81 C 345.646 2006.1 348.407 2005.68 347.019 2010.7 C 344.294 2011.89 342.868 2011.35 339.915 2010.9 C 338.167 2009.33 338.661 2010.02 337.659 2007.85 L 339.677 2005.88 L 343.385 2007.45 L 343.651 2006.99 L 341.949 2005.6 C 340.803 2002.5 341.174 2002.27 342.003 1999.09 C 344.142 1996.46 344.239 1995.85 347.415 1994.64 L 349.017 1996.72 L 353.96 1993.3 C 352.192 1990.89 352.35 1990.86 351.064 1988.14 C 346.937 1990.15 345.379 1990.97 341.461 1987.99 L 341.099 1985.22 C 342.771 1983.88 342.633 1983.97 344.36 1982.94 C 341.461 1975.04 343.712 1973.4 336.949 1965.7 C 336.915 1962.92 337.486 1962.61 338.907 1960.1 L 343.013 1960.07 C 343.972 1954.97 343.873 1956 346.629 1951.84 C 347.951 1949.85 343.192 1945.65 343.566 1936.27 L 344.88 1935.33 C 347.058 1937.61 346.388 1941.82 346.71 1946.01 C 349.61 1949.89 354.749 1951.1 355.583 1953.42 C 354.443 1953.61 353.305 1953.82 352.17 1954.04 C 348.029 1954.86 348.928 1954.09 347.284 1956.61 C 348.408 1959.97 347.441 1958.59 350.481 1960.74 L 352.111 1959.64 C 355.283 1954.36 356.197 1954.59 362.665 1955.44 C 363.08 1957.43 363.297 1956.61 362.52 1957.96 C 361.247 1963.17 360.948 1965.01 357.735 1969.36 L 359.67 1970.21 C 365.746 1967.41 366.432 1968.07 369.961 1961.83 C 373.649 1962.49 372.676 1963.08 374.885 1961.78 L 378.031 1961.12 C 380.342 1962.14 380.944 1962.46 383.378 1963.04 L 383.831 1960.16 C 382.217 1957.76 381.398 1957.01 380.877 1954.19 L 382.063 1953.3 C 386.079 1954.34 387.971 1955.24 392.02 1954.34 L 394.127 1953.14 C 393.663 1948.19 393.857 1948.55 389.838 1946.24 L 380.241 1945.79 L 379.271 1946.07 C 377.304 1947.92 376.009 1949.27 373.702 1950.75 L 370.643 1950.81 L 368.861 1948.91 L 368.085 1947.77 C 362.389 1946.02 361.46 1943.84 361.838 1938.16 C 362.083 1934.48 359.919 1938.61 357.81 1934.92 C 360.28 1932.63 360.686 1932.76 363.861 1931.8 C 367.723 1930.13 366.539 1931.37 368.693 1928.62 L 368.685 1926.65 L 371.124 1926.01 C 373.614 1929.86 372.568 1929.51 376.103 1931.06 C 379.597 1929.81 380.931 1929.05 384.217 1927.24 L 386.182 1928.29 C 387.224 1931.78 387.56 1932.03 387.037 1935.71 L 392.15 1938.54 C 394.068 1912.9 384.205 1924.16 378.198 1917.01 C 380.347 1912.74 386.612 1917.72 392.056 1914.39 C 395.449 1907.54 393.639 1876.43 393.699 1866.46 z" fill="rgb(255,140,66)" transform="translate(0,0)"></path>
<path d="M 355.13 1978.59 C 359.768 1978.4 363.12 1981.21 364.67 1973.9 C 365.247 1971.18 367.534 1972.49 369.198 1973.05 C 369.752 1976.12 370.275 1976.83 369.345 1979.65 L 367.575 1981.62 C 365.927 1981.87 362.706 1981.24 361.964 1982.42 C 357.091 1990.21 370.99 1989.04 372.327 1990.48 L 373.684 1993.51 C 373.023 1995.72 372.778 1996.2 371.746 1998.34 C 364.126 1997.26 363.256 1993.91 357.634 1993.63 L 356.696 1993.35 C 354.937 1988.96 352.499 1988.67 354.147 1984.73 C 359.42 1983.9 356.848 1982.98 355.502 1979.56 L 355.13 1978.59 z" fill="rgb(255,209,102)" transform="translate(0,0)"></path>
<path d="M 358.155 1905.32 C 354.553 1903.97 352.237 1901.8 356.962 1900.58 C 361.343 1899.46 360.937 1890.32 365.386 1899.6 C 366.047 1900.98 368.219 1901.18 370.22 1901.02 L 371.844 1901.39 C 376.595 1901.87 384.292 1906.27 377.681 1907.96 C 374.526 1909.46 373.123 1911.09 369.348 1911.09 C 368.46 1908.54 368.01 1907.34 366.775 1904.92 C 363.822 1906.27 368.109 1909.57 362.191 1908.78 C 359.932 1908.48 361.563 1905.18 361.413 1904.57 C 360.547 1903.75 358.924 1904.96 358.155 1905.32 z" fill="rgb(255,140,66)" transform="translate(0,0)"></path>
<path d="M 292.153 2038.87 C 290.921 2037.92 286.113 2035.39 285.96 2034.03 C 285.17 2027.04 290.776 2031.82 292.831 2034.01 C 297.224 2038.7 296.843 2032.61 300.07 2036.98 C 300.631 2037.74 298.778 2038.71 298.002 2038.96 C 295.685 2040.91 290.022 2046.71 292.153 2038.87 z" fill="rgb(255,140,66)" transform="translate(0,0)"></path>
<path d="M 368.837 1917.61 C 371.867 1918.48 376.159 1922.42 372.311 1924.8 C 366.9 1922.56 366.95 1921.27 360.91 1923.93 C 359.533 1924.54 357.708 1926.66 356.643 1924.26 C 358.782 1919.75 364.429 1920.06 368.837 1917.61 z" fill="rgb(255,140,66)" transform="translate(0,0)"></path>
<path d="M 315.443 1954.57 L 316.233 1954.93 C 317.176 1955.35 317.475 1955.35 318.118 1956.01 C 319.873 1958.47 316.377 1962.61 316.401 1965.51 C 316.001 1966.87 318.283 1968.26 318.315 1968.99 C 318.439 1971.79 315.354 1971.64 315.195 1968.34 C 313.935 1966.4 308.456 1960.87 308.483 1960.63 C 311.716 1959.27 316.364 1967.22 315.443 1954.57 z" fill="rgb(255,140,66)" transform="translate(0,0)"></path>
<path d="M 313.522 1940.5 C 319.469 1943.49 313.395 1952.82 308.807 1953.75 C 307.687 1952.17 305.569 1949.48 305.064 1947.77 C 305.994 1945.57 313.212 1951.07 313.009 1946.07 C 312.955 1944.75 313.362 1941.91 313.522 1940.5 z" fill="rgb(255,140,66)" transform="translate(0,0)"></path>
<path d="M 325.162 2007.88 C 327.493 2007.71 328.978 2010.78 328.771 2012.52 C 328.206 2017.27 325.246 2012.81 323.919 2012.2 C 322.656 2012.23 313.344 2014.01 316.688 2008.83 C 318.117 2006.62 321.001 2009.06 322.414 2010.22 C 323.422 2009.56 324.272 2008.7 325.162 2007.88 z" fill="rgb(255,140,66)" transform="translate(0,0)"></path>
<path d="M 268.842 2034.69 C 270.028 2034.14 271.422 2034.28 272.472 2035.06 C 273.523 2035.84 274.06 2037.13 273.871 2038.43 C 273.681 2039.72 272.796 2040.81 271.567 2041.26 C 269.778 2041.91 267.794 2041.03 267.065 2039.28 C 266.335 2037.52 267.119 2035.5 268.842 2034.69 z" fill="rgb(255,140,66)" transform="translate(0,0)"></path>
<path d="M 324.802 1973.28 C 329.076 1972.97 334.04 1971.18 333.637 1976.38 C 329.324 1976.71 326.89 1977.63 324.802 1973.28 z" fill="rgb(255,140,66)" transform="translate(0,0)"></path>
<path d="M 254.972 2027.57 C 259.399 2032.07 252.007 2030.12 250.095 2030.96 L 248.258 2031.76 C 242.806 2029.96 252.682 2028.57 254.972 2027.57 z" fill="rgb(255,140,66)" transform="translate(0,0)"></path>
<path d="M 271.293 1997.75 C 273.641 2000.42 272.187 2003.28 269.839 2005.39 C 265.699 2001.55 267.63 2001.89 271.293 1997.75 z" fill="rgb(255,140,66)" transform="translate(0,0)"></path>
<path d="M 279.842 1987.15 C 284.287 1987.59 286.856 1986.73 288.475 1990.83 C 283.674 1990.62 280.652 1991.66 279.842 1987.15 z" fill="rgb(255,140,66)" transform="translate(0,0)"></path>
<path d="M 318.351 1981.14 C 322.21 1981.06 324.586 1979.94 324.981 1984.3 L 325.186 1985.94 C 321.725 1985.13 320.341 1984.08 318.351 1981.14 z" fill="rgb(255,140,66)" transform="translate(0,0)"></path>
<path d="M 331.498 1945.57 C 335.089 1948.98 332.781 1949.64 329.3 1952.14 C 326.772 1949.37 329.242 1948.08 331.498 1945.57 z" fill="rgb(255,140,66)" transform="translate(0,0)"></path>
<path d="M 248.362 2040.76 C 253.35 2041.63 252.828 2041.9 252.362 2046.94 C 249.124 2045.54 248.716 2044.22 248.362 2040.76 z" fill="rgb(255,140,66)" transform="translate(0,0)"></path>
<path d="M 311.069 1982.73 C 311.586 1981.53 312.977 1980.98 314.174 1981.5 C 315.371 1982.02 315.92 1983.41 315.4 1984.61 C 314.881 1985.8 313.493 1986.35 312.298 1985.83 C 311.104 1985.31 310.554 1983.92 311.069 1982.73 z" fill="rgb(255,140,66)" transform="translate(0,0)"></path>
<path d="M 335.204 1933.66 C 337.524 1935.84 337.349 1936.75 335.588 1939.33 L 334.786 1940.56 C 331.429 1937.98 332.902 1937.23 335.204 1933.66 z" fill="rgb(255,140,66)" transform="translate(0,0)"></path>
<path d="M 288.267 2005.34 C 288.641 2005.05 289.084 2004.52 289.584 2004.51 C 289.629 2005.33 289.526 2005.64 289.358 2006.53 C 288.88 2006.77 288.375 2007.17 287.856 2007.09 C 287.876 2006.45 288.053 2005.99 288.267 2005.34 z" fill="rgb(255,140,66)" transform="translate(0,0)"></path>
<path d="M 352.221 1919.43 C 352.94 1919.3 353.21 1919.13 353.565 1919.38 C 353.44 1919.96 353.213 1920.45 352.966 1921.02 C 352.144 1921 351.701 1921.13 351.328 1920.8 C 351.432 1920.3 351.941 1919.8 352.221 1919.43 z" fill="rgb(255,140,66)" transform="translate(0,0)"></path>
<path d="M 283.258 2014.76 C 284.714 2014.14 284.868 2013.69 285.637 2015.27 C 284.075 2016.36 284.051 2016.56 283.258 2014.76 z" fill="rgb(255,140,66)" transform="translate(0,0)"></path>
<path d="M 322.452 1997.18 C 322.754 1997.02 323.056 1996.86 323.358 1996.69 C 323.501 1997 323.41 1997.2 323.336 1997.88 C 322.993 1998.03 322.65 1998.18 322.307 1998.33 L 322.237 1998.26 C 322.235 1997.82 322.205 1998.13 322.452 1997.18 z" fill="rgb(255,140,66)" transform="translate(0,0)"></path>
<path d="M 334.984 1982.2 C 335.597 1981.92 335.741 1981.78 336.059 1981.84 C 336.137 1982.25 335.865 1982.72 335.723 1983.11 C 334.878 1983.31 334.222 1983.55 333.761 1983.44 C 334.169 1983.03 334.577 1982.61 334.984 1982.2 z" fill="rgb(255,140,66)" transform="translate(0,0)"></path>
<path d="M 1324.54 541.4 L 1326.02 540.743 C 1322.36 536.864 1319.23 536.596 1318.05 533.154 L 1319.31 532.556 C 1321.79 535.111 1321.5 534.387 1324.63 535.477 C 1382.54 555.68 1419.9 601.052 1456.11 647.882 C 1475.83 673.384 1484.18 696.262 1496.83 724.863 C 1511.65 758.397 1518.96 782.615 1525.43 818.52 C 1535.97 877.071 1535.64 933.577 1519.34 991.241 C 1515.14 1006.5 1507.94 1021.46 1503.78 1037.15 C 1502.47 1042.09 1498.55 1060.27 1496.55 1063.24 C 1493.85 1063.64 1493.51 1063.7 1490.8 1063.56 C 1481.1 1060.84 1474.05 1059.54 1464.13 1058.28 C 1487.8 998.868 1498.19 934.99 1494.55 871.134 C 1488.72 769.906 1449.41 673.487 1382.81 597.03 C 1365.44 577.406 1344.19 558.577 1324.54 541.4 z" fill="rgb(255,90,31)" transform="translate(0,0)"></path>
<path d="M 1517.3 954.652 C 1520.46 959.094 1522.53 963.921 1519.31 968.871 C 1517.36 971.852 1518.23 971.079 1519.49 973.251 C 1520.1 974.296 1515.99 976.655 1516.25 978.134 C 1515.98 980.484 1517.26 984.898 1515.73 986.728 C 1515.14 987.451 1513.94 988.367 1514.11 989.41 L 1514.27 989.485 C 1514.88 989.048 1515.72 988.071 1516.55 988.236 C 1517.52 991.216 1510.96 995.847 1511.13 999.417 C 1511.5 999.368 1511.88 999.319 1512.26 999.269 C 1512.6 999.44 1512.45 999.313 1512.68 999.675 C 1512.73 1000.73 1511.34 1006.26 1509.91 1006.47 C 1509.04 1005.47 1510.23 1003.08 1509.34 1002.48 C 1509.05 1002.65 1508.76 1002.82 1508.48 1002.99 C 1508.31 1004.4 1508.31 1012.07 1507.09 1011.95 C 1503.8 1009.53 1508.63 996.076 1509.59 992.691 C 1511.62 985.531 1515.42 967.61 1516.36 960.903 L 1516.53 959.633 C 1518.47 961.24 1517.6 964.74 1518.23 966.405 L 1518.37 966.456 C 1519.37 963.349 1517.54 958.118 1517.3 954.652 z" fill="rgb(170,29,36)" transform="translate(0,0)"></path>
<path d="M 1582.97 1784.21 C 1601.95 1790.29 1619.32 1804.79 1635.09 1811.79 L 1650.97 1819.99 C 1650.97 1830.32 1650.32 1875.59 1651.7 1883.52 L 1651.95 2048 L 1634.99 2048 L 1583.01 2048 L 1582.97 1784.21 z" fill="rgb(255,140,66)" transform="translate(0,0)"></path>
<path d="M 1635.09 1811.79 L 1650.97 1819.99 C 1650.97 1830.32 1650.32 1875.59 1651.7 1883.52 L 1651.95 2048 L 1634.99 2048 L 1635.09 1811.79 z" fill="rgb(58,36,32)" transform="translate(0,0)"></path>
<path d="M 722.844 1969.79 C 736.825 1965.72 763.244 1961.54 778.548 1958.67 L 883.606 1938.84 C 887.328 1957.44 890.131 1981.39 894.109 1998.59 C 895.584 2003.79 896.167 2008.23 896.992 2013.54 C 898.848 2024.95 900.607 2036.67 902.796 2048 L 735.09 2048 L 737.92 2044.66 C 735.395 2041.32 735.06 2033.26 734.497 2028.71 C 732.79 2019.77 720.381 1973.82 722.844 1969.79 z" fill="rgb(255,140,66)" transform="translate(0,0)"></path>
<path d="M 737.92 2044.66 C 749.907 2040.82 781.448 2035.58 794.662 2033.06 L 896.992 2013.54 C 898.848 2024.95 900.607 2036.67 902.796 2048 L 735.09 2048 L 737.92 2044.66 z" fill="rgb(255,140,66)" transform="translate(0,0)"></path>
<path d="M 894.109 1998.59 C 895.584 2003.79 896.167 2008.23 896.992 2013.54 L 794.662 2033.06 C 781.448 2035.58 749.907 2040.82 737.92 2044.66 C 735.395 2041.32 735.06 2033.26 734.497 2028.71 C 743.558 2025.99 771.021 2021.59 782.229 2019.44 L 894.109 1998.59 z" fill="rgb(58,36,32)" transform="translate(0,0)"></path>
<path d="M 1514.18 1753.27 C 1521.94 1756.33 1561.03 1771.18 1566.35 1775.43 L 1566.76 2048 L 1514.12 2048 C 1512.7 1950.69 1516.45 1849.92 1514.18 1753.27 z" fill="rgb(255,140,66)" transform="translate(0,0)"></path>
<path d="M 1096.79 256.599 C 1114.74 256.681 1133.53 277.273 1147.19 282.062 C 1169.34 289.829 1184.96 289.772 1202.92 308.985 C 1227 334.736 1245.39 372.279 1244.29 408.372 C 1243.76 422.853 1241.8 437.125 1240.24 451.53 C 1239.22 460.881 1248.27 480.134 1253.86 487.174 C 1261.92 497.333 1276.97 500.245 1288.45 505.136 C 1313.31 515.735 1338.87 525.788 1362.32 539.381 C 1410.67 568.822 1452.16 620.645 1482.26 667.971 C 1490.11 680.307 1500.02 706.065 1506.28 720.24 C 1511.56 732.18 1519.37 750.405 1523.11 762.89 C 1537.29 810.203 1545.86 865.307 1543.11 914.649 C 1541.97 935.155 1536.54 960.552 1532.2 981.036 C 1524.72 1016.34 1501.52 1043.78 1523.31 1080.25 C 1526.8 1086.1 1535.66 1095.38 1540.07 1100.32 C 1549.07 1110.39 1557.6 1131.94 1553.8 1146.01 C 1548.27 1166.5 1525.53 1205.06 1510.03 1220.49 C 1509.6 1220.92 1507.84 1221.74 1507.29 1222.01 C 1516.25 1208.33 1529.44 1196.04 1535.76 1180.74 C 1555.23 1133.67 1537.06 1084.46 1490.8 1063.56 C 1493.51 1063.7 1493.85 1063.64 1496.55 1063.24 C 1498.55 1060.27 1502.47 1042.09 1503.78 1037.15 C 1507.94 1021.46 1515.14 1006.5 1519.34 991.241 C 1535.64 933.577 1535.97 877.071 1525.43 818.52 C 1518.96 782.615 1511.65 758.397 1496.83 724.863 C 1484.18 696.262 1475.83 673.384 1456.11 647.882 C 1419.9 601.052 1382.54 555.68 1324.63 535.477 C 1321.5 534.387 1321.79 535.111 1319.31 532.556 L 1318.05 533.154 C 1319.23 536.596 1322.36 536.864 1326.02 540.743 L 1324.54 541.4 C 1288.17 515.04 1264.91 499.549 1222.58 481.439 C 1245.09 400.88 1196.69 309.857 1125.55 270.915 C 1115.96 265.663 1106.7 261.21 1096.79 256.599 z" fill="rgb(170,29,36)" transform="translate(0,0)"></path>
<path d="M 446.898 1793.92 C 452.355 1791.03 457.227 1788.72 462.752 1786.07 C 462.865 1792.92 462.886 1799.77 462.815 1806.62 C 462.962 1812.64 463.03 1818.66 463.018 1824.68 L 462.768 1847.67 L 463.366 2048 L 409.875 2048 C 408.701 2006.87 409.336 1961.33 409.147 1919.89 L 409.14 1816.2 L 410.005 1813.38 C 416.441 1809.3 439.529 1797.51 446.898 1793.92 z" fill="rgb(255,140,66)" transform="translate(0,0)"></path>
<path d="M 446.898 1793.92 C 452.355 1791.03 457.227 1788.72 462.752 1786.07 C 462.865 1792.92 462.886 1799.77 462.815 1806.62 C 462.962 1812.64 463.03 1818.66 463.018 1824.68 C 449.187 1831.6 423.464 1847.07 410.134 1855.78 C 408.946 1846.06 409.447 1823.7 410.005 1813.38 C 416.441 1809.3 439.529 1797.51 446.898 1793.92 z" fill="rgb(245,237,230)" transform="translate(0,0)"></path>
<path d="M 439.043 1814.55 C 439.609 1814.39 440.677 1813.89 441.013 1814.45 C 440.519 1815.36 439.616 1815.45 438.652 1815.76 C 438.139 1815.81 437.705 1815.97 437.315 1815.67 C 437.447 1814.83 438.23 1814.81 439.043 1814.55 z" fill="rgb(255,209,102)" transform="translate(0,0)"></path>
<path d="M 410.071 1863.07 C 411.986 1861.56 413.845 1859.4 416.438 1860.47 C 418.298 1861.24 417.873 1857.97 417.935 1857.52 C 418.674 1852.19 423.324 1852.33 426.498 1852.69 C 434.637 1853.61 435.15 1857.49 429.475 1862.56 C 429.335 1862.68 426.326 1865.37 427.766 1866.35 C 431.651 1866.72 432.439 1864.16 432.453 1870.06 L 433.491 1873.62 L 433.768 1875.41 L 433.67 1875.12 C 434.758 1880.53 435.286 1874.51 438.469 1876.62 C 438.476 1877.59 438.763 1880.16 438.377 1880.93 C 437.603 1880.98 436.832 1880.96 436.095 1881.22 L 435.954 1881.46 C 436.723 1882.08 437.918 1881.64 438.842 1882.27 C 439.374 1883.5 437.13 1887.47 436.227 1888.25 C 433.882 1887.79 435.061 1885.92 429.119 1886.1 L 427.792 1885.71 C 424.733 1882.77 424.833 1884.13 421.664 1881.96 C 420.884 1880.88 419.042 1878.43 418.588 1877.23 C 417.893 1875.39 415.116 1874.33 415.117 1876.86 C 415.117 1878.77 416.216 1882.35 416.657 1884.47 C 415.291 1886.53 415.54 1887.3 414.651 1889.54 C 414.676 1893.11 414.73 1894.82 415.171 1898.34 C 409.987 1906.96 410.009 1864.66 410.071 1863.07 z" fill="rgb(255,209,102)" transform="translate(0,0)"></path>
<path d="M 430.495 1889.19 L 432.316 1889.95 C 433.597 1891.46 433.85 1891.48 435.62 1892.76 C 436.045 1899.46 434.382 1895.02 437.762 1901.7 L 434.859 1902.24 C 430.297 1899.15 434.407 1898.51 430.686 1896.54 C 428.595 1892.87 427.988 1892.61 430.495 1889.19 z" fill="rgb(255,209,102)" transform="translate(0,0)"></path>
<path d="M 427.477 1898.64 C 431.483 1900.81 428.839 1905.35 425.371 1900.51 L 427.477 1898.64 z" fill="rgb(255,209,102)" transform="translate(0,0)"></path>
<path d="M 430.666 1952.24 C 430.834 1952.24 431.002 1952.23 431.169 1952.22 C 431.424 1952.51 431.282 1952.28 431.537 1953.07 C 430.928 1953.1 431.119 1953.15 430.857 1953.03 C 430.692 1952.73 430.777 1952.95 430.666 1952.24 z" fill="rgb(255,209,102)" transform="translate(0,0)"></path>
<path d="M 519.731 1793.7 C 523.667 1791.77 527.681 1790.09 531.567 1788.15 C 531.519 1795.33 531.388 1802.51 531.175 1809.68 C 532.574 1832.71 531.642 1864.83 531.632 1888.42 L 531.078 2048 L 478.408 2048 C 477.57 1998.44 477.805 1946.56 477.802 1896.96 L 477.127 1893.89 C 478.044 1888.61 477.16 1876.53 477.87 1869.46 C 476.767 1855.14 477.711 1830.44 477.901 1815.34 C 481.755 1813.05 485.728 1811.01 489.809 1809.15 C 497.248 1805.02 505.073 1800.86 512.799 1797.2 C 514.864 1795.62 517.366 1794.73 519.731 1793.7 z" fill="rgb(255,140,66)" transform="translate(0,0)"></path>
<path d="M 505.482 1814.36 C 512.213 1815.84 509.631 1816.73 506.451 1820.95 C 500.91 1819.49 500.615 1817.49 505.482 1814.36 z" fill="rgb(255,209,102)" transform="translate(0,0)"></path>
<path d="M 871.276 1866.01 C 874.205 1884.27 877.06 1904.15 880.73 1922.17 C 881.948 1927.94 882.735 1933.02 883.606 1938.84 L 778.548 1958.67 C 763.244 1961.54 736.825 1965.72 722.844 1969.79 C 720.269 1967.6 719.073 1958.85 718.229 1954.97 C 715.962 1949.66 706.465 1904.24 704.905 1897.11 C 719.716 1893.81 738.213 1890.93 753.377 1888.11 C 792.739 1881.08 832.04 1873.71 871.276 1866.01 z" fill="rgb(255,140,66)" transform="translate(0,0)"></path>
<path d="M 880.73 1922.17 C 881.948 1927.94 882.735 1933.02 883.606 1938.84 L 778.548 1958.67 C 763.244 1961.54 736.825 1965.72 722.844 1969.79 C 720.269 1967.6 719.073 1958.85 718.229 1954.97 C 739.312 1949.96 875.313 1927.12 880.73 1922.17 z" fill="rgb(58,36,32)" transform="translate(0,0)"></path>
<path d="M 689.921 1826.73 C 698.735 1824.85 708.189 1823.15 717.11 1821.7 C 764.46 1814.06 811.502 1802.59 858.713 1794.59 C 861.111 1808.87 865.109 1837.18 868.605 1850.2 C 869.373 1855.55 869.997 1860.75 871.276 1866.01 C 832.04 1873.71 792.739 1881.08 753.377 1888.11 C 738.213 1890.93 719.716 1893.81 704.905 1897.11 C 703.734 1892.18 702.692 1887.23 701.781 1882.24 C 699.479 1876.43 690.165 1833.22 689.921 1826.73 z" fill="rgb(255,140,66)" transform="translate(0,0)"></path>
<path d="M 868.605 1850.2 C 869.373 1855.55 869.997 1860.75 871.276 1866.01 C 832.04 1873.71 792.739 1881.08 753.377 1888.11 C 738.213 1890.93 719.716 1893.81 704.905 1897.11 C 703.734 1892.18 702.692 1887.23 701.781 1882.24 C 747.113 1872.5 793.532 1865.3 839.046 1856.39 C 848.586 1854.52 859.357 1853.02 868.605 1850.2 z" fill="rgb(58,36,32)" transform="translate(0,0)"></path>
<path d="M 674.843 1759.7 C 713.46 1752.57 752.03 1745.19 790.55 1737.55 C 806.098 1734.54 833.439 1728.58 848.7 1726.93 C 849.838 1740.16 853.406 1766.44 856.527 1779.43 L 858.713 1794.59 C 811.502 1802.59 764.46 1814.06 717.11 1821.7 C 708.189 1823.15 698.735 1824.85 689.921 1826.73 C 688.817 1823.99 687.171 1815.46 686.442 1812.14 C 684.655 1804.43 674.984 1765.21 674.843 1759.7 z" fill="rgb(255,140,66)" transform="translate(0,0)"></path>
<path d="M 856.527 1779.43 L 858.713 1794.59 C 811.502 1802.59 764.46 1814.06 717.11 1821.7 C 708.189 1823.15 698.735 1824.85 689.921 1826.73 C 688.817 1823.99 687.171 1815.46 686.442 1812.14 C 692.334 1810.56 699.718 1809.07 705.719 1807.99 C 756.035 1798.92 806.223 1788.43 856.527 1779.43 z" fill="rgb(58,36,32)" transform="translate(0,0)"></path>
<path d="M 394.981 1822.15 C 395 1828.58 394.689 1840.24 395.28 1846.26 L 394.971 1847.77 C 394.974 1852.93 395.182 1860.38 394.855 1865.34 L 393.699 1866.46 L 383.972 1873.36 C 377.217 1878.27 364.876 1888.66 358.828 1892.49 C 356.928 1893.99 350.601 1899.18 348.881 1900.07 C 345.791 1902.74 340.762 1906.8 338.084 1909.61 C 332.792 1912.57 319.281 1925.28 314.201 1929.88 C 311.616 1932.44 308.941 1935.01 306.503 1937.7 L 291.541 1951.97 L 289.961 1953.42 C 278.867 1964.84 267.577 1976.74 256.268 1987.89 L 254.926 1989.24 C 239.085 2008.29 224.161 2026.23 212.084 2048 L 166.214 2048 C 171.633 2036.18 183.858 2016.78 191.502 2005.9 C 243.222 1932.25 317.68 1867.48 394.981 1822.15 z" fill="rgb(245,237,230)" transform="translate(0,0)"></path>
<path d="M 251.763 1970.88 C 253.89 1973.69 250.619 1975.72 248.52 1978.31 C 245.187 1975.17 248.996 1973.38 251.763 1970.88 z" fill="rgb(255,209,102)" transform="translate(0,0)"></path>
<path d="M 189.795 2020.28 C 192.562 2018.93 193.226 2021.33 193.266 2023.8 C 192.835 2023.64 192.403 2023.49 191.971 2023.33 C 191.029 2022.89 188.916 2022.88 188.729 2021.46 C 188.667 2020.99 189.752 2020.33 189.795 2020.28 z" fill="rgb(255,209,102)" transform="translate(0,0)"></path>
<path d="M 310.209 1912.46 C 310.629 1912.38 311.144 1912.18 311.539 1912.34 C 311.538 1912.77 311.148 1913.15 310.913 1913.51 C 310.114 1913.71 309.544 1913.95 309.113 1913.82 C 309.188 1913.39 309.67 1913.03 310.209 1912.46 z" fill="rgb(255,209,102)" transform="translate(0,0)"></path>
<path d="M 201.163 2027.82 C 201.735 2031.17 200.75 2030.67 198.012 2029.99 C 199.411 2028.7 199.454 2028.39 201.163 2027.82 z" fill="rgb(255,209,102)" transform="translate(0,0)"></path>
<path d="M 345.848 1893.68 L 347.273 1894.13 C 348.101 1899.08 343.286 1896.4 345.134 1894.46 L 345.848 1893.68 z" fill="rgb(255,209,102)" transform="translate(0,0)"></path>
<path d="M 746.268 1677.58 C 752.948 1675.65 772.676 1672.46 780.225 1671.03 L 849.064 1657.81 C 847.678 1671.19 846.088 1689.13 847.262 1702.43 C 848.802 1709.61 848.171 1719.13 848.7 1726.93 C 833.439 1728.58 806.098 1734.54 790.55 1737.55 C 752.03 1745.19 713.46 1752.57 674.843 1759.7 C 672.695 1755.21 672.044 1749.61 671.136 1744.61 C 669.991 1738.13 668.183 1728.69 669.058 1722.34 C 682.359 1723.26 734.696 1688.81 746.268 1677.58 z" fill="rgb(255,140,66)" transform="translate(0,0)"></path>
<path d="M 847.262 1702.43 C 848.802 1709.61 848.171 1719.13 848.7 1726.93 C 833.439 1728.58 806.098 1734.54 790.55 1737.55 C 752.03 1745.19 713.46 1752.57 674.843 1759.7 C 672.695 1755.21 672.044 1749.61 671.136 1744.61 C 728.67 1732.62 788.762 1723.35 846.199 1711.57 C 847.685 1709.12 847.248 1705.5 847.262 1702.43 z" fill="rgb(58,36,32)" transform="translate(0,0)"></path>
<path d="M 872.014 1505.97 C 880.149 1518.43 888.446 1527.21 898.363 1538.17 C 888.402 1551.91 882.987 1561.02 875.695 1576.35 L 873.304 1585.16 C 873.186 1585.7 872.638 1588.44 872.445 1588.85 C 860.465 1611.09 857.341 1616.47 851.53 1641.39 C 825.064 1646.44 794.114 1653.17 767.79 1657.24 C 749.418 1660.68 720.326 1667.36 703.008 1669.76 C 735.141 1630.62 783.147 1596.75 829.778 1577.31 C 838.815 1573.54 866.94 1565.1 872.325 1561.62 C 871.273 1542.72 871.714 1524.85 872.014 1505.97 z" fill="rgb(245,237,230)" transform="translate(0,0)"></path>
<path d="M 767.79 1657.24 C 799.025 1633.92 826.306 1605.64 857.677 1582.32 C 862.79 1578.51 867.461 1572.51 872.866 1568.3 C 872.84 1572.84 872.527 1580.99 873.304 1585.16 C 873.186 1585.7 872.638 1588.44 872.445 1588.85 C 860.465 1611.09 857.341 1616.47 851.53 1641.39 C 825.064 1646.44 794.114 1653.17 767.79 1657.24 z" fill="rgb(255,140,66)" transform="translate(0,0)"></path>
<path d="M 1178.14 1563.14 C 1209.76 1572.58 1237.36 1585.76 1265.73 1602.61 L 1266.77 1603.5 C 1273.7 1609.38 1285.63 1616.01 1293.03 1622.06 C 1310.15 1636.06 1327.9 1651.46 1342.04 1668.41 L 1197.67 1642.45 C 1191.06 1619.08 1187.59 1611.7 1175.26 1591.01 C 1174.71 1588.49 1177.77 1567.81 1178.14 1563.14 z" fill="rgb(255,140,66)" transform="translate(0,0)"></path>
<path d="M 691.262 1687.77 C 703.459 1686.74 732.01 1680.11 746.268 1677.58 C 734.696 1688.81 682.359 1723.26 669.058 1722.34 L 666.192 1719.67 C 664.901 1720.45 661.077 1722.64 660.074 1723.42 C 651.252 1727.53 639.682 1733.26 630.801 1736.69 L 627.76 1738.04 C 618.197 1742.54 608.656 1747.08 599.139 1751.68 L 595.351 1753.79 C 586.439 1758.44 576.343 1764.06 567.099 1767.69 L 561.355 1771.45 C 556.456 1773.73 551.586 1776.07 546.746 1778.48 L 546.47 1769.35 C 546.428 1763.26 546.344 1757.16 546.218 1751.07 L 546.803 1750.87 C 549.662 1749.28 550.552 1749.18 553.654 1748.19 C 558.982 1746.08 564.772 1744.06 570.185 1742.07 C 583.861 1738.4 596.587 1734.09 610.716 1730.52 C 625.234 1725.69 650.663 1720.35 665.493 1718.34 C 673.432 1712.14 682.341 1689.58 691.262 1687.77 z" fill="rgb(245,237,230)" transform="translate(0,0)"></path>
<path d="M 530.135 1757.08 C 531.611 1761.1 531.138 1775.27 530.763 1779.71 C 530.971 1782.04 531.598 1786.07 531.567 1788.15 C 527.681 1790.09 523.667 1791.77 519.731 1793.7 C 517.366 1794.73 514.864 1795.62 512.799 1797.2 C 505.073 1800.86 497.248 1805.02 489.809 1809.15 C 485.728 1811.01 481.755 1813.05 477.901 1815.34 L 477.962 1805.03 C 477.967 1795.83 477.966 1787.17 478.278 1777.95 L 479.428 1777.44 C 491.897 1771.74 518.571 1762.08 529.031 1756.46 L 530.135 1757.08 z" fill="rgb(245,237,230)" transform="translate(0,0)"></path>
<path d="M 497.618 1800.45 C 498.178 1800.22 498.692 1799.88 499.269 1800.05 C 499.622 1800.79 498.306 1801.56 497.975 1801.95 C 497.103 1802.22 497.162 1802.32 496.476 1802.07 C 496.215 1801.43 497.169 1800.98 497.618 1800.45 z" fill="rgb(255,209,102)" transform="translate(0,0)"></path>
<path d="M 1582.34 1782.73 C 1588.31 1782.37 1609.04 1794.68 1615.16 1798.14 C 1680.62 1834.25 1741.71 1877.78 1797.21 1927.86 C 1806.63 1936.22 1815.27 1950.34 1823.82 1957.58 C 1846.39 1976.71 1867.41 1998.17 1878.95 2026 C 1881.77 2032.8 1885.92 2047.01 1895.13 2045.11 C 1901.37 2044.32 1916.07 2043.55 1921.44 2045.86 L 1923.33 2048 L 1887.97 2048 C 1826.53 1949.57 1750.8 1881.73 1651.69 1821.22 C 1651.14 1841.23 1651.94 1863.12 1651.7 1883.52 C 1650.32 1875.59 1650.97 1830.32 1650.97 1819.99 L 1635.09 1811.79 C 1619.32 1804.79 1601.95 1790.29 1582.97 1784.21 L 1582.34 1782.73 z" fill="rgb(170,29,36)" transform="translate(0,0)"></path>
<path d="M 1265.73 1602.61 L 1267.23 1601.7 C 1293.5 1618.49 1317.5 1638.59 1338.66 1661.48 C 1347.31 1670.83 1355.14 1679.39 1361.95 1690.22 C 1363.95 1693.41 1372.15 1697.85 1374.9 1700.75 C 1377.56 1702.99 1385 1715.21 1386.23 1715.67 C 1396.93 1719.65 1443.89 1725.81 1450.25 1732.27 C 1442.87 1731.06 1429.87 1727.36 1422.18 1725.5 C 1409.01 1722.23 1395.7 1719.54 1382.29 1717.46 C 1377.02 1711.31 1361.71 1689.11 1356.12 1687.64 L 1356.45 1685.4 C 1353.04 1680.09 1347.29 1671.87 1342.04 1668.41 C 1327.9 1651.46 1310.15 1636.06 1293.03 1622.06 C 1285.63 1616.01 1273.7 1609.38 1266.77 1603.5 L 1265.73 1602.61 z" fill="rgb(170,29,36)" transform="translate(0,0)"></path>
<metadata><recraft-signature>{"signed_by": "recraft", "signature_b64": "56OQ483JyfKAM/9YASkUBFa92PpEvYgJZTIpcA/DAvotiP8YqiyX5GpsU3vMUIq/2Xv2VNiSYYVOsf3gjBsHBA==", "signing_algo": "Ed25519", "generation_timestamp": 1783313388, "identifier": "27c01228-b0d0-49d1-a582-7c96aa4740dd"}</recraft-signature></metadata></svg>