<svg xmlns="http://www.w3.org/2000/svg" height="1024" preserveAspectRatio="none" style="display: block;" version="1.1" viewBox="0 0 2048 2048" width="1024">
<path d="M 0 0 L 2048 0 L 2048 2048 L 0 2048 L 0 0 z" fill="rgb(43,30,46)" transform="translate(0,0)"></path>
<path d="M 1276.95 734.782 L 1290.83 684.346 C 1302.25 643.345 1308.64 627.605 1343.58 602.761 C 1345.63 611.574 1347.12 620.16 1349 628.983 C 1352.18 644.001 1351.83 657.282 1368.54 661.876 C 1353.74 676.85 1350.98 701.391 1344.05 720.674 C 1342.59 724.752 1336.4 745.629 1337.22 748.609 C 1348.69 790.609 1325.86 788.95 1285.04 794.32 C 1284.59 823.672 1280.29 855.636 1278.94 885.103 C 1278.49 894.826 1275.61 919.775 1277.79 928.142 C 1281.56 942.58 1291.41 961.525 1297.17 975.958 C 1299.81 982.59 1310.72 1009.71 1314.11 1014.18 C 1444.41 984.823 1569.47 1061.9 1598.76 1193.18 C 1611.95 1252.26 1600.89 1318.28 1567.86 1369.31 C 1533.87 1422.56 1479.98 1460 1418.21 1473.27 C 1357.25 1486.26 1293.63 1474.31 1241.54 1440.08 C 1187.2 1404.81 1152.94 1351.34 1139.99 1288.33 C 1127.53 1227.11 1140.14 1163.46 1175 1111.61 C 1193.69 1083.54 1226.31 1048.87 1257.77 1035.35 C 1249.83 1018.44 1242.49 1001.26 1235.75 983.837 C 1217.21 1005.91 1040.3 1211.59 1035.55 1213.8 C 1021.34 1167.8 971.608 1148.53 930.848 1175.43 C 926.947 1162.79 918.433 1143.03 913.317 1130.31 C 901.442 1101.22 889.806 1072.04 878.411 1042.76 C 870.144 1053.38 857.091 1067.42 848.037 1077.73 C 845.731 1080.14 843.716 1082.16 841.668 1084.82 C 826.8 1102.56 812.998 1119.04 797.026 1135.88 C 781.475 1124.19 765.77 1112.71 749.914 1101.44 L 749.749 1100.89 C 764.028 1081.73 784.617 1060.98 800.153 1040.66 C 817.917 1020.62 835.435 1000.37 852.705 979.91 C 847.985 969.721 818.311 893.191 816.212 891.363 C 837.148 888.073 858.123 885.038 879.133 882.258 C 885.281 896.694 891.181 911.78 897.092 926.356 C 1004.63 903.062 1111.92 878.639 1218.94 853.093 C 1219.78 837.179 1221.63 821.67 1222.26 805.451 C 1207.56 808.298 1178 814.577 1163.3 813.131 C 1159.69 812.332 1154.01 805.302 1152.95 802.336 C 1141.46 770.247 1122.51 738.515 1101.96 711.422 C 1098.31 706.615 1089.79 701.771 1084.18 698.673 C 1101.03 694.911 1106.72 689.178 1103.57 671.007 C 1101.87 661.174 1099.17 650.994 1098 641.106 L 1097.85 639.723 C 1134.99 650.503 1148.18 665.581 1167.77 698.562 C 1176.67 713.532 1187.87 732.348 1197.51 746.843 C 1222.35 742.895 1252.29 737.634 1276.95 734.782 z" fill="rgb(245,237,230)" transform="translate(0,0)"></path>
<path d="M 1276.95 734.782 L 1290.83 684.346 C 1302.25 643.345 1308.64 627.605 1343.58 602.761 C 1345.63 611.574 1347.12 620.16 1349 628.983 C 1352.18 644.001 1351.83 657.282 1368.54 661.876 C 1353.74 676.85 1350.98 701.391 1344.05 720.674 C 1342.59 724.752 1336.4 745.629 1337.22 748.609 C 1348.69 790.609 1325.86 788.95 1285.04 794.32 C 1284.59 823.672 1280.29 855.636 1278.94 885.103 C 1278.49 894.826 1275.61 919.775 1277.79 928.142 C 1281.56 942.58 1291.41 961.525 1297.17 975.958 C 1299.81 982.59 1310.72 1009.71 1314.11 1014.18 C 1317.22 1022.62 1334.24 1064.57 1338.18 1070.88 C 1348.52 1094.12 1358.45 1117.55 1367.98 1141.14 C 1376.7 1163.59 1389.65 1187.29 1396.69 1210.1 C 1400.03 1220.94 1388.89 1237.97 1377.9 1241.27 C 1355.12 1248.13 1342.63 1236.36 1334.24 1216.73 C 1326.41 1198.43 1319.04 1180.25 1311.15 1162.52 L 1280.52 1092.8 C 1273.32 1073.4 1265.46 1054.54 1257.77 1035.35 C 1249.83 1018.44 1242.49 1001.26 1235.75 983.837 C 1217.21 1005.91 1040.3 1211.59 1035.55 1213.8 C 1021.34 1167.8 971.608 1148.53 930.848 1175.43 C 926.947 1162.79 918.433 1143.03 913.317 1130.31 C 901.442 1101.22 889.806 1072.04 878.411 1042.76 C 870.144 1053.38 857.091 1067.42 848.037 1077.73 C 845.731 1080.14 843.716 1082.16 841.668 1084.82 C 826.8 1102.56 812.998 1119.04 797.026 1135.88 C 781.475 1124.19 765.77 1112.71 749.914 1101.44 L 749.749 1100.89 C 764.028 1081.73 784.617 1060.98 800.153 1040.66 C 817.917 1020.62 835.435 1000.37 852.705 979.91 C 847.985 969.721 818.311 893.191 816.212 891.363 C 837.148 888.073 858.123 885.038 879.133 882.258 C 885.281 896.694 891.181 911.78 897.092 926.356 C 1004.63 903.062 1111.92 878.639 1218.94 853.093 C 1219.78 837.179 1221.63 821.67 1222.26 805.451 C 1207.56 808.298 1178 814.577 1163.3 813.131 C 1159.69 812.332 1154.01 805.302 1152.95 802.336 C 1141.46 770.247 1122.51 738.515 1101.96 711.422 C 1098.31 706.615 1089.79 701.771 1084.18 698.673 C 1101.03 694.911 1106.72 689.178 1103.57 671.007 C 1101.87 661.174 1099.17 650.994 1098 641.106 L 1097.85 639.723 C 1134.99 650.503 1148.18 665.581 1167.77 698.562 C 1176.67 713.532 1187.87 732.348 1197.51 746.843 C 1222.35 742.895 1252.29 737.634 1276.95 734.782 z" fill="rgb(255,90,31)" transform="translate(0,0)"></path>
<path d="M 1207.67 919.15 L 1209.64 919.036 L 1210.01 920.295 C 1206.18 926.6 1193.16 940.867 1187.59 947.268 L 1142.03 999.611 L 1070.58 1081.54 C 1045.45 1110.72 1022.39 1138.5 995.758 1166.65 L 975.623 1118.74 C 959.3 1074.85 937.97 1028.12 920.562 983.433 C 969.098 973.335 1017.52 962.711 1065.83 951.563 C 1113.17 941.026 1160.45 930.222 1207.67 919.15 z" fill="rgb(43,30,46)" transform="translate(0,0)"></path>
<path d="M 1338.18 1070.88 C 1380.08 1062.69 1427.27 1074.31 1462.58 1097.99 C 1500.52 1123.05 1526.61 1162.47 1534.84 1207.18 C 1543.17 1252.61 1533.15 1299.48 1506.97 1337.53 C 1455.95 1411.17 1347.69 1430.93 1274.83 1378.29 C 1236.84 1350.84 1212.87 1315.97 1205.48 1269.37 C 1193.87 1196.14 1220.84 1135.4 1280.52 1092.8 L 1311.15 1162.52 C 1319.04 1180.25 1326.41 1198.43 1334.24 1216.73 C 1342.63 1236.36 1355.12 1248.13 1377.9 1241.27 C 1388.89 1237.97 1400.03 1220.94 1396.69 1210.1 C 1389.65 1187.29 1376.7 1163.59 1367.98 1141.14 C 1358.45 1117.55 1348.52 1094.12 1338.18 1070.88 z" fill="rgb(78,205,196)" transform="translate(0,0)"></path>
<path d="M 1367.98 1141.14 C 1417.73 1139.92 1459.06 1180.72 1460.36 1230.01 C 1460.96 1255.35 1451.4 1279.88 1433.82 1298.14 C 1417.43 1314.98 1395 1324.6 1371.5 1324.87 C 1345.06 1325.15 1324.58 1316.22 1305.4 1297.76 C 1269.6 1263.32 1271.07 1202.19 1305.24 1167.23 C 1306.86 1165.58 1309.18 1163.8 1311.15 1162.52 C 1319.04 1180.25 1326.41 1198.43 1334.24 1216.73 C 1342.63 1236.36 1355.12 1248.13 1377.9 1241.27 C 1388.89 1237.97 1400.03 1220.94 1396.69 1210.1 C 1389.65 1187.29 1376.7 1163.59 1367.98 1141.14 z" fill="rgb(43,30,46)" transform="translate(0,0)"></path>
<path d="M 913.957 1266.9 C 908.566 1299.54 899.155 1332.23 881.84 1360.5 C 848.109 1415.55 794.13 1458.31 730.373 1472.34 C 526.599 1517.18 368.356 1296.26 479.529 1118.37 C 513.005 1064.87 566.42 1026.93 627.953 1012.93 C 683.909 1000.27 751.361 1010.09 800.153 1040.66 C 784.617 1060.98 764.028 1081.73 749.749 1100.89 L 749.914 1101.44 C 765.77 1112.71 781.475 1124.19 797.026 1135.88 C 812.998 1119.04 826.8 1102.56 841.668 1084.82 C 843.716 1082.16 845.731 1080.14 848.037 1077.73 L 853.11 1082.76 C 882.437 1117.72 902.091 1150.21 912.744 1195.41 C 910.247 1199.76 908.585 1202.97 906.469 1207.52 C 900.525 1228.55 900.982 1243.89 911.953 1263.41 C 912.611 1264.58 913.279 1265.74 913.957 1266.9 z" fill="rgb(43,30,46)" transform="translate(0,0)"></path>
<path d="M 913.957 1266.9 C 908.566 1299.54 899.155 1332.23 881.84 1360.5 C 848.109 1415.55 794.13 1458.31 730.373 1472.34 C 526.599 1517.18 368.356 1296.26 479.529 1118.37 C 513.005 1064.87 566.42 1026.93 627.953 1012.93 C 683.909 1000.27 751.361 1010.09 800.153 1040.66 C 784.617 1060.98 764.028 1081.73 749.749 1100.89 C 714.722 1081.83 673.526 1077.58 635.346 1089.09 C 594.243 1101.06 559.637 1128.98 539.24 1166.62 C 518.955 1204.54 514.655 1248.98 527.296 1290.08 C 539.612 1331.25 564.862 1363.37 602.945 1383.65 C 641.144 1403.74 685.732 1407.94 727.01 1395.33 C 781.347 1378.57 828.163 1324.16 834.54 1267.41 C 859.516 1266.38 888.526 1267.09 913.957 1266.9 z" fill="rgb(245,237,230)" transform="translate(0,0)"></path>
<path d="M 848.037 1077.73 L 853.11 1082.76 C 882.437 1117.72 902.091 1150.21 912.744 1195.41 C 910.247 1199.76 908.585 1202.97 906.469 1207.52 C 900.525 1228.55 900.982 1243.89 911.953 1263.41 C 912.611 1264.58 913.279 1265.74 913.957 1266.9 C 888.526 1267.09 859.516 1266.38 834.54 1267.41 C 797.944 1267.65 758.545 1268.62 722.253 1266.75 C 729.62 1250.55 728.55 1237.58 724.498 1220.98 C 728.547 1216.7 732.591 1212.16 736.582 1207.79 C 746.405 1194.56 759.532 1182.52 769.671 1169.31 C 778.407 1157.93 788.27 1147.22 797.615 1136.33 L 797.026 1135.88 C 812.998 1119.04 826.8 1102.56 841.668 1084.82 C 843.716 1082.16 845.731 1080.14 848.037 1077.73 z" fill="rgb(255,90,31)" transform="translate(0,0)"></path>
<path d="M 848.037 1077.73 L 853.11 1082.76 C 882.437 1117.72 902.091 1150.21 912.744 1195.41 C 910.247 1199.76 908.585 1202.97 906.469 1207.52 C 882.794 1206.72 859.1 1206.6 835.417 1207.13 C 828.394 1182.95 816.609 1153.61 797.615 1136.33 L 797.026 1135.88 C 812.998 1119.04 826.8 1102.56 841.668 1084.82 C 843.716 1082.16 845.731 1080.14 848.037 1077.73 z" fill="rgb(245,237,230)" transform="translate(0,0)"></path>
<path d="M 736.582 1207.79 C 746.405 1194.56 759.532 1182.52 769.671 1169.31 C 778.407 1157.93 788.27 1147.22 797.615 1136.33 C 816.609 1153.61 828.394 1182.95 835.417 1207.13 C 802.723 1207.76 769.225 1206.88 736.582 1207.79 z" fill="rgb(43,30,46)" transform="translate(0,0)"></path>
<path d="M 749.914 1101.44 C 765.77 1112.71 781.475 1124.19 797.026 1135.88 L 797.615 1136.33 C 788.27 1147.22 778.407 1157.93 769.671 1169.31 C 759.532 1182.52 746.405 1194.56 736.582 1207.79 C 732.591 1212.16 728.547 1216.7 724.498 1220.98 C 715.163 1201.19 700.865 1188.44 678.903 1184.37 C 702.131 1156.91 726.993 1129.04 749.914 1101.44 z" fill="rgb(78,205,196)" transform="translate(0,0)"></path>
<path d="M 816.212 891.363 C 790.623 895.855 748.772 906.935 725.135 894.841 C 699.881 881.076 693.746 849.909 707.569 825.895 C 721.968 800.88 753.652 800.775 779.878 796.878 L 844.294 787.348 L 897.093 779.437 C 917.52 776.382 938.086 770.606 956.691 782.393 C 967.791 789.388 975.57 800.595 978.244 813.441 C 981.09 826.63 978.401 840.41 970.805 851.563 C 956.996 871.784 934.395 873.539 912.505 876.884 C 901.361 878.546 890.236 880.337 879.133 882.258 C 858.123 885.038 837.148 888.073 816.212 891.363 z" fill="rgb(255,209,102)" transform="translate(0,0)"></path>
<path d="M 1084.18 698.673 C 1077.51 699.513 1067.51 701.77 1060.54 702.956 L 1011.15 711.013 C 983.984 715.604 946.835 725.345 936.675 688.568 C 933.636 677.466 935.303 665.602 941.285 655.769 C 946.952 646.583 956.303 640.841 966.954 639.032 C 1004.18 632.71 1041.98 626.518 1079.47 622.056 C 1089.28 620.888 1095.77 631.311 1097.85 639.723 L 1098 641.106 C 1099.17 650.994 1101.87 661.174 1103.57 671.007 C 1106.72 689.178 1101.03 694.911 1084.18 698.673 z" fill="rgb(139,92,246)" transform="translate(0,0)"></path>
<path d="M 1343.58 602.761 C 1344.59 598.237 1346.74 591.799 1350.71 589.015 C 1357.74 584.083 1451.89 565.894 1466.17 564.083 C 1472.25 563.312 1478.39 563.12 1484.42 564.395 C 1493.93 566.405 1502.59 571.447 1507.9 579.737 C 1513.24 588.065 1515.38 600.237 1513.13 609.88 C 1510.72 620.2 1503.55 628.853 1494.46 634.095 C 1481.54 641.549 1388.2 658.768 1368.54 661.876 C 1351.83 657.282 1352.18 644.001 1349 628.983 C 1347.12 620.16 1345.63 611.574 1343.58 602.761 z" fill="rgb(139,92,246)" transform="translate(0,0)"></path>
<path d="M 1017.69 1276.39 C 1025.9 1296.72 1034.37 1316.94 1043.11 1337.05 C 1057.32 1336.64 1073.53 1335.82 1087.55 1336.58 C 1087.41 1353.14 1087.36 1369.69 1087.41 1386.24 L 940.292 1386.28 C 940.485 1369.5 940.478 1352.71 940.27 1335.93 C 953.603 1337.51 973.329 1337.06 987.296 1337.11 C 984.456 1329.43 972.504 1302.14 972.551 1296.36 L 973.849 1295.11 C 991.049 1295.46 1005.02 1287.04 1017.69 1276.39 z" fill="rgb(139,92,246)" transform="translate(0,0)"></path>
<metadata><recraft-signature>{"signed_by": "recraft", "signature_b64": "UxzMf+oG08xArz6EyeWD5A4TXUFSrWIiT0n0BSCK86yNSXJZ4OG8rHpUPB7yfqeygLyTNo+X4ITavhRjBW3IDw==", "signing_algo": "Ed25519", "generation_timestamp": 1783344389, "identifier": "e489590e-c533-450a-8053-00cf5329a1bb"}</recraft-signature></metadata></svg>