<svg xmlns="http://www.w3.org/2000/svg" height="1024" preserveAspectRatio="none" style="display: block;" version="1.1" viewBox="0 0 2048 2048" width="1024">
<path d="M 0 0 L 2048 0 L 2048 2048 L 0 2048 L 0 0 z" fill="rgb(43,30,46)" transform="translate(0,0)"></path>
<path d="M 1182.49 484.588 C 1217.1 473.322 1250.94 474.282 1283.73 490.932 C 1284.79 491.474 1285.84 492.045 1286.87 492.643 C 1337.39 521.69 1345.94 540.346 1361.65 592.599 L 1389.86 692.826 C 1396.57 716.516 1402.92 740.069 1408.92 763.931 C 1416.42 793.728 1417.33 823.329 1401.91 850.925 C 1387.55 876.604 1369.15 891.757 1340.89 899.68 C 1317.45 906.398 1292.28 903.219 1271.25 890.883 C 1251.62 879.6 1244.95 869.203 1230.54 852.943 C 1199.34 817.761 1181.85 785.598 1139.32 763.067 C 1131.11 760.325 1116.51 755.567 1107.83 755.461 C 1052.8 754.787 997.303 754.386 942.293 755.928 C 933.287 756.18 919.808 760.495 911.123 763.214 C 867.263 782.471 847.823 819.998 816.134 854.689 C 802.39 870.944 790.155 885.039 770.249 894.114 C 701.509 925.451 628.222 867.644 634.36 794.464 C 636.807 765.284 648.444 730.642 656.09 701.893 L 673.187 639.606 C 678.351 620.744 683.003 602.107 690.175 583.867 C 692.196 579.744 696.37 563.633 698.934 557.523 C 711.011 528.735 730.906 512.297 756.137 495.835 C 805.891 467.698 849.173 474.271 898.175 498.803 C 916.981 506.74 949.342 522.617 969.039 524.664 C 985.172 526.341 1007.23 524.748 1024.22 525.049 C 1044.37 525.406 1067.16 525.631 1087.17 523.404 C 1098.26 521.021 1139.82 503.423 1151.06 497.691 C 1159.99 494.592 1172.99 488.343 1182.49 484.588 z" fill="rgb(139,92,246)" transform="translate(0,0)"></path>
<path d="M 690.175 583.867 C 692.096 595.692 702.572 617.063 711.219 624.072 C 709.96 634.329 710.166 644.713 711.833 654.912 C 717.242 688.011 737.6 716.771 767.019 732.875 C 800.548 751.229 841.246 750.66 874.249 731.377 C 875.363 730.726 876.465 730.056 877.555 729.366 C 884.361 744.669 895.402 756.84 911.123 763.214 C 867.263 782.471 847.823 819.998 816.134 854.689 C 802.39 870.944 790.155 885.039 770.249 894.114 C 701.509 925.451 628.222 867.644 634.36 794.464 C 636.807 765.284 648.444 730.642 656.09 701.893 L 673.187 639.606 C 678.351 620.744 683.003 602.107 690.175 583.867 z" fill="rgb(255,90,31)" transform="translate(0,0)"></path>
<path d="M 1361.65 592.599 L 1389.86 692.826 C 1396.57 716.516 1402.92 740.069 1408.92 763.931 C 1416.42 793.728 1417.33 823.329 1401.91 850.925 C 1387.55 876.604 1369.15 891.757 1340.89 899.68 C 1317.45 906.398 1292.28 903.219 1271.25 890.883 C 1251.62 879.6 1244.95 869.203 1230.54 852.943 C 1199.34 817.761 1181.85 785.598 1139.32 763.067 C 1151.66 756.07 1168.09 745.014 1174.15 731.691 C 1225.74 757.006 1275.31 749.964 1313.39 705.464 C 1334.69 679.071 1339.96 656.857 1337.81 623.766 C 1344.32 617.376 1358.36 600.596 1361.65 592.599 z" fill="rgb(255,90,31)" transform="translate(0,0)"></path>
<path d="M 715.003 606.044 C 728.899 559.743 771.653 528.144 819.993 528.447 C 868.333 528.75 910.687 560.883 924.001 607.354 C 937.315 653.826 918.401 703.512 877.555 729.366 C 876.465 730.056 875.363 730.726 874.249 731.377 C 841.246 750.66 800.548 751.229 767.019 732.875 C 737.6 716.771 717.242 688.011 711.833 654.912 C 710.166 644.713 709.96 634.329 711.219 624.072 C 711.969 617.966 713.235 611.935 715.003 606.044 z" fill="rgb(43,30,46)" transform="translate(0,0)"></path>
<path d="M 718.669 607.371 C 729.224 576.946 745.992 555.863 775.504 541.699 C 800.472 529.834 829.179 528.578 855.088 538.216 C 882.087 547.916 904.002 568.146 915.826 594.285 C 938.422 643.414 917.246 699.154 872.995 727.823 C 843.171 742.409 815.805 747.325 783.618 736.19 C 779.585 734.818 775.617 733.259 771.729 731.518 C 738.538 713.872 724.788 689.811 715.375 655.03 C 713.449 636.698 713.771 625.147 718.669 607.371 z" fill="rgb(255,209,102)" transform="translate(0,0)"></path>
<path d="M 801.659 589.745 C 808.207 587.277 815.202 586.215 822.188 586.628 C 847.663 588.134 867.89 608.63 869.059 634.122 C 870.228 659.615 851.962 681.876 826.732 685.707 C 801.502 689.538 777.451 673.703 771 649.012 C 764.549 624.322 777.779 598.746 801.659 589.745 z" fill="rgb(43,30,46)" transform="translate(0,0)"></path>
<path d="M 822.156 590.917 C 845.558 592.355 864.071 611.281 864.993 634.709 C 865.915 658.138 848.947 678.46 825.73 681.733 C 802.512 685.007 780.588 670.168 774.996 647.398 C 769.405 624.627 781.963 601.321 804.056 593.469 C 809.856 591.407 816.012 590.539 822.156 590.917 z" fill="rgb(78,205,196)" transform="translate(0,0)"></path>
<path d="M 1218.19 529.395 C 1228.49 527.961 1235.02 528.483 1245.34 529.479 L 1253.21 530.998 L 1260.68 533.207 C 1303.17 542.677 1331.33 582.437 1337.81 623.766 C 1339.96 656.857 1334.69 679.071 1313.39 705.464 C 1275.31 749.964 1225.74 757.006 1174.15 731.691 C 1152.26 717.329 1135.03 697.89 1126.67 672.884 C 1119.17 648.157 1119.36 631.213 1124.8 605.939 C 1140.35 562.114 1171.66 535.024 1218.19 529.395 z" fill="rgb(43,30,46)" transform="translate(0,0)"></path>
<path d="M 1232.58 532.198 C 1238.22 532.841 1244.16 533.403 1249.73 534.323 C 1330.26 552.804 1360.31 639.243 1310.23 704.654 C 1297.53 717.74 1286.02 727.637 1268.91 734.499 C 1242.46 745.121 1212.86 744.751 1186.69 733.471 C 1158.77 721.191 1140.33 698.694 1129.56 670.707 C 1122.14 650.626 1122.85 627.12 1128.64 606.722 C 1144.3 562.34 1174.86 537.417 1221.92 532.572 L 1232.58 532.198 z" fill="rgb(255,209,102)" transform="translate(0,0)"></path>
<path d="M 1179.72 640.026 C 1177.99 614.593 1195.75 591.963 1220.87 587.592 C 1245.98 583.222 1270.34 598.522 1277.31 623.043 C 1284.28 647.565 1271.6 673.389 1247.94 682.879 C 1224.28 692.369 1197.28 682.461 1185.37 659.921 C 1183.36 656.125 1181.86 652.085 1180.89 647.903 C 1180.29 645.313 1179.9 642.679 1179.72 640.026 z" fill="rgb(43,30,46)" transform="translate(0,0)"></path>
<path d="M 1183.85 642.013 C 1181.09 618.587 1196.57 596.895 1219.62 591.891 C 1242.68 586.887 1265.76 600.207 1272.96 622.669 C 1280.16 645.131 1269.13 669.389 1247.46 678.722 C 1225.8 688.055 1200.59 679.41 1189.22 658.746 C 1187.37 655.401 1185.96 651.838 1185 648.141 C 1184.48 646.127 1184.09 644.079 1183.85 642.013 z" fill="rgb(78,205,196)" transform="translate(0,0)"></path>
<path d="M 615.951 907.72 L 1167.53 908.058 L 1335.64 908.046 C 1362.64 907.889 1405.22 906.143 1431.05 907.599 L 1431.15 1029.68 C 1431.17 1050.62 1430.5 1078.49 1431.83 1099.03 C 1431.77 1105.95 1431.27 1126.52 1432.49 1132.37 C 1427.06 1133.57 1381.22 1133.17 1371.68 1133.18 L 1216.25 1133.06 L 616.015 1132.97 C 616.103 1123.47 616.049 1113.98 615.852 1104.48 C 616.747 1068.59 616.098 1028.26 615.836 992.228 C 616.545 964.269 615.723 935.741 615.951 907.72 z" fill="rgb(139,92,246)" transform="translate(0,0)"></path>
<path d="M 1017.86 976.331 C 1044.8 972.994 1069.31 992.187 1072.54 1019.14 C 1075.77 1046.09 1056.48 1070.53 1029.52 1073.65 C 1002.71 1076.75 978.436 1057.59 975.226 1030.8 C 972.016 1004 991.076 979.649 1017.86 976.331 z" fill="rgb(43,30,46)" transform="translate(0,0)"></path>
<path d="M 1015.66 980.588 C 1040.31 976.065 1063.94 992.468 1068.31 1017.15 C 1072.69 1041.83 1056.15 1065.36 1031.44 1069.59 C 1006.94 1073.79 983.652 1057.41 979.311 1032.94 C 974.969 1008.46 991.207 985.073 1015.66 980.588 z" fill="rgb(245,237,230)" transform="translate(0,0)"></path>
<path d="M 1155.86 976.441 C 1173.29 973.727 1190.83 980.608 1201.77 994.45 C 1212.7 1008.29 1215.34 1026.95 1208.66 1043.28 C 1201.98 1059.6 1187.03 1071.07 1169.53 1073.29 C 1143.01 1076.65 1118.7 1058.08 1114.96 1031.6 C 1111.22 1005.13 1129.44 980.555 1155.86 976.441 z" fill="rgb(43,30,46)" transform="translate(0,0)"></path>
<path d="M 1153.96 980.581 C 1169.89 977.197 1186.41 982.65 1197.19 994.853 C 1207.97 1007.06 1211.35 1024.12 1206.03 1039.51 C 1200.71 1054.9 1187.52 1066.24 1171.5 1069.18 C 1147.21 1073.64 1123.84 1057.76 1119.04 1033.53 C 1114.25 1009.3 1129.8 985.713 1153.96 980.581 z" fill="rgb(245,237,230)" transform="translate(0,0)"></path>
<path d="M 878.489 976.336 C 905.047 972.931 929.374 991.599 932.957 1018.13 C 936.54 1044.67 918.036 1069.12 891.527 1072.88 C 864.764 1076.68 840.027 1057.96 836.409 1031.17 C 832.792 1004.38 851.677 979.773 878.489 976.336 z" fill="rgb(43,30,46)" transform="translate(0,0)"></path>
<path d="M 875.268 980.796 C 899.576 975.468 923.598 990.868 928.902 1015.18 C 934.206 1039.5 918.782 1063.5 894.463 1068.78 C 870.178 1074.05 846.213 1058.66 840.916 1034.38 C 835.62 1010.1 850.994 986.117 875.268 980.796 z" fill="rgb(245,237,230)" transform="translate(0,0)"></path>
<path d="M 620.013 1221.63 C 636.12 1223.43 675.774 1222.35 693.888 1222.33 L 837.916 1222.19 L 1223.7 1222.2 L 1354.5 1222.16 C 1379.23 1222.16 1406.64 1221.64 1431.17 1222.56 C 1431.9 1248.16 1431.47 1273.96 1431.81 1299.62 C 1430.13 1332.25 1431.3 1377.44 1431.21 1410.85 C 1430.92 1477.52 1430.96 1544.2 1431.34 1610.88 C 1425.7 1610.91 1380.33 1611.71 1377 1610.28 C 1377.19 1568.22 1377.07 1526.15 1376.62 1484.09 C 1376.55 1466.65 1377.82 1433.89 1375.47 1417.97 C 1373.75 1406 1369.73 1394.47 1363.64 1384.02 C 1349.92 1360.64 1328.2 1347.34 1302.43 1340.72 C 1290.02 1338.73 1249.15 1337.96 1235.88 1338.88 C 1213.94 1340.39 1135.5 1335.15 1120.74 1342.27 C 1106.41 1344.06 1086.44 1357.64 1076.67 1367.99 C 1075.64 1371.93 1075.43 1372.85 1074.9 1376.84 C 1067.32 1387.8 1065.1 1391.77 1059.56 1403.78 C 1058.84 1402.89 1058.28 1402.38 1057.14 1402.15 L 1056.09 1401.91 C 1047.2 1435.09 1052.69 1487.97 1051.65 1524.1 C 1051.33 1534.89 1051.09 1566.86 1051.77 1577.51 C 1050.99 1587.04 1051.28 1600.66 1051.19 1610.51 L 997.86 1610.7 C 998.003 1576.88 997.968 1543.05 997.756 1509.23 C 998.031 1486.47 999.451 1427.43 994.625 1408.04 C 992.809 1399.61 989.812 1393.19 985.916 1385.6 C 973.538 1364.07 951.73 1349.05 928.295 1341.76 C 923.107 1340.48 917.814 1339.66 912.479 1339.33 C 884.599 1337.58 849.246 1339.51 820.407 1338.88 C 807.779 1338.61 764.376 1338.26 753.365 1339.85 C 730.64 1340.86 698.814 1358.57 687.392 1378.42 C 679.902 1387.54 674.992 1398.9 672.88 1410.47 C 669.655 1426.84 670.749 1490.35 670.965 1510.03 L 671.046 1599.6 C 670.994 1603.07 671.354 1607.54 669.496 1610.13 C 659.223 1611.56 627.715 1610.72 615.883 1610.68 C 616.17 1508.08 615.416 1331.83 616.552 1223.58 C 616.562 1222.6 618.618 1222.19 620.013 1221.63 z" fill="rgb(139,92,246)" transform="translate(0,0)"></path>
<path d="M 1076.67 1367.99 C 1075.64 1371.93 1075.43 1372.85 1074.9 1376.84 C 1067.32 1387.8 1065.1 1391.77 1059.56 1403.78 C 1058.84 1402.89 1058.28 1402.38 1057.14 1402.15 L 1056.09 1401.91 C 1058.67 1390.19 1068.12 1376.25 1076.67 1367.99 z" fill="rgb(96,4,94)" transform="translate(0,0)"></path>
<path d="M 455.828 1136.9 L 1434.88 1137.01 C 1487.3 1137.01 1540.52 1136.57 1592.87 1137.24 L 1592.8 1186.1 C 1592.77 1193.32 1592.33 1206.89 1592.97 1213.63 L 1591.94 1217.38 C 1587.1 1219.71 1436.07 1217.33 1416.58 1219.09 C 1388.4 1217.94 1352.21 1219 1323.54 1218.99 L 1138.53 1218.97 L 618.248 1218.94 C 610.663 1217.78 576.74 1218.44 567.185 1218.44 L 456.362 1218.37 C 455.36 1214.55 455.78 1174.53 455.724 1167.54 C 455.948 1157.61 455.8 1146.89 455.828 1136.9 z" fill="rgb(255,90,31)" transform="translate(0,0)"></path>
<path d="M 1434.88 1222.99 C 1487.08 1222.82 1540.45 1222.21 1592.55 1222.89 C 1593.51 1285.25 1592.79 1349.08 1592.85 1411.59 L 1592.89 1471.17 C 1592.86 1512.64 1593.63 1546.67 1562.3 1578.92 C 1534.73 1607.29 1505.52 1611.77 1467.74 1610.83 C 1461.42 1610.72 1438.44 1612.16 1434.32 1609.29 C 1435.47 1602.06 1434.98 1572.59 1434.98 1563.47 L 1434.83 1464.24 C 1436.09 1440.48 1435.09 1407.4 1435.09 1383.1 L 1434.88 1222.99 z" fill="rgb(255,90,31)" transform="translate(0,0)"></path>
<path d="M 611.348 1222.01 L 611.944 1222.15 L 612.768 1225.68 L 612.545 1470.93 C 612.591 1503.95 612.052 1538.92 612.8 1571.8 C 611.901 1580.15 612.236 1601.62 612.147 1610.78 C 592.494 1610.7 573.048 1611.16 553.153 1610.32 C 504.058 1608.26 466.416 1570.39 457.655 1523.21 C 454.549 1506.49 455.805 1485.62 455.859 1468.31 L 456.054 1389.23 L 455.975 1282.95 C 455.932 1265.55 455.115 1239.62 456.232 1222.85 C 505.41 1222.03 563.127 1224.84 611.348 1222.01 z" fill="rgb(255,90,31)" transform="translate(0,0)"></path>
<path d="M 753.576 1421.9 C 772.636 1420.26 811.266 1421.01 831.579 1421.09 C 854.624 1421.19 907.095 1419.42 926.928 1423.79 C 940.32 1426.86 952.782 1433.1 963.269 1441.98 C 964.599 1443.11 965.904 1444.26 967.183 1445.45 C 997.226 1475.95 994.205 1503.19 994.208 1542.69 C 994.21 1564.7 993.79 1588.38 994.107 1610.35 C 988.884 1611.53 931.359 1610.99 921.153 1610.99 L 724.932 1610.99 L 674.641 1610.98 L 674.608 1581.67 C 674.735 1555.28 673.155 1506.21 678.642 1483.11 C 693.199 1447.59 714.933 1427.54 753.576 1421.9 z" fill="rgb(255,209,102)" transform="translate(0,0)"></path>
<path d="M 1135.89 1421.86 C 1160.81 1420.02 1187.15 1421.91 1212.27 1421.27 C 1226.05 1420.92 1239.96 1421.2 1253.83 1421.1 C 1270.4 1420.97 1285.47 1420.25 1302.01 1423.07 C 1341.88 1429.88 1369.7 1463 1372.4 1502.92 C 1373.65 1528.04 1372.03 1552.95 1372.76 1577.92 C 1372.29 1589 1372.32 1599.87 1372.3 1610.95 L 1205.77 1611.03 C 1177.16 1611.02 1146.75 1611.54 1118.38 1610.83 C 1099.72 1611.64 1073.68 1610.87 1054.54 1610.82 C 1055.49 1605.52 1055.17 1587.67 1055.16 1581.54 L 1055.05 1531.99 C 1054.95 1494.23 1055.73 1476.07 1082.32 1446.06 C 1085.64 1443.06 1090.31 1439.59 1093.9 1436.75 C 1106.7 1427.56 1120.6 1424.13 1135.89 1421.86 z" fill="rgb(255,209,102)" transform="translate(0,0)"></path>
<path d="M 1434.88 907.984 C 1482.03 907.157 1523.17 901.071 1560.14 936.762 C 1587.72 963.378 1592.58 992.011 1592.58 1028.52 C 1592.59 1063.25 1592.78 1098.23 1592.8 1133 C 1576.38 1133.63 1555.63 1133.01 1538.94 1132.99 L 1435.05 1132.96 C 1435.17 1122.84 1435.1 1112.71 1434.83 1102.59 C 1435 1075.57 1434.98 1048.55 1434.79 1021.53 C 1435.44 984.066 1434.62 945.629 1434.88 907.984 z" fill="rgb(255,90,31)" transform="translate(0,0)"></path>
<path d="M 455.868 1133.13 C 455.6 1093.97 455.988 1054.64 455.929 1015.51 C 455.884 985.383 467.143 956.846 489.121 935.835 C 525.334 901.215 566.161 907.016 611.914 907.835 C 611.899 916.395 611.98 924.954 612.155 933.512 C 612.153 958.081 611.445 986.237 612.189 1010.49 C 611.395 1051.24 612.468 1092.33 611.87 1133.05 C 560.337 1133.05 507.267 1132.38 455.868 1133.13 z" fill="rgb(255,90,31)" transform="translate(0,0)"></path>
<path d="M 761.343 1343.59 C 788.35 1341.81 823.319 1343.2 851.066 1342.92 C 867.476 1342.76 903.575 1342.21 918.44 1343.83 C 943.997 1349.41 964.214 1360.03 978.803 1382.65 C 980.011 1384.54 981.186 1386.44 982.326 1388.37 C 987.243 1398.58 989.462 1404.36 991.799 1415.48 C 995.149 1435.97 993.456 1459.36 994.35 1480.29 C 987.209 1464.25 979.612 1450.28 965.695 1438.92 C 957.746 1432.56 948.927 1427.38 939.507 1423.53 C 931.967 1420.4 924.003 1418.42 915.879 1417.65 C 908.709 1416.93 901.435 1416.82 894.205 1416.91 C 846.796 1417.47 799.034 1415.71 751.706 1417.77 C 743.597 1418.12 730.221 1423.53 722.856 1426.69 C 702.142 1438.58 690.798 1448.85 679.43 1470.01 L 674.112 1482.85 C 674.039 1459.76 672.755 1429.58 677.232 1407.73 C 681.963 1395.87 684.93 1389.92 691.764 1379.14 C 710.421 1359.9 709.94 1358.79 735.994 1347.4 C 745.605 1344.78 751.542 1343.9 761.343 1343.59 z" fill="rgb(78,205,196)" transform="translate(0,0)"></path>
<path d="M 1285.92 1342.8 C 1329.36 1346.15 1370.88 1377.84 1372.16 1423.72 C 1373.6 1432.16 1373.47 1473.4 1372.76 1482.11 C 1370.93 1477.47 1363.64 1461.83 1363.02 1459.49 C 1347.12 1437.08 1322.41 1418.49 1293.78 1417.62 C 1241.15 1416.03 1187.77 1416.83 1135.12 1417.66 C 1125.99 1417.81 1111.43 1422.92 1103.06 1426.37 C 1100.69 1427.66 1094.7 1430.71 1092.86 1432.17 C 1086.93 1435.93 1084.76 1437.6 1079.74 1442.72 C 1067.86 1453.69 1061.3 1467.12 1055.19 1481.73 C 1054.85 1456.87 1052.78 1427.12 1059.56 1403.78 C 1065.1 1391.77 1067.32 1387.8 1074.9 1376.84 C 1089.94 1360.1 1098.43 1355.14 1119.22 1346.53 C 1128.94 1344.05 1135.52 1343.55 1145.4 1343.34 C 1178.01 1342.26 1211.68 1343.5 1244.35 1343.04 C 1255.01 1342.89 1275.96 1343.79 1285.92 1342.8 z" fill="rgb(78,205,196)" transform="translate(0,0)"></path>
<path d="M 1154.38 481.162 C 1161.63 463.645 1173.97 451.486 1191.48 444.17 C 1212.97 435.059 1237.22 434.955 1258.8 443.88 C 1276.85 451.549 1289.69 463.354 1296.8 481.92 C 1297.08 482.661 1297.35 483.407 1297.61 484.158 C 1298.98 487.219 1300.6 489.984 1300.68 493.261 L 1299.34 494.262 L 1294.92 492.347 C 1291.51 490.449 1288.03 488.675 1284.49 487.027 C 1250.5 470.862 1213.92 469.724 1178.68 482.381 C 1169.29 484.751 1158.9 490.184 1150.27 494.551 C 1151.23 490.476 1153.07 485.246 1154.38 481.162 z" fill="rgb(255,90,31)" transform="translate(0,0)"></path>
<path d="M 753.397 482.139 C 760.058 465.04 772.256 452.074 789.047 444.587 C 809.872 435.318 833.537 434.756 854.778 443.025 C 872.43 450.089 888.494 463.411 895.921 481.232 C 896.271 482.075 896.606 482.925 896.926 483.78 C 898.195 487.531 899.526 491.241 900.528 495.069 C 841.759 468.841 808.608 463.782 749.801 495.052 L 749.335 493.943 C 749.765 489.708 751.692 486.102 753.397 482.139 z" fill="rgb(255,90,31)" transform="translate(0,0)"></path>
<metadata><recraft-signature>{"signed_by": "recraft", "signature_b64": "OH1VqcM/BHpLlpQ8Crumk03TB+dU5Af+78SlRU7IVmdhLb3Ur/Gzchv9jX3wM1mtAW2raSUKykQ2ewFAP3h7CA==", "signing_algo": "Ed25519", "generation_timestamp": 1783344394, "identifier": "2a3228f4-8979-477a-aac4-41a5b0190d1b"}</recraft-signature></metadata></svg>