<svg xmlns="http://www.w3.org/2000/svg" height="1024" preserveAspectRatio="none" style="display: block;" version="1.1" viewBox="0 0 2048 2048" width="1024">
<path d="M 0 0 L 2048 0 L 2048 2048 L 0 2048 L 0 0 z" fill="rgb(43,30,46)" transform="translate(0,0)"></path>
<path d="M 712.829 615.488 C 713.885 534.479 778.862 465.992 855.968 450.045 C 875.889 445.925 895.685 446.691 915.868 446.655 L 978.79 446.584 C 1037.41 446.542 1096.28 446.39 1154.81 446.452 C 1204.45 446.185 1253.98 467.527 1287.94 503.621 C 1309.09 526.097 1328.43 559.943 1332.67 590.882 C 1336.59 619.457 1334.96 652.893 1334.89 682.12 L 1334.87 830.105 L 1335.1 1144.5 C 1335.33 1208.23 1336.43 1270.91 1335.92 1334.85 C 1336.53 1342.8 1336.59 1359.06 1336.07 1367 C 1334.8 1386.51 1337.23 1413.81 1335.17 1432.49 C 1334.69 1460.15 1328.35 1479.72 1316.85 1504.48 C 1307.32 1504.69 1249.5 1505.83 1244.5 1503.89 C 1244.9 1502.41 1244.86 1502.27 1245.52 1500.89 C 1263.47 1488.22 1279.42 1444.07 1277.64 1423.34 C 1276.53 1410.38 1279.97 1331.87 1276.3 1326.34 L 1276.07 1335.03 C 1276.69 1354.16 1276.16 1373.82 1276.35 1392.63 C 1276.83 1440.03 1275.83 1462.43 1244.9 1499.84 C 1208.93 1541.83 1163.49 1538.34 1113.92 1538.37 L 1024.87 1538.41 L 935.306 1538.44 C 879.054 1538.46 852.167 1542.71 807.039 1503.8 C 771.748 1468.11 770.85 1436.16 770.892 1390 L 770.795 1331.98 C 769.625 1345.24 771.203 1361.27 770.151 1375.05 C 770.512 1381.82 770.62 1396.8 770.107 1403.7 C 770.727 1411.31 770.427 1419.79 770.006 1427.45 C 772.353 1459.45 783.206 1481 804.544 1504.18 C 780.168 1504.54 755.789 1504.75 731.409 1504.83 C 719.843 1480.71 713.378 1460.17 712.86 1433.02 C 710.552 1414.31 714.481 1382.56 711.557 1365.62 C 696.681 1365.5 684.948 1360.68 684.383 1343.93 C 683.253 1310.42 684.128 1276.78 683.883 1243.25 C 683.722 1221.31 684.757 1204.99 711.507 1203.8 C 714.424 1193.1 712.234 1106.63 712.24 1089.87 L 712.104 771.388 L 712.017 673.88 C 712.005 656.724 711.41 631.971 712.829 615.488 z" fill="rgb(245,237,230)" transform="translate(0,0)"></path>
<path d="M 712.829 615.488 C 713.885 534.479 778.862 465.992 855.968 450.045 C 875.889 445.925 895.685 446.691 915.868 446.655 L 978.79 446.584 C 1037.41 446.542 1096.28 446.39 1154.81 446.452 C 1204.45 446.185 1253.98 467.527 1287.94 503.621 C 1309.09 526.097 1328.43 559.943 1332.67 590.882 C 1336.59 619.457 1334.96 652.893 1334.89 682.12 L 1334.87 830.105 L 1335.1 1144.5 C 1335.33 1208.23 1336.43 1270.91 1335.92 1334.85 C 1336.53 1342.8 1336.59 1359.06 1336.07 1367 C 1334.8 1386.51 1337.23 1413.81 1335.17 1432.49 C 1334.69 1460.15 1328.35 1479.72 1316.85 1504.48 C 1307.32 1504.69 1249.5 1505.83 1244.5 1503.89 C 1244.9 1502.41 1244.86 1502.27 1245.52 1500.89 C 1263.47 1488.22 1279.42 1444.07 1277.64 1423.34 C 1276.53 1410.38 1279.97 1331.87 1276.3 1326.34 L 1275.04 1325.62 C 1276.52 1320.73 1276.95 1319.54 1277.08 1314.48 C 1278.89 1306.75 1278.01 1265.21 1277.97 1254.96 L 1277.85 1137.94 L 1277.69 864.083 C 1277.73 810.74 1279.2 751.698 1276.8 698.832 C 1276.2 706.927 1276 715.257 1275.71 723.386 C 1261.35 668.534 1226.41 633.409 1167.61 631.064 L 1167.89 632.322 C 1160.17 632.171 1152.39 632.007 1144.67 632.058 C 1052.49 632.673 960.119 630.803 867.996 633.085 C 860.373 633.274 851.34 637.934 844.053 638.712 C 811.385 654.546 800.611 663.269 782.64 695.22 L 782.262 696.597 C 779.151 707.669 772.164 721.399 771.565 733.835 C 770.826 749.195 771.075 765.69 771.087 781.114 L 771.252 868.343 C 771.931 958.174 771.941 1048.01 771.283 1137.84 L 771.233 1195.84 C 771.232 1201.74 771.576 1219.23 770.901 1224.49 C 769.181 1248.07 772.039 1288.33 769.626 1309.23 C 770.307 1314.89 770.576 1318.03 772.284 1323.57 L 770.844 1323.98 C 771.081 1327.34 771.207 1328.64 770.795 1331.98 C 769.625 1345.24 771.203 1361.27 770.151 1375.05 C 770.512 1381.82 770.62 1396.8 770.107 1403.7 C 770.727 1411.31 770.427 1419.79 770.006 1427.45 C 772.353 1459.45 783.206 1481 804.544 1504.18 C 780.168 1504.54 755.789 1504.75 731.409 1504.83 C 719.843 1480.71 713.378 1460.17 712.86 1433.02 C 710.552 1414.31 714.481 1382.56 711.557 1365.62 C 696.681 1365.5 684.948 1360.68 684.383 1343.93 C 683.253 1310.42 684.128 1276.78 683.883 1243.25 C 683.722 1221.31 684.757 1204.99 711.507 1203.8 C 714.424 1193.1 712.234 1106.63 712.24 1089.87 L 712.104 771.388 L 712.017 673.88 C 712.005 656.724 711.41 631.971 712.829 615.488 z" fill="rgb(255,90,31)" transform="translate(0,0)"></path>
<path d="M 772.897 603.171 C 782.557 567.4 798.66 542.082 830.935 522.762 C 860.963 504.786 889.726 506.879 923.095 506.92 L 998.599 507.053 L 1101.72 506.954 C 1121.68 506.912 1141.48 506.738 1161.52 507.193 C 1202.19 508.119 1240.29 530.649 1260.75 565.744 C 1284.39 606.295 1275.29 653.798 1276.8 698.832 C 1276.2 706.927 1276 715.257 1275.71 723.386 C 1261.35 668.534 1226.41 633.409 1167.61 631.064 L 1167.89 632.322 C 1160.17 632.171 1152.39 632.007 1144.67 632.058 C 1052.49 632.673 960.119 630.803 867.996 633.085 C 860.373 633.274 851.34 637.934 844.053 638.712 C 811.385 654.546 800.611 663.269 782.64 695.22 C 780.073 697.605 777.353 705.198 775.741 708.909 C 773.788 708.327 772.877 708.108 770.866 707.685 C 770.863 672.442 769.886 638.239 772.897 603.171 z" fill="rgb(25,245,242)" transform="translate(0,0)"></path>
<path d="M 844.053 638.712 L 845.05 637.196 C 870.571 627.266 912.505 630.644 940.342 630.655 L 1032.76 629.965 L 1113.28 630.512 C 1128.64 630.525 1152.84 629.66 1167.61 631.064 L 1167.89 632.322 C 1160.17 632.171 1152.39 632.007 1144.67 632.058 C 1052.49 632.673 960.119 630.803 867.996 633.085 C 860.373 633.274 851.34 637.934 844.053 638.712 z" fill="rgb(78,205,196)" transform="translate(0,0)"></path>
<path d="M 956.891 538.167 C 957.988 535.707 963.172 534.295 965.541 533.708 C 1007.66 523.285 1031.61 573.82 996.017 600.357 C 968.425 617.389 933.662 594.64 940.095 562.529 C 942.075 552.646 947.021 541.966 956.891 538.167 z" fill="rgb(245,237,230)" transform="translate(0,0)"></path>
<path d="M 956.891 538.167 C 957.988 535.707 963.172 534.295 965.541 533.708 C 1007.66 523.285 1031.61 573.82 996.017 600.357 C 968.425 617.389 933.662 594.64 940.095 562.529 C 942.075 552.646 947.021 541.966 956.891 538.167 C 954.777 540.627 951.856 542.716 950.156 545 C 925.468 578.172 957.193 618.062 995.102 598.901 C 999.863 595.133 1001.86 593.911 1005.42 588.7 C 1015.7 573.669 1011.16 548.835 995.37 539.396 C 985.414 533.444 971.156 532.047 960.547 537.258 C 958.765 538.141 958.688 538.161 956.891 538.167 z" fill="rgb(25,144,129)" transform="translate(0,0)"></path>
<path d="M 1066.5 534.53 C 1085.36 530.765 1103.76 542.814 1107.85 561.61 C 1111.93 580.406 1100.2 599.009 1081.48 603.418 C 1069.08 606.338 1056.07 602.341 1047.45 592.964 C 1038.82 583.586 1035.93 570.286 1039.88 558.175 C 1043.83 546.063 1054 537.024 1066.5 534.53 z" fill="rgb(245,237,230)" transform="translate(0,0)"></path>
<path d="M 711.557 1365.62 C 696.681 1365.5 684.948 1360.68 684.383 1343.93 C 683.253 1310.42 684.128 1276.78 683.883 1243.25 C 683.722 1221.31 684.757 1204.99 711.507 1203.8 C 710.559 1213.61 710.965 1228.86 710.965 1239.1 L 710.958 1299.21 C 710.958 1309.4 710.265 1357.65 711.557 1365.62 z" fill="rgb(245,237,230)" transform="translate(0,0)"></path>
<path d="M 769.626 1309.23 C 766.778 1297.26 769.089 1230.67 769.224 1214.52 L 769.866 1055.74 L 769.649 720.365 C 769.707 705.255 767.495 609.269 772.897 603.171 C 769.886 638.239 770.863 672.442 770.866 707.685 C 772.877 708.108 773.788 708.327 775.741 708.909 C 777.353 705.198 780.073 697.605 782.64 695.22 L 782.262 696.597 C 779.151 707.669 772.164 721.399 771.565 733.835 C 770.826 749.195 771.075 765.69 771.087 781.114 L 771.252 868.343 C 771.931 958.174 771.941 1048.01 771.283 1137.84 L 771.233 1195.84 C 771.232 1201.74 771.576 1219.23 770.901 1224.49 C 769.181 1248.07 772.039 1288.33 769.626 1309.23 z" fill="rgb(169,44,25)" transform="translate(0,0)"></path>
<path d="M 770.866 707.685 C 772.877 708.108 773.788 708.327 775.741 708.909 C 774.608 713.94 772.656 720.177 771.319 725.365 C 771.021 719.18 770.872 713.896 770.866 707.685 z" fill="rgb(78,205,196)" transform="translate(0,0)"></path>
<path d="M 711.507 1203.8 C 714.424 1193.1 712.234 1106.63 712.24 1089.87 L 712.104 771.388 L 712.017 673.88 C 712.005 656.724 711.41 631.971 712.829 615.488 C 713.66 634.54 713.062 656.984 713.018 676.362 L 713.042 776.249 L 713.166 1108.69 L 712.888 1320.93 L 713.166 1393.76 C 713.202 1404.08 713.785 1423.31 712.86 1433.02 C 710.552 1414.31 714.481 1382.56 711.557 1365.62 C 710.265 1357.65 710.958 1309.4 710.958 1299.21 L 710.965 1239.1 C 710.965 1228.86 710.559 1213.61 711.507 1203.8 z" fill="rgb(169,44,25)" transform="translate(0,0)"></path>
<path d="M 1335.92 1334.85 C 1336.53 1342.8 1336.59 1359.06 1336.07 1367 C 1334.8 1386.51 1337.23 1413.81 1335.17 1432.49 C 1333.93 1412.78 1335.48 1388.59 1335.09 1368.5 C 1334.92 1359.66 1334.78 1343.14 1335.92 1334.85 z" fill="rgb(169,44,25)" transform="translate(0,0)"></path>
<path d="M 770.151 1375.05 C 769.297 1370.8 767.917 1325.54 769.59 1323.75 C 770.131 1323.58 770.091 1323.71 770.844 1323.98 C 771.081 1327.34 771.207 1328.64 770.795 1331.98 C 769.625 1345.24 771.203 1361.27 770.151 1375.05 z" fill="rgb(169,44,25)" transform="translate(0,0)"></path>
<path d="M 770.107 1403.7 C 770.727 1411.31 770.427 1419.79 770.006 1427.45 C 768.264 1420.57 768.641 1410.58 770.107 1403.7 z" fill="rgb(169,44,25)" transform="translate(0,0)"></path>
<path d="M 770.844 1323.98 L 772.284 1323.57 C 781.359 1355.62 799.419 1380.9 828.687 1397.6 C 858.271 1414.48 887.729 1411.59 920.654 1411.6 L 998.54 1411.63 L 1109.28 1411.64 C 1135.25 1411.66 1169.54 1414.05 1194.35 1407.7 C 1234.38 1397.45 1257.66 1370 1273.13 1332.84 C 1273.25 1329.88 1274.04 1328.49 1275.04 1325.62 L 1276.3 1326.34 L 1276.07 1335.03 C 1276.69 1354.16 1276.16 1373.82 1276.35 1392.63 C 1276.83 1440.03 1275.83 1462.43 1244.9 1499.84 C 1208.93 1541.83 1163.49 1538.34 1113.92 1538.37 L 1024.87 1538.41 L 935.306 1538.44 C 879.054 1538.46 852.167 1542.71 807.039 1503.8 C 771.748 1468.11 770.85 1436.16 770.892 1390 L 770.795 1331.98 C 771.207 1328.64 771.081 1327.34 770.844 1323.98 z" fill="rgb(253,237,43)" transform="translate(0,0)"></path>
<path d="M 1167.61 631.064 C 1226.41 633.409 1261.35 668.534 1275.71 723.386 C 1276 715.257 1276.2 706.927 1276.8 698.832 C 1279.2 751.698 1277.73 810.74 1277.69 864.083 L 1277.85 1137.94 L 1277.97 1254.96 C 1278.01 1265.21 1278.89 1306.75 1277.08 1314.48 C 1277.02 1309.72 1277.01 1306.7 1276.28 1301.94 C 1274.94 1256.9 1276.24 1204.69 1276.25 1159.21 L 1276.22 883.356 L 1276.22 782.864 C 1276.21 740.957 1279.05 705.57 1249.24 670.896 C 1227.45 645.552 1200.69 635.163 1167.89 632.322 L 1167.61 631.064 z" fill="rgb(118,38,24)" transform="translate(0,0)"></path>
<path d="M 769.626 1309.23 C 772.039 1288.33 769.181 1248.07 770.901 1224.49 C 771.56 1282.51 761.294 1335.55 806 1378.8 C 820.327 1392.9 838.272 1402.76 857.852 1407.3 C 876.193 1411.43 898.049 1410.42 917.09 1410.41 L 980.161 1410.36 C 1041.29 1410.3 1102.48 1410.45 1163.54 1410.35 C 1208.32 1410.27 1246.67 1385.66 1266.08 1345.58 C 1273.36 1330.55 1275.13 1318.31 1276.28 1301.94 C 1277.01 1306.7 1277.02 1309.72 1277.08 1314.48 C 1276.95 1319.54 1276.52 1320.73 1275.04 1325.62 C 1274.04 1328.49 1273.25 1329.88 1273.13 1332.84 C 1257.66 1370 1234.38 1397.45 1194.35 1407.7 C 1169.54 1414.05 1135.25 1411.66 1109.28 1411.64 L 998.54 1411.63 L 920.654 1411.6 C 887.729 1411.59 858.271 1414.48 828.687 1397.6 C 799.419 1380.9 781.359 1355.62 772.284 1323.57 C 770.576 1318.03 770.307 1314.89 769.626 1309.23 z" fill="rgb(43,30,46)" transform="translate(0,0)"></path>
<path d="M 1023.55 881.006 C 1053.68 880.018 1066.25 936.441 1085.38 956.762 C 1102.43 961.887 1155.87 971.24 1166.63 980.534 C 1170.74 984.08 1172.97 988.826 1173.21 994.237 C 1173.44 999.367 1172.12 1004.45 1169.72 1008.97 C 1162.02 1023.48 1131.46 1052.75 1118.69 1066.35 C 1120.46 1078.42 1128.79 1140.32 1125.92 1149.05 C 1123.81 1155.46 1118.61 1160.56 1112.57 1163.37 C 1108.47 1165.28 1103.54 1166.31 1099.03 1165.6 C 1091.51 1164.41 1083.33 1160.16 1076.26 1157.32 C 1061.33 1151.32 1046.48 1144.96 1031.24 1139.77 C 1015.46 1133.24 952.833 1181.44 935.121 1159.12 C 921.346 1141.75 934.434 1088.37 935.284 1065.27 C 921.044 1051.24 908.251 1036.07 894.375 1021.67 C 883.396 1010.28 873.731 985.082 893.507 977.228 C 917.219 967.809 945.022 963.875 969.907 956.051 C 980.146 940.988 988.3 923.865 997.66 908.206 C 1005.2 895.596 1008.58 886.014 1023.55 881.006 z" fill="rgb(139,92,246)" transform="translate(0,0)"></path>
<path d="M 732.422 1506.16 C 756.953 1505.81 782.004 1505.99 806.577 1505.92 C 853.504 1545.71 885.563 1539.95 943.415 1540 L 1045.09 1539.97 L 1122.31 1539.91 C 1172.7 1539.93 1200.68 1542.05 1241.47 1506.57 C 1259.28 1504.9 1296.12 1506.01 1315.57 1506.05 C 1309.36 1518.66 1299.55 1530.36 1290.33 1540.84 C 1261.54 1570.04 1224.12 1591.09 1183.11 1597.39 C 1163.77 1600.36 1141.14 1599.52 1121.41 1599.44 L 1041.31 1599.17 L 936.317 1599.25 C 918.848 1599.23 896.504 1599.82 879.611 1598.61 C 864.059 1597.42 848.694 1594.46 833.811 1589.79 C 792.304 1576.92 752.687 1544.37 732.422 1506.16 z" fill="rgb(139,92,246)" transform="translate(0,0)"></path>
<path d="M 1337.53 1204.1 C 1351.24 1205.25 1364 1210.17 1364.58 1226.25 C 1365.66 1260.49 1364.8 1294.91 1364.98 1329.19 C 1365.04 1342.09 1366.04 1348.98 1357.62 1359.39 C 1350.23 1365.06 1346.32 1365.04 1337.21 1366.39 C 1338.22 1314.36 1338.76 1256.05 1337.53 1204.1 z" fill="rgb(245,237,230)" transform="translate(0,0)"></path>
<metadata><recraft-signature>{"signed_by": "recraft", "signature_b64": "ZtfQ0LfVm2lZ+QlHb65OcKZRS/Z+hGzrb8ehalo34bApNeoZ5kaENBRbg5mE4+WfderZXYzfa8PUncSNT3dPCA==", "signing_algo": "Ed25519", "generation_timestamp": 1783344398, "identifier": "d1a88ab7-d0f8-4b7d-80cf-2db6bbca9f04"}</recraft-signature></metadata></svg>