<svg xmlns="http://www.w3.org/2000/svg" height="1024" preserveAspectRatio="none" style="display: block;" version="1.1" viewBox="0 0 2048 2048" width="1024">
<path d="M 0 0 L 2048 0 L 2048 2048 L 0 2048 L 0 0 z" fill="rgb(43,30,46)" transform="translate(0,0)"></path>
<path d="M 1272.13 419.197 C 1288.56 419.024 1304.98 418.941 1321.41 418.947 C 1331.05 441.781 1350.49 441.147 1361.32 419.751 L 1388.19 419.544 C 1398.82 440.416 1419.6 442.946 1427.89 419.619 C 1441.67 419.522 1456.95 419.082 1470.61 419.402 C 1471.46 461.139 1500 486.408 1541.01 486.929 L 1540.79 533.796 C 1509.66 538.808 1510.95 568.242 1540.57 577.381 C 1541.05 588.585 1540.74 600.41 1540.63 611.669 C 1532.92 613.419 1527.47 614.869 1522.81 622.058 C 1519.93 626.492 1518.96 631.903 1520.13 637.06 C 1522.55 648.042 1530.56 651.95 1540.46 654.463 L 1540.12 690.529 C 1531.84 692.607 1525.94 694.257 1521.22 702.429 C 1518.43 707.332 1517.87 713.201 1519.7 718.541 C 1523.08 728.56 1531.42 732.32 1540.84 734.765 L 1540.86 769.76 C 1532.86 771.285 1527.69 772.488 1522.46 779.791 C 1519.37 784.03 1518.15 789.347 1519.09 794.507 C 1521.22 805.906 1530.8 810.298 1540.9 812.666 L 1540.82 848.043 C 1509.54 855.309 1513.73 886.173 1540.73 891.857 C 1540.52 903.857 1540.33 915.264 1540.65 927.27 C 1532.56 929.077 1526.26 930.66 1521.41 938.35 C 1518.73 942.649 1517.99 947.878 1519.37 952.75 C 1522.19 963.005 1530.85 967.47 1540.19 970.494 L 1540.14 1005.6 C 1532.21 1007.19 1526.94 1008.55 1522.13 1016.09 C 1519.24 1020.62 1518.31 1026.13 1519.56 1031.35 C 1522.2 1042.81 1530.74 1046.11 1540.93 1048.76 C 1540.7 1060.67 1540.35 1072.83 1540.29 1084.71 C 1532.71 1085.68 1527.72 1086.67 1522.86 1093.31 C 1519.75 1097.55 1518.5 1102.87 1519.4 1108.06 C 1521.38 1119.86 1530.2 1124.21 1540.83 1126.12 L 1540.9 1162.84 C 1532.82 1164.1 1527.45 1164.68 1522.26 1172.15 C 1519.26 1176.48 1518.18 1181.86 1519.28 1187.01 C 1521.63 1198.21 1530.77 1202.26 1540.99 1203.91 L 1540.91 1239.83 C 1527.55 1242.17 1516.46 1248.45 1519.29 1264.84 C 1521.23 1276.09 1530.75 1280.76 1540.79 1283.96 C 1540.71 1295.48 1540.51 1307.21 1540.57 1318.71 C 1532.49 1320.57 1526.63 1322.39 1522.07 1330.16 C 1519.46 1334.62 1518.78 1339.95 1520.2 1344.92 C 1522.97 1354.95 1531.6 1358.98 1540.85 1361.42 L 1540.69 1396.6 C 1511.59 1400.63 1511.7 1430.86 1540.25 1439.56 L 1540.13 1474.74 C 1532.18 1476.41 1527.02 1477.46 1522.17 1485.09 C 1519.26 1489.67 1518.28 1495.22 1519.44 1500.52 C 1521.77 1510.88 1530.8 1516.27 1540.69 1517.72 L 1540.71 1554.39 C 1500.05 1556.26 1474.14 1577.07 1470.54 1619 C 1456.72 1619.03 1442.44 1619.25 1428.66 1619.01 C 1426.39 1612.55 1424.25 1607.96 1417.79 1604.61 C 1413.65 1602.46 1408.82 1602.09 1404.4 1603.57 C 1396.08 1606.3 1392.95 1611.47 1389.3 1618.81 L 1360.48 1618.78 C 1349.37 1597.36 1332 1596.72 1321.14 1618.94 L 1272.01 1618.78 C 1272.18 1590.5 1274.98 1565.61 1253.21 1544.33 C 1231.05 1522.66 1208.42 1520.08 1180.1 1529.49 C 1179.8 1536.61 1179.61 1543.73 1179.55 1550.85 C 1169.21 1550.95 1161.98 1550.62 1152.15 1554.18 L 1151.11 1555.6 C 1136.29 1575.57 1140.17 1597.17 1139.83 1620.75 C 1129.97 1620.94 1092.89 1621.51 1080.78 1620.32 C 1080.39 1620.28 1078.98 1617.21 1079.01 1617.03 C 1079.02 1617.01 1078.1 1615.1 1078.1 1615.08 C 1073.4 1605.36 1065.79 1603.77 1055.97 1603.55 C 1045.55 1608 1045.68 1610.75 1042.19 1621.07 C 1034.55 1621.02 1020.64 1621.82 1012.88 1620.55 C 1012.37 1620.47 1010.49 1616.07 1010.07 1615.24 C 1005.38 1607.72 1004.44 1607.12 996.272 1603.54 C 980.826 1604.74 978.835 1607.29 972.782 1621.21 C 959.047 1621.47 945.197 1621.35 931.45 1621.4 C 920.927 1621.44 921.355 1623.29 920.367 1614.39 C 921.014 1611.07 921.075 1599.9 921.121 1595.97 C 921.363 1575.54 915.209 1557.44 900.599 1542.79 C 888.722 1530.67 872.457 1523.86 855.49 1523.91 C 838.073 1523.98 820.544 1530.51 808.613 1543.29 C 786.313 1567.17 788.982 1588.38 789.32 1618.29 L 742.68 1618.09 C 731.14 1596.31 712.108 1594.42 702.988 1618.62 C 692.552 1618.43 682.113 1618.41 671.676 1618.57 L 671.183 1617.74 L 670.346 1616.37 C 660.666 1600.13 646.759 1596.71 633.236 1611.02 C 633.099 1612.22 632.593 1617.62 631.673 1617.69 C 621.161 1618.54 593.513 1618.25 584.088 1618.22 C 583.77 1614.63 583.447 1610.58 583.224 1607.02 C 578.038 1586.75 570.692 1577.69 555.008 1564.77 C 541.009 1555.94 532.284 1554.04 516.148 1552.77 C 515.952 1545.55 514.882 1522.73 516.549 1517.47 L 518.863 1516.63 C 540.918 1508 541.15 1486.03 518.839 1476.54 L 517.513 1476.29 C 514.826 1472.31 515.944 1445.65 515.992 1439.13 C 524.887 1436.98 526.064 1436.2 532.678 1429.82 C 541.442 1408.01 533.056 1405.98 517.014 1396.33 C 515.578 1393.2 516.053 1390.69 516.033 1387.06 L 515.819 1361.46 C 527.729 1357.71 532.127 1354.31 535.759 1342.27 L 632.253 1342.24 L 632.245 1299.13 L 632.378 1253.28 C 606.335 1253.1 558.31 1255.25 534.933 1253.32 C 530.58 1246.06 526.169 1242.67 518.262 1240.09 C 515.199 1235.96 516.036 1216.58 516.013 1210.47 C 516.611 1204.75 519.254 1204.96 523.922 1201.75 C 538.753 1191.54 540.584 1180.29 527.607 1167 C 523.043 1164.87 521.032 1164.5 516.073 1163.36 L 516.248 1126.36 C 522.579 1124.8 524.293 1124.56 529.948 1121.11 C 545.37 1102.7 532.824 1092.31 516.79 1084.28 C 515.866 1083.82 516.155 1078.21 516.13 1076.85 C 516.087 1067.68 516.01 1059.31 516.613 1050.13 C 517.534 1049.72 518.453 1049.3 519.368 1048.88 C 528.431 1044.68 531.677 1042.77 535.183 1033.17 C 535.301 1016.48 531.772 1011.53 516.527 1005.5 C 516.349 993.52 516.343 981.534 516.509 969.549 C 531.117 965.589 536.237 959.331 535.931 943.925 C 531.441 934.42 526.82 931.042 516.925 928.229 C 516.04 917.957 516.787 907.327 515.542 897.249 C 515.686 894.712 515.519 894.74 516.73 892.557 C 517.913 891.975 519.083 891.366 520.238 890.729 C 535.927 881.988 540.686 871.712 530.561 855.755 C 524.619 852.015 523.023 851.136 516.433 848.624 L 516.353 811.557 C 519.663 810.941 523.42 809.616 526.691 808.574 C 529.59 805.777 531.967 802.485 533.708 798.853 C 543.502 778.178 519.748 775.421 515.349 767.5 C 516.904 761.423 516.243 741.92 516.156 734.676 C 526.079 731.59 529.885 730.14 534.784 721.12 C 567.312 720.832 599.843 721.072 632.363 721.841 C 632.705 706.916 632.733 691.986 632.445 677.06 C 632.147 662.167 632.118 647.269 632.356 632.374 C 600.674 632.489 568.043 632.989 536.437 632.432 C 533.202 619.874 528.883 616.495 516.714 612.479 L 516.744 588.732 C 515.772 566.707 526.274 579.832 534.971 563.451 C 537.425 558.828 534.962 548.885 532.803 543.987 C 526.397 537.453 524.898 536.826 515.985 534.525 L 515.997 501.904 L 515.948 487.056 C 520.312 486.984 524.668 486.645 528.991 486.039 C 550.62 483.183 562.94 472.448 575.735 455.773 C 581.663 442.987 583.947 436.137 585.334 422.06 C 591.729 422.058 623.967 421.531 631.955 422.546 C 632.658 422.635 632.75 426.224 632.791 427.564 C 645.262 444.228 662.742 439.611 671.605 422.106 C 681.467 421.989 691.329 421.963 701.192 422.029 C 713.176 442.707 730.198 444.59 741.455 422.16 C 757.526 421.988 773.598 421.959 789.669 422.075 C 789.236 447.759 786.933 469.293 804.779 490.083 C 816.279 503.578 832.708 511.9 850.391 513.188 C 887.25 515.729 918.194 488.878 920.294 451.583 C 920.83 442.064 920.521 432.558 921.059 423.045 L 921.24 421.621 C 921.271 421.305 921.5 419.635 921.874 419.623 C 938.449 419.07 956.38 418.933 972.91 419.032 L 973.598 420.804 C 976.765 429.179 976.066 429.316 982.851 435.032 C 995.656 439.152 1008.68 435.852 1011.47 421.307 C 1015 418.396 1035.06 419.796 1041.69 419.804 C 1044.38 428.207 1043.82 427.993 1050.16 434.838 C 1063.69 439.768 1076.26 437.798 1079.61 421.943 C 1081.72 417.934 1105.04 419.777 1110.77 419.855 C 1120.28 419.995 1129.74 419.838 1139.25 419.91 C 1139.66 443.982 1136.48 459.289 1148.67 480.436 C 1157.49 485.452 1169.59 484.772 1179.8 484.958 C 1179.66 489.763 1178.51 505.209 1180.96 508.181 C 1198.67 515.173 1214.03 516.563 1231.96 508.822 C 1248.28 501.963 1261.09 488.729 1267.41 472.192 C 1273.52 456.119 1272.23 436.336 1272.13 419.197 z" fill="rgb(255,90,31)" transform="translate(0,0)"></path>
<path d="M 1272.13 419.197 C 1288.56 419.024 1304.98 418.941 1321.41 418.947 C 1331.05 441.781 1350.49 441.147 1361.32 419.751 L 1388.19 419.544 C 1398.82 440.416 1419.6 442.946 1427.89 419.619 C 1441.67 419.522 1456.95 419.082 1470.61 419.402 C 1471.46 461.139 1500 486.408 1541.01 486.929 L 1540.79 533.796 C 1509.66 538.808 1510.95 568.242 1540.57 577.381 C 1541.05 588.585 1540.74 600.41 1540.63 611.669 C 1532.92 613.419 1527.47 614.869 1522.81 622.058 C 1519.93 626.492 1518.96 631.903 1520.13 637.06 C 1522.55 648.042 1530.56 651.95 1540.46 654.463 L 1540.12 690.529 C 1531.84 692.607 1525.94 694.257 1521.22 702.429 C 1518.43 707.332 1517.87 713.201 1519.7 718.541 C 1523.08 728.56 1531.42 732.32 1540.84 734.765 L 1540.86 769.76 C 1532.86 771.285 1527.69 772.488 1522.46 779.791 C 1519.37 784.03 1518.15 789.347 1519.09 794.507 C 1521.22 805.906 1530.8 810.298 1540.9 812.666 L 1540.82 848.043 C 1509.54 855.309 1513.73 886.173 1540.73 891.857 C 1540.52 903.857 1540.33 915.264 1540.65 927.27 C 1532.56 929.077 1526.26 930.66 1521.41 938.35 C 1518.73 942.649 1517.99 947.878 1519.37 952.75 C 1522.19 963.005 1530.85 967.47 1540.19 970.494 L 1540.14 1005.6 C 1532.21 1007.19 1526.94 1008.55 1522.13 1016.09 C 1519.24 1020.62 1518.31 1026.13 1519.56 1031.35 C 1522.2 1042.81 1530.74 1046.11 1540.93 1048.76 C 1540.7 1060.67 1540.35 1072.83 1540.29 1084.71 C 1532.71 1085.68 1527.72 1086.67 1522.86 1093.31 C 1519.75 1097.55 1518.5 1102.87 1519.4 1108.06 C 1521.38 1119.86 1530.2 1124.21 1540.83 1126.12 L 1540.9 1162.84 C 1532.82 1164.1 1527.45 1164.68 1522.26 1172.15 C 1519.26 1176.48 1518.18 1181.86 1519.28 1187.01 C 1521.63 1198.21 1530.77 1202.26 1540.99 1203.91 L 1540.91 1239.83 C 1527.55 1242.17 1516.46 1248.45 1519.29 1264.84 C 1521.23 1276.09 1530.75 1280.76 1540.79 1283.96 C 1540.71 1295.48 1540.51 1307.21 1540.57 1318.71 C 1532.49 1320.57 1526.63 1322.39 1522.07 1330.16 C 1519.46 1334.62 1518.78 1339.95 1520.2 1344.92 C 1522.97 1354.95 1531.6 1358.98 1540.85 1361.42 L 1540.69 1396.6 C 1511.59 1400.63 1511.7 1430.86 1540.25 1439.56 L 1540.13 1474.74 C 1532.18 1476.41 1527.02 1477.46 1522.17 1485.09 C 1519.26 1489.67 1518.28 1495.22 1519.44 1500.52 C 1521.77 1510.88 1530.8 1516.27 1540.69 1517.72 L 1540.71 1554.39 C 1500.05 1556.26 1474.14 1577.07 1470.54 1619 C 1456.72 1619.03 1442.44 1619.25 1428.66 1619.01 C 1426.39 1612.55 1424.25 1607.96 1417.79 1604.61 C 1413.65 1602.46 1408.82 1602.09 1404.4 1603.57 C 1396.08 1606.3 1392.95 1611.47 1389.3 1618.81 L 1360.48 1618.78 C 1349.37 1597.36 1332 1596.72 1321.14 1618.94 L 1272.01 1618.78 C 1272.18 1590.5 1274.98 1565.61 1253.21 1544.33 C 1231.05 1522.66 1208.42 1520.08 1180.1 1529.49 C 1170.14 1527.79 1161.75 1523.62 1159.6 1512.76 C 1158.56 1507.45 1159.82 1501.94 1163.06 1497.6 C 1167.54 1491.58 1172.26 1489.95 1179.24 1488.7 L 1179.23 1474.9 L 1179.1 1450.83 C 1172.42 1449.4 1165.43 1447.72 1161.77 1441.52 C 1151.7 1424.48 1166.03 1416.2 1177.39 1409.69 C 1180.19 1404.32 1179.38 1381.1 1179.63 1373.47 C 1171.23 1372.31 1163.72 1369.32 1160.18 1360.87 C 1158.26 1356.2 1158.45 1350.93 1160.68 1346.39 C 1164.75 1337.92 1170.89 1335.31 1179 1332.57 C 1179.1 1322.65 1179.27 1312.44 1179.3 1302.52 C 1179.33 1291.72 1170.95 1296.6 1163.69 1289.45 C 1159.95 1285.77 1158.88 1282.17 1158.75 1277.01 C 1158.31 1258.28 1173.47 1259.38 1178.84 1254.14 C 1180.89 1246.75 1180.02 1226.1 1179.92 1217.42 C 1149.7 1209.79 1153.45 1180.15 1178.95 1178.15 L 1179.05 1139.89 C 1170.14 1138.25 1163.29 1134.82 1159.64 1125.8 C 1155.12 1114.62 1164.82 1101.18 1176.1 1099.16 C 1178.88 1098.66 1179.11 1095.2 1179.71 1092.96 C 1179.09 1084.54 1180.76 1074.23 1179.74 1065.88 C 1178.72 1057.56 1165.98 1060.27 1159.98 1049.89 C 1158.11 1046.64 1157.59 1042.79 1158.51 1039.16 C 1162.95 1026.64 1165.9 1022.64 1179.75 1020.39 C 1179.76 1008.1 1179.52 995.818 1179.04 983.544 C 1169.49 980.692 1161.44 976.898 1159.39 965.826 C 1158.42 960.747 1159.71 955.497 1162.91 951.44 C 1167.65 945.491 1172.53 944.409 1179.57 943.416 L 1179.26 906.431 C 1169.03 903.822 1160.41 898.006 1159.17 886.552 C 1158.62 881.849 1160.03 877.126 1163.08 873.502 C 1167.77 867.988 1172.24 866.794 1178.98 866.038 C 1179.16 855.11 1179.88 841.331 1178.56 830.728 C 1177.78 824.43 1160.93 825.581 1159 812.963 C 1156.74 798.115 1165.87 791.237 1179.14 788.798 L 1178.87 752.014 C 1169.4 749.236 1161.68 746.048 1159.33 735.071 C 1158.26 730.149 1159.25 725.005 1162.07 720.834 C 1166.64 714.102 1171.69 712.606 1179.1 711.421 C 1179.23 699.764 1179.22 688.106 1179.05 676.45 C 1169.38 672.626 1165.74 671.259 1160.87 662.121 C 1155.75 645.077 1161.04 637.237 1178.75 635.386 C 1179.79 626.086 1179.28 606.576 1179.26 596.401 C 1170.15 594.405 1162.14 590.808 1159.77 580.807 C 1158.7 576.173 1159.53 571.304 1162.09 567.292 C 1166.72 559.923 1172.31 558.563 1179.99 556.916 C 1180.03 548.775 1178.66 513.717 1180.96 508.181 C 1198.67 515.173 1214.03 516.563 1231.96 508.822 C 1248.28 501.963 1261.09 488.729 1267.41 472.192 C 1273.52 456.119 1272.23 436.336 1272.13 419.197 z" fill="rgb(255,209,102)" transform="translate(0,0)"></path>
<path d="M 1179.71 1092.96 C 1208.84 1056.13 1277.42 985.322 1323.35 986.261 C 1469.51 989.247 1452.43 1174.19 1405.52 1260.01 C 1416.69 1284.41 1430.74 1292.92 1455.15 1301.99 C 1460.64 1304.01 1466.15 1305.99 1471.66 1307.94 C 1473.74 1309.95 1481.1 1312.82 1479.49 1314.08 C 1475.83 1316.95 1474.69 1315.3 1470.18 1319.49 C 1446.93 1328 1415.57 1337.79 1406.02 1362.27 C 1396.5 1386.65 1390.69 1417.73 1383.71 1443.23 C 1378.72 1422.78 1373.55 1400.01 1367.42 1380 C 1311.35 1443.45 1266.65 1475.96 1179.23 1474.9 L 1179.1 1450.83 C 1172.42 1449.4 1165.43 1447.72 1161.77 1441.52 C 1151.7 1424.48 1166.03 1416.2 1177.39 1409.69 C 1180.19 1404.32 1179.38 1381.1 1179.63 1373.47 C 1171.23 1372.31 1163.72 1369.32 1160.18 1360.87 C 1158.26 1356.2 1158.45 1350.93 1160.68 1346.39 C 1164.75 1337.92 1170.89 1335.31 1179 1332.57 C 1179.1 1322.65 1179.27 1312.44 1179.3 1302.52 C 1179.33 1291.72 1170.95 1296.6 1163.69 1289.45 C 1159.95 1285.77 1158.88 1282.17 1158.75 1277.01 C 1158.31 1258.28 1173.47 1259.38 1178.84 1254.14 C 1180.89 1246.75 1180.02 1226.1 1179.92 1217.42 C 1149.7 1209.79 1153.45 1180.15 1178.95 1178.15 L 1179.05 1139.89 C 1170.14 1138.25 1163.29 1134.82 1159.64 1125.8 C 1155.12 1114.62 1164.82 1101.18 1176.1 1099.16 C 1178.88 1098.66 1179.11 1095.2 1179.71 1092.96 z" fill="rgb(78,205,196)" transform="translate(0,0)"></path>
<path d="M 1273.52 1312.27 C 1379.09 1286.17 1354.45 1266.96 1384.32 1183.06 C 1390.76 1205.36 1397.59 1239.85 1405.52 1260.01 C 1416.69 1284.41 1430.74 1292.92 1455.15 1301.99 C 1460.64 1304.01 1466.15 1305.99 1471.66 1307.94 C 1473.74 1309.95 1481.1 1312.82 1479.49 1314.08 C 1475.83 1316.95 1474.69 1315.3 1470.18 1319.49 C 1446.93 1328 1415.57 1337.79 1406.02 1362.27 C 1396.5 1386.65 1390.69 1417.73 1383.71 1443.23 C 1378.72 1422.78 1373.55 1400.01 1367.42 1380 C 1360.68 1334.83 1311.03 1321.6 1273.52 1312.27 z" fill="rgb(119,18,158)" transform="translate(0,0)"></path>
<path d="M 1178.8 640.798 C 1210.31 610.988 1241.47 582.273 1287.74 584.28 C 1367.19 587.727 1405.61 684.467 1402.89 752.189 C 1401.52 783.191 1391.93 813.273 1375.11 839.353 C 1361.79 860.079 1343.83 875.664 1326.07 892.416 C 1308.31 909.01 1290.66 925.717 1273.12 942.536 C 1248.83 966.187 1224.9 990.11 1201.29 1014.41 C 1193.31 1022.63 1169.68 1037.68 1158.51 1039.16 C 1162.95 1026.64 1165.9 1022.64 1179.75 1020.39 C 1179.76 1008.1 1179.52 995.818 1179.04 983.544 C 1169.49 980.692 1161.44 976.898 1159.39 965.826 C 1158.42 960.747 1159.71 955.497 1162.91 951.44 C 1167.65 945.491 1172.53 944.409 1179.57 943.416 L 1179.26 906.431 C 1169.03 903.822 1160.41 898.006 1159.17 886.552 C 1158.62 881.849 1160.03 877.126 1163.08 873.502 C 1167.77 867.988 1172.24 866.794 1178.98 866.038 C 1179.16 855.11 1179.88 841.331 1178.56 830.728 C 1177.78 824.43 1160.93 825.581 1159 812.963 C 1156.74 798.115 1165.87 791.237 1179.14 788.798 L 1178.87 752.014 C 1169.4 749.236 1161.68 746.048 1159.33 735.071 C 1158.26 730.149 1159.25 725.005 1162.07 720.834 C 1166.64 714.102 1171.69 712.606 1179.1 711.421 C 1179.23 699.764 1179.22 688.106 1179.05 676.45 C 1169.38 672.626 1165.74 671.259 1160.87 662.121 C 1165.93 654.449 1172.59 647.611 1178.8 640.798 z" fill="rgb(245,237,230)" transform="translate(0,0)"></path>
<path d="M 1471.66 1307.94 C 1479.37 1310.03 1486.33 1311.7 1493.96 1313.68 C 1486.29 1315.71 1477.95 1317.72 1470.18 1319.49 C 1474.69 1315.3 1475.83 1316.95 1479.49 1314.08 C 1481.1 1312.82 1473.74 1309.95 1471.66 1307.94 z" fill="rgb(116,23,128)" transform="translate(0,0)"></path>
<path d="M 1412.15 493.233 C 1432.5 490.179 1451.53 504.021 1454.9 524.319 C 1458.26 544.617 1444.71 563.858 1424.47 567.532 C 1411.1 569.959 1397.45 564.992 1388.77 554.534 C 1380.09 544.077 1377.71 529.753 1382.56 517.054 C 1387.4 504.355 1398.71 495.251 1412.15 493.233 z" fill="rgb(119,18,158)" transform="translate(0,0)"></path>
<path d="M 1423.76 878.864 C 1443.88 875.07 1463.3 888.176 1467.32 908.253 C 1471.33 928.33 1458.44 947.896 1438.4 952.129 C 1425.25 954.908 1411.62 950.405 1402.71 940.338 C 1393.8 930.271 1390.98 916.192 1395.34 903.473 C 1399.69 890.753 1410.55 881.355 1423.76 878.864 z" fill="rgb(78,205,196)" transform="translate(0,0)"></path>
<path d="M 535.759 1342.27 L 632.253 1342.24 C 632.306 1356.14 631.875 1373.78 632.622 1387.37 C 632.833 1401.51 632.834 1415.67 632.624 1429.81 L 632.676 1475.04 C 632.703 1485.38 632.243 1500.88 632.837 1510.79 C 632.607 1524.03 632.55 1537.28 632.667 1550.53 C 632.691 1554.78 633.077 1566.97 632.682 1570.8 C 632.664 1573.64 632.663 1576.48 632.681 1579.32 C 633.64 1589.05 632.214 1600.93 633.236 1611.02 C 633.099 1612.22 632.593 1617.62 631.673 1617.69 C 621.161 1618.54 593.513 1618.25 584.088 1618.22 C 583.77 1614.63 583.447 1610.58 583.224 1607.02 C 578.038 1586.75 570.692 1577.69 555.008 1564.77 C 541.009 1555.94 532.284 1554.04 516.148 1552.77 C 515.952 1545.55 514.882 1522.73 516.549 1517.47 L 518.863 1516.63 C 540.918 1508 541.15 1486.03 518.839 1476.54 L 517.513 1476.29 C 514.826 1472.31 515.944 1445.65 515.992 1439.13 C 524.887 1436.98 526.064 1436.2 532.678 1429.82 C 541.442 1408.01 533.056 1405.98 517.014 1396.33 C 515.578 1393.2 516.053 1390.69 516.033 1387.06 L 515.819 1361.46 C 527.729 1357.71 532.127 1354.31 535.759 1342.27 z" fill="rgb(255,209,102)" transform="translate(0,0)"></path>
<path d="M 535.759 1342.27 L 632.253 1342.24 C 632.306 1356.14 631.875 1373.78 632.622 1387.37 C 632.833 1401.51 632.834 1415.67 632.624 1429.81 L 532.678 1429.82 C 541.442 1408.01 533.056 1405.98 517.014 1396.33 C 515.578 1393.2 516.053 1390.69 516.033 1387.06 L 515.819 1361.46 C 527.729 1357.71 532.127 1354.31 535.759 1342.27 z" fill="rgb(255,209,102)" transform="translate(0,0)"></path>
<path d="M 516.033 1387.06 L 632.622 1387.37 C 632.833 1401.51 632.834 1415.67 632.624 1429.81 L 532.678 1429.82 C 541.442 1408.01 533.056 1405.98 517.014 1396.33 C 515.578 1393.2 516.053 1390.69 516.033 1387.06 z" fill="rgb(245,237,230)" transform="translate(0,0)"></path>
<path d="M 532.678 1429.82 L 632.624 1429.81 L 632.676 1475.04 C 618.405 1474.77 527.307 1474.19 518.839 1476.54 L 517.513 1476.29 C 514.826 1472.31 515.944 1445.65 515.992 1439.13 C 524.887 1436.98 526.064 1436.2 532.678 1429.82 z" fill="rgb(255,209,102)" transform="translate(0,0)"></path>
<path d="M 518.839 1476.54 C 527.307 1474.19 618.405 1474.77 632.676 1475.04 C 632.703 1485.38 632.243 1500.88 632.837 1510.79 C 632.426 1514.68 632.997 1516.01 630.96 1518.53 C 617.465 1518.72 525.248 1519.6 518.863 1516.63 C 540.918 1508 541.15 1486.03 518.839 1476.54 z" fill="rgb(245,237,230)" transform="translate(0,0)"></path>
<path d="M 555.008 1564.77 C 576.296 1561.29 609.121 1566.06 631.525 1564.46 C 631.955 1564.42 632.442 1566.06 632.458 1566.48 C 632.514 1567.95 632.469 1569.34 632.682 1570.8 C 632.664 1573.64 632.663 1576.48 632.681 1579.32 C 633.64 1589.05 632.214 1600.93 633.236 1611.02 C 633.099 1612.22 632.593 1617.62 631.673 1617.69 C 621.161 1618.54 593.513 1618.25 584.088 1618.22 C 583.77 1614.63 583.447 1610.58 583.224 1607.02 C 578.038 1586.75 570.692 1577.69 555.008 1564.77 z" fill="rgb(245,237,230)" transform="translate(0,0)"></path>
<path d="M 632.681 1579.32 C 633.64 1589.05 632.214 1600.93 633.236 1611.02 C 633.099 1612.22 632.593 1617.62 631.673 1617.69 C 621.161 1618.54 593.513 1618.25 584.088 1618.22 C 583.77 1614.63 583.447 1610.58 583.224 1607.02 C 599.48 1607.22 615.998 1606.98 632.31 1607.07 C 632.396 1602.35 632.203 1582.47 632.681 1579.32 z" fill="rgb(255,209,102)" transform="translate(0,0)"></path>
<path d="M 534.784 721.12 C 567.312 720.832 599.843 721.072 632.363 721.841 L 632.376 765.911 C 632.452 780.245 632.401 794.581 632.222 808.914 L 632.166 854.96 L 632.118 897.698 C 632.163 912.126 631.735 929.695 632.39 943.861 L 535.931 943.925 C 531.441 934.42 526.82 931.042 516.925 928.229 C 516.04 917.957 516.787 907.327 515.542 897.249 C 515.686 894.712 515.519 894.74 516.73 892.557 C 517.913 891.975 519.083 891.366 520.238 890.729 C 535.927 881.988 540.686 871.712 530.561 855.755 C 524.619 852.015 523.023 851.136 516.433 848.624 L 516.353 811.557 C 519.663 810.941 523.42 809.616 526.691 808.574 C 529.59 805.777 531.967 802.485 533.708 798.853 C 543.502 778.178 519.748 775.421 515.349 767.5 C 516.904 761.423 516.243 741.92 516.156 734.676 C 526.079 731.59 529.885 730.14 534.784 721.12 z" fill="rgb(255,209,102)" transform="translate(0,0)"></path>
<path d="M 530.561 855.755 C 535.3 854.642 558.041 854.932 563.839 854.931 L 632.166 854.96 L 632.118 897.698 C 632.163 912.126 631.735 929.695 632.39 943.861 L 535.931 943.925 C 531.441 934.42 526.82 931.042 516.925 928.229 C 516.04 917.957 516.787 907.327 515.542 897.249 C 515.686 894.712 515.519 894.74 516.73 892.557 C 517.913 891.975 519.083 891.366 520.238 890.729 C 535.927 881.988 540.686 871.712 530.561 855.755 z" fill="rgb(255,209,102)" transform="translate(0,0)"></path>
<path d="M 530.561 855.755 C 535.3 854.642 558.041 854.932 563.839 854.931 L 632.166 854.96 L 632.118 897.698 C 593.242 896.819 554.197 898.368 515.542 897.249 C 515.686 894.712 515.519 894.74 516.73 892.557 C 517.913 891.975 519.083 891.366 520.238 890.729 C 535.927 881.988 540.686 871.712 530.561 855.755 z" fill="rgb(245,237,230)" transform="translate(0,0)"></path>
<path d="M 516.353 811.557 C 519.663 810.941 523.42 809.616 526.691 808.574 C 539.077 809.581 555.076 809.144 567.777 809.115 L 632.222 808.914 L 632.166 854.96 L 563.839 854.931 C 558.041 854.932 535.3 854.642 530.561 855.755 C 524.619 852.015 523.023 851.136 516.433 848.624 L 516.353 811.557 z" fill="rgb(255,209,102)" transform="translate(0,0)"></path>
<path d="M 515.349 767.5 C 520.426 764.973 618.629 765.92 632.376 765.911 C 632.452 780.245 632.401 794.581 632.222 808.914 L 567.777 809.115 C 555.076 809.144 539.077 809.581 526.691 808.574 C 529.59 805.777 531.967 802.485 533.708 798.853 C 543.502 778.178 519.748 775.421 515.349 767.5 z" fill="rgb(245,237,230)" transform="translate(0,0)"></path>
<path d="M 585.334 422.06 C 591.729 422.058 623.967 421.531 631.955 422.546 C 632.658 422.635 632.75 426.224 632.791 427.564 C 632.064 436.807 632.125 446.742 632.178 456.032 L 632.403 501.799 L 632.329 543.329 C 632.422 558.311 632.228 574.294 632.654 589.187 C 632.829 603.583 632.73 617.981 632.356 632.374 C 600.674 632.489 568.043 632.989 536.437 632.432 C 533.202 619.874 528.883 616.495 516.714 612.479 L 516.744 588.732 C 515.772 566.707 526.274 579.832 534.971 563.451 C 537.425 558.828 534.962 548.885 532.803 543.987 C 526.397 537.453 524.898 536.826 515.985 534.525 L 515.997 501.904 L 515.948 487.056 C 520.312 486.984 524.668 486.645 528.991 486.039 C 550.62 483.183 562.94 472.448 575.735 455.773 C 581.663 442.987 583.947 436.137 585.334 422.06 z" fill="rgb(255,209,102)" transform="translate(0,0)"></path>
<path d="M 632.329 543.329 C 632.422 558.311 632.228 574.294 632.654 589.187 C 632.829 603.583 632.73 617.981 632.356 632.374 C 600.674 632.489 568.043 632.989 536.437 632.432 C 533.202 619.874 528.883 616.495 516.714 612.479 L 516.744 588.732 C 515.772 566.707 526.274 579.832 534.971 563.451 C 537.425 558.828 534.962 548.885 532.803 543.987 L 632.329 543.329 z" fill="rgb(245,237,230)" transform="translate(0,0)"></path>
<path d="M 632.329 543.329 C 632.422 558.311 632.228 574.294 632.654 589.187 C 621.477 588.545 605.556 588.994 594.087 588.96 L 516.744 588.732 C 515.772 566.707 526.274 579.832 534.971 563.451 C 537.425 558.828 534.962 548.885 532.803 543.987 L 632.329 543.329 z" fill="rgb(255,209,102)" transform="translate(0,0)"></path>
<path d="M 515.997 501.904 C 554.371 501.81 594.091 501.303 632.403 501.799 L 632.329 543.329 L 532.803 543.987 C 526.397 537.453 524.898 536.826 515.985 534.525 L 515.997 501.904 z" fill="rgb(245,237,230)" transform="translate(0,0)"></path>
<path d="M 585.334 422.06 C 591.729 422.058 623.967 421.531 631.955 422.546 C 632.658 422.635 632.75 426.224 632.791 427.564 C 632.064 436.807 632.125 446.742 632.178 456.032 C 614.604 455.516 592.372 456.884 575.735 455.773 C 581.663 442.987 583.947 436.137 585.334 422.06 z" fill="rgb(245,237,230)" transform="translate(0,0)"></path>
<path d="M 516.13 1076.85 C 527.075 1076.82 579.299 1075.88 587.122 1077.52 L 588.743 1078.14 C 605.147 1084.19 627.965 1084.07 632.776 1105.73 L 632.969 1120.96 L 632.849 1165.99 L 632.732 1211.04 C 632.644 1224.91 632.775 1239.47 632.378 1253.28 C 606.335 1253.1 558.31 1255.25 534.933 1253.32 C 530.58 1246.06 526.169 1242.67 518.262 1240.09 C 515.199 1235.96 516.036 1216.58 516.013 1210.47 C 516.611 1204.75 519.254 1204.96 523.922 1201.75 C 538.753 1191.54 540.584 1180.29 527.607 1167 C 523.043 1164.87 521.032 1164.5 516.073 1163.36 L 516.248 1126.36 C 522.579 1124.8 524.293 1124.56 529.948 1121.11 C 545.37 1102.7 532.824 1092.31 516.79 1084.28 C 515.866 1083.82 516.155 1078.21 516.13 1076.85 z" fill="rgb(245,237,230)" transform="translate(0,0)"></path>
<path d="M 632.849 1165.99 L 632.732 1211.04 C 632.644 1224.91 632.775 1239.47 632.378 1253.28 C 606.335 1253.1 558.31 1255.25 534.933 1253.32 C 530.58 1246.06 526.169 1242.67 518.262 1240.09 C 515.199 1235.96 516.036 1216.58 516.013 1210.47 C 516.611 1204.75 519.254 1204.96 523.922 1201.75 C 538.753 1191.54 540.584 1180.29 527.607 1167 C 561.401 1165.91 598.862 1166.25 632.849 1165.99 z" fill="rgb(245,237,230)" transform="translate(0,0)"></path>
<path d="M 632.849 1165.99 L 632.732 1211.04 C 622.839 1210.33 603.926 1210.89 593.424 1210.88 C 567.62 1210.91 541.816 1210.78 516.013 1210.47 C 516.611 1204.75 519.254 1204.96 523.922 1201.75 C 538.753 1191.54 540.584 1180.29 527.607 1167 C 561.401 1165.91 598.862 1166.25 632.849 1165.99 z" fill="rgb(255,209,102)" transform="translate(0,0)"></path>
<path d="M 516.13 1076.85 C 527.075 1076.82 579.299 1075.88 587.122 1077.52 L 588.743 1078.14 C 605.147 1084.19 627.965 1084.07 632.776 1105.73 L 632.969 1120.96 L 529.948 1121.11 C 545.37 1102.7 532.824 1092.31 516.79 1084.28 C 515.866 1083.82 516.155 1078.21 516.13 1076.85 z" fill="rgb(255,209,102)" transform="translate(0,0)"></path>
<path d="M 535.931 943.925 L 632.39 943.861 C 632.686 957.957 632.656 972.058 632.301 986.152 C 632.25 1001.22 631.949 1017 632.192 1032 C 632.243 1036.51 632.135 1046.15 632.689 1050.16 C 628.827 1067.24 602.401 1075.15 587.122 1077.52 C 579.299 1075.88 527.075 1076.82 516.13 1076.85 C 516.087 1067.68 516.01 1059.31 516.613 1050.13 C 517.534 1049.72 518.453 1049.3 519.368 1048.88 C 528.431 1044.68 531.677 1042.77 535.183 1033.17 C 535.301 1016.48 531.772 1011.53 516.527 1005.5 C 516.349 993.52 516.343 981.534 516.509 969.549 C 531.117 965.589 536.237 959.331 535.931 943.925 z" fill="rgb(255,209,102)" transform="translate(0,0)"></path>
<path d="M 535.183 1033.17 C 542.358 1031.74 561.989 1032.33 570.577 1032.32 L 632.192 1032 C 632.243 1036.51 632.135 1046.15 632.689 1050.16 C 628.827 1067.24 602.401 1075.15 587.122 1077.52 C 579.299 1075.88 527.075 1076.82 516.13 1076.85 C 516.087 1067.68 516.01 1059.31 516.613 1050.13 C 517.534 1049.72 518.453 1049.3 519.368 1048.88 C 528.431 1044.68 531.677 1042.77 535.183 1033.17 z" fill="rgb(245,237,230)" transform="translate(0,0)"></path>
<path d="M 535.931 943.925 L 632.39 943.861 C 632.686 957.957 632.656 972.058 632.301 986.152 C 593.939 985.868 555.088 987.262 516.744 986.436 L 516.509 969.549 C 531.117 965.589 536.237 959.331 535.931 943.925 z" fill="rgb(245,237,230)" transform="translate(0,0)"></path>
<path d="M 646.508 1003.95 C 658.278 1051.52 655.839 1066.17 708.407 1078.71 C 655.125 1087.86 657.77 1106.14 646.468 1152.19 C 642.701 1140.83 636.735 1113.1 632.776 1105.73 C 627.965 1084.07 605.147 1084.19 588.743 1078.14 L 587.122 1077.52 C 602.401 1075.15 628.827 1067.24 632.689 1050.16 C 636.119 1043.76 643.547 1013.13 646.508 1003.95 z" fill="rgb(119,18,158)" transform="translate(0,0)"></path>
<path d="M 1109.52 1613.91 C 1110.8 1595.26 1112.41 1583.12 1126.5 1568.01 C 1132.26 1561.83 1143.27 1554.16 1152.15 1554.18 L 1151.11 1555.6 C 1136.29 1575.57 1140.17 1597.17 1139.83 1620.75 C 1129.97 1620.94 1092.89 1621.51 1080.78 1620.32 C 1080.39 1620.28 1078.98 1617.21 1079.01 1617.03 C 1079.02 1617.01 1078.1 1615.1 1078.1 1615.08 C 1082.76 1613.65 1103.18 1613.99 1109.52 1613.91 z" fill="rgb(255,209,102)" transform="translate(0,0)"></path>
<path d="M 1079.61 421.943 C 1081.72 417.934 1105.04 419.777 1110.77 419.855 C 1120.28 419.995 1129.74 419.838 1139.25 419.91 C 1139.66 443.982 1136.48 459.289 1148.67 480.436 C 1143.55 479.862 1137.8 475.876 1134 472.505 C 1117.21 457.609 1112.41 444.531 1111.08 422.92 C 1103.15 422.963 1086.21 423.808 1079.61 421.943 z" fill="rgb(255,209,102)" transform="translate(0,0)"></path>
<path d="M 967.833 1614.04 C 971 1606.89 972.103 1603.58 981.004 1601.32 C 985.062 1600.29 991.085 1600.04 994.695 1602.55 L 996.272 1603.54 C 980.826 1604.74 978.835 1607.29 972.782 1621.21 C 959.047 1621.47 945.197 1621.35 931.45 1621.4 C 920.927 1621.44 921.355 1623.29 920.367 1614.39 C 935.577 1613.78 952.379 1614.28 967.833 1614.04 z" fill="rgb(255,209,102)" transform="translate(0,0)"></path>
<path d="M 1035.9 1614.12 C 1038.81 1608.52 1041.42 1603.03 1048 1601.34 C 1049.76 1600.89 1061.25 1600.07 1061.53 1602.5 C 1059.77 1603.2 1057.83 1603.3 1055.97 1603.55 C 1045.55 1608 1045.68 1610.75 1042.19 1621.07 C 1034.55 1621.02 1020.64 1621.82 1012.88 1620.55 C 1012.37 1620.47 1010.49 1616.07 1010.07 1615.24 C 1017.47 1614.1 1028.04 1614.31 1035.9 1614.12 z" fill="rgb(255,209,102)" transform="translate(0,0)"></path>
<path d="M 921.059 423.045 L 921.24 421.621 C 921.271 421.305 921.5 419.635 921.874 419.623 C 938.449 419.07 956.38 418.933 972.91 419.032 L 973.598 420.804 C 976.765 429.179 976.066 429.316 982.851 435.032 C 975.741 437.799 972.235 430.127 968.206 425.063 L 966.618 424.862 C 955.212 423.334 928.417 424.74 921.059 423.045 z" fill="rgb(255,209,102)" transform="translate(0,0)"></path>
<path d="M 1011.47 421.307 C 1015 418.396 1035.06 419.796 1041.69 419.804 C 1044.38 428.207 1043.82 427.993 1050.16 434.838 C 1042.07 434.871 1041.11 429.734 1036.17 423.669 L 1035.63 423.017 C 1028.49 422.784 1017.08 423.857 1011.47 421.307 z" fill="rgb(255,209,102)" transform="translate(0,0)"></path>
<path d="M 740.387 1446.03 C 722.124 1440.02 705.052 1409.73 698.818 1392.94 C 681.065 1345.11 702.42 1281.55 724.349 1237.6 C 760.247 1165.65 862.003 1017.78 939.635 991.822 C 964.965 983.169 992.724 985.177 1016.54 997.385 C 1062.88 1020.59 1080.58 1072.65 1079.93 1121.5 C 1079.25 1173.25 1063.58 1218.49 1040.73 1264.01 C 1051.98 1294.03 1092.5 1305.66 1120.38 1313.37 L 1123.57 1313.83 C 1129 1314.66 1122.99 1316.64 1121.65 1317.2 C 1096.89 1323.24 1051.5 1337.28 1041.53 1361.31 C 1031.8 1384.76 1022.65 1420.85 1016.87 1445.89 C 1012.97 1428.45 1006.99 1397.96 1001.39 1381.89 C 938.117 1458.88 841.337 1504.81 746.988 1452.2 C 743.432 1449.25 743.546 1448.22 742.325 1443.73 L 741.363 1443.46 L 740.387 1446.03 z" fill="rgb(78,205,196)" transform="translate(0,0)"></path>
<path d="M 1017.07 1181.68 C 1022.9 1200.28 1034.43 1250.44 1040.73 1264.01 C 1051.98 1294.03 1092.5 1305.66 1120.38 1313.37 L 1123.57 1313.83 C 1129 1314.66 1122.99 1316.64 1121.65 1317.2 C 1096.89 1323.24 1051.5 1337.28 1041.53 1361.31 C 1031.8 1384.76 1022.65 1420.85 1016.87 1445.89 C 1012.97 1428.45 1006.99 1397.96 1001.39 1381.89 C 988.501 1333.22 951.596 1327.01 908.448 1313.09 C 933.625 1305.36 980.645 1294.72 992.122 1269.76 C 1002.14 1247.95 1012.51 1205.65 1017.07 1181.68 z" fill="rgb(119,18,158)" transform="translate(0,0)"></path>
<path d="M 1120.38 1313.37 L 1123.57 1313.83 C 1129 1314.66 1122.99 1316.64 1121.65 1317.2 C 1121.21 1315.93 1120.79 1314.65 1120.38 1313.37 z" fill="rgb(116,23,128)" transform="translate(0,0)"></path>
<path d="M 918.084 584.451 C 931.496 584.516 945.633 586.416 957.558 592.364 C 1048.98 637.965 1064.26 785.947 996.053 857.52 C 969.829 885.039 941.703 909.156 915.124 935.444 C 900.406 949.929 885.874 964.601 871.532 979.458 C 848.616 1003.45 835.9 1021.45 803.676 1033.12 C 796.428 1035.5 788.893 1036.88 781.274 1037.23 C 724.042 1040.03 684.153 985.017 684.103 931.713 C 684.005 825.622 747.655 718.495 816.892 641.618 C 844.267 611.222 876.429 586.096 918.084 584.451 z" fill="rgb(245,237,230)" transform="translate(0,0)"></path>
<path d="M 745.025 529.605 C 748.827 534.066 757.499 577.258 763.257 588.594 C 775.245 612.197 802.716 618.78 826.372 627.156 C 814.405 629.92 803.534 634.08 791.992 638.002 C 753.359 651.128 759.134 690.821 745.345 724.15 C 722.22 656.543 744.779 647.626 663.594 625.087 C 731.479 612.992 730.258 587.667 745.025 529.605 z" fill="rgb(119,18,158)" transform="translate(0,0)"></path>
<path d="M 1052.56 490.572 C 1065.94 487.461 1079.95 491.811 1089.22 501.951 C 1098.48 512.09 1101.55 526.44 1097.25 539.483 C 1092.95 552.527 1081.94 562.234 1068.46 564.872 C 1048.13 568.854 1028.35 555.803 1024.01 535.537 C 1019.67 515.271 1032.37 495.266 1052.56 490.572 z" fill="rgb(119,18,158)" transform="translate(0,0)"></path>
<path d="M 740.387 1446.03 L 741.363 1443.46 L 742.325 1443.73 C 743.546 1448.22 743.432 1449.25 746.988 1452.2 C 746.74 1457.27 750.643 1470.73 753.224 1475.36 C 760.747 1488.83 775.797 1493.1 789.715 1497 C 750.471 1507.14 750.028 1521.35 742.436 1557.6 C 733.2 1517.54 735.877 1508.71 693.514 1497.13 C 705.827 1493.92 717.498 1491.16 726.609 1481.6 C 731.566 1476.39 740.718 1452.08 740.387 1446.03 z" fill="rgb(119,18,158)" transform="translate(0,0)"></path>
<path d="M 536.437 632.432 C 568.043 632.989 600.674 632.489 632.356 632.374 C 632.118 647.269 632.147 662.167 632.445 677.06 C 632.733 691.986 632.705 706.916 632.363 721.841 C 599.843 721.072 567.312 720.832 534.784 721.12 C 537.811 703.405 531.888 696.657 515.918 691.357 L 515.851 677.347 L 515.929 654.264 C 529.974 650.763 533.931 646.673 536.437 632.432 z" fill="rgb(255,209,102)" transform="translate(0,0)"></path>
<path d="M 515.851 677.347 L 632.445 677.06 C 632.733 691.986 632.705 706.916 632.363 721.841 C 599.843 721.072 567.312 720.832 534.784 721.12 C 537.811 703.405 531.888 696.657 515.918 691.357 L 515.851 677.347 z" fill="rgb(245,237,230)" transform="translate(0,0)"></path>
<path d="M 632.378 1253.28 L 632.245 1299.13 L 632.253 1342.24 L 535.759 1342.27 C 535.077 1328.81 529.687 1322.27 516.475 1319.96 C 515.706 1312.27 516.25 1291.2 516.238 1282.53 C 533.307 1278.83 538.165 1270.18 534.933 1253.32 C 558.31 1255.25 606.335 1253.1 632.378 1253.28 z" fill="rgb(255,209,102)" transform="translate(0,0)"></path>
<path d="M 516.701 1299.13 L 632.245 1299.13 L 632.253 1342.24 L 535.759 1342.27 C 535.077 1328.81 529.687 1322.27 516.475 1319.96 L 516.701 1299.13 z" fill="rgb(245,237,230)" transform="translate(0,0)"></path>
<metadata><recraft-signature>{"signed_by": "recraft", "signature_b64": "jMGKI31bUfDTdmExxoEUb8pbXhYjuyx4htORROMn+CVA61Xa/a5ju9ayzZsWlvfleAC2bI8ltwZJuxpdROnHBw==", "signing_algo": "Ed25519", "generation_timestamp": 1783344403, "identifier": "771f4cc3-7d1e-4f09-890c-06319e0f6e4a"}</recraft-signature></metadata></svg>