<svg xmlns="http://www.w3.org/2000/svg" height="1024" preserveAspectRatio="none" style="display: block;" version="1.1" viewBox="0 0 2048 2048" width="1024">
<path d="M 0 0 L 2048 0 L 2048 2048 L 1883.5 2048 L 1798.74 2048 L 1797.12 2048 L 1638.7 2048 L 1420.58 2048 L 756.179 2048 L 752.493 2048 L 750.364 2048 L 668.05 2048 L 467.904 2048 L 463.601 2048 L 233.554 2048 L 231.578 2048 L 0 2048 L 0 0 z" fill="rgb(102,20,83)" transform="translate(0,0)"></path>
<path d="M 666.627 390.312 C 788.622 245.819 957.346 203.073 1132.95 276.436 C 1136.7 275.021 1145.2 274.798 1149.55 274.554 C 1185.55 272.831 1221.47 279.499 1254.46 294.033 C 1256.1 294.764 1257.09 295.298 1258.67 296.153 C 1260.36 296.923 1263.61 298.202 1264.89 299.283 C 1273.55 302.792 1280.61 307.212 1288.15 312.694 C 1291.56 314.558 1291.94 314.838 1294.95 317.319 C 1307.28 323.367 1342.98 354.928 1348.94 366.851 C 1351.85 369.218 1354.04 372.622 1355.82 375.927 C 1361.77 380.544 1374.96 406.894 1378.88 415.138 C 1438.84 393.728 1502.9 414.247 1528.28 477.034 C 1535.68 495.323 1534.39 514.279 1532.37 533.574 C 1568.25 523.715 1611.61 524.774 1643.46 544.55 C 1644.78 545.371 1647.43 546.76 1648.09 548.15 C 1656.09 552.701 1666.03 561.389 1671.64 568.676 C 1701.77 603.569 1703.93 647.753 1691.43 690.27 C 1713.02 682.339 1734.93 678.85 1757.43 687.928 C 1759.68 688.834 1766.77 692.483 1768.13 694.318 C 1770.14 695.423 1773.11 696.579 1774.08 698.201 C 1782.93 702.846 1796.77 717.325 1799.71 726.905 C 1805.48 737.123 1808.74 748.566 1809.22 760.292 C 1812.82 769.657 1805.96 790.583 1802 799.522 C 1800.26 803.379 1798.46 807.209 1796.6 811.013 C 1820.6 810.428 1840.45 814.188 1859.27 830.337 C 1863.88 834.249 1866.71 836.492 1869.98 841.818 C 1879.23 849.217 1886.45 871.479 1887.63 883.061 C 1891.46 920.844 1874.98 945.907 1844.14 965.5 C 1873.96 976.221 1893.06 991.792 1903.47 1022.74 C 1907.9 1038.31 1908.46 1045.17 1906.55 1061.25 C 1905.18 1067.92 1901.82 1081.55 1897.49 1086.78 C 1895.87 1090.28 1895.46 1091.23 1893.22 1094.31 C 1882.44 1118.06 1848.33 1134.89 1823.28 1136.58 C 1834.17 1148.9 1838.33 1154.14 1843.51 1169.7 C 1847.18 1183.76 1847.85 1191.99 1845.6 1206.31 C 1842.11 1226.79 1830.64 1245.06 1813.7 1257.09 C 1791.64 1272.69 1770.62 1273.49 1745.42 1266.33 C 1746.62 1272.86 1747.01 1277.46 1747.61 1283.94 C 1751.76 1329.25 1696.16 1383.29 1651.41 1356.88 C 1647.74 1355.17 1643.86 1353.44 1640.28 1351.57 C 1639.61 1357.01 1638.84 1365.22 1637.51 1370.3 C 1633.19 1389.65 1624.02 1401.64 1608.23 1413.13 C 1603.52 1416.55 1603.27 1416.78 1606.57 1421.15 C 1606.07 1420.96 1601.97 1419.48 1601.97 1419.48 C 1569.81 1431.52 1554.65 1436.93 1522.21 1417.55 C 1502.12 1444.88 1479.03 1461.83 1443.28 1457.81 C 1439.85 1458.31 1438.35 1458.08 1435.26 1459.53 C 1430.68 1458.08 1426.09 1456.69 1421.42 1455.52 C 1389.81 1449.81 1373.97 1450.01 1343.72 1458.55 C 1335.34 1455.66 1318.36 1451.19 1309.71 1450.73 C 1304.33 1448.92 1280.56 1444.62 1274.06 1443.37 L 1270.19 1444.42 C 1269.09 1448.36 1272.51 1462.3 1272.96 1467.51 C 1279.37 1541.03 1246.02 1620.61 1189.11 1668.04 L 1186.75 1667.77 C 1181.7 1671.47 1176.49 1675.23 1171.51 1679 C 1119.26 1718.5 1050.9 1729.25 994.166 1693.3 C 993.758 1692.81 993.708 1692.87 993.014 1692.49 L 992.241 1694.42 L 981.394 1686.01 C 980.468 1685.35 980.517 1685.5 979.96 1684.65 C 976.485 1681.55 972.833 1677.58 969.551 1674.19 C 930.908 1631.79 930.238 1576.2 937.155 1522.46 C 930.904 1529.6 925.341 1540.92 920.312 1545.95 C 923.35 1537.41 932.807 1525.55 938.317 1517.78 C 906.304 1516.48 807.889 1561.12 791.69 1589 L 790.485 1586.89 C 783.119 1590.39 760.81 1614.14 754.511 1621.21 L 753.941 1619.51 C 762.42 1609.25 770.57 1602.48 779.234 1592.8 C 771.748 1594.87 764.735 1596.81 757.156 1598.49 C 744.298 1600.93 735.709 1601.46 722.757 1599.6 C 703.835 1596.71 681.679 1582.93 672.022 1566.22 C 671.732 1566 670.903 1564.6 670.665 1564.23 C 659.817 1550.39 658.075 1530.68 657.874 1513.86 C 654.453 1517.1 651.426 1519.96 647.569 1522.71 C 630.822 1534.55 609.98 1539.07 589.834 1535.22 C 569.474 1531.71 551.388 1520.15 539.668 1503.13 L 537.671 1500.17 C 535.137 1496.65 534.576 1496.14 533.235 1492.12 C 526.845 1481.78 524.331 1464.43 524.842 1452.49 C 525.033 1448.04 526.106 1444.12 525.515 1439.7 L 523.63 1439.48 C 519.956 1443.58 512.612 1447.86 507.637 1450.32 C 474.176 1466.87 423.703 1451.46 407.399 1417 C 397.107 1401.21 396.207 1384.24 397.309 1366.23 C 398.946 1353.82 401.447 1348.03 406.096 1336.13 C 388.971 1336.25 375.986 1335.4 360.043 1328.24 C 340.993 1319.68 323.287 1304.95 315.683 1285 C 314.631 1282.86 313.192 1279.01 312.417 1276.65 C 305.718 1255.95 307.605 1233.42 317.654 1214.12 C 320.988 1207.49 322.609 1205.37 327.122 1199.76 C 307.442 1192.87 288.348 1179.76 281.24 1159.2 C 272.063 1142.7 271.245 1114.15 279.864 1097.32 C 280.17 1087.85 295.915 1072.96 303.024 1067.16 C 296.718 1060.67 291.136 1055.4 287.373 1047.04 C 285.912 1044.51 284.741 1042.31 283.678 1039.58 C 276.099 1020.65 276.488 999.463 284.756 980.823 C 289.559 969.308 302.587 953.879 314.006 948.409 C 322.953 942.496 333.818 940.073 344.11 937.772 L 340.737 932.092 C 337.983 927.544 335.625 922.768 333.687 917.817 C 326.388 898.644 326.651 875.538 335.226 856.774 C 339.432 842.143 356.392 825.357 369.966 818.921 C 378.813 814.525 383.753 812.441 393.548 810.776 C 399.653 808.062 413.785 809.545 416.794 806.539 C 401.049 778.587 398.888 729.569 414.271 700.908 C 415.444 695.976 420.592 688.908 423.612 684.854 C 424.606 682.583 428.066 678.633 429.976 676.838 C 441.104 661.737 463.06 648.9 480.88 643.545 C 485.5 642.107 492.793 640.677 497.736 639.571 C 499.303 612.514 510.846 576.466 523.177 551.869 C 527.307 539.442 542.692 512.659 550.578 501.814 C 553.562 496.14 557.945 490.414 561.697 485.154 C 576.857 458.812 628.817 412.989 655.507 397.469 C 658.97 395.454 663.407 391.45 666.627 390.312 z" fill="rgb(43,30,46)" transform="translate(0,0)"></path>
<path d="M 666.627 390.312 C 788.622 245.819 957.346 203.073 1132.95 276.436 C 1149.36 283.888 1164.06 290.465 1179.63 299.656 C 1267.13 351.349 1334.63 431.06 1371.19 525.886 C 1402.77 609.083 1406.37 700.308 1381.43 785.732 C 1379.71 782.085 1380.4 777.708 1379.88 772.85 C 1379.87 768.278 1379.78 763.707 1379.6 759.138 C 1375.45 640.843 1328.5 539.283 1241.74 458.66 C 1155.68 379.118 1041.81 336.58 924.681 340.217 C 814.396 344.336 695.712 394.814 620.35 476.056 C 618.73 477.969 618.684 477.93 616.584 479.343 L 615.903 478.244 L 617.207 474.895 C 634.446 438.059 642.665 423.167 666.627 390.312 z" fill="rgb(255,209,102)" transform="translate(0,0)"></path>
<path d="M 964.902 1512.39 C 963.561 1523.39 966.932 1550.56 969.398 1561.41 C 977.285 1596.08 992.198 1629.76 1022.99 1649.58 C 1043.1 1662.56 1067.57 1666.94 1090.94 1661.75 C 1176.46 1642.97 1230.33 1545.87 1238.03 1463.9 C 1238.69 1456.91 1235.84 1444.21 1239.6 1438.34 L 1244.15 1437.57 C 1248.77 1438.57 1253.06 1439.5 1257.63 1440.76 C 1263.86 1441.36 1267.96 1442.15 1274.06 1443.37 L 1270.19 1444.42 C 1269.09 1448.36 1272.51 1462.3 1272.96 1467.51 C 1279.37 1541.03 1246.02 1620.61 1189.11 1668.04 L 1186.75 1667.77 C 1181.7 1671.47 1176.49 1675.23 1171.51 1679 C 1119.26 1718.5 1050.9 1729.25 994.166 1693.3 C 993.758 1692.81 993.708 1692.87 993.014 1692.49 C 984.117 1686.26 977.904 1680.34 970.496 1672.52 C 968.864 1670.36 967.212 1668.38 965.546 1666.26 C 930.687 1622.03 933.657 1571.09 939.666 1518.93 C 943.414 1517.27 956.458 1515.57 964.902 1512.39 z" fill="rgb(255,90,31)" transform="translate(0,0)"></path>
<path d="M 1257.63 1440.76 C 1263.86 1441.36 1267.96 1442.15 1274.06 1443.37 L 1270.19 1444.42 C 1269.09 1448.36 1272.51 1462.3 1272.96 1467.51 C 1279.37 1541.03 1246.02 1620.61 1189.11 1668.04 L 1186.75 1667.77 C 1190.87 1663.19 1197.04 1658.15 1201.59 1653.52 C 1258.14 1595.94 1280.65 1522.55 1267.07 1443.42 C 1264.21 1442.87 1260.52 1441.63 1257.63 1440.76 z" fill="rgb(43,30,46)" transform="translate(0,0)"></path>
<path d="M 1210.53 1404.69 C 1218.13 1402.52 1257.02 1403.2 1268.26 1403.2 L 1375.24 1403.1 C 1388.83 1432.19 1396.31 1439.76 1425.76 1453.4 L 1421.42 1455.52 C 1389.81 1449.81 1373.97 1450.01 1343.72 1458.55 C 1335.34 1455.66 1318.36 1451.19 1309.71 1450.73 C 1304.33 1448.92 1280.56 1444.62 1274.06 1443.37 C 1267.96 1442.15 1263.86 1441.36 1257.63 1440.76 C 1253.06 1439.5 1248.77 1438.57 1244.15 1437.57 C 1234.74 1435.77 1224.9 1433.66 1215.41 1432.68 L 1210.53 1404.69 z" fill="rgb(78,205,196)" transform="translate(0,0)"></path>
<path d="M 1425.76 1453.4 C 1433.36 1455.68 1435.41 1456.24 1443.28 1457.81 C 1439.85 1458.31 1438.35 1458.08 1435.26 1459.53 C 1430.68 1458.08 1426.09 1456.69 1421.42 1455.52 L 1425.76 1453.4 z" fill="rgb(42,225,247)" transform="translate(0,0)"></path>
<path d="M 1379.88 772.85 C 1380.4 777.708 1379.71 782.085 1381.43 785.732 C 1381.22 786.756 1381 789.924 1379.63 790.3 C 1378.26 789.284 1379.63 774.925 1379.88 772.85 z" fill="rgb(210,171,68)" transform="translate(0,0)"></path>
<path d="M 819.897 643.34 C 832.349 664.248 846.181 677.533 870.589 683.647 C 890.77 688.891 912.214 685.733 930.026 674.894 C 948.974 663.328 959.64 647.877 965.459 626.794 C 970.357 651.456 978.027 669.985 1000.06 684.491 C 1018.25 696.583 1040.58 700.741 1061.9 696.006 C 1081.41 691.699 1098.41 678.636 1108.86 661.78 C 1111.33 657.747 1113.62 653.601 1115.72 649.357 C 1111.93 719.572 1188.27 759.91 1243.91 717.052 C 1232.43 766.765 1253.49 805.3 1304.22 816.69 C 1302.41 824.772 1301.03 830.537 1300.5 840.506 C 1298.88 871.502 1316.6 903.375 1345.8 915.447 C 1346.09 915.494 1346.38 915.54 1346.67 915.587 L 1345.55 920.791 C 1342.88 933.593 1340.33 948.482 1339.79 961.602 C 1351.51 960.61 1357.22 959.601 1368.07 965.121 C 1389.8 982.413 1396.65 1004.68 1377.55 1027.46 C 1374.93 1030.58 1369.39 1034.86 1368.56 1038.25 L 1368.72 1038.82 C 1380.4 1047.42 1389.69 1052.91 1403.43 1058.08 C 1406.14 1059.84 1409 1061.79 1411.78 1063.4 C 1420.71 1063.16 1424.97 1062.32 1433.06 1066.04 C 1445.67 1075.3 1454.04 1083.76 1460.66 1098.35 C 1416.91 1117.84 1372.63 1115.29 1338.56 1079.16 C 1314.19 1196.59 1243.89 1299.42 1143.31 1364.74 C 1102.41 1391.34 1057.5 1411.19 1010.3 1423.52 C 1002.5 1425.53 988.61 1429.02 980.966 1429.38 C 979.567 1429.95 976.394 1430.41 974.732 1430.69 C 884.896 1444.79 793.108 1423.14 719.05 1370.37 C 642.022 1314.98 590.218 1231.21 575.083 1137.55 C 568.144 1094.94 568 1055.25 571.372 1012.44 C 571.768 1007.41 572.161 991.548 574.61 988.138 C 577.179 987.441 578.417 987.428 580.212 985.318 C 609.093 915.866 672.861 879.861 746.193 903.234 C 732.997 907.614 721.304 911.629 711.052 921.612 C 663.16 968.253 699.755 1049.91 766.807 1043.28 C 772.656 1042.7 777.11 1041.5 782.813 1040.38 C 790.006 1036.76 796.895 1032.55 803.827 1028.45 C 824.475 1008.7 819.607 1008.99 830.238 988.041 L 831.142 986.293 C 827.971 965.295 822.516 952.31 812.157 934.235 C 794.996 909.567 775.809 891.449 748.335 878.522 C 718.678 864.398 684.573 862.859 653.764 874.254 C 618.301 887.446 589.603 914.299 574.087 948.809 C 572.996 935.426 573.211 914.392 573.79 900.795 C 573.512 894.497 572.948 868.484 573.65 863.179 C 571.482 852.508 572.445 768.072 573.762 755.477 C 574.086 752.642 573.417 753.588 575.047 752.032 C 581.046 753.123 589.085 755.314 594.902 755.529 C 646.774 757.442 673.483 723.767 677.196 676.441 C 690.679 690.748 702.228 700.802 722.017 705.612 C 741.954 710.268 762.921 706.913 780.41 696.27 C 799.115 684.831 810.696 666.931 815.839 645.861 L 817.204 640.85 L 818.158 640.402 L 819.897 643.34 z" fill="rgb(253,152,58)" transform="translate(0,0)"></path>
<path d="M 1285.8 943.231 C 1308.19 931.34 1320.9 925.347 1345.55 920.791 C 1342.88 933.593 1340.33 948.482 1339.79 961.602 C 1351.51 960.61 1357.22 959.601 1368.07 965.121 C 1389.8 982.413 1396.65 1004.68 1377.55 1027.46 C 1374.93 1030.58 1369.39 1034.86 1368.56 1038.25 L 1368.72 1038.82 C 1380.4 1047.42 1389.69 1052.91 1403.43 1058.08 C 1406.14 1059.84 1409 1061.79 1411.78 1063.4 C 1420.71 1063.16 1424.97 1062.32 1433.06 1066.04 C 1445.67 1075.3 1454.04 1083.76 1460.66 1098.35 C 1416.91 1117.84 1372.63 1115.29 1338.56 1079.16 C 1314.19 1196.59 1243.89 1299.42 1143.31 1364.74 C 1102.41 1391.34 1057.5 1411.19 1010.3 1423.52 C 1002.5 1425.53 988.61 1429.02 980.966 1429.38 C 984.038 1426.32 1007.23 1413.72 1013.22 1410.01 C 1127.9 1339.07 1153.66 1233.09 1182.76 1112.42 C 1145.39 1108.93 1103.69 1074.54 1099.39 1035.86 C 1129.21 1029.54 1159.77 1015.89 1181.17 993.7 C 1183.73 991.872 1184.59 990.486 1186.65 988.08 L 1192.2 982.298 C 1203.08 970.718 1216.66 946.285 1214.63 929.965 C 1221.26 935.35 1226.45 942.538 1233 947.298 L 1234.39 947.108 C 1234.56 944.65 1234.27 944.587 1233.24 942.276 C 1255 933.629 1264.35 935.141 1285.8 943.231 z" fill="rgb(251,126,246)" transform="translate(0,0)"></path>
<path d="M 1214.63 929.965 C 1221.26 935.35 1226.45 942.538 1233 947.298 L 1234.39 947.108 C 1234.56 944.65 1234.27 944.587 1233.24 942.276 C 1255 933.629 1264.35 935.141 1285.8 943.231 C 1236.11 975.944 1212.61 1017.08 1195.13 1072.57 C 1191.27 1084.84 1184.85 1099.83 1182.76 1112.42 C 1145.39 1108.93 1103.69 1074.54 1099.39 1035.86 C 1129.21 1029.54 1159.77 1015.89 1181.17 993.7 C 1183.73 991.872 1184.59 990.486 1186.65 988.08 L 1192.2 982.298 C 1203.08 970.718 1216.66 946.285 1214.63 929.965 z" fill="rgb(255,90,31)" transform="translate(0,0)"></path>
<path d="M 978.286 806.36 C 985.648 803.339 1000.03 799.344 1008.12 797.222 C 1068.38 781.43 1123.57 782.609 1182.81 801.434 C 1183.52 805.997 1200.09 823.77 1204.32 828.944 C 1221.92 850.467 1233.51 893.295 1224.94 920.47 C 1227.81 927.622 1230.89 934.961 1233.24 942.276 C 1234.27 944.587 1234.56 944.65 1234.39 947.108 L 1233 947.298 C 1226.45 942.538 1221.26 935.35 1214.63 929.965 C 1216.66 946.285 1203.08 970.718 1192.2 982.298 L 1186.65 988.08 C 1184.59 990.486 1183.73 991.872 1181.17 993.7 C 1159.77 1015.89 1129.21 1029.54 1099.39 1035.86 C 1076.43 1040.34 1052.79 1039.99 1029.98 1034.83 C 988.608 1025.35 952.882 1001.99 930.092 965.928 C 924.435 955.145 943.926 912.905 950.449 902.281 C 937.63 882.494 967.052 830.966 977.565 813.26 C 979.128 810.628 979.319 809.008 978.286 806.36 z" fill="rgb(43,30,46)" transform="translate(0,0)"></path>
<path d="M 930.092 965.928 C 935.551 955.572 940.51 943.877 946.97 934.221 C 981.701 882.307 1029.6 857.088 1091.26 860.29 C 1071.56 876.91 1060.21 892.935 1057.83 919.686 C 1056.1 940.751 1062.91 961.628 1076.74 977.617 C 1107.33 1013.21 1158.09 1014.13 1190.86 980.743 C 1205.93 963.332 1210.62 952.177 1213.39 929.965 L 1214.63 929.965 C 1216.66 946.285 1203.08 970.718 1192.2 982.298 L 1186.65 988.08 C 1184.59 990.486 1183.73 991.872 1181.17 993.7 C 1159.77 1015.89 1129.21 1029.54 1099.39 1035.86 C 1076.43 1040.34 1052.79 1039.99 1029.98 1034.83 C 988.608 1025.35 952.882 1001.99 930.092 965.928 z" fill="rgb(245,237,230)" transform="translate(0,0)"></path>
<path d="M 978.286 806.36 C 985.648 803.339 1000.03 799.344 1008.12 797.222 C 1068.38 781.43 1123.57 782.609 1182.81 801.434 C 1183.52 805.997 1200.09 823.77 1204.32 828.944 C 1221.92 850.467 1233.51 893.295 1224.94 920.47 C 1213.48 896.837 1203.4 882.141 1182.49 865.836 C 1107.4 807.271 1003.97 823.452 950.449 902.281 C 937.63 882.494 967.052 830.966 977.565 813.26 C 979.128 810.628 979.319 809.008 978.286 806.36 z" fill="rgb(255,90,31)" transform="translate(0,0)"></path>
<path d="M 580.212 985.318 C 609.093 915.866 672.861 879.861 746.193 903.234 C 732.997 907.614 721.304 911.629 711.052 921.612 C 663.16 968.253 699.755 1049.91 766.807 1043.28 C 772.656 1042.7 777.11 1041.5 782.813 1040.38 C 790.006 1036.76 796.895 1032.55 803.827 1028.45 C 801.283 1033.08 795.3 1037.58 790.623 1039.61 C 770.63 1054.81 732.761 1063.26 707.492 1062 C 666.997 1060.14 628.897 1042.28 601.575 1012.33 C 593.673 1003.69 587.815 993.324 580.212 985.318 z" fill="rgb(245,237,230)" transform="translate(0,0)"></path>
<path d="M 978.286 806.36 C 957.354 813.268 931.606 831.639 922.288 800.002 C 918.534 787.143 920.028 773.321 926.441 761.561 C 934.776 746.086 951.277 735.807 967.861 731.565 C 1034.96 714.404 1097.87 731.004 1156 763.823 C 1178.32 776.695 1199.03 792.172 1217.7 809.927 L 1234.52 824.933 C 1228.73 821.77 1220.12 816.45 1214.74 813.84 C 1205.01 808.886 1193.21 804.692 1182.81 801.434 C 1123.57 782.609 1068.38 781.43 1008.12 797.222 C 1000.03 799.344 985.648 803.339 978.286 806.36 z" fill="rgb(43,30,46)" transform="translate(0,0)"></path>
<path d="M 599.871 845.439 C 602.803 843.093 612.936 838.433 616.486 836.921 C 645.096 824.459 677.059 821.956 707.26 829.812 C 727.091 835.039 751.621 852.144 766.172 831.802 C 773.567 840.441 782.018 848.636 789.211 857.258 C 804.844 875.997 817.472 909.771 812.157 934.235 C 794.996 909.567 775.809 891.449 748.335 878.522 C 718.678 864.398 684.573 862.859 653.764 874.254 C 618.301 887.446 589.603 914.299 574.087 948.809 C 572.996 935.426 573.211 914.392 573.79 900.795 C 573.512 894.497 572.948 868.484 573.65 863.179 C 575.583 861.83 577.436 860.629 579.325 859.207 C 581.453 857.692 584.419 855.676 586.309 853.908 C 591.163 850.8 594.544 848.053 599.871 845.439 z" fill="rgb(255,90,31)" transform="translate(0,0)"></path>
<path d="M 599.871 845.439 C 601.048 848.786 600.29 848.328 598.253 851.611 C 589.455 865.793 584.161 881.615 577.983 896.995 C 577.208 898.923 575.851 900.455 573.79 900.795 C 573.512 894.497 572.948 868.484 573.65 863.179 C 575.583 861.83 577.436 860.629 579.325 859.207 C 581.453 857.692 584.419 855.676 586.309 853.908 C 591.163 850.8 594.544 848.053 599.871 845.439 z" fill="rgb(255,209,102)" transform="translate(0,0)"></path>
<path d="M 584.031 846.829 C 608.611 799.532 676.07 745.027 733.505 762.798 C 765.597 772.728 775.623 801.632 766.172 831.802 C 751.621 852.144 727.091 835.039 707.26 829.812 C 677.059 821.956 645.096 824.459 616.486 836.921 C 612.936 838.433 602.803 843.093 599.871 845.439 C 594.544 848.053 591.163 850.8 586.309 853.908 C 584.419 855.676 581.453 857.692 579.325 859.207 L 576.497 858.78 C 579.033 855.11 581.644 850.665 584.031 846.829 z" fill="rgb(43,30,46)" transform="translate(0,0)"></path>
<path d="M 573.65 863.179 C 571.482 852.508 572.445 768.072 573.762 755.477 C 574.549 778.466 573.847 801.859 574.052 824.862 C 574.141 834.912 573.18 849.128 574.241 858.57 L 575.315 859.306 L 576.497 858.78 L 579.325 859.207 C 577.436 860.629 575.583 861.83 573.65 863.179 z" fill="rgb(126,66,30)" transform="translate(0,0)"></path>
<path d="M 799.471 1181.92 C 811.302 1178.99 827.813 1177.56 840.166 1175.32 C 858.144 1172.07 875.792 1168.66 893.579 1164.37 C 943.617 1152.1 992.646 1136.04 1040.24 1116.31 C 1054.43 1110.4 1068.25 1103.3 1082.27 1096.92 C 1106.21 1086.04 1127.13 1097.82 1136.9 1121.11 C 1147.58 1162.42 1131.47 1202.61 1111.24 1238.63 C 1106.15 1247.69 1088.86 1271.19 1080.69 1277.44 C 1045.42 1318.26 970.071 1348.92 916.162 1339.77 C 885.204 1339.7 843.164 1320.51 818.771 1302.54 C 796.462 1286.1 763.398 1254.08 760.75 1224.74 C 759.718 1214.03 763.186 1203.37 770.326 1195.31 C 777.61 1186.99 788.601 1182.68 799.471 1181.92 z" fill="rgb(43,30,46)" transform="translate(0,0)"></path>
<path d="M 799.779 1182.82 C 889.472 1172.83 989.013 1143.16 1070.58 1104.08 C 1085.34 1097 1095.87 1091.19 1112.7 1097.45 C 1125.22 1102.1 1130.75 1110.77 1135.65 1122.3 C 1136.29 1125.46 1137.66 1128.68 1135.57 1131.22 C 1129.29 1138.86 1116.82 1146.97 1108.45 1152.25 C 1032.54 1200.1 941.505 1222.66 853.575 1235.43 C 844.209 1236.8 819.642 1239.62 812.36 1234.32 C 805.214 1229.11 801.323 1192.71 799.779 1182.82 z" fill="rgb(245,237,230)" transform="translate(0,0)"></path>
<path d="M 916.612 1338.17 C 923.028 1325.9 937.192 1314.01 948.254 1306.07 C 986.246 1278.79 1032.58 1269.5 1078.55 1277.27 C 1039.35 1318.62 973.77 1345.28 916.612 1338.17 z" fill="rgb(255,90,31)" transform="translate(0,0)"></path>
<path d="M 829.064 1031.17 C 851.42 1028.76 869.375 1037.22 883.606 1054.04 C 896.505 1045.56 909.75 1042.06 924.295 1049.42 C 934.181 1054.54 941.644 1063.36 945.06 1073.96 C 956.272 1108.06 920.213 1138.88 886.483 1119.72 C 885.543 1119.16 886.223 1119.48 884.26 1119.32 L 880.586 1124.24 C 864.526 1146.1 834.838 1152.58 810.848 1139.44 C 797.034 1132.02 786.871 1119.25 782.736 1104.13 C 773.359 1068.69 794.888 1039.45 829.064 1031.17 z" fill="rgb(43,30,46)" transform="translate(0,0)"></path>
<path d="M 829.565 1033.16 C 854.686 1031.46 866.901 1039 883.483 1056.25 C 887.94 1053.32 891.523 1051.01 896.676 1049.26 C 905.634 1046.16 915.48 1046.95 923.833 1051.43 C 933.255 1056.47 940.272 1065.08 943.327 1075.32 C 949.957 1097.41 936.45 1118.33 914.506 1123.64 C 903.449 1126.31 894.893 1122.5 885.826 1116.85 C 883.394 1116.05 882.117 1119.25 880.56 1121.32 C 863.625 1143.87 835.063 1152.32 809.775 1136.8 C 796.849 1129 787.659 1116.28 784.327 1101.55 C 776.547 1067.91 796.766 1040.48 829.565 1033.16 z" fill="rgb(255,90,31)" transform="translate(0,0)"></path>
<path d="M 966.279 1500.5 C 966.303 1498.2 966.411 1497.28 966.738 1495 C 969.119 1493.88 977.929 1497.19 981.32 1497.95 C 987.962 1499.46 994.714 1500.45 1001.51 1500.89 C 1020.21 1502.25 1039 1499.96 1056.82 1494.13 C 1126.18 1471.96 1168.56 1411.45 1200.31 1350.18 L 1209.41 1405.52 C 1211.28 1417.5 1217.85 1463.55 1221.29 1471.6 L 1221.97 1471.77 C 1220.22 1459.85 1218.07 1445.2 1215.38 1433.46 C 1221.45 1434.56 1230.48 1435.93 1236.16 1437.54 C 1238.38 1500.26 1214.7 1563 1173.06 1609.57 C 1131.97 1655.53 1059.57 1685.98 1009.14 1636.11 C 969.567 1596.98 969.756 1550.89 966.279 1500.5 z" fill="rgb(253,152,58)" transform="translate(0,0)"></path>
<path d="M 1348.85 915.913 C 1360.42 878.051 1377.86 847.166 1413.88 827.633 C 1461.06 802.102 1517.47 815.065 1542.67 864.201 C 1562.22 902.325 1554.72 945.022 1542.07 984.043 C 1533.47 1010.58 1513.44 1059.82 1489.99 1075.9 C 1477.12 1053.21 1435 1017.27 1407.85 1033.48 C 1399.77 1041.92 1399.5 1047.15 1403.43 1058.08 C 1389.69 1052.91 1380.4 1047.42 1368.72 1038.82 C 1376.84 1031.72 1380.08 1028.08 1386.7 1019.62 C 1449.66 1016.98 1453.68 947.32 1407 939.358 C 1443.32 895.098 1482.91 879.95 1522.4 932.389 C 1524.37 900.225 1507.84 861.498 1470.07 861.573 C 1423.99 861.664 1394.91 905.576 1380.92 944.224 C 1379.62 947.814 1374.78 965.023 1373.27 966.47 L 1369.2 964.871 C 1362.55 958.129 1350.01 958.892 1341.35 959.099 C 1343.08 942.762 1345.05 931.571 1348.85 915.913 z" fill="rgb(255,90,31)" transform="translate(0,0)"></path>
<path d="M 1408.79 1034.77 C 1434.85 1019.44 1475.65 1055.37 1488.14 1077.11 C 1491.49 1082.54 1494.46 1088.19 1497.04 1094.02 C 1520.77 1147.7 1509.62 1245.15 1449.5 1270.34 C 1434.35 1276.85 1417.2 1276.91 1402 1270.51 C 1378.88 1260.63 1360.67 1235.05 1351.62 1211.75 C 1343.97 1189.08 1336.95 1158.87 1343.93 1135.46 C 1345.57 1129.94 1355.69 1128.53 1360.17 1132.02 C 1367.48 1137.36 1363.73 1147.11 1364.14 1155.23 C 1365.78 1188.35 1384.74 1234.77 1425.39 1229.26 C 1436.65 1227.73 1449.36 1216.41 1455.5 1206.86 C 1480.83 1167.47 1477.34 1093.06 1435.15 1065.97 L 1433.99 1065.24 C 1423.35 1058.31 1386.16 1063.44 1408.79 1034.77 z" fill="rgb(255,209,102)" transform="translate(0,0)"></path>
<path d="M 1274.06 1443.37 C 1280.56 1444.62 1304.33 1448.92 1309.71 1450.73 C 1319.99 1453.98 1330.3 1455.77 1340.52 1458.76 C 1338.57 1462.79 1328.48 1482.2 1328.52 1484.86 C 1264.07 1630.72 1285.07 1855.9 1372.56 1991.33 C 1378.7 2000.85 1388.04 2010.61 1393.69 2019.82 C 1398.51 2028.77 1412.77 2041.23 1420.58 2048 L 756.179 2048 L 752.493 2048 C 751.25 2044.07 750.17 2040.5 749.166 2036.48 L 747.245 2028.98 L 746.768 2027.02 C 744.947 2020 743.234 2012.96 741.629 2005.89 C 712.05 1865.2 729.644 1718.69 791.69 1589 C 807.889 1561.12 906.304 1516.48 938.317 1517.78 C 932.807 1525.55 923.35 1537.41 920.312 1545.95 C 925.341 1540.92 930.904 1529.6 937.155 1522.46 C 930.238 1576.2 930.908 1631.79 969.551 1674.19 C 972.833 1677.58 976.485 1681.55 979.96 1684.65 C 980.517 1685.5 980.468 1685.35 981.394 1686.01 L 992.241 1694.42 L 993.014 1692.49 C 993.708 1692.87 993.758 1692.81 994.166 1693.3 C 1050.9 1729.25 1119.26 1718.5 1171.51 1679 C 1176.49 1675.23 1181.7 1671.47 1186.75 1667.77 L 1189.11 1668.04 C 1246.02 1620.61 1279.37 1541.03 1272.96 1467.51 C 1272.51 1462.3 1269.09 1448.36 1270.19 1444.42 L 1274.06 1443.37 z" fill="rgb(255,90,31)" transform="translate(0,0)"></path>
<path d="M 791.69 1589 C 807.889 1561.12 906.304 1516.48 938.317 1517.78 C 932.807 1525.55 923.35 1537.41 920.312 1545.95 C 911.985 1557.61 898.577 1583.96 891.486 1597.81 C 824.049 1729.53 772.875 1900.74 756.179 2048 L 752.493 2048 C 751.25 2044.07 750.17 2040.5 749.166 2036.48 L 747.245 2028.98 L 746.768 2027.02 C 744.947 2020 743.234 2012.96 741.629 2005.89 C 712.05 1865.2 729.644 1718.69 791.69 1589 z" fill="rgb(78,205,196)" transform="translate(0,0)"></path>
<path d="M 994.166 1693.3 C 1050.9 1729.25 1119.26 1718.5 1171.51 1679 C 1176.49 1675.23 1181.7 1671.47 1186.75 1667.77 L 1185.32 1671.29 C 1125.17 1716.26 1064.45 1735.97 994.637 1696.21 L 994.166 1693.3 z" fill="rgb(43,30,46)" transform="translate(0,0)"></path>
<path d="M 993.014 1692.49 C 993.708 1692.87 993.758 1692.81 994.166 1693.3 L 994.637 1696.21 C 993.838 1695.61 993.04 1695.02 992.241 1694.42 L 993.014 1692.49 z" fill="rgb(106,24,17)" transform="translate(0,0)"></path>
<path d="M 1189.11 1668.04 C 1187.82 1669.2 1186.64 1670.19 1185.32 1671.29 L 1186.75 1667.77 L 1189.11 1668.04 z" fill="rgb(106,24,17)" transform="translate(0,0)"></path>
<path d="M 1309.71 1450.73 C 1318.36 1451.19 1335.34 1455.66 1343.72 1458.55 C 1373.97 1450.01 1389.81 1449.81 1421.42 1455.52 C 1426.09 1456.69 1430.68 1458.08 1435.26 1459.53 C 1447.42 1464.53 1465.64 1472.32 1471.78 1484.83 L 1469.64 1488.52 L 1472.99 1489.39 C 1581.19 1546.35 1694.29 1713.5 1765.06 1814.59 L 1766.91 1817.04 L 1811.38 1879.59 C 1794.17 1903.5 1781.64 1917.79 1759.24 1936.99 C 1758.6 1937.34 1757.96 1937.69 1757.32 1938.04 C 1757.78 1939.42 1757.79 1939.46 1758.5 1940.72 C 1762.46 1952.11 1766.86 1963.56 1771.51 1974.7 C 1781.56 1998.77 1789.04 2023.84 1798.74 2048 L 1797.12 2048 L 1638.7 2048 L 1420.58 2048 C 1412.77 2041.23 1398.51 2028.77 1393.69 2019.82 C 1388.04 2010.61 1378.7 2000.85 1372.56 1991.33 C 1285.07 1855.9 1264.07 1630.72 1328.52 1484.86 C 1328.48 1482.2 1338.57 1462.79 1340.52 1458.76 C 1330.3 1455.77 1319.99 1453.98 1309.71 1450.73 z" fill="rgb(255,90,31)" transform="translate(0,0)"></path>
<path d="M 1309.71 1450.73 C 1318.36 1451.19 1335.34 1455.66 1343.72 1458.55 C 1373.97 1450.01 1389.81 1449.81 1421.42 1455.52 C 1426.09 1456.69 1430.68 1458.08 1435.26 1459.53 C 1447.42 1464.53 1465.64 1472.32 1471.78 1484.83 L 1469.64 1488.52 C 1465.17 1489.95 1456.42 1512.7 1452.3 1518.1 C 1407.59 1614.04 1394.88 1744.89 1409.64 1848.57 C 1410.96 1857.81 1415.25 1892.79 1417.68 1899.64 C 1419.09 1915.33 1434.72 1990.56 1440.5 2002.53 C 1441.2 2007.89 1448.5 2033.57 1450.54 2038.65 C 1451.13 2042.14 1452.15 2043.98 1450.88 2046.47 C 1443.81 2047.41 1429.26 2046.83 1421.59 2046.72 C 1409.88 2037.78 1403.77 2028.46 1393.69 2019.82 C 1388.04 2010.61 1378.7 2000.85 1372.56 1991.33 C 1285.07 1855.9 1264.07 1630.72 1328.52 1484.86 C 1328.48 1482.2 1338.57 1462.79 1340.52 1458.76 C 1330.3 1455.77 1319.99 1453.98 1309.71 1450.73 z" fill="rgb(78,205,196)" transform="translate(0,0)"></path>
<path d="M 1309.71 1450.73 C 1318.36 1451.19 1335.34 1455.66 1343.72 1458.55 C 1373.97 1450.01 1389.81 1449.81 1421.42 1455.52 C 1426.09 1456.69 1430.68 1458.08 1435.26 1459.53 C 1447.42 1464.53 1465.64 1472.32 1471.78 1484.83 L 1469.64 1488.52 C 1465.17 1489.95 1456.42 1512.7 1452.3 1518.1 C 1454.47 1510.5 1465.47 1490.26 1469.69 1482.94 C 1465.53 1478.87 1460.99 1475.21 1456.14 1472 C 1431.81 1456.07 1399.25 1451.44 1370.66 1454.44 C 1361.56 1455.39 1351.14 1458.41 1341.93 1460.39 C 1337.22 1467.35 1332.46 1479.83 1328.52 1484.86 C 1328.48 1482.2 1338.57 1462.79 1340.52 1458.76 C 1330.3 1455.77 1319.99 1453.98 1309.71 1450.73 z" fill="rgb(17,88,91)" transform="translate(0,0)"></path>
<path d="M 1766.91 1817.04 L 1811.38 1879.59 C 1794.17 1903.5 1781.64 1917.79 1759.24 1936.99 C 1758.6 1937.34 1757.96 1937.69 1757.32 1938.04 C 1757.78 1939.42 1757.79 1939.46 1758.5 1940.72 C 1762.46 1952.11 1766.86 1963.56 1771.51 1974.7 C 1781.56 1998.77 1789.04 2023.84 1798.74 2048 L 1797.12 2048 L 1638.7 2048 L 1420.58 2048 C 1412.77 2041.23 1398.51 2028.77 1393.69 2019.82 C 1403.77 2028.46 1409.88 2037.78 1421.59 2046.72 C 1429.26 2046.83 1443.81 2047.41 1450.88 2046.47 C 1452.15 2043.98 1451.13 2042.14 1450.54 2038.65 C 1448.5 2033.57 1441.2 2007.89 1440.5 2002.53 C 1440.2 1997.72 1437.05 1986.7 1435.71 1981.51 C 1458.61 1978.54 1481.71 1977.7 1504.51 1973.5 C 1596.1 1956.61 1685.65 1913.35 1746.54 1841.46 C 1753.13 1833.68 1759.19 1825.42 1766.09 1817.92 L 1766.91 1817.04 z" fill="rgb(255,90,31)" transform="translate(0,0)"></path>
<path d="M 1450.54 2038.65 C 1452.13 2041.9 1452.82 2044.68 1455.48 2046.48 C 1530.53 2049.15 1629.23 2022.96 1693.47 1984.25 C 1717.47 1969.79 1735.2 1954.03 1757.32 1938.04 C 1757.78 1939.42 1757.79 1939.46 1758.5 1940.72 C 1762.46 1952.11 1766.86 1963.56 1771.51 1974.7 C 1781.56 1998.77 1789.04 2023.84 1798.74 2048 L 1797.12 2048 L 1638.7 2048 L 1420.58 2048 C 1412.77 2041.23 1398.51 2028.77 1393.69 2019.82 C 1403.77 2028.46 1409.88 2037.78 1421.59 2046.72 C 1429.26 2046.83 1443.81 2047.41 1450.88 2046.47 C 1452.15 2043.98 1451.13 2042.14 1450.54 2038.65 z" fill="rgb(43,30,46)" transform="translate(0,0)"></path>
<path d="M 1638.7 2048 C 1698.92 2027.95 1719.99 2018.72 1771.88 1980.46 C 1779.92 1998.39 1789.78 2028.27 1797.12 2048 L 1638.7 2048 z" fill="rgb(251,126,246)" transform="translate(0,0)"></path>
<path d="M 1765.06 1814.59 L 1766.91 1817.04 L 1766.09 1817.92 C 1759.19 1825.42 1753.13 1833.68 1746.54 1841.46 C 1685.65 1913.35 1596.1 1956.61 1504.51 1973.5 C 1481.71 1977.7 1458.61 1978.54 1435.71 1981.51 C 1437.05 1986.7 1440.2 1997.72 1440.5 2002.53 C 1434.72 1990.56 1419.09 1915.33 1417.68 1899.64 C 1419.93 1904.57 1422.03 1917.72 1423.29 1923.59 C 1427.22 1941.76 1429.95 1961.86 1435.63 1979.49 C 1455.3 1977.57 1477.36 1976.32 1496.64 1972.93 C 1606.26 1953.63 1699.19 1904.99 1765.06 1814.59 z" fill="rgb(43,30,46)" transform="translate(0,0)"></path>
<path d="M 229.408 1520.71 C 234.49 1481.29 267.745 1462.24 305.018 1473.35 C 310.131 1471.41 331.057 1488.05 335.355 1491.47 C 367.547 1517.07 393.918 1548.03 412.269 1584.92 C 420.329 1582.04 425.573 1579.87 434.459 1580.99 C 453.721 1583.41 472.894 1596.86 479.393 1615.49 C 480.95 1619.96 482.855 1624.48 482.512 1629.23 C 492.319 1661.51 502.039 1687.93 499.729 1722.62 C 495.955 1779.3 453.143 1830.45 407.242 1860.47 C 408.762 1864.51 410.324 1868.96 411.942 1872.92 C 416.042 1884.87 423.019 1900.34 427.62 1912.62 C 430.899 1921.37 436.953 1938.28 440.796 1946.02 C 443.192 1953.36 430.153 1953.46 427.96 1958.49 C 435.571 1957.05 463.995 1935.65 469.906 1928.18 C 472.166 1926.97 472.626 1925.32 474.438 1923.35 C 479.097 1916.52 480.198 1913.63 483.243 1906.23 C 488.383 1919.35 493.878 1932.34 499.72 1945.17 C 501.906 1950.66 504.967 1959.04 507.511 1964.02 C 523.721 1995.71 525.341 2001.15 497.184 2026.25 C 497.761 2027.07 497.625 2026.7 497.781 2027.28 C 497.44 2028.62 484.65 2037.09 482.414 2038.47 C 477.978 2042.11 472.667 2044.85 467.904 2048 L 463.601 2048 L 233.554 2048 L 231.578 2048 C 230.957 2046.24 230.36 2043.95 229.823 2042.12 C 226.097 2026.5 216.706 1995.48 215.486 1981.01 L 214.485 1978.33 C 211.653 1970.85 211.38 1967.26 213.354 1959.68 C 215.676 1949.31 220.863 1945.09 228.536 1938.57 C 225.873 1936.55 222.198 1934.38 221.296 1931.42 C 219.289 1929.48 210.32 1923.66 207.538 1921.65 C 197.901 1914.69 187.518 1907.88 178.317 1900.27 C 134.364 1863.79 94.9025 1821.72 68.1178 1770.9 C 48.0584 1732.85 54.1647 1698.49 94.642 1678.82 L 95.4937 1674.28 C 91.6082 1635.99 98.2975 1618.13 132.149 1598.47 L 132.536 1597.3 C 139.885 1593.57 146.403 1592.98 154.421 1592.31 C 154.685 1589.28 155.031 1586.26 155.458 1583.26 C 156.865 1584.75 156.612 1588.36 156.845 1591.02 C 157.358 1569.43 157.951 1553.27 175.423 1537.05 C 189.357 1524.11 202.931 1521.48 221.471 1521.81 C 224.118 1521.46 226.764 1521.09 229.408 1520.71 z" fill="rgb(253,152,58)" transform="translate(0,0)"></path>
<path d="M 483.243 1906.23 C 488.383 1919.35 493.878 1932.34 499.72 1945.17 C 501.906 1950.66 504.967 1959.04 507.511 1964.02 C 523.721 1995.71 525.341 2001.15 497.184 2026.25 C 497.761 2027.07 497.625 2026.7 497.781 2027.28 C 497.44 2028.62 484.65 2037.09 482.414 2038.47 C 477.978 2042.11 472.667 2044.85 467.904 2048 L 463.601 2048 L 233.554 2048 L 230.548 2036.79 C 227.25 2020.31 220.805 1997.58 216.585 1980.74 C 228.709 1988.56 232.581 1989.7 246.111 1994.35 C 277.714 2005.2 362.392 1992.43 390.288 1976.48 C 400.148 1973.85 419.208 1963.61 427.96 1958.49 C 435.571 1957.05 463.995 1935.65 469.906 1928.18 C 472.166 1926.97 472.626 1925.32 474.438 1923.35 C 479.097 1916.52 480.198 1913.63 483.243 1906.23 z" fill="rgb(139,92,246)" transform="translate(0,0)"></path>
<path d="M 497.184 2026.25 C 497.761 2027.07 497.625 2026.7 497.781 2027.28 C 497.44 2028.62 484.65 2037.09 482.414 2038.47 C 477.978 2042.11 472.667 2044.85 467.904 2048 L 463.601 2048 C 468.542 2044.79 476.485 2039.99 481.697 2036.92 C 486.471 2033.76 492.681 2028.99 497.184 2026.25 z" fill="rgb(43,30,46)" transform="translate(0,0)"></path>
<path d="M 132.149 1598.47 C 137.365 1597.61 149.816 1593.98 154.552 1594.72 C 190.581 1600.37 249.05 1612.15 277.999 1633.77 C 278.63 1634.6 278.511 1634.45 279.41 1635.02 C 297.475 1652.88 300.087 1663.21 301.469 1687.53 C 303.369 1715.6 305.287 1738.81 292.349 1764 C 284.282 1772.88 279.415 1777.68 269.409 1784.21 C 268.945 1772.15 269.751 1760.5 268.309 1748.51 C 261.836 1694.7 213.463 1689.02 169.831 1680.16 C 146.283 1675.37 121.174 1672.73 97.1366 1675.53 C 96.589 1675.12 96.0414 1674.7 95.4937 1674.28 C 91.6082 1635.99 98.2975 1618.13 132.149 1598.47 z" fill="rgb(253,152,58)" transform="translate(0,0)"></path>
<path d="M 156.845 1591.02 C 157.358 1569.43 157.951 1553.27 175.423 1537.05 C 189.357 1524.11 202.931 1521.48 221.471 1521.81 C 246.42 1526.63 300.685 1550.21 321.169 1564.65 C 345.996 1583.53 348.063 1598.84 347.264 1628.21 C 330.29 1645.27 312.574 1662.08 304.924 1685.48 L 304.665 1687.45 C 303.381 1684 303.275 1680.01 302.969 1676.32 C 297.783 1613.79 207.642 1603.2 158.123 1593.22 L 156.845 1591.02 z" fill="rgb(253,152,58)" transform="translate(0,0)"></path>
<path d="M 229.408 1520.71 C 234.49 1481.29 267.745 1462.24 305.018 1473.35 C 346.124 1495.48 390.75 1543.18 410.6 1585.09 C 396.751 1592.57 361.763 1612.88 351.968 1624.64 L 350.396 1623.79 C 348.69 1618.83 349.938 1606.6 348.751 1601.28 C 345.061 1584.74 335.66 1573.03 322.551 1563.33 C 297.05 1543.18 258.944 1533.73 230.376 1521.14 L 229.408 1520.71 z" fill="rgb(253,152,58)" transform="translate(0,0)"></path>
<path d="M 305.018 1473.35 C 310.131 1471.41 331.057 1488.05 335.355 1491.47 C 367.547 1517.07 393.918 1548.03 412.269 1584.92 C 420.329 1582.04 425.573 1579.87 434.459 1580.99 C 453.721 1583.41 472.894 1596.86 479.393 1615.49 C 480.95 1619.96 482.855 1624.48 482.512 1629.23 C 473.85 1606.81 461.591 1584.66 434.382 1582.7 C 409.221 1580.89 371.508 1610.08 353.079 1626.04 C 336.675 1640.57 313.514 1663.77 307.25 1684.96 C 302.898 1699.22 304.629 1714.65 312.034 1727.59 C 322.044 1745.24 338.803 1754.71 358.975 1752.05 C 393.665 1741.14 419.064 1714.26 437.736 1683.24 C 439.5 1680.31 439.88 1677.27 442.674 1675.43 C 443.343 1680.07 432.162 1696.3 428.912 1700.71 C 413.982 1720.97 385.238 1748.2 359.764 1753.51 C 337.179 1765.86 320.816 1773.48 293.978 1766.38 C 285.774 1771.88 282.891 1778.56 269.924 1785.78 C 268.967 1809.69 260.937 1830.66 240.083 1844.14 C 226.488 1852.96 209.927 1855.95 194.106 1852.46 C 170.63 1847.07 144.075 1823.43 151.104 1796.91 C 152.783 1790.58 156.533 1784.1 162.566 1781.01 C 172.942 1775.7 184.671 1779.29 195.136 1782.46 C 194.571 1776.5 194.172 1770.52 193.94 1764.54 C 194.303 1759.56 194.147 1755.45 194.696 1750.48 C 195.089 1761.43 196.57 1773.75 197.236 1784.98 C 185.069 1781.33 165.505 1774.9 156.793 1788.82 C 152.66 1795.42 150.838 1806.22 153.097 1813.81 C 161.231 1841.13 192.639 1856.66 219.797 1850.47 C 235.858 1846.7 249.717 1836.6 258.232 1822.47 C 260.849 1818.16 265.07 1809.17 265.658 1804.33 C 269.037 1772 271.668 1717.92 235.764 1700.8 C 205.032 1686.14 127.443 1669.9 94.642 1678.82 L 95.4937 1674.28 C 96.0414 1674.7 96.589 1675.12 97.1366 1675.53 C 121.174 1672.73 146.283 1675.37 169.831 1680.16 C 213.463 1689.02 261.836 1694.7 268.309 1748.51 C 269.751 1760.5 268.945 1772.15 269.409 1784.21 C 279.415 1777.68 284.282 1772.88 292.349 1764 C 305.287 1738.81 303.369 1715.6 301.469 1687.53 C 300.087 1663.21 297.475 1652.88 279.41 1635.02 C 278.511 1634.45 278.63 1634.6 277.999 1633.77 C 249.05 1612.15 190.581 1600.37 154.552 1594.72 C 149.816 1593.98 137.365 1597.61 132.149 1598.47 L 132.536 1597.3 C 139.885 1593.57 146.403 1592.98 154.421 1592.31 C 154.685 1589.28 155.031 1586.26 155.458 1583.26 C 156.865 1584.75 156.612 1588.36 156.845 1591.02 L 158.123 1593.22 C 207.642 1603.2 297.783 1613.79 302.969 1676.32 C 303.275 1680.01 303.381 1684 304.665 1687.45 L 304.924 1685.48 C 312.574 1662.08 330.29 1645.27 347.264 1628.21 C 348.063 1598.84 345.996 1583.53 321.169 1564.65 C 300.685 1550.21 246.42 1526.63 221.471 1521.81 C 224.118 1521.46 226.764 1521.09 229.408 1520.71 L 230.376 1521.14 C 258.944 1533.73 297.05 1543.18 322.551 1563.33 C 335.66 1573.03 345.061 1584.74 348.751 1601.28 C 349.938 1606.6 348.69 1618.83 350.396 1623.79 L 351.968 1624.64 C 361.763 1612.88 396.751 1592.57 410.6 1585.09 C 390.75 1543.18 346.124 1495.48 305.018 1473.35 z" fill="rgb(43,30,46)" transform="translate(0,0)"></path>
<path d="M 341.894 1897.54 C 344.771 1896.07 345.019 1895.23 347.224 1895.94 C 345.443 1897.84 345.44 1897.98 343.239 1899.3 C 325.225 1912.55 274.198 1947.72 255.199 1956.36 C 262.035 1968.67 270.863 1983.92 276.343 1996.83 C 304.436 1996.99 332.416 1993.25 359.481 1985.72 C 366.426 1983.81 384.595 1977.56 390.288 1976.48 C 362.392 1992.43 277.714 2005.2 246.111 1994.35 C 232.581 1989.7 228.709 1988.56 216.585 1980.74 C 220.805 1997.58 227.25 2020.31 230.548 2036.79 L 233.554 2048 L 231.578 2048 C 230.957 2046.24 230.36 2043.95 229.823 2042.12 C 226.097 2026.5 216.706 1995.48 215.486 1981.01 L 214.485 1978.33 C 211.653 1970.85 211.38 1967.26 213.354 1959.68 C 215.676 1949.31 220.863 1945.09 228.536 1938.57 C 225.873 1936.55 222.198 1934.38 221.296 1931.42 C 227.993 1934.97 237.191 1940.94 243.898 1944.99 C 274.343 1930.73 313.16 1913.58 341.894 1897.54 z" fill="rgb(43,30,46)" transform="translate(0,0)"></path>
<path d="M 193.94 1764.54 C 193.543 1762.63 191.6 1748.59 194.457 1748.98 C 194.74 1749.64 194.568 1749.16 194.696 1750.48 C 194.147 1755.45 194.303 1759.56 193.94 1764.54 z" fill="rgb(126,66,30)" transform="translate(0,0)"></path>
<path d="M 305.475 1782.66 C 308.665 1785.65 331.141 1842.82 334.38 1850.76 C 335.9 1854.51 337.483 1858.24 339.13 1861.94 C 341.043 1866.22 341.286 1866.62 341.975 1871.17 C 337.271 1865.04 306.932 1790.55 305.475 1782.66 z" fill="rgb(43,30,46)" transform="translate(0,0)"></path>
<path d="M 1522.21 1417.55 C 1554.65 1436.93 1569.81 1431.52 1601.97 1419.48 C 1601.97 1419.48 1606.07 1420.96 1606.57 1421.15 C 1640.34 1439.33 1659.24 1455.18 1683.24 1486.24 L 1684.56 1488.07 C 1779.11 1607.68 1811.44 1788.92 1828.56 1936.2 C 1828.28 1936.74 1827.67 1938.31 1826.96 1938.31 C 1805.66 1938.33 1784.29 1938.12 1762.99 1938.24 C 1761.33 1938.25 1760.37 1937.62 1759.24 1936.99 C 1781.64 1917.79 1794.17 1903.5 1811.38 1879.59 L 1766.91 1817.04 L 1765.06 1814.59 C 1694.29 1713.5 1581.19 1546.35 1472.99 1489.39 L 1469.64 1488.52 L 1471.78 1484.83 C 1465.64 1472.32 1447.42 1464.53 1435.26 1459.53 C 1438.35 1458.08 1439.85 1458.31 1443.28 1457.81 C 1479.03 1461.83 1502.12 1444.88 1522.21 1417.55 z" fill="rgb(78,205,196)" transform="translate(0,0)"></path>
<path d="M 1522.21 1417.55 C 1554.65 1436.93 1569.81 1431.52 1601.97 1419.48 C 1601.97 1419.48 1606.07 1420.96 1606.57 1421.15 C 1640.34 1439.33 1659.24 1455.18 1683.24 1486.24 C 1638.08 1484.78 1590.84 1486.75 1545.59 1486.42 C 1533.1 1486.33 1480.22 1487.44 1471.78 1484.83 C 1465.64 1472.32 1447.42 1464.53 1435.26 1459.53 C 1438.35 1458.08 1439.85 1458.31 1443.28 1457.81 C 1479.03 1461.83 1502.12 1444.88 1522.21 1417.55 z" fill="rgb(78,205,196)" transform="translate(0,0)"></path>
<path d="M 1471.78 1484.83 C 1480.22 1487.44 1533.1 1486.33 1545.59 1486.42 C 1590.84 1486.75 1638.08 1484.78 1683.24 1486.24 L 1684.56 1488.07 L 1523.17 1488.07 C 1514.99 1488.06 1477.63 1486.56 1472.84 1487.63 L 1472.99 1489.39 L 1469.64 1488.52 L 1471.78 1484.83 z" fill="rgb(43,30,46)" transform="translate(0,0)"></path>
<path d="M 754.511 1621.21 C 760.81 1614.14 783.119 1590.39 790.485 1586.89 L 791.69 1589 C 729.644 1718.69 712.05 1865.2 741.629 2005.89 C 741.596 2006.01 740.733 2010.05 739.926 2009.73 C 722.905 2002.98 703.176 1995.18 687.503 1985.73 L 683.156 1983.53 C 649.555 1961.04 618.713 1935.49 594.466 1902.72 C 591.664 1898.94 586.679 1892.19 585.521 1888.02 C 589.58 1883.23 599.645 1864.24 603.344 1857.66 L 635.986 1800.59 C 673.809 1735.03 706.699 1680.32 754.511 1621.21 z" fill="rgb(255,90,31)" transform="translate(0,0)"></path>
<path d="M 583.593 1890.85 C 583.933 1888.67 583.505 1889.69 585.521 1888.02 C 586.679 1892.19 591.664 1898.94 594.466 1902.72 C 618.713 1935.49 649.555 1961.04 683.156 1983.53 L 687.503 1985.73 C 703.176 1995.18 722.905 2002.98 739.926 2009.73 C 740.733 2010.05 741.596 2006.01 741.629 2005.89 C 743.234 2012.96 744.947 2020 746.768 2027.02 L 747.245 2028.98 L 749.166 2036.48 C 750.17 2040.5 751.25 2044.07 752.493 2048 L 750.364 2048 L 668.05 2048 C 614.957 2019.45 583.981 1995.74 542.458 1951.43 C 550.574 1938.35 559.375 1926.17 568.205 1913.61 C 572.724 1907.19 580.16 1897.53 583.593 1890.85 z" fill="rgb(255,90,31)" transform="translate(0,0)"></path>
<path d="M 583.593 1890.85 C 583.933 1888.67 583.505 1889.69 585.521 1888.02 C 586.679 1892.19 591.664 1898.94 594.466 1902.72 C 618.713 1935.49 649.555 1961.04 683.156 1983.53 L 687.503 1985.73 L 686.057 1987.14 L 684.322 1986.58 C 655.132 1967.32 629.583 1947.71 606.528 1920.92 C 598.582 1911.69 591.577 1899.86 584.146 1891.46 L 583.593 1890.85 z" fill="rgb(43,30,46)" transform="translate(0,0)"></path>
<path d="M 687.503 1985.73 C 703.176 1995.18 722.905 2002.98 739.926 2009.73 C 740.733 2010.05 741.596 2006.01 741.629 2005.89 C 743.234 2012.96 744.947 2020 746.768 2027.02 L 747.245 2028.98 L 749.166 2036.48 C 750.17 2040.5 751.25 2044.07 752.493 2048 L 750.364 2048 C 749.947 2045.98 749.589 2043.97 749.068 2041.98 L 748.599 2040.02 C 748.098 2038.01 747.531 2035.98 747.035 2033.97 L 746.566 2032.02 L 745.578 2028.02 L 744.569 2024.02 C 743.643 2020.41 742.891 2016.76 741.632 2013.25 C 724.519 2005.16 701.489 1997.55 686.057 1987.14 L 687.503 1985.73 z" fill="rgb(106,24,17)" transform="translate(0,0)"></path>
<path d="M 1828.56 1936.2 C 1829.22 1937.82 1828.68 1938.61 1829.3 1940.69 C 1850.46 1949.04 1866.3 1962.6 1875.68 1983.63 C 1884.76 2003.99 1883.47 2026.06 1883.5 2048 L 1798.74 2048 C 1789.04 2023.84 1781.56 1998.77 1771.51 1974.7 C 1766.86 1963.56 1762.46 1952.11 1758.5 1940.72 C 1757.79 1939.46 1757.78 1939.42 1757.32 1938.04 C 1757.96 1937.69 1758.6 1937.34 1759.24 1936.99 C 1760.37 1937.62 1761.33 1938.25 1762.99 1938.24 C 1784.29 1938.12 1805.66 1938.33 1826.96 1938.31 C 1827.67 1938.31 1828.28 1936.74 1828.56 1936.2 z" fill="rgb(78,205,196)" transform="translate(0,0)"></path>
<path d="M 1828.56 1936.2 C 1829.22 1937.82 1828.68 1938.61 1829.3 1940.69 C 1818.82 1941.33 1763.45 1939.04 1758.5 1940.72 C 1757.79 1939.46 1757.78 1939.42 1757.32 1938.04 C 1757.96 1937.69 1758.6 1937.34 1759.24 1936.99 C 1760.37 1937.62 1761.33 1938.25 1762.99 1938.24 C 1784.29 1938.12 1805.66 1938.33 1826.96 1938.31 C 1827.67 1938.31 1828.28 1936.74 1828.56 1936.2 z" fill="rgb(17,88,91)" transform="translate(0,0)"></path>
<path d="M 411.942 1872.92 C 416.016 1871.67 413.565 1876.29 415.682 1877.38 C 418.722 1878.94 432.396 1876.42 433.805 1879.52 C 433.579 1881.02 420.406 1879.93 416.978 1880.39 C 417.403 1881.63 417.845 1882.87 418.303 1884.1 C 436.389 1883.94 462.464 1883.22 475.673 1897.59 C 477.67 1899.76 477.68 1900.75 480.373 1900.03 C 483.31 1906.82 477.189 1915.77 473.228 1920.97 L 474.438 1923.35 C 472.626 1925.32 472.166 1926.97 469.906 1928.18 C 463.995 1935.65 435.571 1957.05 427.96 1958.49 C 430.153 1953.46 443.192 1953.36 440.796 1946.02 C 436.953 1938.28 430.899 1921.37 427.62 1912.62 C 423.019 1900.34 416.042 1884.87 411.942 1872.92 z" fill="rgb(120,11,150)" transform="translate(0,0)"></path>
<path d="M 411.942 1872.92 C 416.016 1871.67 413.565 1876.29 415.682 1877.38 C 418.722 1878.94 432.396 1876.42 433.805 1879.52 C 433.579 1881.02 420.406 1879.93 416.978 1880.39 C 417.403 1881.63 417.845 1882.87 418.303 1884.1 L 418.988 1885.6 C 419.621 1886.91 420.114 1888.24 420.636 1889.61 L 435.736 1928.11 C 437.291 1932 441.052 1941.59 441.862 1945.45 C 445.682 1948.98 453.139 1940.86 456.667 1938.03 C 457.846 1937.36 457.819 1937.38 458.639 1936.32 L 459.902 1935.48 C 464.026 1932.38 465.393 1930.51 469.906 1928.18 C 463.995 1935.65 435.571 1957.05 427.96 1958.49 C 430.153 1953.46 443.192 1953.36 440.796 1946.02 C 436.953 1938.28 430.899 1921.37 427.62 1912.62 C 423.019 1900.34 416.042 1884.87 411.942 1872.92 z" fill="rgb(43,30,46)" transform="translate(0,0)"></path>
<path d="M 473.228 1920.97 L 474.438 1923.35 C 472.626 1925.32 472.166 1926.97 469.906 1928.18 C 465.393 1930.51 464.026 1932.38 459.902 1935.48 C 462.249 1932.63 470.298 1923.63 473.228 1920.97 z" fill="rgb(102,20,83)" transform="translate(0,0)"></path>
<path d="M 416.978 1880.39 C 423.615 1880.76 429.448 1880.99 436.12 1880.84 L 444.371 1881.33 C 442.508 1880.48 470.258 1887.07 467.993 1886.94 C 469.785 1888.11 471.4 1889.27 473.306 1890.24 C 477.66 1894.35 478.055 1894.72 480.373 1900.03 C 477.68 1900.75 477.67 1899.76 475.673 1897.59 C 462.464 1883.22 436.389 1883.94 418.303 1884.1 C 417.845 1882.87 417.403 1881.63 416.978 1880.39 z" fill="rgb(139,92,246)" transform="translate(0,0)"></path>
<path d="M 467.993 1886.94 C 473.055 1886.64 472.399 1887.58 476.48 1890.02 C 480.874 1895.62 483.409 1900.53 485.605 1907.26 C 488.335 1915.63 500.681 1937.9 499.72 1945.17 C 493.878 1932.34 488.383 1919.35 483.243 1906.23 C 480.198 1913.63 479.097 1916.52 474.438 1923.35 L 473.228 1920.97 C 477.189 1915.77 483.31 1906.82 480.373 1900.03 C 478.055 1894.72 477.66 1894.35 473.306 1890.24 C 471.4 1889.27 469.785 1888.11 467.993 1886.94 z" fill="rgb(43,30,46)" transform="translate(0,0)"></path>
<path d="M 436.12 1880.84 C 436.85 1877.28 444.832 1879.74 446.337 1880.56 C 445.681 1880.82 445.026 1881.07 444.371 1881.33 L 436.12 1880.84 z" fill="rgb(43,30,46)" transform="translate(0,0)"></path>
<metadata><recraft-signature>{"signed_by": "recraft", "signature_b64": "pesdfH/1xt/8USFuWptOeOJ+S3FSw8HHLTmyzNM02JplaDsv7QTdPgXEqyuWNF/ZxgXj3eaovQ/MVAdjXkViCQ==", "signing_algo": "Ed25519", "generation_timestamp": 1783346064, "identifier": "0832422a-6dc4-4697-84e7-b02122ef2ee1"}</recraft-signature></metadata></svg>