<svg xmlns="http://www.w3.org/2000/svg" height="1024" preserveAspectRatio="none" style="display: block;" version="1.1" viewBox="0 0 2048 2048" width="1024">
<defs>
	<linearGradient gradientUnits="userSpaceOnUse" id="Gradient1" x1="1350.13" x2="1117.89" y1="731.217" y2="730.547">
		<stop class="stop0" offset="0" stop-color="rgb(93,20,68)" stop-opacity="1"></stop>
		<stop class="stop1" offset="1" stop-color="rgb(212,131,235)" stop-opacity="1"></stop>
	</linearGradient>
	<linearGradient gradientUnits="userSpaceOnUse" id="Gradient2" x1="696.2" x2="935.813" y1="730.573" y2="731.855">
		<stop class="stop0" offset="0" stop-color="rgb(77,11,54)" stop-opacity="1"></stop>
		<stop class="stop1" offset="1" stop-color="rgb(211,126,231)" stop-opacity="1"></stop>
	</linearGradient>
</defs>
<path d="M 0 0 L 2048 0 L 2048 2048 L 1998.24 2048 L 1849.2 2048 L 1751.68 2048 L 1735.51 2048 L 1384.34 2048 L 1160.82 2048 L 861.362 2048 L 663.814 2048 L 314.285 2048 L 310.195 2048 L 220.656 2048 L 0 2048 L 0 0 z" fill="rgb(43,30,46)" transform="translate(0,0)"></path>
<path d="M 677.871 962.412 C 682.233 953.157 688.956 944.909 698.089 940.044 C 707.377 935.183 718.252 934.343 728.176 937.722 C 741.925 942.308 747.437 951.474 753.519 963.341 C 773.106 949.362 796.28 946.777 812.905 967.544 C 822.898 980.026 822.263 993.205 820.456 1008.09 L 819.731 1011.86 L 820.578 1012.2 C 822.249 1010.35 823.083 1009.48 824.508 1007.39 C 852.563 977.951 894.986 995.896 892.505 1035.36 C 888.918 1092.4 882.518 1149.58 878.816 1206.55 C 892.003 1219.24 903.07 1247.76 908.678 1264.98 C 909.63 1269.09 911.063 1276.24 912.433 1279.97 C 953.566 1320.14 1008.89 1342.47 1066.38 1342.09 C 1086.08 1342 1112.82 1339.25 1131.99 1334.15 C 1133.23 1362.44 1136.46 1381.12 1146.02 1408.55 C 1148.85 1416.66 1156.63 1435.55 1158.42 1442.85 L 1214.09 1594.17 C 1219.58 1606.16 1224.69 1621.3 1229.31 1633.85 L 1250.79 1691.27 C 1266.81 1732.99 1282.47 1774.84 1297.78 1816.83 C 1302.55 1829.63 1308.13 1842.7 1312.7 1855.44 C 1322.47 1886.74 1337.78 1922.03 1349.38 1953.3 C 1361 1984.65 1372.09 2017.04 1384.34 2048 L 1160.82 2048 L 861.362 2048 L 663.814 2048 L 314.285 2048 C 317.191 2041.07 321.357 2032.61 324.899 2025.94 C 355.992 1961.32 387.704 1897 420.029 1832.99 L 536.67 1597.78 L 603.607 1462.94 C 613.332 1443.18 627.232 1416.98 635.747 1397.15 L 636.589 1395.93 C 636.312 1395.16 614.62 1377.33 612.249 1375.14 C 593.463 1357.89 577.282 1338 564.213 1316.09 C 560.629 1310.46 557.269 1304.68 554.141 1298.78 C 529.829 1253.23 518.294 1196.57 532.821 1145.94 C 541.178 1116.81 564.501 1094.3 596.901 1104.77 C 597.089 1096.76 599.606 1081.27 600.732 1072.9 L 608.629 1014.82 C 611.683 999.691 609.99 985.893 618.585 972.09 C 624.213 963.007 633.307 956.617 643.76 954.4 C 657.312 951.506 666.841 955.61 677.871 962.412 z" fill="rgb(245,237,230)" transform="translate(0,0)"></path>
<path d="M 912.433 1279.97 C 953.566 1320.14 1008.89 1342.47 1066.38 1342.09 C 1086.08 1342 1112.82 1339.25 1131.99 1334.15 C 1133.23 1362.44 1136.46 1381.12 1146.02 1408.55 C 1148.85 1416.66 1156.63 1435.55 1158.42 1442.85 L 1214.09 1594.17 C 1219.58 1606.16 1224.69 1621.3 1229.31 1633.85 L 1250.79 1691.27 C 1266.81 1732.99 1282.47 1774.84 1297.78 1816.83 C 1302.55 1829.63 1308.13 1842.7 1312.7 1855.44 C 1322.47 1886.74 1337.78 1922.03 1349.38 1953.3 C 1361 1984.65 1372.09 2017.04 1384.34 2048 L 1160.82 2048 L 861.362 2048 L 663.814 2048 C 678.08 2006.92 695.146 1965.48 710.237 1924.48 L 889.214 1444.73 C 894.355 1430.22 900.38 1416.27 905.296 1401.44 C 919.263 1359.31 920.135 1323.01 912.433 1279.97 z" fill="rgb(255,90,31)" transform="translate(0,0)"></path>
<path d="M 1214.09 1594.17 C 1219.58 1606.16 1224.69 1621.3 1229.31 1633.85 L 1250.79 1691.27 C 1266.81 1732.99 1282.47 1774.84 1297.78 1816.83 C 1302.55 1829.63 1308.13 1842.7 1312.7 1855.44 C 1322.47 1886.74 1337.78 1922.03 1349.38 1953.3 C 1361 1984.65 1372.09 2017.04 1384.34 2048 L 1160.82 2048 L 861.362 2048 C 868.437 2036.63 888.296 2012.52 897.506 2000.92 L 955.935 1926.33 L 1122.87 1712.28 C 1152.75 1673.95 1185.55 1633.2 1214.09 1594.17 z" fill="rgb(78,205,196)" transform="translate(0,0)"></path>
<path d="M 1312.7 1855.44 C 1322.47 1886.74 1337.78 1922.03 1349.38 1953.3 C 1361 1984.65 1372.09 2017.04 1384.34 2048 L 1160.82 2048 C 1211.7 1985.68 1262.06 1918.61 1312.7 1855.44 z" fill="rgb(255,90,31)" transform="translate(0,0)"></path>
<path d="M 1024 530.905 C 1039.51 552.867 1052.24 566.109 1078.49 574.765 C 1116.76 587.386 1148.06 578.716 1180.48 557.766 C 1185.82 585.032 1195.87 602.422 1217.96 620.088 C 1245.8 642.355 1274.48 645.828 1309.05 641.575 C 1308.12 696.06 1343.44 741.891 1397.86 750.653 L 1398.28 793.004 C 1408.23 789.361 1418.88 786.507 1429.43 785.343 C 1459.24 782.215 1489.08 791.046 1512.4 809.898 C 1536.08 828.844 1551.15 856.514 1554.22 886.685 C 1558.75 931.064 1536.9 973.768 1499.03 997.074 C 1480.12 1008.72 1461.08 1011.86 1439.47 1013.84 C 1437.34 995.223 1437.41 974.319 1421.61 962.007 C 1413.34 955.68 1402.87 952.95 1392.56 954.435 C 1383.72 955.653 1378.45 958.444 1371.07 962.864 C 1359.24 940.355 1341.22 928.584 1314.9 940.566 C 1305.54 944.829 1299.55 954.467 1295.07 963.473 C 1275.83 949.262 1252.09 946.863 1236.56 967.626 C 1227.05 980.336 1227.81 1000.22 1230.01 1015.21 C 1226.84 1010.47 1222.1 1003.14 1217.48 1000.08 C 1186.95 979.846 1153.07 1001.65 1156.78 1037.4 C 1162.5 1092.55 1162.52 1149.98 1169.75 1204.36 C 1154.06 1226.28 1149.25 1236.8 1141.6 1262.97 C 1135.53 1287.03 1131.42 1309.08 1131.99 1334.15 C 1112.82 1339.25 1086.08 1342 1066.38 1342.09 C 1008.89 1342.47 953.566 1320.14 912.433 1279.97 C 911.063 1276.24 909.63 1269.09 908.678 1264.98 C 903.07 1247.76 892.003 1219.24 878.816 1206.55 C 882.518 1149.58 888.918 1092.4 892.505 1035.36 C 894.986 995.896 852.563 977.951 824.508 1007.39 C 823.083 1009.48 822.249 1010.35 820.578 1012.2 L 819.731 1011.86 L 820.456 1008.09 C 822.263 993.205 822.898 980.026 812.905 967.544 C 796.28 946.777 773.106 949.362 753.519 963.341 C 747.437 951.474 741.925 942.308 728.176 937.722 C 718.252 934.343 707.377 935.183 698.089 940.044 C 688.956 944.909 682.233 953.157 677.871 962.412 C 666.841 955.61 657.312 951.506 643.76 954.4 C 633.307 956.617 624.213 963.007 618.585 972.09 C 609.99 985.893 611.683 999.691 608.629 1014.82 C 604.621 1013.09 596.799 1013.45 592.051 1012.62 C 553.815 1005.94 522.592 984.525 505.007 949.558 C 491.628 922.879 489.267 892.011 498.432 863.607 C 512.325 821.833 546.015 793.559 589.242 786.147 C 611.519 782.328 628.82 786.089 649.863 792.984 L 650.047 750.069 C 705.395 742.645 738.876 694.55 739.185 640.64 C 801.966 652.418 852.178 618.47 867.209 556.956 C 907.475 593.444 974.569 587.009 1010.65 548.138 C 1015.65 542.75 1019.77 536.892 1024 530.905 z" fill="rgb(255,90,31)" transform="translate(0,0)"></path>
<path d="M 908.678 1264.98 C 911.81 1265.7 937.889 1277.19 945.571 1279.55 C 1009.23 1299.1 1082.58 1293.92 1141.6 1262.97 C 1135.53 1287.03 1131.42 1309.08 1131.99 1334.15 C 1112.82 1339.25 1086.08 1342 1066.38 1342.09 C 1008.89 1342.47 953.566 1320.14 912.433 1279.97 C 911.063 1276.24 909.63 1269.09 908.678 1264.98 z" fill="rgb(115,67,34)" transform="translate(0,0)"></path>
<path d="M 830.579 781.432 C 875.682 777.481 960.912 801.827 968.361 855.641 C 973.047 889.499 934.585 916.888 907.059 927.376 C 885.53 935.58 871.034 937.933 848.498 939.962 C 807.706 940.934 762.189 932.525 729.925 905.696 C 704.058 884.187 698.119 849.98 722.255 824.197 C 749.633 794.95 791.825 784.018 830.579 781.432 z" fill="rgb(245,237,230)" transform="translate(0,0)"></path>
<path d="M 832.258 827.566 C 850.027 824.561 866.929 836.338 870.265 854.047 C 873.601 871.756 862.142 888.875 844.498 892.542 C 832.788 894.975 820.677 890.894 812.826 881.871 C 804.976 872.848 802.61 860.289 806.64 849.028 C 810.669 837.767 820.466 829.56 832.258 827.566 z" fill="rgb(43,30,46)" transform="translate(0,0)"></path>
<path d="M 1199.82 781.416 C 1235.84 777.88 1288.21 791.799 1316.77 814.964 C 1343.39 836.556 1351.34 869.57 1326.32 896.694 C 1300.43 924.77 1261 936.853 1223.75 939.312 C 1185.97 942.48 1139.61 933.63 1108.97 909.96 C 1095.87 899.618 1080.98 882.582 1080.42 864.997 C 1078.55 806.662 1155.11 785.435 1199.82 781.416 z" fill="rgb(245,237,230)" transform="translate(0,0)"></path>
<path d="M 1204.53 827.535 C 1216.26 825.345 1228.25 829.633 1235.93 838.76 C 1243.61 847.886 1245.79 860.439 1241.63 871.617 C 1237.46 882.795 1227.61 890.868 1215.83 892.75 C 1197.95 895.607 1181.09 883.561 1178 865.718 C 1174.91 847.875 1186.73 830.86 1204.53 827.535 z" fill="rgb(43,30,46)" transform="translate(0,0)"></path>
<path d="M 793.67 686.627 C 835.883 670.516 895.017 683.265 936.792 696.494 L 937.649 696.865 C 951.01 702.546 967.969 707.114 973.779 721.586 C 980.32 737.881 975.58 760.128 959.403 768.793 C 952.953 772.248 943.181 775.037 936.361 772.208 C 923.598 770.556 907.195 765.267 894.092 762.469 C 858.26 754.818 829.402 754.37 793.18 757.515 C 771.848 760.546 751.983 764.723 731.873 772.659 C 720.881 776.998 701.654 793.79 696.482 774.586 C 694.482 767.16 702.799 753.405 706.783 747.169 C 726.607 716.3 757.845 694.533 793.67 686.627 z" fill="url(#Gradient2)" transform="translate(0,0)"></path>
<path d="M 936.792 696.494 L 937.649 696.865 C 951.01 702.546 967.969 707.114 973.779 721.586 C 980.32 737.881 975.58 760.128 959.403 768.793 C 952.953 772.248 943.181 775.037 936.361 772.208 C 934.821 770.739 930.291 768.992 931.977 767.211 C 934.314 764.864 933.538 754.289 932.701 751.261 C 930.322 742.654 933.616 737.24 932.815 728.337 C 931.927 718.472 935.268 706.541 936.792 696.494 z" fill="rgb(205,131,234)" transform="translate(0,0)"></path>
<path d="M 1117.01 695.299 C 1158.39 676.892 1234.42 672.718 1275.84 693.188 C 1301.73 700.342 1331.06 728.293 1343.81 751.697 C 1347.39 758.91 1353.75 769.66 1351.15 777.802 C 1349.81 781.979 1342.03 784.492 1338.3 782.771 C 1317.12 773.004 1298.87 765.81 1275.77 760.47 C 1234.55 752.835 1202.98 753.511 1161.69 761.3 C 1151.36 763.248 1133.08 768.576 1124.06 769.638 C 1119.8 770.974 1116.67 771.074 1112.5 772.018 C 1079.38 779.552 1062.42 739.742 1079.36 715.339 C 1085.15 707.009 1107.45 696.573 1117.01 695.299 z" fill="url(#Gradient1)" transform="translate(0,0)"></path>
<path d="M 1117.01 695.299 C 1129.04 697.026 1132.12 683.109 1131.51 712.866 C 1131.34 721.656 1132.26 732.046 1130.78 740.522 C 1129.89 745.59 1133.38 763.482 1130.28 766.845 C 1128.15 766.101 1124.61 766.862 1124.06 769.638 C 1119.8 770.974 1116.67 771.074 1112.5 772.018 C 1079.38 779.552 1062.42 739.742 1079.36 715.339 C 1085.15 707.009 1107.45 696.573 1117.01 695.299 z" fill="rgb(205,131,234)" transform="translate(0,0)"></path>
<path d="M 944.784 1179.81 C 938.401 1166.89 939.779 1144.9 944.448 1131.51 C 972.211 1051.84 1084.31 1055.9 1107.11 1136.75 C 1110.59 1149.1 1109.42 1166.43 1106.49 1178.78 L 1105.11 1179.79 L 1104.05 1179.31 C 1091.25 1180.76 1053.27 1180.21 1038.91 1180.04 C 1009.83 1179.7 973.193 1181.53 944.784 1179.81 z" fill="rgb(115,67,34)" transform="translate(0,0)"></path>
<path d="M 944.784 1179.81 C 980.062 1130.27 1067.89 1131.19 1104.05 1179.31 C 1091.25 1180.76 1053.27 1180.21 1038.91 1180.04 C 1009.83 1179.7 973.193 1181.53 944.784 1179.81 z" fill="rgb(255,209,102)" transform="translate(0,0)"></path>
<path d="M 966.925 983.462 C 967.527 983.383 968.977 983.169 969.832 983.171 C 1006.29 983.235 1043.03 982.323 1079.44 983.317 C 1080.09 983.881 1080.73 984.444 1081.38 985.008 C 1078.82 985.874 1075.48 986.023 1070.89 985.988 C 1037.17 985.729 1002.78 986.926 969.146 985.659 C 968.405 984.926 967.665 984.194 966.925 983.462 z" fill="rgb(43,30,46)" transform="translate(0,0)"></path>
<path d="M 1295.07 963.473 C 1299.55 954.467 1305.54 944.829 1314.9 940.566 C 1341.22 928.584 1359.24 940.355 1371.07 962.864 C 1378.45 958.444 1383.72 955.653 1392.56 954.435 C 1402.87 952.95 1413.34 955.68 1421.61 962.007 C 1437.41 974.319 1437.34 995.223 1439.47 1013.84 C 1443.71 1043.87 1447.69 1073.94 1451.38 1104.04 C 1490.63 1095 1510.46 1120.31 1518.2 1155.24 C 1529.76 1207.44 1512.27 1274.44 1482.08 1318.27 C 1461.37 1350.13 1441.89 1371.78 1411.77 1395.07 C 1414.52 1400.32 1418 1406.54 1420.47 1411.82 C 1454.53 1477.79 1485.42 1546.51 1519.31 1611.98 L 1724.27 2026.12 C 1727.51 2032.52 1731.96 2042.04 1735.51 2048 L 1384.34 2048 C 1372.09 2017.04 1361 1984.65 1349.38 1953.3 C 1337.78 1922.03 1322.47 1886.74 1312.7 1855.44 C 1308.13 1842.7 1302.55 1829.63 1297.78 1816.83 C 1282.47 1774.84 1266.81 1732.99 1250.79 1691.27 L 1229.31 1633.85 C 1224.69 1621.3 1219.58 1606.16 1214.09 1594.17 L 1158.42 1442.85 C 1156.63 1435.55 1148.85 1416.66 1146.02 1408.55 C 1136.46 1381.12 1133.23 1362.44 1131.99 1334.15 C 1131.42 1309.08 1135.53 1287.03 1141.6 1262.97 C 1149.25 1236.8 1154.06 1226.28 1169.75 1204.36 C 1162.52 1149.98 1162.5 1092.55 1156.78 1037.4 C 1153.07 1001.65 1186.95 979.846 1217.48 1000.08 C 1222.1 1003.14 1226.84 1010.47 1230.01 1015.21 C 1227.81 1000.22 1227.05 980.336 1236.56 967.626 C 1252.09 946.863 1275.83 949.262 1295.07 963.473 z" fill="rgb(245,237,230)" transform="translate(0,0)"></path>
<path d="M 307.212 1610.41 C 401.816 1516.95 508.6 1440.1 635.747 1397.15 C 627.232 1416.98 613.332 1443.18 603.607 1462.94 L 536.67 1597.78 L 420.029 1832.99 C 387.704 1897 355.992 1961.32 324.899 2025.94 C 321.357 2032.61 317.191 2041.07 314.285 2048 L 310.195 2048 L 220.656 2048 C 221.299 2038.36 222.752 2029.16 223.225 2019.81 C 224.314 2012.97 224.877 2004.18 225.078 1997.24 C 215.052 1993.31 191.162 1987.17 179.452 1983.79 C 150.996 1975.6 122.597 1967.22 94.2548 1958.64 C 106.509 1928.77 116.261 1898.38 130.326 1868.76 C 177.747 1768.89 233.059 1691 307.212 1610.41 z" fill="rgb(255,90,31)" transform="translate(0,0)"></path>
<path d="M 225.078 1997.24 L 226.81 1997.74 C 227.204 1997.84 227.597 1997.94 227.991 1998.05 L 308.024 2020.79 C 313.411 2022.36 319.661 2023.99 324.899 2025.94 C 321.357 2032.61 317.191 2041.07 314.285 2048 L 310.195 2048 L 220.656 2048 C 221.299 2038.36 222.752 2029.16 223.225 2019.81 C 224.314 2012.97 224.877 2004.18 225.078 1997.24 z" fill="rgb(115,67,34)" transform="translate(0,0)"></path>
<path d="M 223.225 2019.81 C 227.98 2017.18 283.23 2039.59 292.247 2041.39 C 294.377 2041.82 307.527 2046.73 310.195 2048 L 220.656 2048 C 221.299 2038.36 222.752 2029.16 223.225 2019.81 z" fill="rgb(254,157,42)" transform="translate(0,0)"></path>
<path d="M 1620.29 1502.67 C 1653.58 1520.81 1692.58 1551.09 1721.3 1576.33 C 1733.39 1586.95 1745.5 1600.08 1757.08 1610.04 C 1776.98 1631.98 1801.91 1659.24 1819.92 1682.21 C 1877.02 1755.05 1936.73 1866.55 1957.86 1957.15 L 1846.21 1989.97 C 1846.66 1996.44 1846.91 2011.04 1847.77 2016.22 C 1848.64 2026.8 1849.12 2037.39 1849.2 2048 L 1751.68 2048 L 1735.51 2048 C 1731.96 2042.04 1727.51 2032.52 1724.27 2026.12 L 1519.31 1611.98 C 1546.4 1576.52 1583.83 1528.75 1620.29 1502.67 z" fill="rgb(255,90,31)" transform="translate(0,0)"></path>
<path d="M 1724.27 2026.12 C 1728.67 2023.72 1759.9 2015.32 1766.62 2013.4 C 1793.21 2005.77 1819.74 1997.95 1846.21 1989.97 C 1846.66 1996.44 1846.91 2011.04 1847.77 2016.22 C 1848.64 2026.8 1849.12 2037.39 1849.2 2048 L 1751.68 2048 L 1735.51 2048 C 1731.96 2042.04 1727.51 2032.52 1724.27 2026.12 z" fill="rgb(115,67,34)" transform="translate(0,0)"></path>
<path d="M 1751.68 2048 C 1771.48 2039.64 1801.04 2033.25 1821.74 2025.82 C 1830.81 2022.57 1838.92 2020.89 1847.77 2016.22 C 1848.64 2026.8 1849.12 2037.39 1849.2 2048 L 1751.68 2048 z" fill="rgb(254,157,42)" transform="translate(0,0)"></path>
<path d="M 1420.47 1411.82 C 1480.68 1383.32 1534.59 1379.68 1598.84 1398.8 C 1680.57 1423.13 1743.27 1480.83 1779.38 1557.21 C 1781.27 1561.21 1783.1 1565.23 1784.87 1569.29 L 1796.65 1575.06 C 1813.01 1584.89 1828.4 1594.59 1843.11 1606.95 C 1913.81 1666.37 1960.94 1753.08 1983.15 1842.11 C 1991.72 1876.85 1996.75 1912.37 1998.14 1948.12 C 1999.27 1980.88 1997.7 2014.96 1998.24 2048 L 1849.2 2048 C 1849.12 2037.39 1848.64 2026.8 1847.77 2016.22 C 1846.91 2011.04 1846.66 1996.44 1846.21 1989.97 L 1957.86 1957.15 C 1936.73 1866.55 1877.02 1755.05 1819.92 1682.21 C 1801.91 1659.24 1776.98 1631.98 1757.08 1610.04 C 1745.5 1600.08 1733.39 1586.95 1721.3 1576.33 C 1692.58 1551.09 1653.58 1520.81 1620.29 1502.67 C 1583.83 1528.75 1546.4 1576.52 1519.31 1611.98 C 1485.42 1546.51 1454.53 1477.79 1420.47 1411.82 z" fill="rgb(78,205,196)" transform="translate(0,0)"></path>
<path d="M 1620.29 1502.67 C 1671.17 1470.38 1704.57 1507.63 1732.27 1549.02 C 1743.46 1565.73 1753.28 1590.36 1757.08 1610.04 C 1745.5 1600.08 1733.39 1586.95 1721.3 1576.33 C 1692.58 1551.09 1653.58 1520.81 1620.29 1502.67 z" fill="rgb(43,30,46)" transform="translate(0,0)"></path>
<path d="M 795.774 301.802 C 816.227 233.611 851.092 189.306 914.607 155.157 C 970.02 125.952 1034.76 119.941 1094.6 138.444 C 1154.79 157.397 1205.08 199.307 1234.58 255.089 C 1241.91 269.182 1249.27 287.073 1253.61 302.35 C 1229.64 305.508 1220.76 309.371 1200.03 321.93 C 1194.88 312.447 1188.41 302.279 1182.76 292.979 C 1163.79 252.738 1126.27 224.163 1085.18 208.546 C 1006.39 178.598 900.354 215.005 864.622 294.407 C 857.887 303.974 851.941 311.942 846.498 322.333 C 828.095 311.117 816.954 305.37 795.774 301.802 z" fill="rgb(255,209,102)" transform="translate(0,0)"></path>
<metadata><recraft-signature>{"signed_by": "recraft", "signature_b64": "Iprd1x/6F1um/mmPkun9wFoTWue56GGYUdFo2ffTf8NvWt5B1SKzRUkcEM1i0fd9+qc1lJ2amg3ydxC4/TMCAA==", "signing_algo": "Ed25519", "generation_timestamp": 1783346020, "identifier": "bee91a2f-0d85-4a5e-b198-8f34140511b1"}</recraft-signature></metadata></svg>