<svg xmlns="http://www.w3.org/2000/svg" height="1024" preserveAspectRatio="none" style="display: block;" version="1.1" viewBox="0 0 2048 2048" width="1024">
<path d="M 0 0 L 2048 0 L 2048 2048 L 1909.47 2048 L 1906.74 2048 L 1525.91 2048 L 1522.45 2048 L 1452.09 2048 L 1448.5 2048 L 1228.29 2048 L 1224.87 2048 L 530.919 2048 L 528.163 2048 L 523.58 2048 L 146.014 2048 L 0 2048 L 0 0 z" fill="rgb(43,30,46)" transform="translate(0,0)"></path>
<path d="M 536.648 1482.21 C 578.006 1459.36 636.96 1440.67 682.75 1423.01 C 685.888 1444.6 687.244 1451.58 701.344 1468.71 C 700.251 1491.51 704.825 1511.07 720.157 1528.75 C 749.928 1563.09 780.99 1536.97 812.846 1566.15 C 821.671 1574.24 822.869 1588.85 829.252 1596.08 C 838.21 1610.38 852.7 1619.84 869.026 1623.6 C 880.01 1626.07 891.41 1626.02 902.372 1623.45 C 963.248 1598.46 963.396 1644.35 1011.5 1654.95 C 1028.72 1658.66 1055.8 1654.78 1069.12 1642.22 C 1087.88 1624.53 1104.52 1611.9 1132.06 1617.91 C 1139.48 1619.53 1147.48 1622.97 1155.15 1624.45 C 1166.71 1626.71 1178.66 1625.78 1189.73 1621.76 C 1233.27 1606.43 1219.4 1575.34 1251.91 1556.88 C 1271.5 1545.75 1288.21 1552.73 1307.81 1546.69 C 1313.17 1545.05 1320.56 1538.3 1325.6 1535.04 L 1327.06 1534.1 C 1309.03 1628.6 1290.31 1722.97 1270.92 1817.2 L 1243.24 1955.45 C 1237.36 1985.56 1232.01 2018.39 1224.87 2048 L 530.919 2048 L 528.163 2048 L 523.58 2048 L 146.014 2048 C 156.327 2032.57 166.394 2014.76 176.08 1998.76 L 224.296 1919.66 C 238.406 1896.43 262.424 1861 273.537 1838.44 C 283.933 1823.96 299.56 1797.16 309.027 1781.6 C 323.807 1757.31 341.941 1729.07 355.452 1704.28 C 360.053 1699.58 374.951 1673.36 378.899 1666.64 C 405.113 1622.03 429.743 1581.75 462.474 1541.55 C 479.29 1525.49 494.837 1508.71 514.585 1496.12 C 519.06 1493.27 524.055 1490.06 528.226 1486.82 L 536.648 1482.21 z" fill="rgb(255,90,31)" transform="translate(0,0)"></path>
<path d="M 527.837 1789.05 L 530.223 1788.5 L 530.919 2048 L 528.163 2048 L 527.672 2046.08 C 525.443 2042.19 524.603 2040.01 524.303 2035.51 C 525.835 2032.98 525.997 2030.64 527.043 2027.5 C 528.228 1996.37 527.589 1962.67 527.565 1931.3 L 527.837 1789.05 z" fill="rgb(3,0,3)" transform="translate(0,0)"></path>
<path d="M 524.303 2035.51 C 525.835 2032.98 525.997 2030.64 527.043 2027.5 C 527.269 2033.69 527.513 2039.88 527.672 2046.08 C 525.443 2042.19 524.603 2040.01 524.303 2035.51 z" fill="rgb(179,25,17)" transform="translate(0,0)"></path>
<path d="M 453.541 1770.67 L 454.876 1768.28 C 458.849 1782.53 464.326 1800.32 467.381 1814.49 L 508.441 1975.85 C 510.633 1984.46 522.742 2027.66 522.953 2033.27 L 524.303 2035.51 C 524.603 2040.01 525.443 2042.19 527.672 2046.08 L 528.163 2048 L 523.58 2048 L 520.583 2036.53 C 516.583 2014.55 505.77 1976.32 499.92 1953.44 C 488.323 1908.1 477.414 1861.43 465.542 1816.35 C 462.268 1803.02 457.858 1783.28 453.541 1770.67 z" fill="rgb(43,30,46)" transform="translate(0,0)"></path>
<path d="M 529.747 1646.34 C 528.923 1693.19 530.582 1741.4 530.223 1788.5 L 527.837 1789.05 C 527.777 1751.12 528.662 1712.39 528.234 1674.62 C 531.17 1664.72 527.965 1654.98 529.747 1646.34 z" fill="rgb(43,30,46)" transform="translate(0,0)"></path>
<path d="M 528.234 1674.62 C 527.85 1669.53 528.057 1618.86 529.541 1618.15 C 530.709 1621.01 530.1 1642.7 529.747 1646.34 C 527.965 1654.98 531.17 1664.72 528.234 1674.62 z" fill="rgb(179,25,17)" transform="translate(0,0)"></path>
<path d="M 453.541 1770.67 C 452.595 1767.02 444.558 1734.38 444.842 1733.66 C 444.95 1733.66 445.059 1733.65 445.167 1733.64 C 446.909 1735.28 454.183 1764.42 454.876 1768.28 L 453.541 1770.67 z" fill="rgb(179,25,17)" transform="translate(0,0)"></path>
<path d="M 1378.95 1383.96 C 1388.49 1380.19 1406.19 1387.34 1416.44 1390.28 C 1429.54 1393.95 1442.68 1397.47 1455.87 1400.82 C 1461.18 1402.25 1475.08 1406.28 1479.81 1406.91 C 1509.17 1417.44 1531.06 1432.03 1545.01 1460.87 C 1563.45 1499.01 1548.78 1542.75 1540.66 1582.36 L 1518.01 1694.8 L 1479.5 1890.2 C 1469.25 1942.22 1457.84 1995.93 1448.5 2048 L 1228.29 2048 L 1224.87 2048 C 1232.01 2018.39 1237.36 1985.56 1243.24 1955.45 L 1270.92 1817.2 C 1290.31 1722.97 1309.03 1628.6 1327.06 1534.1 L 1331.71 1532.86 L 1333.58 1522.26 C 1341.47 1487.71 1346.35 1450.05 1354.65 1415.29 C 1358.48 1399.23 1364.95 1392.12 1378.95 1383.96 z" fill="rgb(78,205,196)" transform="translate(0,0)"></path>
<path d="M 1327.06 1534.1 L 1331.71 1532.86 L 1228.29 2048 L 1224.87 2048 C 1232.01 2018.39 1237.36 1985.56 1243.24 1955.45 L 1270.92 1817.2 C 1290.31 1722.97 1309.03 1628.6 1327.06 1534.1 z" fill="rgb(3,0,3)" transform="translate(0,0)"></path>
<path d="M 1557.85 1516.94 C 1561.52 1520.27 1565.15 1523.66 1568.84 1526.97 C 1631.58 1583.42 1669.2 1659.11 1712.99 1730.19 L 1846.28 1947.97 C 1865.48 1979.46 1886.88 2017.76 1906.74 2048 L 1525.91 2048 L 1522.45 2048 L 1452.09 2048 C 1464.34 1978.12 1479.59 1907.25 1493.23 1837.52 L 1524.4 1681.72 C 1535.38 1626.1 1545.47 1572.47 1557.85 1516.94 z" fill="rgb(255,90,31)" transform="translate(0,0)"></path>
<path d="M 1527.21 1724.99 C 1527.65 1730.17 1527.34 1730.88 1528.82 1735.63 C 1529.11 1757 1530.6 1789.08 1529.77 1809.63 C 1530.58 1869.12 1528.52 1934.74 1530.88 1993.39 L 1530.54 2011.9 C 1532.26 2006.59 1533.6 2002.9 1534.53 1997.35 C 1553.87 1918.22 1576.81 1838.29 1596.18 1759.02 L 1597.21 1760.55 C 1585.7 1809.15 1573.71 1857.62 1561.23 1905.98 C 1550.08 1948.79 1537.02 1996.66 1527.68 2039.7 L 1525.91 2048 L 1522.45 2048 L 1525.39 2035.86 C 1529.85 2016.68 1527.68 1984.68 1527.81 1963.48 C 1527.21 1956.3 1527.12 1948.12 1527.19 1940.91 C 1527.94 1869.03 1526.22 1796.82 1527.21 1724.99 z" fill="rgb(43,30,46)" transform="translate(0,0)"></path>
<path d="M 1527.21 1724.99 C 1526.09 1715.17 1527.88 1706.74 1528.25 1697.52 L 1528.46 1691.45 C 1528.48 1690.89 1528.64 1690.13 1528.89 1689.62 C 1528.98 1689.6 1529.07 1689.58 1529.16 1689.56 C 1529.42 1689.95 1529.02 1731.97 1528.82 1735.63 C 1527.34 1730.88 1527.65 1730.17 1527.21 1724.99 z" fill="rgb(179,25,17)" transform="translate(0,0)"></path>
<path d="M 1596.18 1759.02 C 1596.63 1756.11 1601.38 1736.51 1602.54 1734.95 C 1602.6 1735.17 1602.66 1735.39 1602.73 1735.61 L 1602.22 1736.17 L 1602.75 1736.84 C 1602.65 1740.32 1598.5 1756.67 1597.21 1760.55 L 1596.18 1759.02 z" fill="rgb(179,25,17)" transform="translate(0,0)"></path>
<path d="M 1260.18 1365.14 C 1279.79 1359.2 1296.85 1358.82 1317.27 1361.14 L 1314.36 1364.15 C 1322.4 1365.49 1374.89 1377.45 1377.81 1380.9 L 1378.95 1383.96 C 1364.95 1392.12 1358.48 1399.23 1354.65 1415.29 C 1346.35 1450.05 1341.47 1487.71 1333.58 1522.26 L 1330.19 1519.14 L 1328.14 1528.18 C 1296.36 1558.01 1284 1536.31 1249.91 1553.79 C 1229.28 1564.38 1229.57 1575.59 1220.18 1592.6 C 1209.5 1611.95 1188.29 1622.63 1166.42 1621.6 C 1153.42 1620.99 1146.15 1617.32 1133.96 1614.21 C 1111.97 1608.59 1091.97 1615.68 1076.11 1631.55 C 1060.28 1647.39 1046.43 1652.45 1024.48 1652.38 C 977.041 1652.23 973.37 1608.89 926.108 1612.82 C 914.854 1613.76 909.201 1617.65 899.383 1620.27 C 893.892 1621.06 888.34 1621.35 882.796 1621.13 C 861.454 1620.11 847.34 1611.06 833.358 1595.88 C 825.338 1584.98 824.934 1573.58 815.594 1563.93 C 786.141 1533.5 750.503 1557.65 721.957 1525.59 C 706.67 1508.42 704.474 1488.65 705.141 1466.83 C 696.416 1455.86 683.858 1438.68 687.935 1423.2 C 688.697 1420.31 692.381 1419.54 694.963 1418.46 C 699.55 1417.38 705.483 1415.17 709.252 1412.29 C 714.971 1402.99 806.948 1377.03 823.505 1366.99 L 824.341 1368.54 C 825.508 1368.69 826.625 1368.76 827.709 1369.23 L 833.265 1376.45 L 836.449 1375.83 C 841.099 1382.25 846.465 1388.83 851.591 1394.91 C 890.637 1441.14 946.52 1469.87 1006.84 1474.72 C 1066.83 1479.74 1126.36 1460.7 1172.3 1421.8 C 1179.47 1415.71 1212.93 1383.88 1213.66 1375.23 C 1210.74 1372.79 1210.65 1373.48 1206.27 1372.71 L 1206.45 1371.8 L 1208.69 1370.31 C 1225.27 1374.88 1227.06 1350.73 1260.18 1365.14 z" fill="rgb(139,92,246)" transform="translate(0,0)"></path>
<path d="M 1339.93 1411.41 L 1350.67 1416.66 C 1343.47 1450.49 1337.83 1485.51 1330.19 1519.14 L 1328.14 1528.18 C 1296.36 1558.01 1284 1536.31 1249.91 1553.79 C 1229.28 1564.38 1229.57 1575.59 1220.18 1592.6 C 1209.5 1611.95 1188.29 1622.63 1166.42 1621.6 C 1153.42 1620.99 1146.15 1617.32 1133.96 1614.21 C 1111.97 1608.59 1091.97 1615.68 1076.11 1631.55 C 1060.28 1647.39 1046.43 1652.45 1024.48 1652.38 C 977.041 1652.23 973.37 1608.89 926.108 1612.82 C 914.854 1613.76 909.201 1617.65 899.383 1620.27 C 893.892 1621.06 888.34 1621.35 882.796 1621.13 C 861.454 1620.11 847.34 1611.06 833.358 1595.88 C 825.338 1584.98 824.934 1573.58 815.594 1563.93 C 786.141 1533.5 750.503 1557.65 721.957 1525.59 C 706.67 1508.42 704.474 1488.65 705.141 1466.83 C 696.416 1455.86 683.858 1438.68 687.935 1423.2 C 688.697 1420.31 692.381 1419.54 694.963 1418.46 C 699.55 1417.38 705.483 1415.17 709.252 1412.29 L 713.304 1412.52 C 721.952 1431.83 719.655 1436.37 741.541 1447.33 C 738.322 1465.11 738.739 1480.13 749.156 1495.92 C 755.281 1505.7 771.431 1515.11 783.128 1516.09 C 801.902 1517.66 810.84 1511.38 828.503 1523.95 C 843.265 1534.45 844.076 1540.05 850.328 1556.37 C 855.738 1570.5 872.804 1579.68 887.092 1582.4 C 908.821 1586.99 923.894 1569.26 946.027 1573.48 C 982.769 1580.5 986.241 1613.74 1030.24 1610.42 C 1041.34 1609.58 1054.2 1607.24 1063.02 1599.89 C 1079.61 1586.07 1094.85 1568 1120.33 1573.72 C 1147.58 1579.84 1157.32 1591.63 1186.9 1572.95 C 1208.54 1559.28 1202.1 1539.28 1222 1524.7 C 1240.2 1511.36 1248.45 1517.79 1266.41 1516.49 C 1288.35 1514.9 1308.89 1497.31 1312.33 1475.05 C 1313.95 1464.52 1313.59 1459.03 1312.42 1448.34 C 1325.39 1440.99 1333.9 1434.36 1338.13 1418.87 C 1338.79 1416.4 1339.39 1413.91 1339.93 1411.41 z" fill="rgb(255,209,102)" transform="translate(0,0)"></path>
<path d="M 1270.23 1371.21 C 1269 1370.51 1267.55 1369.5 1266.34 1368.71 L 1266.24 1367.32 C 1274 1362.17 1304.72 1363.28 1314.36 1364.15 C 1322.4 1365.49 1374.89 1377.45 1377.81 1380.9 L 1378.95 1383.96 C 1364.95 1392.12 1358.48 1399.23 1354.65 1415.29 C 1346.35 1450.05 1341.47 1487.71 1333.58 1522.26 L 1330.19 1519.14 C 1337.83 1485.51 1343.47 1450.49 1350.67 1416.66 L 1339.93 1411.41 C 1339.39 1413.91 1338.79 1416.4 1338.13 1418.87 C 1333.9 1434.36 1325.39 1440.99 1312.42 1448.34 C 1313.59 1459.03 1313.95 1464.52 1312.33 1475.05 C 1308.89 1497.31 1288.35 1514.9 1266.41 1516.49 C 1248.45 1517.79 1240.2 1511.36 1222 1524.7 C 1202.1 1539.28 1208.54 1559.28 1186.9 1572.95 C 1157.32 1591.63 1147.58 1579.84 1120.33 1573.72 C 1094.85 1568 1079.61 1586.07 1063.02 1599.89 C 1054.2 1607.24 1041.34 1609.58 1030.24 1610.42 C 986.241 1613.74 982.769 1580.5 946.027 1573.48 C 923.894 1569.26 908.821 1586.99 887.092 1582.4 C 872.804 1579.68 855.738 1570.5 850.328 1556.37 C 844.076 1540.05 843.265 1534.45 828.503 1523.95 C 810.84 1511.38 801.902 1517.66 783.128 1516.09 C 771.431 1515.11 755.281 1505.7 749.156 1495.92 C 738.739 1480.13 738.322 1465.11 741.541 1447.33 C 719.655 1436.37 721.952 1431.83 713.304 1412.52 L 709.252 1412.29 C 714.971 1402.99 806.948 1377.03 823.505 1366.99 L 824.341 1368.54 C 825.508 1368.69 826.625 1368.76 827.709 1369.23 C 797.114 1379.75 767.327 1392.32 736.765 1402.96 C 730.174 1405.26 723.622 1407.78 717.169 1410.43 C 721.923 1431.17 727.023 1436.17 745.876 1445.83 C 737.02 1469.69 747.67 1502.93 773.993 1509.71 C 799.426 1516.26 831.291 1506.72 846.478 1537.94 C 855.026 1555.52 858.25 1570.74 880.433 1577.24 C 906.239 1586.2 918.195 1566.36 945.411 1570.14 C 970.765 1573.66 975.921 1586.56 993.37 1597.69 C 1011.88 1609.43 1035.23 1610.49 1054.73 1600.47 C 1064.04 1595.59 1070.73 1588.23 1078.52 1581.62 C 1091.7 1570.42 1112 1566.93 1128.36 1572.29 C 1149.15 1579.1 1158.71 1584.56 1180.15 1573.52 C 1205.05 1560.7 1199.09 1538.63 1218.4 1522.79 C 1235.13 1509.08 1246.89 1513.77 1264.59 1513.1 C 1283.68 1512.38 1303.44 1497.72 1307.89 1478.49 C 1310.81 1465.88 1310.41 1458.61 1307.41 1446.13 C 1319.09 1440.61 1329.51 1433.08 1334.82 1420.75 C 1340.79 1406.87 1309.05 1397.29 1299.07 1391.87 C 1300.12 1389.55 1300.14 1389.79 1299.53 1387.38 C 1290.46 1382.86 1279.06 1375 1270.23 1371.21 z" fill="rgb(3,0,3)" transform="translate(0,0)"></path>
<path d="M 1270.23 1371.21 C 1269 1370.51 1267.55 1369.5 1266.34 1368.71 L 1266.24 1367.32 C 1274 1362.17 1304.72 1363.28 1314.36 1364.15 C 1322.4 1365.49 1374.89 1377.45 1377.81 1380.9 C 1362.4 1391.01 1356.98 1396.31 1350.05 1413.89 C 1334.66 1405.98 1313.98 1395.99 1299.53 1387.38 C 1290.46 1382.86 1279.06 1375 1270.23 1371.21 z" fill="rgb(12,124,118)" transform="translate(0,0)"></path>
<path d="M 1260.18 1365.14 C 1279.79 1359.2 1296.85 1358.82 1317.27 1361.14 L 1314.36 1364.15 C 1304.72 1363.28 1274 1362.17 1266.24 1367.32 L 1266.34 1368.71 C 1267.55 1369.5 1269 1370.51 1270.23 1371.21 C 1269.63 1373.03 1269.61 1373.06 1268.7 1374.77 C 1231.81 1353.56 1227.07 1365.9 1203.99 1394.66 C 1136.57 1478.68 1012.97 1503.31 918.121 1452.6 C 879.318 1431.86 859.226 1410.66 833.265 1376.45 L 836.449 1375.83 C 841.099 1382.25 846.465 1388.83 851.591 1394.91 C 890.637 1441.14 946.52 1469.87 1006.84 1474.72 C 1066.83 1479.74 1126.36 1460.7 1172.3 1421.8 C 1179.47 1415.71 1212.93 1383.88 1213.66 1375.23 C 1210.74 1372.79 1210.65 1373.48 1206.27 1372.71 L 1206.45 1371.8 L 1208.69 1370.31 C 1225.27 1374.88 1227.06 1350.73 1260.18 1365.14 z" fill="rgb(3,0,3)" transform="translate(0,0)"></path>
<path d="M 1270.23 1371.21 C 1279.06 1375 1290.46 1382.86 1299.53 1387.38 C 1300.14 1389.79 1300.12 1389.55 1299.07 1391.87 C 1295.33 1390.01 1271.2 1377.05 1268.7 1374.77 C 1269.61 1373.06 1269.63 1373.03 1270.23 1371.21 z" fill="rgb(43,30,46)" transform="translate(0,0)"></path>
<path d="M 1208.69 1370.31 L 1207.54 1369.49 C 1208.36 1367.7 1208.56 1367.65 1210.11 1366.23 C 1240.99 1337.88 1279.55 1331.47 1319.89 1332.61 C 1330.44 1333.3 1339.58 1334.75 1349.99 1336.33 C 1370.16 1341.99 1392.92 1346.13 1413.52 1351.14 L 1586.02 1392.27 C 1624.06 1401.24 1667.01 1409.73 1703.71 1422.01 C 1763.12 1441.87 1817.03 1490.94 1847.84 1545.91 C 1870.38 1586.52 1882.51 1632.08 1883.16 1678.53 C 1883.37 1705.27 1880 1738.3 1878.49 1765.48 C 1876.48 1808.75 1874.06 1852 1871.21 1895.23 L 1868.39 1941.33 C 1868.09 1946.37 1866.94 1961.19 1867.28 1965.44 C 1867.17 1968.39 1866.83 1970.78 1866.44 1973.67 C 1863.53 1970.41 1845.2 1939.05 1841.63 1933.15 C 1823.21 1902.74 1803.06 1872.24 1785.26 1841.59 L 1791.43 1750.88 C 1792.86 1730.42 1795.02 1706.29 1794.93 1686.08 C 1794.71 1640.13 1782.13 1589.61 1759.14 1549.64 C 1734.38 1506.58 1696.62 1470.93 1650.98 1450.76 C 1634.69 1443.56 1621.24 1439.88 1604.32 1435.22 C 1582.46 1430.97 1534.82 1417.41 1513.37 1411.2 C 1508.08 1410.36 1493.96 1406.22 1488.11 1404.69 C 1479.05 1402.09 1469.22 1399.79 1460.04 1397.47 C 1425.11 1388.36 1390.51 1378.45 1355.62 1369.59 C 1345.23 1366.96 1327.56 1362.51 1317.27 1361.14 C 1296.85 1358.82 1279.79 1359.2 1260.18 1365.14 C 1227.06 1350.73 1225.27 1374.88 1208.69 1370.31 z" fill="rgb(78,205,196)" transform="translate(0,0)"></path>
<path d="M 1167.67 1237.18 L 1169.07 1234.36 C 1170.93 1238.48 1170.1 1269.21 1169.85 1275.42 C 1170.05 1306.07 1170.06 1336.71 1169.88 1367.36 C 1178.96 1368.64 1198.21 1372.29 1206.27 1372.71 C 1210.65 1373.48 1210.74 1372.79 1213.66 1375.23 C 1212.93 1383.88 1179.47 1415.71 1172.3 1421.8 C 1126.36 1460.7 1066.83 1479.74 1006.84 1474.72 C 946.52 1469.87 890.637 1441.14 851.591 1394.91 C 846.465 1388.83 841.099 1382.25 836.449 1375.83 C 843.074 1373.41 873.365 1368.66 881.018 1367.56 C 879.229 1322.41 881.024 1278.58 879.958 1233.69 C 893.929 1266.12 919.104 1291.1 950.275 1307.2 C 988.434 1327.13 1033.04 1330.77 1073.92 1317.29 C 1117.77 1303.11 1146.87 1277.78 1167.67 1237.18 z" fill="rgb(255,90,31)" transform="translate(0,0)"></path>
<path d="M 1024.28 483.37 C 1048.16 510.998 1081.42 521.998 1117.37 518.892 C 1138.23 517.09 1152.28 510.539 1170.19 500.386 C 1173.17 513.727 1178.47 525.169 1185.1 537 C 1205.67 564.518 1229.15 581.999 1264.17 586.918 C 1267.41 587.37 1270.66 587.707 1273.93 587.928 C 1274.52 640.895 1294.08 674.071 1340.41 700.139 C 1324.48 746.192 1329.72 780.557 1365.4 814.727 C 1413.42 780.757 1473.58 792.11 1506.93 840.306 C 1523.41 864.156 1529.53 893.661 1523.9 922.096 C 1515.97 963.782 1481.62 998.359 1440.98 1009.32 C 1438.9 1008.54 1439.59 1009.21 1438.66 1007.63 C 1434.65 990.36 1426.03 978.997 1408.2 975.31 C 1406.47 976.829 1406.75 976.656 1404.57 977.145 C 1404.01 977.271 1403.56 977.687 1403.07 977.979 C 1400.02 977.66 1396.95 977.742 1393.92 978.223 C 1392.44 977.26 1391.12 976.085 1389.7 975.042 C 1365.83 983.912 1357.1 996.973 1361.48 1022.81 L 1361.43 1023.62 L 1359.92 1024.35 C 1349.43 1021.54 1340.58 1016.61 1331.04 1011.51 C 1327.45 1023.16 1323.22 1034.61 1318.35 1045.79 C 1282.96 1127.21 1221.25 1191.17 1137.96 1223.61 C 1061.2 1254.1 975.402 1252.44 899.876 1219.01 C 834.64 1190.53 780.613 1141.34 746.159 1079.05 C 734.115 1056.94 726.194 1036.01 717.102 1012.51 C 711.13 1015.51 693.758 1027.04 688.306 1022.53 L 688.064 1018.46 C 686.043 1015.61 685.763 1015.45 684.895 1012.14 C 685.128 1025.43 677.891 1037.73 666.159 1043.98 C 654.427 1050.23 640.181 1049.38 629.277 1041.78 C 618.373 1034.17 612.652 1021.1 614.466 1007.93 C 612.947 1009.15 611.748 1009.33 609.861 1009.12 C 598.603 1008.07 583.529 1000.53 574.195 994.308 C 548.53 977.209 531.974 954.839 525.674 924.523 C 519.454 894.595 524.378 866.545 541.355 841.103 C 556.109 818.993 580.663 801.392 606.982 796.656 C 635.137 791.589 659.777 799.011 683.035 814.643 C 719.041 780.238 724.278 744.958 706.832 698.983 C 739.648 687.238 763.697 654.684 771.293 621.417 C 773.948 609.789 774.091 599.307 774.026 587.449 C 778.236 587.26 782.431 586.812 786.586 586.109 C 820.782 580.579 842.839 564.408 862.565 537.204 C 870.915 524.374 874.173 514.804 878.641 500.287 C 928.298 530.867 983.373 525.582 1024.28 483.37 z" fill="rgb(255,90,31)" transform="translate(0,0)"></path>
<path d="M 614.466 1007.93 C 616.988 989.618 633.178 976.334 651.628 977.437 C 670.078 978.539 684.571 993.656 684.895 1012.14 C 685.128 1025.43 677.891 1037.73 666.159 1043.98 C 654.427 1050.23 640.181 1049.38 629.277 1041.78 C 618.373 1034.17 612.652 1021.1 614.466 1007.93 z" fill="rgb(139,92,246)" transform="translate(0,0)"></path>
<path d="M 609.861 1009.12 C 617.844 960.007 691.802 962.164 688.064 1018.46 C 686.043 1015.61 685.763 1015.45 684.895 1012.14 C 684.571 993.656 670.078 978.539 651.628 977.437 C 633.178 976.334 616.988 989.618 614.466 1007.93 C 612.947 1009.15 611.748 1009.33 609.861 1009.12 z" fill="rgb(3,0,3)" transform="translate(0,0)"></path>
<path d="M 1389.7 975.042 C 1396.6 974.88 1398.65 973.654 1406.18 974.993 L 1408.2 975.31 C 1406.47 976.829 1406.75 976.656 1404.57 977.145 C 1404.01 977.271 1403.56 977.687 1403.07 977.979 C 1400.02 977.66 1396.95 977.742 1393.92 978.223 C 1392.44 977.26 1391.12 976.085 1389.7 975.042 z" fill="rgb(3,0,3)" transform="translate(0,0)"></path>
<path d="M 937.612 627.581 C 970.337 647.647 973.165 684.305 946.688 711.858 C 941.247 717.519 932.823 717.558 925.841 720.511 L 924.261 721.198 C 938.952 735.091 949.139 747.602 956.873 766.549 C 973.404 807.048 963.209 856.365 932.799 887.79 C 928.628 892.128 924.143 896.154 919.382 899.836 C 900.862 912.86 892.798 916.198 870.778 921.987 C 867.585 922.337 864.387 922.633 861.184 922.875 C 827.791 925.284 800.828 916.024 775.756 894.303 C 755.45 873.127 741.699 850.52 739.94 820.324 C 738.771 814.983 738.385 810.028 739.754 804.669 C 741.139 790.573 743.734 781.371 749.373 768.457 C 751.818 762.867 755.408 756.154 758.202 750.596 C 743.886 733.345 742.998 705.963 766.988 698.543 C 818.837 682.508 871.336 667.663 923.703 653.38 C 933.031 650.836 945.323 658.513 952.773 663.521 C 949.738 647.448 947.055 640.856 937.612 627.581 z" fill="rgb(43,30,46)" transform="translate(0,0)"></path>
<path d="M 739.94 820.324 C 738.771 814.983 738.385 810.028 739.754 804.669 C 740.299 809.601 740.26 815.372 739.94 820.324 z" fill="rgb(153,78,31)" transform="translate(0,0)"></path>
<path d="M 759.667 752.909 C 779.044 766.627 807.854 753.719 828.922 747.563 L 897.294 727.61 C 902.756 726.046 917.261 721.352 922.071 722.419 C 947.142 746.045 961.626 770.202 962.725 805.582 C 963.414 835.512 952.226 864.497 931.605 886.201 C 927.765 890.226 922.207 895.358 917.797 898.692 C 909.913 904.403 903.378 908.671 894.31 912.484 C 866.476 923.981 835.194 923.837 807.467 912.085 C 763.819 893.924 735.819 845.404 742.39 798.55 C 743.871 787.991 747.275 779.096 751.303 769.311 L 759.667 752.909 z" fill="rgb(245,237,230)" transform="translate(0,0)"></path>
<path d="M 881.249 813.449 C 893.977 809.743 907.294 817.08 910.963 829.818 C 914.631 842.557 907.255 855.853 894.505 859.483 C 881.809 863.098 868.581 855.76 864.928 843.075 C 861.276 830.39 868.575 817.14 881.249 813.449 z" fill="rgb(43,30,46)" transform="translate(0,0)"></path>
<path d="M 1110.88 627.253 C 1102.43 642.136 1100.06 646.667 1096.27 663.348 C 1107.75 655.892 1114.53 651.248 1128.52 654.86 C 1154.33 661.521 1180.18 669.141 1205.88 676.204 L 1254.72 689.815 C 1269.57 694.03 1286.47 696.37 1294.81 710.555 C 1303.41 725.197 1298.93 738.308 1290.13 751.226 C 1306.02 770.848 1311.69 801.094 1308.94 825.716 C 1305.88 853.055 1292.07 874.852 1273.41 894.267 C 1243.44 918.132 1214.64 928.176 1175.93 921.406 C 1150.15 914.47 1129.16 903.161 1111.1 883.18 C 1110.46 882.528 1110.43 882.525 1109.94 881.755 C 1097.02 865.134 1087.36 846.809 1085.15 825.578 C 1082.04 802.352 1085.97 769.631 1100.51 750.306 C 1106.75 739.244 1115.9 730.232 1124.88 721.458 L 1123.22 720.612 C 1114.95 716.474 1106.4 715.908 1099.92 708.423 C 1076.15 680.932 1081.09 647.752 1110.88 627.253 z" fill="rgb(245,237,230)" transform="translate(0,0)"></path>
<path d="M 1110.88 627.253 C 1102.43 642.136 1100.06 646.667 1096.27 663.348 C 1107.75 655.892 1114.53 651.248 1128.52 654.86 C 1154.33 661.521 1180.18 669.141 1205.88 676.204 L 1254.72 689.815 C 1269.57 694.03 1286.47 696.37 1294.81 710.555 C 1303.41 725.197 1298.93 738.308 1290.13 751.226 C 1306.02 770.848 1311.69 801.094 1308.94 825.716 C 1305.88 853.055 1292.07 874.852 1273.41 894.267 C 1243.44 918.132 1214.64 928.176 1175.93 921.406 C 1150.15 914.47 1129.16 903.161 1111.1 883.18 C 1110.46 882.528 1110.43 882.525 1109.94 881.755 C 1097.02 865.134 1087.36 846.809 1085.15 825.578 L 1086.8 825.14 C 1087.99 837.634 1092.88 850.816 1098.97 861.716 C 1114.12 889.067 1139.65 909.158 1169.8 917.45 C 1197.82 924.912 1227.65 920.955 1252.75 906.446 C 1300.45 878.804 1321.03 821.02 1298.5 770.275 C 1295.79 764.157 1292.28 758.35 1288.89 752.583 C 1283.79 755.478 1274.4 760.619 1268.77 759.59 C 1223.01 751.232 1172.67 731.27 1127.53 722.213 C 1116.01 732.717 1110.57 738.058 1102 750.977 L 1100.51 750.306 C 1106.75 739.244 1115.9 730.232 1124.88 721.458 L 1123.22 720.612 C 1114.95 716.474 1106.4 715.908 1099.92 708.423 C 1076.15 680.932 1081.09 647.752 1110.88 627.253 z" fill="rgb(43,30,46)" transform="translate(0,0)"></path>
<path d="M 1085.15 825.578 C 1082.04 802.352 1085.97 769.631 1100.51 750.306 L 1102 750.977 C 1086.83 783.541 1085.3 788.855 1086.8 825.14 L 1085.15 825.578 z" fill="rgb(103,48,24)" transform="translate(0,0)"></path>
<path d="M 1160.41 812.539 C 1173.38 812.024 1184.4 821.945 1185.25 834.901 C 1186.09 847.857 1176.46 859.125 1163.52 860.3 C 1154.86 861.087 1146.45 857.113 1141.56 849.921 C 1136.67 842.729 1136.07 833.449 1139.98 825.682 C 1143.9 817.915 1151.72 812.883 1160.41 812.539 z" fill="rgb(43,30,46)" transform="translate(0,0)"></path>
<path d="M 775.756 894.303 C 800.828 916.024 827.791 925.284 861.184 922.875 C 864.387 922.633 867.585 922.337 870.778 921.987 C 879.404 926.773 896.498 929.629 905.209 937.482 C 910.381 941.805 915.537 946.518 916.098 953.686 C 917.682 977.816 882.228 987.608 862.138 990.302 C 821.628 995.733 740.259 973.28 731.429 926.215 C 726.916 902.159 755.716 895.65 775.756 894.303 z" fill="rgb(255,209,102)" transform="translate(0,0)"></path>
<path d="M 1273.41 894.267 C 1292.34 895.5 1316.43 899.363 1317.52 925.032 C 1318.01 936.766 1305.57 950.185 1297.44 957.34 C 1265.27 988.72 1170.8 1008.46 1137.86 969.483 C 1134.31 965.347 1132.56 959.967 1132.99 954.535 C 1134.72 934.217 1162.26 929.056 1175.93 921.406 C 1214.64 928.176 1243.44 918.132 1273.41 894.267 z" fill="rgb(255,209,102)" transform="translate(0,0)"></path>
<path d="M 1030.34 687.579 C 1035.01 687.929 1036.04 687.903 1038.85 690.906 C 1040.29 697.11 995.062 923.999 989.835 947.444 C 1000.51 953.262 1061.86 981.133 1064.93 986.391 C 1064.77 990.339 1064.44 989.537 1061.77 993.412 C 1054.55 992.191 987.068 958.855 978.177 953.457 C 980.033 938.166 984.719 917.419 987.734 902.029 L 1010.63 788.084 C 1015.88 760.93 1020.01 733.487 1025.52 706.367 C 1026.82 699.971 1027.77 693.619 1030.34 687.579 z" fill="rgb(43,30,46)" transform="translate(0,0)"></path>
<path d="M 1015.99 1076.42 C 1059.12 1072.8 1112.55 1093.96 1137.22 1132.09 C 1138.35 1133.83 1136.62 1136.41 1135.79 1137.86 C 1128.87 1140.43 1124.11 1131.21 1119.32 1126.11 C 1095.93 1101.28 1066.24 1089.48 1033.24 1086.38 C 996.936 1082.51 953.355 1100.59 929.732 1128.15 C 925.538 1133.05 922.888 1138.29 916.604 1139.43 C 912.932 1137.76 914.335 1139.03 912.342 1135.4 C 912.186 1131.12 914.206 1128.13 917.019 1124.94 C 943.514 1094.88 976.553 1079.7 1015.99 1076.42 z" fill="rgb(43,30,46)" transform="translate(0,0)"></path>
<path d="M 1461.71 837.627 C 1466.71 836.391 1479.24 835.984 1483.65 838.578 L 1481.57 838.638 C 1477.93 838.884 1476.77 839.127 1473.24 838.643 C 1469.37 839.025 1464.86 839.333 1461.1 840.133 C 1457.81 840.87 1451.65 842.058 1448.72 843.2 C 1416.68 853.611 1394.26 873.416 1378.26 903.025 C 1374.81 911.172 1373 916.193 1370.71 924.795 C 1370.01 928.653 1368.81 934.314 1368.62 938.074 C 1368.13 935.587 1367.71 933.085 1367.37 930.573 L 1368.85 924.044 C 1369.81 915.318 1373.09 907.294 1376.41 899.25 C 1386.08 872.38 1417.32 847.623 1444.93 841.211 C 1451.51 839.43 1454.98 838.584 1461.71 837.627 z" fill="rgb(43,30,46)" transform="translate(0,0)"></path>
<path d="M 1473.24 838.643 C 1475.62 837.092 1477.67 837.821 1480.48 838.409 L 1481.57 838.638 C 1477.93 838.884 1476.77 839.127 1473.24 838.643 z" fill="rgb(153,78,31)" transform="translate(0,0)"></path>
<path d="M 569.291 837.688 C 574.694 836.82 582.633 836.629 588.126 837.322 C 641.182 847.132 683.953 888.024 681.489 944.406 C 676.005 887.82 639.483 850.524 584.347 839.592 C 577.786 838.897 576.125 838.871 569.53 839.269 L 569.291 837.688 z" fill="rgb(43,30,46)" transform="translate(0,0)"></path>
<path d="M 965.452 636.62 C 973.468 642.011 979.186 655.299 980.816 664.512 C 983.213 678.053 978.076 689.606 970.358 700.485 C 969.587 701.362 966.571 705.438 965.216 704.79 C 964.802 703.396 968.205 694.305 968.759 692.01 C 973.748 671.334 973.173 656.752 965.452 636.62 z" fill="rgb(43,30,46)" transform="translate(0,0)"></path>
<path d="M 1079.74 640.257 C 1085.31 631.924 1081.81 641.807 1081.15 643.717 C 1074.63 662.755 1077.07 687.996 1085.29 706.158 L 1085.61 706.874 C 1080.13 701.748 1077.31 699.754 1073.74 693.027 C 1064.65 675.885 1067.54 654.978 1079.74 640.257 z" fill="rgb(43,30,46)" transform="translate(0,0)"></path>
<path d="M 1011.62 1131.28 C 1032.34 1129.64 1044.24 1131.12 1064.08 1138.12 C 1069.98 1140.2 1078.97 1143.38 1081.98 1149.42 C 1079.48 1149.55 1066.55 1142.73 1062.01 1141.16 C 1053.52 1138.23 1048.89 1136.97 1040.03 1135.25 C 1019.43 1132.56 998.28 1134.93 979.378 1144.3 C 975.401 1146.27 971.413 1149.68 966.783 1148.73 L 967.288 1147.2 C 978.041 1138.43 998.157 1133.5 1011.62 1131.28 z" fill="rgb(43,30,46)" transform="translate(0,0)"></path>
<path d="M 1368.62 938.074 C 1368.55 939.875 1368.58 940.482 1368.24 942.191 L 1368.2 942.004 C 1367.79 943.627 1368.26 943.247 1367.53 943.694 C 1366.36 942.429 1367.04 932.75 1367.37 930.573 C 1367.71 933.085 1368.13 935.587 1368.62 938.074 z" fill="rgb(153,78,31)" transform="translate(0,0)"></path>
<path d="M 663.515 584.854 C 672.782 528.169 688.061 484.081 721.769 436.425 C 777.261 358.209 861.367 305.043 955.825 288.47 C 1158.77 254.075 1349.66 375.64 1384.65 582.168 L 1386.64 596.476 C 1384.64 592.935 1382.84 590.101 1381.51 586.217 C 1336.86 493.195 1257.66 421.273 1160.78 385.759 C 1059.96 348.744 948.422 354.262 851.742 401.047 C 775.455 437.264 701.479 508.431 667.293 586.102 C 666.141 589.141 665.902 590.373 663.698 592.827 C 662.411 590.483 663.24 588.118 663.515 584.854 z" fill="rgb(255,209,102)" transform="translate(0,0)"></path>
<path d="M 1520.65 1417.18 C 1541.04 1423.94 1580.47 1433.67 1602.76 1438.96 C 1607.38 1440.15 1612.8 1441.4 1617.28 1442.86 C 1717.61 1472.39 1777.77 1555.88 1789.13 1658.2 C 1792.82 1691.47 1789.61 1726.37 1787.08 1759.8 C 1785.19 1784.84 1784.18 1810.59 1781.6 1835.48 C 1755.42 1790.36 1727.82 1747.12 1700.79 1702.68 C 1664.13 1642.41 1636.96 1590.3 1587.28 1538.79 C 1583.42 1536.27 1563.95 1517.21 1558.88 1512.52 C 1559.62 1471.25 1549.1 1447.69 1517.05 1421.13 L 1520.65 1417.18 z" fill="rgb(78,205,196)" transform="translate(0,0)"></path>
<path d="M 1520.65 1417.18 C 1541.04 1423.94 1580.47 1433.67 1602.76 1438.96 C 1607.38 1440.15 1612.8 1441.4 1617.28 1442.86 C 1590.24 1451.1 1585.84 1464.79 1586.47 1491.43 C 1586.84 1507.01 1586.99 1523.16 1587.28 1538.79 C 1583.42 1536.27 1563.95 1517.21 1558.88 1512.52 C 1559.62 1471.25 1549.1 1447.69 1517.05 1421.13 L 1520.65 1417.18 z" fill="rgb(12,124,118)" transform="translate(0,0)"></path>
<path d="M 1393.92 978.223 C 1396.95 977.742 1400.02 977.66 1403.07 977.979 C 1417.64 979.504 1429.73 989.935 1433.37 1004.13 C 1436.9 1017.87 1431.79 1032.38 1420.44 1040.88 C 1409.09 1049.39 1393.74 1050.22 1381.54 1042.98 C 1369.34 1035.74 1362.71 1021.87 1364.73 1007.83 C 1366.93 992.632 1378.76 980.633 1393.92 978.223 z" fill="rgb(139,92,246)" transform="translate(0,0)"></path>
<path d="M 1517.05 1421.13 C 1514.77 1419.52 1511.46 1418.07 1512.2 1415.29 C 1515.27 1416.04 1517.51 1416.79 1520.65 1417.18 L 1517.05 1421.13 z" fill="rgb(42,113,121)" transform="translate(0,0)"></path>
<metadata><recraft-signature>{"signed_by": "recraft", "signature_b64": "8IDnRYBecz7E5rAeEzIFAHBuH7IgzRhwLaX2mG+JgrYmXMeCuTewFtoQWKUg6PnFuNdx17gfgNzKFcfKsDquBA==", "signing_algo": "Ed25519", "generation_timestamp": 1783346015, "identifier": "e5feb35a-a522-48cc-8555-9c619477d17f"}</recraft-signature></metadata></svg>