<svg xmlns="http://www.w3.org/2000/svg" height="1024" preserveAspectRatio="none" style="display: block;" version="1.1" viewBox="0 0 2048 2048" width="1024">
<defs>
	<linearGradient gradientUnits="userSpaceOnUse" id="Gradient1" x1="737.544" x2="1042.74" y1="1666.22" y2="2118.68">
		<stop class="stop0" offset="0" stop-color="rgb(46,235,216)" stop-opacity="1"></stop>
		<stop class="stop1" offset="1" stop-color="rgb(186,28,234)" stop-opacity="1"></stop>
	</linearGradient>
</defs>
<path d="M 0 0 L 2048 0 L 2048 2048 L 1809.67 2048 L 1498.86 2048 L 1448.08 2048 L 1150.73 2048 L 854.058 2048 L 605.453 2048 L 551.079 2048 L 246.135 2048 L 0 2048 L 0 0 z" fill="rgb(43,30,46)" transform="translate(0,0)"></path>
<path d="M 0 0 L 2048 0 L 2048 2048 L 1809.67 2048 C 1798.49 2020.01 1787.47 1985.53 1777.02 1956.66 L 1703.29 1754.72 C 1678.59 1687.78 1666.49 1636.95 1617.97 1581.96 C 1562.95 1519.6 1498.59 1492.78 1422.4 1465.2 C 1388.15 1452.89 1353.78 1440.9 1319.3 1429.24 C 1316.54 1433.25 1313.77 1437.78 1311.12 1441.91 L 1310.23 1440.68 C 1312.61 1437.03 1317.26 1431.47 1316.02 1427.33 L 1316.16 1426.87 C 1313.94 1421.15 1264.75 1410.83 1262.55 1404.79 C 1265.86 1401.69 1271.75 1399.92 1276.11 1397.96 C 1291.33 1391.14 1297.59 1385.2 1308.26 1372.87 C 1337.84 1401.46 1382.5 1409.63 1419.6 1391.08 C 1451.13 1375.33 1465.44 1354.9 1476.71 1322.64 C 1522.53 1344.26 1571.57 1339.13 1610.26 1305.62 C 1637.12 1282.34 1653.67 1249.37 1656.32 1213.92 C 1670.26 1213.02 1681.18 1211.96 1694.69 1207.92 C 1726.05 1198.33 1752.28 1176.6 1767.54 1147.56 C 1784.51 1115.89 1785.72 1082.64 1775.46 1048.63 C 1795.03 1032.45 1808.06 1019.7 1819.75 996.361 C 1836.77 962.366 1839.48 922.975 1827.29 886.967 C 1813.93 848.112 1784.83 818.657 1748.26 800.833 C 1748.12 760.91 1742.9 732.015 1720.08 698.097 C 1691.55 655.686 1657.33 637.136 1608.01 629.753 C 1607.53 547.596 1555.59 487.415 1472.92 480.342 C 1465.77 394.514 1406.75 336.512 1319.77 337.088 C 1314.37 325.098 1309.51 314.721 1302.36 303.593 C 1272.51 257.297 1225.52 224.727 1171.7 213.026 C 1121.5 202.451 1068.42 214.535 1025.84 242.533 C 954.753 195.912 861.122 199.07 794.258 252.006 C 763.238 276.565 746.768 301.815 730.544 336.875 C 687 337.208 654.308 346.411 622.063 377.407 C 594.228 403.931 578.229 440.535 577.668 478.979 C 491.15 494.16 444.755 540.048 440.17 629.28 C 396.109 635.071 362.176 655.772 333.803 689.985 C 310.396 718.211 296.943 764.447 301.16 800.933 C 270.815 816.173 248.993 832.89 232.066 863.319 C 213.365 896.799 208.799 936.356 219.379 973.216 C 228.002 1003.08 246.477 1031.87 274.183 1047.17 C 271.111 1057.5 268.505 1068.02 267.475 1078.76 C 264.384 1111.32 274.361 1143.77 295.208 1168.97 C 322.671 1201.78 352.562 1210.33 392.834 1214.03 C 394.338 1230.12 397.188 1243.39 403.585 1258.37 C 417.2 1289.79 442.637 1314.58 474.393 1327.39 C 509.363 1341.28 540.404 1337.07 573.829 1322.55 C 579.676 1344 585.041 1349.86 601.321 1365.67 C 605.102 1369.34 609.295 1373.29 611.412 1378.12 C 584.475 1384.88 557.603 1391.89 530.8 1399.16 C 469.874 1415.1 421.199 1426.47 384.998 1486.35 C 374.608 1503.65 367.411 1522.69 363.751 1542.54 C 360.602 1560.2 361.129 1585.18 361.133 1603.54 C 361.245 1630.84 361.208 1658.14 361.021 1685.44 C 361.162 1686.53 361.385 1692.14 362.491 1692.34 C 363.609 1691.4 364.79 1688.27 365.48 1686.82 C 364.709 1693.09 360.864 1703.76 358.589 1709.77 C 354.869 1725.1 344.819 1752.58 339.475 1768.37 L 304.69 1872.07 L 263.903 1994.91 C 259.689 2007.48 250.911 2037 246.135 2048 L 0 2048 L 0 0 z" fill="rgb(103,16,79)" transform="translate(0,0)"></path>
<path d="M 354.326 1570.48 L 358.609 1568.68 C 361.229 1571.22 359.048 1671.32 360.039 1685.12 L 361.021 1685.44 C 361.162 1686.53 361.385 1692.14 362.491 1692.34 C 363.609 1691.4 364.79 1688.27 365.48 1686.82 C 364.709 1693.09 360.864 1703.76 358.589 1709.77 L 357.441 1708.83 C 338.088 1764.17 319.457 1821.97 301.092 1877.67 C 300.989 1857.71 301.036 1837.75 301.233 1817.79 C 301.289 1807.98 301.694 1792.61 300.961 1783.15 L 300.908 1708.8 C 300.884 1677.86 300.237 1662.33 309.28 1632.14 C 316.953 1614.77 320.273 1607.9 331.302 1592.05 C 339.618 1582.18 343.691 1577.98 354.326 1570.48 z" fill="rgb(139,92,246)" transform="translate(0,0)"></path>
<path d="M 360.039 1685.12 L 361.021 1685.44 C 361.162 1686.53 361.385 1692.14 362.491 1692.34 C 363.609 1691.4 364.79 1688.27 365.48 1686.82 C 364.709 1693.09 360.864 1703.76 358.589 1709.77 L 357.441 1708.83 C 360.486 1699.35 360.352 1695.3 360.039 1685.12 z" fill="rgb(1,4,4)" transform="translate(0,0)"></path>
<path d="M 300.961 1783.15 C 298.198 1772.85 298.347 1681.15 299.728 1668.39 C 300.953 1655.9 303.819 1643.62 308.251 1631.88 L 309.28 1632.14 C 300.237 1662.33 300.884 1677.86 300.908 1708.8 L 300.961 1783.15 z" fill="rgb(43,30,46)" transform="translate(0,0)"></path>
<path d="M 331.302 1592.05 C 331.419 1584.47 349.55 1568.65 353.912 1568.66 C 354.223 1569.13 354.253 1569.99 354.326 1570.48 C 343.691 1577.98 339.618 1582.18 331.302 1592.05 z" fill="rgb(43,30,46)" transform="translate(0,0)"></path>
<path d="M 1319.3 1429.24 C 1353.78 1440.9 1388.15 1452.89 1422.4 1465.2 C 1498.59 1492.78 1562.95 1519.6 1617.97 1581.96 C 1666.49 1636.95 1678.59 1687.78 1703.29 1754.72 L 1777.02 1956.66 C 1787.47 1985.53 1798.49 2020.01 1809.67 2048 L 1498.86 2048 L 1448.08 2048 L 1150.73 2048 L 854.058 2048 C 847.099 2039.62 839.581 2031.24 832.398 2023.02 C 769.829 1946.77 714.274 1865.02 666.408 1778.77 C 661.697 1770.16 646.896 1743.78 644.455 1736.09 L 645.961 1736.1 C 648.35 1738.35 650.515 1743.43 652.079 1746.54 C 655.329 1740.27 654.16 1733.93 658.295 1729.52 C 668.06 1719.1 679.558 1713.6 689.856 1703.25 L 691.715 1704.52 C 705.753 1688.02 713.249 1688 730.185 1676.65 C 739.214 1669.92 746.992 1662.65 756.417 1656.35 C 765.158 1651 772.319 1648.5 780.354 1641.84 C 786.585 1636.68 799.174 1627.8 807.007 1625.43 C 810.617 1624.34 812.611 1629.98 817.256 1630.15 C 814.522 1624.97 811.891 1620.9 811.507 1614.91 C 817.305 1624.41 835.042 1660.55 839.612 1665.23 C 834.166 1648.69 816.055 1622.65 808.482 1605.29 C 787.438 1557.06 762.255 1507.99 746.322 1457.82 C 749.29 1461.34 751.856 1464.51 754.636 1468.19 L 756.729 1467.34 C 758.424 1469.02 763.047 1474.37 764.531 1476.25 C 784.657 1499.98 811.844 1523.12 837.752 1540.21 C 912.727 1590.57 1004.8 1608.69 1093.27 1590.49 C 1182.63 1571.38 1260.69 1517.47 1310.23 1440.68 L 1311.12 1441.91 C 1313.77 1437.78 1316.54 1433.25 1319.3 1429.24 z" fill="rgb(255,90,31)" transform="translate(0,0)"></path>
<path d="M 811.507 1614.91 C 817.305 1624.41 835.042 1660.55 839.612 1665.23 C 850.75 1687.7 868.03 1715.4 881.556 1736.44 C 903.791 1771.43 927.534 1805.44 952.718 1838.37 C 970.497 1861.44 987.944 1881.89 1006.3 1904.14 C 1050.78 1955.63 1099.06 2003.72 1150.73 2048 L 854.058 2048 C 847.099 2039.62 839.581 2031.24 832.398 2023.02 C 769.829 1946.77 714.274 1865.02 666.408 1778.77 C 661.697 1770.16 646.896 1743.78 644.455 1736.09 L 645.961 1736.1 C 648.35 1738.35 650.515 1743.43 652.079 1746.54 C 655.329 1740.27 654.16 1733.93 658.295 1729.52 C 668.06 1719.1 679.558 1713.6 689.856 1703.25 L 691.715 1704.52 C 705.753 1688.02 713.249 1688 730.185 1676.65 C 739.214 1669.92 746.992 1662.65 756.417 1656.35 C 765.158 1651 772.319 1648.5 780.354 1641.84 C 786.585 1636.68 799.174 1627.8 807.007 1625.43 C 810.617 1624.34 812.611 1629.98 817.256 1630.15 C 814.522 1624.97 811.891 1620.9 811.507 1614.91 z" fill="url(#Gradient1)" transform="translate(0,0)"></path>
<path d="M 1510.48 1746 L 1513.09 1746 C 1511.17 1786.8 1509.58 1827.74 1507.41 1868.51 C 1504.23 1928.1 1499.89 1988.32 1498.86 2048 L 1448.08 2048 C 1456.64 2034.98 1472.19 2002.7 1475.07 1988.5 C 1491.12 1909.55 1499.94 1825.51 1510.48 1746 z" fill="rgb(156,35,30)" transform="translate(0,0)"></path>
<path d="M 1310.23 1440.68 L 1311.12 1441.91 C 1265.56 1515.24 1186.69 1570.6 1102.88 1590.49 C 1014.94 1611.41 922.268 1596.02 845.81 1547.78 C 818.996 1531.18 794.715 1511.48 773.135 1488.63 C 770.201 1485.52 766.539 1481.14 763.509 1478.35 L 764.531 1476.25 C 784.657 1499.98 811.844 1523.12 837.752 1540.21 C 912.727 1590.57 1004.8 1608.69 1093.27 1590.49 C 1182.63 1571.38 1260.69 1517.47 1310.23 1440.68 z" fill="rgb(43,30,46)" transform="translate(0,0)"></path>
<path d="M 1510.48 1746 C 1510.77 1743.34 1512.04 1726.38 1513.44 1725.72 C 1514.06 1726.4 1513.14 1743.69 1513.09 1746 L 1510.48 1746 z" fill="rgb(170,68,59)" transform="translate(0,0)"></path>
<path d="M 756.729 1467.34 C 758.424 1469.02 763.047 1474.37 764.531 1476.25 L 763.509 1478.35 C 761.779 1476.52 756.212 1470.16 754.636 1468.19 L 756.729 1467.34 z" fill="rgb(156,35,30)" transform="translate(0,0)"></path>
<path d="M 965.611 471.824 L 965.809 473.126 C 967.248 483.137 966.969 493.331 968.463 502.836 C 972.95 531.176 988.198 556.692 1011.03 574.071 C 1017.15 578.749 1025.32 583.795 1032.09 587.697 C 1072.38 607.443 1123.69 610.096 1165.58 595.248 C 1168.42 594.239 1168.45 594.43 1171.19 592.858 C 1170.24 591.973 1149.57 597.686 1146.35 598.348 C 1105.71 606.731 1070.03 602.659 1032.72 585.722 C 992.793 560.56 976.337 541.764 969.71 493.548 C 970.016 489.42 969.417 487.646 971.467 484.123 C 998.977 576.836 1086.1 598.409 1171.26 572.462 C 1188.69 567.152 1205.57 559.382 1221.91 551.393 L 1215.51 561.038 C 1193.51 600.529 1199.6 647.949 1233.53 678.573 L 1235.25 677.722 C 1204.03 646.354 1196.65 610.03 1213.46 568.853 C 1214.86 565.602 1215.94 564.441 1218.05 561.678 L 1215.19 576.111 C 1213.59 586.888 1212.89 595.216 1214.43 606 C 1220.61 649.095 1253.96 683.43 1297.1 690.033 C 1310.66 692.109 1322.98 689.789 1336.15 686.874 C 1296.62 739.156 1288.79 804.469 1343.75 848.95 C 1305.26 887.739 1307.74 937.084 1354.98 966.957 C 1331.1 985.541 1315.85 1015.2 1336.03 1043.15 C 1328.05 1048.85 1323.37 1052.8 1313.92 1055.65 C 1287.43 1132.38 1239.82 1180.97 1171.35 1222.29 C 1164.8 1225.26 1158.15 1229.13 1151.59 1232.27 C 1057.72 1277.15 967.829 1269.13 878.282 1221.16 C 807.634 1176.84 769.033 1136.28 738.512 1056.76 C 728.881 1053.77 723.573 1049.55 715.244 1043.91 C 738.809 1017.41 720.038 986.206 697.56 967.205 C 742.872 936.201 746.639 886.836 707.462 848.708 C 763.757 803.392 753.341 741.278 716.278 687.055 L 717.168 687.291 C 756.89 697.776 785.024 686.045 795.785 644.196 C 808.812 644.344 817.775 644.213 830.081 639.121 C 847.768 631.8 861.811 617.735 869.105 600.035 C 878.387 577.153 875.795 557.203 866.317 535.264 C 920.413 548.7 948.873 520.701 965.611 471.824 z" fill="rgb(245,237,230)" transform="translate(0,0)"></path>
<path d="M 1235.25 677.722 C 1237.89 679.287 1244.81 684.313 1247.62 686.301 C 1261.89 692.13 1270.03 697.959 1286.88 699.047 L 1288.86 699.063 L 1290.84 699.052 C 1292.42 699.049 1293.25 699.108 1294.63 699.87 C 1296.47 699.825 1308.78 698.274 1309.3 699.543 C 1308.37 704.335 1284.18 700.775 1279.99 700.183 C 1267.11 698.366 1257.38 693.246 1245.95 687.848 C 1242.98 685.762 1239.76 683.415 1236.71 681.482 L 1235.25 677.722 z" fill="rgb(43,30,46)" transform="translate(0,0)"></path>
<path d="M 1286.88 699.047 L 1288.86 699.063 L 1290.84 699.052 C 1292.42 699.049 1293.25 699.108 1294.63 699.87 C 1291.04 700.646 1290.49 700.183 1286.88 699.047 z" fill="rgb(98,81,78)" transform="translate(0,0)"></path>
<path d="M 1027.23 1031 C 1053.88 1006.55 1089.48 1017.01 1115.25 1036.25 C 1120.32 1040.04 1125.07 1044.32 1130.12 1048.22 C 1142.72 1045.71 1152.41 1041.87 1164.36 1037.4 C 1161.95 1034.12 1159.66 1030.76 1157.5 1027.32 C 1162.28 1029.05 1170.27 1040.16 1169.43 1045.9 L 1168 1046.86 C 1166.37 1044.08 1165.94 1042.78 1164.85 1039.82 C 1161.62 1039.36 1152.76 1043.64 1149.05 1045.18 C 1146.4 1052.44 1144.01 1059.74 1141.38 1066.98 C 1129.41 1099.89 1101.79 1130.48 1069.62 1144.72 C 1043.09 1156.48 1012.94 1157.07 985.975 1146.34 C 956.21 1134.5 927.337 1106.55 914.329 1077.33 C 909.593 1066.69 906.931 1055.74 902.374 1045.42 L 901.937 1044.45 L 898.82 1043.3 L 899.46 1041.47 L 922.72 1047.85 L 923.704 1047.92 C 954.255 1021.15 990.664 1003.24 1027.23 1031 z" fill="rgb(255,90,31)" transform="translate(0,0)"></path>
<path d="M 1027.23 1031 C 1053.88 1006.55 1089.48 1017.01 1115.25 1036.25 C 1120.32 1040.04 1125.07 1044.32 1130.12 1048.22 C 1142.72 1045.71 1152.41 1041.87 1164.36 1037.4 C 1161.95 1034.12 1159.66 1030.76 1157.5 1027.32 C 1162.28 1029.05 1170.27 1040.16 1169.43 1045.9 L 1168 1046.86 C 1166.37 1044.08 1165.94 1042.78 1164.85 1039.82 C 1161.62 1039.36 1152.76 1043.64 1149.05 1045.18 C 1134.05 1049.56 1121.2 1053.07 1105.69 1055.9 L 1088.92 1058.78 C 1047.47 1063.46 1005.62 1063.38 964.181 1058.56 C 962.112 1057.85 946.127 1055.42 942.983 1054.89 C 939.775 1053.64 924.832 1050.37 920.678 1049.37 C 915.505 1047.67 907.415 1045.85 901.937 1044.45 L 898.82 1043.3 L 899.46 1041.47 L 922.72 1047.85 L 923.704 1047.92 C 954.255 1021.15 990.664 1003.24 1027.23 1031 z" fill="rgb(255,90,31)" transform="translate(0,0)"></path>
<path d="M 1164.36 1037.4 C 1161.95 1034.12 1159.66 1030.76 1157.5 1027.32 C 1162.28 1029.05 1170.27 1040.16 1169.43 1045.9 L 1168 1046.86 C 1166.37 1044.08 1165.94 1042.78 1164.85 1039.82 C 1161.62 1039.36 1152.76 1043.64 1149.05 1045.18 C 1134.05 1049.56 1121.2 1053.07 1105.69 1055.9 L 1088.92 1058.78 C 1047.47 1063.46 1005.62 1063.38 964.181 1058.56 C 962.112 1057.85 946.127 1055.42 942.983 1054.89 C 939.775 1053.64 924.832 1050.37 920.678 1049.37 C 915.505 1047.67 907.415 1045.85 901.937 1044.45 L 898.82 1043.3 L 899.46 1041.47 L 922.72 1047.85 L 923.704 1047.92 C 936.672 1052.57 974.424 1059.03 988.385 1059.26 C 990.244 1059.08 990.21 1058.91 991.73 1059.79 L 1002.95 1060.11 C 1012.52 1059.67 1037.47 1059.62 1047.03 1060.09 L 1057.34 1059.86 C 1060.5 1060.34 1060.9 1059.96 1064.08 1059.02 C 1079.82 1059.26 1114.98 1052.38 1130.12 1048.22 C 1142.72 1045.71 1152.41 1041.87 1164.36 1037.4 z" fill="rgb(43,30,46)" transform="translate(0,0)"></path>
<path d="M 1002.95 1060.11 C 1012.52 1059.67 1037.47 1059.62 1047.03 1060.09 C 1038.34 1061.32 1011.66 1061.88 1002.95 1060.11 z" fill="rgb(170,68,59)" transform="translate(0,0)"></path>
<path d="M 988.385 1059.26 C 990.244 1059.08 990.21 1058.91 991.73 1059.79 C 990.089 1060.06 989.724 1060.33 988.385 1059.26 z" fill="rgb(156,35,30)" transform="translate(0,0)"></path>
<path d="M 1057.34 1059.86 C 1059.43 1058.5 1061.59 1058.98 1064.08 1059.02 C 1060.9 1059.96 1060.5 1060.34 1057.34 1059.86 z" fill="rgb(170,68,59)" transform="translate(0,0)"></path>
<path d="M 942.983 1054.89 C 946.127 1055.42 962.112 1057.85 964.181 1058.56 C 1005.62 1063.38 1047.47 1063.46 1088.92 1058.78 L 1105.69 1055.9 C 1102.62 1068.97 1074.94 1088.02 1063.65 1093.92 C 1044.17 1104.11 1021.4 1106.02 1000.49 1099.2 C 979.135 1092.26 953.479 1075.35 942.983 1054.89 z" fill="rgb(170,68,59)" transform="translate(0,0)"></path>
<path d="M 964.181 1058.56 C 1005.62 1063.38 1047.47 1063.46 1088.92 1058.78 C 1065.8 1081.96 1023.56 1091.92 993.801 1077.78 C 987.639 1074.85 966.555 1064.35 964.181 1058.56 z" fill="rgb(245,237,230)" transform="translate(0,0)"></path>
<path d="M 850.387 777.914 C 852.005 783.452 852.96 788.937 854.043 794.592 C 884.672 790.757 905.011 794.73 930.477 813.935 C 933.96 816.561 946.101 826.95 946.731 830.764 C 944.429 830.507 945.449 831.039 944.064 829.445 C 928.253 811.244 906.184 797.894 881.847 795.759 C 872.761 794.962 864.007 795.578 855.053 796.242 C 859.304 802.12 861.557 804.288 867.079 809.009 C 905.21 812.008 941.247 826.933 955.529 865.249 C 955.74 865.996 957.751 871.537 956.674 872.407 C 939.944 885.922 906.132 898.18 884.707 898.002 C 875.938 898.686 871.596 898.606 862.765 898.09 C 845.052 897.585 817.172 887.797 803.555 876.108 L 803.578 875.066 C 824.163 885.213 835.237 893.784 859.737 895.569 C 830.601 879.322 826.387 848.085 853.334 827.433 L 860.386 824.341 C 855.804 824.247 854.639 824.322 850.147 825.191 C 817.198 833.409 808.608 845.227 786.822 867.782 L 786.059 866.948 C 786.241 858.778 789.193 855.478 793.588 848.646 C 779.522 843.132 773.123 837.7 765.609 825.093 C 764.197 821.493 764.136 821.117 763.47 817.276 L 764.387 817.019 L 767.311 821.189 C 774.907 829.082 797.215 840.995 806.942 833.106 C 799.936 822.851 792.022 825.224 786.669 805.463 L 786.383 804.365 C 786.077 801.108 786.11 800.611 786.411 797.339 L 787.241 797.191 L 789.451 801.951 C 794.772 810.371 798.416 815.102 806.829 820.737 C 812.529 821.343 821.282 823.425 825.676 819.617 C 825.158 812.362 816.83 810.182 816.98 797.102 L 819.013 790.504 C 820.614 795.007 820.921 796.97 824.009 800.435 C 825.92 800.22 828.61 800.069 830.417 799.643 L 834.458 798.717 C 838.33 797.782 843.089 796.568 847.001 796.35 C 848.785 792.228 849.724 782.744 850.387 777.914 z" fill="rgb(43,30,46)" transform="translate(0,0)"></path>
<path d="M 885.981 823.7 C 888.16 823.833 889.955 823.989 892.137 824.256 C 894.311 824.894 896.292 825.507 898.49 826.1 L 902.986 827.336 C 928.499 834.519 938.358 846.614 954.109 866.056 L 955.529 865.249 C 955.74 865.996 957.751 871.537 956.674 872.407 C 939.944 885.922 906.132 898.18 884.707 898.002 C 886.298 895.984 886.039 895.475 888.588 895.488 C 897.223 890.144 903.603 886.11 907.993 876.5 C 917.078 856.609 911.275 835.426 890.711 826.458 C 888.868 825.468 887.748 824.829 885.981 823.7 z" fill="rgb(245,237,230)" transform="translate(0,0)"></path>
<path d="M 955.529 865.249 C 955.74 865.996 957.751 871.537 956.674 872.407 C 939.944 885.922 906.132 898.18 884.707 898.002 C 886.298 895.984 886.039 895.475 888.588 895.488 C 906.511 896.719 940.039 882.624 954.348 871.92 C 955.483 871.07 954.296 866.906 954.109 866.056 L 955.529 865.249 z" fill="rgb(98,81,78)" transform="translate(0,0)"></path>
<path d="M 824.009 800.435 C 825.92 800.22 828.61 800.069 830.417 799.643 L 834.458 798.717 C 838.33 797.782 843.089 796.568 847.001 796.35 L 847.194 797.791 C 849.781 803.788 850.42 806.162 853.634 812.414 C 839.365 812.016 836.591 812.444 825.157 803.074 C 824.553 801.929 824.472 801.691 824.009 800.435 z" fill="rgb(245,237,230)" transform="translate(0,0)"></path>
<path d="M 824.009 800.435 C 825.92 800.22 828.61 800.069 830.417 799.643 L 834.458 798.717 C 838.33 797.782 843.089 796.568 847.001 796.35 L 847.194 797.791 C 842.007 799.103 836.299 800.134 831.017 801.18 C 829 801.593 827.034 802.228 825.157 803.074 C 824.553 801.929 824.472 801.691 824.009 800.435 z" fill="rgb(133,113,106)" transform="translate(0,0)"></path>
<path d="M 1198.52 795.206 C 1203.28 793.6 1203.14 788.084 1204.04 783.306 L 1204.93 783.797 C 1206.72 790.066 1205.65 792.101 1206.46 796.926 L 1206.79 799.192 C 1204.94 803.264 1202.54 807.194 1202.79 811.462 C 1204.16 813.906 1203.22 812.962 1206.02 813.975 C 1215.32 812.786 1223.81 808.065 1229.73 800.79 C 1233.74 795.823 1234.61 788.153 1237.42 786.086 C 1241.49 797.847 1227.73 817.757 1229.76 820.798 C 1246.75 828.194 1261.15 808.975 1268.35 796.075 C 1265.49 816.363 1263.21 824.523 1244.08 834.573 C 1270.47 836.412 1275.25 833.361 1292.58 813.455 C 1286.52 829.974 1280.97 839.269 1263.95 847.108 C 1262.86 847.606 1261.77 848.092 1260.68 848.567 C 1264.2 853.41 1268.4 858.804 1268.95 864.935 L 1267.77 866.093 C 1264.77 864.997 1264.19 864.019 1262.03 861.712 C 1242.9 839.327 1229.08 832.743 1201.94 824.537 L 1193.21 822.696 L 1191.74 824.232 C 1196 825.508 1196.96 825.924 1200.94 827.957 C 1226.19 850.035 1222.82 879.722 1193.07 895.313 C 1191.15 895.86 1190.36 896.918 1188.57 898.018 C 1179.66 898.421 1173.71 898.351 1164.79 897.87 C 1143.15 895.353 1132.49 892.204 1112.77 883.159 C 1107.57 880.754 1100.6 876.634 1096.43 872.607 C 1098.31 845.934 1137.72 816.056 1162.57 811.591 C 1172.52 809.803 1196.65 811.294 1199.83 797.193 C 1173.32 792.967 1146.59 796.557 1125.69 814.321 C 1119.91 819.239 1114.76 825.19 1108.82 829.642 L 1107.47 829.182 C 1110.15 824.314 1125.66 811.644 1130.89 808.026 C 1151.28 793.932 1174.46 790.737 1198.52 795.206 z" fill="rgb(43,30,46)" transform="translate(0,0)"></path>
<path d="M 1097.77 869.773 C 1116.32 840.999 1134.16 830.181 1166.97 823.254 C 1158.93 827.647 1152.39 830.453 1147.48 838.898 C 1134.05 861.977 1140.92 882.047 1163.2 894.269 C 1160.79 894.359 1160.63 894.432 1158.21 894.976 C 1143.13 894.035 1127.07 887.395 1113.36 881.414 L 1112.77 883.159 C 1107.57 880.754 1100.6 876.634 1096.43 872.607 C 1096.87 871.657 1097.31 870.712 1097.77 869.773 z" fill="rgb(245,237,230)" transform="translate(0,0)"></path>
<path d="M 1096.43 872.607 C 1096.87 871.657 1097.31 870.712 1097.77 869.773 C 1103.92 877.901 1107.37 876.761 1113.36 881.414 L 1112.77 883.159 C 1107.57 880.754 1100.6 876.634 1096.43 872.607 z" fill="rgb(153,140,138)" transform="translate(0,0)"></path>
<path d="M 1163.2 894.269 C 1164.13 894.788 1164.21 895.094 1164.41 896.157 C 1161.46 895.875 1160.95 895.898 1158.21 894.976 C 1160.63 894.432 1160.79 894.359 1163.2 894.269 z" fill="rgb(193,164,158)" transform="translate(0,0)"></path>
<path d="M 1191.74 824.232 C 1190.79 823.925 1188.21 823.293 1187.75 822.443 L 1187.86 822.258 C 1189.38 821.511 1191.73 822.282 1193.21 822.696 L 1191.74 824.232 z" fill="rgb(140,108,129)" transform="translate(0,0)"></path>
<path d="M 862.424 720.408 C 882.625 718.991 924.217 721.916 944.6 731.466 C 946.534 732.372 948.24 736.643 948.149 738.98 C 947.793 748.124 943.431 753.838 937.885 760.093 C 910.434 749.797 889.194 743.937 859.892 740.148 C 820.817 737.172 806.848 743.247 771.868 760.28 C 797.492 735.511 827.267 723.47 862.424 720.408 z" fill="rgb(43,30,46)" transform="translate(0,0)"></path>
<path d="M 1162.87 720.413 C 1165.42 720.219 1167.98 720.07 1170.54 719.966 C 1216.16 718.203 1251.46 730.939 1284.56 761.625 C 1265.26 751.663 1249.63 743.972 1228.07 740.246 C 1201 735.995 1171.13 741.828 1145.14 749.493 C 1135.36 752.379 1126.77 756.016 1116.62 758.51 C 1106.16 756.312 1106.17 738.813 1107.02 730.688 C 1125.29 725.606 1143.98 722.168 1162.87 720.413 z" fill="rgb(43,30,46)" transform="translate(0,0)"></path>
<path d="M 886.397 550.708 C 890.38 553.688 890.917 558.897 891.662 563.885 C 895.211 586.252 889.684 609.109 876.31 627.384 C 861.9 646.794 842.123 657.45 818.556 660.983 L 818.403 660.011 C 820.979 658.137 821.286 658.564 824.65 657.914 C 846.029 653.65 864.834 641.058 876.92 622.914 C 893.456 598.286 891.599 577.43 886.397 550.708 z" fill="rgb(43,30,46)" transform="translate(0,0)"></path>
<path d="M 796.5 659.854 C 798.113 661.652 797.377 661.638 797.092 664.023 C 793.651 692.752 764.46 706.109 738.26 699.858 L 736.338 699.438 C 735.566 698.836 735.611 698.885 735.426 698.343 C 736.184 697.226 741.798 698.315 742.788 698.451 C 766.734 701.742 790.434 691.054 794.879 665.483 C 795.196 663.658 795.88 661.665 796.5 659.854 z" fill="rgb(43,30,46)" transform="translate(0,0)"></path>
<path d="M 1030.72 985.961 C 1052.37 981.434 1067.4 979.781 1080.96 959.02 C 1082.93 956.005 1087.21 943.991 1087.45 943.786 L 1087.82 943.926 C 1088.86 946.523 1086.91 952.041 1085.85 954.44 C 1075.22 978.431 1043.09 991.533 1017.96 986.979 C 1019.94 986.774 1030.34 986.826 1030.72 985.961 z" fill="rgb(98,81,78)" transform="translate(0,0)"></path>
<path d="M 976.642 967.193 C 975.44 965.739 964.994 951.355 967.425 947.475 C 967.508 947.342 968.364 947.234 968.411 947.384 C 977.526 976.888 1002.71 985.268 1030.72 985.961 C 1030.34 986.826 1019.94 986.774 1017.96 986.979 C 1005.08 987.253 992.662 980.087 982.483 973.043 C 979.652 970.862 978.831 969.929 976.642 967.193 z" fill="rgb(43,30,46)" transform="translate(0,0)"></path>
<path d="M 976.642 967.193 C 979.764 969.628 980.148 969.936 982.483 973.043 C 979.652 970.862 978.831 969.929 976.642 967.193 z" fill="rgb(153,140,138)" transform="translate(0,0)"></path>
<path d="M 1250.54 874.373 C 1248.74 886.163 1200.63 897.445 1188.57 898.018 C 1190.36 896.918 1191.15 895.86 1193.07 895.313 C 1210.68 896.067 1236.01 884 1250.54 874.373 z" fill="rgb(98,81,78)" transform="translate(0,0)"></path>
<path d="M 948.365 760.016 C 946.868 760.593 941.265 761.928 944.473 758.669 C 952.283 750.733 951.766 742.966 950.676 732.485 C 950.641 732.146 950.993 731.801 951.253 731.662 C 951.492 731.735 951.731 731.808 951.97 731.882 C 954.427 735.623 954.757 737.131 956.308 741.217 C 953.716 753.845 953.898 749.702 948.365 760.016 z" fill="rgb(43,30,46)" transform="translate(0,0)"></path>
<path d="M 1099.94 732.284 C 1106.02 736.106 1100.63 749.105 1106.87 755.572 C 1108.1 756.845 1108.72 758.22 1108.44 759.968 C 1097.02 753.071 1096.67 744.424 1099.94 732.284 z" fill="rgb(43,30,46)" transform="translate(0,0)"></path>
<path d="M 1071.93 887.289 C 1074.18 888.264 1073.47 888.847 1073.49 891.474 C 1073.56 903.189 1075.98 915.181 1084.62 923.734 C 1085.54 924.646 1088.31 926.617 1088.78 927.598 C 1088.68 928.159 1088.81 927.91 1088.4 928.337 C 1081.41 930.52 1072.42 905.739 1071.69 899.328 C 1070.79 894.096 1070.49 892.332 1071.93 887.289 z" fill="rgb(98,81,78)" transform="translate(0,0)"></path>
<path d="M 1071.93 887.289 C 1072.06 891.761 1071.99 894.855 1071.69 899.328 C 1070.79 894.096 1070.49 892.332 1071.93 887.289 z" fill="rgb(153,140,138)" transform="translate(0,0)"></path>
<path d="M 981.196 887.528 C 983.355 889.853 981.614 895.573 982.038 899.002 C 981.935 900.954 981.495 904.151 980.989 905.989 C 978.823 913.864 974.555 922.661 968.493 928.253 C 968.364 928.738 965.737 929.207 966.06 928.36 C 967.152 925.491 970.569 923.449 972.512 920.523 C 978.351 911.73 979.591 904.851 980.284 894.606 C 979.84 891.261 980.125 890.713 981.196 887.528 z" fill="rgb(43,30,46)" transform="translate(0,0)"></path>
<path d="M 981.196 887.528 C 981.272 890.204 981.697 892.35 980.284 894.606 C 979.84 891.261 980.125 890.713 981.196 887.528 z" fill="rgb(153,140,138)" transform="translate(0,0)"></path>
<path d="M 1093.46 733.745 C 1094.56 741.689 1090.91 748.808 1098.54 757.139 C 1100.24 759.002 1100.72 759.009 1100.27 761.3 C 1090.68 756.278 1086.55 744.736 1092.45 735.485 L 1093.46 733.745 z" fill="rgb(43,30,46)" transform="translate(0,0)"></path>
<path d="M 953.435 761.433 C 953.616 759.995 953.767 759.222 954.802 758.054 C 961.238 750.792 959.352 743.829 960.462 734.756 C 964.744 745.777 964.626 755.161 953.435 761.433 z" fill="rgb(43,30,46)" transform="translate(0,0)"></path>
<path d="M 888.442 1038.63 C 887.863 1040.23 886.493 1045.37 884.732 1045.69 C 882.196 1043.75 892.635 1026.46 895.243 1026.24 C 896.92 1027.06 890.418 1035.36 889.467 1036.83 C 892.469 1038.29 894.715 1039.43 897.784 1040.74 L 899.46 1041.47 L 898.82 1043.3 C 894.979 1041.36 892.307 1040.27 888.442 1038.63 z" fill="rgb(98,81,78)" transform="translate(0,0)"></path>
<path d="M 1206.46 796.926 C 1206.6 796.967 1228.03 802.264 1216.84 801.383 C 1215.68 801.292 1208.26 799.597 1206.79 799.192 L 1206.46 796.926 z" fill="rgb(98,81,78)" transform="translate(0,0)"></path>
<path d="M 816.98 797.102 C 816.967 795.46 816.555 787.586 817.696 786.68 C 817.757 786.705 817.818 786.729 817.88 786.754 L 818.227 786.881 C 818.766 788.309 818.906 788.921 819.013 790.504 L 816.98 797.102 z" fill="rgb(98,81,78)" transform="translate(0,0)"></path>
<path d="M 521.929 1503.46 C 528.593 1501.05 541.126 1494.72 547.598 1491.19 C 550.502 1500.86 565.763 1553.56 569.715 1557.95 C 586.561 1604.92 603.533 1651.44 624.906 1696.58 C 629.611 1706.52 638.64 1727.12 644.455 1736.09 C 646.896 1743.78 661.697 1770.16 666.408 1778.77 C 714.274 1865.02 769.829 1946.77 832.398 2023.02 C 839.581 2031.24 847.099 2039.62 854.058 2048 L 605.453 2048 L 551.079 2048 L 246.135 2048 C 250.911 2037 259.689 2007.48 263.903 1994.91 L 304.69 1872.07 L 339.475 1768.37 C 344.819 1752.58 354.869 1725.1 358.589 1709.77 C 360.864 1703.76 364.709 1693.09 365.48 1686.82 C 365.598 1686.36 365.716 1685.9 365.834 1685.43 C 389.453 1610.77 453.36 1539.36 521.929 1503.46 z" fill="rgb(255,90,31)" transform="translate(0,0)"></path>
<path d="M 537.499 1747.27 L 539.207 1745.22 C 544.294 1772.49 548.304 1804.6 552.154 1832.24 C 556.356 1861.89 560.785 1891.52 565.439 1921.11 C 573.507 1973.83 573.915 2001.5 605.453 2048 L 551.079 2048 C 548.072 1947.69 543.545 1847.44 537.499 1747.27 z" fill="rgb(156,35,30)" transform="translate(0,0)"></path>
<path d="M 537.499 1747.27 C 537.2 1745.26 535.735 1728.6 536.521 1727.71 L 536.648 1727.74 C 537.804 1729.41 539.141 1742.73 539.207 1745.22 L 537.499 1747.27 z" fill="rgb(170,68,59)" transform="translate(0,0)"></path>
<path d="M 878.282 1221.16 C 967.829 1269.13 1057.72 1277.15 1151.59 1232.27 C 1158.15 1229.13 1164.8 1225.26 1171.35 1222.29 L 1173.66 1223.05 L 1175.43 1222.61 C 1176.66 1226.12 1175.88 1238.36 1175.8 1242.84 C 1176.93 1295.26 1186.72 1359.14 1224.93 1398.46 C 1233.6 1408.04 1240.22 1415.39 1250.32 1423.65 C 1214.82 1481.77 1155.4 1522.36 1089.54 1538.2 C 1019.39 1555.06 945.43 1543.49 883.791 1506.01 C 854.747 1488.05 835.115 1470.85 813.309 1444.37 C 812.213 1442.58 811.189 1441.32 809.72 1439.78 L 798.687 1424.35 C 821.481 1408.55 837.082 1389.36 850.071 1364.99 C 867.468 1330.16 871.784 1299.28 874.869 1261.52 C 874.928 1254.51 873.388 1226.34 876.6 1222.06 L 878.282 1221.16 z" fill="rgb(245,237,230)" transform="translate(0,0)"></path>
<path d="M 878.282 1221.16 C 967.829 1269.13 1057.72 1277.15 1151.59 1232.27 C 1158.15 1229.13 1164.8 1225.26 1171.35 1222.29 L 1173.66 1223.05 L 1175.43 1222.61 C 1176.66 1226.12 1175.88 1238.36 1175.8 1242.84 C 1082.32 1344.31 986.552 1364.09 880.336 1266.78 C 878.472 1265.07 876.649 1263.32 874.869 1261.52 C 874.928 1254.51 873.388 1226.34 876.6 1222.06 L 878.282 1221.16 z" fill="rgb(170,68,59)" transform="translate(0,0)"></path>
<path d="M 878.282 1221.16 C 967.829 1269.13 1057.72 1277.15 1151.59 1232.27 C 1158.15 1229.13 1164.8 1225.26 1171.35 1222.29 L 1173.66 1223.05 C 1160.09 1234.48 1105.59 1252.61 1086.28 1257.06 C 1015.04 1273.49 938.74 1259.88 876.6 1222.06 L 878.282 1221.16 z" fill="rgb(156,35,30)" transform="translate(0,0)"></path>
<path d="M 544.011 1474.03 C 574.819 1437.93 633.604 1404.01 681.303 1400.19 C 693.589 1399.2 713.412 1399 725.198 1402.81 C 740.38 1449.74 757.967 1495.86 777.887 1540.99 C 784.898 1557.05 792.078 1573.04 799.427 1588.95 C 802.134 1594.75 809.958 1610.27 811.507 1614.91 C 811.891 1620.9 814.522 1624.97 817.256 1630.15 C 812.611 1629.98 810.617 1624.34 807.007 1625.43 C 799.174 1627.8 786.585 1636.68 780.354 1641.84 C 772.319 1648.5 765.158 1651 756.417 1656.35 C 746.992 1662.65 739.214 1669.92 730.185 1676.65 C 713.249 1688 705.753 1688.02 691.715 1704.52 L 689.856 1703.25 C 679.558 1713.6 668.06 1719.1 658.295 1729.52 C 654.16 1733.93 655.329 1740.27 652.079 1746.54 C 650.515 1743.43 648.35 1738.35 645.961 1736.1 L 644.455 1736.09 C 638.64 1727.12 629.611 1706.52 624.906 1696.58 C 603.533 1651.44 586.561 1604.92 569.715 1557.95 C 567.763 1548.62 560.728 1529.36 557.562 1519.19 C 553.647 1506.6 548.728 1485.47 544.011 1474.03 z" fill="rgb(78,205,196)" transform="translate(0,0)"></path>
<path d="M 611.412 1378.12 C 624.178 1374.36 637.897 1370.91 650.847 1367.83 C 722.662 1350.73 794.518 1327.5 866.417 1311.52 C 861.82 1332.08 857.266 1345.13 848.854 1363.98 C 842.678 1374.7 837.725 1383.16 829.284 1392.23 C 797.14 1400.02 765.018 1410.11 732.722 1418.1 C 727.579 1404.79 723.672 1385.51 709.26 1380.27 C 681.016 1370.02 638.546 1379.26 611.991 1390.34 C 593.42 1398.08 552.444 1421.31 544.089 1439.01 L 543.309 1440.15 C 533.807 1454.45 542.828 1475.04 547.019 1490.2 C 540.664 1493.24 526.888 1499.44 521.929 1503.46 C 453.36 1539.36 389.453 1610.77 365.834 1685.43 C 365.716 1685.9 365.598 1686.36 365.48 1686.82 C 364.79 1688.27 363.609 1691.4 362.491 1692.34 C 361.385 1692.14 361.162 1686.53 361.021 1685.44 C 361.208 1658.14 361.245 1630.84 361.133 1603.54 C 361.129 1585.18 360.602 1560.2 363.751 1542.54 C 367.411 1522.69 374.608 1503.65 384.998 1486.35 C 421.199 1426.47 469.874 1415.1 530.8 1399.16 C 557.603 1391.89 584.475 1384.88 611.412 1378.12 z" fill="rgb(78,205,196)" transform="translate(0,0)"></path>
<path d="M 733.208 1419.99 C 760.149 1414.2 800.187 1401.88 827.593 1394.29 C 818.656 1407.31 809.05 1414.76 796.171 1423.69 C 799.579 1428.87 803.332 1434.18 806.847 1439.33 L 809.72 1439.78 C 811.189 1441.32 812.213 1442.58 813.309 1444.37 L 813.007 1447.17 C 876.345 1520.28 952.508 1552.47 1049.35 1546.73 C 1051.16 1546.87 1051.17 1547.07 1052.68 1546.28 C 1060.42 1546.02 1074.85 1543.75 1082.36 1541.93 C 1158.07 1523.61 1211.47 1487.89 1252.87 1423.01 C 1243.51 1415.43 1236.34 1407.75 1228.09 1399.09 C 1233.48 1399.32 1242.91 1402.8 1248.36 1404.57 C 1261.94 1409.01 1275.47 1413.61 1288.95 1418.36 C 1296.28 1420.95 1308.67 1425.73 1316.02 1427.33 C 1317.26 1431.47 1312.61 1437.03 1310.23 1440.68 C 1260.69 1517.47 1182.63 1571.38 1093.27 1590.49 C 1004.8 1608.69 912.727 1590.57 837.752 1540.21 C 811.844 1523.12 784.657 1499.98 764.531 1476.25 C 763.047 1474.37 758.424 1469.02 756.729 1467.34 C 741.404 1450.02 740.205 1441.59 733.208 1419.99 z" fill="rgb(255,209,102)" transform="translate(0,0)"></path>
<path d="M 809.72 1439.78 C 811.189 1441.32 812.213 1442.58 813.309 1444.37 L 813.007 1447.17 C 810.445 1444.38 809.121 1442.36 806.847 1439.33 L 809.72 1439.78 z" fill="rgb(127,94,34)" transform="translate(0,0)"></path>
<path d="M 544.089 1439.01 C 584.729 1397.98 641.134 1370.83 700.164 1379.23 C 713.308 1381.1 719.47 1389.13 724.689 1400.25 C 664.395 1391.43 621.003 1409.95 572.246 1445.06 C 561.528 1452.78 552.464 1461.07 543.692 1470.94 C 540.167 1458.58 539.708 1452.62 543.309 1440.15 L 544.089 1439.01 z" fill="rgb(255,209,102)" transform="translate(0,0)"></path>
<path d="M 969.71 493.548 C 968.822 488.319 967.741 481.505 970.535 476.922 C 970.811 479.391 971.087 481.668 971.467 484.123 C 969.417 487.646 970.016 489.42 969.71 493.548 z" fill="rgb(193,164,158)" transform="translate(0,0)"></path>
<path d="M 1049.35 1546.73 C 1050.8 1545.55 1050.93 1545.83 1052.68 1546.28 C 1051.17 1547.07 1051.16 1546.87 1049.35 1546.73 z" fill="rgb(127,94,34)" transform="translate(0,0)"></path>
<path d="M 679.498 597.217 C 681.131 581.248 685.32 562.871 689.779 547.366 C 728.325 413.319 850.22 317.979 986.569 302.993 C 1080.61 292.859 1174.84 320.237 1248.81 379.18 C 1313.43 431.248 1361.24 511.35 1370.43 594.311 C 1369.81 595.506 1369.25 595.957 1368.32 596.963 C 1286.31 297.623 861.961 258.576 713.344 521.067 C 699.309 545.929 688.657 572.555 681.673 600.238 C 680.47 598.834 680.148 598.678 679.498 597.217 z" fill="rgb(255,209,102)" transform="translate(0,0)"></path>
<path d="M 675.404 1016.39 C 602.416 997.907 572.061 900.429 600.432 836.268 C 614.374 804.738 639.249 785.73 673.904 802 C 672.043 804.22 670.269 806.513 668.587 808.872 C 642.875 844.341 648.875 884.302 684.514 909.991 C 679.944 914.553 673.126 920.271 668.166 924.676 C 667.704 906.095 660.093 878.296 643.382 867.996 C 643.865 869.167 644.215 870.177 644.63 871.367 C 660.585 882.972 664.762 908.331 666.516 926.647 C 657.111 941.292 652.449 946.903 649.958 964.639 C 649.632 989.548 655.99 1000.99 675.404 1016.39 z" fill="rgb(245,237,230)" transform="translate(0,0)"></path>
<path d="M 616.32 856.258 C 625.428 856.513 637.109 861.303 643.382 867.996 L 640.847 868.009 C 631.798 860.579 622.207 860.802 616.32 856.258 z" fill="rgb(43,30,46)" transform="translate(0,0)"></path>
<path d="M 1376.7 802.153 C 1464.54 757.315 1506.66 959.939 1386.67 1013.44 C 1382.53 1015.25 1378.36 1017 1374.17 1018.69 C 1392.56 1003.99 1402.4 991.867 1402.6 966.902 C 1399.88 943.751 1393.15 942.716 1385.46 924.048 C 1388.01 899.311 1393.79 874.332 1418.85 862.552 C 1422.78 860.705 1431.48 859.199 1434.05 857.005 C 1428.02 855.609 1418.85 859.485 1413.87 862.758 C 1394.21 875.693 1383.94 900.496 1383.72 923.428 C 1380.28 922.573 1371.22 913.365 1368.12 910.399 C 1406.66 876.723 1408.56 841.354 1376.7 802.153 z" fill="rgb(245,237,230)" transform="translate(0,0)"></path>
<path d="M 335.367 1037.66 C 335.912 1038.16 336.385 1038.8 336.578 1039.52 C 337.065 1041.31 335.131 1048.35 334.749 1050.77 C 333.35 1059.61 332.745 1067.37 334.077 1076.24 C 339.907 1112.76 368.516 1141.41 405.023 1147.28 C 412.618 1148.44 428.31 1147.25 431.392 1149.52 C 369.954 1160.67 312.742 1096.15 335.367 1037.66 z" fill="rgb(103,16,79)" transform="translate(0,0)"></path>
<path d="M 1713.94 1038.44 L 1716.32 1040.44 C 1720.4 1051.7 1720.49 1061.46 1719.12 1073.24 C 1716.13 1096.84 1704.08 1118.35 1685.52 1133.21 C 1667.07 1147.78 1644.86 1152.64 1621.83 1149.83 C 1621.33 1149.79 1619.85 1149.24 1619.3 1149.06 C 1620.27 1148.02 1644.91 1148.15 1650.68 1146.76 C 1702.2 1134.37 1725.04 1087.16 1713.94 1038.44 z" fill="rgb(103,16,79)" transform="translate(0,0)"></path>
<path d="M 301.365 854.033 C 301.821 856.412 296.833 859.812 295.029 861.323 C 258.867 891.62 253.851 945.32 289.69 978.157 C 292.728 980.94 302.102 987.615 302.978 990.991 C 293.236 988.649 278.778 971.235 273.713 962.531 C 263.161 944.448 260.205 922.919 265.493 902.661 C 270.64 883.247 283.774 864.107 301.365 854.033 z" fill="rgb(103,16,79)" transform="translate(0,0)"></path>
<path d="M 1747.11 854.881 C 1752.37 855.923 1757.42 860.042 1761.53 863.447 C 1784.14 882.201 1792.15 914.978 1784.87 942.661 C 1779.66 962.818 1766.67 980.085 1748.74 990.668 L 1748.25 990.378 L 1748.15 989.364 C 1754.21 984.419 1759.99 979.135 1765.45 973.539 C 1791.88 946.49 1791.57 896.578 1764.8 870.259 C 1759.51 865.055 1753.5 861.05 1748.34 856.085 L 1747.11 854.881 z" fill="rgb(103,16,79)" transform="translate(0,0)"></path>
<path d="M 1596.95 676.388 C 1637.03 675.555 1671.32 698.164 1683.93 737.381 C 1686.81 746.349 1688.15 771.026 1682.96 779.38 L 1681.24 779.464 C 1691.47 729.864 1664.62 689.816 1613.78 679.428 C 1606.93 678.027 1600.24 679.689 1593.67 678.586 L 1593.91 677.368 L 1596.95 676.388 z" fill="rgb(103,16,79)" transform="translate(0,0)"></path>
<path d="M 443.66 676.448 C 448.881 676.169 451.723 676.605 456.859 677.177 C 454.427 678.133 447.588 678.772 444.868 678.905 C 398.878 681.145 361.983 721.359 366.897 767.674 C 367.892 771.703 368.879 774.082 368.275 778.07 L 367.1 777.645 C 357.218 754.73 368.274 724.784 383.68 706.897 C 398.737 689.059 420.373 678.075 443.66 676.448 z" fill="rgb(103,16,79)" transform="translate(0,0)"></path>
<path d="M 557.575 526.245 C 558.434 526.185 559.518 525.857 560.112 526.679 C 559.862 528.344 556.809 528.643 555.479 528.868 C 509.175 536.721 478.196 581.542 491.162 627.238 C 484.277 627.933 485.704 597.82 486.53 593.4 C 493.431 556.451 521.193 532.294 557.575 526.245 z" fill="rgb(103,16,79)" transform="translate(0,0)"></path>
<path d="M 1488.46 526.174 C 1520.59 526.021 1557.34 556.2 1562.91 587.522 C 1565.34 601.224 1566.69 613.356 1561.34 626.657 C 1559.51 625.663 1560.14 624.389 1560.62 622.48 C 1571.18 580.213 1541.79 539.483 1500.42 530.358 C 1494.98 529.157 1493.24 528.982 1488.46 526.174 z" fill="rgb(103,16,79)" transform="translate(0,0)"></path>
<path d="M 681.673 600.238 C 681.379 602.27 679.846 611.836 678.558 613.073 C 677.376 611.605 678.767 599.174 679.498 597.217 C 680.148 598.678 680.47 598.834 681.673 600.238 z" fill="rgb(209,148,67)" transform="translate(0,0)"></path>
<path d="M 1370.43 594.311 C 1371.35 596.748 1371.1 599.551 1371.13 602.217 L 1369.33 603.844 C 1369.04 601.327 1368.81 599.442 1368.32 596.963 C 1369.25 595.957 1369.81 595.506 1370.43 594.311 z" fill="rgb(209,148,67)" transform="translate(0,0)"></path>
<path d="M 1371.13 602.217 C 1371.52 604.029 1372.78 609.65 1371.33 611.107 C 1369.81 610.696 1369.56 605.148 1369.33 603.844 L 1371.13 602.217 z" fill="rgb(131,84,58)" transform="translate(0,0)"></path>
<metadata><recraft-signature>{"signed_by": "recraft", "signature_b64": "xpE0/Y9wkRBn3mPTfhYVSkHt7e8ukME0ybA8IR/SNoGfdJuV7yoEmGVLP4ig8yPnhUPDYWYrIg+fefMOoJhFDQ==", "signing_algo": "Ed25519", "generation_timestamp": 1783344374, "identifier": "56560e12-778c-4ccc-be05-9e009cc41d1e"}</recraft-signature></metadata></svg>