<svg xmlns="http://www.w3.org/2000/svg" height="1024" preserveAspectRatio="none" style="display: block;" version="1.1" viewBox="0 0 2048 2048" width="1024">
<defs>
	<linearGradient gradientUnits="userSpaceOnUse" id="Gradient1" x1="506.365" x2="611.85" y1="2093.38" y2="1276.57">
		<stop class="stop0" offset="0" stop-color="rgb(252,37,36)" stop-opacity="1"></stop>
		<stop class="stop1" offset="1" stop-color="rgb(254,105,72)" stop-opacity="1"></stop>
	</linearGradient>
	<linearGradient gradientUnits="userSpaceOnUse" id="Gradient2" x1="1225.2" x2="1243.59" y1="812.947" y2="1013.47">
		<stop class="stop0" offset="0" stop-color="rgb(49,9,0)" stop-opacity="1"></stop>
		<stop class="stop1" offset="1" stop-color="rgb(255,255,253)" stop-opacity="1"></stop>
	</linearGradient>
	<linearGradient gradientUnits="userSpaceOnUse" id="Gradient3" x1="843.82" x2="827.5" y1="821.851" y2="1029.82">
		<stop class="stop0" offset="0" stop-color="rgb(72,29,15)" stop-opacity="1"></stop>
		<stop class="stop1" offset="1" stop-color="rgb(255,255,255)" stop-opacity="1"></stop>
	</linearGradient>
	<linearGradient gradientUnits="userSpaceOnUse" id="Gradient4" x1="1073.08" x2="977.109" y1="1496.84" y2="433.51">
		<stop class="stop0" offset="0" stop-color="rgb(252,62,57)" stop-opacity="1"></stop>
		<stop class="stop1" offset="1" stop-color="rgb(252,142,66)" stop-opacity="1"></stop>
	</linearGradient>
	<linearGradient gradientUnits="userSpaceOnUse" id="Gradient5" x1="1638.66" x2="1466.57" y1="2101.23" y2="1297.38">
		<stop class="stop0" offset="0" stop-color="rgb(252,41,38)" stop-opacity="1"></stop>
		<stop class="stop1" offset="1" stop-color="rgb(253,104,72)" stop-opacity="1"></stop>
	</linearGradient>
</defs>
<path d="M 0 0 L 2048 0 L 2048 2048 L 1927.74 2048 L 1909.71 2048 L 1432.63 2048 L 1337.58 2048 L 1134.72 2048 L 904.136 2048 L 435.915 2048 L 352.943 2048 L 121.175 2048 L 0 2048 L 0 0 z" fill="rgb(58,36,32)" transform="translate(0,0)"></path>
<path d="M 558.33 859.878 C 565.896 855.066 579.822 825.928 585.323 816.335 C 600.567 789.667 616.751 763.546 633.844 738.023 C 669.159 685.975 708.061 636.454 750.267 589.821 C 860.864 467.91 1003.23 372.234 1165.56 466.62 C 1173.55 471.265 1186.52 477.565 1193.14 483.615 C 1197.42 485.979 1227.09 507.078 1229.36 510.343 L 1229.64 513.495 C 1250.99 530.617 1272.87 553.427 1291.77 573.36 C 1370.33 656.228 1439.7 749.932 1494.09 850.41 C 1498.51 858.575 1507.47 880.261 1512.42 885.953 C 1516.66 895.384 1519.59 906.538 1523.64 915.657 C 1549.5 973.929 1563.69 1026.37 1539.14 1088.26 C 1527.48 1117.67 1513.43 1140.5 1494.02 1165.82 C 1491.55 1169.03 1474.14 1189.73 1473.4 1191.11 L 1473.37 1194.75 C 1472.24 1211.29 1473.03 1233.1 1472.94 1250.01 C 1472.88 1260.93 1472.43 1283.13 1473.49 1293.16 C 1480.97 1295 1494.72 1304.95 1501.05 1309.66 C 1560.42 1353.76 1607.81 1418.31 1645.7 1480.99 C 1675.73 1531.68 1703.87 1583.45 1730.08 1636.21 C 1760.19 1694.88 1788.67 1754.37 1815.5 1814.61 C 1847.13 1885.28 1885.58 1974.57 1909.71 2048 L 1432.63 2048 L 1337.58 2048 L 1134.72 2048 L 904.136 2048 L 904.035 1695.03 L 903.898 1605.17 C 903.841 1578.19 905.391 1550.4 899.462 1524.26 C 896.153 1522.62 893.642 1518.02 892.715 1514.55 C 890.253 1510.37 887.571 1506.32 884.679 1502.42 C 882.502 1499.59 880.255 1496.87 878.09 1494.07 L 879.682 1492.63 C 862.545 1470.59 844.639 1453.47 824.769 1433.92 L 761.682 1371.99 C 700.02 1311.74 640.548 1249.3 583.381 1184.77 C 560.39 1158.85 543.418 1135.86 528.739 1104.16 C 485.028 1009.77 525.901 947.91 558.33 859.878 z" fill="rgb(43,16,22)" transform="translate(0,0)"></path>
<path d="M 1473.49 1293.16 C 1480.97 1295 1494.72 1304.95 1501.05 1309.66 C 1560.42 1353.76 1607.81 1418.31 1645.7 1480.99 C 1675.73 1531.68 1703.87 1583.45 1730.08 1636.21 C 1760.19 1694.88 1788.67 1754.37 1815.5 1814.61 C 1847.13 1885.28 1885.58 1974.57 1909.71 2048 L 1432.63 2048 L 1337.58 2048 L 1134.72 2048 C 1134.01 2016.51 1134.83 1982.24 1134.81 1950.49 L 1134.92 1738.72 L 1134.99 1612.37 C 1134.95 1592.3 1134.71 1571.02 1135.15 1550.95 C 1135.23 1547.6 1138.49 1535.8 1139.1 1531.21 L 1139.31 1529.58 C 1141.59 1526.78 1147.5 1516.18 1150.1 1512.2 C 1157.47 1500.91 1164.05 1494.27 1173.34 1484.83 C 1173.59 1488.25 1173.57 1493.45 1175.13 1496.27 C 1201.79 1501.52 1217.79 1487.94 1225.1 1489.24 C 1227.61 1486.47 1249.93 1475.75 1255.28 1472.92 C 1290.73 1454.15 1320.9 1430.34 1349.22 1402.08 C 1364.42 1387.08 1375.45 1369.72 1389.05 1355.05 C 1404.09 1379.37 1419.52 1403.45 1435.33 1427.28 C 1447.41 1445.54 1461.2 1465.4 1471.74 1484.46 C 1462.06 1496.83 1453.95 1505.02 1442.6 1515.76 C 1470.63 1517.84 1497.73 1532.69 1516.29 1553.6 C 1522.23 1560.29 1530.61 1573.28 1535.8 1580.92 L 1565.77 1625.03 L 1657.09 1758.42 L 1734.14 1870.38 C 1744.56 1885.33 1754.8 1900.4 1764.87 1915.59 C 1768.1 1920.42 1776.57 1932.51 1778.9 1937.15 L 1780.49 1935.72 C 1762.16 1896.6 1744.63 1854.02 1726.99 1814.27 C 1692.73 1736.76 1657.67 1659.61 1621.83 1582.82 C 1610.54 1558.06 1599.12 1533.35 1587.58 1508.7 C 1581.9 1496.67 1574.1 1478.9 1566.75 1468.44 C 1548.93 1443.1 1517.45 1429.38 1487.85 1423.97 C 1465.57 1390.93 1443.05 1358.06 1420.29 1325.36 C 1427.84 1321.88 1469.25 1298.18 1473.49 1293.16 z" fill="url(#Gradient5)" transform="translate(0,0)"></path>
<path d="M 1173.34 1484.83 C 1173.59 1488.25 1173.57 1493.45 1175.13 1496.27 C 1182.12 1507.88 1192.1 1521.01 1200.11 1532.18 C 1213.78 1550.98 1226.97 1570.12 1239.66 1589.59 C 1182.21 1658.52 1220.02 1707.07 1244.15 1780.1 C 1251.07 1801.03 1258.51 1822.05 1265.86 1842.82 L 1310.34 1968.97 C 1315.46 1984.11 1320.74 1999.2 1326.18 2014.23 C 1329.65 2023.84 1335.23 2038.27 1337.58 2048 L 1134.72 2048 C 1134.01 2016.51 1134.83 1982.24 1134.81 1950.49 L 1134.92 1738.72 L 1134.99 1612.37 C 1134.95 1592.3 1134.71 1571.02 1135.15 1550.95 C 1135.23 1547.6 1138.49 1535.8 1139.1 1531.21 L 1139.31 1529.58 C 1141.59 1526.78 1147.5 1516.18 1150.1 1512.2 C 1157.47 1500.91 1164.05 1494.27 1173.34 1484.83 z" fill="rgb(255,90,31)" transform="translate(0,0)"></path>
<path d="M 1175.13 1496.27 C 1201.79 1501.52 1217.79 1487.94 1225.1 1489.24 C 1254.82 1521.73 1302.6 1548.49 1347.31 1550.13 C 1373.65 1551.1 1399.58 1542.89 1422.19 1529.73 L 1423.37 1531.45 C 1400.14 1548.16 1328.88 1598.04 1313.4 1617.21 C 1302.01 1631.39 1294.49 1648.28 1291.59 1666.23 C 1289.08 1681.92 1290.03 1697.96 1294.36 1713.24 C 1298.49 1727.57 1306.36 1744.9 1312.35 1758.88 C 1322.7 1782.68 1332.88 1806.54 1342.89 1830.48 L 1398.22 1964.9 C 1408.36 1989.75 1421.52 2024.1 1432.63 2048 L 1337.58 2048 C 1335.23 2038.27 1329.65 2023.84 1326.18 2014.23 C 1320.74 1999.2 1315.46 1984.11 1310.34 1968.97 L 1265.86 1842.82 C 1258.51 1822.05 1251.07 1801.03 1244.15 1780.1 C 1220.02 1707.07 1182.21 1658.52 1239.66 1589.59 C 1226.97 1570.12 1213.78 1550.98 1200.11 1532.18 C 1192.1 1521.01 1182.12 1507.88 1175.13 1496.27 z" fill="rgb(43,16,22)" transform="translate(0,0)"></path>
<path d="M 1429.49 1524.76 L 1430.07 1527.04 C 1427.62 1528.53 1425.72 1529.87 1423.37 1531.45 L 1422.19 1529.73 C 1424.84 1527.94 1426.89 1526.74 1429.49 1524.76 z" fill="rgb(58,36,32)" transform="translate(0,0)"></path>
<path d="M 1780.49 1935.72 C 1781.19 1936.84 1783.16 1939.46 1782.91 1941.11 C 1782.77 1942.01 1781.69 1941.11 1781.41 1940.76 C 1780.52 1939.65 1779.74 1938.36 1778.9 1937.15 L 1780.49 1935.72 z" fill="rgb(255,140,66)" transform="translate(0,0)"></path>
<path d="M 1429.49 1524.76 C 1436.87 1519.89 1435.57 1522.7 1430.07 1527.04 L 1429.49 1524.76 z" fill="rgb(180,54,45)" transform="translate(0,0)"></path>
<path d="M 890.828 753.255 C 897.539 734.701 908.077 725.326 928.22 725.257 C 998.948 725.014 1069.71 725.098 1140.45 725.178 C 1161.8 725.202 1173.57 734.926 1179.86 755.493 C 1179.75 781.837 1178.82 813.555 1179.93 839.47 C 1179.07 857.568 1179.61 878.67 1179.73 896.942 L 1179.69 910.906 C 1179.64 924.798 1179.27 940.639 1179.95 954.346 C 1179.75 963.188 1179.89 971.628 1180.06 980.453 C 1194.14 994.267 1203.14 1001.22 1216.67 1016.69 C 1241.78 1038.33 1240.88 1037.41 1254.92 1067.26 L 1275.79 1111.66 L 1347.69 1263 C 1351.77 1273.56 1360.64 1292.87 1366.35 1303.07 C 1367.03 1302.47 1367.11 1302.34 1367.91 1301.89 L 1369.01 1302.5 C 1371.46 1303.94 1375.24 1302.02 1377.99 1301.31 C 1385.92 1299.27 1393.58 1299.33 1401.7 1299.52 C 1404.14 1301.77 1405.09 1302.65 1407.14 1305.25 C 1411.3 1312 1416.51 1319.03 1420.29 1325.36 C 1443.05 1358.06 1465.57 1390.93 1487.85 1423.97 C 1517.45 1429.38 1548.93 1443.1 1566.75 1468.44 C 1574.1 1478.9 1581.9 1496.67 1587.58 1508.7 C 1599.12 1533.35 1610.54 1558.06 1621.83 1582.82 C 1657.67 1659.61 1692.73 1736.76 1726.99 1814.27 C 1744.63 1854.02 1762.16 1896.6 1780.49 1935.72 L 1778.9 1937.15 C 1776.57 1932.51 1768.1 1920.42 1764.87 1915.59 C 1754.8 1900.4 1744.56 1885.33 1734.14 1870.38 L 1657.09 1758.42 L 1565.77 1625.03 L 1535.8 1580.92 C 1530.61 1573.28 1522.23 1560.29 1516.29 1553.6 C 1497.73 1532.69 1470.63 1517.84 1442.6 1515.76 C 1453.95 1505.02 1462.06 1496.83 1471.74 1484.46 C 1461.2 1465.4 1447.41 1445.54 1435.33 1427.28 C 1419.52 1403.45 1404.09 1379.37 1389.05 1355.05 C 1375.45 1369.72 1364.42 1387.08 1349.22 1402.08 L 1343.38 1386.31 C 1323.47 1402.41 1303.44 1417.12 1283.84 1433.69 C 1278 1423.47 1269.56 1392.77 1264.35 1379.44 C 1223.54 1394.93 1222.75 1388.7 1184.98 1388.17 C 1153 1368.76 1151.06 1346.92 1135.48 1317.97 C 1124.67 1301.11 1113.99 1282.7 1104.34 1265.19 C 1090.34 1265.31 1068.59 1267.35 1055.91 1265.7 L 1005.61 1289.04 C 991.008 1295.78 961.199 1314.07 949.227 1297.08 C 945.635 1285.01 944.21 1286.89 955.41 1279.87 C 960.833 1276.46 966.193 1272.44 971.895 1269.24 C 973.626 1268.34 975.31 1267.33 977.018 1266.37 C 963.732 1264.7 946.864 1266.7 933.038 1265.7 C 904.719 1263.66 888.058 1247.43 891.14 1218.69 L 891.195 1184.2 C 885.186 1174.96 876.682 1174.36 875.7 1157.41 C 874.616 1145.28 880.036 1146.05 889.963 1144.68 L 890.152 1128.61 C 872.379 1130.58 863.256 1124.68 859.077 1106.86 C 858.365 1099.39 858.007 1095.42 858.344 1087.97 C 869.008 1084.93 878.569 1082.59 889.569 1080.88 L 890.571 1073.82 C 889.428 1072.17 889.978 1072.62 888.445 1071.62 C 877.272 1064.32 876.104 1063.06 871.198 1051.96 C 868.953 1045.84 868.069 1041.59 868.053 1035.14 L 868.284 1034.07 C 877.352 1030.73 881.076 1028.11 891.238 1026.45 L 890.841 952.22 C 891.42 930.724 891.023 907.215 890.91 885.641 C 891.095 876.229 891.055 866.814 890.788 857.404 C 891.276 824.068 891.568 786.512 890.828 753.255 z" fill="rgb(245,237,230)" transform="translate(0,0)"></path>
<path d="M 966.661 884.967 C 971.813 891.779 973.382 894.33 980.529 899.209 C 989.969 904.372 1019.73 917.451 1016.08 895.171 L 1061.08 915.118 C 1065.39 917.04 1080.24 923.033 1082.87 925.399 C 1114.99 954.199 1143.73 987.382 1173.39 1018.71 C 1183.67 1029.56 1194.74 1039.31 1203.64 1051.11 C 1206.77 1055.69 1215.62 1078.18 1218.21 1084.5 L 1245.73 1151.56 C 1277.27 1227.63 1311.23 1305.99 1341.77 1382.09 C 1342.32 1383.49 1342.86 1384.9 1343.38 1386.31 C 1323.47 1402.41 1303.44 1417.12 1283.84 1433.69 C 1278 1423.47 1269.56 1392.77 1264.35 1379.44 C 1223.54 1394.93 1222.75 1388.7 1184.98 1388.17 C 1153 1368.76 1151.06 1346.92 1135.48 1317.97 C 1124.67 1301.11 1113.99 1282.7 1104.34 1265.19 C 1090.34 1265.31 1068.59 1267.35 1055.91 1265.7 L 1005.61 1289.04 C 991.008 1295.78 961.199 1314.07 949.227 1297.08 C 945.635 1285.01 944.21 1286.89 955.41 1279.87 C 960.833 1276.46 966.193 1272.44 971.895 1269.24 C 973.626 1268.34 975.31 1267.33 977.018 1266.37 C 963.732 1264.7 946.864 1266.7 933.038 1265.7 C 904.719 1263.66 888.058 1247.43 891.14 1218.69 L 891.195 1184.2 C 885.186 1174.96 876.682 1174.36 875.7 1157.41 C 874.616 1145.28 880.036 1146.05 889.963 1144.68 L 890.152 1128.61 C 872.379 1130.58 863.256 1124.68 859.077 1106.86 C 858.365 1099.39 858.007 1095.42 858.344 1087.97 C 869.008 1084.93 878.569 1082.59 889.569 1080.88 L 890.571 1073.82 C 889.428 1072.17 889.978 1072.62 888.445 1071.62 C 877.272 1064.32 876.104 1063.06 871.198 1051.96 C 868.953 1045.84 868.069 1041.59 868.053 1035.14 L 868.284 1034.07 C 877.352 1030.73 881.076 1028.11 891.238 1026.45 C 900.451 1025.1 909.649 1023.66 918.832 1022.12 C 944.147 1018.6 986.991 1011.89 1011.89 1006.61 C 1020.28 1009.7 1133.66 1044.76 1137.97 1044.44 C 1123.09 1029.63 1107.12 1014.69 1092.35 999.653 C 1085.22 992.397 1059.29 964.361 1053.33 960.597 C 1030.76 946.348 992.733 935.536 971.116 918.4 C 964.603 913.238 963.048 901.439 963.375 893.22 L 966.661 884.967 z" fill="rgb(255,140,66)" transform="translate(0,0)"></path>
<path d="M 891.195 1184.2 C 917.939 1195.17 973.915 1172.29 1004.59 1172.69 C 1015.76 1172.84 1027.8 1175.96 1038.86 1177.77 L 1100.21 1187.6 C 1091.62 1194.2 1010.31 1246.7 1003.77 1248.77 C 996.807 1250.96 932.14 1250.23 922.869 1249.05 C 913.393 1247.84 904.749 1244.15 898.693 1236.53 C 894.363 1231.08 892.646 1225.35 891.14 1218.69 L 891.195 1184.2 z" fill="rgb(245,237,230)" transform="translate(0,0)"></path>
<path d="M 896.726 1170.82 C 909.143 1172.86 969.335 1156.46 984.609 1151.79 C 1019.26 1141.17 1019.95 1145.97 1055.92 1153.96 C 1079.38 1159.17 1107.35 1162.56 1131.4 1168.55 C 1123.65 1173.89 1108.57 1183.18 1100.21 1187.6 L 1038.86 1177.77 C 1027.8 1175.96 1015.76 1172.84 1004.59 1172.69 C 973.915 1172.29 917.939 1195.17 891.195 1184.2 C 885.186 1174.96 876.682 1174.36 875.7 1157.41 C 882.454 1168.42 883.093 1171.48 896.726 1170.82 z" fill="rgb(255,90,31)" transform="translate(0,0)"></path>
<path d="M 963.375 893.22 C 967.686 895.934 970.43 897.876 975.213 899.763 C 997.125 911.478 1019.71 921.608 1042.24 932.053 C 1052.02 936.589 1063.03 940.733 1072.22 946.317 C 1080.34 951.249 1172.89 1050.1 1178.7 1058.75 C 1169.93 1056.24 1145.45 1048.72 1137.97 1044.44 C 1123.09 1029.63 1107.12 1014.69 1092.35 999.653 C 1085.22 992.397 1059.29 964.361 1053.33 960.597 C 1030.76 946.348 992.733 935.536 971.116 918.4 C 964.603 913.238 963.048 901.439 963.375 893.22 z" fill="rgb(255,90,31)" transform="translate(0,0)"></path>
<path d="M 916.307 1103.94 C 926.398 1102.3 999.59 1085.47 1002.17 1085.92 C 1055.27 1095.3 1109.13 1108.59 1162.48 1118.36 C 1141.07 1120.38 1110.8 1118.41 1088.73 1118.24 C 1086.66 1118.23 1088.53 1118.01 1086.39 1118.37 C 1078.82 1118.11 1071.05 1116.44 1062.9 1116.26 C 1026.11 1112.57 1000.43 1107.08 963.904 1116.31 C 941.56 1121.96 912.411 1123.03 890.152 1128.61 C 872.379 1130.58 863.256 1124.68 859.077 1106.86 C 862.418 1106.61 870.405 1108.41 874.484 1108.81 C 889.847 1110.34 901.606 1107.77 916.307 1103.94 z" fill="rgb(255,90,31)" transform="translate(0,0)"></path>
<path d="M 895.429 1051.14 C 933.417 1048.33 970.029 1036.23 1007.73 1032.49 C 1015.81 1031.68 1147.98 1073.13 1162.79 1078.67 L 1167.15 1080.28 L 1167.04 1081.12 C 1163.63 1081.13 1162.35 1081.06 1158.97 1080.65 C 1149.14 1078.74 1139.28 1076.98 1129.39 1075.37 C 1124.27 1074.19 1119.5 1073.06 1114.31 1072.19 C 1108.71 1070.82 1102.44 1069.63 1096.74 1068.44 L 1046.11 1057.74 C 1041.27 1056.74 1016.66 1051.78 1013.88 1052.12 C 1001.84 1053.57 892.638 1072.22 890.571 1073.82 C 889.428 1072.17 889.978 1072.62 888.445 1071.62 C 877.272 1064.32 876.104 1063.06 871.198 1051.96 C 878.563 1052.03 888.441 1052.47 895.429 1051.14 z" fill="rgb(255,90,31)" transform="translate(0,0)"></path>
<path d="M 890.152 1128.61 C 912.411 1123.03 941.56 1121.96 963.904 1116.31 C 1000.43 1107.08 1026.11 1112.57 1062.9 1116.26 C 1071.05 1116.44 1078.82 1118.11 1086.39 1118.37 C 1077.01 1119.18 1039.24 1119.55 1029.24 1118.73 C 1005.13 1119.65 957.041 1131.8 930.788 1136.43 L 930.241 1137.96 L 930.936 1139.09 C 943.752 1160.28 911.766 1168.29 896.726 1170.82 C 883.093 1171.48 882.454 1168.42 875.7 1157.41 C 874.616 1145.28 880.036 1146.05 889.963 1144.68 L 890.152 1128.61 z" fill="rgb(245,237,230)" transform="translate(0,0)"></path>
<path d="M 890.571 1073.82 C 892.638 1072.22 1001.84 1053.57 1013.88 1052.12 C 1016.66 1051.78 1041.27 1056.74 1046.11 1057.74 L 1096.74 1068.44 C 1102.44 1069.63 1108.71 1070.82 1114.31 1072.19 C 1112.4 1072.48 1110.5 1072.8 1108.6 1073.15 L 1092.64 1070.39 C 1076.78 1067.88 1023.81 1057.47 1011.09 1058.93 C 981.709 1062.29 946.066 1072.37 915.826 1077.5 C 919.038 1092.3 914.424 1097.76 900.667 1103.45 C 895.31 1104.57 889.924 1105.54 884.513 1106.36 C 867.99 1108.83 860.296 1104.97 858.344 1087.97 C 869.008 1084.93 878.569 1082.59 889.569 1080.88 L 890.571 1073.82 z" fill="rgb(245,237,230)" transform="translate(0,0)"></path>
<path d="M 1055.91 1265.7 L 1057.3 1264.84 C 1067.37 1258.27 1094.32 1246.72 1106.07 1241.48 L 1106.79 1243.2 C 1115.95 1264.75 1124.06 1286.65 1133.75 1307.99 C 1135.62 1312.09 1135.7 1312.37 1135.53 1316.48 L 1135.48 1317.97 C 1124.67 1301.11 1113.99 1282.7 1104.34 1265.19 C 1090.34 1265.31 1068.59 1267.35 1055.91 1265.7 z" fill="rgb(255,90,31)" transform="translate(0,0)"></path>
<path d="M 891.238 1026.45 C 900.451 1025.1 909.649 1023.66 918.832 1022.12 C 924.955 1029.37 925.416 1032.83 917.369 1039.71 C 908.329 1047.45 898.454 1047.34 887.535 1048.79 C 874.764 1048.62 874.197 1043.8 868.053 1035.14 L 868.284 1034.07 C 877.352 1030.73 881.076 1028.11 891.238 1026.45 z" fill="rgb(254,193,176)" transform="translate(0,0)"></path>
<path d="M 977.018 1266.37 C 990.713 1259.27 988.438 1255.11 995.179 1270.76 L 993.984 1272.19 L 992.71 1273.75 C 981.487 1287.29 967.668 1298.81 949.227 1297.08 C 945.635 1285.01 944.21 1286.89 955.41 1279.87 C 960.833 1276.46 966.193 1272.44 971.895 1269.24 C 973.626 1268.34 975.31 1267.33 977.018 1266.37 z" fill="rgb(254,193,176)" transform="translate(0,0)"></path>
<path d="M 1114.31 1072.19 C 1119.5 1073.06 1124.27 1074.19 1129.39 1075.37 C 1122.49 1076.16 1115.34 1074.83 1108.6 1073.15 C 1110.5 1072.8 1112.4 1072.48 1114.31 1072.19 z" fill="rgb(255,209,102)" transform="translate(0,0)"></path>
<path d="M 1367.91 1301.89 L 1369.01 1302.5 C 1371.46 1303.94 1375.24 1302.02 1377.99 1301.31 C 1385.92 1299.27 1393.58 1299.33 1401.7 1299.52 C 1404.14 1301.77 1405.09 1302.65 1407.14 1305.25 C 1405.42 1321.55 1400.88 1338.7 1389.49 1350.98 C 1381.39 1336.28 1373.5 1318.41 1366.35 1303.07 C 1367.03 1302.47 1367.11 1302.34 1367.91 1301.89 z" fill="rgb(58,36,32)" transform="translate(0,0)"></path>
<path d="M 558.33 859.878 C 565.896 855.066 579.822 825.928 585.323 816.335 C 600.567 789.667 616.751 763.546 633.844 738.023 C 669.159 685.975 708.061 636.454 750.267 589.821 C 860.864 467.91 1003.23 372.234 1165.56 466.62 C 1173.55 471.265 1186.52 477.565 1193.14 483.615 C 1197.42 485.979 1227.09 507.078 1229.36 510.343 L 1229.64 513.495 C 1250.99 530.617 1272.87 553.427 1291.77 573.36 C 1370.33 656.228 1439.7 749.932 1494.09 850.41 C 1498.51 858.575 1507.47 880.261 1512.42 885.953 C 1516.66 895.384 1519.59 906.538 1523.64 915.657 C 1549.5 973.929 1563.69 1026.37 1539.14 1088.26 C 1527.48 1117.67 1513.43 1140.5 1494.02 1165.82 C 1491.55 1169.03 1474.14 1189.73 1473.4 1191.11 L 1473.37 1194.75 C 1472.24 1211.29 1473.03 1233.1 1472.94 1250.01 C 1472.88 1260.93 1472.43 1283.13 1473.49 1293.16 C 1469.25 1298.18 1427.84 1321.88 1420.29 1325.36 C 1416.51 1319.03 1411.3 1312 1407.14 1305.25 C 1405.09 1302.65 1404.14 1301.77 1401.7 1299.52 C 1393.58 1299.33 1385.92 1299.27 1377.99 1301.31 C 1375.24 1302.02 1371.46 1303.94 1369.01 1302.5 L 1367.91 1301.89 C 1367.11 1302.34 1367.03 1302.47 1366.35 1303.07 C 1360.64 1292.87 1351.77 1273.56 1347.69 1263 C 1359.34 1252.22 1369.3 1238.89 1379.34 1226.59 C 1409.85 1189.21 1447 1142.48 1467.89 1099.26 C 1478.12 1078.12 1486.14 1054.57 1487.15 1030.94 C 1492.13 914.377 1369.96 740.047 1293.13 657.018 C 1229.14 587.872 1132.48 505.603 1033.37 501.88 C 950.749 498.776 869.712 557.471 812.093 611.434 C 723.142 694.741 580.464 887.908 576.213 1013.86 C 575.21 1039.14 579.724 1064.34 589.441 1087.7 C 614.475 1148.92 684.317 1228.67 727.735 1277.93 C 753.645 1307.18 779.304 1336.65 804.711 1366.35 C 841.377 1409.31 889.247 1467.37 899.462 1524.26 C 896.153 1522.62 893.642 1518.02 892.715 1514.55 C 890.253 1510.37 887.571 1506.32 884.679 1502.42 C 882.502 1499.59 880.255 1496.87 878.09 1494.07 L 879.682 1492.63 C 862.545 1470.59 844.639 1453.47 824.769 1433.92 L 761.682 1371.99 C 700.02 1311.74 640.548 1249.3 583.381 1184.77 C 560.39 1158.85 543.418 1135.86 528.739 1104.16 C 485.028 1009.77 525.901 947.91 558.33 859.878 z" fill="url(#Gradient4)" transform="translate(0,0)"></path>
<path d="M 1468.04 1196.77 C 1469.55 1194.67 1471.53 1192.92 1473.4 1191.11 L 1473.37 1194.75 C 1472.24 1211.29 1473.03 1233.1 1472.94 1250.01 C 1472.88 1260.93 1472.43 1283.13 1473.49 1293.16 C 1469.25 1298.18 1427.84 1321.88 1420.29 1325.36 C 1416.51 1319.03 1411.3 1312 1407.14 1305.25 C 1405.09 1302.65 1404.14 1301.77 1401.7 1299.52 C 1393.58 1299.33 1385.92 1299.27 1377.99 1301.31 C 1375.24 1302.02 1371.46 1303.94 1369.01 1302.5 L 1367.91 1301.89 C 1381.61 1286.37 1402.43 1267.37 1417.51 1251.53 C 1427.64 1240.93 1437.67 1230.23 1447.58 1219.44 C 1453.96 1212.37 1461.4 1203.25 1468.04 1196.77 z" fill="rgb(43,16,22)" transform="translate(0,0)"></path>
<path d="M 1193.14 483.615 C 1197.42 485.979 1227.09 507.078 1229.36 510.343 L 1229.64 513.495 C 1224.6 509.805 1195.19 487.757 1193.14 483.615 z" fill="rgb(255,209,102)" transform="translate(0,0)"></path>
<path d="M 879.682 1492.63 C 883.997 1497.22 891.949 1508.55 892.715 1514.55 C 890.253 1510.37 887.571 1506.32 884.679 1502.42 C 882.502 1499.59 880.255 1496.87 878.09 1494.07 L 879.682 1492.63 z" fill="rgb(58,36,32)" transform="translate(0,0)"></path>
<path d="M 780.985 816.495 C 803.562 825.516 824.15 837.845 846.069 848.27 C 850.733 850.489 858.054 853.808 862.003 856.837 C 866.167 865.744 883.211 865.078 888.35 869.347 C 888.707 867.064 888.996 864.607 889.582 862.396 C 889.542 858.484 888.812 859.944 890.788 857.404 C 891.055 866.814 891.095 876.229 890.91 885.641 C 891.023 907.215 891.42 930.724 890.841 952.22 L 891.238 1026.45 C 881.076 1028.11 877.352 1030.73 868.284 1034.07 C 855.387 1020.08 846.922 1005.72 836.388 990.036 C 831.169 977.134 822.723 967.767 817.334 950.853 C 811.053 939.009 805.125 919.945 800.835 906.919 C 797.871 897.243 795.184 887.485 792.776 877.657 C 788.589 867.223 782.667 828.28 780.985 816.495 z" fill="url(#Gradient3)" transform="translate(0,0)"></path>
<path d="M 1181.42 815.936 C 1186.5 825.546 1188.82 855.328 1193.3 858.303 C 1200.07 859.653 1203.17 859.966 1208.85 856.616 C 1233.44 842.129 1262.39 830.738 1287.27 817.026 C 1286.37 828.673 1277.68 875.06 1273.34 885.083 C 1271.71 892.585 1270.5 897.359 1268.15 904.646 C 1263.25 921.395 1259.04 934.114 1252.28 950.23 C 1241.12 977.54 1232.99 992.626 1216.67 1016.69 C 1203.14 1001.22 1194.14 994.267 1180.06 980.453 C 1179.89 971.628 1179.75 963.188 1179.95 954.346 C 1179.27 940.639 1179.64 924.798 1179.69 910.906 L 1179.73 896.942 C 1179.61 878.67 1179.07 857.568 1179.93 839.47 C 1182.32 834.379 1181.49 822.195 1181.42 815.936 z" fill="url(#Gradient2)" transform="translate(0,0)"></path>
<path d="M 1343.38 1386.31 L 1349.22 1402.08 C 1320.9 1430.34 1290.73 1454.15 1255.28 1472.92 C 1249.93 1475.75 1227.61 1486.47 1225.1 1489.24 C 1217.79 1487.94 1201.79 1501.52 1175.13 1496.27 C 1173.57 1493.45 1173.59 1488.25 1173.34 1484.83 L 1172.66 1480.97 C 1194.38 1457.06 1207.18 1438.88 1231.39 1415.35 L 1232.86 1414.72 C 1237.25 1419.67 1251.2 1447.75 1256.3 1455.85 C 1263.12 1450.68 1278.29 1439.45 1283.84 1433.69 C 1303.44 1417.12 1323.47 1402.41 1343.38 1386.31 z" fill="rgb(58,36,32)" transform="translate(0,0)"></path>
<path d="M 890.828 753.255 C 890.401 743.784 891.34 736.737 895.475 728.015 C 903.72 710.621 917.221 705.641 935.451 705.644 C 1001.83 705.656 1068.3 705.418 1134.69 705.483 C 1146.86 705.497 1157.89 706.607 1166.59 715.895 C 1177.01 727.019 1180.65 740.682 1179.86 755.493 C 1173.57 734.926 1161.8 725.202 1140.45 725.178 C 1069.71 725.098 998.948 725.014 928.22 725.257 C 908.077 725.326 897.539 734.701 890.828 753.255 z" fill="rgb(255,90,31)" transform="translate(0,0)"></path>
<path d="M 1264.35 1379.44 C 1269.56 1392.77 1278 1423.47 1283.84 1433.69 C 1278.29 1439.45 1263.12 1450.68 1256.3 1455.85 C 1251.2 1447.75 1237.25 1419.67 1232.86 1414.72 L 1231.39 1415.35 C 1207.18 1438.88 1194.38 1457.06 1172.66 1480.97 C 1160.68 1494.08 1151.66 1502.78 1144.2 1519.12 C 1142.66 1522.38 1142.29 1523.61 1139.77 1526.28 C 1140.6 1522.29 1141.81 1518 1142.83 1514.03 C 1147.33 1502.77 1149.01 1496.17 1154.51 1484.38 C 1168.09 1459.14 1192.39 1425.22 1210.18 1402.1 C 1202.12 1398.4 1196.99 1396.02 1189.5 1391.42 L 1184.98 1388.17 C 1222.75 1388.7 1223.54 1394.93 1264.35 1379.44 z" fill="rgb(255,90,31)" transform="translate(0,0)"></path>
<path d="M 862.003 856.837 C 866.262 857.951 874.523 864.561 877.539 860.71 C 878.311 845.783 881.799 830.124 884.703 815.493 C 885.556 809.411 888.33 801.887 888.802 795.866 C 890.748 771.054 881.847 741.147 897.902 719.638 C 901.767 714.46 913.341 705.02 920.158 704.635 C 936.995 703.687 954.013 703.929 970.87 703.931 L 1057.46 703.96 L 1118.53 703.97 C 1134.48 703.937 1153.39 700.819 1166.22 712.605 C 1184.79 729.662 1182.12 751.139 1181.39 773.612 C 1180.97 786.494 1180.59 801.813 1181.35 814.835 L 1181.42 815.936 C 1181.49 822.195 1182.32 834.379 1179.93 839.47 C 1178.82 813.555 1179.75 781.837 1179.86 755.493 C 1180.65 740.682 1177.01 727.019 1166.59 715.895 C 1157.89 706.607 1146.86 705.497 1134.69 705.483 C 1068.3 705.418 1001.83 705.656 935.451 705.644 C 917.221 705.641 903.72 710.621 895.475 728.015 C 891.34 736.737 890.401 743.784 890.828 753.255 C 891.568 786.512 891.276 824.068 890.788 857.404 C 888.812 859.944 889.542 858.484 889.582 862.396 C 888.996 864.607 888.707 867.064 888.35 869.347 C 883.211 865.078 866.167 865.744 862.003 856.837 z" fill="rgb(58,36,32)" transform="translate(0,0)"></path>
<path d="M 836.388 990.036 C 846.922 1005.72 855.387 1020.08 868.284 1034.07 L 868.053 1035.14 C 868.069 1041.59 868.953 1045.84 871.198 1051.96 C 876.104 1063.06 877.272 1064.32 888.445 1071.62 C 889.978 1072.62 889.428 1072.17 890.571 1073.82 L 889.569 1080.88 C 878.569 1082.59 869.008 1084.93 858.344 1087.97 C 858.007 1095.42 858.365 1099.39 859.077 1106.86 C 863.256 1124.68 872.379 1130.58 890.152 1128.61 L 889.963 1144.68 C 880.036 1146.05 874.616 1145.28 875.7 1157.41 C 876.682 1174.36 885.186 1174.96 891.195 1184.2 L 891.14 1218.69 C 888.058 1247.43 904.719 1263.66 933.038 1265.7 C 946.864 1266.7 963.732 1264.7 977.018 1266.37 C 975.31 1267.33 973.626 1268.34 971.895 1269.24 L 971.655 1267.88 L 971.673 1267.83 C 952.718 1268.24 929.319 1270.61 913.046 1263.5 C 879.133 1248.67 890.77 1215.93 889.436 1188.35 C 889.187 1183.18 876.375 1171.64 873.647 1163.31 C 866.072 1140.16 884.618 1149.32 889.841 1138.03 C 889.799 1136.82 888.878 1131.94 887.82 1131.89 C 862.917 1130.81 852.649 1113.28 856.409 1088.68 C 862.401 1080.47 885.529 1082.38 888.88 1074.99 L 887.973 1074.31 C 864.819 1056.66 873.299 1058.15 863.505 1033.07 C 859.159 1021.93 838.304 1004.32 836.388 990.036 z" fill="rgb(58,36,32)" transform="translate(0,0)"></path>
<path d="M 583.381 1184.77 C 640.548 1249.3 700.02 1311.74 761.682 1371.99 L 824.769 1433.92 C 844.639 1453.47 862.545 1470.59 879.682 1492.63 L 878.09 1494.07 C 880.255 1496.87 882.502 1499.59 884.679 1502.42 C 887.571 1506.32 890.253 1510.37 892.715 1514.55 C 893.642 1518.02 896.153 1522.62 899.462 1524.26 C 905.391 1550.4 903.841 1578.19 903.898 1605.17 L 904.035 1695.03 L 904.136 2048 L 435.915 2048 L 352.943 2048 L 121.175 2048 C 138.095 1967.49 158.92 1887.85 183.577 1809.37 C 238.146 1632.73 307.869 1449.8 438.1 1315.09 C 455.922 1296.65 476.795 1275.01 496.915 1259.24 C 503.525 1250.09 571.945 1192.81 583.381 1184.77 z" fill="url(#Gradient1)" transform="translate(0,0)"></path>
<path d="M 583.381 1184.77 C 640.548 1249.3 700.02 1311.74 761.682 1371.99 L 824.769 1433.92 C 844.639 1453.47 862.545 1470.59 879.682 1492.63 L 878.09 1494.07 C 852.249 1463.29 822.639 1449.32 788.761 1429.35 L 679.963 1365.87 L 563.498 1297.67 C 542.965 1285.64 517.748 1269.95 496.915 1259.24 C 503.525 1250.09 571.945 1192.81 583.381 1184.77 z" fill="rgb(43,16,22)" transform="translate(0,0)"></path>
<path d="M 435.441 1554.06 C 436.958 1567.25 436.106 1591.67 436.078 1606.05 L 435.957 1701.47 L 435.915 2048 L 352.943 2048 C 361.114 2004.73 367.512 1960.43 374.865 1916.99 L 417.645 1664.01 C 423.479 1629.32 428.765 1587.89 435.441 1554.06 z" fill="rgb(43,16,22)" transform="translate(0,0)"></path>
<path d="M 828.236 1520.33 C 847.309 1518.34 864.411 1532.11 866.526 1551.17 C 868.64 1570.23 854.974 1587.43 835.929 1589.66 C 816.707 1591.92 799.321 1578.1 797.186 1558.87 C 795.052 1539.63 808.987 1522.33 828.236 1520.33 z" fill="rgb(245,237,230)" transform="translate(0,0)"></path>
<path d="M 584.439 788.756 C 624.502 681.539 671.284 576.953 724.507 475.622 C 744.919 437.095 780.587 373.94 808.159 340.234 C 833.682 308.937 864.743 282.602 899.793 262.543 C 937.056 241.271 978.814 229.095 1021.67 227.004 C 1027.53 226.707 1042.9 226.361 1048.13 227.821 C 1169.75 236.588 1244.36 313.547 1305.54 410.438 C 1382.82 532.821 1437.14 665.931 1484.55 802.29 C 1492.05 823.762 1507.51 865.575 1512.42 885.953 C 1507.47 880.261 1498.51 858.575 1494.09 850.41 C 1439.7 749.932 1370.33 656.228 1291.77 573.36 C 1272.87 553.427 1250.99 530.617 1229.64 513.495 L 1229.36 510.343 C 1227.09 507.078 1197.42 485.979 1193.14 483.615 C 1186.52 477.565 1173.55 471.265 1165.56 466.62 C 1003.23 372.234 860.864 467.91 750.267 589.821 C 708.061 636.454 669.159 685.975 633.844 738.023 C 616.751 763.546 600.567 789.667 585.323 816.335 C 579.822 825.928 565.896 855.066 558.33 859.878 C 566.033 837.748 574.104 815.749 582.541 793.889 L 584.439 788.756 z" fill="rgb(255,140,66)" transform="translate(0,0)"></path>
<path d="M 1048.13 227.821 C 1169.75 236.588 1244.36 313.547 1305.54 410.438 C 1382.82 532.821 1437.14 665.931 1484.55 802.29 C 1492.05 823.762 1507.51 865.575 1512.42 885.953 C 1507.47 880.261 1498.51 858.575 1494.09 850.41 C 1439.7 749.932 1370.33 656.228 1291.77 573.36 C 1272.87 553.427 1250.99 530.617 1229.64 513.495 L 1229.36 510.343 C 1291.05 556.758 1340.94 614.389 1388.29 674.763 C 1392.11 679.631 1398.73 690.712 1402.9 694.215 C 1400.37 686.859 1387.19 661.476 1383.25 654.177 C 1363.66 609.744 1333.52 556.532 1308.44 514.945 C 1256.39 428.615 1199.71 333.781 1120.58 269.422 C 1103.89 255.851 1083.76 242.823 1063.99 234.391 C 1058.8 232.177 1053.7 230.99 1047.94 228.537 L 1048.13 227.821 z" fill="rgb(245,237,230)" transform="translate(0,0)"></path>
<path d="M 587.032 789.949 C 602.123 759.901 626.746 719.918 646.399 691.909 C 726.787 578.143 846.353 437.962 990.518 410.319 C 1118.38 385.802 1244.44 492.113 1322.57 580.911 C 1331.18 590.695 1380.44 652.518 1383.25 654.177 C 1387.19 661.476 1400.37 686.859 1402.9 694.215 C 1398.73 690.712 1392.11 679.631 1388.29 674.763 C 1340.94 614.389 1291.05 556.758 1229.36 510.343 C 1227.09 507.078 1197.42 485.979 1193.14 483.615 C 1186.52 477.565 1173.55 471.265 1165.56 466.62 C 1003.23 372.234 860.864 467.91 750.267 589.821 C 708.061 636.454 669.159 685.975 633.844 738.023 C 616.751 763.546 600.567 789.667 585.323 816.335 C 579.822 825.928 565.896 855.066 558.33 859.878 C 566.033 837.748 574.104 815.749 582.541 793.889 L 583.352 794.234 C 585.852 793.151 585.339 792.865 587.032 789.949 z" fill="rgb(255,90,31)" transform="translate(0,0)"></path>
<path d="M 1473.37 1194.75 C 1587.44 1263.4 1694.68 1370.72 1759.5 1487.15 C 1785.54 1533.92 1806.55 1589.98 1824.46 1640.47 C 1848.1 1708.61 1868.69 1777.77 1886.14 1847.75 C 1894.95 1883.72 1903.04 1919.86 1910.41 1956.15 C 1917.17 1988.48 1922.9 2015.04 1927.74 2048 L 1909.71 2048 C 1885.58 1974.57 1847.13 1885.28 1815.5 1814.61 C 1788.67 1754.37 1760.19 1694.88 1730.08 1636.21 C 1703.87 1583.45 1675.73 1531.68 1645.7 1480.99 C 1607.81 1418.31 1560.42 1353.76 1501.05 1309.66 C 1494.72 1304.95 1480.97 1295 1473.49 1293.16 C 1472.43 1283.13 1472.88 1260.93 1472.94 1250.01 C 1473.03 1233.1 1472.24 1211.29 1473.37 1194.75 z" fill="rgb(245,237,230)" transform="translate(0,0)"></path>
<metadata><recraft-signature>{"signed_by": "recraft", "signature_b64": "PYgqnrF9KeCarAuEkEPqdHt2raFWap0NQ8lv5QvlxjXHC/LD+GYvQ6oFeCbWkiCH9CaAt18jjlb3eoQODPJmBQ==", "signing_algo": "Ed25519", "generation_timestamp": 1783313446, "identifier": "0e943de6-0c31-4b38-ae68-a6f00bfa03ff"}</recraft-signature></metadata></svg>