<svg xmlns="http://www.w3.org/2000/svg" height="1024" preserveAspectRatio="none" style="display: block;" version="1.1" viewBox="0 0 2048 2048" width="1024">
<defs>
	<linearGradient gradientUnits="userSpaceOnUse" id="Gradient1" x1="1039.49" x2="963.551" y1="478.924" y2="1573.77">
		<stop class="stop0" offset="0" stop-color="rgb(252,69,50)" stop-opacity="1"></stop>
		<stop class="stop1" offset="1" stop-color="rgb(252,144,49)" stop-opacity="1"></stop>
	</linearGradient>
</defs>
<path d="M 0 0 L 2048 0 L 2048 2048 L 2009.56 2048 L 1979.47 2048 L 1947.03 2048 L 1201.49 2048 L 1196.49 2048 L 1165.84 2048 L 1159.95 2048 L 957.257 2048 L 953.159 2048 L 923.262 2048 L 918.928 2048 L 74.4832 2048 L 0 2048 L 0 0 z" fill="rgb(58,36,32)" transform="translate(0,0)"></path>
<path d="M 1264.16 655.856 C 1271.57 666.576 1277.19 671.34 1287.8 679.106 C 1288.26 695.689 1289.65 712.967 1291.49 729.463 C 1296.55 774.8 1299.38 820.616 1304.35 865.919 C 1305.5 873.223 1306.38 889.948 1307.02 898.147 L 1307.17 904.302 L 1314.11 982.404 C 1315.05 993.759 1315.46 1010.76 1316.89 1021.18 C 1316.86 1025.72 1316.99 1031.52 1316.76 1035.91 C 1315.92 1089.58 1310.53 1137.36 1287.83 1187.06 C 1282.06 1199.71 1273.74 1210.36 1268.16 1221.4 C 1268.17 1226.11 1268.41 1233.48 1268.15 1237.97 C 1268.37 1240.6 1268.6 1245.42 1269.26 1247.73 C 1325.56 1260.92 1407.99 1282.21 1442.44 1333.18 C 1456.37 1353.81 1454.35 1376.77 1445.66 1398.59 C 1444.3 1402 1438.7 1411.43 1440.47 1414.43 C 1449.03 1410.8 1455.23 1381.66 1457.26 1372.94 C 1488.17 1393.55 1549.55 1428.57 1557.95 1466.47 C 1559.58 1473.82 1558.66 1482.01 1554.35 1488.33 C 1543.14 1504.76 1390.82 1571.57 1364.96 1582.86 C 1355.18 1587.13 1326.76 1597.16 1320.42 1601.52 L 1320.7 1603.03 C 1335.59 1608.72 1524.72 1511.66 1550.47 1498.06 C 1595.08 1515.1 1640 1535.12 1683.13 1555.17 C 1771.39 1596.19 1824.25 1628.09 1879.18 1710.47 C 1899.09 1740.21 1916.4 1771.61 1930.92 1804.32 C 1968.86 1889.17 1988.88 1958.57 2009.56 2048 L 1979.47 2048 L 1947.03 2048 L 1201.49 2048 L 1196.49 2048 L 1165.84 2048 L 1159.95 2048 L 957.257 2048 L 953.159 2048 L 923.262 2048 L 918.928 2048 L 74.4832 2048 C 78.967 2026.91 86.2358 2004.65 92.5881 1984.01 C 113.51 1916.01 138.654 1850.75 172.683 1788.3 C 208.554 1721.51 256.291 1660.39 322.749 1621.77 C 370.747 1593.88 424.842 1572.95 476.054 1551.33 C 487.894 1546.33 502.045 1540.41 514.299 1536.82 C 531.677 1551.94 559.925 1559.82 581.756 1567.33 C 646.521 1589.74 712.381 1608.86 779.083 1624.59 C 787.39 1626.63 812.568 1634.36 819.241 1632.88 L 819.98 1631.22 C 817.632 1628.49 790.242 1622.89 784.903 1621.57 C 717.939 1605.05 649.8 1587.06 584.921 1563.68 C 568.439 1558.35 547.847 1551.15 532.3 1544.08 C 478.552 1519.66 539.951 1455.8 564.204 1434.07 C 574.649 1424.7 586.409 1416.49 596.649 1407.03 L 597.335 1406.39 L 598.917 1407.05 C 599.879 1411.99 600.629 1420.15 601.897 1424.33 C 613.376 1462.17 641.326 1490.64 671.123 1515.14 C 679.765 1522.25 690.344 1529.57 698.36 1536.53 C 703.904 1540.33 725.453 1556.46 730.456 1556.15 L 731.076 1554.16 C 728.988 1550.92 722.8 1548.11 719.26 1545.61 C 681.162 1518.71 640.712 1489.44 616.943 1448.21 C 615.828 1446.21 614.756 1444.19 613.729 1442.15 C 601.587 1417.89 600.616 1399.32 609.056 1373.73 C 630.477 1330.31 668.848 1309.27 710.944 1289.96 C 739.41 1279.32 763.789 1271.12 794.393 1267.57 C 794.099 1287.53 794.219 1307.49 794.753 1327.43 L 794.997 1341 C 796.323 1369.17 795.892 1398.11 795.997 1426.38 C 829.489 1449.3 860.468 1469.45 896.541 1488.46 C 902.993 1491.86 921.758 1503.23 927.768 1505.46 C 966.641 1526.9 1008.48 1553.53 1041.15 1583.6 C 1078.4 1542.75 1139.28 1504.09 1185.19 1473.33 C 1202.98 1461.42 1223.85 1448.36 1240.23 1434.84 C 1238.89 1423.16 1239.78 1387.79 1239.79 1374.84 L 1239.71 1250.12 C 1234.46 1252.03 1226.24 1256.14 1219.94 1258.57 C 1200.63 1266.16 1180.78 1272.29 1160.56 1276.91 C 1168.64 1265.55 1192.63 1232.83 1197.36 1221.14 C 1199.56 1217.66 1205.98 1208.34 1205.57 1204.47 L 1205.45 1202.95 C 1205.76 1198.14 1219.49 1170.61 1222.52 1163.98 C 1230.99 1150.43 1240.97 1124.03 1246.53 1108.74 C 1285.57 1001.35 1280.4 879.204 1271.93 766.671 C 1270.42 745.701 1268.76 724.743 1266.95 703.797 C 1266.04 693.469 1263.14 665.175 1264.16 655.856 z" fill="rgb(245,237,230)" transform="translate(0,0)"></path>
<path d="M 1159.95 2048 C 1153.04 2009.65 1148.53 1974.81 1151.09 1935.84 C 1152.52 1908.52 1158.44 1881.8 1162.18 1854.77 C 1170.57 1794.08 1158.18 1734.33 1138.34 1677.13 C 1133.37 1662.82 1120.77 1632.11 1144.52 1626.98 C 1164.41 1622.68 1168.51 1641.85 1174.63 1655.64 C 1189.74 1690.28 1201.77 1725.9 1206.06 1763.59 C 1213.5 1822.46 1203.15 1874.61 1196.81 1932.73 C 1192.6 1971.25 1194.39 2009.73 1201.49 2048 L 1196.49 2048 L 1165.84 2048 L 1159.95 2048 z" fill="rgb(58,36,32)" transform="translate(0,0)"></path>
<path d="M 1157.53 1999.9 C 1168.5 1999.93 1179.48 2000.12 1190.46 2000.45 C 1191.72 2017.46 1193.6 2031.24 1196.49 2048 L 1165.84 2048 C 1161.19 2033.27 1158.83 2015.31 1157.53 1999.9 z" fill="rgb(245,237,230)" transform="translate(0,0)"></path>
<path d="M 1143.66 1631.18 C 1150.82 1630.87 1159 1631.39 1162.63 1638.97 C 1193.97 1704.54 1210.12 1773.25 1202.2 1846.05 C 1199.14 1874.21 1195.14 1902.5 1192.52 1930.64 C 1191.25 1944.02 1190.47 1957.43 1190.16 1970.87 C 1190.06 1975.66 1190.54 1990.85 1189.76 1994.36 C 1186.89 1996.43 1186.44 1995.74 1182.19 1996.02 L 1156.92 1995.85 C 1149.16 1944.61 1162.29 1897.6 1167.48 1848.73 C 1170.01 1824.93 1170.02 1800.92 1167.48 1777.12 C 1162.91 1733.86 1148.33 1693.43 1135.67 1652.16 C 1132.37 1641.43 1134.6 1637.18 1143.66 1631.18 z" fill="rgb(245,237,230)" transform="translate(0,0)"></path>
<path d="M 918.928 2048 C 905.039 1988.1 910.623 1921.65 923.737 1862.1 C 931.788 1825.54 941.598 1791.46 941.18 1753.47 C 940.919 1729.73 937.586 1705.86 932.459 1682.69 C 930.165 1672.33 926.03 1661.25 925.01 1650.82 C 924.462 1645.21 925.417 1638.88 928.619 1634.14 C 931.293 1630.18 935.369 1627.83 940.032 1627.04 C 945.322 1626.15 950.666 1626.52 955.156 1629.72 C 967.587 1638.58 979.019 1704.51 981.3 1722.66 C 989.031 1784.17 973.732 1827.06 962.961 1885.68 C 953.178 1938.93 949.709 1994.25 957.257 2048 L 953.159 2048 L 923.262 2048 L 918.928 2048 z" fill="rgb(58,36,32)" transform="translate(0,0)"></path>
<path d="M 916.885 2000.21 C 927.641 2000.17 938.03 2000.71 948.764 2000.87 C 949.164 2015.73 949.874 2033.49 953.159 2048 L 923.262 2048 C 919.428 2034.52 917.289 2014.16 916.885 2000.21 z" fill="rgb(245,237,230)" transform="translate(0,0)"></path>
<path d="M 938.987 1630.98 C 958.868 1630.55 958.711 1643.12 963.321 1658.69 C 978.698 1710.62 983.849 1764.18 972.834 1817.6 C 965.703 1849 959.437 1879.68 954.11 1911.42 C 949.425 1939.33 950.952 1966.5 948.012 1993.76 C 945.633 1996.04 945.478 1995.33 941.349 1995.84 C 933.343 1996.06 924.885 1995.95 916.841 1995.97 C 913.878 1955.44 917.87 1911.19 926.407 1871.52 C 934.501 1833.92 945.618 1799.58 945.908 1760.69 C 946.101 1734.94 942.892 1709.59 937.51 1684.4 C 934.603 1670.79 930.796 1658.2 928.463 1644.38 C 931.362 1637.1 932.557 1635.42 938.987 1630.98 z" fill="rgb(245,237,230)" transform="translate(0,0)"></path>
<path d="M 1268.77 1318.61 C 1282.51 1325.19 1295.66 1332.61 1308.39 1341.02 C 1312.87 1343.97 1317.82 1351.78 1321.25 1352.89 L 1324.36 1354.42 C 1296.05 1419.05 1168.6 1484.58 1111.75 1528.11 C 1087.73 1546.5 1062.03 1567.19 1041.7 1589.9 C 1023.54 1573.95 1005.09 1558.28 984.759 1545.2 C 924.102 1506.16 857.966 1476.62 799.387 1434.15 C 768.009 1411.39 733.681 1388.47 723.146 1348.98 C 726.457 1348.42 725.508 1347.96 727.916 1348.96 C 730.119 1360.99 733.416 1364.68 739.975 1375.25 C 757.54 1357.71 771.778 1349.63 794.997 1341 C 796.323 1369.17 795.892 1398.11 795.997 1426.38 C 829.489 1449.3 860.468 1469.45 896.541 1488.46 C 902.993 1491.86 921.758 1503.23 927.768 1505.46 C 966.641 1526.9 1008.48 1553.53 1041.15 1583.6 C 1078.4 1542.75 1139.28 1504.09 1185.19 1473.33 C 1202.98 1461.42 1223.85 1448.36 1240.23 1434.84 C 1250.12 1428.08 1259.71 1420.89 1268.97 1413.29 C 1268.15 1387.91 1268.96 1362.62 1268.17 1337.51 C 1268.67 1332.07 1268.63 1324.25 1268.77 1318.61 z" fill="rgb(58,36,32)" transform="translate(0,0)"></path>
<path d="M 1321.25 1352.89 C 1321.79 1351.04 1322.95 1347.79 1323.03 1345.97 C 1323.1 1344.23 1325.73 1341.52 1326.6 1344.03 C 1327.5 1346.65 1325.12 1351.89 1324.36 1354.42 L 1321.25 1352.89 z" fill="rgb(43,16,22)" transform="translate(0,0)"></path>
<path d="M 1432.75 1424 L 1435.69 1427.81 C 1412.13 1465.08 1378.36 1498.97 1344.42 1526.84 C 1339.29 1531.05 1320.59 1547.06 1315.14 1545.44 C 1318.9 1539.19 1337.09 1527.77 1344.46 1521.67 C 1353.5 1514.16 1362.26 1506.34 1370.73 1498.2 C 1397.85 1472.19 1411.92 1454.6 1432.75 1424 z" fill="rgb(58,36,32)" transform="translate(0,0)"></path>
<path d="M 1299.2 1608.97 C 1310.46 1611.57 1282.24 1619.51 1281.38 1619.83 C 1279.45 1619.79 1277.53 1618.78 1278.71 1617.5 C 1281.54 1614.43 1295.61 1610.22 1299.2 1608.97 z" fill="rgb(58,36,32)" transform="translate(0,0)"></path>
<path d="M 1278.12 1141.55 C 1281.88 1145.51 1274.56 1160.7 1272.27 1165.25 C 1267.48 1159.83 1274.78 1146.49 1278.12 1141.55 z" fill="rgb(58,36,32)" transform="translate(0,0)"></path>
<path d="M 1292.33 1092.26 C 1297.24 1094.55 1294.37 1098.07 1293.19 1103.53 L 1292.19 1108.03 C 1291.57 1110.89 1290.92 1113.29 1290.22 1116.12 C 1289.97 1115.9 1287.61 1114.01 1287.63 1113.53 C 1287.9 1107.24 1290.38 1098.08 1292.33 1092.26 z" fill="rgb(58,36,32)" transform="translate(0,0)"></path>
<path d="M 1195.6 1243.8 C 1198.56 1246.93 1191.02 1263.23 1188.89 1266.45 C 1184.41 1262.43 1192.48 1247.48 1195.6 1243.8 z" fill="rgb(43,16,22)" transform="translate(0,0)"></path>
<path d="M 1261.45 1111.52 C 1262 1111.85 1263.98 1112.92 1263.89 1113.65 C 1263.49 1117.16 1257.8 1130.61 1256.47 1133.5 C 1251.18 1130.68 1259.33 1116.13 1261.45 1111.52 z" fill="rgb(58,36,32)" transform="translate(0,0)"></path>
<path d="M 1265.05 1191.34 C 1265.23 1191.4 1268.17 1192.23 1268.08 1192.7 C 1267.03 1198.25 1263 1207 1260.81 1212.29 C 1258.59 1210.6 1257.36 1210.16 1258.74 1207.31 C 1261.25 1202.17 1262.83 1196.62 1265.05 1191.34 z" fill="rgb(43,16,22)" transform="translate(0,0)"></path>
<path d="M 1295.18 987.336 C 1300.3 989.666 1298.42 1007.21 1297.84 1012.53 C 1292.73 1009.9 1294.79 992.77 1295.18 987.336 z" fill="rgb(58,36,32)" transform="translate(0,0)"></path>
<path d="M 1243.32 1170.37 C 1248.45 1173.7 1240.93 1185.43 1238.53 1190.44 C 1233.74 1186.67 1240.9 1174.66 1243.32 1170.37 z" fill="rgb(58,36,32)" transform="translate(0,0)"></path>
<path d="M 1295.83 1042.36 C 1300.17 1045.61 1297.09 1060.32 1296.06 1065.47 C 1291.44 1061.86 1294.41 1047.59 1295.83 1042.36 z" fill="rgb(43,16,22)" transform="translate(0,0)"></path>
<path d="M 1228.33 1218.67 C 1231.61 1222.03 1225.87 1235.9 1224.21 1239.99 C 1219.39 1235.71 1225.7 1223.31 1228.33 1218.67 z" fill="rgb(58,36,32)" transform="translate(0,0)"></path>
<path d="M 979.067 491.787 C 1009.91 501.774 1030.58 497.405 1055.02 476.659 C 1081.3 502.229 1102.7 508.019 1138.12 496.362 C 1153.38 526.34 1174.95 541.54 1209.46 538.154 C 1214.06 563.857 1218.38 568.729 1236.17 586.195 C 1243.11 590.761 1249.56 595.151 1256.95 599.02 C 1253.52 622.687 1254.04 633.772 1264.16 655.856 C 1263.14 665.175 1266.04 693.469 1266.95 703.797 C 1268.76 724.743 1270.42 745.701 1271.93 766.671 C 1280.4 879.204 1285.57 1001.35 1246.53 1108.74 C 1240.97 1124.03 1230.99 1150.43 1222.52 1163.98 C 1219.49 1170.61 1205.76 1198.14 1205.45 1202.95 L 1205.57 1204.47 C 1205.98 1208.34 1199.56 1217.66 1197.36 1221.14 C 1192.63 1232.83 1168.64 1265.55 1160.56 1276.91 C 1180.78 1272.29 1200.63 1266.16 1219.94 1258.57 C 1226.24 1256.14 1234.46 1252.03 1239.71 1250.12 L 1239.79 1374.84 C 1239.78 1387.79 1238.89 1423.16 1240.23 1434.84 C 1223.85 1448.36 1202.98 1461.42 1185.19 1473.33 C 1139.28 1504.09 1078.4 1542.75 1041.15 1583.6 C 1008.48 1553.53 966.641 1526.9 927.768 1505.46 C 930.897 1502.14 942.924 1495.08 947.706 1491.42 C 969.272 1474.85 991.143 1458.69 1013.31 1442.93 C 1025.35 1434.39 1064.83 1407.79 1072.82 1398.29 C 1086.99 1392.28 1099.05 1386.77 1112.45 1378.85 C 1150.43 1356.41 1188.92 1314.16 1211.38 1275.79 C 1131.69 1338.94 1044.92 1364.68 945.324 1332.11 C 887.206 1316.38 840.629 1290.93 797.272 1249 C 753.239 1200.86 746.078 1158.14 737.837 1096.58 C 734.278 1070.42 730.859 1044.24 727.581 1018.05 C 725.364 1000.47 723.219 979.319 719.553 962.112 C 713.099 923.159 708.437 883.12 702.642 844.001 C 700.386 828.77 699.129 813.719 696.471 798.426 C 714.335 773.911 716.233 747.65 704.209 720.089 C 713.588 712.273 720.984 702.349 725.792 691.127 C 734.859 669.846 731.991 652.045 723.855 631.432 C 729.885 622.451 731.399 616.742 734.382 606.373 C 776.913 610.222 804.962 581.499 810.021 540.941 C 838.825 539.084 858.633 532.722 874.507 507.162 C 893.783 515.809 905.14 515.064 924.934 509.92 C 929.317 507.474 935.151 504.75 939.741 502.462 C 950.143 504.447 967.959 495.159 979.067 491.787 z" fill="url(#Gradient1)" transform="translate(0,0)"></path>
<path d="M 874.507 507.162 C 893.783 515.809 905.14 515.064 924.934 509.92 C 924.667 510.294 924.412 510.677 924.133 511.042 C 919.21 517.462 876.759 534.879 865.884 541.884 C 856.267 548.08 847.545 556.05 839.1 563.753 C 792.874 605.918 766.431 660.333 758.869 722.125 C 757.505 733.269 754.925 745.812 756.034 756.989 C 756.165 758.312 756.391 759.601 756.663 760.901 C 749.427 768.878 741.358 778.622 741.456 790.161 C 741.526 798.393 751.128 797.822 756.743 795.961 C 757.373 878.145 757.329 961.04 768.486 1042.59 C 769.78 1052.06 777.775 1099.92 782.507 1104.96 L 784.994 1104.13 C 785.067 1109.06 786.04 1122 789.91 1125.07 C 785.419 1131.93 792.832 1147.09 796.262 1153.98 L 797.612 1154.82 C 800.956 1159.91 804.982 1172.56 805.122 1179.09 C 816.68 1196.77 823.663 1218.27 835.421 1235.62 C 842.402 1245.93 870.561 1287 881.925 1285.76 C 886.315 1289.59 883.638 1293.31 890.544 1292.85 C 894.038 1293.93 899.773 1300.08 902.347 1302.91 C 908.5 1309.68 941.877 1327.93 945.324 1332.11 C 887.206 1316.38 840.629 1290.93 797.272 1249 C 753.239 1200.86 746.078 1158.14 737.837 1096.58 C 734.278 1070.42 730.859 1044.24 727.581 1018.05 C 725.364 1000.47 723.219 979.319 719.553 962.112 C 713.099 923.159 708.437 883.12 702.642 844.001 C 700.386 828.77 699.129 813.719 696.471 798.426 C 714.335 773.911 716.233 747.65 704.209 720.089 C 713.588 712.273 720.984 702.349 725.792 691.127 C 734.859 669.846 731.991 652.045 723.855 631.432 C 729.885 622.451 731.399 616.742 734.382 606.373 C 776.913 610.222 804.962 581.499 810.021 540.941 C 838.825 539.084 858.633 532.722 874.507 507.162 z" fill="rgb(255,90,31)" transform="translate(0,0)"></path>
<path d="M 805.122 1179.09 C 801.154 1175.31 795.355 1159.94 797.612 1154.82 C 800.956 1159.91 804.982 1172.56 805.122 1179.09 z" fill="rgb(43,16,22)" transform="translate(0,0)"></path>
<path d="M 820.632 1245.31 C 821.034 1245.42 823.783 1246.06 823.934 1246.32 C 826.737 1251.26 828.827 1262.19 830.02 1267.7 C 827.265 1267.24 825.47 1267.36 825.021 1264.08 C 824.13 1257.57 821.651 1251.8 820.632 1245.31 z" fill="rgb(43,16,22)" transform="translate(0,0)"></path>
<path d="M 767.759 1158.41 L 768.222 1158.48 C 768.043 1158.46 770.775 1158.75 771.032 1159.04 C 773.619 1161.94 779.902 1177.31 780.943 1180.5 C 774.6 1177.08 769.979 1165.13 767.759 1158.41 z" fill="rgb(43,16,22)" transform="translate(0,0)"></path>
<path d="M 793.625 1203.82 C 798.582 1205.32 805.597 1220.11 806.169 1224.79 C 800.782 1222.22 793.789 1208.92 793.625 1203.82 z" fill="rgb(43,16,22)" transform="translate(0,0)"></path>
<path d="M 753.681 1059.42 C 759.079 1063.2 757.394 1075.91 756.369 1081.8 L 755.179 1081.2 C 751.462 1079.36 753.178 1063.41 753.681 1059.42 z" fill="rgb(43,16,22)" transform="translate(0,0)"></path>
<path d="M 759.058 1109.31 C 764.67 1111.73 763.216 1125.72 763.194 1131.69 C 757.697 1128.77 758.938 1115.31 759.058 1109.31 z" fill="rgb(43,16,22)" transform="translate(0,0)"></path>
<path d="M 756.663 760.901 C 801.462 720.253 863.893 696.821 926.118 691.835 C 939.774 690.74 942.874 706.177 941.552 717.771 C 941.26 720.201 940.927 722.625 940.555 725.044 C 960.863 746.261 977.575 786.838 976.374 816.332 C 974.983 850.477 956.597 889.105 943.581 920.475 C 932.042 948.286 910.55 980.649 955.241 992.143 C 986.799 960.891 983.817 991.025 1017.91 991.807 C 1043.46 992.394 1056.26 951.401 1081.3 980.506 C 1116.93 969.432 1108.98 939.153 1087.59 917.681 L 1087.64 916.277 C 1093.01 916.957 1095.43 920.077 1100.25 925.079 C 1119.29 944.813 1108.68 985.515 1079.53 984.209 C 1075.65 984.035 1066.26 967.874 1055.25 976.713 C 1039.42 989.423 1030.61 999.496 1008.03 995.269 C 996.22 993.058 983.119 976.978 970.465 983.972 C 962.885 988.685 961.017 998.41 949.334 994.907 C 905.411 981.739 929.441 944.477 939.242 920.383 C 965.48 855.88 990.453 812.703 951.727 746.834 C 948.328 741.016 944.499 735.459 940.271 730.211 C 936.082 739.297 931.318 748.929 920.89 752.043 C 910.54 755.133 895.485 754.74 884.389 755.928 C 844.943 760.153 788.481 772.201 756.743 795.961 C 751.128 797.822 741.526 798.393 741.456 790.161 C 741.358 778.622 749.427 768.878 756.663 760.901 z" fill="rgb(58,36,32)" transform="translate(0,0)"></path>
<path d="M 1236.17 586.195 C 1243.11 590.761 1249.56 595.151 1256.95 599.02 C 1253.52 622.687 1254.04 633.772 1264.16 655.856 C 1263.14 665.175 1266.04 693.469 1266.95 703.797 C 1268.76 724.743 1270.42 745.701 1271.93 766.671 C 1280.4 879.204 1285.57 1001.35 1246.53 1108.74 C 1240.97 1124.03 1230.99 1150.43 1222.52 1163.98 C 1221.83 1158.04 1232.87 1126.36 1235.37 1117.16 C 1237.69 1108.64 1239.62 1100.03 1241.15 1091.33 C 1254.85 1014.52 1258.39 953.398 1255.31 875.327 C 1253.52 829.831 1248.88 783.083 1247.25 738.149 C 1266.21 731.227 1251.88 717.778 1243.05 709.866 C 1241.71 688.894 1240.93 666.267 1239.49 645.26 C 1238.76 634.716 1234.95 593.149 1236.17 586.195 z" fill="rgb(255,140,66)" transform="translate(0,0)"></path>
<path d="M 1055.74 668.319 C 1083.83 663.074 1135.65 670.685 1164.44 676.331 C 1191.72 681.682 1220.11 694.065 1243.05 709.866 C 1251.88 717.778 1266.21 731.227 1247.25 738.149 C 1233.75 735.247 1220.39 731.24 1206.82 728.694 C 1172.13 722.188 1136.47 721.408 1101.38 724.726 C 1092.16 725.598 1081.27 726.956 1072.16 726.409 C 1053.08 725.263 1042.91 700.195 1045.4 683.668 C 1046.54 675.803 1049.78 672.803 1055.74 668.319 z" fill="rgb(58,36,32)" transform="translate(0,0)"></path>
<path d="M 881.925 1285.76 C 882.106 1286.09 871.544 1270.21 879.262 1274.79 C 880.958 1275.79 888.977 1290.18 890.544 1292.85 C 883.638 1293.31 886.315 1289.59 881.925 1285.76 z" fill="rgb(43,16,22)" transform="translate(0,0)"></path>
<path d="M 784.994 1104.13 C 790.188 1102.1 790.549 1123.16 789.91 1125.07 C 786.04 1122 785.067 1109.06 784.994 1104.13 z" fill="rgb(43,16,22)" transform="translate(0,0)"></path>
<path d="M 1205.45 1202.95 L 1205.57 1204.47 C 1205.98 1208.34 1199.56 1217.66 1197.36 1221.14 C 1194.33 1215.94 1201.86 1206.76 1205.45 1202.95 z" fill="rgb(43,16,22)" transform="translate(0,0)"></path>
<path d="M 917.157 1136.37 C 913.254 1137.42 914.977 1137.67 911.759 1136.37 C 911.928 1134.86 912.076 1133.61 913.773 1132.77 C 984.429 1097.85 1059.64 1063.96 1140.23 1065.68 C 1146.97 1065.83 1171.76 1064.36 1175.23 1068.91 L 1174.28 1070.55 L 1171.39 1071.3 C 1165.5 1080.62 1160.07 1090.89 1153.12 1099.47 C 1131.5 1126.16 1100.29 1145.76 1066.93 1153.38 C 1026.6 1162.59 953.028 1158.37 917.157 1136.37 z" fill="rgb(245,237,230)" transform="translate(0,0)"></path>
<path d="M 917.157 1136.37 C 913.254 1137.42 914.977 1137.67 911.759 1136.37 C 911.928 1134.86 912.076 1133.61 913.773 1132.77 C 984.429 1097.85 1059.64 1063.96 1140.23 1065.68 C 1146.97 1065.83 1171.76 1064.36 1175.23 1068.91 L 1174.28 1070.55 L 1171.39 1071.3 C 1097.38 1063.61 1035.44 1081.82 968.432 1111.65 C 954.79 1117.73 929.708 1128.48 917.157 1136.37 z" fill="rgb(43,16,22)" transform="translate(0,0)"></path>
<path d="M 868.686 798.424 C 888.782 796.705 945.008 808.153 954.583 826.643 L 953.937 828.106 C 927.108 811.678 919.274 809.036 887.195 802.497 C 896.137 813.127 899.676 823.007 896.273 837.191 C 894.102 846.625 888.045 854.702 879.596 859.428 C 869.919 864.794 860.137 864.774 849.777 861.829 C 828.252 851.688 823.701 834.062 828.977 812.093 C 810.462 821.103 793.714 830.449 779.246 845.195 C 777.096 847.387 772.091 852.49 769.405 853.147 C 773.497 841.193 791.77 828.921 801.857 822.456 C 822.899 808.969 843.759 800.42 868.686 798.424 z" fill="rgb(58,36,32)" transform="translate(0,0)"></path>
<path d="M 1154.71 765.447 C 1165.9 765.364 1177.06 766.69 1187.92 769.394 C 1208.13 774.227 1236.73 785.329 1248.15 803.762 C 1242.83 800.953 1234.46 794.598 1228.8 791.055 C 1211.88 780.473 1197.31 775.825 1178.15 771.484 C 1195.69 797.482 1182.61 827.425 1150.05 829.174 C 1120.38 827.283 1109.03 801.145 1121 775.482 C 1104.58 780.677 1092.82 785.721 1078.3 795.451 C 1072.97 799.024 1064.99 806.84 1059.92 808.643 L 1058.93 807.528 C 1060.68 803.036 1067.7 798.634 1071.67 795.466 C 1095.4 776.497 1124.68 767.505 1154.71 765.447 z" fill="rgb(58,36,32)" transform="translate(0,0)"></path>
<path d="M 1080.41 1183.9 C 1081.92 1185.42 1084.66 1187.72 1081.75 1189.67 C 1060.33 1204 1033.86 1208.6 1009.41 1199.32 C 1002.2 1191.88 1023.55 1198.83 1024.92 1199.01 C 1045.74 1201.83 1063.86 1196.62 1080.41 1183.9 z" fill="rgb(43,16,22)" transform="translate(0,0)"></path>
<path d="M 910.446 1238.67 C 917.604 1239.97 921.904 1253.54 921.177 1259.5 C 919.214 1258.95 917.176 1258.65 917.117 1256.06 C 916.973 1249.7 910.334 1243.8 910.446 1238.67 z" fill="rgb(43,16,22)" transform="translate(0,0)"></path>
<path d="M 877.027 1220.85 C 881.573 1223.63 885.99 1238.3 885.948 1243.68 C 881.188 1240.18 875.805 1226.41 877.027 1220.85 z" fill="rgb(43,16,22)" transform="translate(0,0)"></path>
<path d="M 1111.46 1259.52 C 1115.51 1263.09 1106.05 1276.44 1102.98 1279.1 C 1099.09 1274.44 1108.24 1263.67 1111.46 1259.52 z" fill="rgb(43,16,22)" transform="translate(0,0)"></path>
<path d="M 1149.61 1281.53 C 1150.27 1282.11 1150.88 1282.45 1151.12 1283.19 C 1151.04 1283.63 1141.94 1300.46 1141.05 1302.01 C 1135.77 1297.22 1145.93 1285.46 1149.61 1281.53 z" fill="rgb(43,16,22)" transform="translate(0,0)"></path>
<path d="M 827.934 1190.93 C 832.149 1193.33 839.772 1206.53 839.753 1211.56 C 834.801 1209.64 827.357 1195.04 827.934 1190.93 z" fill="rgb(43,16,22)" transform="translate(0,0)"></path>
<path d="M 850.904 1235.31 C 852.996 1235.77 854.49 1235.59 854.957 1237.9 C 856.179 1243.94 858.434 1249.67 859.569 1255.74 C 857.152 1254.9 855.905 1254.66 855.102 1252.02 L 854.681 1250.61 C 853.039 1245.25 851.623 1240.87 850.904 1235.31 z" fill="rgb(43,16,22)" transform="translate(0,0)"></path>
<path d="M 1034.25 1304.66 C 1039.08 1308.5 1034.48 1319.97 1033.36 1326.27 C 1027.51 1324.61 1032.87 1309.12 1034.25 1304.66 z" fill="rgb(43,16,22)" transform="translate(0,0)"></path>
<path d="M 925.597 1293.53 C 931.584 1294.7 937.273 1306.19 939.065 1311.65 C 932.516 1309.42 927.542 1299.7 925.597 1293.53 z" fill="rgb(43,16,22)" transform="translate(0,0)"></path>
<path d="M 1000.93 1296.41 C 1007.23 1298.42 1004.97 1300.75 1005.86 1308.51 C 1006.2 1311.33 1006.5 1314.16 1006.78 1316.99 C 1001.49 1315.83 1001.35 1301.57 1000.93 1296.41 z" fill="rgb(43,16,22)" transform="translate(0,0)"></path>
<path d="M 943.247 1263.27 C 950.296 1264.79 952.48 1275.77 953.958 1282.39 C 949.161 1281.05 944.947 1268.1 943.247 1263.27 z" fill="rgb(43,16,22)" transform="translate(0,0)"></path>
<path d="M 972.299 1305.43 C 978.258 1306.86 984.448 1316.29 984.8 1321.5 L 984.94 1323.1 C 981.023 1321.18 974.075 1309.42 972.299 1305.43 z" fill="rgb(43,16,22)" transform="translate(0,0)"></path>
<path d="M 1109.04 1293.62 C 1109.42 1293.91 1111.18 1295.11 1110.89 1295.64 C 1108.86 1299.27 1103 1309.39 1101.13 1312.29 C 1100.86 1311.95 1098.96 1309.77 1099.13 1309.36 C 1101.09 1304.72 1105.98 1297.58 1109.04 1293.62 z" fill="rgb(43,16,22)" transform="translate(0,0)"></path>
<path d="M 1175.83 1197.52 C 1180.61 1200.05 1169.52 1211.88 1166.96 1215.29 C 1162.12 1213.09 1173.83 1199.86 1175.83 1197.52 z" fill="rgb(43,16,22)" transform="translate(0,0)"></path>
<path d="M 1045.44 1266.39 C 1050.44 1268.99 1046.79 1282.78 1045.43 1287.27 C 1040.96 1284.29 1044.76 1271.95 1045.44 1266.39 z" fill="rgb(43,16,22)" transform="translate(0,0)"></path>
<path d="M 1072.58 1303.61 C 1076.65 1307.34 1067.68 1318.05 1064.95 1321.75 C 1061.11 1317.99 1069.94 1307.5 1072.58 1303.61 z" fill="rgb(43,16,22)" transform="translate(0,0)"></path>
<path d="M 1154.39 1239.66 C 1158.27 1243.66 1148.83 1253.91 1145.87 1258.07 C 1142.46 1253.55 1151.16 1244.47 1154.39 1239.66 z" fill="rgb(43,16,22)" transform="translate(0,0)"></path>
<path d="M 1005 1254.29 C 1010.31 1256.57 1009.2 1270.27 1008.83 1275.49 C 1004.29 1272.85 1005.07 1259.42 1005 1254.29 z" fill="rgb(43,16,22)" transform="translate(0,0)"></path>
<path d="M 880.893 316.864 C 882.231 314.395 883.629 311.959 885.084 309.557 C 899.403 286.331 923.387 272.761 950.829 274.38 C 965.388 275.239 976.045 280.871 988.093 288.403 C 1011.04 272.978 1040.56 270.262 1064.5 285.778 C 1070.14 289.434 1074.94 293.929 1079.96 298.39 C 1091.94 293.893 1101.03 292.887 1113.64 293.423 L 1115.12 293.944 C 1117.1 294.68 1119.07 295.223 1121.12 295.767 L 1121.88 293.748 C 1123.63 293.968 1125.12 294.195 1126.84 294.48 C 1151.26 300.334 1160.48 309.167 1175.07 328.285 C 1181.29 327.011 1191.01 326.518 1197.63 325.994 C 1202.37 324.888 1203.19 324.826 1208.13 325.42 L 1208.93 327.792 C 1210.62 328.211 1212.3 328.644 1213.99 329.089 C 1246.08 340.264 1264.87 366.401 1266.48 399.671 C 1266.54 400.917 1269.39 401.275 1270.18 401.427 C 1270.93 401.577 1271.67 401.734 1272.41 401.898 C 1276.77 401.973 1279.95 402.781 1284.23 403.658 C 1328.99 418.793 1348.7 450.9 1336.16 497.124 C 1367.85 521.41 1373.75 551.867 1358.73 588.015 C 1382.2 623.163 1376.33 660.654 1342.02 686.005 C 1355.02 705.395 1357.98 714.237 1355.34 738.111 C 1353.03 759.059 1339.46 765.394 1334.39 778.884 C 1341.95 790.393 1341.69 797.261 1342.04 810.33 C 1340.95 813.693 1341.3 812.578 1340.92 813.995 C 1335.22 835.27 1320.62 850.261 1305.73 865.523 C 1305.62 865.64 1304.57 865.856 1304.35 865.919 C 1299.38 820.616 1296.55 774.8 1291.49 729.463 C 1289.65 712.967 1288.26 695.689 1287.8 679.106 C 1277.19 671.34 1271.57 666.576 1264.16 655.856 C 1254.04 633.772 1253.52 622.687 1256.95 599.02 C 1249.56 595.151 1243.11 590.761 1236.17 586.195 C 1218.38 568.729 1214.06 563.857 1209.46 538.154 C 1174.95 541.54 1153.38 526.34 1138.12 496.362 C 1102.7 508.019 1081.3 502.229 1055.02 476.659 C 1030.58 497.405 1009.91 501.774 979.067 491.787 C 967.959 495.159 950.143 504.447 939.741 502.462 C 935.151 504.75 929.317 507.474 924.934 509.92 C 905.14 515.064 893.783 515.809 874.507 507.162 C 858.633 532.722 838.825 539.084 810.021 540.941 C 804.962 581.499 776.913 610.222 734.382 606.373 C 731.399 616.742 729.885 622.451 723.855 631.432 C 731.991 652.045 734.859 669.846 725.792 691.127 C 720.984 702.349 713.588 712.273 704.209 720.089 C 716.233 747.65 714.335 773.911 696.471 798.426 C 699.129 813.719 700.386 828.77 702.642 844.001 C 708.437 883.12 713.099 923.159 719.553 962.112 C 716.974 956.389 715.84 952.782 711.234 948.345 L 711.432 946.446 L 712.111 946.465 C 713.393 942.791 709.419 921.809 708.478 917.222 C 692.215 899.744 675.416 882.772 658.105 866.331 C 657.107 855.723 656.987 849.055 657.105 838.333 C 654.086 837.986 650.858 837.608 647.891 836.987 C 630.326 833.347 614.966 822.791 605.273 807.698 C 592.919 788.287 593.068 768.276 597.871 746.61 C 592.57 743.729 586.965 740.225 582.464 736.177 C 569.234 724.216 561.293 707.493 560.386 689.682 C 559.224 666.805 566.565 652.147 581.305 635.677 C 557.178 596.261 576.669 552.267 617.979 535.239 C 617.409 532.594 616.894 529.939 616.433 527.273 C 613.073 508.072 617.554 488.326 628.873 472.456 C 642.132 454.1 658.712 446.381 680.418 442.798 C 680.619 429.89 681.984 419.679 687.793 407.858 C 696.181 390.844 711.03 377.895 729.028 371.9 C 744.377 366.73 760.342 366.348 775.014 373.74 C 776.795 366.136 778.345 359.936 781.055 352.712 C 792.75 321.544 826.554 304.401 858.802 309.748 C 866.929 311.096 873.268 313.766 880.893 316.864 z" fill="rgb(43,16,22)" transform="translate(0,0)"></path>
<path d="M 1121.88 293.748 C 1123.63 293.968 1125.12 294.195 1126.84 294.48 C 1151.26 300.334 1160.48 309.167 1175.07 328.285 C 1171.71 329.734 1168.47 330.805 1165.14 332.289 C 1154.85 315.521 1145.95 304.831 1126.81 297.649 L 1125.04 296.942 L 1121.12 295.767 L 1121.88 293.748 z" fill="rgb(245,237,230)" transform="translate(0,0)"></path>
<path d="M 961.051 479.926 C 967.126 484.486 972.303 488.291 979.067 491.787 C 967.959 495.159 950.143 504.447 939.741 502.462 C 951.787 492.436 951.369 493.257 961.051 479.926 z" fill="rgb(255,90,31)" transform="translate(0,0)"></path>
<path d="M 1197.63 325.994 C 1202.37 324.888 1203.19 324.826 1208.13 325.42 L 1208.93 327.792 L 1208.23 327.683 C 1204.37 327.045 1201.54 326.8 1197.63 325.994 z" fill="rgb(150,120,133)" transform="translate(0,0)"></path>
<path d="M 794.753 1327.43 C 872.466 1394.42 971.527 1428.66 1072.82 1398.29 C 1064.83 1407.79 1025.35 1434.39 1013.31 1442.93 C 991.143 1458.69 969.272 1474.85 947.706 1491.42 C 942.924 1495.08 930.897 1502.14 927.768 1505.46 C 921.758 1503.23 902.993 1491.86 896.541 1488.46 C 860.468 1469.45 829.489 1449.3 795.997 1426.38 C 795.892 1398.11 796.323 1369.17 794.997 1341 L 794.753 1327.43 z" fill="rgb(255,90,31)" transform="translate(0,0)"></path>
<path d="M 731.954 1083.18 C 723.651 1085.5 717.933 1086.91 709.137 1086.47 C 693.782 1085.7 678.177 1072.36 668.631 1060.38 C 637.21 1020.94 606.855 968.012 611.115 916.017 C 612.293 901.64 618.292 884.871 629.653 876.174 C 638.438 869.449 646.835 864.914 658.105 866.331 C 675.416 882.772 692.215 899.744 708.478 917.222 C 709.419 921.809 713.393 942.791 712.111 946.465 L 711.432 946.446 C 702.297 928.633 672.488 906.514 653.03 901.301 C 649.965 900.48 647.898 899.642 645.147 901.13 C 645.923 904.045 656.456 907.499 660.056 908.85 C 682.276 917.192 693.698 930.487 707.508 949.039 C 703.715 949.691 700.113 950.212 696.692 952.05 C 690.625 955.37 686.131 960.971 684.205 967.613 C 678.95 985.972 699.546 1014.82 710.995 1007.39 C 709.452 1004.42 706.772 1004.09 703.62 1002.35 C 688.014 993.831 679.129 960.673 701.73 955.462 C 709.971 953.562 714.922 957.602 716.274 965.203 C 718.703 978.859 720.176 993.962 721.832 1007.62 C 724.911 1032.85 728.285 1058.04 731.954 1083.18 z" fill="rgb(255,90,31)" transform="translate(0,0)"></path>
<path d="M 1342.04 810.33 C 1343.49 810.002 1344.63 809.723 1346.08 809.325 C 1352.99 819.086 1361.62 828.249 1366.13 839.518 C 1371.48 837.624 1372.97 836.728 1378.52 837.151 C 1377.54 841.873 1369.75 843.161 1365.29 844.599 C 1374.69 869.998 1373.82 892.006 1368.14 918.476 C 1361.92 947.456 1341.34 1002.66 1316.89 1021.18 C 1315.46 1010.76 1315.05 993.759 1314.11 982.404 L 1307.17 904.302 L 1307.02 898.147 C 1306.38 889.948 1305.5 873.223 1304.35 865.919 C 1304.57 865.856 1305.62 865.64 1305.73 865.523 C 1320.62 850.261 1335.22 835.27 1340.92 813.995 C 1341.3 812.578 1340.95 813.693 1342.04 810.33 z" fill="rgb(255,90,31)" transform="translate(0,0)"></path>
<path d="M 1342.04 810.33 C 1343.49 810.002 1344.63 809.723 1346.08 809.325 C 1352.99 819.086 1361.62 828.249 1366.13 839.518 C 1344.54 845.675 1324.16 870.324 1312.53 888.997 C 1310.44 892.344 1309.46 894.779 1307.02 898.147 C 1306.38 889.948 1305.5 873.223 1304.35 865.919 C 1304.57 865.856 1305.62 865.64 1305.73 865.523 C 1320.62 850.261 1335.22 835.27 1340.92 813.995 C 1341.3 812.578 1340.95 813.693 1342.04 810.33 z" fill="rgb(255,90,31)" transform="translate(0,0)"></path>
<path d="M 1366.13 839.518 C 1371.48 837.624 1372.97 836.728 1378.52 837.151 C 1377.54 841.873 1369.75 843.161 1365.29 844.599 C 1342.63 853.894 1332.38 868.596 1317.44 887.695 C 1335.56 888.137 1345.09 896.11 1344.19 916.138 C 1343.6 929.097 1334.41 947.961 1319.01 947.49 L 1317.88 946.49 C 1324.27 941.771 1328.27 941.675 1333.82 934.489 C 1343.2 922.355 1343 895.695 1324.99 891.757 C 1318.71 890.385 1313.3 894.751 1309.97 899.935 L 1307.17 904.302 L 1307.02 898.147 C 1309.46 894.779 1310.44 892.344 1312.53 888.997 C 1324.16 870.324 1344.54 845.675 1366.13 839.518 z" fill="rgb(43,16,22)" transform="translate(0,0)"></path>
<path d="M 1350.13 808.378 C 1364.11 806.863 1373.75 806.416 1385.97 815.872 C 1398.67 825.703 1405.79 848.154 1406.49 864.266 C 1408.6 913.031 1386.22 974.608 1355.81 1012.61 C 1346.56 1024.18 1334.53 1030.78 1320.74 1034.43 L 1316.76 1035.91 C 1316.99 1031.52 1316.86 1025.72 1316.89 1021.18 C 1341.34 1002.66 1361.92 947.456 1368.14 918.476 C 1373.82 892.006 1374.69 869.998 1365.29 844.599 C 1369.75 843.161 1377.54 841.873 1378.52 837.151 C 1372.97 836.728 1371.48 837.624 1366.13 839.518 C 1361.62 828.249 1352.99 819.086 1346.08 809.325 L 1350.13 808.378 z" fill="rgb(245,237,230)" transform="translate(0,0)"></path>
<path d="M 1346.08 809.325 L 1350.13 808.378 C 1353.81 814.053 1369.2 807.838 1381.44 833.949 C 1406.04 887.657 1368.44 970.532 1337.97 1016.6 C 1334.77 1021.44 1325.22 1029.23 1320.74 1034.43 L 1316.76 1035.91 C 1316.99 1031.52 1316.86 1025.72 1316.89 1021.18 C 1341.34 1002.66 1361.92 947.456 1368.14 918.476 C 1373.82 892.006 1374.69 869.998 1365.29 844.599 C 1369.75 843.161 1377.54 841.873 1378.52 837.151 C 1372.97 836.728 1371.48 837.624 1366.13 839.518 C 1361.62 828.249 1352.99 819.086 1346.08 809.325 z" fill="rgb(255,140,66)" transform="translate(0,0)"></path>
<path d="M 1285.1 401.9 C 1306.73 405.529 1324.51 413.267 1337.75 431.624 C 1348.33 446.135 1352.65 464.283 1349.74 482.004 C 1348.94 486.891 1347.42 491.793 1345.55 496.373 C 1376.44 518.14 1386.97 552.52 1368.51 586.569 C 1396.66 620.195 1383.32 658.988 1352.19 684.74 C 1355.4 689.408 1358.15 693.603 1360.89 698.55 C 1375.9 725.601 1363.97 766.954 1334.39 778.884 C 1339.46 765.394 1353.03 759.059 1355.34 738.111 C 1357.98 714.237 1355.02 705.395 1342.02 686.005 C 1376.33 660.654 1382.2 623.163 1358.73 588.015 C 1373.75 551.867 1367.85 521.41 1336.16 497.124 C 1348.7 450.9 1328.99 418.793 1284.23 403.658 L 1285.1 401.9 z" fill="rgb(245,237,230)" transform="translate(0,0)"></path>
<path d="M 1208.13 325.42 C 1210.52 325.846 1212.91 326.152 1215.31 326.522 C 1217.47 327.029 1219.83 327.647 1221.98 328.221 C 1241.67 333.461 1258.32 346.578 1268.03 364.486 C 1272.24 372.124 1276.63 384.186 1277.09 392.875 C 1276.6 400.662 1279.02 400.359 1272.41 401.898 C 1271.67 401.734 1270.93 401.577 1270.18 401.427 C 1269.39 401.275 1266.54 400.917 1266.48 399.671 C 1264.87 366.401 1246.08 340.264 1213.99 329.089 C 1212.3 328.644 1210.62 328.211 1208.93 327.792 L 1208.13 325.42 z" fill="rgb(245,237,230)" transform="translate(0,0)"></path>
<path d="M 1277.09 392.875 C 1279.01 402.403 1275.88 399.642 1285.1 401.9 L 1284.23 403.658 C 1279.95 402.781 1276.77 401.973 1272.41 401.898 C 1279.02 400.359 1276.6 400.662 1277.09 392.875 z" fill="rgb(196,183,185)" transform="translate(0,0)"></path>
<path d="M 1113.64 293.423 C 1117.55 292.802 1118.16 292.929 1121.88 293.748 L 1121.12 295.767 C 1119.07 295.223 1117.1 294.68 1115.12 293.944 L 1113.64 293.423 z" fill="rgb(150,120,133)" transform="translate(0,0)"></path>
<metadata><recraft-signature>{"signed_by": "recraft", "signature_b64": "GlOhexTOFni+KHWe8b7Hfxj/p/FwZW3ZgRl62lZiMDSxveingbxP8DCPFozlZurmYyMXlyEBt4i8+aeZKrfjBw==", "signing_algo": "Ed25519", "generation_timestamp": 1783313384, "identifier": "36fc36be-da48-4f3c-bed3-0e26a4399a06"}</recraft-signature></metadata></svg>