<svg xmlns="http://www.w3.org/2000/svg" height="1024" preserveAspectRatio="none" style="display: block;" version="1.1" viewBox="0 0 2048 2048" width="1024">
<path d="M 0 0 L 2048 0 L 2048 2048 L 1961.43 2048 L 1524.94 2048 L 1497.94 2048 L 1106.46 2048 L 1102.93 2048 L 1030.9 2048 L 1025.95 2048 L 929.114 2048 L 915.103 2048 L 582.651 2048 L 566.205 2048 L 408.614 2048 L 0 2048 L 0 0 z" fill="rgb(43,30,46)" transform="translate(0,0)"></path>
<path d="M 1376.51 1532.71 C 1439.85 1500.04 1503.92 1472.02 1575.23 1463.25 C 1592.45 1461.14 1610.64 1456.36 1627.5 1463.05 C 1680.36 1484.02 1727.99 1522.1 1766.54 1563.49 C 1772.61 1570.02 1783.06 1579.76 1786.86 1586.72 L 1786.74 1588.41 L 1784.13 1589.31 C 1777.63 1591.26 1770.38 1593.39 1764.22 1596.15 C 1627.56 1657.22 1547.25 1830.25 1528.48 1969.26 L 1527.24 1971.27 C 1525.4 1968.31 1521.16 1952.66 1519.96 1948.58 C 1513.7 1927.92 1507.82 1907.15 1502.33 1886.28 C 1498.45 1871.36 1495 1855.13 1489.97 1840.55 C 1489.05 1837.87 1484.89 1835.06 1482.22 1834.34 C 1476.14 1832.81 1471.11 1837.34 1466.98 1841.02 C 1466.54 1911.2 1476.98 1981.02 1497.94 2048 L 1106.46 2048 C 1108.99 2039.14 1117.89 2019.12 1121.43 2007.35 C 1138.64 1950.22 1124.56 1917.09 1108.95 1863.47 C 1089.36 1796.15 1106.88 1730.53 1140.89 1671 C 1221.53 1712.6 1317.39 1668.32 1356.88 1592.14 C 1366.38 1573.82 1370.1 1559.76 1374.74 1539.98 C 1375.07 1538.57 1376.1 1533.8 1376.51 1532.71 z" fill="rgb(139,92,246)" transform="translate(0,0)"></path>
<path d="M 408.614 2048 C 411.263 2037.11 413.316 2023.84 415.569 2012.68 C 419.384 1994.48 423.403 1976.33 427.625 1958.22 C 449.465 1864.71 480.443 1765.84 523.873 1680.11 C 552.285 1624.02 594.844 1570.34 648.238 1537.03 C 656.818 1531.68 671.925 1522.01 681.232 1519.08 C 695.408 1530.55 712.173 1537.82 729.599 1542.75 C 744.106 1596.25 772.592 1632.04 826.236 1642.31 C 830.395 1643.11 842.2 1653.72 846.854 1655.57 C 865.488 1666.54 904.559 1670.18 926.083 1667.94 L 927.115 1667.84 C 889.635 1723.08 877.429 1791.35 886.707 1857 C 892.112 1895.25 900.4 1922.16 891.213 1962.12 C 883.659 1994.99 872.431 2007.06 857.613 2033.41 C 870.516 2035.46 901.003 2044.12 915.103 2048 L 582.651 2048 L 566.205 2048 L 408.614 2048 z" fill="rgb(139,92,246)" transform="translate(0,0)"></path>
<path d="M 588.021 1967.46 C 591.917 1930.98 596.113 1894.54 600.611 1858.13 C 601.792 1848.43 603.843 1822.59 605.751 1815.12 L 607.212 1814.12 L 608.732 1814.8 C 610.382 1819.61 600.092 1894.39 598.96 1904.04 C 593.345 1951.87 588.668 2000.26 582.651 2048 L 566.205 2048 C 545.307 1985.89 529.602 1922.94 524.493 1857.55 C 523.838 1849.17 521.46 1829.49 522.619 1821.92 C 525.424 1820.16 528.629 1819.64 531.599 1821.33 C 546.198 1854.08 558.106 1892.26 571.654 1925.73 C 576.803 1938.46 582.073 1955.51 588.021 1967.46 z" fill="rgb(43,30,46)" transform="translate(0,0)"></path>
<path d="M 1787.2 1591.92 C 1789.94 1591.94 1789.92 1591.37 1791.95 1593.77 C 1805.16 1609.38 1818.92 1628.45 1829.8 1645.54 C 1888.99 1738.46 1924.06 1845.29 1944.83 1952.93 C 1950.66 1983.13 1957.89 2017.45 1961.43 2048 L 1524.94 2048 C 1525 2026.72 1528.9 1993.81 1531.49 1972.9 C 1536.02 1918.47 1565.67 1830.18 1590.45 1781.36 C 1624.95 1713.41 1678.64 1644.99 1746.64 1607.89 C 1759.51 1600.87 1773.39 1596.49 1787.2 1591.92 z" fill="rgb(139,92,246)" transform="translate(0,0)"></path>
<path d="M 983.766 1671.11 C 1009.51 1671.57 1040.9 1666.63 1067.13 1665.03 C 1040.04 1731.44 1030.34 1788.69 1042.37 1860.46 C 1049.38 1902.26 1057.39 1931.33 1050.23 1975 C 1045.49 2003.86 1037.21 2021.59 1025.95 2048 L 929.114 2048 C 956.018 2007.84 977.047 1970.02 965.974 1919.62 C 962.068 1901.84 955.796 1884.87 952.643 1866.94 C 939.931 1799.99 949.503 1730.41 983.766 1671.11 z" fill="rgb(139,92,246)" transform="translate(0,0)"></path>
<path d="M 1039.43 2025.78 C 1043.6 2026.86 1047.8 2027.85 1052.01 2028.75 L 1058.98 2030.19 L 1063.49 2031.18 C 1077.44 2034.21 1091.95 2037.53 1105.83 2040.86 C 1104.92 2043.28 1103.88 2045.57 1102.93 2048 L 1030.9 2048 C 1033.28 2040.4 1036.31 2033.13 1039.43 2025.78 z" fill="rgb(139,92,246)" transform="translate(0,0)"></path>
<path d="M 975.049 561.183 C 1010 583.199 1042.9 586.511 1078.72 563.405 C 1081.74 613.136 1115.37 639.229 1163.86 638.007 C 1153.93 679.664 1166.92 720.29 1210.09 734.95 C 1203.62 752.895 1200.36 767.897 1209.14 786.409 C 1213.06 794.637 1218.87 801.823 1226.1 807.381 C 1237.64 770.837 1256.37 744.699 1289.2 725.476 C 1328.71 702.336 1384.1 713.226 1403.8 756.034 C 1437 828.199 1392.82 935.718 1322.48 969.957 C 1290.97 985.297 1266 984.44 1233.3 977.824 C 1211.76 1050.37 1175.16 1116.74 1118.79 1168.08 C 1061.68 1220.08 974.398 1257.17 896.868 1238.12 C 862.822 1270.08 832.507 1315.24 828.61 1362.92 C 807.949 1377.63 804.06 1382.73 788.278 1402.19 C 787.1 1346.83 808.816 1283.53 847.012 1242.99 C 851.673 1238.04 858.123 1232.22 862.144 1226.95 L 863.212 1225.52 L 861.806 1225.09 C 849.874 1221.82 832.654 1212.35 821.476 1206.32 C 806.145 1197.15 795.253 1189.98 781.458 1178.38 C 739.984 1142.79 706.591 1098.75 683.513 1049.2 C 628.693 1036.26 588.977 1002.44 573.931 947.346 C 560.513 898.213 574.902 851.447 611.673 817.074 C 571.14 800.417 545.868 771.14 544.032 725.736 C 543.59 714.831 545.056 704.569 546.36 693.79 C 565.542 702.128 582.63 707.199 603.693 704.874 L 608.28 702.852 L 611.043 702.791 C 628.148 701.852 647.175 690.135 659.838 679.238 C 669.078 668.67 673.252 662.885 680.035 650.622 C 701.272 667.646 723.684 677.029 751.484 673.899 C 775.275 671.122 796.976 658.971 811.778 640.14 C 820.09 629.433 824.111 619.384 827.876 606.525 C 850.744 622.695 874.839 631.137 903.169 626.412 C 926.639 622.279 947.505 608.991 961.177 589.471 C 967.912 579.988 971.325 572.038 975.049 561.183 z" fill="rgb(255,90,31)" transform="translate(0,0)"></path>
<path d="M 659.838 679.238 C 665.07 705.526 668.881 732.81 673.851 759.163 C 676.1 771.088 678.574 789.831 682.534 800.988 C 671.259 808.162 649.094 822.366 637.677 827.851 L 634.169 830.012 L 634.705 831.026 L 640.315 831.875 C 650.492 831.994 662.391 832.322 672.451 831.69 C 669.423 848.162 667.935 862.782 670.04 879.4 C 670.486 882.926 672.207 891.006 671.072 893.852 L 669.785 894.419 C 663.057 895.342 652.964 896.062 647.512 899.893 C 650.599 902.439 661.643 899.939 665.661 899.128 C 678.492 921.389 696.425 938.522 720.6 948.012 C 727.817 1000.61 758.732 1067.97 782.09 1115.26 C 797.103 1145.66 825.258 1182.8 847.991 1208.36 C 850.926 1211.66 861.207 1221.25 861.806 1225.09 C 849.874 1221.82 832.654 1212.35 821.476 1206.32 C 806.145 1197.15 795.253 1189.98 781.458 1178.38 C 739.984 1142.79 706.591 1098.75 683.513 1049.2 C 628.693 1036.26 588.977 1002.44 573.931 947.346 C 560.513 898.213 574.902 851.447 611.673 817.074 C 571.14 800.417 545.868 771.14 544.032 725.736 C 543.59 714.831 545.056 704.569 546.36 693.79 C 565.542 702.128 582.63 707.199 603.693 704.874 L 608.28 702.852 L 611.043 702.791 C 628.148 701.852 647.175 690.135 659.838 679.238 z" fill="rgb(245,237,230)" transform="translate(0,0)"></path>
<path d="M 611.673 817.074 L 622.145 808.467 C 632.423 871.207 642.329 929.941 661.609 991.249 C 668.413 1012.88 676.479 1029.12 683.513 1049.2 C 628.693 1036.26 588.977 1002.44 573.931 947.346 C 560.513 898.213 574.902 851.447 611.673 817.074 z" fill="rgb(255,90,31)" transform="translate(0,0)"></path>
<path d="M 546.36 693.79 C 565.542 702.128 582.63 707.199 603.693 704.874 C 608.146 728.496 612.336 752.166 616.264 775.881 C 617.319 781.996 620.742 804.041 622.145 808.467 L 611.673 817.074 C 571.14 800.417 545.868 771.14 544.032 725.736 C 543.59 714.831 545.056 704.569 546.36 693.79 z" fill="rgb(154,50,43)" transform="translate(0,0)"></path>
<path d="M 793.374 702.249 C 825.684 718.34 833.286 749.802 811.912 779.05 C 898.668 829.051 861.533 940.817 769.982 954.569 C 752.952 956.495 736.707 952.94 720.6 948.012 C 696.425 938.522 678.492 921.389 665.661 899.128 C 661.643 899.939 650.599 902.439 647.512 899.893 C 652.964 896.062 663.057 895.342 669.785 894.419 L 671.072 893.852 C 672.207 891.006 670.486 882.926 670.04 879.4 C 667.935 862.782 669.423 848.162 672.451 831.69 C 662.391 832.322 650.492 831.994 640.315 831.875 L 634.705 831.026 L 634.169 830.012 L 637.677 827.851 C 649.094 822.366 671.259 808.162 682.534 800.988 L 684.247 799.774 C 730.365 767.912 758.514 747.642 793.374 702.249 z" fill="rgb(43,30,46)" transform="translate(0,0)"></path>
<path d="M 672.451 831.69 C 681.256 830.073 694.874 830.094 706.119 828.01 C 741.448 821.463 783.923 807.708 810.173 782.383 C 840.057 801.879 855.088 821.197 857.127 857.871 C 848.565 860.487 841.634 861.837 832.907 863.569 C 800.329 869.656 768.862 874.778 736.246 881.419 C 719.9 884.748 685.387 892.54 671.072 893.852 C 672.207 891.006 670.486 882.926 670.04 879.4 C 667.935 862.782 669.423 848.162 672.451 831.69 z" fill="rgb(255,90,31)" transform="translate(0,0)"></path>
<path d="M 834.538 866.179 C 842.62 864.851 849.234 863.78 857.132 861.73 C 852.763 891.097 842.832 912.821 818.231 931.062 C 796.664 947.265 769.442 954.014 742.803 949.762 C 717.104 945.633 677.305 924.398 670.988 897.148 C 680.185 897.936 743.766 883.876 757.929 881.394 C 759.173 884.29 761.147 888.553 762.823 891.164 C 768.573 900.015 777.773 906.049 788.183 907.798 C 797.4 909.395 808.336 907.508 815.732 901.784 C 830.448 890.394 831.651 882.475 834.538 866.179 z" fill="rgb(245,237,230)" transform="translate(0,0)"></path>
<path d="M 905.757 673.995 C 931.27 686.159 959.329 694.714 986.439 702.408 C 1027.17 713.22 1088.45 728.199 1130.64 728.997 C 1135.24 729.393 1140 729.735 1144.57 730.285 C 1085.48 767.009 996.615 779.43 929.049 763.582 L 927.853 763.296 C 912.531 791.595 908.683 814.313 917.513 845.512 C 949.471 839.52 987.257 833.465 1018.61 826.291 C 1041.23 822.882 1067.79 816.495 1091.26 812.424 C 1105.96 809.624 1126.65 804.969 1141.87 803.28 C 1143.1 803.143 1143.15 803.756 1144.02 804.97 C 1142.18 807.519 1130.89 808.791 1127.03 809.507 C 1123.93 824.765 1118.31 840.403 1109.97 853.58 C 1092.79 880.368 1065.71 899.275 1034.65 906.178 C 982.136 917.507 922.367 890.069 910.866 834.558 C 905.673 809.798 910.65 783.989 924.679 762.936 C 884.493 745.09 872.636 706.397 905.757 673.995 z" fill="rgb(43,30,46)" transform="translate(0,0)"></path>
<path d="M 1101.26 814.027 C 1108.32 812.891 1116.34 811.422 1123.37 810.539 C 1109.13 872.853 1051.56 916.744 986.149 902.677 C 962.791 897.653 937.53 881.057 924.995 860.274 C 922.799 856.697 920.899 852.947 919.314 849.06 L 986.796 835.99 C 991.765 835.032 1013.28 831.23 1017.22 829.82 C 1027.42 852.928 1050.11 865.66 1073.59 852.695 C 1087.61 844.952 1090.46 830.671 1093.71 816.757 C 1095.96 814.43 1097.4 814.86 1101.26 814.027 z" fill="rgb(245,237,230)" transform="translate(0,0)"></path>
<path d="M 1299.27 966.735 C 1288.34 968.168 1277.14 966.645 1271.47 956.097 C 1254.08 923.688 1298.61 899.291 1315.72 934.919 C 1318.27 952.162 1314.88 958.229 1299.27 966.735 z" fill="rgb(43,30,46)" transform="translate(0,0)"></path>
<path d="M 1295.08 963.728 C 1284.07 965.283 1273.71 958.101 1271.31 947.241 C 1268.9 936.381 1275.26 925.499 1285.9 922.258 C 1296.54 919.018 1307.88 924.511 1311.94 934.868 C 1314.32 940.934 1313.79 947.754 1310.5 953.379 C 1307.21 959.004 1301.53 962.817 1295.08 963.728 z" fill="rgb(78,205,196)" transform="translate(0,0)"></path>
<path d="M 851.874 1022.7 C 830.561 1012.51 818.174 994.331 820.114 970.001 C 821.086 957.817 829.409 937.59 839.215 930 L 843.673 926.559 C 837.774 940.82 827.676 949.073 825.13 965.509 C 821.164 991.117 830.729 1006.21 851.715 1019.14 C 854.384 1012.63 853.804 1007.89 861.117 1004.28 C 864.975 1002.37 870.687 1002.18 874.578 1003.69 C 878.175 1005.08 881.053 1007.86 882.551 1011.41 C 887.943 1024.12 872.991 1036.71 860.998 1029.99 C 857.378 1027.95 855.021 1025.24 851.874 1022.7 z" fill="rgb(43,30,46)" transform="translate(0,0)"></path>
<path d="M 954.248 1001.6 C 982.752 985.08 983.093 946.936 954.294 930.476 C 946.666 921.619 961.059 929.567 964.841 933.552 C 973.84 943.035 979.782 953.178 979.416 967.001 C 978.899 986.521 969.335 995.079 955.271 1005.88 C 953.187 1013.28 947.465 1022.3 939.003 1021.31 C 905.767 1017.42 932.316 970.072 954.248 1001.6 z" fill="rgb(43,30,46)" transform="translate(0,0)"></path>
<path d="M 1368.85 774.425 C 1374.58 774.083 1376.2 773.975 1381.83 774.872 L 1382.19 775.6 C 1375.31 777.657 1364.11 778.291 1356.55 779.354 C 1334.23 782.319 1313.24 791.628 1296.06 806.174 C 1274.26 824.595 1259.08 853.331 1256.68 881.882 C 1256.44 885.34 1256.63 887.9 1254.91 890.866 L 1253.62 890.183 C 1251.76 874.977 1256.6 855.446 1263.7 841.908 C 1285.79 799.804 1321.71 777.587 1368.85 774.425 z" fill="rgb(43,30,46)" transform="translate(0,0)"></path>
<path d="M 916.188 1086.38 C 944.386 1082.53 982.271 1095.1 1005.34 1111.42 L 1005.19 1113.28 L 1005.93 1111.89 L 1005.82 1113.49 L 1006.48 1113.68 L 1007.06 1112.91 L 1007.08 1113.79 C 1003.04 1113.52 975.83 1099.96 967.499 1096.93 C 941.102 1087.62 917.697 1086.13 890.866 1095.3 C 884.603 1097.44 875.904 1102.73 870.446 1103.45 L 869.856 1101.94 C 876.135 1092.87 905.424 1087.63 916.188 1086.38 z" fill="rgb(43,30,46)" transform="translate(0,0)"></path>
<path d="M 912.598 944.252 C 918.315 943.071 920.895 947.719 912.998 948.886 C 898.203 951.074 883.04 953.505 868.232 955.646 C 866.92 955.865 862.651 956.921 862.269 954.565 C 862.211 954.213 862.319 953.854 862.562 953.593 C 863.636 952.446 907.837 945.079 912.598 944.252 z" fill="rgb(43,30,46)" transform="translate(0,0)"></path>
<path d="M 1237.75 1030.99 C 1237.72 1025.99 1236.89 1025.64 1239.07 1022.11 C 1245.55 1018.76 1251.95 1021.33 1259.04 1021.38 C 1412.56 1022.52 1582.26 1139.1 1527.24 1310.86 C 1525.29 1316.95 1519 1329.12 1518.77 1334.39 L 1519.6 1336 C 1523.58 1335 1526.78 1330.35 1529.29 1327.19 C 1547.56 1304.18 1551.42 1278.09 1553.11 1249.44 C 1625.97 1288.43 1709.1 1359.35 1657.73 1447.51 C 1654.09 1453.77 1650.46 1459.98 1646.37 1465.96 C 1568.61 1438.54 1493.79 1448.7 1417.55 1476.34 C 1411.23 1478.64 1380.91 1491.21 1378.23 1491 L 1377.5 1489.31 C 1376.57 1480.4 1374.88 1469.65 1372.67 1461.07 C 1377.21 1456.32 1382.68 1448.41 1386.11 1442.82 C 1418.11 1390.68 1424.66 1333.2 1411.08 1274.43 L 1407.87 1264.24 C 1413.41 1254.99 1417.03 1242.26 1418.41 1231.58 C 1429.03 1148.91 1362.35 1077.02 1283.87 1062.61 C 1269.36 1059.95 1255.74 1060.45 1241.62 1058.62 L 1240.46 1056.09 C 1239.4 1047.74 1238.5 1039.37 1237.75 1030.99 z" fill="rgb(139,92,246)" transform="translate(0,0)"></path>
<path d="M 1372.06 1534.44 C 1366.43 1563.79 1358.01 1587.85 1340.3 1612.42 C 1313.95 1649.24 1274.02 1674.06 1229.34 1681.38 C 1200.2 1685.89 1188.7 1683.85 1164.78 1665.97 C 1127.72 1638.28 1104.72 1596.3 1098.23 1550.79 C 1091.28 1502.09 1103.97 1452.64 1133.5 1413.3 C 1160.66 1377.71 1201.89 1352.93 1246.48 1345.82 C 1268.19 1342.35 1298.24 1360.35 1314.57 1373.71 C 1353.62 1405.67 1368.6 1444.18 1374.3 1492.45 C 1374.35 1506.48 1373.6 1520.5 1372.06 1534.44 z" fill="rgb(255,90,31)" transform="translate(0,0)"></path>
<path d="M 1250.6 1418.35 C 1368.79 1408.87 1396.85 1598.47 1267.53 1622.44 C 1245.34 1625.27 1221.36 1617.44 1203.92 1603.98 C 1134.21 1550.21 1160.63 1430.08 1250.6 1418.35 z" fill="rgb(43,30,46)" transform="translate(0,0)"></path>
<path d="M 1251.34 1422.37 C 1300.81 1416.43 1341.22 1458.09 1348.38 1504.74 C 1352.56 1531.58 1345.83 1558.99 1329.68 1580.83 C 1314.41 1601.53 1294.35 1614.14 1269.01 1618.03 C 1246.56 1620.81 1223.91 1614.6 1206.02 1600.75 C 1139.55 1550 1164.61 1432.92 1251.34 1422.37 z" fill="rgb(255,90,31)" transform="translate(0,0)"></path>
<path d="M 1234.69 1030.9 L 1235.56 1041.49 L 1237.3 1061.14 L 1250.5 1175.03 C 1254.85 1213.67 1258.53 1251.74 1263.43 1290.51 C 1265.77 1308.29 1267.48 1326.15 1268.55 1344.06 C 1222.09 1332.63 1179.68 1334.48 1137.48 1359.79 C 1095.4 1384.95 1065.11 1425.86 1053.31 1473.45 C 1044.66 1509.11 1047.16 1541.67 1058.07 1576.3 C 1049.13 1587.46 1040.97 1597.71 1032.64 1609.32 C 1025.08 1600.36 967.548 1534.42 962.676 1533.07 C 960.293 1528.48 960.199 1515.67 959.756 1509.91 C 958.688 1496.25 957.538 1482.6 956.307 1468.96 C 952.129 1424.05 947.649 1379.17 942.868 1334.32 C 997.013 1334.03 1031.78 1322.16 1076.5 1290.05 C 1140.31 1244.24 1185.79 1177.13 1212.92 1104.07 C 1219.36 1086.72 1228.33 1059.15 1231.26 1041.09 C 1232.32 1036.49 1232.43 1034.92 1234.69 1030.9 z" fill="rgb(255,90,31)" transform="translate(0,0)"></path>
<path d="M 1090.15 1632.87 C 1103.25 1648.58 1119.03 1660.26 1137.36 1669.1 C 1102.85 1728.13 1085.56 1798.83 1105.8 1865.08 C 1114.41 1893.26 1123.61 1917.74 1125.41 1947.49 C 1127.04 1974.22 1123.02 1993.54 1114.39 2018.75 C 1112.68 2023.75 1109.89 2032.99 1106.41 2036.94 L 1103.78 2036.82 C 1082.82 2032.05 1061.82 2027.42 1040.79 2022.92 C 1054.43 1983.57 1061.07 1939.15 1052.52 1898.33 C 1032.84 1804.32 1034.83 1717.24 1090.15 1632.87 z" fill="rgb(245,237,230)" transform="translate(0,0)"></path>
<path d="M 1245.67 1106.66 C 1260.86 1111.24 1272.83 1115.81 1286.8 1123.54 C 1345.21 1156.12 1388.47 1210.36 1407.25 1274.55 C 1421.62 1322.8 1413.85 1385.1 1389.78 1428.99 C 1384.29 1439.01 1378.42 1448.04 1372.05 1457.46 C 1360.47 1417.31 1342.7 1390.52 1310.35 1365.26 C 1309.42 1364.53 1310.09 1363.61 1310.44 1362.95 C 1325.96 1339.27 1332.41 1328.28 1334.18 1299.45 C 1335.76 1289.32 1333.57 1275.79 1331.07 1265.91 C 1319.85 1221.63 1292.23 1189.12 1253.69 1165.83 C 1250.7 1146.24 1248.74 1126.48 1245.67 1106.66 z" fill="rgb(255,90,31)" transform="translate(0,0)"></path>
<path d="M 981.66 1624.11 C 1015.23 1624.25 987.001 1657.15 979.653 1670.76 C 971.622 1685.33 964.811 1700.54 959.292 1716.24 C 942.354 1766.44 939.162 1820.26 950.049 1872.1 C 955.767 1900.15 966.097 1921.68 964.961 1951.31 C 963.782 1982.08 953.292 2004.04 937.171 2029.22 L 908.571 2022.83 C 897.244 2020.16 885.062 2017.26 874.317 2012.86 C 903.971 1956.09 901.962 1924.5 890.923 1862.56 C 880.303 1802.97 890.83 1735.2 921.379 1682.96 C 934.383 1660.72 955.011 1631.16 981.66 1624.11 z" fill="rgb(245,237,230)" transform="translate(0,0)"></path>
<path d="M 781.458 1178.38 C 795.253 1189.98 806.145 1197.15 821.476 1206.32 C 748.934 1247.37 715.115 1345.56 756.463 1420.05 C 757.523 1421.94 758.684 1423.78 759.941 1425.54 L 759.493 1427.55 C 732.871 1462.85 723.676 1495.61 729.345 1539.78 C 712.158 1534.53 696.26 1527.41 682.077 1516.14 C 643.457 1485.44 627.432 1439.01 646.318 1392.26 C 656.731 1366.48 674.178 1349.54 696.088 1333.45 C 695.848 1344.66 695.63 1357.23 696.808 1368.26 C 697.655 1376.2 703.001 1407.35 708.902 1412.08 C 710.66 1409.78 706.913 1399.54 706.046 1396.35 C 700.747 1376.83 698.842 1356.55 700.415 1336.39 C 705.432 1273.52 733.777 1219.17 781.458 1178.38 z" fill="rgb(139,92,246)" transform="translate(0,0)"></path>
<path d="M 865.865 1354.52 C 893.123 1338.14 918.829 1350.61 943.016 1366.36 C 943.741 1373.95 944.411 1381.55 945.026 1389.15 C 935.449 1382.22 922.743 1373.56 910.135 1376.46 C 859.917 1388.04 856.332 1468.58 863.573 1508.37 C 870.464 1546.24 893.067 1605.87 938.995 1607.08 L 941.987 1607.18 C 933.638 1621.38 923.684 1638.2 910.666 1648.48 C 843.087 1625.44 809.497 1520.04 817.665 1455.84 C 822.575 1417.26 835.067 1379.92 865.865 1354.52 z" fill="rgb(255,90,31)" transform="translate(0,0)"></path>
<path d="M 1218.76 1340.42 C 1227.03 1340.13 1236.44 1341.22 1244.62 1342.24 C 1239.08 1343.86 1231.86 1345.18 1225.96 1346.73 C 1180.29 1359.07 1141.42 1389.11 1117.96 1430.19 C 1067.38 1517.54 1093.21 1629.56 1181.8 1680.64 C 1176.05 1679.55 1171.41 1678.38 1165.77 1676.89 C 1097.36 1658.42 1055.25 1593.58 1051.97 1524.89 C 1050.05 1477.16 1067.08 1430.61 1099.34 1395.38 C 1131.46 1360.63 1171.74 1342.47 1218.76 1340.42 z" fill="rgb(255,90,31)" transform="translate(0,0)"></path>
<path d="M 822.508 1633.04 C 791.4 1598.32 772.822 1554.18 769.74 1507.66 C 765.698 1453.79 785.481 1388.53 836.719 1362.62 C 843.375 1359.25 855.37 1353.73 862.663 1353.23 C 841.324 1372.57 828.308 1392.34 820.709 1420.47 C 798.897 1501.23 825.893 1615.58 908.598 1651.95 C 898.381 1659.96 890.903 1664.38 877.094 1662.26 C 855.203 1658.9 838.142 1647.88 822.508 1633.04 z" fill="rgb(255,90,31)" transform="translate(0,0)"></path>
<path d="M 742.877 216.291 L 745.48 216.463 C 739.722 221.188 734.244 224.17 728.343 229.671 C 694.281 261.424 686.518 299.898 693.721 344.03 C 685.819 340.713 679.654 338.858 671.128 337.739 C 647.947 334.608 624.482 340.951 606.035 355.334 C 586.764 370.013 574.216 391.835 571.223 415.874 C 568.321 440.92 574.967 462.977 590.53 482.585 C 576.213 484.557 567.705 486.568 554.416 491.955 L 546.378 495.035 C 532.976 480.818 526.128 451.399 526.088 432.285 C 526.006 391.99 546.592 355.821 581.945 336.065 C 604.265 323.592 623.615 321.816 648.865 322.092 C 651.607 268.741 691.051 226.406 742.877 216.291 z" fill="rgb(154,50,43)" transform="translate(0,0)"></path>
<path d="M 1425.33 385.962 C 1426.27 385.995 1429.82 386.183 1430.4 386.429 C 1444.49 392.426 1470.1 433.752 1476.21 444.761 C 1517.27 517.135 1527.26 603.05 1503.92 682.917 C 1499.61 697.598 1491.58 723.56 1482.71 736.3 C 1481.53 738.004 1478.03 739.952 1476.12 740.991 C 1460.69 741.28 1453.49 731.501 1459.54 717.258 C 1498.79 624.787 1495.32 521.77 1436.3 438.001 C 1425.9 423.246 1396.8 397.526 1425.33 385.962 z" fill="rgb(78,205,196)" transform="translate(0,0)"></path>
<path d="M 608.28 702.852 C 602.288 701.623 592 702.421 585.383 701.708 C 566.854 699.711 545.502 691.226 530.962 679.75 C 509.162 662.582 495.238 637.322 492.361 609.723 C 485.479 544.864 527.35 492.024 592.522 485.729 C 584.779 492.371 576.97 499.954 570.801 507.871 C 532.178 557.442 537.98 629.891 585.151 671.873 C 598.588 683.831 610.145 690.022 625.71 698.302 C 622.032 699.167 613.51 700.645 611.043 702.791 L 608.28 702.852 z" fill="rgb(154,50,43)" transform="translate(0,0)"></path>
<path d="M 511.017 817.082 C 538.217 815.372 528.761 842.053 525.661 858.654 C 509.098 946.65 537.097 1033.26 603.262 1093.5 C 615.456 1104.6 635.758 1122.63 609.896 1134.08 C 596.051 1134.3 587.93 1122.46 578.945 1113.84 C 502.462 1040.4 472.119 936.452 499.495 833.389 C 501.647 825.288 503.624 821.043 511.017 817.082 z" fill="rgb(205,136,232)" transform="translate(0,0)"></path>
<path d="M 762.489 1429.38 C 770.281 1420.81 778.62 1412.76 787.453 1405.27 C 752.382 1472.75 761.485 1554.9 804.671 1617.54 C 809.422 1624.43 816.143 1630.4 821.035 1636.96 C 816.503 1636.87 808.317 1634.18 803.918 1632.51 C 753.187 1613.18 725.332 1551.29 731.642 1499.5 C 734.957 1472.28 745.912 1450.66 762.489 1429.38 z" fill="rgb(255,90,31)" transform="translate(0,0)"></path>
<path d="M 961.472 1534.9 C 970.121 1544.19 978.047 1554.09 986.608 1563.34 C 1001.76 1579.72 1016.41 1595.18 1030.52 1612.5 C 1019.76 1630.69 1010.14 1645.39 1006.42 1666.5 C 999.313 1667.04 992.21 1667.65 985.114 1668.33 C 988.804 1661.88 1004.99 1638.88 1001.39 1632.12 C 983.422 1598.31 940.281 1648.21 928.745 1665.3 C 918.176 1665 907.614 1664.48 897.066 1663.75 C 920.101 1649.86 933.631 1631.78 944.802 1607.53 C 953.077 1591.77 956.806 1572.78 958.783 1555.24 C 959.477 1549.09 959.572 1540.44 961.472 1534.9 z" fill="rgb(139,92,246)" transform="translate(0,0)"></path>
<path d="M 1266.61 1288.01 C 1273.17 1283.48 1323.03 1288.93 1332.7 1290.38 C 1329.37 1304.69 1331.87 1311.95 1325.45 1329.67 C 1320.79 1342.53 1314.27 1349.72 1310.44 1358.51 C 1306.25 1363.81 1307.29 1363.55 1301.08 1359.38 C 1292.27 1353.46 1282.8 1349.4 1273.05 1345.38 C 1270.86 1326.45 1269.74 1306.72 1266.61 1288.01 z" fill="rgb(139,92,246)" transform="translate(0,0)"></path>
<path d="M 1058.73 1580.74 C 1061.2 1583.23 1067.45 1599.37 1070.79 1605 C 1077.18 1615.76 1079.98 1619.88 1087.98 1629.73 C 1080.21 1640.37 1074.79 1650.81 1068.37 1662.21 C 1058.98 1662.94 1049.71 1663.07 1040.24 1663.8 C 1030.05 1664.41 1019.33 1665.1 1009.22 1666.29 C 1020.35 1628.48 1034.49 1610.39 1058.73 1580.74 z" fill="rgb(139,92,246)" transform="translate(0,0)"></path>
<path d="M 872.427 2015.37 C 885.687 2020.25 895.515 2023.48 909.512 2026.77 L 913.532 2027.72 C 914.945 2028.05 916.598 2028.46 918.013 2028.76 L 922.51 2029.75 C 927.013 2030.68 931.415 2031.69 935.898 2032.68 C 932.36 2037.74 929.503 2041.88 926.208 2047.11 C 923.799 2046.44 921.429 2045.69 918.983 2045.13 L 914.984 2044.22 L 910.485 2043.18 C 908.353 2042.7 906.14 2042.21 904.016 2041.69 L 900.019 2040.71 C 887.724 2037.43 875.596 2033.8 863.265 2030.73 C 866.325 2025.5 869.395 2020.7 872.427 2015.37 z" fill="rgb(139,92,246)" transform="translate(0,0)"></path>
<metadata><recraft-signature>{"signed_by": "recraft", "signature_b64": "XiVloLDf6n8xY0ZheNdxU+wyeiMy4lMQduJDE3Tbtfrsj2tl2XGzs1AubnwsOH7UwbVArszh9qztiQZkK5ldBQ==", "signing_algo": "Ed25519", "generation_timestamp": 1783346035, "identifier": "0b6871c2-d41a-4cb4-9ba4-be56df8bcf2f"}</recraft-signature></metadata></svg>