<svg xmlns="http://www.w3.org/2000/svg" height="1024" preserveAspectRatio="none" style="display: block;" version="1.1" viewBox="0 0 2048 2048" width="1024">
<path d="M 0 0 L 2048 0 L 2048 2048 L 2025.63 2048 L 1902.71 2048 L 1873.08 2048 L 1360.28 2048 L 1250.86 2048 L 1178.37 2048 L 1157.07 2048 L 1133.08 2048 L 873.728 2048 L 849.139 2048 L 825.489 2048 L 748.864 2048 L 654.775 2048 L 336.779 2048 L 231.415 2048 L 159.802 2048 L 52.1734 2048 L 0 2048 L 0 1787.82 L 0 1771.87 L 0 1662.33 L 0 1504.73 L 0 1336.71 L 0 1334.17 L 0 934.907 L 0 922.469 L 0 0 z" fill="rgb(43,30,46)" transform="translate(0,0)"></path>
<path d="M 1256.07 722.401 C 1301.03 762.593 1331.21 773.116 1391.99 761.858 C 1397.82 790.402 1405.99 818.458 1412.04 846.96 C 1413.08 851.856 1414.11 856.768 1415.51 861.577 C 1418.89 876.484 1423.92 896.191 1425.68 910.968 C 1427.16 923.308 1426.69 943.08 1426.7 955.961 L 1426.75 1024.7 C 1426.81 1090.32 1427.92 1158.71 1426.39 1224.12 C 1426.39 1241.34 1426.58 1260.79 1424.62 1277.82 C 1420.13 1316.69 1406.88 1361.92 1387.75 1395.95 C 1380.81 1407.42 1374.45 1417.11 1366.87 1428.17 C 1364.63 1431.5 1362.2 1435.3 1359.85 1438.5 C 1346.51 1458.1 1333.12 1477.56 1320.78 1497.82 C 1365.44 1536.67 1402.53 1620.81 1405.35 1679.73 C 1406.78 1709.71 1404.89 1726.57 1401.16 1755.45 C 1412.84 1769.75 1423.8 1782.58 1430.53 1800.09 C 1438.45 1815.09 1442.76 1826.05 1446.66 1842.51 C 1458.91 1924.29 1428.28 2000.19 1360.28 2048 L 1250.86 2048 L 1178.37 2048 L 1157.07 2048 L 1133.08 2048 L 873.728 2048 L 849.139 2048 L 825.489 2048 L 748.864 2048 L 654.775 2048 L 336.779 2048 L 231.415 2048 L 159.802 2048 L 52.1734 2048 L 0 2048 L 0 1787.82 L 0 1771.87 L 0 1662.33 L 0 1504.73 L 0 1336.71 L 0 1334.17 L 0 934.907 C 7.0716 941.511 13.1406 948.574 19.7338 955.606 C 48.1754 985.937 75.5668 1017.73 104.611 1047.46 C 126.071 1071.04 149.809 1097.86 172.172 1120.4 C 218.211 1073.97 270.422 1025.16 318.009 979.763 C 379.138 980.65 408.643 976.856 465.877 956.32 C 511.572 937.076 521.765 917.921 557.243 885.915 C 578.232 866.885 600.437 849.24 623.717 833.092 C 651.411 813.895 682.022 805.962 711.481 791.669 C 731.539 785.806 757.093 772.316 777.621 764.979 C 805.476 775.855 856.261 791.937 885.895 795.915 C 888.431 794.87 898.981 792.437 902.214 791.632 C 933.321 806.649 966.884 809.895 999.632 798.224 C 1033.01 786.329 1048.59 769.664 1067.29 740.989 C 1084.58 754.938 1098.42 765.374 1120.53 770.831 C 1174.65 784.191 1220.12 767.476 1254.42 724.534 C 1254.98 723.831 1255.53 723.119 1256.07 722.401 z" fill="rgb(43,30,46)" transform="translate(0,0)"></path>
<path d="M 1256.07 722.401 C 1301.03 762.593 1331.21 773.116 1391.99 761.858 C 1397.82 790.402 1405.99 818.458 1412.04 846.96 C 1413.08 851.856 1414.11 856.768 1415.51 861.577 C 1418.89 876.484 1423.92 896.191 1425.68 910.968 C 1427.16 923.308 1426.69 943.08 1426.7 955.961 L 1426.75 1024.7 C 1426.81 1090.32 1427.92 1158.71 1426.39 1224.12 C 1426.39 1241.34 1426.58 1260.79 1424.62 1277.82 C 1420.13 1316.69 1406.88 1361.92 1387.75 1395.95 C 1380.81 1407.42 1374.45 1417.11 1366.87 1428.17 C 1364.63 1431.5 1362.2 1435.3 1359.85 1438.5 C 1346.51 1458.1 1333.12 1477.56 1320.78 1497.82 C 1299.23 1528.48 1282.32 1549.14 1258.05 1577.49 C 1224.03 1615.34 1187.76 1644.27 1134.23 1648.3 C 1052.01 1639.14 989.357 1595.23 933.177 1537.6 C 860.499 1463.04 797.439 1363.83 769.756 1262.98 L 769.252 1262.42 C 736.855 1256.51 720.828 1241.65 694.713 1223.68 C 692.419 1220.09 681.693 1210.43 677.917 1205.08 C 658.9 1178.1 652.035 1153.55 648.234 1121.85 C 649.306 1108.16 648.944 1089.17 648.954 1075.06 L 648.932 998.849 C 648.916 963.544 646.579 931.532 660.046 898.301 C 678.498 852.769 707.851 829.878 751.647 810.873 C 785.007 825.877 810.957 827.177 845.927 817.511 C 861.234 811.2 872.642 805.747 885.895 795.915 C 888.431 794.87 898.981 792.437 902.214 791.632 C 933.321 806.649 966.884 809.895 999.632 798.224 C 1033.01 786.329 1048.59 769.664 1067.29 740.989 C 1084.58 754.938 1098.42 765.374 1120.53 770.831 C 1174.65 784.191 1220.12 767.476 1254.42 724.534 C 1254.98 723.831 1255.53 723.119 1256.07 722.401 z" fill="rgb(254,161,49)" transform="translate(0,0)"></path>
<path d="M 769.756 1262.98 C 877.025 1288.84 983.837 1216.78 1020.26 1117.2 C 1026.44 1101.36 1028.75 1084.51 1033.25 1068.2 C 1044.14 1028.78 1077.89 1008.96 1116.84 1020.38 C 1117.93 1026.3 1119.21 1032.19 1120.7 1038.03 C 1136.29 1097.81 1179.61 1156.7 1233.08 1187.81 C 1274.4 1211.85 1325.78 1224.4 1373.52 1219.1 C 1392.51 1216.99 1408.01 1212.84 1426.33 1208.06 L 1426.39 1224.12 C 1426.39 1241.34 1426.58 1260.79 1424.62 1277.82 C 1420.13 1316.69 1406.88 1361.92 1387.75 1395.95 C 1380.81 1407.42 1374.45 1417.11 1366.87 1428.17 C 1364.63 1431.5 1362.2 1435.3 1359.85 1438.5 C 1346.51 1458.1 1333.12 1477.56 1320.78 1497.82 C 1299.23 1528.48 1282.32 1549.14 1258.05 1577.49 C 1224.03 1615.34 1187.76 1644.27 1134.23 1648.3 C 1052.01 1639.14 989.357 1595.23 933.177 1537.6 C 860.499 1463.04 797.439 1363.83 769.756 1262.98 z" fill="rgb(245,237,230)" transform="translate(0,0)"></path>
<path d="M 1085.59 1335.27 C 1096.74 1333.96 1109.7 1334.81 1121.02 1334.55 C 1148.58 1333.92 1172.67 1334.47 1194.59 1353.64 C 1208.34 1365.52 1216.7 1382.46 1217.77 1400.6 C 1218.59 1417.16 1212.82 1433.36 1201.72 1445.67 C 1190.21 1458.28 1174.28 1465.95 1157.25 1467.07 L 1113.94 1467.29 C 1089.97 1467.39 1068.04 1469.53 1047.37 1455.34 C 1033.81 1446.17 1024.51 1431.94 1021.55 1415.84 C 1014.15 1374.32 1046.4 1341.83 1085.59 1335.27 z" fill="rgb(43,30,46)" transform="translate(0,0)"></path>
<path d="M 1104.79 1379.38 C 1147.23 1376.13 1183.9 1385.28 1211.39 1419.18 C 1198.57 1456.75 1170.39 1462.98 1135.34 1462.68 C 1091 1462.2 1047.24 1471.17 1027.46 1420.73 C 1028.63 1418.98 1029.87 1417.27 1031.17 1415.61 C 1048.93 1393.35 1077.34 1382.86 1104.79 1379.38 z" fill="rgb(255,90,31)" transform="translate(0,0)"></path>
<path d="M 1206.11 1195.82 C 1206.51 1195.13 1207.1 1193.67 1208.02 1193.5 C 1208.88 1193.83 1208.59 1198.66 1208.64 1199.67 C 1208.66 1206.61 1208.64 1213.56 1208.59 1220.5 C 1207.67 1278.45 1170.5 1271.15 1125.68 1269.88 C 1139.62 1262.14 1176.86 1243.08 1185.47 1231.91 C 1194.02 1220.83 1199.06 1207.77 1206.11 1195.82 z" fill="rgb(43,30,46)" transform="translate(0,0)"></path>
<path d="M 1052.08 1266.7 C 1064.34 1257.53 1078.85 1247.75 1091.6 1241.24 C 1124.52 1224.42 1138.88 1258.96 1105.97 1268.89 C 1096.33 1271.8 1067.25 1269.37 1055.94 1269.45 C 1053.26 1269.63 1044.67 1269.19 1052.08 1266.7 z" fill="rgb(43,30,46)" transform="translate(0,0)"></path>
<path d="M 1052.08 1266.7 C 1053.63 1268.69 1053.51 1268.53 1055.94 1269.45 C 1053.26 1269.63 1044.67 1269.19 1052.08 1266.7 z" fill="rgb(110,33,78)" transform="translate(0,0)"></path>
<path d="M 751.647 810.873 C 785.007 825.877 810.957 827.177 845.927 817.511 C 842.978 823.191 818.405 825.522 811.765 825.103 C 811.637 831.247 810.962 837.55 814.253 842.756 C 823.154 846.667 838.08 826.167 854.399 827.798 C 811.391 844.579 787.691 868.574 777.183 914.189 C 805.972 895.543 847.551 880.541 882.053 881.898 C 869.455 889.872 856.735 897.89 845.184 907.381 C 754.599 981.815 738.471 1106.4 758.057 1215.47 C 760.944 1231.54 765.225 1246.66 769.252 1262.42 C 736.855 1256.51 720.828 1241.65 694.713 1223.68 C 692.419 1220.09 681.693 1210.43 677.917 1205.08 C 658.9 1178.1 652.035 1153.55 648.234 1121.85 C 649.306 1108.16 648.944 1089.17 648.954 1075.06 L 648.932 998.849 C 648.916 963.544 646.579 931.532 660.046 898.301 C 678.498 852.769 707.851 829.878 751.647 810.873 z" fill="rgb(255,90,31)" transform="translate(0,0)"></path>
<path d="M 854.399 827.798 C 924.679 810.442 976.898 844.45 996.701 912.672 C 955.99 891.02 929.531 881.147 882.053 881.898 C 847.551 880.541 805.972 895.543 777.183 914.189 C 787.691 868.574 811.391 844.579 854.399 827.798 z" fill="rgb(43,30,46)" transform="translate(0,0)"></path>
<path d="M 875.472 930.762 C 927.969 923.27 976.594 959.771 984.056 1012.27 C 991.517 1064.77 954.988 1113.38 902.481 1120.81 C 850.018 1128.23 801.463 1091.74 794.008 1039.28 C 786.552 986.824 823.017 938.247 875.472 930.762 z" fill="rgb(245,237,230)" transform="translate(0,0)"></path>
<path d="M 898.137 971.376 C 911.845 971.566 918.861 973.885 930.123 981.274 C 923.023 989.772 917.295 997.803 920.585 1009.39 C 926.274 1029.42 941.593 1030.51 957.972 1025.56 C 958.963 1060.73 944.344 1084.99 908.749 1092.82 C 890.509 1094.15 874.678 1091.36 860.09 1079.6 C 847.402 1069.24 839.338 1054.28 837.666 1037.99 C 834.124 1000.6 862.811 974.958 898.137 971.376 z" fill="rgb(43,30,46)" transform="translate(0,0)"></path>
<path d="M 1261.8 913.096 C 1313.49 908.21 1359.35 946.142 1364.24 997.825 C 1369.14 1049.51 1331.21 1095.37 1279.53 1100.28 C 1227.84 1105.18 1181.96 1067.24 1177.06 1015.55 C 1172.17 963.857 1210.11 917.984 1261.8 913.096 z" fill="rgb(245,237,230)" transform="translate(0,0)"></path>
<path d="M 1273.09 950.285 C 1289.59 948.072 1301.92 951.904 1315.36 960.917 C 1288.21 986.631 1308.17 1017.99 1340.51 1006.02 C 1339.15 1036.7 1329.62 1055.84 1300.57 1068.16 C 1298.14 1069.03 1295.29 1069.71 1292.75 1070.25 C 1277.1 1073.64 1260.75 1070.62 1247.34 1061.87 C 1233.71 1052.96 1224.26 1038.92 1221.14 1022.94 C 1214.34 986.867 1237.4 956.417 1273.09 950.285 z" fill="rgb(43,30,46)" transform="translate(0,0)"></path>
<path d="M 1251.58 805.345 C 1272.14 801.809 1303.39 807.571 1321.34 818.245 C 1355.13 838.338 1368 858.785 1378.29 894.827 C 1342.68 875.334 1323.28 867.616 1283.25 863.087 C 1229.79 861.326 1200.44 869.105 1154.2 895.079 C 1158.78 878.06 1163.2 863.606 1174.19 849.463 C 1194.38 823.487 1219.51 809.873 1251.58 805.345 z" fill="rgb(43,30,46)" transform="translate(0,0)"></path>
<path d="M 734.113 1455.84 C 772.6 1493.25 814.315 1517.54 858.68 1547.13 C 880.756 1561.92 902.924 1576.57 925.185 1591.09 C 946.463 1604.99 969.541 1620.86 992.864 1630.25 C 1030.16 1645.27 1071.18 1652.55 1111.33 1651.08 C 1117.65 1650.84 1128.6 1651.04 1134.23 1648.3 C 1187.76 1644.27 1224.03 1615.34 1258.05 1577.49 C 1282.32 1549.14 1299.23 1528.48 1320.78 1497.82 C 1365.44 1536.67 1402.53 1620.81 1405.35 1679.73 C 1406.78 1709.71 1404.89 1726.57 1401.16 1755.45 C 1412.84 1769.75 1423.8 1782.58 1430.53 1800.09 C 1438.45 1815.09 1442.76 1826.05 1446.66 1842.51 C 1458.91 1924.29 1428.28 2000.19 1360.28 2048 L 1250.86 2048 L 1178.37 2048 L 1157.07 2048 L 1133.08 2048 L 873.728 2048 L 849.139 2048 L 825.489 2048 L 748.864 2048 L 654.775 2048 C 593.869 2011.85 562.49 1940.28 563.732 1871.14 L 563.933 1860.16 L 564.902 1851.9 C 568.668 1831.73 572.571 1817.87 580.681 1799.2 C 584.856 1787.15 596.78 1769.34 604.101 1758.46 C 611.776 1750.81 618.088 1744.62 626.053 1737.16 C 614.687 1729.12 609.269 1722.14 599.753 1712.69 C 594.307 1700.58 603.852 1641.39 607.234 1628.16 C 623.427 1564.8 673.294 1492.15 730.034 1458.81 L 734.113 1455.84 z" fill="rgb(43,30,46)" transform="translate(0,0)"></path>
<path d="M 1250.86 2048 C 1182.91 1988.51 1201.36 1879.35 1254.67 1816.71 C 1277.08 1790.38 1309.4 1766.58 1344.77 1763.14 C 1368.67 1760.61 1392.6 1767.61 1411.37 1782.62 C 1418.37 1788.31 1423.49 1794.32 1429.87 1799.56 L 1430.53 1800.09 C 1438.45 1815.09 1442.76 1826.05 1446.66 1842.51 C 1458.91 1924.29 1428.28 2000.19 1360.28 2048 L 1250.86 2048 z" fill="rgb(245,237,230)" transform="translate(0,0)"></path>
<path d="M 1329.64 1852.42 C 1364.44 1846.41 1397.48 1869.88 1403.27 1904.71 C 1409.06 1939.55 1385.39 1972.44 1350.52 1978.02 C 1315.95 1983.55 1283.4 1960.13 1277.66 1925.6 C 1271.92 1891.06 1295.14 1858.37 1329.64 1852.42 z" fill="rgb(78,205,196)" transform="translate(0,0)"></path>
<path d="M 580.681 1799.2 C 595.987 1783.12 604.531 1771.46 626.654 1763.61 C 668.116 1748.89 710.552 1766.19 740.909 1795.28 C 779.146 1831.79 801.227 1882.05 802.251 1934.91 C 802.902 1970.81 793.151 2005.93 767.772 2032.31 C 762.043 2038.2 755.705 2043.46 748.864 2048 L 654.775 2048 C 593.869 2011.85 562.49 1940.28 563.732 1871.14 L 563.933 1860.16 L 564.902 1851.9 C 568.668 1831.73 572.571 1817.87 580.681 1799.2 z" fill="rgb(245,237,230)" transform="translate(0,0)"></path>
<path d="M 666.179 1849.03 C 701.074 1846.71 731.306 1872.98 733.867 1907.86 C 736.428 1942.73 710.358 1973.14 675.497 1975.93 C 640.308 1978.75 609.552 1952.38 606.966 1917.17 C 604.381 1881.97 630.955 1851.39 666.179 1849.03 z" fill="rgb(78,205,196)" transform="translate(0,0)"></path>
<path d="M 1108.9 1753.47 L 1112.7 1750.76 C 1112.89 1771.94 1112.72 1793.9 1113.16 1814.96 C 1101.37 1847.26 1095.57 1862.87 1088.6 1897.01 C 1084.54 1947.71 1091.2 1998.53 1125.08 2038.99 C 1127.68 2042.04 1130.35 2045.05 1133.08 2048 L 873.728 2048 C 874.331 2047.3 874.93 2046.6 875.524 2045.9 C 917.914 1995.59 925.169 1945 919.617 1882.17 C 918.539 1878.66 916.813 1868.6 916 1864.53 C 939.576 1861.39 962.593 1854.95 984.377 1845.4 C 1019.26 1829.72 1082.61 1781.34 1108.9 1753.47 z" fill="rgb(139,92,246)" transform="translate(0,0)"></path>
<path d="M 1108.9 1753.47 L 1112.7 1750.76 C 1112.89 1771.94 1112.72 1793.9 1113.16 1814.96 C 1101.37 1847.26 1095.57 1862.87 1088.6 1897.01 C 1076.34 1909.65 1064.74 1923.79 1052.8 1936.84 C 1039.22 1951.7 1025.26 1966.3 1011.95 1981.38 L 949.553 1915.08 C 940.663 1905.45 928.451 1890.32 919.617 1882.17 C 918.539 1878.66 916.813 1868.6 916 1864.53 C 939.576 1861.39 962.593 1854.95 984.377 1845.4 C 1019.26 1829.72 1082.61 1781.34 1108.9 1753.47 z" fill="rgb(254,161,49)" transform="translate(0,0)"></path>
<path d="M 731.694 1489.21 L 821.61 1597.86 C 880.808 1670.23 929.609 1743.16 1033.47 1754.5 C 1061.62 1757.58 1073.68 1753.77 1100.05 1749.57 C 1102.79 1748.38 1110.2 1746.25 1113.38 1745.24 L 1112.7 1750.76 L 1108.9 1753.47 C 1082.61 1781.34 1019.26 1829.72 984.377 1845.4 C 962.593 1854.95 939.576 1861.39 916 1864.53 C 905.26 1815.87 879.723 1771.73 842.896 1738.16 C 811.69 1710 774.164 1691.28 731.473 1693.36 C 732.107 1637.25 731.518 1578.95 731.623 1522.54 C 731.641 1511.48 731.559 1500.25 731.694 1489.21 z" fill="rgb(255,90,31)" transform="translate(0,0)"></path>
<path d="M 1334.06 1711.33 C 1348.17 1709.43 1391.41 1745.75 1401.16 1755.45 C 1412.84 1769.75 1423.8 1782.58 1430.53 1800.09 L 1429.87 1799.56 C 1423.49 1794.32 1418.37 1788.31 1411.37 1782.62 C 1392.6 1767.61 1368.67 1760.61 1344.77 1763.14 C 1309.4 1766.58 1277.08 1790.38 1254.67 1816.71 C 1201.36 1879.35 1182.91 1988.51 1250.86 2048 L 1178.37 2048 C 1168.58 2033.22 1155.18 2009.13 1151.39 1992.32 C 1138.1 1933.3 1153.48 1868.92 1183.12 1818.05 C 1207.42 1775.96 1245.02 1743.14 1290 1724.75 C 1304.71 1718.88 1318.81 1715.36 1334.06 1711.33 z" fill="rgb(78,205,196)" transform="translate(0,0)"></path>
<path d="M 626.053 1737.16 C 636.463 1729.33 663.307 1708.83 674.798 1707.1 C 688.685 1711.15 701.875 1713.9 715.581 1718.93 C 811.99 1754.33 865.3 1855.34 860.824 1954.81 C 859.103 1993.06 846.017 2016.84 825.489 2048 L 748.864 2048 C 755.705 2043.46 762.043 2038.2 767.772 2032.31 C 793.151 2005.93 802.902 1970.81 802.251 1934.91 C 801.227 1882.05 779.146 1831.79 740.909 1795.28 C 710.552 1766.19 668.116 1748.89 626.654 1763.61 C 604.531 1771.46 595.987 1783.12 580.681 1799.2 C 584.856 1787.15 596.78 1769.34 604.101 1758.46 C 611.776 1750.81 618.088 1744.62 626.053 1737.16 z" fill="rgb(78,205,196)" transform="translate(0,0)"></path>
<path d="M 731.473 1693.36 C 774.164 1691.28 811.69 1710 842.896 1738.16 C 879.723 1771.73 905.26 1815.87 916 1864.53 C 916.813 1868.6 918.539 1878.66 919.617 1882.17 C 925.169 1945 917.914 1995.59 875.524 2045.9 C 874.93 2046.6 874.331 2047.3 873.728 2048 L 849.139 2048 C 852.695 2036.13 855.958 2024.66 858.859 2012.61 C 891.282 1877.86 825.549 1735 683.05 1703.37 C 696.165 1697.09 716.979 1694.99 731.473 1693.36 z" fill="rgb(78,205,196)" transform="translate(0,0)"></path>
<path d="M 1259.04 1697.12 C 1277.5 1695.42 1312.29 1698.36 1327.43 1707.76 C 1185.42 1738.86 1117.08 1883.12 1147.94 2017.86 C 1150.33 2028.32 1153.02 2038.06 1157.07 2048 L 1133.08 2048 C 1130.35 2045.05 1127.68 2042.04 1125.08 2038.99 C 1091.2 1998.53 1084.54 1947.71 1088.6 1897.01 C 1095.57 1862.87 1101.37 1847.26 1113.16 1814.96 C 1116.91 1808.32 1120.71 1801.71 1124.56 1795.12 C 1146.65 1757.62 1181.6 1720.53 1223.46 1705.78 C 1234.21 1701.99 1247.81 1700.01 1259.04 1697.12 z" fill="rgb(78,205,196)" transform="translate(0,0)"></path>
<path d="M 1258.84 1612.04 C 1259.19 1640.4 1259.26 1668.76 1259.04 1697.12 C 1247.81 1700.01 1234.21 1701.99 1223.46 1705.78 C 1181.6 1720.53 1146.65 1757.62 1124.56 1795.12 C 1120.71 1801.71 1116.91 1808.32 1113.16 1814.96 C 1112.72 1793.9 1112.89 1771.94 1112.7 1750.76 L 1113.38 1745.24 C 1121.5 1743.94 1135.74 1736.27 1143.12 1732.46 C 1193.83 1706.34 1231.35 1661.11 1258.84 1612.04 z" fill="rgb(245,237,230)" transform="translate(0,0)"></path>
<path d="M 694.713 1223.68 C 720.828 1241.65 736.855 1256.51 769.252 1262.42 L 769.756 1262.98 C 797.439 1363.83 860.499 1463.04 933.177 1537.6 C 989.357 1595.23 1052.01 1639.14 1134.23 1648.3 C 1128.6 1651.04 1117.65 1650.84 1111.33 1651.08 C 1071.18 1652.55 1030.16 1645.27 992.864 1630.25 C 969.541 1620.86 946.463 1604.99 925.185 1591.09 C 902.924 1576.57 880.756 1561.92 858.68 1547.13 C 814.315 1517.54 772.6 1493.25 734.113 1455.84 L 730.034 1458.81 C 673.294 1492.15 623.427 1564.8 607.234 1628.16 C 603.852 1641.39 594.307 1700.58 599.753 1712.69 C 609.269 1722.14 614.687 1729.12 626.053 1737.16 C 618.088 1744.62 611.776 1750.81 604.101 1758.46 C 596.78 1769.34 584.856 1787.15 580.681 1799.2 C 572.571 1817.87 568.668 1831.73 564.902 1851.9 L 563.933 1860.16 L 563.732 1871.14 C 562.49 1940.28 593.869 2011.85 654.775 2048 L 336.779 2048 C 323.494 2001.73 308.857 1956.61 295.138 1910.63 L 280.149 1860.09 C 277.611 1851.54 271.521 1829.63 267.338 1822.91 C 256.454 1805.41 241.159 1785.77 228.714 1768.99 C 205.195 1736.82 181.432 1704.83 157.427 1673.03 C 171.892 1666.14 189.043 1660.83 204.136 1654.96 C 224.775 1646.93 246.207 1637.72 267.714 1632.8 C 313.559 1622.31 359.841 1632.59 403.605 1646.81 C 416.465 1650.96 429.659 1654.72 442.272 1659.66 C 430.562 1553.51 476.696 1468.21 563.42 1408.96 C 600.758 1383.45 635.748 1370.6 678.505 1357.16 C 673.825 1343.31 670.332 1329.44 666.448 1315.36 C 667.864 1313.83 669.248 1312.27 670.6 1310.68 C 693.315 1283.89 697.616 1257.29 694.713 1223.68 z" fill="rgb(139,92,246)" transform="translate(0,0)"></path>
<path d="M 539.441 1616.8 C 558.665 1548.84 585.321 1494.16 635.262 1442.85 C 654.084 1423.51 669.837 1409.32 693.342 1394.89 C 706.018 1420.28 716.497 1434.27 734.113 1455.84 L 730.034 1458.81 C 673.294 1492.15 623.427 1564.8 607.234 1628.16 C 603.852 1641.39 594.307 1700.58 599.753 1712.69 C 609.269 1722.14 614.687 1729.12 626.053 1737.16 C 618.088 1744.62 611.776 1750.81 604.101 1758.46 C 596.78 1769.34 584.856 1787.15 580.681 1799.2 C 572.571 1817.87 568.668 1831.73 564.902 1851.9 C 558.443 1840.7 549.514 1816.06 545.54 1803.98 C 524.171 1739.02 527.738 1682.82 539.441 1616.8 z" fill="rgb(255,90,31)" transform="translate(0,0)"></path>
<path d="M 599.753 1712.69 C 609.269 1722.14 614.687 1729.12 626.053 1737.16 C 618.088 1744.62 611.776 1750.81 604.101 1758.46 C 602.166 1745.93 600.165 1725.2 599.753 1712.69 z" fill="rgb(139,92,246)" transform="translate(0,0)"></path>
<path d="M 539.441 1616.8 C 536.141 1610.74 533.431 1604.37 531.349 1597.79 C 519.931 1561.31 523.373 1521.79 540.927 1487.83 C 560.668 1450.5 598.582 1419.93 636.929 1403.17 C 655.297 1395.14 670.082 1391.01 689.074 1385.15 C 690.671 1388.38 691.953 1391.56 693.342 1394.89 C 669.837 1409.32 654.084 1423.51 635.262 1442.85 C 585.321 1494.16 558.665 1548.84 539.441 1616.8 z" fill="rgb(43,30,46)" transform="translate(0,0)"></path>
<path d="M 442.742 1669.02 C 453.047 1733.05 481.388 1776.01 524.862 1821.9 C 536.002 1833.66 550.994 1850.64 563.933 1860.16 L 563.732 1871.14 L 562.719 1873.39 C 552.446 1873.61 506.457 1838.82 498.188 1831.35 C 489.728 1823.7 481.918 1815.35 474.838 1806.41 C 441.95 1764.94 436.752 1720.01 442.742 1669.02 z" fill="rgb(43,30,46)" transform="translate(0,0)"></path>
<path d="M 0 1662.33 C 30.0142 1668.9 98.0459 1699.68 124.619 1684.17 C 155.048 1720.43 194.748 1784.34 206.178 1830.31 C 210.418 1847.36 212.864 1874.11 214.758 1892.11 L 223.751 1980.72 C 225.754 2000.98 227.774 2028.6 231.415 2048 L 159.802 2048 L 52.1734 2048 L 0 2048 L 0 1787.82 L 0 1771.87 L 0 1662.33 z" fill="rgb(139,92,246)" transform="translate(0,0)"></path>
<path d="M 0 1771.87 C 52.3957 1837.74 94.2156 1912.19 130.566 1987.8 C 140.126 2007.68 151.289 2027.72 159.802 2048 L 52.1734 2048 L 0 2048 L 0 1787.82 L 0 1771.87 z" fill="rgb(43,30,46)" transform="translate(0,0)"></path>
<path d="M 0 1787.82 C 7.2087 1798.4 14.1859 1823.63 17.648 1836.71 C 34.5266 1900.45 50.3693 1982.01 52.1734 2048 L 0 2048 L 0 1787.82 z" fill="rgb(139,92,246)" transform="translate(0,0)"></path>
<path d="M 484.781 1030.84 C 565.645 998.212 602.14 1070.04 648.234 1121.85 C 652.035 1153.55 658.9 1178.1 677.917 1205.08 C 681.693 1210.43 692.419 1220.09 694.713 1223.68 C 697.616 1257.29 693.315 1283.89 670.6 1310.68 C 669.248 1312.27 667.864 1313.83 666.448 1315.36 C 641.852 1338.73 608.162 1349.81 575.005 1339.64 C 565.922 1336.83 557.288 1332.73 549.364 1327.47 C 535.542 1318.35 479.262 1270.21 469.132 1257.78 C 417.232 1194.08 397.408 1075.96 484.781 1030.84 z" fill="rgb(254,161,49)" transform="translate(0,0)"></path>
<path d="M 475.932 1086.35 C 493.533 1073.95 515.336 1069.04 536.552 1072.71 C 555.778 1076.06 573.06 1086.19 584.22 1102.36 C 592.821 1114.89 597.292 1129.8 597.006 1145 C 591.174 1144.73 582.792 1144.1 577.147 1144.33 C 538.663 1152.43 550.12 1212 590.277 1212.47 C 591.038 1208.74 596.295 1201.35 598.692 1198.22 C 637.866 1203.46 652.684 1240.17 632.052 1272.14 L 631.471 1273.06 C 629.287 1272.04 615.087 1265.59 614.122 1264.93 C 584.03 1254.08 558.868 1255.89 537.835 1283.14 C 495.618 1254.94 479.714 1225.19 495.493 1174.13 C 501.056 1156.12 517.2 1130.43 496.672 1114.51 C 484.151 1104.8 472.566 1104.19 457.511 1106.36 C 461.502 1100.34 463.991 1096.43 469.199 1091.39 C 471.986 1088.59 472.461 1088.37 475.932 1086.35 z" fill="rgb(255,90,31)" transform="translate(0,0)"></path>
<path d="M 475.932 1086.35 C 493.533 1073.95 515.336 1069.04 536.552 1072.71 C 555.778 1076.06 573.06 1086.19 584.22 1102.36 C 592.821 1114.89 597.292 1129.8 597.006 1145 C 591.174 1144.73 582.792 1144.1 577.147 1144.33 C 564.062 1102.08 526.09 1076.92 482.119 1086.87 C 478.553 1088.15 472.663 1090.47 469.199 1091.39 C 471.986 1088.59 472.461 1088.37 475.932 1086.35 z" fill="rgb(43,30,46)" transform="translate(0,0)"></path>
<path d="M 598.692 1198.22 C 637.866 1203.46 652.684 1240.17 632.052 1272.14 L 631.471 1273.06 C 629.287 1272.04 615.087 1265.59 614.122 1264.93 C 624.318 1239.8 617.727 1219.96 590.277 1212.47 C 591.038 1208.74 596.295 1201.35 598.692 1198.22 z" fill="rgb(245,237,230)" transform="translate(0,0)"></path>
<path d="M 0 934.907 C 7.0716 941.511 13.1406 948.574 19.7338 955.606 C 48.1754 985.937 75.5668 1017.73 104.611 1047.46 C 126.071 1071.04 149.809 1097.86 172.172 1120.4 C 191.16 1141.86 219.39 1165.2 216.71 1194.49 C 215.995 1202.31 213.473 1216.64 208.646 1222.45 C 194.095 1239.98 173.931 1258.03 157.311 1274 C 121.635 1307.99 86.1848 1342.21 50.9635 1376.67 C 35.6568 1363.59 20.1185 1350.79 4.35592 1338.26 C 2.91043 1336.4 1.82508 1335.64 0 1334.17 L 0 934.907 z" fill="rgb(139,92,246)" transform="translate(0,0)"></path>
<path d="M 0 1334.17 C 1.82508 1335.64 2.91043 1336.4 4.35592 1338.26 L 4.61156 1341.84 C 18.6264 1361.5 35.9474 1389.35 50.2352 1407.1 C 45.1217 1445.69 37.7019 1476.36 5.07592 1501.18 C 3.43015 1502.43 1.73692 1503.61 0 1504.73 L 0 1336.71 L 0 1334.17 z" fill="rgb(139,92,246)" transform="translate(0,0)"></path>
<path d="M 0 1334.17 C 1.82508 1335.64 2.91043 1336.4 4.35592 1338.26 L 4.61156 1341.84 C 3.09005 1340.12 1.5528 1338.41 0 1336.71 L 0 1334.17 z" fill="rgb(81,9,96)" transform="translate(0,0)"></path>
<path d="M 861.287 367.225 C 875.172 371.669 879.155 375.407 882.887 389.983 C 882.769 393.983 882.829 397.449 882.006 401.389 L 881.619 402.821 C 876.347 421.757 865.755 429.265 849.667 438.951 C 807.356 464.429 764.901 479.53 718.92 497.071 L 627.878 532.193 C 619.364 535.427 578.197 549.317 574.097 552.686 L 573.863 554.281 L 576.018 555.615 C 595.038 550.4 619.474 540.093 638.36 532.837 L 732.827 496.911 C 748.322 491.102 768.285 483.088 783.735 478.244 C 807.956 470.65 840.193 469.174 865.616 464.211 C 884.944 460.438 900.487 454.513 918.93 448.033 L 929.646 444.481 C 947.425 439.516 965.627 432.725 982.964 426.372 C 996.196 432.127 1003.71 437.782 1005.3 453.114 L 1004.62 460.834 C 994.838 493.465 970.447 496.924 942.722 508.529 C 905.053 524.296 865.847 534.905 827.301 548.187 C 820.683 550.467 813.961 552.684 807.263 554.694 C 799.062 557.155 790.071 555.308 781.913 557.969 C 766.498 563.126 751.052 569.002 735.812 574.647 C 704.957 586.08 674.162 597.674 643.429 609.43 C 636.306 612.131 608.142 621.219 604.276 624.694 L 604.612 626.321 C 605.402 626.636 606.192 626.951 606.982 627.266 C 626.891 620.734 661.283 607.443 679.444 600.911 C 701.076 593.13 722.639 585.159 744.13 576.997 C 751.446 574.223 779.483 563.18 785.662 562.448 C 806.085 560.03 834.817 560.98 855.846 560.867 C 887.264 560.698 918.363 559.88 949.62 559.892 L 958.853 559.918 C 984.82 559.947 1018.35 552.728 1017.92 588.35 L 1016.03 596.038 C 1002.26 625.107 975.599 630.297 945.911 632.56 C 905.106 635.67 862.655 634.163 821.833 636.642 C 813.464 637.15 789.702 647.803 780.654 651.306 L 711.238 677.926 C 702.826 681.145 685.131 687.697 677.318 690.944 C 664.083 696.445 627.583 692.326 622.041 694.842 L 621.986 696.178 C 631.465 701.35 702.449 695.645 718.739 696.708 C 745.695 698.467 779.501 690.372 805.372 700.655 C 828.311 709.772 848.946 718.914 870.748 727.558 L 877.867 730.269 C 897.316 737.761 938.61 747.128 921.021 775.676 L 917.946 780.281 C 912.642 786.059 909.429 788.393 902.214 791.632 C 898.981 792.437 888.431 794.87 885.895 795.915 C 856.261 791.937 805.476 775.855 777.621 764.979 C 757.093 772.316 731.539 785.806 711.481 791.669 C 682.022 805.962 651.411 813.895 623.717 833.092 C 600.437 849.24 578.232 866.885 557.243 885.915 C 521.765 917.921 511.572 937.076 465.877 956.32 C 408.643 976.856 379.138 980.65 318.009 979.763 C 270.422 1025.16 218.211 1073.97 172.172 1120.4 C 149.809 1097.86 126.071 1071.04 104.611 1047.46 C 75.5668 1017.73 48.1754 985.937 19.7338 955.606 C 13.1406 948.574 7.0716 941.511 0 934.907 L 0 922.469 C 54.4517 870.228 108.617 817.689 162.494 764.855 L 210.757 717.156 C 234.861 693.499 248.345 681.577 279.604 667.248 C 294.749 660.306 312.8 649.239 327.279 640.815 C 346.614 631.444 367.994 619.389 386.944 609.069 C 422.552 589.837 457.947 570.213 493.122 550.2 C 541.252 523.439 589.625 497.118 638.235 471.24 C 659.282 459.993 681.472 446.713 702.76 436.444 C 723.361 426.507 746.046 417.371 767.108 407.907 L 768.539 407.718 C 780.205 401.869 801.297 393.821 814.281 388.154 L 822.327 384.477 C 831.209 380.426 852.931 369.849 861.287 367.225 z" fill="rgb(255,90,31)" transform="translate(0,0)"></path>
<path d="M 1387.75 1395.95 C 1396.13 1399.98 1407.45 1403.13 1416.47 1405.89 C 1560.9 1450.05 1666.16 1571.93 1616.64 1730.05 C 1592.07 1795.82 1557.2 1830.6 1507.29 1877 C 1486.3 1896.52 1465.7 1916.98 1442.88 1934.63 C 1465.06 1924.65 1487.86 1907.55 1507.72 1893.4 C 1559.08 1856.8 1603.83 1815.66 1649.13 1771.95 C 1664.97 1768.64 1686.65 1764.83 1701.84 1760.86 C 1711.42 1760.31 1730.41 1770.46 1739.51 1774.3 C 1870.31 1829.46 1964.11 1920.45 2025.63 2048 L 1902.71 2048 L 1873.08 2048 L 1360.28 2048 C 1428.28 2000.19 1458.91 1924.29 1446.66 1842.51 C 1442.76 1826.05 1438.45 1815.09 1430.53 1800.09 C 1423.8 1782.58 1412.84 1769.75 1401.16 1755.45 C 1404.89 1726.57 1406.78 1709.71 1405.35 1679.73 C 1402.53 1620.81 1365.44 1536.67 1320.78 1497.82 C 1333.12 1477.56 1346.51 1458.1 1359.85 1438.5 C 1362.2 1435.3 1364.63 1431.5 1366.87 1428.17 C 1374.45 1417.11 1380.81 1407.42 1387.75 1395.95 z" fill="rgb(139,92,246)" transform="translate(0,0)"></path>
<path d="M 1359.85 1438.5 C 1372.78 1447.39 1383.22 1459.52 1393.09 1471.63 C 1432.05 1519.6 1458.31 1576.6 1469.46 1637.39 C 1475.76 1672.68 1477.1 1708.68 1473.45 1744.35 C 1470.16 1769.03 1459.76 1822.51 1446.66 1842.51 C 1442.76 1826.05 1438.45 1815.09 1430.53 1800.09 C 1423.8 1782.58 1412.84 1769.75 1401.16 1755.45 C 1404.89 1726.57 1406.78 1709.71 1405.35 1679.73 C 1402.53 1620.81 1365.44 1536.67 1320.78 1497.82 C 1333.12 1477.56 1346.51 1458.1 1359.85 1438.5 z" fill="rgb(255,90,31)" transform="translate(0,0)"></path>
<path d="M 1366.87 1428.17 C 1468.55 1448.53 1574.95 1518.92 1552.91 1639.03 C 1544.28 1686.05 1510.54 1717.42 1473.45 1744.35 C 1477.1 1708.68 1475.76 1672.68 1469.46 1637.39 C 1458.31 1576.6 1432.05 1519.6 1393.09 1471.63 C 1383.22 1459.52 1372.78 1447.39 1359.85 1438.5 C 1362.2 1435.3 1364.63 1431.5 1366.87 1428.17 z" fill="rgb(43,30,46)" transform="translate(0,0)"></path>
<path d="M 1873.08 2048 C 1876.1 2040.45 1880.44 2031.83 1884.14 2024.55 C 1895.41 2002.41 1905.79 1979.76 1916.83 1957.54 C 1912.7 1987.22 1905.73 2018.35 1902.71 2048 L 1873.08 2048 z" fill="rgb(43,30,46)" transform="translate(0,0)"></path>
<path d="M 456.46 473.869 C 463.735 461.88 477.556 437.873 485.568 428.164 C 488.431 426.88 488.535 427.632 492.376 428.521 L 496.209 429.285 C 500.738 431.189 504.882 432.763 509.122 435.265 C 515.957 439.283 519.071 442.129 524.413 448.255 C 537.202 469.666 536.143 494.572 530.145 518.194 C 529.565 520.448 528.914 522.684 528.195 524.898 C 511.798 535.13 492.675 545.005 475.665 554.57 C 437.462 576.034 399.072 597.162 360.498 617.952 C 355.261 620.77 328.873 635.884 325.427 636.769 C 327.479 622.201 356.362 585.819 368.207 575.81 C 382.657 562.792 407.083 544.464 419.293 531.858 C 424.348 526.64 446.17 489.912 451.29 481.57 L 456.46 473.869 z" fill="rgb(255,90,31)" transform="translate(0,0)"></path>
<metadata><recraft-signature>{"signed_by": "recraft", "signature_b64": "64437lJchaMyQ5FXltp90MGk2MN+YBBRh1W0p+bmkFrRMNVtRa9h0nHjKZG2/SZpPi5EVRcfXbf9RGNrQKl+Aw==", "signing_algo": "Ed25519", "generation_timestamp": 1783346038, "identifier": "ac40fbc3-786d-42e7-93b3-42d4bd3875e8"}</recraft-signature></metadata></svg>