<svg xmlns="http://www.w3.org/2000/svg" height="1024" preserveAspectRatio="none" style="display: block;" version="1.1" viewBox="0 0 2048 2048" width="1024">
<path d="M 0 0 L 2048 0 L 2048 2048 L 1785.95 2048 L 1393.87 2048 L 1391.66 2048 L 519.868 2048 L 517.847 2048 L 252.297 2048 L 0 2048 L 0 0 z" fill="rgb(43,30,46)" transform="translate(0,0)"></path>
<path d="M 507.041 1453.08 C 510.478 1450.76 510.013 1450.27 513.456 1450.18 C 525.644 1459.88 543.297 1472.32 557.4 1478.89 C 595.592 1496.68 656.192 1510.64 698.012 1511.26 C 710.3 1525.56 724.854 1539.69 744.651 1541.63 C 751.001 1542.25 767.367 1537.64 770.998 1532.58 C 777.104 1529.64 780.198 1530.74 786.873 1531.53 L 789.366 1531.74 L 804.076 1533.39 C 806.214 1533.58 808.886 1533.95 810.971 1533.85 C 815.333 1540.95 822.817 1552.93 831.266 1555.96 C 834.705 1557.2 843.445 1554.9 849.117 1558.12 C 849.948 1564.23 849.85 1566.75 849.65 1572.75 L 849.627 1601.56 L 849.383 1615.96 C 847.202 1645.38 848.381 1693.32 848.396 1723.97 C 848.799 1783.91 848.769 1843.85 848.304 1903.8 C 840.291 1908.76 834.542 1912.98 829.964 1921.79 C 827.684 1927.64 821.457 1940.41 826.808 1945.1 C 833.031 1950.54 845.419 1953.28 853.898 1953.81 C 865.861 1954.56 883.18 1952.85 893.025 1945.51 C 894.73 1944.08 895.165 1940.53 894.754 1938.39 C 891.55 1921.72 887.558 1915.4 875.103 1905.32 C 874.059 1806.94 874.856 1707.37 874.929 1608.91 C 892.247 1613.71 905.032 1617.21 923.002 1619.72 C 927.056 1620.32 931.838 1621.18 935.87 1621.27 L 938.783 1622.1 C 944.212 1622.31 949.636 1622.64 955.051 1623.09 C 981.785 1623.83 1008.53 1621.99 1034.91 1617.6 C 1038.81 1617.35 1050.88 1614.98 1055.32 1614.22 L 1055.17 1904.6 C 1039.24 1916.1 1036.56 1925.9 1033.57 1943.98 C 1047.13 1952.49 1061.94 1956.22 1077.98 1954.22 C 1087.98 1953.04 1107.95 1948.3 1104.45 1934.43 C 1100.98 1920.71 1093.82 1911.57 1082.1 1904.27 C 1081.23 1868.33 1081.81 1830.35 1081.83 1794.22 L 1081.87 1605.81 C 1110.92 1598.13 1150.57 1581.83 1176.3 1566.32 C 1178.97 1564.78 1181.99 1563.18 1183.12 1560.58 C 1179.32 1560.98 1176.24 1563.63 1172.99 1565.83 C 1145.74 1582.58 1112.18 1593.68 1081.89 1603.89 C 1081.94 1583.1 1081.38 1558.63 1082.57 1538.16 C 1115.06 1553.11 1128.54 1574.45 1156.36 1534.06 C 1165.37 1533.79 1176.73 1531.21 1185.71 1529.31 C 1194.31 1525.99 1209.55 1543.01 1229.61 1539.79 C 1253.45 1535.97 1270.72 1500.48 1284 1497.96 C 1301.04 1493.77 1317.02 1489.3 1333.27 1482.33 C 1334.43 1556.83 1341.56 1620.75 1405.99 1668.22 C 1405.68 1679.26 1405.03 1691.87 1405.28 1702.8 C 1392.64 1713.47 1383.07 1724.44 1382.35 1741.89 C 1381.61 1763.45 1381.12 1785.44 1381.26 1807.01 C 1381.4 1828.25 1380.19 1851.29 1382.77 1872.26 C 1384.32 1884.85 1396.49 1900.43 1405.39 1908.79 C 1404.22 1925.62 1402.49 1944.44 1400.27 1961.14 C 1396.52 1989.26 1396.26 2020.3 1391.66 2048 L 519.868 2048 L 517.847 2048 L 252.297 2048 C 252.789 2044.11 253.316 2040.22 253.877 2036.33 C 258.493 2004.44 265.862 1972.87 272.295 1941.32 C 287.89 1864.82 308.224 1790.59 333.823 1716.77 C 370.2 1611.86 416.41 1520.71 507.041 1453.08 z" fill="rgb(179,6,237)" transform="translate(0,0)"></path>
<path d="M 528.78 1880.56 C 528.86 1866.56 531.803 1857.98 527.814 1843.82 C 517.859 1808.5 498.736 1777.82 471.292 1753.49 C 466.144 1748.93 474.471 1754.47 469.186 1751.14 L 470.095 1751.81 L 471.029 1751.87 C 497.529 1770.84 523.486 1812.26 529.624 1843.18 C 530.506 1842.39 531.397 1841.61 532.295 1840.83 C 531.403 1830.24 532.499 1814.25 532.915 1803.23 C 533.006 1798.08 532.821 1792.76 535.186 1788.25 L 535.59 1788.17 L 534.693 1789.26 L 536.109 1790.08 C 536.222 1792.42 535.653 1797.31 535.426 1799.86 C 534.789 1815.97 533.988 1832.08 533.024 1848.18 C 532.457 1856.86 531.014 1870.3 531.009 1878.56 C 530.854 1880.06 530.703 1882.78 530.238 1884.06 C 529.7 1898.9 528.287 1930.5 526.391 1944.66 L 526.008 1953.63 L 525.461 1959.56 C 523.894 1980.75 522.645 2014.13 519.973 2034.1 L 519.868 2048 L 517.847 2048 L 518.045 2034.17 C 519.527 2011.32 522.48 1983.44 522.841 1961.12 L 523.584 1956.11 C 523.791 1953.28 523.81 1949.78 523.899 1946.9 C 525.713 1931.91 527.685 1900.18 527.912 1885.03 C 528 1883.99 528.547 1881.7 528.78 1880.56 z" fill="rgb(43,30,46)" transform="translate(0,0)"></path>
<path d="M 532.295 1840.83 C 532.313 1844.19 531.879 1849.28 529.624 1843.18 C 530.506 1842.39 531.397 1841.61 532.295 1840.83 z" fill="rgb(102,41,125)" transform="translate(0,0)"></path>
<path d="M 849.627 1601.56 C 825.76 1593.38 802.968 1583.69 781.056 1571.18 C 778.115 1569.18 767.169 1563.97 765.662 1561.55 C 762.921 1557.14 779.684 1567.85 779.4 1567.68 C 800.974 1580.78 825.038 1590.17 848.409 1598.66 C 848.36 1595.25 848.124 1564.9 848.72 1564.13 L 848.883 1564.13 C 849.857 1565.43 849.42 1570.81 849.65 1572.75 L 849.627 1601.56 z" fill="rgb(43,30,46)" transform="translate(0,0)"></path>
<path d="M 1407.23 1910.28 C 1437.36 1933.32 1478.05 1946.38 1515.31 1954.12 C 1588.88 1969.4 1670.42 1965.44 1741.74 1941.26 C 1754.3 1937 1774.04 1928.81 1784.6 1921.94 C 1787.05 1927.07 1785.96 2034.44 1785.95 2048 L 1393.87 2048 L 1407.23 1910.28 z" fill="rgb(245,237,230)" transform="translate(0,0)"></path>
<path d="M 849.117 1558.12 C 851.146 1554.59 867.736 1547.8 873.325 1544.47 L 873.293 1789.45 L 873.431 1864.55 C 873.441 1874.38 873.98 1895.87 872.903 1904.59 C 862.73 1901.53 860.186 1901.85 849.998 1903.15 C 849.956 1808.67 851.323 1710.17 849.383 1615.96 L 849.627 1601.56 L 849.65 1572.75 C 849.85 1566.75 849.948 1564.23 849.117 1558.12 z" fill="rgb(245,237,230)" transform="translate(0,0)"></path>
<path d="M 671.969 1307.8 C 669.229 1284.87 669.914 1261.67 674.001 1238.95 C 674.97 1233.53 677.072 1219.84 681.504 1216.74 L 684.768 1218.24 C 689.857 1220.92 691.753 1221.88 697.202 1223.76 C 693.344 1253.02 689.408 1276.54 692.678 1306.81 C 693.353 1313.06 693.174 1320.89 696.001 1326.64 C 699.606 1324.01 701.175 1324.84 706.523 1325.64 C 725.944 1328.55 746.395 1351.53 757.036 1367.2 C 781.957 1403.92 797.611 1455.26 790.026 1499.73 C 787.58 1514.07 781.118 1522.71 770.998 1532.58 C 768.308 1533.14 767.13 1534.89 762.619 1535.1 C 762.795 1533.28 768.807 1521.56 770.453 1516.63 C 779.055 1491.79 775.239 1465.46 769.75 1440.49 C 762.067 1405.53 722.558 1319.04 675.954 1331.94 C 673.903 1324.22 673.016 1315.76 671.969 1307.8 z" fill="rgb(255,90,31)" transform="translate(0,0)"></path>
<path d="M 1658.62 1096.7 C 1687.17 1058.74 1728.94 1048.7 1771.69 1067.79 C 1780.04 1073.59 1789.19 1078.64 1797.35 1085.25 C 1834.07 1114.97 1899.48 1174.47 1923.23 1213.12 C 1934.02 1230.73 1941.48 1250.18 1945.25 1270.5 C 1953.09 1312.84 1942.85 1338.36 1932.53 1376.68 C 1923.57 1399.47 1912.95 1421.55 1900.73 1442.77 C 1896.53 1450 1882.71 1469.71 1880.48 1475.62 C 1890.23 1471.98 1926.18 1399.37 1931.13 1385.27 C 1931.99 1387.07 1933.73 1390.99 1934.67 1392.53 C 1942.45 1416.34 1944.92 1432.79 1941.74 1457.82 C 1937.44 1472.54 1934.55 1488.06 1926.9 1501.7 C 1915.76 1521.55 1900.27 1538.9 1886.38 1556.85 C 1859.19 1590.28 1815.43 1653.33 1807.42 1695.67 C 1802.59 1714.8 1801.65 1728.5 1801.88 1748.32 C 1717.59 1827.69 1500.93 1829.87 1411.63 1751.21 C 1408.38 1748.35 1406.12 1745.37 1406.17 1740.96 C 1407.81 1731.01 1407.12 1681.84 1407.3 1669.03 C 1409.43 1670.17 1417.1 1674.11 1418.92 1673.43 C 1407.15 1665.95 1397.81 1660.43 1387.68 1650.62 C 1345.75 1610.03 1335.31 1547.85 1335.23 1491.91 C 1335.23 1485.46 1337.34 1474.04 1334.29 1469.87 C 1334.19 1473.3 1334.62 1476.72 1332.74 1479.34 C 1322.62 1485.87 1296.62 1492.63 1284.05 1496.11 L 1280.52 1496 C 1280.23 1494.64 1298.6 1461.24 1301.92 1452.44 C 1311.73 1426.4 1317.89 1397.68 1315.39 1369.76 C 1314.14 1355.84 1310.89 1341.58 1299.78 1332.2 C 1302.31 1319.13 1303.41 1307.85 1304.16 1294.58 C 1312.49 1290.2 1320.91 1286.01 1329.44 1282.02 C 1327.48 1289.43 1326.12 1297.33 1326.02 1305 C 1328.18 1301.91 1328.26 1297.13 1329.3 1292.97 C 1332.53 1280.12 1334.87 1270.33 1342.93 1259.53 C 1354.97 1243.71 1372.79 1233.31 1392.48 1230.61 C 1411.63 1227.91 1431.06 1233.02 1446.41 1244.79 L 1446.28 1241.19 C 1438.83 1237.3 1433.58 1234.61 1425.81 1231.56 C 1428.94 1208.52 1431.99 1196.29 1448.77 1178.36 C 1462.56 1163.64 1483.91 1155.52 1504.03 1155.7 C 1545.45 1156.07 1579.94 1185.21 1607.42 1212.9 C 1608.11 1213.44 1607.98 1213.27 1608.41 1213.99 C 1627.04 1235.63 1645.83 1261.65 1652.88 1290.03 C 1654.25 1295.55 1654.66 1298.28 1657.31 1303.4 C 1658.38 1300.08 1654.24 1285.7 1652.87 1282.01 C 1632.86 1228.16 1592.71 1187.11 1542.36 1161.86 C 1545.19 1150.87 1547.97 1141.58 1553.74 1131.68 C 1565.03 1112.43 1583.52 1098.46 1605.12 1092.86 C 1634.42 1085.44 1661.36 1097.78 1686.44 1113.02 C 1732.54 1141.04 1779.28 1183.3 1793.09 1237.44 C 1793.88 1240.56 1794.06 1241.24 1795.23 1244.33 L 1796.48 1244.66 C 1795.37 1235.83 1793.29 1230.68 1790.26 1222.35 C 1769.85 1166.35 1712.19 1120.45 1658.62 1096.7 z" fill="rgb(255,90,31)" transform="translate(0,0)"></path>
<path d="M 1329.44 1282.02 C 1327.48 1289.43 1326.12 1297.33 1326.02 1305 C 1323.25 1336.65 1330.56 1360.25 1333.33 1391.21 C 1335.63 1416.98 1334.69 1443.93 1334.29 1469.87 C 1334.19 1473.3 1334.62 1476.72 1332.74 1479.34 C 1322.62 1485.87 1296.62 1492.63 1284.05 1496.11 L 1280.52 1496 C 1280.23 1494.64 1298.6 1461.24 1301.92 1452.44 C 1311.73 1426.4 1317.89 1397.68 1315.39 1369.76 C 1314.14 1355.84 1310.89 1341.58 1299.78 1332.2 C 1302.31 1319.13 1303.41 1307.85 1304.16 1294.58 C 1312.49 1290.2 1320.91 1286.01 1329.44 1282.02 z" fill="rgb(179,6,237)" transform="translate(0,0)"></path>
<path d="M 1446.28 1241.19 C 1446.86 1241.71 1446.53 1241.38 1447.24 1242.23 C 1481.95 1264.7 1527.26 1319.41 1530.48 1361.95 L 1530.17 1362.12 C 1526.86 1353.44 1524.96 1344.81 1521.62 1336.31 C 1510.93 1309.13 1492.27 1284.18 1471.38 1263.98 C 1470.5 1263.48 1470.67 1263.53 1469.99 1262.61 C 1462.41 1255.4 1456.28 1250.78 1447.69 1244.96 L 1446.41 1244.79 L 1446.28 1241.19 z" fill="rgb(43,30,46)" transform="translate(0,0)"></path>
<path d="M 1446.28 1241.19 C 1446.86 1241.71 1446.53 1241.38 1447.24 1242.23 L 1447.69 1244.96 L 1446.41 1244.79 L 1446.28 1241.19 z" fill="rgb(111,29,15)" transform="translate(0,0)"></path>
<path d="M 1370.26 1373.6 C 1373.21 1376.19 1370.23 1383.39 1370.18 1387.5 C 1370.09 1394.7 1369.5 1401.33 1370.86 1408.51 C 1372.02 1414.66 1373.4 1420.11 1376.37 1425.7 C 1382.25 1437.87 1395.41 1448.5 1408.03 1452.77 C 1411.81 1454.06 1412.7 1454.01 1416.64 1455.84 C 1410.27 1456.08 1408.8 1455.47 1402.6 1452.77 C 1371.31 1439.16 1362.27 1404.98 1370.26 1373.6 z" fill="rgb(43,30,46)" transform="translate(0,0)"></path>
<path d="M 925.171 558.994 C 929.702 565.831 936.122 572.477 942.58 577.519 C 959.154 590.697 980.324 596.673 1001.34 594.106 C 1026.7 590.751 1042.72 579.875 1057.85 560.069 C 1074.27 615.767 1137.43 631.412 1180.45 594.291 C 1181.13 596.73 1181.83 599.162 1182.55 601.589 C 1194.51 641.841 1230.94 658.803 1270.44 646.931 C 1267.49 667.55 1265.69 688.082 1276.23 706.174 C 1276.04 721.268 1276.03 736.364 1276.2 751.458 C 1279.3 769.426 1274.5 859.489 1278.84 865.997 C 1279.06 876.23 1278.32 926.324 1279.46 932.256 C 1276.75 935.376 1276.82 938.294 1276.17 942.552 C 1272.4 993.981 1262.48 1027.1 1234.28 1070.58 C 1226.33 1080.4 1219.19 1090.99 1210.84 1100.47 C 1093.6 1233.6 871.038 1230.53 756.879 1095.23 C 743.973 1079.93 734.749 1065.51 724.564 1048.49 C 712.169 1020.6 700.336 992.803 697.952 961.881 C 695.118 925.126 696.801 888.16 695.771 851.271 C 697.065 809.28 695.933 760.526 695.943 718.025 C 713.191 692.079 718.906 676.813 708.29 646.224 C 712.563 647.669 716.924 648.841 721.345 649.734 C 738.864 653.185 757.034 649.413 771.732 639.274 C 788.13 628.044 796.496 613.393 800.195 594.246 C 844.332 632.148 907.278 616.386 925.171 558.994 z" fill="rgb(245,237,230)" transform="translate(0,0)"></path>
<path d="M 1276.2 751.458 C 1279.3 769.426 1274.5 859.489 1278.84 865.997 C 1279.06 876.23 1278.32 926.324 1279.46 932.256 C 1276.75 935.376 1276.82 938.294 1276.17 942.552 C 1276.76 879.235 1275.09 814.659 1276.2 751.458 z" fill="rgb(106,74,67)" transform="translate(0,0)"></path>
<path d="M 821.058 1002.06 C 814.922 975.128 817.063 949.888 842.585 933.438 C 859.138 922.769 881.06 925.804 900.256 925.849 L 980.336 926.052 L 1064.66 926.086 C 1079.44 926.051 1096.14 925.424 1110.54 926.648 C 1132.26 928.494 1154.28 949.769 1154.53 971.983 C 1155.18 1030.9 1117.06 1076.26 1067.13 1101.4 C 974.044 1143.5 850.262 1106.89 821.058 1002.06 z" fill="rgb(43,30,46)" transform="translate(0,0)"></path>
<path d="M 822.283 1001.46 L 821.844 996.777 L 822.696 996.035 C 846.376 1025.92 871.238 1019.07 905.67 1019.04 L 991.899 1018.98 L 1071.87 1019.19 C 1106.19 1019.33 1128 1025.2 1150.97 994.961 C 1138.88 1046.62 1111.21 1075.46 1065.43 1100.06 L 1067.13 1101.4 C 974.044 1143.5 850.262 1106.89 821.058 1002.06 L 822.283 1001.46 z" fill="rgb(255,90,31)" transform="translate(0,0)"></path>
<path d="M 822.283 1001.46 C 838.216 1047.35 859.891 1075.62 904.797 1097.94 C 946.637 1118.74 1002.85 1121.84 1047.11 1107.04 C 1052.9 1105.1 1060.07 1101.72 1065.43 1100.06 L 1067.13 1101.4 C 974.044 1143.5 850.262 1106.89 821.058 1002.06 L 822.283 1001.46 z" fill="rgb(111,29,15)" transform="translate(0,0)"></path>
<path d="M 890.009 927.806 L 984.071 927.998 C 984.586 957.303 984.144 987.547 984.228 1016.98 C 953.78 1017.45 920.444 1017.39 890.037 1016.98 L 890.009 927.806 z" fill="rgb(245,237,230)" transform="translate(0,0)"></path>
<path d="M 986.68 928.012 L 1079.96 928.083 C 1080.27 952.028 1079.75 976.077 1079.94 1000.03 C 1079.98 1005.56 1080.13 1011.78 1079.75 1017.24 L 1022.48 1017.21 C 1010.79 1017.29 998.25 1017.79 986.666 1017.07 C 986.86 987.279 986.235 957.945 986.68 928.012 z" fill="rgb(245,237,230)" transform="translate(0,0)"></path>
<path d="M 1082.32 928.207 C 1090.73 927.999 1103.98 927.451 1112.01 928.808 C 1118.59 929.918 1124.87 932.374 1130.45 936.021 C 1141.71 943.33 1148.94 953.893 1151.84 967.032 C 1155.48 983.504 1150.79 993.572 1139.14 1005.28 C 1122.91 1018.63 1104.06 1019.2 1083.73 1017.3 L 1082.04 1017.17 C 1082.15 988.242 1081.46 956.923 1082.32 928.207 z" fill="rgb(245,237,230)" transform="translate(0,0)"></path>
<path d="M 861.336 928.152 C 870.797 927.779 878.384 927.81 887.887 927.895 L 887.921 1016.91 C 876.11 1016.94 862.251 1017.93 850.896 1015.26 C 837.949 1009.96 824.191 1001.3 821.085 986.515 C 815.253 958.749 834.189 933.857 861.336 928.152 z" fill="rgb(245,237,230)" transform="translate(0,0)"></path>
<path d="M 1092.64 625.433 C 1155.58 622.222 1215.43 652.926 1232.49 716.647 C 1216.56 709.809 1204.53 705.51 1188.08 700.556 C 1169.87 696.236 1151.24 693.894 1132.53 693.571 C 1104.84 693.265 1067.82 705.717 1048.6 690.041 C 1041.61 684.447 1037.23 676.231 1036.47 667.311 C 1035.49 657.552 1038.53 647.816 1044.88 640.344 C 1056.68 626.623 1075.99 626.521 1092.64 625.433 z" fill="rgb(43,30,46)" transform="translate(0,0)"></path>
<path d="M 870.507 625.418 C 883.784 624.597 896.583 625.998 909.804 627.815 C 936.682 631.509 951.239 662.34 934.966 684.555 C 919.014 706.332 887.145 695.276 864.162 694.322 C 843.34 693.457 825.967 694.761 805.315 697.857 C 779.95 703.242 769.656 706.691 746.244 716.513 C 765.962 656.586 808.67 629.547 870.507 625.418 z" fill="rgb(43,30,46)" transform="translate(0,0)"></path>
<path d="M 1110.45 787.417 C 1121.75 784.069 1133.63 790.515 1136.98 801.817 C 1140.33 813.119 1133.89 824.999 1122.59 828.354 C 1111.28 831.71 1099.4 825.263 1096.04 813.957 C 1092.69 802.65 1099.14 790.767 1110.45 787.417 z" fill="rgb(43,30,46)" transform="translate(0,0)"></path>
<path d="M 856.544 787.252 C 863.984 785.298 871.899 787.516 877.241 793.051 C 882.582 798.586 884.518 806.574 882.301 813.94 C 880.085 821.306 874.063 826.9 866.554 828.568 C 855.246 831.081 844.008 824.079 841.281 812.821 C 838.553 801.563 845.34 790.193 856.544 787.252 z" fill="rgb(43,30,46)" transform="translate(0,0)"></path>
<path d="M 750.15 847.169 L 748.298 847.462 C 747.915 841.976 747.637 836.482 747.465 830.985 C 746.575 800.103 755.053 773.301 776.617 750.729 C 796.696 729.548 824.413 717.279 853.592 716.656 C 881.923 716.107 909.339 726.697 929.945 746.148 C 939.838 753.584 954.966 773.336 956.213 785.773 C 945.538 767.715 945.191 763.203 929.067 747.822 C 905.662 727.519 879.583 716.924 848.344 719.038 C 819.535 720.934 792.719 734.408 774.003 756.392 C 749.745 784.44 748.428 812.081 750.15 847.169 z" fill="rgb(43,30,46)" transform="translate(0,0)"></path>
<path d="M 1028.33 780.025 L 1026.91 780.016 C 1028.72 767.935 1049.12 746.378 1059.6 738.681 C 1083.43 720.989 1113.37 713.62 1142.68 718.23 C 1171.8 722.984 1197.85 739.093 1215.12 763.024 C 1233 787.816 1237.52 817.043 1233.71 846.83 C 1233.61 847.573 1233.12 848.279 1232.74 848.901 C 1231.95 844.573 1232.21 835.478 1232.46 830.948 C 1234.76 789.196 1212.94 750.665 1175.35 731.134 C 1149.99 717.758 1120.34 715.059 1092.97 723.638 C 1063.04 733.33 1042.4 752.255 1028.33 780.025 z" fill="rgb(43,30,46)" transform="translate(0,0)"></path>
<path d="M 958.334 798.441 C 961.038 798.242 981.394 796.819 981.87 799.565 C 981.39 800.607 960.161 800.099 955.018 801.193 C 943.532 803.732 933.589 810.867 927.507 820.935 C 910.875 848.554 933.134 880.228 962.848 884.097 C 967.341 884.132 977.611 883.845 981.537 884.874 L 980.637 886.41 C 976.188 887.633 969.247 887.107 964.701 886.159 C 942.016 884.825 926.787 869.542 920.352 848.748 C 917.899 822.231 932.523 803.981 958.334 798.441 z" fill="rgb(43,30,46)" transform="translate(0,0)"></path>
<path d="M 962.848 884.097 C 967.341 884.132 977.611 883.845 981.537 884.874 C 974.945 885.465 969.172 885.914 962.848 884.097 z" fill="rgb(141,126,113)" transform="translate(0,0)"></path>
<path d="M 964.701 886.159 C 969.555 885.807 975.819 885.692 980.637 886.41 C 976.188 887.633 969.247 887.107 964.701 886.159 z" fill="rgb(141,126,113)" transform="translate(0,0)"></path>
<path d="M 772.31 905.705 C 772.242 905.243 772.127 902.712 771.513 902.453 C 771.716 902.389 761.964 910.142 761.384 910.589 C 748.966 920.165 733.718 917.035 737.195 898.971 C 737.519 897.288 739.639 892.86 741.452 892.055 C 743.165 892.885 739.031 900.288 738.279 902.214 C 738.689 904.3 738.455 904.813 738.253 907.033 C 748.123 926.77 770.156 900.02 778.984 891.557 C 777.451 895.572 776.012 899.971 774.487 903.819 C 775.52 913.092 775.93 916.804 788.014 915.013 C 801.047 913.082 806.209 901.563 814.212 894.586 C 822.526 887.338 805.33 911.325 799.741 911.693 C 797.928 911.812 786.834 920.37 780.976 917.411 C 774.072 915.982 773.524 912.007 772.31 905.705 z" fill="rgb(43,30,46)" transform="translate(0,0)"></path>
<path d="M 738.279 902.214 C 738.689 904.3 738.455 904.813 738.253 907.033 C 737.795 904.574 737.735 904.716 738.279 902.214 z" fill="rgb(141,126,113)" transform="translate(0,0)"></path>
<path d="M 1216.73 910.086 C 1216.34 908.894 1215.16 904.927 1214.45 904.099 C 1208.63 905.776 1195.68 924.704 1181.62 916.558 C 1174.18 912.248 1175.54 894.284 1180.93 891.625 L 1181.27 891.715 C 1181.75 892.766 1175.76 905.602 1179.7 911.598 C 1184.17 918.387 1192.14 916.359 1198.57 913.528 C 1204.68 909.716 1212 904.047 1216.33 898.322 C 1219.82 893.701 1221.4 896.6 1218 900.488 C 1215.68 903.133 1217.67 907.356 1219.05 910.057 L 1219.27 910.483 L 1216.73 910.086 z" fill="rgb(43,30,46)" transform="translate(0,0)"></path>
<path d="M 1220.16 911.062 C 1237.09 915.925 1241.59 900.194 1246.34 899.409 C 1246.4 899.446 1246.46 899.483 1246.53 899.52 L 1246.54 899.767 L 1246.49 899.499 C 1243.89 909.205 1230 916.342 1219.55 912.575 L 1220.16 911.062 z" fill="rgb(43,30,46)" transform="translate(0,0)"></path>
<path d="M 520.407 678.305 C 515.965 697.713 516.409 713.726 527.48 731.073 C 536.052 744.556 549.768 753.945 565.439 757.058 C 571.906 758.396 578.878 758.477 585.485 758.681 C 575.407 792.419 581.231 810.547 606.18 834.694 C 548.409 862.424 550.623 926.037 575.094 977.179 C 595.366 1019.55 630.963 1049.28 677.857 1056.8 C 662.367 1060.85 648.552 1068.07 633.832 1074.09 C 593.257 1090.68 557.033 1108.17 533.709 1147.25 C 512.527 1182.73 511.332 1239.98 530.053 1276.65 C 536.695 1291.61 543.564 1302.54 553.885 1315.34 C 528.194 1324.71 506.606 1337.74 494.699 1363.82 C 486.794 1381.43 486.224 1401.46 493.114 1419.48 C 497.54 1430.92 503.799 1438.55 511.83 1447.64 L 505.65 1452.41 C 497.603 1457.24 483.051 1469.49 475.835 1475.76 C 414.783 1528.79 374.201 1607.23 344.302 1681.23 C 297.801 1649 263.536 1612.17 239.724 1559.98 C 198.27 1469.54 209.641 1363.67 269.355 1284.1 C 307.693 1232.07 355.19 1211.81 355.898 1135.02 C 356.271 1094.62 345.045 1062.9 330.149 1025.83 C 323.348 1008.9 315.31 992.978 309.945 975.402 C 303.255 953.65 300.164 930.951 300.794 908.202 C 301.441 884.397 306.022 860.863 314.351 838.554 C 334.719 784.988 383.311 734.773 435.883 712.743 C 464.208 700.874 491.88 691.219 520.407 678.305 z" fill="rgb(78,205,196)" transform="translate(0,0)"></path>
<path d="M 1471.97 513.152 C 1478.35 513.752 1490.55 517.314 1497.07 519.224 C 1543.35 532.351 1584.67 558.953 1615.77 595.642 C 1645.36 631.239 1659.39 672.086 1655.73 718.631 C 1650.82 781.203 1608.91 809.343 1626.69 874.832 C 1632.06 894.501 1641.62 912.777 1654.71 928.41 C 1670.39 947.494 1683.87 956.485 1702.59 971.639 C 1731.92 995.383 1754.13 1029.59 1768.76 1064.09 C 1722.62 1046.74 1688.85 1058.34 1656.97 1095.68 C 1603.24 1074.31 1551.6 1105.91 1541.12 1161.64 C 1505.21 1147.39 1472.94 1151.55 1445.08 1179.25 C 1425.14 1110.85 1361.56 1079.84 1298.59 1059.22 L 1297.59 1056.05 C 1302.78 1055.4 1308.06 1054.6 1313.18 1053.45 C 1393.93 1035.3 1461.46 890.444 1375.87 838.346 C 1372.97 836.792 1373.61 837.488 1371.49 835.217 C 1397.32 812.951 1406.96 789.601 1392.65 756.791 C 1397.65 757.099 1403.4 757.758 1408.31 757.709 C 1424.31 757.465 1439.53 750.733 1450.48 739.056 C 1461.91 727.147 1468.01 711.106 1467.38 694.611 C 1466.71 673.2 1457.3 660.028 1442.25 646.092 C 1496.55 619.63 1508.32 560.634 1471.97 513.152 z" fill="rgb(165,104,179)" transform="translate(0,0)"></path>
<path d="M 1806.6 1705.39 C 1809.35 1707.63 1812.57 1710.66 1815.28 1713.06 C 1832.98 1735.33 1828.83 1748.44 1829.02 1775.39 C 1829.23 1805.04 1829.4 1834.94 1828.37 1864.54 C 1827.06 1891.91 1805.41 1907.22 1784.76 1920.42 C 1705.45 1962.13 1605.43 1970.56 1518.26 1952.9 C 1476.45 1944.43 1416.8 1927.86 1392.44 1890.7 C 1387.88 1883.74 1385.07 1876.61 1383.86 1868.39 C 1381.73 1854.04 1382.06 1748.95 1384.98 1735.99 C 1387.75 1723.66 1394.65 1712.79 1405.3 1705.88 C 1405.45 1716.81 1406.01 1730.9 1403.62 1741.3 C 1401.65 1740.46 1398.37 1734.11 1394.83 1730.44 L 1395.03 1732.02 L 1396.01 1731.64 L 1395.38 1732.8 C 1404.66 1751.51 1425.28 1767.04 1443.8 1776.46 C 1524.8 1817.64 1635.7 1819.51 1721.98 1794.11 C 1750.14 1785.82 1782.74 1770.44 1804 1749.47 C 1807.53 1745.99 1813.03 1735.78 1815.49 1731.17 C 1811.36 1734.66 1807.21 1741.71 1804.01 1746.48 C 1803.58 1731.91 1805.07 1719.83 1806.6 1705.39 z" fill="rgb(255,209,102)" transform="translate(0,0)"></path>
<path d="M 531.327 1274.98 C 514.056 1238.09 513.581 1186.44 533.831 1150.43 C 556.685 1109.79 595.111 1091.52 636.416 1074.54 C 657.052 1066.05 676.077 1056.15 698.928 1055.53 C 705.959 1055.3 716.732 1052.24 723.631 1050.27 C 726.464 1056.2 731.268 1063.43 734.849 1069.16 C 720.649 1082.78 710.717 1096.83 699.947 1112.97 C 686.382 1133.88 681.475 1144.52 670.165 1166.18 C 645.496 1172.75 618.036 1184.25 604.423 1207.42 C 598.051 1218.06 596.509 1230.91 600.183 1242.76 C 609.107 1272.25 643.201 1288.73 669.195 1299.93 C 669.377 1301.69 670.078 1309.58 670.456 1310.78 C 670.819 1317.67 672.612 1325.88 673.913 1332.79 C 652.046 1350.48 653.406 1383.46 656.784 1408.69 C 661.815 1446.28 675.573 1477.84 696.633 1508.89 C 651.748 1506.38 605.04 1497.34 563.739 1479.15 C 536.883 1467.32 504.663 1446.28 494.137 1417.49 C 483.342 1387.96 494.516 1355.16 518.65 1335.85 C 530.76 1325.96 540.518 1321.95 555.013 1316.75 C 566.603 1328.61 581.964 1344.43 597.394 1350.72 C 595.446 1348.35 582.913 1339.83 579.106 1336.62 C 557.766 1318.63 542.354 1300.78 531.327 1274.98 z" fill="rgb(179,6,237)" transform="translate(0,0)"></path>
<path d="M 1113.94 1194.45 L 1114.12 1255.57 C 1114.13 1260.64 1114.56 1285.67 1113.37 1288.48 C 1095.41 1330.73 1073.3 1370.47 1057.99 1414.13 C 1021.04 1430.58 969.328 1436.46 929.184 1431.16 C 925.842 1431.11 920.429 1430.13 916.96 1429.61 C 908.282 1402.97 889.825 1362.92 877.72 1337.63 C 869.086 1318.07 857.624 1295.8 847.86 1276.64 C 865.46 1282.51 889.37 1284.79 908.131 1285.02 C 971.138 1285.79 1030.63 1265.8 1080.43 1227.33 C 1091.64 1218.67 1103.46 1204.66 1113.94 1194.45 z" fill="rgb(245,237,230)" transform="translate(0,0)"></path>
<path d="M 1278.84 865.997 C 1302.27 833.539 1338.3 822.685 1375.05 839.92 C 1458.22 893.394 1393.01 1035.19 1309.02 1052.26 C 1289.23 1056.14 1268.77 1054.54 1249.83 1047.64 C 1267.84 1012.31 1276.26 980.175 1278.74 940.635 C 1278.92 937.822 1283.5 929.008 1285.24 926.3 C 1300.41 902.723 1331.1 876.329 1360.12 893.488 C 1361.01 894.12 1361.01 894.052 1361.58 894.948 C 1376.87 910.229 1371.01 919.601 1367.84 936.939 L 1368.99 937.398 C 1371.44 932.509 1371.97 929.629 1373.25 924.415 C 1372.79 920.192 1372.37 919.807 1373.37 915.79 C 1372.17 907.159 1368.85 897.223 1361.28 892.345 C 1330.79 872.68 1299.09 902.307 1283.83 925.417 C 1282.34 927.679 1280.88 929.959 1279.46 932.256 C 1278.32 926.324 1279.06 876.23 1278.84 865.997 z" fill="rgb(245,237,230)" transform="translate(0,0)"></path>
<path d="M 1373.37 915.79 C 1374.58 919.078 1373.92 920.955 1373.25 924.415 C 1372.79 920.192 1372.37 919.807 1373.37 915.79 z" fill="rgb(141,126,113)" transform="translate(0,0)"></path>
<path d="M 722.686 1048.61 C 707.421 1053.28 690.985 1056.45 675.043 1054.32 C 604.05 1044.8 554.087 964.578 561.877 896.433 C 566.677 854.449 603.775 826.014 645.353 832.556 C 667.656 836.066 681.192 847.357 694.103 865.034 C 694.07 886.664 694.345 909.37 693.915 930.918 C 690.163 924.573 686.658 917.974 681.379 912.81 L 680.954 915.059 C 697.481 935.757 693.26 937.996 695.521 962.325 C 698.097 990.043 710.342 1023.65 722.686 1048.61 z" fill="rgb(245,237,230)" transform="translate(0,0)"></path>
<path d="M 677.865 911.695 C 666.38 898.25 647.359 885.902 629.005 888.382 C 604.526 891.69 595.408 913.852 605.818 935.013 C 606.275 935.946 606.484 936.787 605.812 937.595 C 605.402 937.544 604.851 937.101 604.65 936.771 C 596.013 922.656 597.67 904.444 611.034 893.835 C 620.051 886.678 631.918 884.728 642.999 886.979 C 655.736 889.567 674.378 901.866 681.379 912.81 L 677.865 911.695 z" fill="rgb(43,30,46)" transform="translate(0,0)"></path>
<path d="M 677.865 911.695 L 681.379 912.81 L 680.954 915.059 C 679.908 913.953 678.878 912.831 677.865 911.695 z" fill="rgb(141,126,113)" transform="translate(0,0)"></path>
<path d="M 1205.55 1255.68 C 1218.28 1262.85 1231.93 1267.47 1244.21 1275.18 C 1263.21 1287.1 1254.34 1318.73 1242.27 1332.51 C 1235.1 1340.07 1225.7 1346.6 1219.25 1354.76 C 1189.91 1391.84 1170.27 1443.66 1174.99 1491.19 C 1164.82 1512.41 1153.84 1541.5 1134.59 1553.39 C 1131.4 1554.4 1128.07 1555.16 1124.81 1555.96 C 1111.44 1553.14 1096.17 1543.11 1083.41 1536.3 C 1111.47 1437.75 1152.54 1343.38 1205.55 1255.68 z" fill="rgb(255,90,31)" transform="translate(0,0)"></path>
<path d="M 763.535 1257.96 L 765.314 1258.3 C 772.478 1265.87 785.286 1292.45 790.532 1302.32 C 831.6 1379.59 860.683 1452.43 883.28 1537.17 C 867.506 1545.69 854.753 1555.27 836.995 1554.95 C 835.803 1554.7 834.62 1554.41 833.448 1554.08 C 816.155 1549.09 806.421 1516.88 799.522 1501.57 C 791.464 1483.68 794.423 1461.02 790.342 1440.9 C 786.924 1424.62 781.618 1408.8 774.532 1393.75 C 769.015 1382.17 757.319 1361.04 748.331 1352.23 C 731.664 1335.88 710.166 1316.98 717.241 1290.37 C 721.656 1273.76 748.532 1264.86 763.535 1257.96 z" fill="rgb(255,90,31)" transform="translate(0,0)"></path>
<path d="M 1248.5 1049.64 C 1262.31 1053.57 1277.57 1054.82 1290.62 1058.94 C 1356.29 1079.68 1422.32 1109.28 1443.5 1180.77 C 1429.36 1200.75 1427.31 1207.25 1423.84 1231.1 C 1402.85 1224.46 1384.58 1229.04 1365.27 1237.51 C 1369.7 1203.32 1334.37 1174.56 1304.38 1167.3 C 1288.85 1131.71 1264.4 1096.58 1238.39 1067.85 L 1248.5 1049.64 z" fill="rgb(179,6,237)" transform="translate(0,0)"></path>
<path d="M 771.846 1253.19 C 792.408 1242.94 813.349 1227.77 832.54 1253.04 C 840.052 1262.93 844.283 1275.36 850.34 1286.15 C 859.058 1303.79 868.148 1321.5 876.621 1339.21 L 881.815 1350.32 C 896.531 1381.93 909.697 1414.25 921.265 1447.15 C 925.75 1459.74 930.662 1471.93 933.057 1485.13 C 939.19 1518.93 910.055 1526.43 885.569 1536.62 C 876.388 1509.02 870.163 1480.52 860.069 1453.22 C 850.675 1428.1 841.186 1402.27 829.937 1377.91 C 811.052 1337.01 790.547 1296.6 768.209 1257.48 C 768.274 1256.83 768.339 1256.18 768.403 1255.53 L 771.846 1253.19 z" fill="rgb(255,90,31)" transform="translate(0,0)"></path>
<path d="M 1157.32 1239.2 C 1174.09 1237.58 1188.37 1247.2 1203.42 1254.86 C 1149.03 1349.41 1111.21 1429.37 1081.61 1535.89 C 1066.25 1528.95 1027.63 1515.57 1034 1491.09 C 1053.66 1416.14 1088.67 1344.41 1123.55 1275.45 C 1132.76 1257.24 1137.65 1247.08 1157.32 1239.2 z" fill="rgb(255,90,31)" transform="translate(0,0)"></path>
<path d="M 1194.75 1487.26 C 1196.41 1433.97 1217.21 1382.69 1255.51 1345.16 C 1268.39 1332.53 1289 1322.36 1303.24 1339.19 C 1315.33 1353.47 1314.23 1381.53 1312.9 1399.09 C 1307.18 1445.57 1285.7 1494.84 1250.3 1526.36 C 1242.27 1533.51 1229.16 1539.41 1218.48 1537.89 C 1199.17 1535.14 1195.18 1507.62 1194.75 1491.74 C 1193.4 1490.02 1193.4 1488.96 1194.75 1487.26 z" fill="rgb(255,90,31)" transform="translate(0,0)"></path>
<path d="M 1194.75 1491.74 C 1193.4 1490.02 1193.4 1488.96 1194.75 1487.26 C 1194.99 1489.57 1194.99 1489.52 1194.75 1491.74 z" fill="rgb(111,29,15)" transform="translate(0,0)"></path>
<path d="M 682.541 1332.2 C 689.548 1331.82 698.735 1334.1 704.739 1338.4 C 754.975 1374.38 791.875 1471.16 763.216 1529.16 C 760 1535.67 755.344 1538.62 748.611 1540.03 C 739.728 1538.91 734.988 1538.4 726.767 1533.99 C 696.667 1517.84 675.944 1473.77 666.284 1442.75 C 658.321 1417.19 650.908 1371.1 664.526 1346.16 C 668.889 1338.17 674.017 1334.55 682.541 1332.2 z" fill="rgb(255,90,31)" transform="translate(0,0)"></path>
<path d="M 1031.85 1497.62 C 1037 1514.18 1040.8 1517.88 1055.35 1526.44 C 1057.38 1533.23 1056.8 1589.74 1055.17 1597.55 L 1055.31 1611.98 C 1048.58 1613.19 1041.76 1614.47 1035.02 1615.57 C 1006.34 1620.02 982.206 1621.35 953.034 1620.91 C 948.118 1620.25 942.247 1619.97 937.23 1619.61 L 935.428 1619.18 C 931.907 1619.03 926.627 1618.12 923.002 1617.6 C 905.562 1615.48 889.842 1609.48 874.929 1607.65 L 875.092 1543.29 C 892.845 1535.39 915.496 1528.57 928.719 1515.16 C 939.742 1525.83 945.694 1533.36 953.584 1546.32 C 960.824 1559.94 967.03 1572.91 969.349 1588.34 C 969.733 1591.46 969.281 1592.81 971.009 1594.57 C 973.914 1590.16 977.722 1573.4 979.907 1566.93 C 988.747 1540.76 1009.28 1513.31 1031.85 1497.62 z" fill="rgb(179,6,237)" transform="translate(0,0)"></path>
<path d="M 1055.35 1526.44 C 1057.38 1533.23 1056.8 1589.74 1055.17 1597.55 C 1053.66 1579.49 1055.63 1559.69 1055.04 1541.47 C 1054.89 1536.56 1054.85 1531.32 1055.35 1526.44 z" fill="rgb(147,7,182)" transform="translate(0,0)"></path>
<path d="M 997.771 1432.34 C 1018.85 1430.65 1036.71 1425.11 1056.25 1417.47 C 1049.89 1433.62 1032.06 1479.45 1031.94 1495.21 C 999.352 1515.97 982.649 1549.72 971.511 1585.13 C 964.822 1569.33 966.011 1563.11 954.765 1544.49 C 951.641 1535.98 936.483 1519.97 929.886 1513.42 C 930.516 1512.24 931.121 1511.04 931.701 1509.83 C 942.502 1487.18 926.019 1455.01 917.407 1431.35 C 922.022 1431.86 926.864 1432.68 931.479 1433.37 C 956.725 1434.83 970.734 1434.63 995.969 1432.76 L 997.771 1432.34 z" fill="rgb(147,7,182)" transform="translate(0,0)"></path>
<path d="M 1236.39 1070.73 C 1255.39 1081.33 1296.81 1150.67 1303.54 1172.99 C 1308.76 1190.32 1304.02 1204.72 1289.9 1215.71 C 1274.04 1221.32 1264.24 1226.01 1247.51 1217.56 C 1235 1208.24 1230.16 1192.75 1222.84 1178.65 C 1211.18 1158.77 1200.66 1144.96 1186.64 1126.7 C 1206.26 1110.81 1221.49 1090.92 1236.39 1070.73 z" fill="rgb(255,90,31)" transform="translate(0,0)"></path>
<path d="M 701.176 1114.14 C 711.761 1098.66 722.035 1083.31 736.33 1070.95 C 745.457 1085.47 751.912 1093.21 763.757 1105.7 C 767.441 1109.59 784.62 1125.73 786.418 1128.83 C 774.226 1142.46 763.413 1157.32 753.835 1172.88 C 746.063 1185.51 742.004 1201.16 731.8 1212.1 C 721.958 1222.66 711.006 1223.33 697.713 1221.94 C 694.029 1220.6 689.846 1218.64 686.206 1217.04 C 649.59 1195.21 675.347 1158.96 690.208 1132 C 693.521 1125.99 697.545 1119.99 701.176 1114.14 z" fill="rgb(255,90,31)" transform="translate(0,0)"></path>
<path d="M 1057.02 1526.97 C 1064.42 1530.27 1072.99 1533.83 1080.19 1537.33 L 1080.32 1779.05 C 1080.29 1816.21 1078.71 1868 1080.57 1904.33 L 1080.23 1905.48 C 1068.67 1903.69 1068.85 1903.82 1057.51 1905.53 L 1057.55 1903.94 C 1056.03 1897.12 1056.64 1874.53 1056.67 1866.42 L 1056.86 1799.86 L 1057.02 1526.97 z" fill="rgb(245,237,230)" transform="translate(0,0)"></path>
<path d="M 1057.55 1903.94 C 1065.05 1901.45 1073.16 1901.59 1080.57 1904.33 L 1080.23 1905.48 C 1068.67 1903.69 1068.85 1903.82 1057.51 1905.53 L 1057.55 1903.94 z" fill="rgb(91,88,89)" transform="translate(0,0)"></path>
<path d="M 752.312 1179.65 C 792.296 1194.15 804.613 1200.04 840.799 1223.01 C 841.937 1233.04 841.528 1252.32 841.611 1263.12 C 818.71 1226.36 802.448 1234.71 770.397 1252.56 C 741.19 1268.45 706.44 1271.04 716.24 1313.2 L 694.825 1307.59 C 691.113 1279.09 694.385 1251.95 699.732 1223.97 C 734.241 1225.54 739.58 1206.62 752.312 1179.65 z" fill="rgb(147,7,182)" transform="translate(0,0)"></path>
<path d="M 1115.98 1246.2 C 1146.68 1216.7 1184.64 1199.12 1223.83 1183.85 C 1229.98 1197.65 1233.65 1208.76 1245.58 1218.6 C 1255.67 1223.79 1260.64 1223.57 1271.79 1224.51 C 1272.36 1225.05 1272.92 1225.59 1273.49 1226.13 C 1278.05 1260.59 1281.79 1266.69 1278.4 1304.07 C 1269.12 1306.48 1264.28 1308.34 1255.33 1311.98 C 1259.13 1296.16 1258.11 1279.79 1241.4 1271.63 C 1217.47 1259.95 1193.42 1245.88 1168.23 1237.4 C 1165.3 1236.42 1159.67 1237.12 1156.73 1237.9 C 1135.23 1242.91 1126.66 1267.15 1116.11 1285.56 C 1115.55 1273.52 1115.96 1258.46 1115.98 1246.2 z" fill="rgb(147,7,182)" transform="translate(0,0)"></path>
<path d="M 668.383 1169 C 663.846 1188.22 663.2 1200.02 678.642 1214.65 C 668.647 1245.48 667.258 1265.3 669.018 1297.08 C 656.498 1291.88 646.436 1287.63 635.005 1280.42 C 634.321 1280.14 634.442 1280.16 633.799 1279.59 C 616.864 1267.79 606.606 1257.84 601.063 1237.69 C 600.447 1231.98 600.781 1227.54 601.04 1221.86 C 609.926 1192.47 639.832 1175.09 668.383 1169 z" fill="rgb(147,7,182)" transform="translate(0,0)"></path>
<path d="M 1274.5 1225.57 L 1275.04 1223.7 C 1281.36 1221.32 1286.08 1219.32 1292.2 1216.46 C 1305.61 1243 1302.82 1302.06 1298.38 1331.58 C 1289.21 1327.97 1280.9 1326.3 1271.58 1331.32 C 1240.36 1348.13 1215.67 1390.25 1204.55 1422.42 C 1192.83 1456.33 1184.76 1502.28 1204.82 1534.21 C 1192.98 1527.79 1183.68 1520.69 1180.21 1506.61 C 1165.56 1447.24 1196.75 1370.99 1244.25 1333.95 C 1250.72 1328.91 1269.79 1320.8 1277.39 1326.26 C 1279.49 1322.49 1279.6 1312.87 1280 1308.31 C 1282.43 1280.62 1281.51 1252.68 1274.5 1225.57 z" fill="rgb(255,90,31)" transform="translate(0,0)"></path>
<path d="M 1185.24 1128.53 C 1197.51 1142.56 1212.07 1164.88 1221.93 1180.6 C 1220.14 1183.53 1198.04 1192.07 1192.89 1194.34 C 1181.9 1199.28 1171.14 1204.68 1160.63 1210.54 C 1141.83 1220.97 1131.97 1228.81 1116.01 1243.14 C 1116.04 1228.88 1116.65 1207.28 1115.44 1193.6 L 1114.82 1173.14 C 1140.21 1162.87 1164.53 1146.32 1185.24 1128.53 z" fill="rgb(179,6,237)" transform="translate(0,0)"></path>
<path d="M 1305.05 1169.38 C 1335.19 1178.22 1366.1 1204.04 1363.53 1238.23 C 1350.18 1247.85 1340.99 1256.26 1334.01 1271.45 C 1329.63 1282.52 1315.73 1286.42 1304.07 1291.99 C 1305.09 1264.41 1302.95 1241.05 1294.36 1214.9 C 1309.18 1200.2 1309.04 1188.39 1305.05 1169.38 z" fill="rgb(147,7,182)" transform="translate(0,0)"></path>
<path d="M 787.572 1129.74 C 790.037 1130.63 790.484 1130.98 792.587 1132.82 C 807.779 1146.13 823.774 1155.12 840.978 1165.32 C 840.887 1179.94 842.147 1207.24 841.046 1220.64 C 824.256 1209.35 808.413 1200.02 789.834 1191.98 C 779.015 1187.3 763.501 1182.69 753.803 1177.13 C 760.591 1166.06 766.006 1157.41 773.947 1147.01 C 777.942 1141.78 784.318 1134.63 787.572 1129.74 z" fill="rgb(179,6,237)" transform="translate(0,0)"></path>
<path d="M 1057.51 1905.53 C 1068.85 1903.82 1068.67 1903.69 1080.23 1905.48 C 1096.81 1915.09 1100.99 1924.15 1102.86 1942.94 C 1080.57 1956.13 1057.51 1956.81 1035.49 1942.68 C 1038.16 1924.82 1042.08 1915.8 1057.51 1905.53 z" fill="rgb(245,237,230)" transform="translate(0,0)"></path>
<path d="M 831.159 1923.02 C 841.247 1906.24 854.117 1899.89 872.959 1906.95 C 882.576 1912.11 895.148 1929.39 892.688 1943.4 C 892.269 1945.79 875.396 1950.57 871.511 1951.32 C 863.569 1952.8 855.419 1952.78 847.487 1951.24 C 839.838 1949.97 833.366 1947.37 826.967 1943.03 L 826.024 1942.4 L 826.998 1936 C 827.516 1932.63 829.788 1926.13 831.159 1923.02 z" fill="rgb(245,237,230)" transform="translate(0,0)"></path>
<path d="M 787.643 1529.18 C 782.748 1528.84 776.939 1529.73 781.64 1524.68 C 788.883 1516.91 791.242 1501.31 793.636 1491.37 C 799.016 1505.2 804.52 1517.5 810.638 1530.97 C 808.149 1531.68 807.175 1531.41 804.598 1531.23 C 799.551 1530.84 795.175 1529.97 790.049 1529.74 C 788.807 1529.28 788.95 1529.3 787.643 1529.18 z" fill="rgb(147,7,182)" transform="translate(0,0)"></path>
<path d="M 1175.88 1495.1 C 1177.79 1505.17 1178.9 1514.86 1185.86 1523.04 C 1187.77 1525.3 1187.95 1525.51 1185.9 1527.23 L 1182.01 1527.89 C 1175.77 1529 1162.93 1533.21 1157.2 1531.13 C 1163.21 1519.23 1169.38 1506.65 1175.88 1495.1 z" fill="rgb(179,6,237)" transform="translate(0,0)"></path>
<path d="M 1275.52 1307.02 C 1279.16 1307.89 1276.75 1318.85 1276.53 1322.5 C 1265.2 1323.2 1262.58 1323.38 1251.37 1327.89 C 1245.93 1328.68 1252.99 1316.96 1254.06 1314.55 C 1261.16 1311.81 1268.17 1308.96 1275.52 1307.02 z" fill="rgb(179,6,237)" transform="translate(0,0)"></path>
<path d="M 694.827 1310.36 C 702.981 1311.96 709.641 1313.43 717.591 1316.39 C 719.723 1320.74 721.662 1325.18 723.403 1329.7 C 709.185 1324.81 713.069 1323.86 696.619 1322.42 C 695.911 1317.72 695.815 1315.26 694.827 1310.36 z" fill="rgb(179,6,237)" transform="translate(0,0)"></path>
<path d="M 1298.59 1059.22 C 1295.3 1057.92 1288.87 1056.16 1297.59 1056.05 L 1298.59 1059.22 z" fill="rgb(161,94,176)" transform="translate(0,0)"></path>
<metadata><recraft-signature>{"signed_by": "recraft", "signature_b64": "sm6uwjAolhAoOKltpml53frvqzsyFGDN65h26FGVf0IG+TgRV75fXO9WizjmuhvfAOe5YNL+iDvHP2SKIbMeDg==", "signing_algo": "Ed25519", "generation_timestamp": 1783346027, "identifier": "d8c804ca-690f-4213-bba9-c9c54d3de4c7"}</recraft-signature></metadata></svg>