<svg xmlns="http://www.w3.org/2000/svg" height="1024" preserveAspectRatio="none" style="display: block;" version="1.1" viewBox="0 0 2048 2048" width="1024">
<path d="M 0 0 L 2048 0 L 2048 2048 L 1813.51 2048 L 1557.6 2048 L 1529.2 2048 L 1488.97 2048 L 1151.45 2048 L 647.041 2048 L 590.635 2048 L 550.469 2048 L 522.838 2048 L 263.418 2048 L 0 2048 L 0 0 z" fill="rgb(43,30,46)" transform="translate(0,0)"></path>
<path d="M 1209.11 1353.68 C 1229.61 1333.55 1266.11 1336.6 1275.1 1365.73 L 1277.8 1365.68 C 1302.46 1366.89 1320.07 1380.73 1320.19 1406.41 L 1320.17 1408.11 C 1324.39 1408.63 1328.28 1410.28 1332.26 1411.73 C 1342.4 1416.61 1348.47 1420.52 1356.24 1428.97 C 1374.79 1452.38 1375.7 1471.66 1365.24 1499.29 C 1365.53 1499.41 1365.8 1499.57 1366.09 1499.64 C 1371.29 1500.95 1503.77 1457.12 1519.66 1450.8 C 1524.89 1448.72 1529.47 1445.87 1534.18 1442.81 C 1546.02 1448.03 1566.13 1460.03 1576.42 1468.2 C 1599.66 1486.86 1643.04 1525.4 1658.13 1550.72 C 1693.49 1603.07 1710.84 1655.04 1729.33 1715.32 C 1741.09 1752.95 1751.8 1790.91 1761.45 1829.14 C 1780.58 1901.66 1797.94 1974.63 1813.51 2048 L 1557.6 2048 L 1529.2 2048 L 1488.97 2048 L 1151.45 2048 L 647.041 2048 L 590.635 2048 L 550.469 2048 L 522.838 2048 L 263.418 2048 C 269.776 2021.8 274.96 1994.81 281.275 1968.5 C 297.824 1898.23 316.154 1828.39 336.248 1759.04 C 356.17 1690.43 380.433 1608.64 420.952 1549.17 C 438.658 1521.7 479.097 1484.45 505.794 1465.18 C 516.28 1456.53 536.947 1444.95 549.248 1437.94 C 581.168 1460.44 641.476 1473.6 680.085 1486 C 693.394 1490.28 726.322 1500.9 738.634 1503.77 C 744.401 1519.79 750.069 1535.85 755.64 1551.94 C 758.203 1559.49 761.316 1569.6 764.59 1576.65 C 780.125 1587.05 833.264 1612.64 850.745 1608.11 L 852.262 1611.3 C 857.769 1626.06 864.472 1646.29 870.723 1660.15 C 890.48 1688.49 906.357 1688.86 936.493 1677.65 C 960.058 1687.2 976.29 1678.66 985.731 1655.22 C 999.601 1654.9 1012.03 1649.98 1017.65 1636.3 C 1023.76 1621.44 1016.81 1606.72 1011.2 1592.97 C 1017.51 1593.17 1029.38 1597.72 1035.91 1599.87 C 1055.4 1593.67 1080.48 1578.51 1100.76 1571.99 C 1104.54 1563.73 1110.99 1542.53 1114.01 1533.41 C 1120.87 1517.28 1135.07 1475.55 1140.23 1458.95 C 1149.94 1435.96 1162.81 1396.39 1171.76 1371.7 C 1172.61 1370.16 1173.49 1368.63 1174.4 1367.13 C 1180.43 1357.39 1188.05 1354.42 1198.5 1351.97 C 1201.2 1352.39 1206.69 1353.08 1209.11 1353.68 z" fill="rgb(192,30,248)" transform="translate(0,0)"></path>
<path d="M 420.952 1549.17 C 503.967 1637.25 515.012 1763.23 548.293 1874.9 C 560.503 1932.04 579.522 1992.39 590.635 2048 L 550.469 2048 L 522.838 2048 L 263.418 2048 C 269.776 2021.8 274.96 1994.81 281.275 1968.5 C 297.824 1898.23 316.154 1828.39 336.248 1759.04 C 356.17 1690.43 380.433 1608.64 420.952 1549.17 z" fill="rgb(255,90,31)" transform="translate(0,0)"></path>
<path d="M 1658.13 1550.72 C 1693.49 1603.07 1710.84 1655.04 1729.33 1715.32 C 1741.09 1752.95 1751.8 1790.91 1761.45 1829.14 C 1780.58 1901.66 1797.94 1974.63 1813.51 2048 L 1557.6 2048 L 1529.2 2048 L 1488.97 2048 C 1496.61 2023.04 1503.56 1987.61 1510.08 1961.65 C 1516.9 1934.49 1526.19 1901.15 1531.16 1874.16 C 1546.85 1814.64 1561.6 1755.37 1580.19 1696.64 C 1597.83 1640.92 1613.61 1591.79 1658.13 1550.72 z" fill="rgb(255,90,31)" transform="translate(0,0)"></path>
<path d="M 1209.11 1353.68 C 1229.61 1333.55 1266.11 1336.6 1275.1 1365.73 L 1277.8 1365.68 C 1302.46 1366.89 1320.07 1380.73 1320.19 1406.41 L 1320.17 1408.11 C 1324.39 1408.63 1328.28 1410.28 1332.26 1411.73 C 1342.4 1416.61 1348.47 1420.52 1356.24 1428.97 C 1374.79 1452.38 1375.7 1471.66 1365.24 1499.29 C 1359.13 1517.63 1352.83 1535.9 1346.36 1554.11 C 1343.84 1562.74 1341.56 1569.23 1338.37 1577.66 C 1333.45 1580.52 1322.91 1587.12 1318.51 1589.17 C 1306.05 1594.95 1264.26 1611.05 1252.21 1609.69 L 1251.47 1611.22 C 1246.18 1627.33 1240.38 1643.27 1234.07 1659.01 C 1219.4 1686.87 1195.56 1691.14 1168.97 1677.44 C 1142.55 1687.01 1129.43 1678.47 1116.56 1655.45 C 1092.14 1653.41 1079.69 1634.29 1086.7 1611.6 C 1090.78 1598.38 1095.99 1584.97 1100.76 1571.99 C 1104.54 1563.73 1110.99 1542.53 1114.01 1533.41 C 1120.87 1517.28 1135.07 1475.55 1140.23 1458.95 C 1149.94 1435.96 1162.81 1396.39 1171.76 1371.7 C 1172.61 1370.16 1173.49 1368.63 1174.4 1367.13 C 1180.43 1357.39 1188.05 1354.42 1198.5 1351.97 C 1201.2 1352.39 1206.69 1353.08 1209.11 1353.68 z" fill="rgb(255,90,31)" transform="translate(0,0)"></path>
<path d="M 1198.5 1351.97 C 1201.2 1352.39 1206.69 1353.08 1209.11 1353.68 C 1223.36 1359.88 1236.24 1372.35 1231.89 1388.44 C 1225.97 1410.33 1216.55 1433.39 1209.27 1454.97 C 1196.93 1490.99 1184.33 1526.92 1171.48 1562.76 C 1166.42 1577.07 1158.91 1601.34 1153.49 1614.43 C 1146.46 1636.4 1143.48 1652.97 1116.56 1655.45 C 1092.14 1653.41 1079.69 1634.29 1086.7 1611.6 C 1090.78 1598.38 1095.99 1584.97 1100.76 1571.99 C 1104.54 1563.73 1110.99 1542.53 1114.01 1533.41 C 1120.87 1517.28 1135.07 1475.55 1140.23 1458.95 C 1149.94 1435.96 1162.81 1396.39 1171.76 1371.7 C 1172.61 1370.16 1173.49 1368.63 1174.4 1367.13 C 1180.43 1357.39 1188.05 1354.42 1198.5 1351.97 z" fill="rgb(43,30,46)" transform="translate(0,0)"></path>
<path d="M 1320.17 1408.11 C 1324.39 1408.63 1328.28 1410.28 1332.26 1411.73 C 1342.4 1416.61 1348.47 1420.52 1356.24 1428.97 C 1374.79 1452.38 1375.7 1471.66 1365.24 1499.29 C 1359.13 1517.63 1352.83 1535.9 1346.36 1554.11 C 1343.84 1562.74 1341.56 1569.23 1338.37 1577.66 C 1333.45 1580.52 1322.91 1587.12 1318.51 1589.17 C 1306.05 1594.95 1264.26 1611.05 1252.21 1609.69 C 1271.48 1548.77 1294.62 1488.99 1314.26 1428.15 C 1316.47 1421.31 1318.48 1415.16 1320.17 1408.11 z" fill="rgb(44,247,242)" transform="translate(0,0)"></path>
<path d="M 1151.45 2048 C 1166.05 2043.17 1196.49 2039.96 1212.6 2037.97 C 1245.37 2034.07 1278.06 2029.58 1310.67 2024.5 C 1344.67 2019.44 1382.61 2017.28 1412.5 2000.47 C 1433.04 1988.68 1449.78 1971.25 1460.73 1950.25 C 1472.24 1928.54 1476.09 1904.22 1482.25 1880.69 C 1493.32 1838.41 1501.06 1792.91 1512.9 1751 C 1518.22 1784.43 1522.04 1817.88 1526.74 1851.39 C 1527.79 1858.83 1528.61 1867.12 1531.16 1874.16 C 1526.19 1901.15 1516.9 1934.49 1510.08 1961.65 C 1503.56 1987.61 1496.61 2023.04 1488.97 2048 L 1151.45 2048 z" fill="rgb(123,17,216)" transform="translate(0,0)"></path>
<path d="M 569.983 1746.71 C 576.998 1785.16 592.639 1838.16 602.748 1877.25 L 623.339 1956.07 C 630.895 1986.13 638.425 2018.27 647.041 2048 L 590.635 2048 C 579.522 1992.39 560.503 1932.04 548.293 1874.9 C 550.544 1869.58 555.314 1838.65 556.489 1830.68 C 560.527 1803.25 566.5 1774.07 569.983 1746.71 z" fill="rgb(123,17,216)" transform="translate(0,0)"></path>
<path d="M 549.248 1437.94 C 581.168 1460.44 641.476 1473.6 680.085 1486 C 693.394 1490.28 726.322 1500.9 738.634 1503.77 C 744.401 1519.79 750.069 1535.85 755.64 1551.94 C 749.104 1551.46 742.552 1550.79 736.09 1549.78 C 673.094 1539.98 611.061 1525.78 553.869 1496.64 C 536.858 1487.97 521.464 1476.2 505.794 1465.18 C 516.28 1456.53 536.947 1444.95 549.248 1437.94 z" fill="rgb(123,17,216)" transform="translate(0,0)"></path>
<path d="M 1365.24 1499.29 C 1365.53 1499.41 1365.8 1499.57 1366.09 1499.64 C 1371.29 1500.95 1503.77 1457.12 1519.66 1450.8 C 1524.89 1448.72 1529.47 1445.87 1534.18 1442.81 C 1546.02 1448.03 1566.13 1460.03 1576.42 1468.2 C 1565.69 1476.16 1552.88 1485.96 1541.35 1492.32 C 1485.37 1523.22 1408.75 1543.88 1346.36 1554.11 C 1352.83 1535.9 1359.13 1517.63 1365.24 1499.29 z" fill="rgb(123,17,216)" transform="translate(0,0)"></path>
<path d="M 764.59 1576.65 C 780.125 1587.05 833.264 1612.64 850.745 1608.11 L 852.262 1611.3 C 857.769 1626.06 864.472 1646.29 870.723 1660.15 C 856.265 1663.97 824.637 1661.57 809.849 1653.29 C 780.207 1636.7 773.868 1607.12 764.59 1576.65 z" fill="rgb(78,205,196)" transform="translate(0,0)"></path>
<path d="M 1252.21 1609.69 C 1264.26 1611.05 1306.05 1594.95 1318.51 1589.17 C 1322.91 1587.12 1333.45 1580.52 1338.37 1577.66 C 1329.64 1607.09 1323.68 1636.97 1294.93 1652.6 C 1279.29 1661.1 1250.62 1662.44 1234.07 1659.01 C 1240.38 1643.27 1246.18 1627.33 1251.47 1611.22 L 1252.21 1609.69 z" fill="rgb(78,205,196)" transform="translate(0,0)"></path>
<path d="M 999.997 532.813 C 1005.73 543.944 1009.39 550.397 1018.98 558.788 C 1049.91 585.861 1095.72 581.473 1121.84 550.078 C 1125.41 545.787 1128.28 540.916 1131.23 536.158 C 1141.16 555.756 1152.11 569.618 1173.93 576.777 C 1192.48 582.692 1212.63 580.987 1229.92 572.039 C 1235.17 569.377 1240.34 566.024 1245.2 562.71 C 1242.52 607.363 1263.24 631.236 1305.56 643.265 C 1290.46 673.89 1296.94 699.428 1328.3 715.063 C 1308.48 739.712 1309.8 762.111 1334.52 782.984 C 1331.97 796.213 1329.81 809.418 1327.3 822.599 C 1317.72 861.666 1311.07 907.265 1304 946.948 C 1302.75 953.952 1296.76 984.908 1296.77 990.274 C 1285.37 1039.8 1267.61 1076.79 1235.64 1116.06 C 1221.78 1131.75 1211.02 1142.84 1193.92 1155.57 C 1197.75 1157.34 1212.76 1163.56 1216.85 1164.72 C 1231.15 1171.85 1246.88 1179.21 1260.03 1188.24 C 1321.85 1230.67 1361.73 1304.75 1361.12 1379.91 C 1361.01 1400.26 1359.96 1408.52 1356.24 1428.97 C 1348.47 1420.52 1342.4 1416.61 1332.26 1411.73 C 1328.28 1410.28 1324.39 1408.63 1320.17 1408.11 L 1320.19 1406.41 C 1320.07 1380.73 1302.46 1366.89 1277.8 1365.68 L 1275.1 1365.73 C 1266.11 1336.6 1229.61 1333.55 1209.11 1353.68 C 1206.69 1353.08 1201.2 1352.39 1198.5 1351.97 C 1188.05 1354.42 1180.43 1357.39 1174.4 1367.13 C 1173.49 1368.63 1172.61 1370.16 1171.76 1371.7 C 1162.81 1396.39 1149.94 1435.96 1140.23 1458.95 C 1135.07 1475.55 1120.87 1517.28 1114.01 1533.41 C 1110.99 1542.53 1104.54 1563.73 1100.76 1571.99 C 1080.48 1578.51 1055.4 1593.67 1035.91 1599.87 C 1029.38 1597.72 1017.51 1593.17 1011.2 1592.97 C 1016.81 1606.72 1023.76 1621.44 1017.65 1636.3 C 1012.03 1649.98 999.601 1654.9 985.731 1655.22 C 976.29 1678.66 960.058 1687.2 936.493 1677.65 C 906.357 1688.86 890.48 1688.49 870.723 1660.15 C 864.472 1646.29 857.769 1626.06 852.262 1611.3 L 850.745 1608.11 C 833.264 1612.64 780.125 1587.05 764.59 1576.65 C 761.316 1569.6 758.203 1559.49 755.64 1551.94 C 750.069 1535.85 744.401 1519.79 738.634 1503.77 C 728.009 1472.92 727.509 1457.41 746.865 1430.03 C 743.379 1420.53 742.988 1399.52 742.413 1388.39 C 741.565 1360.95 745.368 1333.56 753.661 1307.4 C 776.152 1237.9 818.941 1196.34 882.272 1163.91 C 888.57 1162.16 891.846 1160.52 897.773 1157.77 L 892.241 1153.05 C 875.447 1139.54 866.163 1130.41 851.869 1114.9 C 819.488 1076.15 803.546 1041.21 793.184 991.727 C 792.392 986.05 791.378 980.273 790.384 974.62 C 781.471 923.919 773.728 872.586 763.256 822.179 C 762.884 811.476 759.299 793.015 757.438 782.071 C 775.097 759.228 777.746 737.898 757.729 714.873 C 777.577 704.299 787.47 693.523 789.242 669.876 C 788.465 658.094 787.08 654.437 782.574 643.393 C 834.745 642.348 862.643 607.239 861.939 556.72 C 878.257 573.638 896.65 582.764 920.517 583.118 C 943.383 583.528 965.473 574.826 981.916 558.93 C 991.092 549.917 994.086 543.966 999.997 532.813 z" fill="rgb(255,90,31)" transform="translate(0,0)"></path>
<path d="M 1002.12 563.668 C 1020.71 590.026 1042.8 604.937 1076.46 602.365 C 1097.78 680.631 1073.37 714.6 1044.21 784.237 C 1041.65 790.346 1031.76 812.525 1030.21 817.649 C 1025.75 823.505 1025.97 825.535 1025.97 833.027 C 1020.39 840.283 1006.92 871.265 1004.12 880.604 C 996.974 889.541 993.588 895.948 994.44 908.136 C 990.128 915.994 964.393 978.636 962.161 987.015 L 925.62 987.007 L 899.168 986.934 C 903.425 1016.46 912.027 1033.42 932.234 1054.83 C 922.777 1083.22 899.912 1123.19 892.241 1153.05 C 875.447 1139.54 866.163 1130.41 851.869 1114.9 C 819.488 1076.15 803.546 1041.21 793.184 991.727 C 792.392 986.05 791.378 980.273 790.384 974.62 C 781.471 923.919 773.728 872.586 763.256 822.179 C 762.884 811.476 759.299 793.015 757.438 782.071 C 775.097 759.228 777.746 737.898 757.729 714.873 C 777.577 704.299 787.47 693.523 789.242 669.876 C 791.545 667.205 797.555 667.588 801.482 667.14 C 848.979 661.722 861.421 631.245 882.019 593.132 C 905.704 606.558 925.584 609.384 952.556 602.474 C 975.748 596.532 988.327 582.199 1002.12 563.668 z" fill="rgb(255,209,102)" transform="translate(0,0)"></path>
<path d="M 911.146 735.401 C 946.549 731.389 978.547 756.716 982.773 792.093 C 986.998 827.471 961.864 859.622 926.512 864.06 C 890.858 868.536 858.373 843.14 854.111 807.459 C 849.85 771.779 875.441 739.447 911.146 735.401 z" fill="rgb(245,237,230)" transform="translate(0,0)"></path>
<path d="M 912.714 762.381 C 933.314 759.359 952.457 773.631 955.44 794.238 C 958.423 814.844 944.114 833.959 923.502 836.903 C 902.945 839.838 883.893 825.576 880.918 805.026 C 877.943 784.475 892.169 765.395 912.714 762.381 z" fill="rgb(43,30,46)" transform="translate(0,0)"></path>
<path d="M 937.137 646.416 C 972.466 642.895 980.893 681.364 948.516 690.029 C 943.748 691.305 931.636 691.772 926.032 692.266 C 899.364 694.618 878.897 705.491 856.362 718.72 C 846.281 721.165 836.498 719.331 829.716 710.957 C 816.913 695.15 833.054 679.657 846.519 672.483 C 875.508 657.038 904.337 648.698 937.137 646.416 z" fill="rgb(43,30,46)" transform="translate(0,0)"></path>
<path d="M 827.203 1365.39 C 836.473 1346.12 856.954 1336.42 877.703 1342.27 C 884.436 1344.17 888.477 1347.1 894.16 1350.94 L 894.242 1353.22 C 905.016 1352.65 914.657 1353.13 923.095 1360.83 C 934.006 1370.79 958.377 1454.47 969.399 1475.82 C 975.735 1496.86 986.951 1528.46 995.08 1548.98 C 997.367 1555.49 1008.54 1588.4 1011.2 1592.97 C 1016.81 1606.72 1023.76 1621.44 1017.65 1636.3 C 1012.03 1649.98 999.601 1654.9 985.731 1655.22 C 976.29 1678.66 960.058 1687.2 936.493 1677.65 C 906.357 1688.86 890.48 1688.49 870.723 1660.15 C 864.472 1646.29 857.769 1626.06 852.262 1611.3 L 850.745 1608.11 C 833.264 1612.64 780.125 1587.05 764.59 1576.65 C 761.316 1569.6 758.203 1559.49 755.64 1551.94 C 750.069 1535.85 744.401 1519.79 738.634 1503.77 C 728.009 1472.92 727.509 1457.41 746.865 1430.03 C 755.434 1419.72 761.67 1416.96 773.503 1411.55 C 776.446 1411.01 779.354 1410.43 782.305 1409.91 L 782.106 1407.16 C 784.114 1384.93 802.997 1367.83 824.813 1365.56 L 827.203 1365.39 z" fill="rgb(255,90,31)" transform="translate(0,0)"></path>
<path d="M 894.242 1353.22 C 905.016 1352.65 914.657 1353.13 923.095 1360.83 C 934.006 1370.79 958.377 1454.47 969.399 1475.82 C 975.735 1496.86 986.951 1528.46 995.08 1548.98 C 997.367 1555.49 1008.54 1588.4 1011.2 1592.97 C 1016.81 1606.72 1023.76 1621.44 1017.65 1636.3 C 1012.03 1649.98 999.601 1654.9 985.731 1655.22 C 962.546 1653.71 957.792 1632.95 951.535 1614.65 C 947.779 1606.04 942.99 1591.44 939.629 1582.08 L 918.584 1523.74 L 889.353 1442.72 C 883.825 1427.83 877.751 1413.01 872.469 1398.09 C 868.895 1387.99 867.17 1380.5 872.602 1370.52 C 877.794 1360.98 884.214 1356.45 894.242 1353.22 z" fill="rgb(43,30,46)" transform="translate(0,0)"></path>
<path d="M 782.305 1409.91 C 797.172 1453.99 812.451 1497.92 828.139 1541.71 C 835.899 1563.76 842.824 1586.12 850.745 1608.11 C 833.264 1612.64 780.125 1587.05 764.59 1576.65 C 761.316 1569.6 758.203 1559.49 755.64 1551.94 C 750.069 1535.85 744.401 1519.79 738.634 1503.77 C 728.009 1472.92 727.509 1457.41 746.865 1430.03 C 755.434 1419.72 761.67 1416.96 773.503 1411.55 C 776.446 1411.01 779.354 1410.43 782.305 1409.91 z" fill="rgb(44,247,242)" transform="translate(0,0)"></path>
<path d="M 916.804 1205.6 C 925.047 1218.06 932.275 1231.74 940.376 1244.2 C 988.514 1318.27 1061.84 1390.69 1158.21 1372.57 C 1161.54 1371.94 1168.97 1370.23 1171.76 1371.7 C 1162.81 1396.39 1149.94 1435.96 1140.23 1458.95 C 1135.07 1475.55 1120.87 1517.28 1114.01 1533.41 C 1110.99 1542.53 1104.54 1563.73 1100.76 1571.99 C 1080.48 1578.51 1055.4 1593.67 1035.91 1599.87 C 1029.38 1597.72 1017.51 1593.17 1011.2 1592.97 C 1008.54 1588.4 997.367 1555.49 995.08 1548.98 C 986.951 1528.46 975.735 1496.86 969.399 1475.82 C 958.377 1454.47 934.006 1370.79 923.095 1360.83 C 914.657 1353.13 905.016 1352.65 894.242 1353.22 L 894.16 1350.94 C 898.345 1318.16 904.72 1282.68 909.595 1249.68 C 910.803 1246.16 915.711 1212.13 916.804 1205.6 z" fill="rgb(255,209,102)" transform="translate(0,0)"></path>
<path d="M 1036.75 1506.13 L 1106.42 1474.56 C 1117.01 1469.73 1129.76 1463.04 1140.23 1458.95 C 1135.07 1475.55 1120.87 1517.28 1114.01 1533.41 C 1110.99 1542.53 1104.54 1563.73 1100.76 1571.99 C 1080.48 1578.51 1055.4 1593.67 1035.91 1599.87 C 1029.38 1597.72 1017.51 1593.17 1011.2 1592.97 C 1008.54 1588.4 997.367 1555.49 995.08 1548.98 C 986.951 1528.46 975.735 1496.86 969.399 1475.82 C 988.714 1484.47 1017.71 1499.83 1036.75 1506.13 z" fill="rgb(192,30,248)" transform="translate(0,0)"></path>
<path d="M 1036.87 1567.6 C 1045.44 1562.36 1105.84 1535.52 1114.01 1533.41 C 1110.99 1542.53 1104.54 1563.73 1100.76 1571.99 C 1080.48 1578.51 1055.4 1593.67 1035.91 1599.87 C 1029.38 1597.72 1017.51 1593.17 1011.2 1592.97 C 1008.54 1588.4 997.367 1555.49 995.08 1548.98 C 1007.9 1553.77 1024.29 1561.77 1036.87 1567.6 z" fill="rgb(123,17,216)" transform="translate(0,0)"></path>
<path d="M 1165.98 987.082 C 1176.01 986.431 1183.68 986.136 1193.75 986.183 C 1185.06 1032.87 1164.22 1060.39 1122.25 1082.73 C 1086.77 1107.84 1006.53 1107.32 970.492 1083.47 C 955.029 1074.15 944.933 1067.41 932.234 1054.83 C 912.027 1033.42 903.425 1016.46 899.168 986.934 L 925.62 987.007 L 962.161 987.015 L 1098.04 986.924 C 1119.47 986.941 1144.81 986.333 1165.98 987.082 z" fill="rgb(43,30,46)" transform="translate(0,0)"></path>
<path d="M 962.161 987.015 L 1098.04 986.924 C 1119.47 986.941 1144.81 986.333 1165.98 987.082 C 1161.4 1007.43 1144.22 1022.47 1123.12 1022.43 C 1071.02 1022.33 1018.81 1022.73 966.728 1021.96 C 944.416 1021.64 931.455 1007.33 925.62 987.007 L 962.161 987.015 z" fill="rgb(245,237,230)" transform="translate(0,0)"></path>
<path d="M 970.492 1083.47 C 984.658 1055.74 1021 1042.89 1050.54 1045 C 1083.9 1047.38 1100.82 1059.02 1122.25 1082.73 C 1086.77 1107.84 1006.53 1107.32 970.492 1083.47 z" fill="rgb(253,70,110)" transform="translate(0,0)"></path>
<path d="M 1180.82 1245.19 C 1245.7 1260.56 1295.06 1294.58 1322.57 1356.05 C 1325.98 1366.42 1329.44 1377.4 1332.05 1388 C 1332.39 1392.36 1332.9 1397.27 1333.06 1401.59 C 1332.87 1404.97 1332.6 1408.35 1332.26 1411.73 C 1328.28 1410.28 1324.39 1408.63 1320.17 1408.11 L 1320.19 1406.41 C 1320.07 1380.73 1302.46 1366.89 1277.8 1365.68 L 1275.1 1365.73 C 1266.11 1336.6 1229.61 1333.55 1209.11 1353.68 C 1206.69 1353.08 1201.2 1352.39 1198.5 1351.97 C 1191.43 1320.88 1186.93 1278.27 1180.82 1245.19 z" fill="rgb(123,17,216)" transform="translate(0,0)"></path>
<path d="M 1333.06 1401.59 C 1332.87 1404.97 1332.6 1408.35 1332.26 1411.73 C 1328.28 1410.28 1324.39 1408.63 1320.17 1408.11 L 1320.19 1406.41 C 1323.54 1406.25 1326.04 1402.66 1333.06 1401.59 z" fill="rgb(192,30,248)" transform="translate(0,0)"></path>
<path d="M 772.205 1391.05 C 783.601 1326.03 825.392 1282.15 885.948 1257.41 C 890.772 1255.44 905.028 1248.16 909.595 1249.68 C 904.72 1282.68 898.345 1318.16 894.16 1350.94 C 888.477 1347.1 884.436 1344.17 877.703 1342.27 C 856.954 1336.42 836.473 1346.12 827.203 1365.39 L 824.813 1365.56 C 802.997 1367.83 784.114 1384.93 782.106 1407.16 L 782.305 1409.91 C 779.354 1410.43 776.446 1411.01 773.503 1411.55 C 773.014 1406.92 772.959 1406.86 771.698 1402.38 L 772.205 1391.05 z" fill="rgb(123,17,216)" transform="translate(0,0)"></path>
<path d="M 771.698 1402.38 C 777.682 1403.59 776.861 1403.91 782.106 1407.16 L 782.305 1409.91 C 779.354 1410.43 776.446 1411.01 773.503 1411.55 C 773.014 1406.92 772.959 1406.86 771.698 1402.38 z" fill="rgb(253,70,110)" transform="translate(0,0)"></path>
<path d="M 1030.21 817.649 C 1033.87 818.045 1035.51 817.841 1038.34 820.164 C 1039.49 821.974 1040.84 824.737 1040.6 826.951 C 1038.76 843.891 1041.18 861.667 1039.76 878.331 C 1038.77 889.833 1012.73 882.978 1009.79 896.572 C 1001.02 937.115 1050.65 921.379 1072.89 925.43 C 1075.68 925.937 1076.58 927.826 1077.69 929.575 C 1077.8 933.173 1077.82 932.915 1076.11 936.094 C 1070.31 940.78 1057.45 938.842 1050.19 939.095 C 1024.68 939.985 999.106 939.926 994.44 908.136 C 993.588 895.948 996.974 889.541 1004.12 880.604 C 1006.92 871.265 1020.39 840.283 1025.97 833.027 C 1025.97 825.535 1025.75 823.505 1030.21 817.649 z" fill="rgb(43,30,46)" transform="translate(0,0)"></path>
<path d="M 1025.97 833.027 L 1025.24 870.161 C 1016.52 873 1011.61 875.324 1004.12 880.604 C 1006.92 871.265 1020.39 840.283 1025.97 833.027 z" fill="rgb(255,90,31)" transform="translate(0,0)"></path>
<path d="M 1164.77 735.472 C 1200.02 729.653 1233.35 753.415 1239.34 788.641 C 1245.34 823.867 1221.74 857.314 1186.54 863.478 C 1151.1 869.685 1117.37 845.886 1111.34 810.416 C 1105.3 774.945 1129.27 741.332 1164.77 735.472 z" fill="rgb(245,237,230)" transform="translate(0,0)"></path>
<path d="M 1166.89 763.03 C 1187.09 758.449 1207.18 771.092 1211.79 791.284 C 1216.39 811.475 1203.78 831.583 1183.59 836.217 C 1163.37 840.861 1143.21 828.215 1138.6 807.986 C 1133.98 787.756 1146.65 767.619 1166.89 763.03 z" fill="rgb(43,30,46)" transform="translate(0,0)"></path>
<path d="M 1169.75 1171.86 C 1171.25 1178.39 1172.18 1184.81 1173.23 1191.43 C 1174.32 1199.67 1180.48 1238.25 1180.12 1243.22 C 1081.39 1276.77 997.493 1237.73 921.504 1177.03 C 919.7 1174.93 919.809 1175.1 919.386 1172.35 C 935.355 1179.72 947.874 1186.58 964.782 1192.55 C 1018.05 1210.94 1076.07 1210.15 1128.82 1190.32 C 1143.61 1184.84 1155.68 1178.92 1169.75 1171.86 z" fill="rgb(43,30,46)" transform="translate(0,0)"></path>
<path d="M 1149.83 646.387 C 1188.05 645.722 1223.24 654.214 1255.82 674.367 C 1268.54 682.231 1277.19 693.271 1269.52 708.412 C 1266.03 715.299 1259.06 718.052 1252.2 720.172 C 1242.15 720.16 1236.76 715.751 1228.6 710.775 C 1212.76 701.113 1197.12 695.125 1178.96 691.817 C 1168.21 689.858 1146.8 692.219 1138.54 685.976 C 1121.48 673.081 1127.95 648.648 1149.83 646.387 z" fill="rgb(43,30,46)" transform="translate(0,0)"></path>
<path d="M 851.869 1114.9 C 866.163 1130.41 875.447 1139.54 892.241 1153.05 L 897.773 1157.77 C 891.846 1160.52 888.57 1162.16 882.272 1163.91 C 818.941 1196.34 776.152 1237.9 753.661 1307.4 C 745.368 1333.56 741.565 1360.95 742.413 1388.39 C 742.988 1399.52 743.379 1420.53 746.865 1430.03 C 727.509 1457.41 728.009 1472.92 738.634 1503.77 C 726.322 1500.9 693.394 1490.28 680.085 1486 C 641.476 1473.6 581.168 1460.44 549.248 1437.94 C 539.429 1427.97 533.321 1416.97 530.287 1403.22 C 526.134 1384.3 529.877 1364.51 540.653 1348.41 C 552.826 1329.92 571.814 1316.98 593.483 1312.41 C 591.393 1290.93 593.581 1273.58 605.747 1255.07 C 651.797 1185.04 774.474 1134.41 851.869 1114.9 z" fill="rgb(192,30,248)" transform="translate(0,0)"></path>
<path d="M 742.413 1388.39 C 738.436 1386.44 733.578 1383.12 729.715 1380.68 C 714.412 1371.02 699.45 1361.73 685.495 1350.02 C 670.841 1337.73 652.818 1319.57 651.223 1299.35 C 650.1 1285.1 659.139 1271.21 668.328 1261.19 C 706.799 1219.14 826.137 1166.64 882.272 1163.91 C 818.941 1196.34 776.152 1237.9 753.661 1307.4 C 745.368 1333.56 741.565 1360.95 742.413 1388.39 z" fill="rgb(123,17,216)" transform="translate(0,0)"></path>
<path d="M 594.359 1329.68 C 596.592 1334.12 598.428 1340.12 600.396 1344.92 C 609.57 1367.27 625.088 1383.95 644.471 1398.04 C 646.979 1399.91 649.538 1401.72 652.147 1403.46 C 657.065 1406.7 676.297 1417.42 680.016 1421.48 C 681.315 1422.89 677.26 1430.01 673.065 1431.3 C 646.274 1415.48 593.979 1391.18 585.145 1356.5 C 582.407 1345.75 587.757 1337.73 594.359 1329.68 z" fill="rgb(123,17,216)" transform="translate(0,0)"></path>
<path d="M 1235.64 1116.06 C 1311.1 1130.07 1438.03 1187.07 1482.59 1252.31 C 1496.23 1272.28 1499.11 1287.81 1496.19 1311.58 C 1520.12 1319.17 1543.06 1332.97 1554.9 1355.97 C 1563.24 1372.57 1564.55 1391.83 1558.51 1409.4 C 1554.13 1422.38 1545.5 1434.98 1534.18 1442.81 C 1529.47 1445.87 1524.89 1448.72 1519.66 1450.8 C 1503.77 1457.12 1371.29 1500.95 1366.09 1499.64 C 1365.8 1499.57 1365.53 1499.41 1365.24 1499.29 C 1375.7 1471.66 1374.79 1452.38 1356.24 1428.97 C 1359.96 1408.52 1361.01 1400.26 1361.12 1379.91 C 1361.73 1304.75 1321.85 1230.67 1260.03 1188.24 C 1246.88 1179.21 1231.15 1171.85 1216.85 1164.72 C 1212.76 1163.56 1197.75 1157.34 1193.92 1155.57 C 1211.02 1142.84 1221.78 1131.75 1235.64 1116.06 z" fill="rgb(192,30,248)" transform="translate(0,0)"></path>
<path d="M 1216.85 1164.72 C 1229.5 1166.12 1243.92 1171.28 1256.65 1175.08 C 1316.18 1192.83 1382.4 1219.37 1424.86 1266.33 C 1456.71 1301.55 1419.26 1341.34 1390.5 1361.27 C 1382.62 1367.03 1370.21 1376.2 1361.12 1379.91 C 1361.73 1304.75 1321.85 1230.67 1260.03 1188.24 C 1246.88 1179.21 1231.15 1171.85 1216.85 1164.72 z" fill="rgb(123,17,216)" transform="translate(0,0)"></path>
<path d="M 1495.73 1327.68 C 1510.45 1341.92 1507.86 1360.69 1495.96 1375.47 C 1475.96 1400.32 1448.73 1415.47 1420.47 1428.91 C 1414.37 1430.21 1410.49 1427.44 1411.09 1422.47 C 1411.57 1418.49 1437.34 1403.32 1440.91 1400.81 C 1442.76 1399.53 1444.6 1398.23 1446.42 1396.9 C 1473.67 1376.58 1486.79 1360.6 1495.73 1327.68 z" fill="rgb(123,17,216)" transform="translate(0,0)"></path>
<path d="M 793.184 991.727 C 737.707 1005.41 687.98 962.885 671.815 911.996 C 651.311 847.449 690.387 780.585 763.256 822.179 C 773.728 872.586 781.471 923.919 790.384 974.62 C 791.378 980.273 792.392 986.05 793.184 991.727 z" fill="rgb(245,237,230)" transform="translate(0,0)"></path>
<path d="M 709.843 857.139 C 743.576 855.423 760.118 886.243 761.244 916.497 C 761.579 925.513 748.973 933.234 739.681 925.549 L 738.337 924.481 L 737.844 923.804 C 729.011 911.918 734.519 890.872 719.01 883.908 C 714.147 881.722 705.996 884.531 701.506 886.999 C 691.784 892.344 683.422 878.536 688.466 870.461 C 693.075 863.081 701.27 859.23 709.843 857.139 z" fill="rgb(255,209,102)" transform="translate(0,0)"></path>
<path d="M 1327.3 822.599 C 1342.86 812.565 1358.18 806.121 1376.89 810.103 C 1420.44 819.428 1428.2 868.338 1419.29 905.124 C 1412 935.211 1392.14 964.14 1365.54 980.295 C 1345.19 992.658 1319.58 1000.18 1296.77 990.274 C 1296.76 984.908 1302.75 953.952 1304 946.948 C 1311.07 907.265 1317.72 861.666 1327.3 822.599 z" fill="rgb(245,237,230)" transform="translate(0,0)"></path>
<path d="M 1367.81 857.179 C 1379.93 856.538 1392.1 858.445 1400.22 868.969 C 1403.85 873.665 1402.1 883.435 1396.58 886.24 C 1389.72 889.722 1383.43 885.004 1376.49 884.186 C 1363.86 882.937 1359.75 893.444 1357.81 903.978 C 1356.78 909.577 1355.35 915.222 1354.16 920.71 C 1352.13 926.53 1343.23 930.325 1337.36 929.546 C 1332.39 928.888 1329.6 924.854 1327.05 920.889 L 1325.94 919.19 L 1326.13 918.037 C 1330.78 891.704 1337.53 864.072 1367.81 857.179 z" fill="rgb(255,209,102)" transform="translate(0,0)"></path>
<metadata><recraft-signature>{"signed_by": "recraft", "signature_b64": "6SvUk5XFh+nLp4Xql+goAVKIlzxPYriL+4cOVjhsox19mpBLdy5q6BzYr7WKkQXxpvVXGrOTH0gkYOkV+3T/Cg==", "signing_algo": "Ed25519", "generation_timestamp": 1783344381, "identifier": "ad75aa11-7673-4d91-8e73-0416188b7eb3"}</recraft-signature></metadata></svg>