<svg xmlns="http://www.w3.org/2000/svg" height="1024" preserveAspectRatio="none" style="display: block;" version="1.1" viewBox="0 0 2048 2048" width="1024">
<path d="M 0 0 L 2048 0 L 2048 2048 L 0 2048 L 0 0 z" fill="rgb(43,16,22)" transform="translate(0,0)"></path>
<path d="M 1023.02 522.974 C 1027.68 514.804 1032.58 506.768 1037.7 498.873 L 1110.47 615.793 C 1121.79 633.609 1132.96 651.516 1143.99 669.514 C 1157.39 691.001 1172.64 712.686 1180.66 736.794 C 1189.95 764.622 1191.18 794.511 1184.2 823.005 C 1176.55 854.871 1159.51 882.34 1142.35 909.828 C 1108.38 964.262 1103.16 1023.05 1128.65 1082.94 C 1158.51 1036.17 1185.96 987.376 1215.28 940.173 C 1227.1 921.146 1237.56 900.509 1250.04 881.862 C 1262.79 898.65 1274.05 918.493 1285.77 936.327 C 1295.6 951.279 1306.92 967.106 1315.85 982.649 C 1439.9 1198.53 1313.72 1500.57 1063.99 1546.27 C 1047.14 1549.35 1029.66 1550.97 1012.52 1550.95 C 1036.11 1508.27 1061.36 1466.36 1085.69 1424.12 C 1102.34 1395.21 1117.28 1366.34 1135.22 1338.09 L 1198.14 1338.22 C 1177.09 1300.78 1149.14 1257.6 1126.42 1220.17 C 1092.89 1163.95 1058.84 1108.04 1024.29 1052.44 C 1023.33 1039.03 1023.9 1017.97 1023.89 1004.14 L 1023.86 917.574 L 1023.64 647.14 L 1023.79 569.025 C 1023.84 556.494 1024.43 534.704 1023.02 522.974 z" fill="rgb(255,90,31)" transform="translate(0,0)"></path>
<path d="M 849.064 1498.31 C 771.245 1445.5 717.214 1364.3 698.551 1272.12 C 685.496 1206.79 688.913 1139.23 708.492 1075.55 C 725.953 1019.8 750.843 982.562 780.371 932.649 L 855.175 806.185 L 971.289 609.079 C 987.849 581.343 1005.42 549.855 1023.02 522.974 C 1024.43 534.704 1023.84 556.494 1023.79 569.025 L 1023.64 647.14 L 1023.86 917.574 L 1023.89 1004.14 C 1023.9 1017.97 1023.33 1039.03 1024.29 1052.44 C 965.133 1146.04 908.167 1243.13 849.698 1337.59 C 881.666 1337.62 914.489 1337.07 946.335 1337.69 L 894.971 1422.4 C 879.77 1447.69 864.921 1473.45 849.064 1498.31 z" fill="rgb(255,209,102)" transform="translate(0,0)"></path>
<metadata><recraft-signature>{"signed_by": "recraft", "signature_b64": "ogQAiKGa0mEjHYoj0YOpJ4uWOLpU0hZykUmghOWzxT+jSY1Q+quq5aZPaCDGx63xyG1tt4j5a+IxM0jor26VCQ==", "signing_algo": "Ed25519", "generation_timestamp": 1783313447, "identifier": "770496fe-afa6-4f17-b162-7b5883cb9cfe"}</recraft-signature></metadata></svg>