<svg xmlns="http://www.w3.org/2000/svg" height="1024" preserveAspectRatio="none" style="display: block;" version="1.1" viewBox="0 0 2048 2048" width="1024">
<defs>
	<linearGradient gradientUnits="userSpaceOnUse" id="Gradient1" x1="716.338" x2="1054.6" y1="1384.51" y2="881.802">
		<stop class="stop0" offset="0" stop-color="rgb(248,65,48)" stop-opacity="1"></stop>
		<stop class="stop1" offset="1" stop-color="rgb(245,117,51)" stop-opacity="1"></stop>
	</linearGradient>
</defs>
<path d="M 0 0 L 2048 0 L 2048 2048 L 1799.8 2048 L 1347.71 2048 L 1256.71 2048 L 1191.63 2048 L 1102.4 2048 L 1024.83 2048 L 1010.27 2048 L 934.637 2048 L 844.376 2048 L 779.547 2048 L 688.466 2048 L 240.67 2048 L 0 2048 L 0 0 z" fill="rgb(58,36,32)" transform="translate(0,0)"></path>
<path d="M 1096.19 561.342 C 1123.46 596.746 1178.86 618.616 1222 624.21 C 1240.68 626.604 1259.54 627.309 1278.35 626.317 C 1287.94 693.884 1347.97 753.903 1415.9 762.753 C 1423.01 787.693 1428.48 810.33 1429.67 836.565 C 1430.67 858.687 1428.53 879.956 1426.6 901.943 C 1421.03 966.89 1418.54 1032.26 1407.91 1096.66 C 1405.11 1113.65 1401.9 1130.42 1398.8 1147.35 C 1399.15 1147.6 1399.51 1147.86 1399.86 1148.11 C 1400.16 1147.88 1375.27 1211.99 1365.8 1224.69 C 1335.36 1265.52 1301.13 1307.82 1262.47 1341.11 C 1255.97 1347.01 1232.09 1368.26 1225.39 1372.57 C 1226.97 1400.41 1225.51 1434.04 1225.82 1462.32 C 1225.94 1472.7 1226.43 1505.83 1225.59 1514.8 C 1223.25 1507.8 1225.23 1432.57 1224.99 1418.83 C 1197.13 1455.41 1184.46 1476.62 1143.98 1505.01 C 1095.9 1538.78 1036.27 1551.82 978.482 1541.21 C 921.709 1530.94 869.514 1495.8 833.847 1451.2 C 824.288 1439.25 819.366 1430.81 811.028 1418.84 C 810.622 1408.29 811.028 1394.86 811.042 1384.08 C 757.127 1346.46 686.97 1275.9 650.217 1220.39 C 637.686 1201.47 627.623 1171.91 621.44 1149.81 C 618.434 1140.98 616.279 1124.37 614.462 1114.57 C 604.578 1062.07 602.797 1008.63 598.915 955.489 C 594.11 889.72 586.252 828.227 603.68 763.329 C 610.653 761.304 617.489 758.835 624.147 755.935 C 672.013 734.872 698.677 701.111 717.256 653.729 L 728.551 659.514 C 862.798 715.738 1012.9 688.982 1096.19 561.342 z" fill="rgb(255,140,66)" transform="translate(0,0)"></path>
<path d="M 717.256 653.729 L 728.551 659.514 C 727.134 672.645 732.58 695.225 732.372 709.67 C 732.291 715.266 733.115 740.603 734.897 743.8 C 812.571 710.333 893.497 727.307 939.57 800.988 C 938.731 802.957 938.737 802.57 937.198 803.927 C 936.651 809.739 943.208 823.712 945.107 830.185 C 950.822 849.675 954.916 889.882 950.368 909.692 L 950.852 912.265 C 943.118 919.155 931.269 924.5 921.812 928.695 C 883.744 945.578 836.479 954.634 794.62 952.299 C 779.622 951.59 764.72 949.507 750.103 946.075 C 742.719 944.166 734.649 941.569 727.281 939.367 C 727.997 943.471 728.907 948.026 729.413 952.116 C 624.697 973.514 615.789 1069.13 716.743 1110.47 C 728.085 1186.84 759.175 1258.04 800.292 1322.98 C 806.304 1332.48 818.856 1353.72 827.777 1360.11 C 855.02 1401.4 889.772 1442.91 938.497 1458.4 C 977.128 1480.98 1008.15 1489.13 1053.62 1478.38 C 1071.71 1474.1 1082.62 1467.8 1098.88 1459.62 C 1128.4 1446.42 1163.97 1419.2 1190.35 1399.57 C 1201.02 1391.63 1214.27 1379.07 1225.39 1372.57 C 1226.97 1400.41 1225.51 1434.04 1225.82 1462.32 C 1225.94 1472.7 1226.43 1505.83 1225.59 1514.8 C 1223.25 1507.8 1225.23 1432.57 1224.99 1418.83 C 1197.13 1455.41 1184.46 1476.62 1143.98 1505.01 C 1095.9 1538.78 1036.27 1551.82 978.482 1541.21 C 921.709 1530.94 869.514 1495.8 833.847 1451.2 C 824.288 1439.25 819.366 1430.81 811.028 1418.84 C 810.622 1408.29 811.028 1394.86 811.042 1384.08 C 757.127 1346.46 686.97 1275.9 650.217 1220.39 C 637.686 1201.47 627.623 1171.91 621.44 1149.81 C 618.434 1140.98 616.279 1124.37 614.462 1114.57 C 604.578 1062.07 602.797 1008.63 598.915 955.489 C 594.11 889.72 586.252 828.227 603.68 763.329 C 610.653 761.304 617.489 758.835 624.147 755.935 C 672.013 734.872 698.677 701.111 717.256 653.729 z" fill="url(#Gradient1)" transform="translate(0,0)"></path>
<path d="M 659.106 893.734 C 740.149 808.198 858.792 820.156 940.301 898.498 C 941.802 899.939 943.278 901.406 944.727 902.899 L 950.368 909.692 L 950.852 912.265 C 943.118 919.155 931.269 924.5 921.812 928.695 C 883.744 945.578 836.479 954.634 794.62 952.299 C 779.622 951.59 764.72 949.507 750.103 946.075 C 742.719 944.166 734.649 941.569 727.281 939.367 C 701.519 929.756 680.719 923.797 657.131 907.652 L 647.526 914.72 C 650.958 904.836 652.768 901.813 659.106 893.734 z" fill="rgb(58,36,32)" transform="translate(0,0)"></path>
<path d="M 657.131 907.652 C 684.04 888.891 721.36 874.526 752.52 865.218 C 745.576 921.566 805.28 948.635 842.674 918.082 C 853.378 909.475 860.027 896.808 861.032 883.109 C 861.342 879.15 860.816 871.782 860.185 867.819 C 889.632 875.584 926.645 894.027 950.852 912.265 C 943.118 919.155 931.269 924.5 921.812 928.695 C 883.744 945.578 836.479 954.634 794.62 952.299 C 779.622 951.59 764.72 949.507 750.103 946.075 C 742.719 944.166 734.649 941.569 727.281 939.367 C 701.519 929.756 680.719 923.797 657.131 907.652 z" fill="rgb(245,237,230)" transform="translate(0,0)"></path>
<path d="M 811.375 859.012 C 816.636 859.469 821.804 860.078 827.009 860.879 C 838.393 862.63 843.559 862.628 834.936 873.41 C 820.524 882.312 811.024 875.483 811.375 859.012 z" fill="rgb(245,237,230)" transform="translate(0,0)"></path>
<path d="M 734.897 743.8 C 812.571 710.333 893.497 727.307 939.57 800.988 C 932.794 799.403 913.602 789.381 905.67 785.97 C 890.838 779.591 881.88 776.9 866.476 773.102 C 788.073 753.77 718.844 768.543 650.858 809.722 C 674.674 780.079 700.309 759.714 734.897 743.8 z" fill="rgb(58,36,32)" transform="translate(0,0)"></path>
<path d="M 659.106 893.734 C 658.088 889.377 660.533 886.481 662.888 882.762 C 711.075 806.625 804.315 775.925 881.629 829.131 C 903.642 844.28 924.88 861.97 937.785 886.066 C 940.775 891.757 943.413 894.363 945.327 900.843 L 944.727 902.899 C 943.278 901.406 941.802 899.939 940.301 898.498 C 858.792 820.156 740.149 808.198 659.106 893.734 z" fill="rgb(255,140,66)" transform="translate(0,0)"></path>
<path d="M 1070.05 907.69 C 1070.16 903.062 1072.56 899.197 1074.85 895.308 C 1113.75 829.354 1184.8 786.829 1261.47 809.907 C 1302.01 821.694 1336.19 849.132 1356.46 886.161 C 1357.84 889.024 1358.84 890.713 1359.45 893.875 C 1363.42 900.29 1368.16 907.522 1371.39 914.232 C 1369.52 913.021 1363.85 909.142 1362.18 908.328 C 1296.97 949.159 1218.12 962.146 1143.26 944.384 C 1114.88 937.559 1092.2 927.035 1067.09 912.521 C 1067.51 910.721 1068.87 909.309 1070.05 907.69 z" fill="rgb(58,36,32)" transform="translate(0,0)"></path>
<path d="M 1266.98 865.944 C 1294.99 872.153 1339.59 891.891 1362.18 908.328 C 1296.97 949.159 1218.12 962.146 1143.26 944.384 C 1114.88 937.559 1092.2 927.035 1067.09 912.521 C 1069.96 910.792 1074.17 907.685 1077.06 905.701 C 1104.59 888.279 1127.84 876.224 1159.3 866.598 C 1153.71 897.561 1172.1 924.767 1203.52 929.728 C 1218.86 932.301 1234.59 928.462 1247.02 919.111 C 1258.35 910.527 1265.67 897.686 1267.29 883.569 C 1267.89 878.68 1267.35 870.891 1266.98 865.944 z" fill="rgb(245,237,230)" transform="translate(0,0)"></path>
<path d="M 1070.05 907.69 C 1070.16 903.062 1072.56 899.197 1074.85 895.308 C 1113.75 829.354 1184.8 786.829 1261.47 809.907 C 1302.01 821.694 1336.19 849.132 1356.46 886.161 C 1357.84 889.024 1358.84 890.713 1359.45 893.875 C 1355.37 889.885 1351.34 885.521 1347.39 881.378 C 1305.54 848.023 1262.41 829.483 1207.16 834.561 C 1163.47 838.575 1103.28 871.067 1074.17 903.899 L 1070.05 907.69 z" fill="rgb(255,209,102)" transform="translate(0,0)"></path>
<path d="M 1212.38 859.925 C 1220.08 859.501 1230.54 859.427 1238.06 861.168 C 1241.86 862.045 1236.19 871.564 1235.33 872.875 C 1221.97 881.265 1212.79 875.36 1212.38 859.925 z" fill="rgb(245,237,230)" transform="translate(0,0)"></path>
<path d="M 849.343 1205.02 C 848.235 1204.07 848.822 1204.76 848.138 1202.6 C 855.897 1191.53 906.274 1181.51 920.503 1180.65 C 956.457 1178.48 989.201 1188.17 1016.46 1211.9 C 1064.13 1177.09 1111.84 1172.52 1167.22 1193.8 C 1172.08 1195.66 1180.69 1198.67 1182.71 1203.39 C 1182.2 1204.03 1181.69 1204.66 1181.18 1205.3 C 1172.45 1226.01 1139.27 1255.64 1120.1 1267.93 C 1026.15 1328.18 908.136 1300.08 849.343 1205.02 z" fill="rgb(255,90,31)" transform="translate(0,0)"></path>
<path d="M 849.343 1205.02 C 848.235 1204.07 848.822 1204.76 848.138 1202.6 C 855.897 1191.53 906.274 1181.51 920.503 1180.65 C 956.457 1178.48 989.201 1188.17 1016.46 1211.9 C 1064.13 1177.09 1111.84 1172.52 1167.22 1193.8 C 1172.08 1195.66 1180.69 1198.67 1182.71 1203.39 C 1182.2 1204.03 1181.69 1204.66 1181.18 1205.3 C 1177.4 1207.03 1173.68 1208.87 1170.01 1210.81 L 1169.15 1208.81 C 1147.87 1218.27 1123.97 1224.69 1101.31 1229.33 C 1011.42 1247.7 946.167 1236.6 861.338 1208.43 L 860.631 1210.41 C 856.81 1208.78 853.31 1206.74 849.343 1205.02 z" fill="rgb(255,90,31)" transform="translate(0,0)"></path>
<path d="M 1169.15 1208.81 C 1173.8 1206.66 1177.77 1204.65 1182.71 1203.39 C 1182.2 1204.03 1181.69 1204.66 1181.18 1205.3 C 1177.4 1207.03 1173.68 1208.87 1170.01 1210.81 L 1169.15 1208.81 z" fill="rgb(196,35,34)" transform="translate(0,0)"></path>
<path d="M 849.343 1205.02 C 853.795 1205.22 855.916 1206.04 860.152 1207.92 L 861.338 1208.43 L 860.631 1210.41 C 856.81 1208.78 853.31 1206.74 849.343 1205.02 z" fill="rgb(196,35,34)" transform="translate(0,0)"></path>
<path d="M 861.338 1208.43 C 946.167 1236.6 1011.42 1247.7 1101.31 1229.33 C 1123.97 1224.69 1147.87 1218.27 1169.15 1208.81 L 1170.01 1210.81 C 1147.75 1221.31 1134.95 1228.97 1110.33 1236.9 C 1017.9 1266.69 943.939 1252.62 860.631 1210.41 L 861.338 1208.43 z" fill="rgb(167,39,47)" transform="translate(0,0)"></path>
<path d="M 1002.39 774.573 C 1004.65 778.006 1004.09 778.034 1004.58 782.101 C 997.966 862.973 994.382 946.486 988.272 1027.63 C 986.431 1053.62 980.504 1083.64 998.118 1104.35 C 1007.07 1114.97 1020.07 1121.35 1033.95 1121.93 C 1046.54 1122.46 1058.92 1118.58 1068.96 1110.97 L 1074.18 1106.01 L 1075.26 1107.92 L 1070.58 1112.15 C 1068.77 1113.79 1066.92 1115.37 1065.01 1116.88 C 1045.96 1131.72 1028.89 1131.73 1005.92 1131.05 C 997.312 1130.7 988.151 1131.53 979.644 1130.13 C 923.313 1120.9 907.44 1056.78 955.4 1023.54 C 968.285 942.838 985.995 854.498 1002.39 774.573 z" fill="rgb(58,36,32)" transform="translate(0,0)"></path>
<path d="M 1193.02 728.402 C 1260.01 720.024 1323.14 759.978 1365.69 808.249 C 1329.12 786.291 1293.25 773.805 1251.23 767.196 C 1188.16 759.225 1132.42 772.339 1077.4 803.344 C 1104.39 758.924 1140.92 733.782 1193.02 728.402 z" fill="rgb(58,36,32)" transform="translate(0,0)"></path>
<path d="M 1211.56 1286.28 C 1222.9 1213.99 1187.22 1142.43 1122.41 1108.59 C 1116.16 1105.33 1109.59 1102.36 1103.19 1099.39 C 1119.53 1100.37 1133.96 1105.12 1149.26 1110.3 C 1155.51 1113.52 1173.93 1124.76 1179.17 1126.46 C 1236.77 1178.19 1239.61 1221.55 1213.5 1291.73 C 1212.44 1295.49 1213.46 1294.77 1211.21 1296.19 C 1209.7 1292.15 1210.52 1290.72 1211.56 1286.28 z" fill="rgb(255,90,31)" transform="translate(0,0)"></path>
<path d="M 906.775 1099.39 L 905.929 1099.94 C 896.156 1106.21 885.148 1111.12 875.645 1117.73 C 840.052 1142.52 812.149 1181.6 802.78 1224.13 C 797.89 1246.57 797.803 1269.79 802.524 1292.27 L 801.721 1293.76 L 800.323 1292.71 C 771.308 1226.6 780.303 1179.4 831.175 1129.36 C 851.686 1115.92 859.331 1112.68 881.764 1104.27 C 889.158 1102.58 899.459 1099.9 906.775 1099.39 z" fill="rgb(255,90,31)" transform="translate(0,0)"></path>
<path d="M 1002.39 774.573 C 1002.56 773.283 1005.03 758.436 1006.23 758.534 C 1006.63 758.962 1004.87 780.086 1004.58 782.101 C 1004.09 778.034 1004.65 778.006 1002.39 774.573 z" fill="rgb(167,39,47)" transform="translate(0,0)"></path>
<path d="M 811.028 1418.84 C 819.366 1430.81 824.288 1439.25 833.847 1451.2 C 869.514 1495.8 921.709 1530.94 978.482 1541.21 C 1036.27 1551.82 1095.9 1538.78 1143.98 1505.01 C 1184.46 1476.62 1197.13 1455.41 1224.99 1418.83 C 1225.23 1432.57 1223.25 1507.8 1225.59 1514.8 L 1225.69 1523.57 C 1254.83 1548.18 1290.46 1571.67 1321.03 1595.1 C 1339.25 1609.07 1358.53 1620.49 1374.18 1637.82 C 1388.95 1654.18 1402.42 1679.87 1405.25 1701.77 L 1406.98 1703.32 L 1530.86 1753.74 C 1559.84 1765.22 1593.38 1777.18 1621.53 1789.21 C 1643.27 1797.72 1663.89 1808.25 1681.2 1824.26 C 1693.27 1833.89 1708.26 1847.77 1717.75 1859.85 C 1729.38 1872.56 1744.48 1891.3 1752.46 1906.34 C 1777.59 1950.09 1791.96 1998.41 1799.8 2048 L 1347.71 2048 L 1256.71 2048 L 1191.63 2048 L 1102.4 2048 L 1024.83 2048 L 1010.27 2048 L 934.637 2048 L 844.376 2048 L 779.547 2048 L 688.466 2048 L 240.67 2048 C 246.468 1998.73 261.724 1951.04 285.598 1907.55 C 292.294 1892.52 308.538 1871.52 320.212 1859.69 C 328.406 1849.23 348.479 1829.34 359.696 1822.17 C 373.679 1809.86 396.162 1796.92 413.211 1790.04 C 435.29 1779.63 471.568 1766.59 495.03 1757.16 C 539.5 1739.28 585.127 1720.37 629.846 1703.47 L 631.118 1702.29 C 641.786 1646.38 674.519 1624.62 717.51 1593.71 L 772.907 1553.24 C 784.683 1544.67 800.487 1533.85 811.242 1524.44 C 812.402 1492.28 811.048 1451.75 811.028 1418.84 z" fill="rgb(255,90,31)" transform="translate(0,0)"></path>
<path d="M 1225.69 1523.57 C 1254.83 1548.18 1290.46 1571.67 1321.03 1595.1 C 1339.25 1609.07 1358.53 1620.49 1374.18 1637.82 C 1388.95 1654.18 1402.42 1679.87 1405.25 1701.77 L 1406.98 1703.32 L 1530.86 1753.74 C 1559.84 1765.22 1593.38 1777.18 1621.53 1789.21 C 1643.27 1797.72 1663.89 1808.25 1681.2 1824.26 C 1693.27 1833.89 1708.26 1847.77 1717.75 1859.85 C 1729.38 1872.56 1744.48 1891.3 1752.46 1906.34 C 1777.59 1950.09 1791.96 1998.41 1799.8 2048 L 1347.71 2048 L 1256.71 2048 L 1191.63 2048 L 1102.4 2048 L 1024.83 2048 C 1028.2 2039.97 1033.03 2023.31 1036.16 2014.26 C 1043.28 1994.07 1050.61 1973.96 1058.17 1953.93 C 1068.61 1925.92 1070.79 1920.38 1089.47 1897.27 C 1102.97 1880.57 1126.85 1853.87 1137.72 1836.16 C 1143.44 1830.71 1155.6 1813.71 1161.57 1806.4 C 1164.76 1840.04 1191.95 1862.82 1225.49 1858.56 C 1240.5 1856.68 1254.14 1848.92 1263.44 1836.99 C 1274.92 1822.09 1274.34 1809.8 1272.27 1792.67 C 1279.52 1793.24 1287.22 1793.93 1294.42 1793.03 C 1308.69 1791.25 1321.64 1783.8 1330.36 1772.36 C 1339.63 1760.44 1343.59 1745.23 1341.29 1730.31 C 1336.01 1693.86 1305.51 1678.59 1271.58 1683.93 C 1277.43 1658.91 1276.62 1644.77 1264.29 1622.1 C 1243.97 1594.98 1229.34 1557.21 1225.69 1523.57 z" fill="rgb(255,90,31)" transform="translate(0,0)"></path>
<path d="M 1576.1 1967 C 1571.37 1967.77 1567.39 1968.34 1562.56 1968.5 C 1547.87 1969.01 1533.58 1963.63 1522.88 1953.56 C 1495.47 1927.24 1501.02 1882.57 1533.96 1864.1 C 1547.85 1856.32 1558.11 1857.1 1573.63 1857.18 C 1575.93 1853.59 1570.91 1834.55 1579.91 1819.58 C 1590.89 1801.33 1601.74 1795.28 1621.53 1789.21 C 1643.27 1797.72 1663.89 1808.25 1681.2 1824.26 C 1693.27 1833.89 1708.26 1847.77 1717.75 1859.85 C 1729.38 1872.56 1744.48 1891.3 1752.46 1906.34 C 1752.68 1914.35 1752.45 1921.16 1750.32 1928.96 C 1746.47 1943.35 1736.89 1955.52 1723.81 1962.65 C 1709.87 1970.22 1697.59 1970.62 1682.77 1966.3 C 1696.11 2056.58 1561.59 2055.86 1576.1 1967 z" fill="rgb(255,209,102)" transform="translate(0,0)"></path>
<path d="M 1681.2 1824.26 C 1693.27 1833.89 1708.26 1847.77 1717.75 1859.85 C 1701.07 1856.21 1701.6 1856.13 1683.7 1858.2 C 1684.84 1843.04 1684.8 1839.91 1681.43 1825.31 L 1681.2 1824.26 z" fill="rgb(255,90,31)" transform="translate(0,0)"></path>
<path d="M 1622.84 1879.48 C 1640.38 1876.33 1657.17 1887.96 1660.38 1905.49 C 1663.6 1923.02 1652.03 1939.84 1634.51 1943.12 C 1616.91 1946.41 1599.98 1934.78 1596.75 1917.16 C 1593.52 1899.54 1605.21 1882.65 1622.84 1879.48 z" fill="rgb(255,90,31)" transform="translate(0,0)"></path>
<path d="M 1210.22 1937.05 C 1226.17 1940.95 1252.82 1948.85 1267.9 1955.4 C 1279.58 1971.36 1280.29 1983.37 1278.31 2002.2 C 1315.67 1995.34 1337.02 2014.08 1347.71 2048 L 1256.71 2048 L 1191.63 2048 L 1102.4 2048 C 1108.83 2012.74 1136.86 1996.78 1170.86 2002.32 C 1165.29 1969.1 1177.14 1947.24 1210.22 1937.05 z" fill="rgb(255,209,102)" transform="translate(0,0)"></path>
<path d="M 1191.63 2048 C 1197.83 2035.93 1200.79 2029.19 1214.59 2024.28 C 1233.4 2017.59 1250.44 2030.36 1256.71 2048 L 1191.63 2048 z" fill="rgb(255,90,31)" transform="translate(0,0)"></path>
<path d="M 1409.32 1720.83 C 1420.34 1779.31 1430.85 1837.88 1440.86 1896.54 C 1447.29 1934.85 1453.86 1981.16 1462.55 2018.6 C 1405.2 2000.22 1347.79 1981.52 1290.71 1962.27 C 1283.54 1959.85 1275.22 1957.1 1267.9 1955.4 C 1252.82 1948.85 1226.17 1940.95 1210.22 1937.05 C 1208.39 1936.14 1205.98 1935.22 1204.05 1934.72 C 1149.83 1920.57 1117.76 1927.11 1070.67 1952.53 C 1072.12 1947.56 1073.78 1942.65 1075.65 1937.83 C 1092.02 1896.42 1142.43 1875.44 1183.47 1891.7 C 1209.89 1902.17 1235.47 1914.05 1261.31 1925.85 L 1377.75 1979.32 C 1406.17 1992.34 1431.87 2004.52 1460.93 2016.09 C 1449.08 1999.53 1429.48 1960.34 1425.24 1941.28 C 1419.82 1916.91 1419.05 1880.02 1417.26 1854.07 L 1407.51 1723.75 L 1409.32 1720.83 z" fill="rgb(196,35,34)" transform="translate(0,0)"></path>
<path d="M 811.028 1418.84 C 819.366 1430.81 824.288 1439.25 833.847 1451.2 C 869.514 1495.8 921.709 1530.94 978.482 1541.21 C 1036.27 1551.82 1095.9 1538.78 1143.98 1505.01 C 1184.46 1476.62 1197.13 1455.41 1224.99 1418.83 C 1225.23 1432.57 1223.25 1507.8 1225.59 1514.8 L 1225.69 1523.57 C 1229.34 1557.21 1243.97 1594.98 1264.29 1622.1 C 1260.67 1629.94 1256.65 1644.7 1253.74 1653.45 C 1247.68 1671.78 1240.02 1689.54 1230.85 1706.54 C 1220.38 1724.84 1210.01 1744.72 1197.32 1761.59 C 1183.12 1780.27 1175.83 1788.87 1156.85 1802.37 C 1105.83 1839.07 1042.05 1853.41 980.226 1842.09 C 935.966 1834.32 894.042 1812.32 859.247 1783.12 C 853.415 1778.23 845.191 1766.18 840.541 1759.59 C 827.073 1740.8 818.482 1723.93 807.166 1704.35 C 792.635 1683.2 784.522 1646.22 773.568 1622.2 C 794.589 1589.46 806.584 1563.78 811.242 1524.44 C 812.402 1492.28 811.048 1451.75 811.028 1418.84 z" fill="rgb(255,140,66)" transform="translate(0,0)"></path>
<path d="M 413.211 1790.04 C 435.29 1779.63 471.568 1766.59 495.03 1757.16 C 539.5 1739.28 585.127 1720.37 629.846 1703.47 L 600.07 1862.59 C 593.961 1897.67 587.41 1932.67 580.418 1967.58 C 577.353 1983.7 574.323 2003.91 570.715 2019.54 C 613.428 2006.27 655.872 1992.15 698.024 1977.19 C 715.264 1971.23 752.185 1957.78 768.791 1953.92 C 756.851 1972.07 755.864 1982.68 759.684 2003.77 C 723.02 1991.88 698.762 2015.28 688.466 2048 L 240.67 2048 C 246.468 1998.73 261.724 1951.04 285.598 1907.55 C 292.294 1892.52 308.538 1871.52 320.212 1859.69 C 328.406 1849.23 348.479 1829.34 359.696 1822.17 C 373.679 1809.86 396.162 1796.92 413.211 1790.04 z" fill="rgb(255,90,31)" transform="translate(0,0)"></path>
<path d="M 413.211 1790.04 C 449.045 1795.22 470.241 1819.67 464.024 1856.21 C 463.887 1857 463.74 1857.79 463.582 1858.58 C 481.103 1856.04 495.953 1856.99 510.922 1867.83 C 523.041 1876.72 531.066 1890.13 533.184 1905.01 C 535.494 1919.86 531.697 1935.01 522.659 1947.02 C 508.479 1965.81 486.352 1970.87 464.276 1966.98 C 466.352 1984.18 465.507 1998.51 454.066 2013.06 C 444.615 2025.07 430.68 2032.7 415.477 2034.19 C 400.411 2035.6 385.403 2030.96 373.764 2021.29 C 362.965 2012.43 356.198 1999.58 354.993 1985.66 C 354.433 1979.7 355.115 1972.87 355.715 1966.87 C 338.851 1970.12 322.708 1968.02 308.236 1958.3 C 296.414 1950.43 288.474 1937.92 286.379 1923.87 C 285.658 1919.3 285.675 1912.29 285.598 1907.55 C 292.294 1892.52 308.538 1871.52 320.212 1859.69 C 328.406 1849.23 348.479 1829.34 359.696 1822.17 C 373.679 1809.86 396.162 1796.92 413.211 1790.04 z" fill="rgb(255,209,102)" transform="translate(0,0)"></path>
<path d="M 320.212 1859.69 C 328.406 1849.23 348.479 1829.34 359.696 1822.17 L 359.413 1823.06 C 354.721 1837.45 354.468 1842.33 355.3 1857.75 C 338.256 1855 336.411 1856.43 320.212 1859.69 z" fill="rgb(255,90,31)" transform="translate(0,0)"></path>
<path d="M 405.274 1878.69 C 423.057 1876.34 439.412 1888.76 441.939 1906.51 C 444.467 1924.27 432.224 1940.75 414.493 1943.46 C 402.86 1945.24 391.169 1940.63 383.876 1931.4 C 376.583 1922.16 374.813 1909.72 379.239 1898.82 C 383.666 1887.91 393.607 1880.23 405.274 1878.69 z" fill="rgb(255,90,31)" transform="translate(0,0)"></path>
<path d="M 1264.29 1622.1 C 1276.62 1644.77 1277.43 1658.91 1271.58 1683.93 C 1305.51 1678.59 1336.01 1693.86 1341.29 1730.31 C 1343.59 1745.23 1339.63 1760.44 1330.36 1772.36 C 1321.64 1783.8 1308.69 1791.25 1294.42 1793.03 C 1287.22 1793.93 1279.52 1793.24 1272.27 1792.67 C 1274.34 1809.8 1274.92 1822.09 1263.44 1836.99 C 1254.14 1848.92 1240.5 1856.68 1225.49 1858.56 C 1191.95 1862.82 1164.76 1840.04 1161.57 1806.4 C 1155.6 1813.71 1143.44 1830.71 1137.72 1836.16 C 1126.85 1853.87 1102.97 1880.57 1089.47 1897.27 C 1070.79 1920.38 1068.61 1925.92 1058.17 1953.93 C 1050.61 1973.96 1043.28 1994.07 1036.16 2014.26 C 1033.03 2023.31 1028.2 2039.97 1024.83 2048 L 1010.27 2048 C 1006.17 2038.5 1001.52 2023.76 998.013 2013.73 L 977.898 1956.69 C 974.519 1946.94 968.978 1929.07 964.619 1920.82 C 961.023 1914.03 949.326 1900.04 943.836 1893.08 C 933.796 1880.26 923.834 1867.39 913.95 1854.45 C 909.288 1848.37 902.378 1839.9 899.029 1833.31 C 891.632 1826.39 881.227 1812.07 874.827 1803.66 L 874.746 1804.57 C 871.442 1839.07 845.515 1862.38 810.443 1858.42 C 795.829 1856.8 782.506 1849.29 773.55 1837.63 C 761.659 1822.29 761.228 1809.48 763.536 1791.34 C 755.56 1792.88 750.158 1793.74 741.951 1792.82 C 727.312 1791.17 714.013 1783.52 705.225 1771.7 C 696.038 1759.61 692.26 1744.26 694.786 1729.29 C 700.561 1693.5 729.541 1677.69 763.924 1684.24 C 763.549 1682.72 763.188 1681.2 762.839 1679.67 C 757.671 1657.01 761.481 1641.4 773.568 1622.2 C 784.522 1646.22 792.635 1683.2 807.166 1704.35 C 818.482 1723.93 827.073 1740.8 840.541 1759.59 C 845.191 1766.18 853.415 1778.23 859.247 1783.12 C 894.042 1812.32 935.966 1834.32 980.226 1842.09 C 1042.05 1853.41 1105.83 1839.07 1156.85 1802.37 C 1175.83 1788.87 1183.12 1780.27 1197.32 1761.59 C 1210.01 1744.72 1220.38 1724.84 1230.85 1706.54 C 1240.02 1689.54 1247.68 1671.78 1253.74 1653.45 C 1256.65 1644.7 1260.67 1629.94 1264.29 1622.1 z" fill="rgb(255,209,102)" transform="translate(0,0)"></path>
<path d="M 899.029 1833.31 C 913.323 1839.51 929.774 1846.76 944.811 1851.1 C 1000.13 1867.09 1055.93 1867.65 1110.34 1847.24 C 1116.23 1845.03 1133.68 1837.05 1137.72 1836.16 C 1126.85 1853.87 1102.97 1880.57 1089.47 1897.27 C 1070.79 1920.38 1068.61 1925.92 1058.17 1953.93 C 1050.61 1973.96 1043.28 1994.07 1036.16 2014.26 C 1033.03 2023.31 1028.2 2039.97 1024.83 2048 L 1010.27 2048 C 1006.17 2038.5 1001.52 2023.76 998.013 2013.73 L 977.898 1956.69 C 974.519 1946.94 968.978 1929.07 964.619 1920.82 C 961.023 1914.03 949.326 1900.04 943.836 1893.08 C 933.796 1880.26 923.834 1867.39 913.95 1854.45 C 909.288 1848.37 902.378 1839.9 899.029 1833.31 z" fill="rgb(255,140,66)" transform="translate(0,0)"></path>
<path d="M 807.166 1704.35 C 818.482 1723.93 827.073 1740.8 840.541 1759.59 C 793.765 1791.84 762.687 1729.48 805.606 1705.27 L 807.166 1704.35 z" fill="rgb(255,90,31)" transform="translate(0,0)"></path>
<path d="M 1230.85 1706.54 C 1259.62 1719.09 1255.57 1757.51 1228.01 1767.31 C 1220.22 1770.12 1211.6 1769.51 1204.28 1765.64 C 1202.07 1764.49 1199.58 1762.87 1197.32 1761.59 C 1210.01 1744.72 1220.38 1724.84 1230.85 1706.54 z" fill="rgb(255,90,31)" transform="translate(0,0)"></path>
<path d="M 821.146 1936.3 C 857.703 1947.16 870.447 1965.62 866.393 2003.37 C 902.068 1998.34 925.609 2011.74 934.637 2048 L 844.376 2048 L 779.547 2048 L 688.466 2048 C 698.762 2015.28 723.02 1991.88 759.684 2003.77 C 755.864 1982.68 756.851 1972.07 768.791 1953.92 C 785.014 1947.19 804.311 1941.25 821.146 1936.3 z" fill="rgb(255,209,102)" transform="translate(0,0)"></path>
<path d="M 779.547 2048 C 779.78 2047.52 780.014 2047.05 780.247 2046.57 C 786.029 2028.45 805.944 2017.32 823.998 2025.09 C 835.637 2030.11 838.558 2037.38 844.376 2048 L 779.547 2048 z" fill="rgb(255,90,31)" transform="translate(0,0)"></path>
<path d="M 631.118 1702.29 C 629.902 1725.77 626.3 1753.3 624.646 1777.9 C 622.667 1808.43 620.492 1838.95 618.121 1869.45 C 612.554 1942.35 609.647 1952.94 573.76 2017.01 C 592.28 2009.41 612.17 1999.44 630.753 1991.16 L 785.867 1921.72 C 808.811 1911.5 843.517 1892.32 867.042 1887.85 C 917.362 1878.29 951.638 1906.76 964.305 1951.93 C 915.855 1920.76 874.32 1924.49 821.146 1936.3 C 804.311 1941.25 785.014 1947.19 768.791 1953.92 C 752.185 1957.78 715.264 1971.23 698.024 1977.19 C 655.872 1992.15 613.428 2006.27 570.715 2019.54 C 574.323 2003.91 577.353 1983.7 580.418 1967.58 C 587.41 1932.67 593.961 1897.67 600.07 1862.59 L 629.846 1703.47 L 631.118 1702.29 z" fill="rgb(196,35,34)" transform="translate(0,0)"></path>
<path d="M 622.981 423.189 C 632.883 438.37 636.885 457.071 646.697 472.337 C 654.295 484.157 665.281 492.753 679.209 495.646 C 713.809 502.835 887.191 483.909 926.182 471.347 C 933.26 469.067 939.134 465.73 944.563 460.606 C 966.123 440.258 966.693 399.382 990.745 384.339 C 1002.58 376.935 1020.77 376.459 1034.15 379.956 C 1046.39 383.153 1052.08 391.459 1058.15 401.76 L 1058.86 402.826 C 1077.12 430.822 1074.12 464.3 1111.52 473.073 C 1119.2 474.874 1128.36 475.002 1135.67 477.533 C 1143.57 478.712 1148.48 479.636 1156.2 481.6 C 1170.01 483.226 1187.39 484.844 1200.72 487.535 C 1205.95 487.058 1206.73 487.353 1212.02 488.352 C 1241.38 491.574 1333.48 502.601 1358.94 494.535 C 1377.07 488.794 1386.58 472.007 1394.54 456.098 C 1399.83 459.05 1407.23 460.341 1413.21 461.641 L 1430.23 599.317 C 1431.76 611.692 1437.39 647.893 1436.75 657.964 C 1442.43 663.05 1457.31 671.382 1464.34 675.972 C 1513.95 704.215 1523.03 766.024 1508.76 817.439 C 1505.49 829.227 1500.69 840.269 1495.87 851.478 C 1511.93 849.139 1523.98 848.813 1539.98 852.566 C 1544.43 853.885 1549.01 855.093 1553.27 856.9 C 1579.05 867.163 1599.67 887.285 1610.55 912.805 C 1646.96 1000.05 1590.61 1107.89 1505.85 1142.49 C 1496.57 1146.35 1486.93 1149.29 1477.07 1151.28 C 1449.1 1157.29 1426.95 1156.86 1399.86 1148.11 C 1399.51 1147.86 1399.15 1147.6 1398.8 1147.35 C 1401.9 1130.42 1405.11 1113.65 1407.91 1096.66 C 1418.54 1032.26 1421.03 966.89 1426.6 901.943 C 1428.53 879.956 1430.67 858.687 1429.67 836.565 C 1428.48 810.33 1423.01 787.693 1415.9 762.753 C 1347.97 753.903 1287.94 693.884 1278.35 626.317 C 1259.54 627.309 1240.68 626.604 1222 624.21 C 1178.86 618.616 1123.46 596.746 1096.19 561.342 C 1012.9 688.982 862.798 715.738 728.551 659.514 L 717.256 653.729 C 698.677 701.111 672.013 734.872 624.147 755.935 C 617.489 758.835 610.653 761.304 603.68 763.329 C 586.252 828.227 594.11 889.72 598.915 955.489 C 602.797 1008.63 604.578 1062.07 614.462 1114.57 C 616.279 1124.37 618.434 1140.98 621.44 1149.81 C 600.145 1155.7 577.826 1156.9 556.022 1153.32 C 504.961 1145.2 465.229 1120.46 435.121 1078.38 C 391.995 1018.12 380.393 914.629 448.437 867.108 C 474.443 848.946 503.754 847.217 534.006 852.958 C 531.864 849.215 529.806 845.425 527.834 841.59 C 499.015 785.372 502.084 704.833 564.669 673.384 C 573.748 668.756 584.767 660.009 592.695 653.596 C 593.584 630.349 598.932 599.465 602.023 575.711 C 608.352 524.783 615.339 473.938 622.981 423.189 z" fill="rgb(245,237,230)" transform="translate(0,0)"></path>
<path d="M 622.981 423.189 C 632.883 438.37 636.885 457.071 646.697 472.337 C 654.295 484.157 665.281 492.753 679.209 495.646 C 713.809 502.835 887.191 483.909 926.182 471.347 C 933.26 469.067 939.134 465.73 944.563 460.606 C 966.123 440.258 966.693 399.382 990.745 384.339 C 1002.58 376.935 1020.77 376.459 1034.15 379.956 C 1046.39 383.153 1052.08 391.459 1058.15 401.76 C 1047.91 440.795 1021.87 484.44 993.174 512.604 C 910.471 593.787 760.874 619.171 656.108 569.29 C 640.46 609.808 625.938 627.296 592.695 653.596 C 593.584 630.349 598.932 599.465 602.023 575.711 C 608.352 524.783 615.339 473.938 622.981 423.189 z" fill="rgb(43,16,22)" transform="translate(0,0)"></path>
<path d="M 1005.83 404.856 C 1010.05 404.649 1011.57 404.629 1014.41 407.026 C 1017.33 416.099 1005.91 433.711 1001.22 441.464 C 978.922 478.686 946.928 509.149 908.659 529.595 C 838.5 567.136 773.319 570.077 698.399 547.088 C 692.657 545.118 686.654 541.457 690.788 534.745 C 696.84 532.12 714.978 538.53 722.789 540.318 C 751.269 546.855 780.609 548.81 809.705 546.109 C 877.393 539.953 936.286 504.139 978.827 451.83 C 989.741 438.409 996.146 415.484 1005.83 404.856 z" fill="rgb(58,36,32)" transform="translate(0,0)"></path>
<path d="M 1394.54 456.098 C 1399.83 459.05 1407.23 460.341 1413.21 461.641 L 1430.23 599.317 C 1431.76 611.692 1437.39 647.893 1436.75 657.964 C 1382.31 619.221 1360.06 581.942 1361.06 514.504 C 1342.58 514.156 1324.78 514.968 1306.02 513.579 C 1272.62 511.107 1241.06 503.249 1209.92 491.377 L 1200.72 487.535 C 1205.95 487.058 1206.73 487.353 1212.02 488.352 C 1241.38 491.574 1333.48 502.601 1358.94 494.535 C 1377.07 488.794 1386.58 472.007 1394.54 456.098 z" fill="rgb(43,16,22)" transform="translate(0,0)"></path>
<path d="M 1532.78 898.403 C 1538.69 897.882 1563.94 893.873 1559.03 908.014 C 1556.67 914.792 1543.64 910.834 1537.3 911.114 C 1497.56 912.868 1464.06 935.97 1447.71 973.244 C 1445.48 980.197 1440.24 997.009 1431.58 982.745 C 1430.85 972.883 1447.61 946.368 1454.39 938.41 C 1475.17 913.99 1501.35 901.528 1532.78 898.403 z" fill="rgb(255,140,66)" transform="translate(0,0)"></path>
<path d="M 470.175 901.401 C 520.583 899.188 567.059 922.41 587.204 970.819 C 589.208 975.633 592.684 980.863 591.313 986.198 C 589.092 988.995 586.784 989.211 583.298 990.247 C 579.525 988.959 576.757 979.952 574.874 975.658 C 558.948 939.341 531.484 919.563 492.17 914.924 C 482.622 913.798 470.209 917.237 464.262 911.919 C 462.681 905.744 464.464 903.605 470.175 901.401 z" fill="rgb(255,140,66)" transform="translate(0,0)"></path>
<path d="M 600.617 407.234 C 597.643 398.634 596.823 371.257 600.899 363.664 C 605.762 354.602 643.49 353.562 654.382 351.735 C 732.485 338.634 810.855 328.735 890.226 330.652 C 908.932 331.104 936.239 329.328 952.993 338.986 C 964.68 346.658 968.836 353.524 983.085 359.252 C 996.465 356.139 1008.5 353.005 1022.38 353.476 C 1030.24 353.742 1047.48 359.66 1053.49 357.787 C 1074.82 351.135 1077.55 334.353 1103.58 332.185 C 1122.85 330.579 1140.45 331.075 1159.64 330.91 C 1237.71 330.205 1315.09 340.672 1391.99 353.085 C 1402.45 354.773 1420.52 355.211 1429.12 360.033 C 1437.94 364.982 1435.32 399.219 1432.56 407.309 C 1427.53 410.649 1410.1 420.959 1408.12 424.639 C 1408.76 427.187 1409.18 429.1 1409.64 431.686 C 1410.27 436.868 1410.94 440.995 1411.44 446.281 C 1412.35 448.614 1413.04 459.009 1413.21 461.641 C 1407.23 460.341 1399.83 459.05 1394.54 456.098 C 1386.58 472.007 1377.07 488.794 1358.94 494.535 C 1333.48 502.601 1241.38 491.574 1212.02 488.352 C 1206.73 487.353 1205.95 487.058 1200.72 487.535 C 1187.39 484.844 1170.01 483.226 1156.2 481.6 C 1148.48 479.636 1143.57 478.712 1135.67 477.533 C 1128.36 475.002 1119.2 474.874 1111.52 473.073 C 1074.12 464.3 1077.12 430.822 1058.86 402.826 L 1058.15 401.76 C 1052.08 391.459 1046.39 383.153 1034.15 379.956 C 1020.77 376.459 1002.58 376.935 990.745 384.339 C 966.693 399.382 966.123 440.258 944.563 460.606 C 939.134 465.73 933.26 469.067 926.182 471.347 C 887.191 483.909 713.809 502.835 679.209 495.646 C 665.281 492.753 654.295 484.157 646.697 472.337 C 636.885 457.071 632.883 438.37 622.981 423.189 C 619.974 419.957 606.247 411.583 600.617 407.234 z" fill="rgb(255,140,66)" transform="translate(0,0)"></path>
<path d="M 1411.44 446.281 C 1412.35 448.614 1413.04 459.009 1413.21 461.641 C 1407.23 460.341 1399.83 459.05 1394.54 456.098 C 1395.5 453.713 1398.05 448.223 1399.18 445.97 C 1402.38 447.69 1408.96 450.047 1411.44 446.281 z" fill="rgb(58,36,32)" transform="translate(0,0)"></path>
<path d="M 1408.12 424.639 C 1408.76 427.187 1409.18 429.1 1409.64 431.686 C 1410.27 436.868 1410.94 440.995 1411.44 446.281 C 1408.96 450.047 1402.38 447.69 1399.18 445.97 C 1401.04 442.044 1404.28 434.879 1405.81 430.884 C 1406.72 428.669 1407.36 426.89 1408.12 424.639 z" fill="rgb(43,16,22)" transform="translate(0,0)"></path>
<path d="M 834.496 352.441 C 859.049 351.571 922.388 348.016 941.045 363.346 C 947.885 368.859 952.129 376.966 952.761 385.729 C 953.879 401.311 938.627 432.497 929.594 445.369 C 923.079 454.654 896.096 456.878 884.821 458.608 C 845.827 464.633 806.6 469.034 767.24 471.799 C 743.416 474.291 714.12 476.539 689.574 474.191 C 666.137 471.949 651.453 428.723 648.457 408.626 C 647.103 399.539 652.286 386.25 658.676 379.546 C 670.142 367.52 691.518 368.995 706.75 365.455 C 748.943 358.777 791.758 354.056 834.496 352.441 z" fill="rgb(43,16,22)" transform="translate(0,0)"></path>
<path d="M 1146.56 352.439 C 1152.75 352.128 1158.94 351.985 1165.14 352.009 C 1215.98 351.986 1267.13 356.916 1317.4 364.179 C 1333.64 366.525 1363.32 367.424 1374.69 379.025 C 1392.7 397.422 1385.79 415.945 1377.13 436.023 C 1363.37 467.911 1358.88 478.264 1322.25 475.291 C 1290.97 474.88 1124.07 461.429 1107.65 448.353 C 1097.94 440.623 1082.98 403.529 1082.05 390.788 C 1081.41 381.765 1084.54 372.88 1090.71 366.262 C 1104.2 351.512 1127.6 353.253 1146.56 352.439 z" fill="rgb(43,16,22)" transform="translate(0,0)"></path>
<path d="M 1262.47 1341.11 C 1301.13 1307.82 1335.36 1265.52 1365.8 1224.69 C 1375.27 1211.99 1400.16 1147.88 1399.86 1148.11 C 1426.95 1156.86 1449.1 1157.29 1477.07 1151.28 C 1483.75 1156.71 1481.85 1161.91 1485.33 1168.56 C 1503.02 1202.37 1531.4 1191.48 1554.16 1173.65 C 1553.52 1196.52 1549.4 1213.82 1531.99 1230.29 C 1512.05 1249.15 1489.25 1248.34 1463.85 1247.76 C 1457.53 1283.39 1437.31 1315.06 1407.63 1335.77 C 1377.25 1356.79 1339.77 1364.89 1303.42 1358.28 C 1290.45 1355.87 1271.74 1351.13 1262.47 1341.11 z" fill="rgb(43,16,22)" transform="translate(0,0)"></path>
<path d="M 1421.95 1203.46 C 1424.99 1204.36 1430.28 1206.13 1430.7 1209.84 C 1432.11 1222.39 1427.1 1239.76 1421.6 1250.98 C 1406.35 1282.05 1381.3 1298.6 1349.34 1309.64 C 1341.65 1311.29 1340.61 1302.16 1343.05 1300.46 C 1355.87 1291.35 1373.14 1286.68 1385.25 1276.32 C 1401.35 1262.53 1412.67 1245.1 1415.71 1223.93 C 1416.53 1218.24 1418.9 1208.3 1421.95 1203.46 z" fill="rgb(58,36,32)" transform="translate(0,0)"></path>
<path d="M 1408.12 424.639 C 1410.1 420.959 1427.53 410.649 1432.56 407.309 C 1433.13 425.342 1436.56 445.727 1438.36 463.897 C 1438.78 468.249 1439.26 472.685 1439.61 477.034 L 1456.43 612.159 C 1458.06 625.29 1461.6 664.672 1464.34 675.972 C 1457.31 671.382 1442.43 663.05 1436.75 657.964 C 1437.39 647.893 1431.76 611.692 1430.23 599.317 L 1413.21 461.641 C 1413.04 459.009 1412.35 448.614 1411.44 446.281 C 1410.94 440.995 1410.27 436.868 1409.64 431.686 C 1409.18 429.1 1408.76 427.187 1408.12 424.639 z" fill="rgb(255,90,31)" transform="translate(0,0)"></path>
<path d="M 600.617 407.234 C 606.247 411.583 619.974 419.957 622.981 423.189 C 615.339 473.938 608.352 524.783 602.023 575.711 C 598.932 599.465 593.584 630.349 592.695 653.596 C 584.767 660.009 573.748 668.756 564.669 673.384 C 571.341 619.739 579.064 559.574 587.586 506.404 L 590.599 485.9 C 593.713 473.38 599.133 421.763 600.617 407.234 z" fill="rgb(255,90,31)" transform="translate(0,0)"></path>
<metadata><recraft-signature>{"signed_by": "recraft", "signature_b64": "k6Dq6GN14wYPM3vS0/tXc6IwXAc9Rcrnozsb2xu0MZ4xh7WR04dYDb8n0ne6rf8OW1CPLctQhChaD4v0+1CQDw==", "signing_algo": "Ed25519", "generation_timestamp": 1783313390, "identifier": "e4ff9f90-e525-4124-8919-5b1d96c907f9"}</recraft-signature></metadata></svg>