<svg xmlns="http://www.w3.org/2000/svg" height="896" preserveAspectRatio="none" style="display: block;" version="1.1" viewBox="0 0 2048 1509" width="1216">
<path d="M 0 0 L 2048 0 L 2048 1509 L 0 1509 L 0 0 z" fill="rgb(43,16,22)" transform="translate(0,0)"></path>
<path d="M 1552.23 903.963 L 1589.6 904.151 C 1589.63 920.428 1589.47 937.085 1589.69 953.328 C 1589.95 989.468 1590.59 1029.02 1589.72 1065.01 C 1589.46 1112.99 1590.16 1161.2 1589.63 1209.08 L 944.982 1209.14 L 944.954 1076.89 L 944.768 1028.42 C 945.353 1009.28 945.003 988.464 945.02 969.196 L 944.949 903.891 L 1552.23 903.963 z" fill="rgb(245,237,230)" transform="translate(0,0)"></path>
<path d="M 1556.78 1058.02 C 1565.6 1061.05 1580.32 1064.24 1589.72 1065.01 C 1589.46 1112.99 1590.16 1161.2 1589.63 1209.08 L 944.982 1209.14 L 944.954 1076.89 C 958.998 1075.26 973.27 1074.62 987.396 1073.81 C 1036.74 1100.09 1035.09 1085.23 1082.77 1064.98 C 1101.93 1078.42 1137.12 1092.62 1160.03 1097.69 C 1167.8 1099.41 1217.24 1096.99 1226.41 1095.86 C 1241.34 1083.08 1247.94 1081 1267.04 1075.69 C 1288.54 1069.7 1308.5 1061.74 1331.03 1060.32 C 1343.48 1073.04 1342.05 1069.55 1356.54 1076.01 C 1381.46 1087.11 1409.83 1069.54 1430.35 1071 C 1441.88 1071.82 1484.29 1086.71 1497.17 1091.01 C 1516.71 1079.64 1537.77 1069.67 1556.78 1058.02 z" fill="rgb(255,209,102)" transform="translate(0,0)"></path>
<path d="M 1552.23 903.963 L 1589.6 904.151 C 1589.63 920.428 1589.47 937.085 1589.69 953.328 C 1583.92 954.481 1568.18 961.24 1561.86 963.758 C 1547.38 958.829 1532.64 954.32 1518.15 949.606 C 1499.46 943.524 1492.5 943.579 1473.72 946.517 C 1462.19 938.575 1442.55 926.061 1428.94 923.671 C 1419.54 922.019 1409.44 921.33 1399.81 919.384 C 1395.45 923.853 1392.33 927.275 1387.3 930.948 C 1375.15 931.201 1360.41 931.978 1348.64 930.22 C 1337.69 928.584 1325.48 924.438 1314.61 922.337 L 1313.25 922.851 C 1296.75 929.144 1278.22 942.305 1261.07 943.783 C 1232.95 946.206 1201.3 972.918 1172.71 964.021 C 1167.33 962.347 1152.37 948.483 1146.29 944.014 C 1109.18 943.989 1109.94 940.637 1078.24 958.314 C 1054.51 957.619 1049.83 959.921 1030.26 946.947 L 982.742 976.48 C 973.943 974.778 952.849 970.048 945.02 969.196 L 944.949 903.891 L 1552.23 903.963 z" fill="rgb(255,209,102)" transform="translate(0,0)"></path>
<path d="M 1049.93 642.916 C 1066.56 642.989 1085.5 643.283 1102.26 642.772 C 1106.27 641.755 1110.35 639.331 1114.2 637.975 C 1118.17 636.578 1120.98 641.332 1125.13 642.024 C 1129.35 642.575 1134.39 643.048 1138.65 642.827 C 1157.8 641.834 1177.46 647.015 1194.35 636.15 C 1196.51 637.691 1201.14 640.914 1203.54 641.181 C 1223.81 643.44 1255.11 646.699 1273.21 636.815 C 1287.85 646.933 1322.44 641.854 1340.51 642.073 C 1354.05 636.59 1342.99 635.888 1356.65 640.345 C 1371.53 645.201 1402.5 643.185 1418.5 641.547 C 1426.87 640.689 1420.41 637.718 1430.67 640.635 C 1451.04 646.432 1477.59 641.48 1498.91 641.608 C 1516.02 642.11 1531.28 643.994 1548.53 642.646 C 1548.83 648.752 1549.01 654.041 1548.93 660.148 C 1539.99 661.499 1531.03 662.784 1522.06 664 C 1530.98 666.975 1539.93 669.883 1548.89 672.723 L 1548.47 686.841 C 1541.32 689.097 1524.32 690.994 1520.43 692.736 L 1520.42 693.958 L 1524.89 696.628 C 1523.84 700.227 1508.81 706.172 1504.84 707.97 C 1507.43 710.161 1512.54 714.951 1515.41 715.739 C 1516.79 714.634 1518.03 713.669 1519.46 712.618 C 1531.6 716.107 1533.32 718.952 1549.5 722.53 C 1549.32 726.997 1547.95 743.955 1548.65 746.408 L 1550.01 746.732 C 1551.79 747.173 1551.98 747.291 1553.57 748.312 C 1554.59 756.239 1553.49 778.199 1553.23 786.946 C 1545.44 788.382 1535.6 789.954 1528.04 791.736 C 1536.67 796.938 1544.5 801.283 1553.4 806.024 C 1552.92 820.662 1552.07 836.635 1552.03 851.177 C 1547.32 853.802 1540.3 857.436 1535.97 860.323 L 1551.61 864.96 C 1551.47 872.182 1551.52 894.611 1550.57 900.602 C 1546.21 899.605 1518.06 899.964 1512.62 899.968 L 1425.95 900.028 L 1049.98 900.315 L 1050.11 688.325 L 1050.07 657.172 L 1049.93 642.916 z" fill="rgb(255,90,31)" transform="translate(0,0)"></path>
<path d="M 1050.07 657.172 C 1059.41 659.748 1074.98 666.679 1084.57 670.419 C 1077.76 673.921 1055.38 686.665 1050.11 688.325 L 1050.07 657.172 z" fill="rgb(245,237,230)" transform="translate(0,0)"></path>
<path d="M 1177.01 753.5 L 1384.43 753.444 L 1452.94 753.484 C 1464.49 753.491 1495.95 749.57 1499.11 762.072 C 1496.36 772.217 1477.23 770.474 1469.25 770.247 C 1434.91 770.073 1155.69 772.223 1149.85 768.661 C 1147.71 767.362 1146.24 764.963 1146.03 762.489 C 1145.81 760.07 1146.68 757.676 1148.4 755.966 C 1152.22 752.187 1170.85 753.488 1177.01 753.5 z" fill="rgb(43,16,22)" transform="translate(0,0)"></path>
<path d="M 1148.79 847.977 C 1159.98 847.048 1181.36 847.746 1193.27 847.785 L 1274.91 847.879 L 1404.4 847.881 C 1423.81 847.876 1443.2 847.864 1462.6 847.643 C 1465.84 847.606 1470.52 848.539 1472.59 851.08 C 1476.23 855.553 1473.03 859.724 1470.19 862.981 C 1457.45 863.718 1438.54 863.106 1425.2 863.092 L 1341.53 863.074 L 1222.09 863.115 C 1200.94 863.164 1179.72 863.351 1158.58 863.29 C 1155.78 863.024 1150.6 863.575 1148.3 861.716 C 1143.03 857.448 1145.27 852.543 1148.79 847.977 z" fill="rgb(43,16,22)" transform="translate(0,0)"></path>
<path d="M 1149.51 800.174 C 1164.99 799.608 1184.01 800.188 1199.72 800.261 L 1295.11 800.572 L 1408.34 800.324 C 1417.77 800.299 1464.4 799.397 1471.04 801.566 C 1475.4 806.452 1473.93 810.732 1470.13 815.733 C 1455.11 816.485 1434.17 815.748 1418.62 815.649 L 1318.72 815.137 C 1266.18 815.09 1213.73 814.961 1161.2 816.16 C 1150.62 816.401 1140.34 811.373 1149.51 800.174 z" fill="rgb(43,16,22)" transform="translate(0,0)"></path>
<path d="M 1182.11 705.149 C 1274.77 703.156 1368.84 706.4 1461.61 705.362 C 1472.89 705.236 1477.93 711.727 1469.62 721.09 C 1461.17 721.773 1444.65 721.237 1435.69 721.206 L 1373.21 721.111 C 1311.04 721.16 1248.87 721.356 1186.71 721.349 C 1181.63 721.349 1177.19 718.576 1177.72 712.947 C 1178.06 709.279 1179.44 707.528 1182.11 705.149 z" fill="rgb(43,16,22)" transform="translate(0,0)"></path>
<path d="M 1063.76 704.21 C 1069.33 704.167 1086.76 702.543 1089.98 703.902 C 1098.7 707.572 1107.63 712.285 1116.77 715.762 C 1119.03 715.411 1133.53 713.371 1134.37 714.978 C 1133.82 718.245 1108.22 717.961 1104.47 717.863 C 1093.31 718.661 1079.34 718.143 1067.7 718.597 C 1066.51 713.226 1065.48 709.477 1063.76 704.21 z" fill="rgb(245,237,230)" transform="translate(0,0)"></path>
<path d="M 1050.72 746.036 C 1058.12 748.712 1066.47 752.753 1074.31 755.786 C 1071.72 757.492 1070.16 758.34 1067.58 759.874 L 1067.07 760.185 C 1062.62 762.48 1058.06 765.021 1053.59 767.188 C 1052.6 767.657 1051.62 768.144 1050.64 768.649 C 1050.57 761.111 1050.6 753.573 1050.72 746.036 z" fill="rgb(245,237,230)" transform="translate(0,0)"></path>
<path d="M 1072.21 729.31 C 1081.13 728.383 1099.65 729.415 1109.35 730.275 C 1109.76 730.311 1110.07 732.096 1110.18 732.552 C 1099.27 734.119 1085.41 733.55 1074.22 733.648 C 1073.2 733.657 1072.44 730.072 1072.21 729.31 z" fill="rgb(245,237,230)" transform="translate(0,0)"></path>
<path d="M 640.49 277.971 C 729.151 359.531 821.585 441.358 911.457 521.688 L 999.405 601.177 C 1012.54 613.028 1032.85 632.053 1046.18 642.619 L 1046.43 900.154 L 1004.2 900.15 C 1004.1 824.635 1002.69 744.106 1004.31 668.89 C 980.393 668.85 955.649 669.15 931.809 668.732 C 931.667 748.907 932.269 830.515 930.967 910.581 C 921.119 901.047 911.588 890.904 901.898 881.567 C 901.259 810.686 901.07 739.802 901.329 668.919 L 827.598 668.856 L 827.863 856.144 L 797.951 856.147 L 798.082 668.909 L 723.886 668.89 L 723.897 789.408 C 723.893 809.375 724.644 835.502 723.444 855.087 C 719.99 857.642 715.826 854.472 712.527 857.013 C 701.559 865.463 690.996 877.097 680.791 886.45 C 671.496 894.564 662.256 904.318 652.605 912.846 L 639.519 913.135 L 639.33 417.593 C 639.348 401.007 637.849 285.926 640.49 277.971 z" fill="rgb(245,237,230)" transform="translate(0,0)"></path>
<path d="M 693.655 478.129 L 819.91 478.048 L 819.706 608.044 L 693.723 607.992 C 694.19 564.996 693.71 521.187 693.655 478.129 z" fill="rgb(43,16,22)" transform="translate(0,0)"></path>
<path d="M 714.483 859.702 C 767.794 860.61 821.571 859.668 874.936 860.041 C 897.42 882.11 918.944 905.059 941.333 927.167 L 941.077 1132.93 C 941.077 1148.11 940.984 1163.31 940.921 1178.49 C 940.89 1186.11 942.228 1199.21 940.561 1206.37 L 939.259 1207.54 L 936.575 1207.18 C 925.64 1206.25 903.88 1206.83 892.353 1206.85 L 810.112 1207.01 L 711.338 1206.9 C 693.322 1206.82 671.151 1206.11 653.413 1206.92 C 650.299 1206.7 649.669 1206.79 646.82 1205.67 C 644.996 1201.73 646.196 944.48 646.582 923.342 C 653.979 915.244 674.773 897.17 683.789 888.707 L 714.483 859.702 z" fill="rgb(255,90,31)" transform="translate(0,0)"></path>
<path d="M 733.314 883.304 C 776.993 882.343 823.651 883.102 867.484 883.061 C 884.14 899.805 900.126 918.717 917.286 936.009 C 916.524 968.91 917.289 1005.59 917.331 1038.82 C 917.21 1087.54 917.438 1136.26 918.014 1184.98 L 863.25 1184.81 L 676.068 1184.56 C 676.526 1100.96 676.541 1017.35 676.114 933.744 C 695.204 917.693 714.498 899.905 733.314 883.304 z" fill="rgb(43,16,22)" transform="translate(0,0)"></path>
<path d="M 714.281 905.759 C 714.542 905.937 714.832 906.078 715.063 906.293 C 717.359 908.426 716.406 1152.64 716.49 1181.09 L 681.251 1181.03 C 678.911 1177.68 679.968 1106.16 679.978 1093.62 L 679.901 935.916 L 714.281 905.759 z" fill="rgb(255,209,102)" transform="translate(0,0)"></path>
<path d="M 835.015 908.15 L 869.08 908.171 L 869.065 988.339 C 868.659 988.713 868.26 989.094 867.867 989.481 C 855.215 1002.02 856.571 1014.66 869.41 1026.25 C 868.53 1074.29 869.3 1124.49 869.335 1172.7 C 869.297 1175.89 869.656 1178.86 867.977 1181.09 C 860.147 1182.03 843.561 1181.46 835.035 1181.38 L 835.015 908.15 z" fill="rgb(255,209,102)" transform="translate(0,0)"></path>
<path d="M 735.786 907.258 L 766.873 907.334 L 767.08 1181.23 L 735.636 1181.24 L 735.786 907.258 z" fill="rgb(255,209,102)" transform="translate(0,0)"></path>
<path d="M 787.16 908.063 L 816.979 908.092 L 817.135 1181.25 L 787.739 1181.21 L 787.16 908.063 z" fill="rgb(255,209,102)" transform="translate(0,0)"></path>
<path d="M 886.726 911.262 C 891.002 913.426 909.288 933.225 913.881 938.059 L 913.807 1181.53 L 898.5 1181.4 L 886.785 1181.3 L 886.757 1028.52 C 908.912 1016.83 909.51 995.66 886.279 985.233 L 886.726 911.262 z" fill="rgb(255,209,102)" transform="translate(0,0)"></path>
<path d="M 770.315 886.851 L 783.47 886.785 C 784.018 950.166 784.201 1013.55 784.02 1076.93 C 784.042 1111.02 784.948 1147.68 783.988 1181.45 L 770.671 1181.42 L 770.315 886.851 z" fill="rgb(255,90,31)" transform="translate(0,0)"></path>
<path d="M 730.109 891.68 L 731.558 892.587 C 732.534 901.648 731.983 918.338 731.998 928.228 L 732.11 994.7 L 732.145 1126.13 C 732.152 1133.59 732.678 1175.13 731.42 1180.31 C 728.489 1182.49 726.559 1181.71 722.193 1181.77 L 721.084 1181.31 C 719.197 1178.31 719.972 1129.66 719.974 1121.82 L 719.838 900.499 L 730.109 891.68 z" fill="rgb(255,90,31)" transform="translate(0,0)"></path>
<path d="M 820.895 886.692 C 824.615 886.612 828.035 886.15 831.361 887.587 C 832.247 893.195 831.908 910.943 831.91 917.379 L 831.913 976.179 L 831.735 1181.64 C 828.614 1181.86 823.863 1182.42 821.389 1180.71 C 820.403 1175.46 820.814 1160.94 820.794 1154.89 L 820.621 1102.12 L 820.895 886.692 z" fill="rgb(255,90,31)" transform="translate(0,0)"></path>
<path d="M 872.905 1027.8 L 882.826 1029.23 L 883.115 1049.04 C 882.515 1072.43 882.958 1097.22 882.934 1120.74 C 882.921 1133.27 882.358 1153.87 883.182 1165.59 C 883.186 1170.89 883.24 1175.2 882.675 1180.48 C 880.413 1181.97 875.773 1181.63 873.453 1180.09 C 872.295 1172.55 872.957 1141.39 872.965 1132.21 L 872.905 1027.8 z" fill="rgb(255,90,31)" transform="translate(0,0)"></path>
<path d="M 877.285 989.196 C 883.747 987.812 890.453 990.013 894.837 994.958 C 899.222 999.902 900.605 1006.82 898.458 1013.07 C 896.31 1019.32 890.965 1023.93 884.467 1025.14 C 874.612 1026.97 865.116 1020.54 863.152 1010.71 C 861.188 1000.88 867.484 991.296 877.285 989.196 z" fill="rgb(255,209,102)" transform="translate(0,0)"></path>
<path d="M 873.734 896.266 C 877.11 898.412 880.139 902.173 882.902 905.202 L 883.067 957.545 C 883.091 965.214 883.49 978.42 882.595 985.449 C 879.378 985.85 876.157 986.223 872.934 986.569 C 873.124 960.513 871.618 920.964 873.734 896.266 z" fill="rgb(255,90,31)" transform="translate(0,0)"></path>
<path d="M 835.163 886.67 C 839.025 886.598 843.215 886.445 847.09 886.594 C 869.915 887.471 868.992 881.243 869.097 904.811 C 857.815 904.801 846.533 904.691 835.253 904.479 C 835.094 898.544 835.064 892.606 835.163 886.67 z" fill="rgb(255,90,31)" transform="translate(0,0)"></path>
<path d="M 735.658 886.754 C 746.093 886.696 756.528 886.71 766.962 886.797 C 767.048 892.552 767.052 898.307 766.972 904.062 L 735.638 904.106 C 735.582 898.322 735.589 892.538 735.658 886.754 z" fill="rgb(255,90,31)" transform="translate(0,0)"></path>
<path d="M 798.052 886.87 L 816.997 886.931 L 816.983 904.131 L 798.008 904.323 L 798.052 886.87 z" fill="rgb(245,237,230)" transform="translate(0,0)"></path>
<path d="M 787.177 886.592 C 788.536 886.69 793.978 886.701 794.328 887.543 C 795.381 890.076 794.898 902.602 794.853 905.306 C 793.435 905.188 788.289 905.062 787.864 904.408 C 786.578 902.426 787.17 888.99 787.177 886.592 z" fill="rgb(255,90,31)" transform="translate(0,0)"></path>
<path d="M 639.65 1209.85 C 644.2 1210.12 648.123 1209.98 652.669 1209.86 C 716.852 1210.86 782.905 1210.21 847.184 1210.09 L 903.028 1210.13 C 910.581 1210.14 927.336 1210.5 934.28 1209.48 C 934.729 1209.77 935.232 1210.51 935.609 1210.98 C 933.181 1215.9 788.211 1353.39 774.327 1364.97 L 476.951 1365.15 C 487.408 1353.31 514.586 1329.12 527.235 1316.95 C 564.504 1281.04 601.976 1245.34 639.65 1209.85 z" fill="rgb(255,209,102)" transform="translate(0,0)"></path>
<path d="M 605.03 903.435 L 626.085 903.51 L 626.271 1208.78 L 479.396 1208.94 C 478.603 1173.83 479.478 1135.43 479.516 1100.07 L 479.552 903.89 L 579.981 903.473 L 605.03 903.435 z" fill="rgb(245,237,230)" transform="translate(0,0)"></path>
<path d="M 1720.28 645.665 C 1715.9 643.612 1707.11 639.895 1704.35 636.362 L 1704.75 635.17 L 1709.26 634.65 C 1721.19 639.23 1748.06 654.035 1757.35 656.046 C 1759.04 658.549 1759.16 659.519 1758.95 662.964 C 1757.41 688.061 1755.63 713.308 1753.99 738.387 C 1750.45 795.952 1746.59 853.498 1742.43 911.022 L 1726.19 1158.39 C 1722.1 1222.59 1718.65 1289.12 1713 1353.04 L 1665.79 1353.09 C 1666.78 1326.69 1669.43 1297.97 1671.44 1271.5 L 1685.4 1099.51 L 1720.28 645.665 z" fill="rgb(255,90,31)" transform="translate(0,0)"></path>
<path d="M 934.913 672.038 L 1000.85 671.944 C 1000.29 725.974 1000.88 780.118 1000.84 834.116 C 1000.83 842.678 1001.55 893.15 1000.42 898.909 C 997.773 900.621 996.791 900.043 993.25 900.083 C 981.728 900.104 954.993 899.33 943.35 900.497 C 940.733 900.759 940.954 907.945 938.322 910.261 L 935.996 909.293 C 933.948 893.275 935.068 848.738 935.07 831.348 L 934.913 672.038 z" fill="rgb(255,90,31)" transform="translate(0,0)"></path>
<path d="M 831.057 671.983 C 853.589 672.077 876.122 672.051 898.654 671.905 C 897.308 690.916 898.06 723.01 898.039 742.739 L 898.218 875.63 L 896.394 875.491 C 890.095 870.134 883.269 862.77 878.198 856.249 L 831.336 856.19 L 831.057 671.983 z" fill="rgb(255,90,31)" transform="translate(0,0)"></path>
<path d="M 727.044 671.974 L 794.638 672.102 C 793.617 732.086 794.67 795.793 794.773 856.05 C 773.106 856.63 748.907 856.087 727.033 856.087 L 727.044 671.974 z" fill="rgb(255,90,31)" transform="translate(0,0)"></path>
<path d="M 1617.5 610.361 C 1634.42 610.539 1651.35 610.618 1668.28 610.596 L 1758.69 610.846 L 1786.61 610.787 L 1802.73 610.976 L 1874.53 611.13 C 1874.71 617.467 1874.5 624.597 1874.46 630.999 L 1617.51 631.223 L 1617.5 610.361 z" fill="rgb(255,90,31)" transform="translate(0,0)"></path>
<path d="M 1724.01 574.03 C 1583.34 483.776 1469.72 353.331 1376.08 216.193 C 1365.4 200.556 1334.67 156.971 1331.03 142.806 L 1331.85 141.992 C 1341.13 147.076 1358.86 178.24 1365.85 188.987 C 1379.85 210.594 1394.42 231.823 1409.55 252.651 C 1469.56 336.821 1538.58 414.184 1615.39 483.362 C 1668.86 531.227 1711.43 562.87 1776.9 592.111 L 1776.43 597.043 L 1763.55 592.147 L 1763.15 607.053 L 1749.72 607.195 C 1740.91 606.978 1732.1 606.879 1723.3 606.898 C 1722.14 600.769 1723.58 581.436 1724.01 574.03 z" fill="rgb(255,90,31)" transform="translate(0,0)"></path>
<path d="M 512.452 857.126 C 512.267 836.537 509.432 815.21 524.989 799.992 C 534.557 790.633 546.799 785.651 560.113 785.703 C 572.567 785.8 584.46 790.897 593.12 799.848 C 598.233 805.1 601.912 811.576 603.807 818.656 C 607.592 833.219 604.164 881.652 605.548 900.103 C 597.409 899.888 588.102 900.152 579.871 900.207 C 580.173 877.222 581.43 843.659 579.912 821.57 C 576.184 816.089 571.255 809.903 564.259 808.948 C 531.963 804.539 536.571 837.092 536.782 857.165 L 512.452 857.126 z" fill="rgb(255,90,31)" transform="translate(0,0)"></path>
<path d="M 1049.28 574.939 C 1062.72 589.147 1103.19 620.138 1112.42 633.244 L 1111.4 635.115 C 1102.03 641.334 1061.74 639.122 1047.81 639.034 C 1023.87 617.425 1000.38 597.171 976.826 574.955 C 998.079 575.374 1028.01 575.805 1049.28 574.939 z" fill="rgb(255,90,31)" transform="translate(0,0)"></path>
<path d="M 902.46 508.331 C 925.621 507.519 952.191 508.092 975.618 508.036 C 993.97 526.799 1024.04 552.67 1044.28 570.585 C 1025.8 572.514 1003.04 570.448 984.288 571.382 L 972.298 571.237 C 948.854 550.451 925.575 529.482 902.46 508.331 z" fill="rgb(255,90,31)" transform="translate(0,0)"></path>
<path d="M 1059.29 508.11 C 1082.6 507.447 1108.81 508.069 1132.34 508.095 C 1155.13 529.282 1178.63 549.958 1201.57 571.046 C 1177.59 571.333 1153.61 571.359 1129.63 571.122 C 1106.08 550.507 1082.81 528.928 1059.29 508.11 z" fill="rgb(255,90,31)" transform="translate(0,0)"></path>
<path d="M 981.543 508.18 C 1005.01 507.677 1029.87 508.063 1053.44 508.034 C 1060.68 515.288 1072.58 525.148 1080.49 532.208 L 1123.35 570.956 C 1099.31 571.247 1075.26 571.237 1051.23 570.925 C 1027.62 550.437 1004.39 529.519 981.543 508.18 z" fill="rgb(255,90,31)" transform="translate(0,0)"></path>
<path d="M 1055.24 575.052 L 1128.25 575.066 C 1139.15 587.063 1186.83 625.069 1191.21 632.928 L 1189.74 635.025 C 1184.53 637.1 1180.35 637.975 1174.76 638.305 C 1161.79 639.072 1138.41 641.002 1126.27 637.392 C 1119.18 635.283 1065.16 583.85 1055.24 575.052 z" fill="rgb(255,90,31)" transform="translate(0,0)"></path>
<path d="M 1133.57 575.111 C 1156.82 574.538 1182.16 575.036 1205.58 575.026 C 1214.95 583.706 1265.6 626.706 1269.24 632.916 L 1267.64 634.964 C 1262.91 637.359 1258.45 638.495 1253.18 638.749 C 1242.67 639.255 1215.2 640.367 1206.04 637.345 C 1194.67 633.59 1146.04 586.227 1133.57 575.111 z" fill="rgb(255,90,31)" transform="translate(0,0)"></path>
<path d="M 1211.89 575.266 C 1234.15 574.387 1261.1 575.113 1283.71 575.118 C 1292.32 582.811 1342.9 627.145 1346.62 633.113 L 1346.11 635.175 C 1335.02 640.753 1296.01 638.498 1281.97 637.96 C 1276.76 634.643 1261.52 619.915 1256.26 615.104 L 1211.89 575.266 z" fill="rgb(255,90,31)" transform="translate(0,0)"></path>
<path d="M 1138.45 508.262 C 1161.25 507.659 1186.14 508.131 1209.1 508.103 C 1231.14 528.735 1258.59 550.424 1279.25 571.065 C 1258.52 572.247 1229.33 571.508 1208.08 571.614 L 1138.45 508.262 z" fill="rgb(255,90,31)" transform="translate(0,0)"></path>
<path d="M 1215.26 508.227 L 1286.39 508.038 L 1355.79 570.911 C 1334.68 572.019 1310.53 570.197 1290.54 571.508 C 1282.94 571.21 1265.76 553.613 1259.18 547.646 L 1215.26 508.227 z" fill="rgb(255,90,31)" transform="translate(0,0)"></path>
<path d="M 1359.92 575.032 C 1373.18 587.711 1388.38 599.884 1401.95 612.336 C 1408.06 617.942 1418.29 626.073 1423.09 632.535 C 1422.77 634.429 1422.79 634.838 1421.08 635.983 C 1414.44 640.417 1371.06 640.046 1362.02 638.009 C 1352.36 635.829 1303.06 585.998 1290.12 575.576 C 1302.57 574.078 1344.9 575.12 1359.92 575.032 z" fill="rgb(255,90,31)" transform="translate(0,0)"></path>
<path d="M 691.908 319.222 C 715.473 318.522 740.907 318.99 764.61 319.005 C 770.782 325.245 783.023 335.206 789.991 341.342 C 803.984 353.655 817.719 366.258 831.188 379.143 C 816.822 380.864 775.896 379.893 759.664 379.897 C 736.96 360.312 714.403 339.223 691.908 319.222 z" fill="rgb(255,90,31)" transform="translate(0,0)"></path>
<path d="M 1005.82 319.064 C 1029.85 318.646 1054.73 318.935 1078.83 318.896 C 1096.29 337.02 1126.34 362.358 1145.69 379.961 L 1074.16 380.043 C 1051.25 359.863 1028.47 339.537 1005.82 319.064 z" fill="rgb(255,90,31)" transform="translate(0,0)"></path>
<path d="M 849.078 319.119 C 873.229 318.731 898.223 319.052 922.441 319.041 C 938.738 336.457 970.639 362.401 989.444 379.803 C 965.605 380.107 941.29 379.878 917.414 379.895 C 894.964 361.56 871.555 338.493 849.078 319.119 z" fill="rgb(255,90,31)" transform="translate(0,0)"></path>
<path d="M 928.101 319.062 C 951.998 318.768 976.416 319.008 1000.36 318.985 C 1016.11 335.556 1049.14 363.363 1067.45 379.775 L 995.502 379.834 C 973.479 359.308 950.209 340.06 928.101 319.062 z" fill="rgb(255,90,31)" transform="translate(0,0)"></path>
<path d="M 1293.03 508.322 C 1314.59 507.49 1339.91 508.134 1361.76 508.158 C 1384.98 528.907 1408.17 550.399 1431.4 570.893 C 1409.13 571.514 1385.09 571.049 1362.69 571.01 C 1339.56 551.537 1315.19 528.951 1293.03 508.322 z" fill="rgb(255,90,31)" transform="translate(0,0)"></path>
<path d="M 1366.11 575.18 C 1388.66 574.782 1412.25 575.122 1434.88 575.105 C 1443.6 583.166 1495.31 627.326 1497.8 633.113 L 1496.52 635.716 C 1492.67 637.715 1488.42 638.889 1483.73 638.808 C 1468.22 638.54 1448.29 640.739 1433.31 637.293 C 1429.15 636.336 1423.34 625.865 1418.84 622.006 C 1401.04 606.73 1383.55 590.849 1366.11 575.18 z" fill="rgb(255,90,31)" transform="translate(0,0)"></path>
<path d="M 842.962 318.857 L 843.738 319.033 C 848.617 324.661 861.99 335.871 868.425 341.607 C 882.369 354.028 896.17 366.609 909.824 379.349 C 888.722 380.588 860.181 379.719 838.733 379.487 C 818.006 362.687 791.896 337.359 771.215 319.03 L 842.962 318.857 z" fill="rgb(255,90,31)" transform="translate(0,0)"></path>
<path d="M 821.255 383.503 L 836.218 383.222 L 902.516 442.482 C 884.135 443.284 861.458 442.71 842.75 442.736 L 829.446 442.833 C 807.7 423.837 785.774 403.198 764.233 383.764 L 821.255 383.503 z" fill="rgb(255,90,31)" transform="translate(0,0)"></path>
<path d="M 1155.16 318.879 C 1175.66 337.729 1200.89 361.898 1221.99 379.406 C 1199.26 380.244 1174.53 379.812 1151.63 379.813 L 1084.17 319.029 C 1107.83 319.128 1131.5 319.078 1155.16 318.879 z" fill="rgb(255,90,31)" transform="translate(0,0)"></path>
<path d="M 833.239 446.303 C 857.032 445.669 882.854 446.148 906.802 446.131 C 917.452 456.913 964.704 496.796 969.622 504.022 C 948.11 504.725 918.284 502.954 897.89 504.753 L 833.239 446.303 z" fill="rgb(255,90,31)" transform="translate(0,0)"></path>
<path d="M 1077.64 383.673 C 1100.96 383.264 1125.62 383.727 1149 383.789 C 1162.15 394.459 1175.66 407.388 1188.5 418.728 C 1194.77 424.271 1208.76 436.369 1213.47 442.093 C 1193.08 443.386 1164.12 442.609 1143.07 442.608 C 1121.68 424.723 1098.63 402.592 1077.64 383.673 z" fill="rgb(255,90,31)" transform="translate(0,0)"></path>
<path d="M 1433.95 507.982 L 1474.92 544.584 C 1484.19 552.761 1495.94 562.564 1504.06 571.566 C 1481.99 571.157 1459.46 571.301 1437.35 571.228 C 1414.05 550.349 1391.32 528.666 1367.77 508.124 L 1433.95 507.982 z" fill="rgb(255,90,31)" transform="translate(0,0)"></path>
<path d="M 920.872 383.853 L 993.421 383.777 L 1058.66 442.184 C 1035.2 442.801 1009.52 442.261 985.887 442.238 C 965.868 423.01 941.768 402.074 920.872 383.853 z" fill="rgb(255,90,31)" transform="translate(0,0)"></path>
<path d="M 1071.19 383.739 C 1092.69 402.094 1115.24 423.137 1136.27 442.27 C 1126.15 443.669 1078.06 442.5 1065.22 442.403 C 1043.57 423.13 1021.42 402.438 999.446 383.805 L 1071.19 383.739 z" fill="rgb(255,90,31)" transform="translate(0,0)"></path>
<path d="M 842.929 383.746 C 865.259 382.854 891.733 383.954 914.718 383.56 C 933.505 401.797 960.112 424.208 979.924 442.076 C 956.096 442.493 931.382 442.155 907.487 442.145 C 891.494 425.521 860.922 399.855 842.929 383.746 z" fill="rgb(255,90,31)" transform="translate(0,0)"></path>
<path d="M 1228.86 318.885 C 1233.46 321.534 1295.05 377.122 1295.87 379.668 C 1273.46 379.939 1251.05 379.973 1228.64 379.771 C 1209.13 363.245 1178.93 336.501 1161.24 318.704 C 1180.78 319.564 1209.07 319.346 1228.86 318.885 z" fill="rgb(255,90,31)" transform="translate(0,0)"></path>
<path d="M 990.33 446.299 C 1013.77 445.681 1039.22 446.198 1062.81 446.226 L 1127.68 503.946 C 1103.47 504.208 1078.99 504.008 1054.76 503.994 C 1033.39 484.637 1011.92 465.405 990.33 446.299 z" fill="rgb(255,90,31)" transform="translate(0,0)"></path>
<path d="M 912.567 446.163 C 936.177 445.701 960.895 446.036 984.594 445.999 C 1005.8 465.649 1027.31 484.985 1049.09 503.998 L 976.62 503.984 C 958.875 486.479 931.644 463.437 912.567 446.163 z" fill="rgb(255,90,31)" transform="translate(0,0)"></path>
<path d="M 1069.66 446.437 C 1092.37 445.703 1117.7 446.177 1140.62 446.108 C 1158.28 461.261 1175.43 477.316 1192.86 492.744 C 1196.84 496.26 1200.86 499.953 1204.38 503.921 C 1181.15 504.386 1157.06 504.081 1133.76 504.08 C 1117.24 487.478 1096.37 472.37 1079.44 455.931 C 1076.05 452.641 1072.68 450.184 1069.66 446.437 z" fill="rgb(255,90,31)" transform="translate(0,0)"></path>
<path d="M 1146.94 446.239 C 1170.41 445.759 1195.22 446.125 1218.74 446.352 C 1238.95 464.655 1262.92 485.073 1282.06 503.88 C 1258.23 504.105 1234.39 504.155 1210.56 504.033 C 1190.11 484.67 1167.89 465.16 1146.94 446.239 z" fill="rgb(255,90,31)" transform="translate(0,0)"></path>
<path d="M 1154.77 383.672 C 1178.48 383.748 1202.18 383.703 1225.89 383.538 C 1247.58 402.878 1268.93 422.603 1289.92 442.703 C 1280.33 442.738 1266.93 442.377 1257.65 442.968 C 1252.63 442.325 1226.24 442.405 1221.16 442.875 C 1204.08 426.505 1172.94 398.161 1154.77 383.672 z" fill="rgb(255,90,31)" transform="translate(0,0)"></path>
<path d="M 1241.73 446.05 C 1253.21 446.575 1275.48 446.947 1286.99 446.301 C 1288.85 446.309 1292.94 446.267 1294.36 447.335 C 1315.67 463.341 1337.79 486.145 1357.44 504.169 C 1334.22 504.312 1311.01 504.315 1287.79 504.177 C 1272.08 487.907 1242.17 461.992 1224.61 446.321 C 1230.32 446.366 1236.03 446.276 1241.73 446.05 z" fill="rgb(255,90,31)" transform="translate(0,0)"></path>
<path d="M 1243.31 141.747 C 1245.53 142.093 1247.47 141.809 1248.78 143.816 C 1333.52 273.792 1430.06 397.949 1541.01 506.65 C 1575.31 540.25 1611.53 569.577 1650.57 597.322 C 1652.33 598.575 1651.41 603.369 1651.26 605.4 C 1611.92 580.189 1567.8 541.583 1534.59 509.386 C 1446.1 423.592 1368.48 326.999 1297.18 226.693 C 1284.11 208.354 1271.37 189.781 1258.97 170.984 C 1253.51 162.738 1247.12 153.576 1242.74 144.771 C 1242.13 143.547 1242.55 143.703 1243.31 141.747 z" fill="rgb(255,90,31)" transform="translate(0,0)"></path>
<path d="M 1441.18 575.026 C 1455 574.948 1491.38 573.969 1503.79 575.447 L 1504.5 576.18 C 1518.54 590.573 1550.49 615.018 1565.16 630.785 C 1565.21 631.468 1565.26 632.151 1565.31 632.835 C 1562.6 636.692 1559.01 638.033 1554.44 638.95 C 1543.32 638.797 1512.5 640.45 1503.73 637.329 C 1503.39 636.133 1503.02 634.947 1502.62 633.772 L 1502.16 632.422 C 1499.5 624.568 1451.01 583.848 1441.18 575.026 z" fill="rgb(255,90,31)" transform="translate(0,0)"></path>
<path d="M 1298.38 382.922 C 1311.02 394.841 1323.84 406.562 1336.84 418.082 C 1342.39 422.982 1357.93 435.952 1362.11 441.052 L 1361.98 442.864 L 1361.35 442.888 C 1353.43 441.626 1305.97 442.41 1295.8 442.443 C 1274.86 422.762 1253.8 403.222 1232.6 383.824 C 1248.74 383.855 1264.89 383.71 1281.03 383.39 L 1298.38 382.922 z" fill="rgb(255,90,31)" transform="translate(0,0)"></path>
<path d="M 1356.35 445.92 C 1359.93 446.013 1363.61 446.156 1367.18 446.143 C 1385.32 462.346 1414.63 487.182 1430.9 504.059 C 1409.29 504.738 1385.53 504.254 1363.76 504.229 C 1346.14 487.178 1318.37 461.445 1299.94 446.002 C 1303.26 446.051 1307.26 446.221 1310.51 445.999 C 1325.31 446.652 1341.5 446.324 1356.35 445.92 z" fill="rgb(255,90,31)" transform="translate(0,0)"></path>
<path d="M 634.923 266.47 C 652.98 264.315 676.543 259.339 693.573 258.326 C 700.412 261.498 703.962 264.653 709.618 269.546 C 725.251 283.415 745.447 300.431 759.932 314.955 L 687.509 315.273 C 671.896 301.923 656.968 287.528 641.751 273.702 L 634.923 266.47 z" fill="rgb(255,90,31)" transform="translate(0,0)"></path>
<path d="M 713.198 267.549 C 718.195 265.464 766.235 258.944 773.126 258.537 C 785.699 265.792 826.24 303.354 838.463 314.831 C 829.795 314.934 820.364 314.853 811.768 315.168 C 800.731 314.375 778.438 315.031 766.606 315.046 C 748.933 299.081 730.715 283.675 713.198 267.549 z" fill="rgb(255,90,31)" transform="translate(0,0)"></path>
<path d="M 790.81 266.337 C 810.629 265.213 831.444 260.799 851.47 258.628 C 856.213 261.113 860.742 265.07 864.944 268.469 C 882.485 283.698 900.228 298.794 916.874 314.992 C 907.172 315.046 855.562 313.973 850.111 315.752 C 841.877 314.831 830.709 302.289 824.326 296.449 L 790.81 266.337 z" fill="rgb(255,90,31)" transform="translate(0,0)"></path>
<path d="M 947.31 267.053 C 953.001 265.636 962.286 265.028 968.456 264.245 C 981.785 262.543 995.094 260.692 1008.38 258.692 C 1014.49 262.323 1017.13 264.603 1022.61 269.257 C 1039.78 284.246 1056.73 299.479 1073.46 314.951 C 1049.7 315.243 1025.55 314.999 1001.75 314.968 C 983.372 299.896 965.987 282.315 947.31 267.053 z" fill="rgb(255,90,31)" transform="translate(0,0)"></path>
<path d="M 868.998 266.924 C 888.688 264.689 909.174 260.662 928.84 259.265 C 933.702 258.92 939.384 265.82 943.72 268.387 C 956.595 281.675 981.254 302.316 995.456 314.943 C 971.524 315.113 947.592 315.14 923.66 315.024 C 905.73 298.664 887.506 282.628 868.998 266.924 z" fill="rgb(255,90,31)" transform="translate(0,0)"></path>
<path d="M 1157.59 259.344 C 1167.44 257.361 1182.86 274.225 1190.26 280.849 L 1228.43 315.141 L 1176.01 315.187 L 1157.61 314.979 C 1139.37 299.156 1121.29 283.151 1103.36 266.967 C 1119.9 264.02 1140.59 261.757 1157.59 259.344 z" fill="rgb(255,90,31)" transform="translate(0,0)"></path>
<path d="M 1025.18 267.041 C 1037.13 265.388 1076.5 259.146 1086.56 258.773 C 1095.01 264.335 1112.14 280.167 1120.32 287.59 C 1128.81 295.282 1143.6 307.4 1151.03 315.055 L 1080.13 315.032 C 1061.56 299.274 1044.54 282.347 1025.18 267.041 z" fill="rgb(255,90,31)" transform="translate(0,0)"></path>
<path d="M 1730.68 491.084 L 1769.83 491.082 C 1767.41 521.059 1765.88 552.319 1764.01 582.409 C 1749.41 576.09 1738.52 570.481 1724.81 562.543 L 1730.68 491.084 z" fill="rgb(255,90,31)" transform="translate(0,0)"></path>
<path d="M 1762.28 658.901 C 1766.22 658.818 1784.46 663.495 1789.55 664.541 C 1799.8 666.569 1810.15 668.049 1820.55 668.975 C 1825.43 669.4 1835.24 669.606 1839.99 670.832 C 1840.81 671.045 1841.44 674.576 1841.79 675.879 C 1820.95 676.876 1786.73 671.956 1766.5 664.886 C 1763.15 663.717 1763.13 661.722 1762.28 658.901 z" fill="rgb(255,90,31)" transform="translate(0,0)"></path>
<path d="M 1780.02 589.278 C 1786.51 588.842 1794.48 589.04 1801.08 589.074 C 1801 593.97 1801.27 602.883 1800.4 607.169 C 1796.3 607.246 1792.05 607.368 1787.95 607.201 C 1779.93 606.875 1780.34 608.724 1779.73 601.119 C 1779.98 597.141 1779.93 593.265 1780.02 589.278 z" fill="rgb(255,90,31)" transform="translate(0,0)"></path>
<path d="M 1723.05 635.137 C 1735.54 634.986 1748.03 634.98 1760.52 635.118 C 1760.34 641.219 1760.85 647.438 1758.62 652.884 C 1750.42 648.776 1729 639.51 1723.05 635.137 z" fill="rgb(255,90,31)" transform="translate(0,0)"></path>
<path d="M 1656.01 589.521 C 1662.76 589.366 1669.52 589.299 1676.28 589.32 C 1676.21 593.436 1676.49 603.301 1675.64 606.718 C 1668.86 606.663 1662.08 606.441 1655.31 606.052 C 1655.26 602.391 1654.73 592.512 1656.01 589.521 z" fill="rgb(255,90,31)" transform="translate(0,0)"></path>
<path d="M 1826.31 589.053 C 1832.9 588.963 1839.49 588.958 1846.08 589.039 L 1845.99 607.112 L 1826.3 607.158 C 1826.19 601.124 1826.19 595.088 1826.31 589.053 z" fill="rgb(255,90,31)" transform="translate(0,0)"></path>
<path d="M 933.397 912.87 C 941.48 912.64 940.431 911.932 941.552 919.515 C 937.124 917.99 936.556 916.513 933.397 912.87 z" fill="rgb(255,90,31)" transform="translate(0,0)"></path>
<metadata><recraft-signature>{"signed_by": "recraft", "signature_b64": "hcukMSRNyJEaU+WIQrdh2+IVUswYQ+Ys34oUa2qeZ0XT+m2nJJt5TKKT40XvZOxdfFDD2YS0d7t4GAkfCOWOAw==", "signing_algo": "Ed25519", "generation_timestamp": 1783313457, "identifier": "5b348202-acb0-4695-903f-d57e13f4fa8b"}</recraft-signature></metadata></svg>