<svg xmlns="http://www.w3.org/2000/svg" height="896" preserveAspectRatio="none" style="display: block;" version="1.1" viewBox="0 0 2048 1509" width="1216">
<path d="M 0 0 L 137.351 0 L 228.289 0 L 306.358 0 L 508.573 0 L 855.902 0 L 882.068 0 L 1028.01 0 L 1064.12 0 L 1179.27 0 L 1280.76 0 L 1416.38 0 L 1552.88 0 L 1575.66 0 L 1585.68 0 L 1597.87 0 L 1645.81 0 L 1657.34 0 L 1704.29 0 L 1740.88 0 L 1845.75 0 L 1930.25 0 L 2039.6 0 L 2048 0 L 2048 280.272 L 2048 321.48 L 2048 584.658 L 2048 626.045 L 2048 894.953 L 2048 934.116 L 2048 1240.25 L 2048 1509 L 1357.37 1509 L 945.334 1509 L 0 1509 L 0 1425.46 L 0 1398.82 L 0 1314.21 L 0 967.371 L 0 935.659 L 0 721.239 L 0 483.414 L 0 268.502 L 0 32.1269 L 0 0 z" fill="rgb(58,36,32)" transform="translate(0,0)"></path>
<path d="M 508.573 0 L 855.902 0 L 882.068 0 L 1028.01 0 L 1064.12 0 L 1179.27 0 L 1280.76 0 L 1416.38 0 L 1416.75 769.498 C 1416.65 779.763 1416.43 790.334 1416.68 800.568 C 1414.95 869.631 1416.19 944.243 1416.23 1013.58 L 1416.36 1420.45 L 1121.61 1395.95 C 1078.62 1392.43 1021.6 1385.09 979.761 1383.92 C 968.809 1383.03 956.547 1382.3 945.822 1380.59 C 937.636 1378.87 915.387 1377.66 906.32 1376.95 C 885.743 1375.34 864.2 1373.22 843.663 1372.02 C 832.326 1371.28 821.003 1370.33 809.701 1369.18 C 791.142 1365.65 744.127 1363.34 723.984 1362.02 C 715.897 1362.1 703.255 1360.63 695.247 1359.53 C 684.192 1357.83 666.412 1356.74 654.854 1355.6 C 641.488 1354.29 619.805 1351.81 606.947 1351.96 C 595.959 1351.54 582.655 1349.88 571.713 1348.63 C 563.898 1347.41 550.621 1346.74 542.337 1346.07 L 486.163 1341.43 C 412.447 1334.94 338.755 1329.51 265.176 1321.76 L 265.141 858.88 C 284.362 861.887 303.538 865.179 322.662 868.754 C 332.883 870.693 354.331 875.355 363.894 875.685 C 373.913 876.031 395.776 873.023 406.624 871.799 C 429.302 869.181 451.998 866.727 474.711 864.438 L 745.079 834.241 L 665.528 817.785 C 653.002 815.155 632.573 810.317 620.264 809.266 C 612.049 808.565 589.915 811.633 580.889 812.697 L 515.8 820.405 L 334.84 841.48 C 300.733 845.49 262.842 850.691 228.857 853.417 L 228.637 803.129 C 236.075 802.537 258.595 801.821 264.287 799.889 C 264.875 798.266 264.989 797.869 265.2 796.206 L 265.364 794.847 C 267.796 792.953 333.374 786.22 342.704 785.146 C 348.563 784.838 355.356 784.079 361.308 783.531 C 370.699 781.679 392.591 779.929 403.102 778.797 L 487.923 769.572 L 585.083 758.592 C 598.517 757.097 617.339 754.572 630.627 754.291 C 636.251 754.172 657.969 759.969 664.39 761.578 C 680.514 765.743 696.706 769.64 712.96 773.265 L 712.936 750.767 L 690.034 745.384 L 690.12 625.605 L 704.747 631.443 L 704.824 613.077 C 684.375 605.033 658.553 597.303 637.169 589.891 L 619.372 583.679 C 570.926 593.243 522.041 600.916 473.855 610.755 C 437.044 617.101 400.268 623.647 363.528 630.393 C 356.584 631.695 349.652 633.057 342.732 634.482 C 320.146 637.215 288.543 643.808 265.342 647.941 C 263.82 577.706 265.112 502.643 265.152 432.115 C 253.046 434.631 240.963 437.253 228.903 439.98 L 228.98 386.341 C 253.769 380.226 280.125 375.202 305.179 369.5 L 523.371 320.663 L 588.864 305.917 C 629.08 296.825 623.657 296.086 662.948 306.911 C 681.541 312.183 700.201 317.218 718.922 322.014 L 719.079 302.884 C 710.345 300.277 703.259 298.296 694.36 296.319 C 693.683 257.094 694.195 216.341 694.144 176.993 L 709.101 182.146 L 708.998 161.982 C 686.406 153.88 658.362 145.87 636.909 136.976 L 627.118 133.13 C 575.666 147.191 524.117 160.896 472.475 174.245 C 436.744 183.01 398.253 193.529 362.744 203.338 C 356.472 205.002 348.864 206.798 342.773 208.702 C 317.093 215.808 291.323 222.587 265.471 229.038 C 263.784 160.686 265.209 85.4661 265.378 16.7175 C 283.458 21.9512 326.567 33.5645 343.627 34.3703 C 357.475 35.0244 490.382 6.74409 508.573 0 z" fill="rgb(255,90,31)" transform="translate(0,0)"></path>
<path d="M 882.068 0 L 1028.01 0 L 1064.12 0 L 1179.27 0 L 1280.76 0 C 1302.69 10.6043 1324.9 20.6033 1347.38 29.9857 L 1347.77 50.7013 L 1338.2 46.6073 L 1337.97 180.027 L 1361.95 187.961 L 1362.03 208.588 C 1343.26 201.639 1324.54 194.572 1305.86 187.386 C 1291.99 182.11 1277.61 175.815 1263.02 172.907 C 1257.3 171.766 1083.33 205.949 1065.63 210.84 C 1055.13 213.571 1041.46 216.025 1030.61 218.289 C 982.987 227.174 929.478 240.981 882.241 248.32 C 873.149 250.013 864.606 252.035 855.305 253.558 C 832.927 258.357 810.519 263.019 788.083 267.544 L 788.133 249.56 C 794.649 247.904 802.894 246.522 809.606 245.208 C 810.2 203.368 809.769 159.696 809.395 117.786 L 787.748 123.351 L 787.581 103.829 C 810.261 97.6906 833.551 92.469 856.122 86.1974 C 863.41 83.951 874.388 81.5786 882.044 79.6707 L 882.068 0 z" fill="rgb(58,36,32)" transform="translate(0,0)"></path>
<path d="M 882.068 0 L 1028.01 0 L 1064.12 0 L 1064.14 31.8277 C 1052.61 35.4539 1039.76 37.6904 1028.15 41.7072 C 979.793 55.1836 930.54 66.3839 882.044 79.6707 L 882.068 0 z" fill="rgb(255,90,31)" transform="translate(0,0)"></path>
<path d="M 1028.01 0 L 1064.12 0 L 1064.14 31.8277 C 1052.61 35.4539 1039.76 37.6904 1028.15 41.7072 C 1027.95 27.8635 1028.05 13.8621 1028.01 0 z" fill="rgb(245,237,230)" transform="translate(0,0)"></path>
<path d="M 1064.12 0 L 1179.27 0 L 1064.14 31.8277 L 1064.12 0 z" fill="rgb(255,90,31)" transform="translate(0,0)"></path>
<path d="M 1134.69 39.1473 L 1138.01 38.7379 C 1140.92 43.4143 1139.23 159.374 1139.24 175.051 L 1106.3 182.562 L 1102.98 182.735 C 1100.23 178.074 1102.15 62.858 1102.18 46.7027 C 1113.03 44.2566 1123.87 41.738 1134.69 39.1473 z" fill="rgb(255,90,31)" transform="translate(0,0)"></path>
<path d="M 1221.91 16.808 C 1231.82 14.5358 1245.82 10.8452 1255.46 9.26548 C 1255.81 56.3391 1255.92 103.414 1255.78 150.489 C 1249.48 151.977 1227.8 157.224 1221.86 157.06 C 1223.35 114.269 1222.23 59.8734 1221.91 16.808 z" fill="rgb(255,90,31)" transform="translate(0,0)"></path>
<path d="M 1261.54 13.2449 C 1273.41 18.4516 1285.24 23.7497 1297.03 29.1389 L 1297.18 163.839 C 1288.36 159.753 1271.87 154.194 1261.94 150.31 L 1261.54 13.2449 z" fill="rgb(255,90,31)" transform="translate(0,0)"></path>
<path d="M 1215.88 18.9176 C 1215.8 64.887 1215.11 113.308 1216.04 159.059 C 1205.95 160.688 1193.14 163.696 1182.9 165.779 L 1182.74 26.6127 C 1193.68 23.9389 1204.84 21.0664 1215.88 18.9176 z" fill="rgb(255,90,31)" transform="translate(0,0)"></path>
<path d="M 1027.94 65.0745 L 1027.67 198.418 C 1019.79 200.744 1002 203.845 993.26 205.651 C 993.219 161.359 993.443 117.068 993.931 72.7783 C 1005.23 70.0521 1016.57 67.4839 1027.94 65.0745 z" fill="rgb(255,90,31)" transform="translate(0,0)"></path>
<path d="M 1173.94 29.2057 L 1176.21 29.5619 C 1177.86 34.1074 1176.94 152.565 1176.96 167.15 L 1148.23 173.148 L 1146.39 172.581 C 1145.1 169.458 1145.22 47.3386 1145.15 36.5512 C 1153.62 33.9478 1165.14 31.4079 1173.94 29.2057 z" fill="rgb(255,90,31)" transform="translate(0,0)"></path>
<path d="M 923.891 89.5978 C 934.462 87.0595 946.059 84.5185 956.468 81.6661 C 956.682 125.616 956.654 169.566 956.382 213.515 C 948.717 215.212 930.922 219.558 923.931 220.173 L 923.891 89.5978 z" fill="rgb(255,90,31)" transform="translate(0,0)"></path>
<path d="M 845.664 109.141 C 847.575 109.053 846.727 108.762 848.19 110.069 C 849.159 126.2 848.76 145.405 848.758 161.749 C 848.871 186.76 848.738 211.772 848.36 236.78 L 818.16 243.338 C 817.753 243.412 816.374 243.237 815.892 243.193 C 814.383 240.099 815.29 130.062 815.317 116.591 C 825.418 114.048 835.534 111.565 845.664 109.141 z" fill="rgb(255,90,31)" transform="translate(0,0)"></path>
<path d="M 1033.93 63.8926 C 1042.26 60.6739 1055.9 57.9232 1065.05 55.6635 L 1065.17 190.526 C 1059.02 191.968 1039.37 197.038 1033.88 196.57 C 1034.61 182.88 1034.06 164.694 1034.07 150.448 L 1033.93 63.8926 z" fill="rgb(245,237,230)" transform="translate(0,0)"></path>
<path d="M 917.722 91.4094 L 917.979 221.651 C 912.367 223.497 892.688 227.789 887.096 228.003 C 887.225 186.071 887.755 141.995 886.951 100.199 C 890.697 97.0246 911.959 92.4705 917.722 91.4094 z" fill="rgb(255,90,31)" transform="translate(0,0)"></path>
<path d="M 1303.06 31.7462 C 1313.11 35.8682 1322.18 40.0313 1332.02 44.6522 L 1332.29 177.636 C 1322.6 173.619 1312.86 169.737 1303.06 165.993 L 1303.06 31.7462 z" fill="rgb(255,90,31)" transform="translate(0,0)"></path>
<path d="M 1095.8 48.3293 C 1096.75 52.559 1096.38 83.0967 1096.37 89.2077 C 1096.19 120.955 1096.22 152.703 1096.44 184.45 C 1088.12 186.097 1079.81 187.805 1071.52 189.575 C 1069.73 147.905 1071.06 96.5744 1071.01 54.1682 C 1079.15 52.132 1087.6 50.2574 1095.8 48.3293 z" fill="rgb(255,90,31)" transform="translate(0,0)"></path>
<path d="M 985.084 75.1897 L 987.235 75.5602 C 988.851 79.8064 987.868 193.045 987.879 206.6 C 980.14 208.413 972.035 210.05 964.237 211.727 L 962.842 210.487 C 961.807 204.009 962.503 178.149 962.507 170.082 L 962.287 80.6331 C 969.651 78.6966 977.63 76.952 985.084 75.1897 z" fill="rgb(255,90,31)" transform="translate(0,0)"></path>
<path d="M 855.748 106.715 C 862.195 105.18 876.158 101.475 882.004 101.348 L 882.094 229.253 C 875.051 231.295 863.124 233.399 855.58 234.94 L 855.748 106.715 z" fill="rgb(245,237,230)" transform="translate(0,0)"></path>
<path d="M 843.793 970.104 C 876.171 969.311 913.389 968.07 945.628 965.918 L 945.822 1380.59 C 937.636 1378.87 915.387 1377.66 906.32 1376.95 C 885.743 1375.34 864.2 1373.22 843.663 1372.02 L 843.793 970.104 z" fill="rgb(255,90,31)" transform="translate(0,0)"></path>
<path d="M 342.428 489.945 C 392.5 482.665 442.512 474.974 492.457 466.873 C 540.675 459.627 588.856 452.14 636.999 444.411 L 637.169 589.891 L 619.372 583.679 C 570.926 593.243 522.041 600.916 473.855 610.755 C 437.044 617.101 400.268 623.647 363.528 630.393 C 356.584 631.695 349.652 633.057 342.732 634.482 L 342.428 489.945 z" fill="rgb(245,237,230)" transform="translate(0,0)"></path>
<path d="M 363.71 510.307 C 400.098 506.124 436.871 498.956 473.296 494.435 C 473.795 529.927 471.958 576.379 473.855 610.755 C 437.044 617.101 400.268 623.647 363.528 630.393 C 362.889 590.988 363.598 549.849 363.71 510.307 z" fill="rgb(255,140,66)" transform="translate(0,0)"></path>
<path d="M 342.948 84.5712 C 439.658 59.0528 540.71 32.3776 636.89 5.05067 C 637.256 48.0809 637.873 94.1077 636.909 136.976 L 627.118 133.13 C 575.666 147.191 524.117 160.896 472.475 174.245 C 436.744 183.01 398.253 193.529 362.744 203.338 C 356.472 205.002 348.864 206.798 342.773 208.702 L 342.948 84.5712 z" fill="rgb(245,237,230)" transform="translate(0,0)"></path>
<path d="M 362.643 99.4829 C 395.49 93.2337 438.832 80.7991 472.48 72.6895 C 472.369 105.559 471.593 141.663 472.475 174.245 C 436.744 183.01 398.253 193.529 362.744 203.338 L 362.643 99.4829 z" fill="rgb(255,90,31)" transform="translate(0,0)"></path>
<path d="M 606.272 980.215 C 635.908 979.743 665.539 978.998 695.161 977.979 L 695.247 1359.53 C 684.192 1357.83 666.412 1356.74 654.854 1355.6 C 641.488 1354.29 619.805 1351.81 606.947 1351.96 L 606.272 980.215 z" fill="rgb(255,90,31)" transform="translate(0,0)"></path>
<path d="M 809.93 940.268 C 864.442 938.14 925.652 934.383 979.647 933.892 L 979.761 1383.92 C 968.809 1383.03 956.547 1382.3 945.822 1380.59 L 945.628 965.918 C 913.389 968.07 876.171 969.311 843.793 970.104 L 843.663 1372.02 C 832.326 1371.28 821.003 1370.33 809.701 1369.18 L 809.93 940.268 z" fill="rgb(245,237,230)" transform="translate(0,0)"></path>
<path d="M 571.256 945.99 C 621.604 944.519 673.253 941.227 723.926 939.388 L 723.987 972.03 L 723.986 992.653 L 723.984 1362.02 C 715.897 1362.1 703.255 1360.63 695.247 1359.53 L 695.161 977.979 C 665.539 978.998 635.908 979.743 606.272 980.215 L 606.947 1351.96 C 595.959 1351.54 582.655 1349.88 571.713 1348.63 C 570.539 1311.88 571.478 1268.65 571.408 1231.37 L 571.256 945.99 z" fill="rgb(245,237,230)" transform="translate(0,0)"></path>
<path d="M 855.902 0 L 882.068 0 L 882.044 79.6707 C 874.388 81.5786 863.41 83.951 856.122 86.1974 L 855.902 0 z" fill="rgb(245,237,230)" transform="translate(0,0)"></path>
<path d="M 772.72 937.58 C 779.509 937.809 786.299 937.995 793.09 938.139 L 793.085 992.58 C 770.648 992.454 746.135 993.355 723.986 992.653 L 723.987 972.03 C 740.232 972.108 756.476 972.094 772.72 971.988 L 772.72 937.58 z" fill="rgb(58,36,32)" transform="translate(0,0)"></path>
<path d="M 1030.61 218.289 C 1041.46 216.025 1055.13 213.571 1065.63 210.84 C 1065.69 212.116 1066.22 218.777 1065.39 219 C 1054.76 221.868 1042.16 225.381 1031.25 226.73 C 1029.9 226.899 1030.58 219.11 1030.61 218.289 z" fill="rgb(245,237,230)" transform="translate(0,0)"></path>
<path d="M 882.241 248.32 C 882.281 253.367 883.898 255.361 878.537 256.162 C 871.473 257.218 863.478 260.862 856.332 260.714 C 855.455 260.696 855.354 254.175 855.305 253.558 C 864.606 252.035 873.149 250.013 882.241 248.32 z" fill="rgb(245,237,230)" transform="translate(0,0)"></path>
<path d="M 361.308 783.531 C 361.791 784.838 363.178 791.692 361.017 791.724 C 356.2 791.794 348.043 793.88 343.534 793.508 C 342.164 792.436 342.686 786.684 342.704 785.146 C 348.563 784.838 355.356 784.079 361.308 783.531 z" fill="rgb(245,237,230)" transform="translate(0,0)"></path>
<path d="M 856.038 411.543 C 909.444 403.285 968.572 390.111 1022.18 379.698 C 1124.63 359.927 1226.98 339.602 1329.21 318.723 C 1330.59 387.546 1330.24 462.638 1329.45 531.578 C 1336.18 534.253 1342.99 536.74 1349.86 539.037 L 1349.95 560.953 L 1338.51 556.868 L 1338.13 690.249 C 1344.41 691.897 1353.85 694.673 1360.02 695.674 L 1359.99 719.263 C 1338.88 714.409 1317.85 709.231 1296.9 703.728 C 1290.49 702.108 1265.59 695.208 1260.51 695.631 C 1196.52 700.957 1130.6 713.019 1066.88 719.432 C 1066.87 720.205 1067.17 726.286 1066.14 726.544 C 1055.45 729.216 1043.97 730.321 1033.11 732.487 C 1028.39 733.428 1029.96 727.838 1030.02 724.095 L 926.046 737.524 C 918.035 738.569 886.748 741.946 880.328 743.475 C 886.932 752.922 869.917 750.575 863.974 752.147 C 855.926 754.275 855.731 753.906 855.95 746.36 C 833.384 748.566 810.825 752.238 788.202 754.405 L 788.188 736.248 C 794.519 734.975 803.391 734.019 809.958 733.114 L 809.862 606.89 C 802.701 608.328 795.198 609.437 787.968 610.611 L 787.788 591.29 C 807.864 586.651 835.236 582.522 856.032 578.731 L 856.038 411.543 z" fill="rgb(58,36,32)" transform="translate(0,0)"></path>
<path d="M 856.038 411.543 C 909.444 403.285 968.572 390.111 1022.18 379.698 C 1124.63 359.927 1226.98 339.602 1329.21 318.723 C 1330.59 387.546 1330.24 462.638 1329.45 531.578 C 1318.74 527.647 1307.17 524.064 1296.28 520.5 C 1282.66 514.71 1268.49 510.553 1255.07 505.037 C 1209.72 512.939 1164.69 522.214 1119.38 530.199 C 1102.7 533.137 1083.12 537.351 1066.57 539.621 L 1029.81 546.626 L 932.985 564.752 C 916.934 567.721 897.697 570.726 882.052 574.16 C 873.282 575.579 864.737 576.928 856.032 578.731 L 856.038 411.543 z" fill="rgb(245,237,230)" transform="translate(0,0)"></path>
<path d="M 1066.19 415.43 C 1091.15 412.049 1125.96 404.535 1151.21 399.744 L 1296.31 372.263 L 1296.28 520.5 C 1282.66 514.71 1268.49 510.553 1255.07 505.037 C 1209.72 512.939 1164.69 522.214 1119.38 530.199 C 1102.7 533.137 1083.12 537.351 1066.57 539.621 L 1066.19 415.43 z" fill="rgb(255,90,31)" transform="translate(0,0)"></path>
<path d="M 881.995 447.531 C 929.676 440.457 981.473 429.476 1029.82 421.506 L 1029.81 546.626 L 932.985 564.752 C 916.934 567.721 897.697 570.726 882.052 574.16 L 881.995 447.531 z" fill="rgb(255,90,31)" transform="translate(0,0)"></path>
<path d="M 1030.02 724.095 C 1042.34 722.825 1054.63 721.27 1066.88 719.432 C 1066.87 720.205 1067.17 726.286 1066.14 726.544 C 1055.45 729.216 1043.97 730.321 1033.11 732.487 C 1028.39 733.428 1029.96 727.838 1030.02 724.095 z" fill="rgb(245,237,230)" transform="translate(0,0)"></path>
<path d="M 880.328 743.475 C 886.932 752.922 869.917 750.575 863.974 752.147 C 855.926 754.275 855.731 753.906 855.95 746.36 C 864.145 745.567 872.172 744.503 880.328 743.475 z" fill="rgb(245,237,230)" transform="translate(0,0)"></path>
<path d="M 1138.81 550.388 C 1140.02 552.081 1139.27 672.925 1139.25 686.573 C 1127.27 688.205 1115.3 689.92 1103.34 691.718 L 1102.66 691.063 C 1101.69 685.822 1102.24 655.626 1102.26 648.886 L 1102.37 556.514 L 1138.81 550.388 z" fill="rgb(255,90,31)" transform="translate(0,0)"></path>
<path d="M 1261.38 531.429 C 1273.11 535.53 1284.91 539.428 1296.77 543.12 L 1296.79 679.678 C 1284.61 676.942 1273.8 674.346 1261.79 670.968 C 1260.21 627.465 1261.56 575.646 1261.38 531.429 z" fill="rgb(255,90,31)" transform="translate(0,0)"></path>
<path d="M 1251.23 531.326 C 1252.62 531.085 1253.45 531.231 1254.89 531.286 C 1256.74 533.841 1255.71 655.413 1255.65 670.534 C 1248.14 672.301 1235.23 673.815 1227.23 674.978 C 1224.87 675.329 1225.03 675.365 1222.73 674.719 C 1221.45 672.174 1221.97 547.617 1221.95 536.496 L 1251.23 531.326 z" fill="rgb(255,90,31)" transform="translate(0,0)"></path>
<path d="M 1212 538.355 L 1214.52 537.951 L 1215.9 538.958 C 1216.51 553.876 1215.99 572.149 1215.95 587.272 L 1215.7 676.659 C 1206.12 677.67 1195.85 679.2 1186.23 680.451 C 1185.18 680.561 1184.8 680.305 1183.68 680.014 C 1182.1 676.167 1182.91 556.87 1182.89 543.11 C 1192.2 541.339 1202.57 539.881 1212 538.355 z" fill="rgb(255,90,31)" transform="translate(0,0)"></path>
<path d="M 1028.06 569.127 L 1027.95 701.719 C 1017.45 702.716 1004.13 705.044 993.336 706.541 L 993.276 575.337 C 1004.39 573.056 1016.55 571.397 1028.06 569.127 z" fill="rgb(255,90,31)" transform="translate(0,0)"></path>
<path d="M 1175.13 544.353 L 1176.26 544.537 C 1177.58 547.427 1177.28 670.765 1177.33 681.678 C 1167.86 682.518 1156.54 684.276 1146.97 685.505 L 1145.9 684.86 C 1144.75 681.021 1145.16 650.616 1145.16 643.986 L 1145.17 549.42 C 1153.83 547.451 1166.1 545.813 1175.13 544.353 z" fill="rgb(255,90,31)" transform="translate(0,0)"></path>
<path d="M 923.46 587.448 C 934.616 585.715 945.73 583.719 956.792 581.463 L 956.846 711.75 C 946.67 713.272 934.005 715.439 923.81 716.338 L 923.46 587.448 z" fill="rgb(255,90,31)" transform="translate(0,0)"></path>
<path d="M 847.934 600.412 C 849.811 603.521 848.641 715.59 848.577 727.652 C 838.115 729.083 827.663 730.588 817.223 732.166 C 814.253 727.738 815.737 619.555 815.846 606.634 C 826.519 604.249 837.177 602.371 847.934 600.412 z" fill="rgb(255,90,31)" transform="translate(0,0)"></path>
<path d="M 1033.87 568.88 C 1042.34 566.196 1056.07 564.355 1065.26 562.842 L 1065.07 696.586 C 1057.87 697.673 1040.07 700.69 1033.72 700.611 C 1035.08 659.81 1034.02 610.072 1033.87 568.88 z" fill="rgb(245,237,230)" transform="translate(0,0)"></path>
<path d="M 917.05 588.158 C 918.373 594.097 917.786 618.368 917.871 625.942 C 918.212 656.173 917.432 686.919 917.974 717.119 C 908.981 719.159 896.438 720.583 887.044 721.828 C 885.375 683.255 886.854 633.274 886.852 593.806 C 896.956 592.135 907.025 590.252 917.05 588.158 z" fill="rgb(255,90,31)" transform="translate(0,0)"></path>
<path d="M 1302.83 545.132 C 1312.67 548.19 1322.46 551.415 1332.19 554.806 C 1332.98 598.506 1332.19 644.636 1332.15 688.533 C 1322.36 686.133 1312.58 683.684 1302.81 681.184 L 1302.83 545.132 z" fill="rgb(255,90,31)" transform="translate(0,0)"></path>
<path d="M 1093.73 558.286 C 1094.1 558.237 1095.48 558.583 1095.92 558.676 C 1097.36 562.4 1096.14 681.026 1096.12 692.431 C 1088.7 693.286 1080.88 694.451 1073.44 695.441 L 1071.91 695.253 C 1070.4 692.644 1070.34 576.292 1070.26 562.464 L 1093.73 558.286 z" fill="rgb(255,90,31)" transform="translate(0,0)"></path>
<path d="M 986.759 576.391 C 988.578 579.048 987.784 694.114 987.774 707.532 C 980.228 708.237 970.91 709.733 963.266 710.756 C 962.22 706.933 962.69 674.232 962.691 667.159 L 962.311 580.502 L 986.759 576.391 z" fill="rgb(255,90,31)" transform="translate(0,0)"></path>
<path d="M 881.626 594.795 L 881.824 722.867 C 873.136 723.888 864.469 725.09 855.831 726.47 L 855.632 599.352 L 881.626 594.795 z" fill="rgb(245,237,230)" transform="translate(0,0)"></path>
<path d="M 1319.07 919.434 C 1324.68 918.972 1332.37 919.021 1338.15 918.882 L 1338.03 1286.07 C 1311.33 1285.05 1280.44 1282.28 1253.56 1280.45 L 1067.25 1267.19 C 1053.66 1266.55 1040.15 1265.45 1026.38 1264.85 L 1026.16 931.94 C 1053.55 931.391 1082.96 929.674 1110.54 928.517 L 1319.07 919.434 z" fill="rgb(245,237,230)" transform="translate(0,0)"></path>
<path d="M 1280.63 964.435 C 1289.87 963.85 1301.23 963.968 1310.65 963.834 L 1310.6 1242.02 L 1107.91 1230.78 C 1093.97 1229.87 1080.01 1229.22 1066.04 1228.85 L 1066 973.13 C 1136.76 971.131 1209.78 967.68 1280.63 964.435 z" fill="rgb(255,90,31)" transform="translate(0,0)"></path>
<path d="M 1222.93 1109.29 C 1245.98 1108.96 1269.03 1108.87 1292.08 1109.01 L 1292.19 1182.97 L 1222.78 1183.06 C 1222.97 1158.74 1222.46 1133.42 1222.93 1109.29 z" fill="rgb(245,237,230)" transform="translate(0,0)"></path>
<path d="M 1132.85 1143.91 L 1203.73 1143.86 C 1203.83 1166.09 1204.67 1193.85 1203.84 1215.58 C 1179.73 1215.45 1156.96 1215.7 1132.89 1215.93 L 1132.85 1143.91 z" fill="rgb(58,36,32)" transform="translate(0,0)"></path>
<path d="M 532.191 947.444 L 532.958 947.613 C 535.29 951.512 534.24 1004.49 534.241 1013.57 L 534.058 1243.92 C 471.62 1239.25 408.463 1237.3 346.104 1232.58 L 329.707 1231.48 C 328.162 1141.75 329.691 1047.41 329.673 957.291 C 395.159 955.961 465.812 950.191 532.191 947.444 z" fill="rgb(245,237,230)" transform="translate(0,0)"></path>
<path d="M 496.834 983.43 L 507.07 982.945 C 507.561 1059.08 507.518 1135.21 506.942 1211.34 C 495.935 1209.33 471.292 1208.3 459.409 1207.58 L 379.314 1202.86 C 373.786 1202.08 365.981 1201.71 360.259 1201.27 L 360.2 987.641 C 405.763 986.944 451.314 985.541 496.834 983.43 z" fill="rgb(255,90,31)" transform="translate(0,0)"></path>
<path d="M 379.887 1137.8 L 432.859 1137.55 L 433.027 1193.32 L 379.969 1193.08 L 379.887 1137.8 z" fill="rgb(245,237,230)" transform="translate(0,0)"></path>
<path d="M 394.011 1073.98 L 442.408 1073.81 C 442.21 1090.35 442.673 1107.28 442.267 1123.72 C 426.767 1124.14 409.42 1124.69 394.013 1124.56 L 394.011 1073.98 z" fill="rgb(58,36,32)" transform="translate(0,0)"></path>
<path d="M 1249.73 233.229 C 1255.85 232.191 1368.63 260.92 1381.43 264.033 C 1365.25 268.703 1339.27 273.249 1322.49 276.532 L 1227.3 295.188 L 907.755 356.327 C 884.429 360.899 870.961 355.038 848.368 349.67 C 824.133 343.944 799.931 338.081 775.762 332.084 C 826.358 320.545 881.024 309.829 932.039 299.252 L 1249.73 233.229 z" fill="rgb(58,36,32)" transform="translate(0,0)"></path>
<path d="M 1247.67 756.371 C 1250.84 755.797 1254.08 755.753 1257.26 756.239 C 1273.29 758.769 1299.75 765.68 1316.64 769.193 C 1330.8 772.137 1371.75 779.471 1384.18 784.025 C 1227.81 804.856 1071.29 824.597 914.638 843.246 C 900.922 845.565 875.041 838.449 860.392 835.492 C 832.168 830.085 804.053 824.124 776.063 817.612 C 791.167 814.434 819.951 811.639 835.855 809.662 L 943.689 796.113 L 1247.67 756.371 z" fill="rgb(58,36,32)" transform="translate(0,0)"></path>
<path d="M 629.688 354.283 C 635.218 354.144 658.904 359.928 665.663 361.504 L 740.23 379.129 C 696.13 388.118 647.089 395.917 602.522 404.057 L 374.972 446.651 C 371.292 447.494 359.688 450.23 356.642 449.958 C 327.684 447.371 295.881 437.16 266.853 432.045 C 278.721 428.171 303.637 423.586 316.965 420.741 L 401.491 402.446 C 475.54 386.645 555.713 367.671 629.688 354.283 z" fill="rgb(58,36,32)" transform="translate(0,0)"></path>
<path d="M 1416.38 0 L 1552.88 0 L 1575.66 0 L 1585.68 0 L 1597.87 0 L 1645.81 0 L 1657.34 0 L 1704.29 0 L 1740.88 0 L 1845.75 0 L 1845.79 541.713 C 1845.79 637.294 1847.11 735.642 1845.62 830.945 C 1838.13 830.786 1815.63 827.137 1807.12 825.949 L 1712.72 811.881 L 1416.75 769.498 L 1416.38 0 z" fill="rgb(255,140,66)" transform="translate(0,0)"></path>
<path d="M 1552.88 0 L 1575.66 0 L 1585.68 0 L 1597.87 0 L 1645.81 0 L 1657.34 0 L 1704.29 0 L 1740.88 0 L 1741.19 220.171 C 1681.18 203.24 1612.88 181.956 1553.26 163.085 L 1552.88 0 z" fill="rgb(245,237,230)" transform="translate(0,0)"></path>
<path d="M 1575.66 0 L 1585.68 0 C 1610.48 13.5666 1639.77 25.1558 1665.58 37.0751 C 1674.64 41.2586 1697.58 50.0527 1705 55.0004 C 1704.32 60.3061 1704.66 72.7227 1704.66 78.5628 C 1700.43 76.186 1695.55 73.8513 1691.12 71.8322 C 1652.69 54.3203 1613.44 37.9182 1575.57 19.2277 L 1575.66 0 z" fill="rgb(58,36,32)" transform="translate(0,0)"></path>
<path d="M 1597.87 0 L 1645.81 0 L 1705.13 26.6472 C 1704.74 34.3661 1704.6 42.5486 1705.21 50.2667 C 1671.43 35.2983 1630.04 17.1299 1597.87 0 z" fill="rgb(58,36,32)" transform="translate(0,0)"></path>
<path d="M 1657.34 0 L 1704.29 0 C 1704.62 7.69374 1704.52 15.3429 1704.94 22.9875 C 1700.69 21.887 1661.82 2.64698 1657.34 0 z" fill="rgb(58,36,32)" transform="translate(0,0)"></path>
<path d="M 1575.62 54.096 C 1616.72 73.6835 1662.84 90.1632 1704.82 109.139 L 1704.83 131.264 C 1662.98 113.108 1617.73 95.6304 1575.21 78.4727 C 1575.16 70.5724 1574.88 61.8999 1575.62 54.096 z" fill="rgb(58,36,32)" transform="translate(0,0)"></path>
<path d="M 1575.2 24.194 C 1604.52 38.1279 1634.07 51.5721 1663.83 64.5208 C 1673.56 68.7996 1695.33 79.0692 1704.78 81.7998 L 1704.76 104.142 C 1661.84 85.7612 1617.73 67.395 1575.17 48.6162 L 1575.2 24.194 z" fill="rgb(58,36,32)" transform="translate(0,0)"></path>
<path d="M 1575.34 84.9694 C 1585.03 88.2049 1599.68 94.6643 1609.47 98.6042 C 1630.5 107.121 1651.6 115.47 1672.76 123.65 C 1681.77 127.135 1696.02 133.072 1704.85 135.452 L 1704.9 158.278 C 1663.23 139.941 1616.44 125.369 1575.28 107.022 L 1575.34 84.9694 z" fill="rgb(58,36,32)" transform="translate(0,0)"></path>
<path d="M 1575.37 114.943 C 1617.58 132.019 1662.32 148.521 1705 164.888 L 1704.96 180.017 C 1662.35 164.051 1618.47 148.541 1575.61 133.187 L 1575.37 114.943 z" fill="rgb(58,36,32)" transform="translate(0,0)"></path>
<path d="M 1552.96 318.835 C 1577.33 325.805 1603.04 335.052 1627.27 342.92 L 1740.93 379.617 L 1740.96 685.527 C 1679.15 674.868 1616.7 658.08 1553.5 646.804 C 1550.98 539.95 1552.78 426.142 1552.96 318.835 z" fill="rgb(245,237,230)" transform="translate(0,0)"></path>
<path d="M 1575.68 515.649 C 1615.41 524.575 1664.52 536.8 1704 547.704 C 1704.02 553.7 1703.77 563.543 1704.41 569.211 C 1698.57 568.908 1672.75 562.166 1665.77 560.421 C 1635.94 552.954 1606.08 544.501 1576.16 537.323 C 1575.11 530.534 1575.55 522.602 1575.68 515.649 z" fill="rgb(58,36,32)" transform="translate(0,0)"></path>
<path d="M 1575.83 572.444 C 1590.39 574.9 1612.78 580.928 1627.71 584.358 C 1652.73 590.107 1679.53 595.807 1704.14 602.576 L 1704.17 624.536 C 1661.25 614.781 1618.46 604.443 1575.82 593.525 L 1575.83 572.444 z" fill="rgb(58,36,32)" transform="translate(0,0)"></path>
<path d="M 1575.84 543.356 L 1704.11 574.756 L 1704 596.793 C 1665.14 587.262 1613.04 576.413 1575.23 564.467 C 1575.98 556.935 1575.89 550.87 1575.84 543.356 z" fill="rgb(58,36,32)" transform="translate(0,0)"></path>
<path d="M 1575.71 487.273 L 1704.14 521.476 C 1703.85 528.174 1704.02 536.145 1703.99 542.947 C 1661.02 531.986 1618.14 520.711 1575.34 509.121 C 1575.24 501.38 1575.17 495.049 1575.71 487.273 z" fill="rgb(58,36,32)" transform="translate(0,0)"></path>
<path d="M 1575.92 460.511 C 1618.54 472.566 1661.53 483.602 1704.21 495.363 C 1703.91 503.413 1703.84 508.715 1704.3 516.847 C 1662.64 506.715 1617.28 493.418 1575.8 481.819 C 1574.74 477.105 1574.96 465.316 1575.92 460.511 z" fill="rgb(58,36,32)" transform="translate(0,0)"></path>
<path d="M 1575.29 433.44 C 1614.88 444.149 1665.62 461.346 1704.18 469.699 C 1703.89 477.511 1703.78 482.88 1704.27 490.781 C 1690.08 487.873 1669.13 481.498 1654.99 477.503 L 1576.34 455.444 C 1574.28 453.147 1575.22 437.406 1575.29 433.44 z" fill="rgb(58,36,32)" transform="translate(0,0)"></path>
<path d="M 1575.11 380.827 C 1603.66 389.454 1632.28 397.814 1660.99 405.908 C 1673.46 409.502 1692.57 414.466 1704.21 418.867 C 1703.75 425.636 1703.8 432.431 1704.36 439.193 C 1699.54 439.056 1671.89 430.571 1665.44 428.784 C 1636.59 420.797 1605.22 409.769 1576.16 402.906 C 1574.23 399.601 1575.04 385.367 1575.11 380.827 z" fill="rgb(58,36,32)" transform="translate(0,0)"></path>
<path d="M 1575.66 407.276 L 1704.08 444.373 C 1703.98 451.205 1703.62 459.222 1704.37 465.916 C 1692.01 461.712 1675.28 457.392 1662.46 453.661 L 1575.6 428.186 C 1574.54 423.87 1575.07 411.768 1575.66 407.276 z" fill="rgb(58,36,32)" transform="translate(0,0)"></path>
<path d="M 1575.22 356.409 C 1616.11 368.178 1662.99 380.753 1703.27 393.488 C 1703.5 398.055 1703.78 409.161 1704.45 413.191 C 1694.94 410.153 1684.65 407.486 1674.98 404.887 C 1642.74 396.226 1610.86 385.211 1578.56 376.918 C 1577.38 376.246 1575.96 375.797 1575.73 374.821 C 1574.5 369.705 1575.13 361.837 1575.22 356.409 z" fill="rgb(58,36,32)" transform="translate(0,0)"></path>
<path d="M 1576.39 601.262 C 1618.6 611.29 1661.73 619.216 1703.95 629.281 L 1703.92 646.46 C 1661.86 638.709 1617.86 629.326 1576.03 622.397 C 1575.95 615.529 1575.64 608.035 1576.39 601.262 z" fill="rgb(58,36,32)" transform="translate(0,0)"></path>
<path d="M 1416.68 800.568 C 1458.85 808.387 1507.38 814.489 1550.24 820.595 L 1739.64 847.854 L 1814.21 858.139 C 1818.75 858.756 1842.58 861.676 1845.7 862.763 L 1845.6 1304.08 L 1568.06 1379.31 C 1519.41 1392.55 1464.97 1409.1 1416.36 1420.45 L 1416.23 1013.58 C 1416.19 944.243 1414.95 869.631 1416.68 800.568 z" fill="rgb(255,140,66)" transform="translate(0,0)"></path>
<path d="M 1475.68 926.148 C 1565.45 932.745 1655.26 938.826 1745.11 944.389 L 1745.85 1209.32 C 1732.7 1211.18 1719.04 1213.61 1705.89 1215.75 L 1475.83 1256.67 L 1475.68 926.148 z" fill="rgb(245,237,230)" transform="translate(0,0)"></path>
<path d="M 1505.14 967.261 C 1536.4 967.319 1572.27 969.179 1603.72 970.435 C 1641.83 971.973 1679.95 973.191 1718.08 974.089 L 1718.13 1179.21 C 1707.08 1180.77 1696.06 1182.46 1685.06 1184.28 C 1625.14 1195.23 1565.12 1205.67 1505.03 1215.6 L 1505.14 967.261 z" fill="rgb(255,140,66)" transform="translate(0,0)"></path>
<path d="M 1638 1054.19 C 1659.57 1054.09 1682.69 1053.94 1704.19 1054.37 C 1704.17 1062.39 1705.15 1118.84 1703.81 1122.77 C 1682.32 1122.91 1659.33 1122.51 1638.06 1123.75 C 1637.84 1101.04 1637.67 1076.88 1638 1054.19 z" fill="rgb(245,237,230)" transform="translate(0,0)"></path>
<path d="M 1560.88 1125.15 L 1630.61 1125.52 C 1629.94 1144.36 1630.9 1165.25 1630.57 1184.45 C 1614.73 1185.91 1577.66 1184.99 1560.78 1184.75 C 1560.71 1164.89 1560.74 1145.02 1560.88 1125.15 z" fill="rgb(255,90,31)" transform="translate(0,0)"></path>
<path d="M 0 0 L 137.351 0 L 137.677 620.564 L 137.822 845.692 C 137.791 879.853 136.555 919.143 137.303 952.815 C 131.619 953.204 101.602 948.931 94.5431 948.056 C 63.1279 944.162 31.4996 939.21 0 935.659 L 0 721.239 L 0 483.414 L 0 268.502 L 0 32.1269 L 0 0 z" fill="rgb(245,237,230)" transform="translate(0,0)"></path>
<path d="M 0 483.414 C 15.1664 486.104 32.7433 489.765 47.6855 491.971 L 47.9835 662.687 L 79.8234 669.534 L 79.9878 735.503 C 54.4492 730.082 25.9222 725.677 0 721.239 L 0 483.414 z" fill="rgb(255,90,31)" transform="translate(0,0)"></path>
<path d="M 0 32.1269 C 15.2127 35.3489 30.4415 38.4946 45.6857 41.564 L 45.8105 211.435 C 55.994 213.285 66.6613 215.941 76.5194 217.614 L 76.7488 284.796 C 53.1893 279.889 22.9956 274.446 0 268.502 L 0 32.1269 z" fill="rgb(255,90,31)" transform="translate(0,0)"></path>
<path d="M 0 967.371 C 14.0973 968.875 134.877 981.012 139.02 983.139 C 137.237 1086.88 140.878 1193 138.66 1296.6 C 94.4325 1303.69 45.0368 1308.21 0 1314.21 L 0 967.371 z" fill="rgb(255,90,31)" transform="translate(0,0)"></path>
<path d="M 0 1425.46 L 638.493 1482.03 L 860.994 1501.28 L 915.474 1506.25 C 921.653 1506.76 940.066 1507.82 945.334 1509 L 0 1509 L 0 1425.46 z" fill="rgb(58,36,32)" transform="translate(0,0)"></path>
<path d="M 0 1398.82 C 39.9867 1403.08 82.2834 1406.02 122.474 1409.26 L 351.789 1427.31 L 974.713 1477.4 L 1224.97 1497.98 L 1312.88 1504.74 C 1324.57 1505.68 1346.87 1506.89 1357.37 1509 L 945.334 1509 C 940.066 1507.82 921.653 1506.76 915.474 1506.25 L 860.994 1501.28 L 638.493 1482.03 L 0 1425.46 L 0 1398.82 z" fill="rgb(245,237,230)" transform="translate(0,0)"></path>
<path d="M 1937.63 949.919 C 1941.76 948.909 1945.63 948.514 1949.8 947.837 C 1982.36 942.544 2015.5 939.52 2048 934.116 L 2048 1240.25 L 1936 1240.38 L 1937.63 949.919 z" fill="rgb(255,140,66)" transform="translate(0,0)"></path>
<path d="M 2039.6 0 L 2048 0 L 2048 280.272 C 2013.81 288.526 1975.64 297.048 1942.04 306.29 C 1941.21 265.382 1942.28 221.435 1942.63 180.495 L 1943.04 25.7271 C 1967.48 19.7356 2017.32 7.92693 2039.6 0 z" fill="rgb(255,140,66)" transform="translate(0,0)"></path>
<path d="M 1939.23 647.632 C 1943.81 644.858 2036.96 628.108 2048 626.045 L 2048 894.953 C 2015.62 900.847 1971.56 906.496 1938.22 910.592 C 1937.04 879.52 1938.21 841.383 1938.53 809.893 L 1939.23 647.632 z" fill="rgb(255,140,66)" transform="translate(0,0)"></path>
<path d="M 1940.79 347.825 C 1976.48 339.766 2012.37 330.202 2048 321.48 L 2048 584.658 C 2018.4 591.908 1987.79 597.091 1957.94 603.359 C 1952.12 604.58 1945.83 605.891 1939.95 606.762 C 1938.54 585.683 1939.84 548.619 1939.88 526.03 L 1940.79 347.825 z" fill="rgb(255,140,66)" transform="translate(0,0)"></path>
<path d="M 228.289 0 L 306.358 0 C 281.551 6.23083 253.792 11.838 228.418 17.9291 C 228.235 12.1528 228.327 5.82764 228.289 0 z" fill="rgb(255,90,31)" transform="translate(0,0)"></path>
<path d="M 627.124 604.504 L 636.89 608.152 C 644.394 610.604 653.259 613.727 660.733 615.832 L 660.869 739.228 L 626.953 731.411 C 626.984 721.827 626.701 710.243 627.106 700.83 C 627.742 669.576 627.146 635.955 627.124 604.504 z" fill="rgb(255,90,31)" transform="translate(0,0)"></path>
<path d="M 627.124 604.504 L 636.89 608.152 C 636.815 620.235 638.499 695.753 634.815 700.381 C 631.385 700.98 630.583 701.023 627.106 700.83 C 627.742 669.576 627.146 635.955 627.124 604.504 z" fill="rgb(245,237,230)" transform="translate(0,0)"></path>
<path d="M 627.041 277.534 L 626.816 196.668 C 626.798 188.879 626.231 162.811 627.657 156.943 C 630.941 155.738 633.487 156.849 637.026 157.706 C 644.785 160.431 652.58 163.054 660.408 165.575 C 660.917 205.943 661.09 246.314 660.928 286.685 C 652.897 284.493 644.886 282.227 636.897 279.886 L 627.041 277.534 z" fill="rgb(255,90,31)" transform="translate(0,0)"></path>
<path d="M 627.041 277.534 L 626.816 196.668 C 626.798 188.879 626.231 162.811 627.657 156.943 C 630.941 155.738 633.487 156.849 637.026 157.706 C 637.034 197.525 637.848 240.316 636.897 279.886 L 627.041 277.534 z" fill="rgb(245,237,230)" transform="translate(0,0)"></path>
<path d="M 590.382 609.404 C 599.013 607.391 611.954 605.713 620.988 604.275 L 621.063 701.758 C 621.351 711.654 621.168 721.811 621.205 731.738 C 610.872 732.894 600.941 734.396 590.474 735.349 C 590.37 726.676 590.128 713.855 590.57 705.383 C 590.814 673.39 590.752 641.396 590.382 609.404 z" fill="rgb(245,237,230)" transform="translate(0,0)"></path>
<path d="M 621.063 701.758 C 621.351 711.654 621.168 721.811 621.205 731.738 C 610.872 732.894 600.941 734.396 590.474 735.349 C 590.37 726.676 590.128 713.855 590.57 705.383 C 600.867 704.585 610.945 702.792 621.063 701.758 z" fill="rgb(255,90,31)" transform="translate(0,0)"></path>
<path d="M 554.435 615.57 C 563.954 613.968 574.807 612.388 584.152 610.434 L 584.343 680.5 C 585.445 694.686 584.741 720.86 584.76 735.817 L 554.064 739.439 C 554.279 698.581 553.496 656.19 554.435 615.57 z" fill="rgb(245,237,230)" transform="translate(0,0)"></path>
<path d="M 554.435 615.57 C 555.303 645.877 554.908 679.975 554.602 710.458 C 564.408 709.179 574.555 707.706 584.347 706.594 C 584.331 698.117 584.139 688.913 584.343 680.5 C 585.445 694.686 584.741 720.86 584.76 735.817 L 554.064 739.439 C 554.279 698.581 553.496 656.19 554.435 615.57 z" fill="rgb(255,90,31)" transform="translate(0,0)"></path>
<path d="M 580.528 167.154 L 583.468 167.047 C 585.386 170.04 584.354 272.54 584.636 286.393 L 559.24 292.202 C 557.051 292.766 556.739 293.1 554.659 292.25 C 553.626 287.092 554.086 262.459 554.092 255.904 L 554.184 173.637 L 580.528 167.154 z" fill="rgb(245,237,230)" transform="translate(0,0)"></path>
<path d="M 484.009 627.411 C 492.826 625.504 504.404 623.951 513.499 622.482 C 513.692 650.895 514.955 688.089 513.508 715.735 C 512.953 724.559 513.257 735.623 513.205 744.646 C 503.562 745.374 492.857 746.765 483.168 747.898 C 483.103 741.473 482.808 724.19 483.806 718.544 C 484.782 689.362 484.049 656.836 484.009 627.411 z" fill="rgb(245,237,230)" transform="translate(0,0)"></path>
<path d="M 483.806 718.544 C 493.796 717.774 503.639 716.424 513.508 715.735 C 512.953 724.559 513.257 735.623 513.205 744.646 C 503.562 745.374 492.857 746.765 483.168 747.898 C 483.103 741.473 482.808 724.19 483.806 718.544 z" fill="rgb(255,90,31)" transform="translate(0,0)"></path>
<path d="M 619.209 157.231 L 620.563 158.257 C 621.435 167.255 620.803 189.075 620.78 199.331 L 620.655 278.001 C 611.952 280.506 601.738 282.682 592.818 284.77 L 592.028 284.638 C 589.946 281.381 590.932 177.867 590.903 164.512 C 598.968 161.946 610.748 159.349 619.209 157.231 z" fill="rgb(245,237,230)" transform="translate(0,0)"></path>
<path d="M 519.868 621.388 C 525.184 620.518 544.657 616.702 548.395 617.538 C 549.651 657.438 548.783 699.982 549.028 740.195 C 540.053 741.374 527.667 742.637 519.035 744.295 C 519.042 729.738 518.603 710.763 519.674 696.498 L 519.868 621.388 z" fill="rgb(245,237,230)" transform="translate(0,0)"></path>
<path d="M 548.395 617.538 C 549.651 657.438 548.783 699.982 549.028 740.195 C 540.053 741.374 527.667 742.637 519.035 744.295 C 519.042 729.738 518.603 710.763 519.674 696.498 L 519.576 714.438 C 529.247 713.451 538.894 712.244 548.509 710.82 C 547.94 680.365 548.226 648.05 548.395 617.538 z" fill="rgb(255,90,31)" transform="translate(0,0)"></path>
<path d="M 483.67 191.238 C 491.291 189.177 506.255 185.065 513.696 184.495 C 513.659 220.708 515.067 267.106 513.66 302.591 C 505.488 303.758 492.332 306.99 483.548 308.682 L 483.67 191.238 z" fill="rgb(245,237,230)" transform="translate(0,0)"></path>
<path d="M 519.813 182.057 C 527.156 181.051 540.586 177.196 548.196 175.138 L 548.092 294.583 C 538.774 296.779 529.443 298.915 520.098 300.989 C 518.44 266.187 520.142 217.99 519.813 182.057 z" fill="rgb(245,237,230)" transform="translate(0,0)"></path>
<path d="M 417.385 208.097 L 419.283 208.398 C 420.517 211.192 420.031 311.962 420.047 323.485 C 412.935 325.447 405.028 327.105 397.787 328.775 L 395.72 328.506 C 394.542 326.114 394.969 224.999 394.954 213.753 L 417.385 208.097 z" fill="rgb(255,90,31)" transform="translate(0,0)"></path>
<path d="M 472.174 194.264 L 476.012 193.405 L 477.404 194.422 C 478.239 218.043 477.482 243.557 477.75 267.37 C 477.854 276.553 478.281 301.683 477.388 309.212 C 475.357 310.553 474.789 310.967 472.512 311.994 C 467.888 311.863 458.369 314.635 453.521 315.87 L 453.656 198.734 C 459.362 197.684 466.438 195.701 472.174 194.264 z" fill="rgb(255,90,31)" transform="translate(0,0)"></path>
<path d="M 472.174 194.264 L 476.012 193.405 L 477.404 194.422 C 478.239 218.043 477.482 243.557 477.75 267.37 C 477.854 276.553 478.281 301.683 477.388 309.212 C 475.357 310.553 474.789 310.967 472.512 311.994 C 471.629 304.383 472.124 281.709 472.125 273.335 L 472.174 194.264 z" fill="rgb(245,237,230)" transform="translate(0,0)"></path>
<path d="M 365.636 220.562 C 373.46 219.635 381.996 217.034 389.717 215.06 C 389.946 253.498 389.982 291.937 389.825 330.375 C 382.771 332.039 373.742 333.897 366.933 335.914 C 363.533 327.188 367.31 238.81 365.636 220.562 z" fill="rgb(255,90,31)" transform="translate(0,0)"></path>
<path d="M 445.798 201.194 L 447.142 201.298 C 449.098 203.854 448.087 305.087 448.121 317.388 L 427.214 321.902 L 426.026 321.086 C 423.529 312.208 425.178 222.478 425.16 206.265 L 445.798 201.194 z" fill="rgb(255,90,31)" transform="translate(0,0)"></path>
<path d="M 666.315 167.373 C 673.28 169.412 681.73 172.708 688.677 175.209 L 689.039 294.904 C 681.759 292.543 673.989 290.418 666.612 288.272 C 665.85 248.724 666.439 207.093 666.315 167.373 z" fill="rgb(255,90,31)" transform="translate(0,0)"></path>
<path d="M 303.732 658.364 C 305.388 657.958 305.629 658.156 307.401 658.247 C 309.313 661.876 308.315 756.388 308.262 767.762 L 292.229 769.821 C 289.685 770.192 289.425 770.062 286.951 769.771 C 285.388 767.109 285.959 672.805 285.958 661.363 C 291.671 660.237 297.947 659.324 303.732 658.364 z" fill="rgb(255,90,31)" transform="translate(0,0)"></path>
<path d="M 330.994 230.161 L 332.688 230.269 C 335.546 234.434 333.92 329.489 333.933 343.188 L 315.497 347.404 L 314.343 347.352 C 312.729 344.365 313.207 246.869 313.184 234.735 L 330.994 230.161 z" fill="rgb(255,90,31)" transform="translate(0,0)"></path>
<path d="M 307.065 236.257 C 308.823 238.816 308.107 337.71 308.101 349.5 L 289.206 353.666 C 287.003 351.127 287.935 252.708 287.938 241.111 C 294.323 239.529 300.699 237.911 307.065 236.257 z" fill="rgb(255,90,31)" transform="translate(0,0)"></path>
<path d="M 393.864 642.913 C 402.433 641.64 411.363 639.9 419.928 638.362 L 420.11 727.178 C 411.738 728.302 402.318 729.682 393.973 730.342 L 393.864 642.913 z" fill="rgb(255,140,66)" transform="translate(0,0)"></path>
<path d="M 666.345 617.273 L 684.548 623.796 L 684.782 744.322 C 678.878 742.902 672.315 741.65 666.324 740.374 C 665.463 700.418 666.303 657.513 666.345 617.273 z" fill="rgb(255,90,31)" transform="translate(0,0)"></path>
<path d="M 332.793 653.455 C 334.594 658.856 333.777 752.329 333.805 764.685 L 315.215 767.312 C 312.77 764.019 313.66 668.673 313.653 656.481 C 320.034 655.721 326.452 654.54 332.793 653.455 z" fill="rgb(255,90,31)" transform="translate(0,0)"></path>
<path d="M 472.763 628.354 L 476.996 628.879 C 479.119 631.71 478.278 709.766 477.921 719.501 C 476.174 719.606 474.428 719.731 472.684 719.875 C 466.838 721.053 459.865 721.826 453.864 722.308 L 453.955 632.441 C 459.251 631.433 468.266 630.616 472.763 628.354 z" fill="rgb(255,140,66)" transform="translate(0,0)"></path>
<path d="M 472.763 628.354 L 476.996 628.879 C 479.119 631.71 478.278 709.766 477.921 719.501 C 476.174 719.606 474.428 719.731 472.684 719.875 L 472.151 660.743 C 472.089 652.871 471.576 635.186 472.763 628.354 z" fill="rgb(245,237,230)" transform="translate(0,0)"></path>
<path d="M 361.089 648.211 L 361.216 762.013 C 356.383 761.872 346.95 763.157 341.809 763.708 L 341.846 651.492 C 347.728 650.887 355.151 649.305 361.089 648.211 z" fill="rgb(245,237,230)" transform="translate(0,0)"></path>
<path d="M 342.322 226.882 C 347.667 225.542 356.496 222.539 361.176 223.952 C 360.142 236.158 360.62 253.923 360.649 266.473 L 360.872 337.335 C 357.326 337.44 346.441 339.964 342.432 340.801 C 342.205 302.828 342.168 264.855 342.322 226.882 z" fill="rgb(245,237,230)" transform="translate(0,0)"></path>
<path d="M 425.856 637.478 L 448.126 633.298 L 448.379 722.833 C 441.498 724.061 432.806 725.167 425.693 726.209 C 426.14 697.063 425.81 666.705 425.856 637.478 z" fill="rgb(255,140,66)" transform="translate(0,0)"></path>
<path d="M 279.428 243.111 L 281.509 242.957 L 282.572 243.993 C 282.962 280.993 283.109 317.996 283.015 354.999 L 268.882 357.713 C 266.675 357.985 267.714 358.161 265.685 357.052 C 264.876 348.138 265.289 330.989 265.258 321.222 C 265.218 296.37 265.307 271.518 265.524 246.667 L 279.428 243.111 z" fill="rgb(255,90,31)" transform="translate(0,0)"></path>
<path d="M 366.78 647.214 C 374.316 646.166 380.87 645.185 388.368 643.693 L 388.476 731.016 C 381.287 732.185 374.038 732.956 366.764 733.326 L 366.78 647.214 z" fill="rgb(255,140,66)" transform="translate(0,0)"></path>
<path d="M 277.613 662.362 C 279.741 662.053 278.721 661.931 280.652 663.109 C 282.29 694.804 280.945 738.782 280.936 771.395 L 268.752 772.322 L 266.966 772.208 C 263.684 767.574 265.499 677.897 265.538 664.348 C 269.305 663.607 273.771 662.987 277.613 662.362 z" fill="rgb(255,90,31)" transform="translate(0,0)"></path>
<path d="M 393.973 730.342 C 402.318 729.682 411.738 728.302 420.11 727.178 L 420.121 754.656 C 411.484 756.045 402.688 757.196 393.998 758.389 L 393.973 730.342 z" fill="rgb(255,90,31)" transform="translate(0,0)"></path>
<path d="M 472.684 719.875 C 474.428 719.731 476.174 719.606 477.921 719.501 C 477.451 728.12 477.64 739.386 477.658 748.22 L 453.875 751.228 C 453.808 741.663 453.764 731.871 453.864 722.308 C 459.865 721.826 466.838 721.053 472.684 719.875 z" fill="rgb(255,90,31)" transform="translate(0,0)"></path>
<path d="M 425.693 726.209 C 432.806 725.167 441.498 724.061 448.379 722.833 C 448.504 732.468 448.51 742.105 448.396 751.741 C 440.757 752.591 433.318 753.623 425.608 754.352 C 425.452 745.561 425.361 734.989 425.693 726.209 z" fill="rgb(255,90,31)" transform="translate(0,0)"></path>
<path d="M 366.764 733.326 C 374.038 732.956 381.287 732.185 388.476 731.016 L 388.431 758.719 C 381.775 759.647 375.214 760.167 368.77 761.527 C 365.342 759.188 366.808 738.482 366.764 733.326 z" fill="rgb(255,90,31)" transform="translate(0,0)"></path>
<metadata><recraft-signature>{"signed_by": "recraft", "signature_b64": "wYKiL5mhWXaCo/klXPbOJPsqpxODCjjgJ0nP7h474j3KxN3jJaCXWxl12LUXHQM9re5CpNVMT6nfcVIFzSP9Cg==", "signing_algo": "Ed25519", "generation_timestamp": 1783313466, "identifier": "02c34c64-954f-421a-8183-009527f29645"}</recraft-signature></metadata></svg>