<svg xmlns="http://www.w3.org/2000/svg" height="896" preserveAspectRatio="none" style="display: block;" version="1.1" viewBox="0 0 2048 1509" width="1216">
<path d="M 0 0 L 312.652 0 L 610.66 0 L 2048 0 L 2048 1082.64 L 2048 1107.46 L 2048 1177.17 L 2048 1265.28 L 2048 1312.6 L 2048 1509 L 1331.59 1509 L 1140.58 1509 L 577.771 1509 L 0 1509 L 0 1496.75 L 0 378.215 L 0 95.6106 L 0 34.0609 L 0 0 z" fill="rgb(43,16,22)" transform="translate(0,0)"></path>
<path d="M 0 378.215 L 554.677 430.12 L 749.565 447.901 C 774.273 450.282 802.655 452.152 826.968 455.259 L 826.963 906.865 L 826.965 919.265 L 827.008 955.502 L 826.913 986.431 C 827.146 990.811 826.378 990.732 828.635 993.26 C 844.82 999.323 866.284 1003.15 880.267 1008.6 C 883.738 1007.1 904.802 1005.18 909.16 1005.27 C 930.025 1005.66 972.806 995.721 991.873 1000.45 C 1027.17 1012.8 1073.87 1024.79 1110.54 1035.6 L 1398.92 1118.72 L 1590.13 1174.16 C 1606.99 1178.94 1626.06 1184.84 1642.68 1189.09 C 1649.63 1190.87 1678.16 1183.96 1686.56 1182.25 L 1772.57 1164.64 L 1963.09 1124.99 C 1991.09 1119.15 2020.29 1113.9 2048 1107.46 L 2048 1177.17 L 2048 1265.28 L 2048 1312.6 L 2048 1509 L 1331.59 1509 L 1140.58 1509 L 577.771 1509 L 0 1509 L 0 1496.75 L 0 378.215 z" fill="rgb(245,237,230)" transform="translate(0,0)"></path>
<path d="M 0 378.215 L 554.677 430.12 L 749.565 447.901 C 774.273 450.282 802.655 452.152 826.968 455.259 L 826.963 906.865 L 353.906 921.246 C 278.935 923.833 196.525 928.83 122.325 929.053 C 185.482 1098.17 254.378 1267.73 319.259 1436.46 L 81.5699 1481.11 C 54.2431 1486.21 27.4678 1491.96 0 1496.75 L 0 378.215 z" fill="rgb(255,90,31)" transform="translate(0,0)"></path>
<path d="M 170.762 953.08 L 511.97 936.302 L 603.951 931.376 C 611.726 931.013 638.752 929.36 645.521 930.612 C 660.749 933.43 682.703 941.713 698.143 946.452 L 826.913 986.431 C 827.146 990.811 826.378 990.732 828.635 993.26 C 844.82 999.323 866.284 1003.15 880.267 1008.6 C 883.042 1013.18 958.538 1034.94 970.532 1038.65 L 1119.27 1085.25 L 1393.1 1170.78 C 1438.87 1184.93 1483.73 1199.64 1529.81 1212.99 C 1481.41 1223.72 1429.48 1232.14 1380.57 1241.34 L 1097.85 1294.28 L 410.31 1423.17 C 399.623 1404.35 388.803 1381.64 378.892 1362.2 L 324.798 1256 L 170.762 953.08 z" fill="rgb(255,90,31)" transform="translate(0,0)"></path>
<path d="M 2048 1177.17 L 2048 1265.28 L 2048 1312.6 L 2048 1509 L 1331.59 1509 L 1140.58 1509 L 577.771 1509 C 630.66 1495.58 689.123 1483.87 742.898 1471.72 L 1106.88 1389.57 L 2048 1177.17 z" fill="rgb(43,16,22)" transform="translate(0,0)"></path>
<path d="M 1331.59 1509 C 1373.49 1495.04 1428.46 1481.79 1471.93 1469.79 L 1761.12 1390.43 L 1941.97 1340.64 C 1965.5 1333.95 1989.08 1327.41 2012.69 1321.03 C 2023 1318.32 2037.72 1314.11 2048 1312.6 L 2048 1509 L 1331.59 1509 z" fill="rgb(43,16,22)" transform="translate(0,0)"></path>
<path d="M 1140.58 1509 C 1157.9 1502.52 1195.92 1493.68 1215.84 1488.38 L 1371.19 1446.98 L 1823.9 1325.85 C 1872.23 1313.2 1920.48 1300.27 1968.65 1287.06 C 1994.7 1280.04 2022.35 1273.09 2048 1265.28 L 2048 1312.6 C 2037.72 1314.11 2023 1318.32 2012.69 1321.03 C 1989.08 1327.41 1965.5 1333.95 1941.97 1340.64 L 1761.12 1390.43 L 1471.93 1469.79 C 1428.46 1481.79 1373.49 1495.04 1331.59 1509 L 1140.58 1509 z" fill="rgb(245,237,230)" transform="translate(0,0)"></path>
<path d="M 730.759 923.91 C 758.516 922.508 801.025 922.518 826.965 919.265 L 827.008 955.502 C 818.419 952.737 804.938 949.711 795.927 947.366 C 772.442 941.488 749.08 935.126 725.856 928.283 C 723.178 927.817 714.563 925.179 711.506 924.333 C 717.523 923.974 724.649 924.024 730.759 923.91 z" fill="rgb(254,248,17)" transform="translate(0,0)"></path>
<path d="M 0 95.6106 C 102.031 111.515 204.708 130.049 306.611 147.158 L 949.05 254.857 L 1325.72 317.805 L 1454.57 339.595 C 1481.2 343.976 1510.92 347.855 1537.03 353.386 C 1541.97 354.223 1545.15 354.701 1549.92 356.261 L 1550.01 789.807 L 1549.94 927.955 C 1549.92 948.993 1549.03 976.926 1549.93 997.51 C 1513.31 992.837 1464.31 981.25 1427.21 974.262 C 1343.71 959.087 1260.28 943.48 1176.94 927.443 L 1105.73 913.612 C 1094.98 911.501 1084.17 909.29 1073.36 907.529 C 1046.91 903.218 1018.55 905.147 991.74 905.008 L 991.873 1000.45 C 972.806 995.721 930.025 1005.66 909.16 1005.27 C 904.802 1005.18 883.738 1007.1 880.267 1008.6 C 866.284 1003.15 844.82 999.323 828.635 993.26 C 826.378 990.732 827.146 990.811 826.913 986.431 L 827.008 955.502 L 826.965 919.265 L 826.963 906.865 L 826.968 455.259 C 802.655 452.152 774.273 450.282 749.565 447.901 L 554.677 430.12 L 0 378.215 L 0 95.6106 z" fill="rgb(255,90,31)" transform="translate(0,0)"></path>
<path d="M 0 95.6106 C 102.031 111.515 204.708 130.049 306.611 147.158 L 949.05 254.857 L 1325.72 317.805 L 1454.57 339.595 C 1481.2 343.976 1510.92 347.855 1537.03 353.386 C 1529.84 357.229 1467.59 372.182 1456.72 374.879 L 1237.74 428.364 L 1110.51 459.85 C 1098.48 462.783 1065.9 471.596 1055.25 473.087 C 1045.72 474.421 1002.29 468.318 990.402 466.84 L 990.209 295.952 C 954.817 290.391 916.474 285.661 880.831 281.255 L 881.05 821.276 L 880.938 954.98 C 880.934 963.502 881.629 1002.49 880.267 1008.6 C 866.284 1003.15 844.82 999.323 828.635 993.26 C 826.378 990.732 827.146 990.811 826.913 986.431 L 827.008 955.502 L 826.965 919.265 L 826.963 906.865 L 826.968 455.259 C 802.655 452.152 774.273 450.282 749.565 447.901 L 554.677 430.12 L 0 378.215 L 0 95.6106 z" fill="rgb(43,16,22)" transform="translate(0,0)"></path>
<path d="M 1685.75 325.182 C 1734.7 312.954 1783.75 301.101 1832.89 289.626 C 1862.13 282.518 1891.39 274.416 1920.81 268.296 L 1920.9 1060.44 C 1958.95 1068.12 2009.18 1077.42 2048 1082.64 L 2048 1107.46 C 2020.29 1113.9 1991.09 1119.15 1963.09 1124.99 L 1772.57 1164.64 L 1686.56 1182.25 C 1678.16 1183.96 1649.63 1190.87 1642.68 1189.09 C 1626.06 1184.84 1606.99 1178.94 1590.13 1174.16 L 1398.92 1118.72 L 1110.54 1035.6 C 1073.87 1024.79 1027.17 1012.8 991.873 1000.45 L 991.74 905.008 C 1018.55 905.147 1046.91 903.218 1073.36 907.529 C 1084.17 909.29 1094.98 911.501 1105.73 913.612 L 1176.94 927.443 C 1260.28 943.48 1343.71 959.087 1427.21 974.262 C 1464.31 981.25 1513.31 992.837 1549.93 997.51 C 1571.81 1001.78 1593.72 1005.9 1615.65 1009.87 C 1627.62 1012.02 1644.85 1014.58 1656.16 1017.44 C 1664.41 1016.45 1677.15 1013.16 1685.65 1011.19 L 1685.75 325.182 z" fill="rgb(254,248,17)" transform="translate(0,0)"></path>
<path d="M 0 34.0609 L 1069.08 225.343 L 1397.39 284.52 L 1499.46 302.574 C 1515.61 305.436 1533.74 309.23 1549.71 311.61 L 1549.92 356.261 C 1545.15 354.701 1541.97 354.223 1537.03 353.386 C 1510.92 347.855 1481.2 343.976 1454.57 339.595 L 1325.72 317.805 L 949.05 254.857 L 306.611 147.158 C 204.708 130.049 102.031 111.515 0 95.6106 L 0 34.0609 z" fill="rgb(245,237,230)" transform="translate(0,0)"></path>
<path d="M 312.652 0 L 610.66 0 C 622.026 3.4014 639.582 6.84168 651.645 9.57456 C 679.144 15.8426 706.683 21.9338 734.261 27.8477 L 964.906 77.988 L 1636.41 224.234 L 1636.26 266.404 C 1597.95 257.916 1557.4 250.62 1518.81 242.913 L 1291.17 197.562 L 689.427 77.3675 C 596.493 58.9557 503.667 40.0009 410.954 20.5039 C 382.23 14.3247 339.685 7.66168 312.652 0 z" fill="rgb(245,237,230)" transform="translate(0,0)"></path>
<path d="M 1656.31 311.309 C 1686.27 302.236 1725.51 293.667 1756.49 285.842 C 1811.17 271.746 1865.92 257.943 1920.74 244.435 L 1920.81 268.296 C 1891.39 274.416 1862.13 282.518 1832.89 289.626 C 1783.75 301.101 1734.7 312.954 1685.75 325.182 L 1685.65 1011.19 C 1677.15 1013.16 1664.41 1016.45 1656.16 1017.44 L 1656.31 311.309 z" fill="rgb(245,237,230)" transform="translate(0,0)"></path>
<metadata><recraft-signature>{"signed_by": "recraft", "signature_b64": "C4aFXSBPWBt5goCyMyCAEQPCuRFpYeZ/Wz3XTZMdaxCCJTcG/fomnJd7VcRMVnKfR5fqnqeT5DBK8zm6fZUAAg==", "signing_algo": "Ed25519", "generation_timestamp": 1783313382, "identifier": "fb3c6618-4c16-4f01-8a1a-b490d3432d81"}</recraft-signature></metadata></svg>