<svg xmlns="http://www.w3.org/2000/svg" height="896" preserveAspectRatio="none" style="display: block;" version="1.1" viewBox="0 0 2048 1509" width="1216">
<defs>
	<linearGradient gradientUnits="userSpaceOnUse" id="Gradient1" x1="2024.09" x2="2024.83" y1="1504.68" y2="1497.98">
		<stop class="stop0" offset="0" stop-color="rgb(40,11,6)" stop-opacity="1"></stop>
		<stop class="stop1" offset="1" stop-color="rgb(73,33,14)" stop-opacity="1"></stop>
	</linearGradient>
</defs>
<path d="M 0 0 L 849.116 0 L 894.631 0 L 899.815 0 L 1071.83 0 L 1076.88 0 L 1147.89 0 L 1154.75 0 L 1372.16 0 L 1451.07 0 L 1943.86 0 L 2048 0 L 2048 917.517 L 2048 921.304 L 2048 1203.86 L 2048 1238.39 L 2048 1240.76 L 2048 1509 L 2045.41 1509 L 2037.27 1509 L 1939.34 1509 L 1933.05 1509 L 1834.57 1509 L 1791.39 1509 L 1683.44 1509 L 1425.24 1509 L 1307.54 1509 L 0 1509 L 0 1266.08 L 0 1244.08 L 0 1188.01 L 0 1166.55 L 0 1115.23 L 0 1111.56 L 0 1085.55 L 0 1081.9 L 0 1011.95 L 0 0 z" fill="rgb(58,36,32)" transform="translate(0,0)"></path>
<path d="M 849.116 0 L 894.631 0 L 899.815 0 L 1071.83 0 L 1076.88 0 L 1147.89 0 L 1154.75 0 L 1372.16 0 C 1391.14 15.1205 1415.8 32.0554 1435.76 46.4675 C 1471.17 71.9886 1506.43 97.7257 1541.53 123.677 C 1559.89 137.101 1580.13 151.054 1597.96 164.936 L 1598.95 165.975 L 1597.65 169.014 L 1607.22 172.746 C 1607.18 179.698 1607.48 204.648 1606.5 210.096 C 1603.36 209.808 1602.94 209.636 1599.93 208.587 L 1598.93 210.015 L 1598.98 763.188 L 1599.01 924.506 C 1599.03 950.816 1598.37 981.123 1599.27 1007 L 1600.07 1007.02 C 1600.07 1017.67 1600.63 1065.49 1599.29 1072.57 C 1589.42 1078.36 1541.33 1093.96 1526.98 1099.02 L 1323.83 1168.73 L 1240.71 1197.34 C 1235.61 1199.08 1204.32 1209.79 1203.43 1209.72 C 1190.01 1208.61 1140.77 1202.82 1131.91 1195.2 C 1128.29 1194.62 1127.72 1194.67 1124.55 1193.01 C 1123.33 1187.63 1123.84 1164.32 1123.86 1157.65 C 1124.06 1132.21 1124.04 1106.76 1123.8 1081.32 C 1124.57 1053.5 1123.96 1022.79 1123.95 994.659 L 1123.97 828.667 L 1108.04 828.646 C 1088.71 827.224 1063.43 827.355 1043.68 827.076 C 974.936 825.875 903.245 825.195 834.726 822.492 L 834.237 1137.88 C 823.791 1136.2 811.177 1134.47 801.035 1132.13 L 801.069 1130.84 L 799.455 1130.86 C 794.515 1131.15 765.584 1125 759.925 1123.5 C 760.534 1065.74 760.087 977.012 759.466 917.032 C 759.095 916.613 758.725 916.194 758.355 915.774 C 755.126 915.612 753.776 915.794 750.917 914.467 C 747.716 908.867 751.075 497.436 749.359 448.31 C 888.439 436.725 1027.87 421.756 1167.12 410.836 L 1167.05 275.796 C 1143.83 268.643 1122.73 261.912 1100.02 253.299 C 1100.15 210.763 1100 168.226 1099.59 125.692 L 827.747 165.268 L 827.851 279.311 C 802.234 281.506 775.762 284.89 750.023 287.407 C 750.185 249.83 750.12 212.252 749.828 174.676 C 750.612 163.346 748.43 146.005 750.632 134.61 C 750.976 132.831 753.196 132.707 755.046 132.194 L 755.825 129.898 C 748.153 130.9 737.984 133.041 730.183 134.463 L 730.183 99.4211 C 747.048 87.4962 770.087 66.297 786.679 52.6427 C 806.501 36.3303 830.665 17.2887 849.116 0 z" fill="rgb(43,16,22)" transform="translate(0,0)"></path>
<path d="M 755.046 132.194 L 1050.98 85.8981 L 1148.66 71.7362 C 1162.58 69.7091 1187.31 66.7627 1200.01 63.5147 L 1199.96 832.94 L 1199.84 1085.21 C 1199.84 1125.53 1200.45 1167.35 1199.92 1207.55 C 1189.29 1205.41 1176.18 1203.26 1165.9 1200.83 C 1165.15 1108.79 1164.95 1016.74 1165.3 924.701 L 1165.36 828.811 C 1165.43 815.136 1165.03 797.042 1165.73 783.678 L 798.971 783.84 L 799.025 1021.44 L 799.036 1091.72 C 799.022 1102.36 798.45 1121.09 799.455 1130.86 C 794.515 1131.15 765.584 1125 759.925 1123.5 C 760.534 1065.74 760.087 977.012 759.466 917.032 C 759.095 916.613 758.725 916.194 758.355 915.774 C 755.126 915.612 753.776 915.794 750.917 914.467 C 747.716 908.867 751.075 497.436 749.359 448.31 C 888.439 436.725 1027.87 421.756 1167.12 410.836 L 1167.05 275.796 C 1143.83 268.643 1122.73 261.912 1100.02 253.299 C 1100.15 210.763 1100 168.226 1099.59 125.692 L 827.747 165.268 L 827.851 279.311 C 802.234 281.506 775.762 284.89 750.023 287.407 C 750.185 249.83 750.12 212.252 749.828 174.676 C 750.612 163.346 748.43 146.005 750.632 134.61 C 750.976 132.831 753.196 132.707 755.046 132.194 z" fill="rgb(255,90,31)" transform="translate(0,0)"></path>
<path d="M 827.323 515.173 L 988.765 499.588 C 1025.08 495.977 1063.94 491.185 1100.11 488.591 L 1100.12 675.844 C 1078.13 675.131 1050.95 676.16 1028.57 676.752 C 991.523 677.834 954.463 678.646 917.399 679.19 C 910.729 680.082 903.691 680.066 896.964 679.915 C 873.867 680.579 850.574 680.902 827.53 682.219 C 826.689 627.291 828.92 569.501 827.323 515.173 z" fill="rgb(43,16,22)" transform="translate(0,0)"></path>
<path d="M 896.964 679.915 C 904.84 678.486 909.414 678.575 917.399 679.19 C 910.729 680.082 903.691 680.066 896.964 679.915 z" fill="rgb(58,36,32)" transform="translate(0,0)"></path>
<path d="M 1085.77 507.404 L 1097.28 506.309 C 1097.97 527.486 1097.47 550.793 1097.46 572.109 L 1097.43 665.093 C 1022.16 664.996 943.74 668.113 868.156 669.214 L 854.912 669.46 L 854.975 529.223 L 1085.77 507.404 z" fill="rgb(245,237,230)" transform="translate(0,0)"></path>
<path d="M 830.304 519.003 C 837.491 521.934 844.7 524.812 851.93 527.636 L 851.827 669.948 L 830.068 670.181 C 830.401 620.101 829.336 568.937 830.304 519.003 z" fill="rgb(255,90,31)" transform="translate(0,0)"></path>
<path d="M 1095.22 491.524 L 1096.73 491.706 C 1098.21 494.482 1097.59 500.401 1097.51 503.859 L 927.252 519.942 C 916.015 520.941 860.148 528.028 852.33 524.573 L 843.238 520.635 L 833.465 516.742 L 1095.22 491.524 z" fill="rgb(255,90,31)" transform="translate(0,0)"></path>
<path d="M 1052.26 668.529 C 1063.61 668.143 1087.13 666.183 1097.04 669.94 L 1097.29 671.385 C 1089.29 673.945 1043.69 674.024 1031.68 674.335 L 870.75 678.114 C 864.402 678.33 836.056 679.681 831.514 678.893 C 829.475 676.591 829.992 677.921 830.074 674.712 C 834.009 671.711 876.432 671.809 883.902 671.643 L 1052.26 668.529 z" fill="rgb(245,237,230)" transform="translate(0,0)"></path>
<path d="M 1511.13 177.92 C 1539.22 189 1570.31 199.34 1598.93 210.015 L 1598.98 763.188 L 1599.01 924.506 C 1599.03 950.816 1598.37 981.123 1599.27 1007 C 1599.73 1027.49 1599.26 1049.72 1599.24 1070.34 L 1511.18 1101.65 L 1511.13 177.92 z" fill="rgb(255,140,66)" transform="translate(0,0)"></path>
<path d="M 849.116 0 L 894.631 0 L 899.815 0 L 1071.83 0 L 1076.88 0 L 1147.89 0 C 1164.82 8.92705 1182.45 18.1346 1199.84 26.1072 L 1199.98 61.5856 L 918.663 104.485 C 866.998 112.321 806.733 120.111 755.825 129.898 C 748.153 130.9 737.984 133.041 730.183 134.463 L 730.183 99.4211 C 747.048 87.4962 770.087 66.297 786.679 52.6427 C 806.501 36.3303 830.665 17.2887 849.116 0 z" fill="rgb(245,237,230)" transform="translate(0,0)"></path>
<path d="M 899.815 0 L 1071.83 0 C 1090.34 10.2465 1109 21.2111 1127.39 31.7524 C 1113.84 34.1472 1100.21 35.968 1086.65 38.1861 C 989.797 54.02 892.449 67.9336 795.708 84.3791 C 829.65 55.3279 864.365 27.1914 899.815 0 z" fill="rgb(255,90,31)" transform="translate(0,0)"></path>
<path d="M 894.631 0 L 899.815 0 C 864.365 27.1914 829.65 55.3279 795.708 84.3791 C 892.449 67.9336 989.797 54.02 1086.65 38.1861 C 1100.21 35.968 1113.84 34.1472 1127.39 31.7524 C 1109 21.2111 1090.34 10.2465 1071.83 0 L 1076.88 0 C 1095.44 11.4912 1114.71 21.0643 1133.8 33.315 C 1019.22 49.0121 902.568 70.9607 787.778 87.6277 C 796.515 78.8942 810.382 68.3435 820.068 60.2537 C 844.216 40.0837 871.051 20.6875 894.631 0 z" fill="rgb(43,16,22)" transform="translate(0,0)"></path>
<path d="M 801.294 785.994 L 1163.1 785.846 L 1163.28 1200.6 C 1152.78 1199.07 1142.32 1197.27 1131.91 1195.2 C 1128.29 1194.62 1127.72 1194.67 1124.55 1193.01 C 1123.33 1187.63 1123.84 1164.32 1123.86 1157.65 C 1124.06 1132.21 1124.04 1106.76 1123.8 1081.32 C 1124.57 1053.5 1123.96 1022.79 1123.95 994.659 L 1123.97 828.667 L 1108.04 828.646 C 1088.71 827.224 1063.43 827.355 1043.68 827.076 C 974.936 825.875 903.245 825.195 834.726 822.492 L 834.237 1137.88 C 823.791 1136.2 811.177 1134.47 801.035 1132.13 L 801.069 1130.84 C 801.719 1074.21 801.233 1016.87 801.23 960.189 L 801.294 785.994 z" fill="rgb(245,237,230)" transform="translate(0,0)"></path>
<path d="M 1154.75 0 L 1372.16 0 C 1391.14 15.1205 1415.8 32.0554 1435.76 46.4675 C 1471.17 71.9886 1506.43 97.7257 1541.53 123.677 C 1559.89 137.101 1580.13 151.054 1597.96 164.936 C 1590.01 165.129 1477.72 122.963 1462.62 117.599 C 1406.85 98.0365 1351.18 78.1785 1295.62 58.0256 C 1248.42 41.1451 1197.69 26.0043 1154.75 0 z" fill="rgb(245,237,230)" transform="translate(0,0)"></path>
<path d="M 1202.19 27.281 C 1246.69 45.2556 1304.83 64.3634 1350.44 80.695 L 1597.65 169.014 L 1607.22 172.746 C 1607.18 179.698 1607.48 204.648 1606.5 210.096 C 1603.36 209.808 1602.94 209.636 1599.93 208.587 C 1595 204.442 1525.43 180.566 1513.56 176.236 L 1294.08 95.7048 C 1264.94 84.872 1230.53 73.388 1202.3 61.8005 L 1202.19 27.281 z" fill="rgb(245,237,230)" transform="translate(0,0)"></path>
<path d="M 1202.28 64.2652 C 1212.78 69.3326 1229.54 74.7916 1240.82 78.8369 L 1293.97 98.4467 L 1508.79 177.095 L 1508.83 802.687 L 1508.7 1004.22 L 1508.8 1067.23 C 1508.82 1077.19 1509.3 1092.31 1508.46 1101.93 C 1485.87 1111 1456.2 1120.47 1432.76 1128.71 L 1202.27 1207.39 L 1202.28 64.2652 z" fill="rgb(255,140,66)" transform="translate(0,0)"></path>
<path d="M 1472.53 797.519 L 1474.64 797.83 C 1475.84 810.134 1475.04 838.3 1475.05 851.513 L 1475.08 956.763 C 1405.48 965.886 1331.07 980.357 1261.22 991.719 L 1259.66 991.74 C 1256.97 988.956 1257.97 938.563 1257.95 931.381 L 1258.01 803.921 C 1281.57 803.807 1307.56 802.354 1331.41 801.634 C 1378.46 800.538 1425.5 799.166 1472.53 797.519 z" fill="rgb(43,16,22)" transform="translate(0,0)"></path>
<path d="M 1434.23 809.574 L 1448.39 808.781 C 1449.19 822.165 1448.69 841.47 1448.68 855.419 L 1448.43 944.771 C 1391.96 954.864 1331.87 963.645 1274.9 972.871 L 1260.89 974.985 L 1260.92 822.053 C 1277.32 820.067 1300.86 819.207 1317.88 818.025 L 1434.23 809.574 z" fill="rgb(245,237,230)" transform="translate(0,0)"></path>
<path d="M 1470.75 802.073 L 1471.45 802.603 C 1473.53 808.892 1472.3 923.974 1472.33 940.748 C 1465.04 941.909 1459.28 943.049 1452.09 944.693 C 1450.51 942.022 1451.31 822.416 1451.31 808.308 C 1457.8 806.555 1464.37 804.222 1470.75 802.073 z" fill="rgb(255,90,31)" transform="translate(0,0)"></path>
<path d="M 1465.61 944.335 C 1467.59 943.918 1468.45 944.027 1470.47 944.008 C 1473.62 946.77 1473.52 948.812 1472.61 952.667 C 1470.33 955.603 1407.06 964.841 1397 966.491 L 1269.86 987.678 C 1266.4 988.227 1264.04 989.25 1261.29 988.042 C 1260.91 983.72 1260.85 982.883 1261.62 978.637 C 1265.47 975.546 1444.46 947.85 1465.61 944.335 z" fill="rgb(245,237,230)" transform="translate(0,0)"></path>
<path d="M 1451.71 800.867 C 1453.6 800.855 1461.87 800.5 1463.08 801.516 C 1462.41 802.526 1459.44 803.191 1458.23 803.546 C 1448.82 806.93 1410.87 808.619 1399.16 809.501 C 1353.08 813.008 1306.98 816.25 1260.87 819.229 L 1260.75 806.728 C 1323.07 804.504 1389.49 801.57 1451.71 800.867 z" fill="rgb(255,90,31)" transform="translate(0,0)"></path>
<path d="M 1451.71 800.867 C 1453.6 800.855 1461.87 800.5 1463.08 801.516 C 1462.41 802.526 1459.44 803.191 1458.23 803.546 C 1455.4 801.385 1455.2 801.665 1451.71 800.867 z" fill="rgb(178,88,60)" transform="translate(0,0)"></path>
<path d="M 1258.04 496.28 C 1304.84 504.824 1352.47 511.075 1399.36 519.515 C 1424.2 523.986 1450.04 528.345 1475.01 531.454 C 1474.16 582.768 1475.07 636.662 1475.13 688.185 C 1421.07 684.189 1366.31 683.243 1312.17 679.696 C 1294.29 678.525 1275.86 677.755 1257.97 677.381 L 1258.04 496.28 z" fill="rgb(43,16,22)" transform="translate(0,0)"></path>
<path d="M 1260.95 513.697 C 1322.33 524.302 1386.54 533.471 1448.2 543.078 L 1448.44 674.036 C 1387.45 669.741 1322.74 668.415 1260.92 664.776 L 1260.95 513.697 z" fill="rgb(245,237,230)" transform="translate(0,0)"></path>
<path d="M 1470.91 535.111 C 1472.82 537.47 1472.07 661.91 1472.07 675.831 L 1453.08 674.926 L 1451.74 674.011 C 1450.71 669.117 1451.22 642.329 1451.23 635.507 L 1451.29 543.593 C 1457.9 540.939 1464.44 538.111 1470.91 535.111 z" fill="rgb(255,90,31)" transform="translate(0,0)"></path>
<path d="M 1260.99 499.541 L 1410.55 524.145 L 1450.83 530.888 C 1454.73 531.53 1464.5 532.623 1467.53 533.523 L 1465.28 534.971 C 1460.78 536.627 1455.76 538.805 1451.26 540.626 C 1405.94 535.379 1359.21 525.468 1313.88 519.282 C 1297.89 517.1 1277.47 514.299 1262 510.459 C 1260.44 507.504 1260.95 503.1 1260.99 499.541 z" fill="rgb(255,90,31)" transform="translate(0,0)"></path>
<path d="M 1259.97 667.946 C 1268.03 667.726 1281.73 668.831 1290.13 669.261 L 1345.74 672.102 C 1385.83 674.136 1430.69 675.11 1470.35 678.371 C 1472.53 680.193 1472.11 681.601 1472.73 685.018 L 1327.81 677.822 C 1307.34 676.729 1282.52 676.204 1262.59 674.205 C 1260.28 672.282 1260.85 671.682 1259.97 667.946 z" fill="rgb(245,237,230)" transform="translate(0,0)"></path>
<path d="M 1258.02 140.848 C 1285.97 149.098 1318.65 160.957 1346.49 170.457 L 1474.98 214.12 L 1475.34 373.677 C 1457.95 368.033 1434.45 363.207 1416.09 358.281 C 1363.43 344.347 1310.68 330.71 1257.87 317.372 L 1258.02 140.848 z" fill="rgb(58,36,32)" transform="translate(0,0)"></path>
<path d="M 1260.87 166.127 C 1323.24 187.335 1385.72 208.195 1448.32 228.706 C 1448.61 270.426 1448.66 312.147 1448.46 353.868 C 1444.91 353.829 1413.46 345.459 1407.77 344.026 C 1358.68 331.544 1309.68 318.713 1260.77 305.534 L 1260.87 166.127 z" fill="rgb(245,237,230)" transform="translate(0,0)"></path>
<path d="M 1260.92 144.372 C 1272.5 148.043 1466.1 213.377 1468.12 214.881 C 1467.07 217.492 1465.46 217.569 1462.38 219.161 C 1458.9 221.155 1454.39 224.296 1450.94 226.553 C 1437.57 220.966 1411.24 213.676 1396.01 208.564 L 1260.94 163.388 L 1260.92 144.372 z" fill="rgb(255,90,31)" transform="translate(0,0)"></path>
<path d="M 1469.59 218.935 C 1471.04 219.149 1470.52 219.07 1471.85 220.04 C 1473.03 265.523 1472.08 314.823 1472.07 360.596 L 1456.25 356.622 C 1453.71 356.088 1453.72 356.211 1451.55 354.557 C 1449.74 317.02 1451.25 267.408 1451.17 228.708 C 1457.31 225.592 1463.5 222.186 1469.59 218.935 z" fill="rgb(255,90,31)" transform="translate(0,0)"></path>
<path d="M 1260.45 308.645 C 1307.41 321.528 1355.12 333.241 1402.22 345.707 C 1424.83 351.69 1448.29 356.992 1470.67 363.483 C 1472.72 365.862 1472.01 366.003 1472.23 370.026 C 1427.88 357.328 1382.17 347.252 1337.67 334.88 C 1312.72 327.944 1287.14 322.719 1262.25 315.524 C 1260.29 313.214 1260.79 312.123 1260.45 308.645 z" fill="rgb(245,237,230)" transform="translate(0,0)"></path>
<path d="M 0 1266.08 L 915.211 1435.81 L 1177.65 1484.63 L 1268.05 1501.58 C 1277.99 1503.47 1299.3 1506.69 1307.54 1509 L 0 1509 L 0 1266.08 z" fill="rgb(58,36,32)" transform="translate(0,0)"></path>
<path d="M 0 1188.01 L 1205.09 1416.54 L 1540.91 1481.12 L 1640.37 1500.47 C 1650.48 1502.47 1674.91 1506.5 1683.44 1509 L 1425.24 1509 L 1307.54 1509 C 1299.3 1506.69 1277.99 1503.47 1268.05 1501.58 L 1177.65 1484.63 L 915.211 1435.81 L 0 1266.08 L 0 1244.08 L 0 1188.01 z" fill="rgb(58,36,32)" transform="translate(0,0)"></path>
<path d="M -2.27374e-13 1244.08 C 45.2739 1253.07 90.6233 1261.69 136.043 1269.91 L 402.281 1318.99 L 1027.1 1434.79 L 1282.58 1482.24 L 1376.45 1499.5 C 1390.77 1502.17 1411.89 1505.39 1425.24 1509 L 1307.54 1509 C 1299.3 1506.69 1277.99 1503.47 1268.05 1501.58 L 1177.65 1484.63 L 915.211 1435.81 L 0 1266.08 L 0 1244.08 z" fill="rgb(255,90,31)" transform="translate(0,0)"></path>
<path d="M 1043.68 827.076 C 1063.43 827.355 1088.71 827.224 1108.04 828.646 L 1123.97 828.667 L 1123.95 994.659 C 1123.96 1022.79 1124.57 1053.5 1123.8 1081.32 C 1120.55 1086.01 1123.88 1175.65 1122.05 1190.17 L 1121.52 1191.13 C 1120.87 1191.46 1120.22 1191.79 1119.57 1192.12 C 1083.62 1185.38 1042.48 1177.77 1007.13 1171 C 990.622 1167.84 987.238 1167.19 977.236 1165.58 C 977.193 1145.61 977.271 1125.64 977.472 1105.67 C 977.667 1067.43 978.066 1030.34 974.285 992.296 C 972.437 973.689 979.681 949.793 977.322 930.445 C 976.994 927.755 976.769 918.419 977.782 916.396 C 977.814 909.772 977.654 902.255 978.377 895.747 C 977.527 893.634 977.744 893.686 977.554 891.323 L 978.803 887.207 L 978.019 884.131 L 977.854 875.533 C 978.622 862.473 978.058 842.541 978.058 828.958 C 997.701 829.235 1017.35 829.356 1036.99 829.321 L 1048.39 828.912 L 1048.81 828.254 L 1043.68 827.076 z" fill="rgb(43,16,22)" transform="translate(0,0)"></path>
<path d="M 977.854 1062.94 C 1024.58 1067.29 1075.03 1073.08 1121.66 1075.24 L 1121.64 1150.94 C 1121.64 1159.43 1121.14 1182.58 1122.05 1190.17 L 1121.52 1191.13 C 1120.87 1191.46 1120.22 1191.79 1119.57 1192.12 C 1083.62 1185.38 1042.48 1177.77 1007.13 1171 C 990.622 1167.84 987.238 1167.19 977.236 1165.58 C 977.193 1145.61 977.271 1125.64 977.472 1105.67 L 977.854 1062.94 z" fill="rgb(255,90,31)" transform="translate(0,0)"></path>
<path d="M 978.058 828.958 C 997.701 829.235 1017.35 829.356 1036.99 829.321 C 1064.13 829.898 1095.05 831.498 1121.73 830.999 C 1121.46 849.207 1121.38 867.418 1121.51 885.628 C 1097.62 872.353 1078.53 875.291 1055.38 888.52 C 1030.41 866.439 1005.7 864.66 978.019 884.131 L 977.854 875.533 C 978.622 862.473 978.058 842.541 978.058 828.958 z" fill="rgb(255,90,31)" transform="translate(0,0)"></path>
<path d="M 978.377 895.747 C 1000.49 875.691 1032.09 874.683 1049.95 900.542 C 1049.94 921.437 1050.29 943.451 1049.88 964.247 C 1025.79 962.941 1001.74 961.065 977.744 958.62 C 977.779 946.38 978.436 928.125 977.782 916.396 C 977.814 909.772 977.654 902.255 978.377 895.747 z" fill="rgb(255,90,31)" transform="translate(0,0)"></path>
<path d="M 991.836 899.904 C 1003.53 900.307 1015.32 901.31 1027.02 901.625 C 1036.63 901.884 1034.62 901.387 1034.95 910.976 C 1030.28 910.651 992.788 909.355 992.083 908.451 C 990.74 906.727 991.735 901.889 991.836 899.904 z" fill="rgb(43,16,22)" transform="translate(0,0)"></path>
<path d="M 992.988 903.385 C 1004.27 901.599 1018.53 904.354 1030.02 904.233 C 1031.21 904.22 1031.8 905.466 1032.27 906.358 L 1032.99 907.638 C 1028.04 908.089 995.978 907.641 993.84 904.546 L 992.988 903.385 z" fill="rgb(245,237,230)" transform="translate(0,0)"></path>
<path d="M 978.803 887.207 C 987.463 880.469 992.659 877.282 1003.61 874.698 C 1018.81 871.113 1044.94 876.596 1052.8 891.181 C 1051.94 893.667 1051.83 893.759 1050.5 895.868 C 1026.98 871.612 1004.2 872.44 978.569 892.411 L 977.554 891.323 L 978.803 887.207 z" fill="rgb(255,90,31)" transform="translate(0,0)"></path>
<path d="M 981.61 994.303 C 1003.43 976.419 1031.04 976.854 1049.12 999.62 C 1049.86 1022.25 1049.06 1044.76 1049.41 1067.3 C 1028.47 1064.42 999.245 1062.15 977.969 1060.77 C 978.02 1052.6 978.923 1002.15 977.109 998.576 L 981.61 994.303 z" fill="rgb(255,209,102)" transform="translate(0,0)"></path>
<path d="M 991.378 1000.09 C 1004.96 1001.03 1020.98 1001.41 1034.4 1003.59 C 1035.14 1003.71 1034.91 1012.06 1034.92 1013.19 C 1027.63 1012.72 1000.3 1010.77 991.808 1009.26 C 990.794 1009.08 991.321 1002.02 991.378 1000.09 z" fill="rgb(58,36,32)" transform="translate(0,0)"></path>
<path d="M 994.377 1003.16 C 1000.88 1003.48 1009.11 1003.85 1015.5 1004.76 C 1023.13 1005.85 1030.44 1002.52 1032.83 1009.97 C 1024.7 1009.81 1016.12 1008.99 1008.03 1008.16 C 1003.72 1007.72 995.29 1009.19 994.572 1004.37 L 994.377 1003.16 z" fill="rgb(245,237,230)" transform="translate(0,0)"></path>
<path d="M 1088.25 988.501 C 1103.88 989.591 1109.92 992.234 1121.12 1002.97 C 1121.3 1026.04 1121.8 1050.02 1121.32 1073.02 C 1111.68 1071.7 1099.14 1071.13 1089.23 1070.42 C 1078.98 1069.06 1062.73 1068.39 1051.97 1067.58 C 1052.06 1046.59 1052.06 1025.61 1051.94 1004.62 C 1064.79 993.408 1071.31 989.925 1088.25 988.501 z" fill="rgb(255,140,66)" transform="translate(0,0)"></path>
<path d="M 1066.95 1007.76 C 1071.17 1008.09 1108.72 1010.35 1109.44 1011.5 C 1110.5 1013.19 1110.06 1017.17 1110.17 1019.14 C 1098.6 1019.52 1086.57 1017.95 1074.99 1017.25 C 1065.39 1016.67 1067.18 1018.06 1066.95 1007.76 z" fill="rgb(43,16,22)" transform="translate(0,0)"></path>
<path d="M 1068.64 1011.31 C 1079.91 1010 1094.58 1012.78 1106.03 1013.5 C 1106.61 1013.54 1106.89 1015.28 1106.93 1015.64 L 1107.1 1016.73 C 1096.66 1016.45 1081.37 1015.1 1070.59 1013.92 C 1069.6 1013.81 1069.03 1012.16 1068.64 1011.31 z" fill="rgb(245,237,230)" transform="translate(0,0)"></path>
<path d="M 1083.7 886.367 C 1101.26 886.209 1110.54 887.218 1121.39 901.915 C 1121.99 924.03 1121.5 948.502 1121.31 970.742 L 1096.76 968.731 C 1082.56 966.817 1067.33 966.983 1052.76 964.474 L 1052.92 902.343 C 1064.33 893.803 1069.73 889.08 1083.7 886.367 z" fill="rgb(255,140,66)" transform="translate(0,0)"></path>
<path d="M 1068.19 905.854 C 1081.9 906.274 1095.89 908.023 1109.58 908.61 C 1110.52 908.65 1110.45 917.029 1110.47 917.695 C 1100.33 916.919 1089.97 916.569 1079.86 915.482 C 1067.15 914.116 1068.16 918.129 1068.19 905.854 z" fill="rgb(43,16,22)" transform="translate(0,0)"></path>
<path d="M 1071.26 908.309 C 1083.27 909.21 1095.41 910.207 1107.38 911.303 C 1107.97 911.357 1108.71 914.569 1108.83 914.978 C 1097.82 914.677 1082.81 913.297 1071.63 912.099 C 1070.95 912.026 1071.09 909.968 1071.15 909.459 L 1071.26 908.309 z" fill="rgb(245,237,230)" transform="translate(0,0)"></path>
<path d="M 977.964 960.683 C 989.897 963.122 1020.14 965.111 1033.68 966.149 C 1062.22 968.337 1093.13 971.867 1121.51 973.221 L 1121.51 989.393 C 1116.81 986.28 1112.39 984.057 1107.39 981.453 C 1088.97 974.903 1071.71 979.674 1055.85 989.844 C 1032.36 965.391 1004.74 966.797 977.884 985.176 L 977.964 960.683 z" fill="rgb(255,90,31)" transform="translate(0,0)"></path>
<path d="M 1087.6 981.384 C 1098.08 980.044 1112.28 984.989 1120.51 991.513 C 1122.28 991.954 1122.07 1001.19 1119.97 999.138 C 1110.74 990.134 1101.78 986.938 1088.8 985.742 C 1073.8 986.714 1064.12 990.352 1052.8 999.876 C 1052.51 1000.12 1052.14 999.573 1052.02 999.437 C 1052.08 998.374 1052.52 997.638 1053.24 996.826 C 1063.13 985.657 1074.03 983.14 1087.6 981.384 z" fill="rgb(255,140,66)" transform="translate(0,0)"></path>
<path d="M 977.578 990.803 C 991.23 969.28 1038.92 969.615 1052.58 991.985 C 1053.35 993.24 1051.02 996.089 1050.04 995.04 C 1029.65 973.207 1001.29 974.295 978.797 992.29 L 977.578 990.803 z" fill="rgb(245,237,230)" transform="translate(0,0)"></path>
<path d="M 1082.6 880.228 C 1096.58 879.168 1108.03 880.557 1120.36 887.65 C 1122.26 888.743 1121.45 896.499 1120.43 896.538 C 1111.96 888.615 1105.56 885.816 1094.06 884.036 C 1077.26 883.631 1069.9 886.096 1056.67 896.137 C 1056.05 896.615 1055.08 897.032 1054.24 896.812 C 1049 890.013 1078.52 881.024 1082.6 880.228 z" fill="rgb(255,140,66)" transform="translate(0,0)"></path>
<path d="M 977.109 998.576 C 974.984 994.489 974.969 994.691 977.578 990.803 L 978.797 992.29 L 981.61 994.303 L 977.109 998.576 z" fill="rgb(58,36,32)" transform="translate(0,0)"></path>
<path d="M 0 1085.55 L 735.719 1217.83 L 996.07 1264.77 L 1105.16 1284.31 C 1183.59 1298.74 1248.65 1311.82 1329.79 1301.77 C 1346.61 1299.69 1378.79 1295.5 1394.59 1290.07 C 1437.28 1275.41 1480.21 1258.95 1522.73 1243.66 L 1828.27 1132.7 L 1919.84 1099.33 C 1935.71 1093.49 1952.36 1086.88 1968.46 1081.88 C 1972.99 1080.47 1973.03 1080.81 1975.8 1083.03 C 1981.74 1095.15 1972.44 1105.88 1961.54 1110.08 C 1951.99 1113.77 1942.76 1117.19 1933.13 1120.59 C 1917.11 1126.21 1901.12 1131.93 1885.16 1137.74 L 1711.81 1200.71 L 1494.28 1279.65 L 1432.58 1302.31 C 1417.52 1307.96 1401.61 1314.83 1386.01 1318.49 C 1266.64 1346.55 1150.92 1318.24 1033.86 1297.44 L 788.444 1252.94 L 300.709 1165.59 C 230.071 1152.58 159.369 1139.92 88.6038 1127.63 C 59.7676 1122.51 28.6957 1115.96 0 1111.56 L 0 1085.55 z" fill="rgb(58,36,32)" transform="translate(0,0)"></path>
<path d="M 1451.07 0 L 1943.86 0 C 1946.02 41.181 1950.8 86.8379 1954.29 128.12 C 1914.82 121.512 1867.51 116.685 1827.52 111.394 L 1595.84 80.1174 L 1512.58 69.0952 C 1497.29 67.1093 1480.71 65.3561 1465.65 62.2866 C 1461.24 61.3871 1451.01 53.214 1446.81 50.077 C 1447.42 35.8191 1449.26 14.0671 1451.07 0 z" fill="rgb(245,237,230)" transform="translate(0,0)"></path>
<path d="M 2048 1238.39 L 2048 1240.76 L 2048 1509 L 2045.41 1509 L 2037.27 1509 C 2029.75 1506.74 2021.02 1504.34 2013.77 1501.72 C 1951.26 1482.36 1888.88 1462.6 1826.63 1442.42 C 1827.58 1404.2 1826.73 1362.29 1826.71 1323.73 C 1880.54 1303.77 1934.33 1281.92 1988.21 1261.86 C 2008.16 1254.44 2028.03 1245.45 2048 1238.39 z" fill="rgb(43,16,22)" transform="translate(0,0)"></path>
<path d="M 1960.08 1275.16 C 1978.15 1268.85 1997.95 1260.84 2015.77 1253.71 C 2016.74 1324.5 2015.79 1396.43 2016.21 1467.41 C 2015.83 1476.62 2015.87 1487.9 2016.09 1497.18 L 2015.08 1499.58 C 1996.79 1493.9 1978.54 1488.12 1960.33 1482.23 L 1960.08 1275.16 z" fill="rgb(255,140,66)" transform="translate(0,0)"></path>
<path d="M 2048 1240.76 L 2048 1509 L 2045.41 1509 L 2037.27 1509 C 2029.75 1506.74 2021.02 1504.34 2013.77 1501.72 L 2015.08 1499.58 L 2016.09 1497.18 L 2017.31 1497.43 L 2017.45 1498.1 C 2017.69 1493.69 2017.82 1491.8 2018.86 1487.43 L 2018.49 1252.88 C 2028.09 1248.73 2038.28 1244.74 2048 1240.76 z" fill="rgb(255,140,66)" transform="translate(0,0)"></path>
<path d="M 2017.31 1497.43 L 2017.45 1498.1 C 2017.69 1493.69 2017.82 1491.8 2018.86 1487.43 C 2019.02 1491.97 2018.96 1496.09 2018.96 1500.61 C 2025.65 1502.6 2039.5 1506.34 2045.41 1509 L 2037.27 1509 C 2029.75 1506.74 2021.02 1504.34 2013.77 1501.72 L 2015.08 1499.58 L 2016.09 1497.18 L 2017.31 1497.43 z" fill="url(#Gradient1)" transform="translate(0,0)"></path>
<path d="M 2016.21 1467.41 C 2017.53 1472.65 2017.56 1491.16 2017.31 1497.43 L 2016.09 1497.18 C 2015.87 1487.9 2015.83 1476.62 2016.21 1467.41 z" fill="rgb(58,36,32)" transform="translate(0,0)"></path>
<path d="M 1955.49 1276.92 L 1957.24 1277.22 C 1958.27 1282.79 1957.78 1328.5 1957.79 1336.24 L 1957.83 1481.07 L 1915.24 1467.8 L 1898.98 1462.66 L 1899 1298.79 C 1917.8 1291.39 1936.72 1284.52 1955.49 1276.92 z" fill="rgb(255,140,66)" transform="translate(0,0)"></path>
<path d="M 1895.62 1299.99 C 1896.61 1303.48 1896.25 1340.78 1896.24 1346.78 L 1896.33 1461.68 L 1844.24 1445.51 L 1829.17 1440.42 L 1829.13 1325.78 C 1851.3 1317.15 1873.57 1308.98 1895.62 1299.99 z" fill="rgb(255,140,66)" transform="translate(0,0)"></path>
<path d="M 0 1166.55 C 76.3768 1182.51 159.323 1196.55 236.697 1210.87 L 553.659 1270.56 L 1300.11 1413.34 L 1606.78 1472.27 C 1647.29 1479.64 1687.74 1487.37 1728.11 1495.47 C 1744.22 1498.68 1776.14 1504.44 1791.39 1509 L 1683.44 1509 C 1674.91 1506.5 1650.48 1502.47 1640.37 1500.47 L 1540.91 1481.12 L 1205.09 1416.54 L 0 1188.01 L 0 1166.55 z" fill="rgb(255,90,31)" transform="translate(0,0)"></path>
<path d="M 2048 1203.86 L 2048 1238.39 C 2028.03 1245.45 2008.16 1254.44 1988.21 1261.86 C 1934.33 1281.92 1880.54 1303.77 1826.71 1323.73 C 1826.73 1362.29 1827.58 1404.2 1826.63 1442.42 C 1888.88 1462.6 1951.26 1482.36 2013.77 1501.72 C 2021.02 1504.34 2029.75 1506.74 2037.27 1509 L 1939.34 1509 C 1932.77 1505.43 1903.13 1495.78 1894.24 1492.61 C 1855.04 1478.63 1814.1 1466.09 1775.43 1450.81 C 1748.47 1440.15 1728.8 1425.5 1717.59 1398.25 C 1713.28 1382.72 1713.65 1368.28 1720.45 1353.5 C 1735.57 1320.6 1767.22 1310.13 1798.28 1298.33 L 1852.68 1277.68 L 2048 1203.86 z" fill="rgb(255,140,66)" transform="translate(0,0)"></path>
<path d="M 1601.08 1004.26 C 1601.92 1003.74 1602.66 1002.98 1603.61 1002.69 C 1608.44 1001.22 1931.39 1070.11 1975.95 1075.78 C 1992.76 1109.94 1957.29 1116 1933.3 1124.45 L 1887.93 1140.89 L 1709.44 1205.5 L 1508 1278.74 L 1433.71 1305.9 C 1420.94 1310.59 1406.18 1316.88 1393.15 1320.37 C 1349.32 1332.12 1304.82 1333.11 1259.89 1333.31 C 1210.32 1333.53 1168.27 1325.39 1120.07 1316.67 L 1009.37 1296.87 L 723.124 1245.04 L 208.488 1152.42 C 139.3 1139.79 68.9128 1128.87 0 1115.23 L 0 1111.56 C 28.6957 1115.96 59.7676 1122.51 88.6038 1127.63 C 159.369 1139.92 230.071 1152.58 300.709 1165.59 L 788.444 1252.94 L 1033.86 1297.44 C 1150.92 1318.24 1266.64 1346.55 1386.01 1318.49 C 1401.61 1314.83 1417.52 1307.96 1432.58 1302.31 L 1494.28 1279.65 L 1711.81 1200.71 L 1885.16 1137.74 C 1901.12 1131.93 1917.11 1126.21 1933.13 1120.59 C 1942.76 1117.19 1951.99 1113.77 1961.54 1110.08 C 1972.44 1105.88 1981.74 1095.15 1975.8 1083.03 C 1973.03 1080.81 1972.99 1080.47 1968.46 1081.88 C 1952.36 1086.88 1935.71 1093.49 1919.84 1099.33 L 1828.27 1132.7 L 1522.73 1243.66 C 1480.21 1258.95 1437.28 1275.41 1394.59 1290.07 C 1378.79 1295.5 1346.61 1299.69 1329.79 1301.77 C 1248.65 1311.82 1183.59 1298.74 1105.16 1284.31 L 996.07 1264.77 L 735.719 1217.83 L 0 1085.55 L 0 1081.9 L 130.999 1105.26 C 140.735 1106.95 175.28 1114.52 183.527 1113.32 C 236.513 1105.63 289.906 1099.26 342.844 1091.43 L 395.137 1084.11 C 404.5 1082.8 410.572 1079.68 420.18 1082.51 L 420.367 1083.32 C 413.714 1085.59 377.93 1089.98 369.545 1091.12 L 257.581 1106.55 C 244.648 1108.31 208.159 1112.6 196.72 1115.71 L 196.791 1116.54 C 206.084 1119.4 225.484 1122.33 236.15 1124.25 L 309.817 1137.41 L 398.942 1153.28 C 407.94 1154.89 442.523 1161.89 449.519 1160.9 C 468.616 1158.19 492.324 1153.65 511.698 1150.22 L 633.079 1128.96 C 642.568 1127.3 676.248 1120.49 683.979 1121.54 C 682.524 1124.88 675.558 1125.44 672.128 1125.95 C 600.678 1136.55 529.51 1152.65 458.095 1162.98 C 464.107 1165.46 518.806 1175.23 529.116 1176.82 C 572.815 1183.57 621.18 1195.16 664.354 1201.04 C 667.432 1201.48 670.552 1201.56 673.65 1201.29 C 690.193 1199.96 724.652 1189.37 738.597 1188.86 C 762.257 1187.98 886.889 1157.84 900.375 1161.23 L 900.896 1162.79 C 897.172 1166.21 702.396 1197.96 679.791 1203.89 L 850.293 1234.65 C 870.426 1238.31 930.198 1251.92 946.909 1250.24 C 960.91 1248.84 975.853 1243.65 989.518 1240.16 C 1009.2 1235.14 1127.35 1203.89 1133.23 1205.53 L 1133.32 1207.05 C 1130 1209.13 963.262 1251 957.178 1251.46 L 959.494 1254.43 C 963.793 1254.57 983.893 1258.64 989.56 1259.68 C 1010.58 1263.61 1031.63 1267.41 1052.7 1271.08 C 1099.07 1279.19 1149.22 1289.83 1195.52 1296.64 C 1252.64 1305.05 1331.31 1301.74 1386.77 1288.4 C 1403.73 1284.32 1438.07 1270.6 1455.86 1263.93 C 1399.6 1253.2 1342.45 1235.29 1286.35 1223.01 C 1283.34 1222.35 1279.54 1221.78 1278.43 1218.74 L 1280 1217.94 C 1300.98 1221.12 1343.05 1233.34 1366.37 1238.93 L 1427.33 1253.49 C 1436.37 1255.64 1453.21 1259.16 1461 1262.15 L 1610.2 1207.86 L 1493.25 1179.62 C 1476.31 1175.52 1443.96 1168.71 1428.93 1162.75 L 1428.85 1162.01 C 1440.31 1161.47 1485.97 1174.06 1500.17 1177.51 L 1616.26 1205.6 L 1814.14 1133.71 C 1787.54 1124.37 1618.23 1089.67 1609.74 1082.92 C 1614.67 1078.77 1630.38 1085.26 1636.3 1086.74 L 1689.43 1099.67 L 1820.6 1131.33 L 1910.31 1098.74 C 1927.49 1092.49 1949.48 1085.06 1965.91 1077.71 C 1942.92 1074.71 1910.83 1067.04 1887.18 1062.42 C 1833.56 1052.23 1780.01 1041.65 1726.53 1030.69 L 1642.3 1014.01 C 1634.28 1012.39 1607.01 1007.23 1601.08 1004.26 z" fill="rgb(245,237,230)" transform="translate(0,0)"></path>
<path d="M 959.494 1254.43 C 958.626 1254.22 954.908 1253.67 954.734 1252.61 C 955.063 1251.98 956.615 1251.65 957.178 1251.46 L 959.494 1254.43 z" fill="rgb(131,101,98)" transform="translate(0,0)"></path>
<path d="M 196.791 1116.54 C 195.849 1116.53 194.869 1116.68 194.182 1115.94 L 194.222 1115.78 C 194.85 1115.37 195.874 1115.63 196.72 1115.71 L 196.791 1116.54 z" fill="rgb(131,101,98)" transform="translate(0,0)"></path>
<path d="M 1834.57 1509 C 1779.92 1489.45 1706.19 1479.59 1715.52 1402.01 C 1736.31 1443.06 1772.34 1453.74 1812.83 1467.75 L 1892.46 1495.04 C 1902.77 1498.54 1923.68 1504.93 1933.05 1509 L 1834.57 1509 z" fill="rgb(255,140,66)" transform="translate(0,0)"></path>
<path d="M 2048 921.304 C 1942.29 904.911 1835.77 891.911 1730.03 875.727 C 1713.84 873.248 1607.16 860.067 1601.62 855.68 L 1602.82 854.478 C 1613.61 854.841 1638.99 859.477 1651.02 861.116 C 1690.07 866.206 1729.06 871.73 1767.99 877.686 C 1861.11 891.449 1955.03 903.31 2048 917.517 L 2048 921.304 z" fill="rgb(245,237,230)" transform="translate(0,0)"></path>
<path d="M 164.293 90.45 C 190.76 93.3451 221.979 98.8223 248.583 102.895 L 372.87 121.622 L 747.094 177.248 L 747.076 249.123 C 747.073 259.292 746.566 278.265 747.678 287.766 C 723.173 289.655 697.984 293.481 673.972 295.217 L 673.949 425.788 C 698.422 432.863 722.767 440.369 746.975 448.301 L 746.975 913.327 C 698.304 904.516 700.912 931.22 701.264 968.004 C 632.539 958.27 561.259 946.724 492.555 935.634 C 492.68 918.221 492.698 900.808 492.609 883.395 C 476.524 880.929 455.945 875.177 442.62 885.605 C 438.267 889.012 434.286 893.824 433.962 899.399 C 432.91 917.497 433.676 936.923 433.666 955.091 L 433.333 1077.25 C 422.332 1077.19 400.997 1072.67 389.136 1071.16 C 355.56 1066.89 320.521 1060.2 286.957 1056.68 C 287.047 1039.93 289.015 1017.82 289.837 1000.5 C 291.739 954.722 294.22 908.974 297.281 863.262 L 317.553 522.344 C 260.469 518.598 201.075 511.224 143.904 505.843 C 143.928 490.863 145.247 473.091 146.012 457.98 L 150.647 369.955 C 155.557 278.462 161.103 181.931 164.293 90.45 z" fill="rgb(245,237,230)" transform="translate(0,0)"></path>
<path d="M 1085.25 253.435 C 1087.37 252.978 1087.4 253.132 1089.57 253.523 C 1091.35 257.743 1090.5 372.553 1090.51 383.859 C 1072.83 386.637 1047.02 388.288 1028.83 389.936 L 927.165 399.48 L 794.716 411.904 C 757.227 415.562 718.753 419.765 681.236 422.25 C 679.227 422.903 679.26 422.74 677.144 422.338 C 675.494 418.58 676.247 311.461 676.234 297.633 C 739.114 291.375 801.951 284.681 864.738 277.552 L 1085.25 253.435 z" fill="rgb(255,90,31)" transform="translate(0,0)"></path>
<path d="M 492.871 956.586 C 555.719 967.208 618.934 976.183 681.845 986.438 C 688.351 987.498 694.991 988.679 701.52 989.524 L 701.274 1116.03 C 631.878 1105.52 562.239 1096.57 492.887 1085.4 C 491.195 1046.49 492.745 996.1 492.871 956.586 z" fill="rgb(245,237,230)" transform="translate(0,0)"></path>
<path d="M 1094.66 148.504 L 1095.71 148.403 L 1096.86 149.573 C 1097.3 159.671 1097.59 249.184 1096.03 251.537 C 1094.54 250.828 1091.82 249.743 1090.17 250.021 C 1074.04 252.74 1057.03 254.279 1040.73 255.971 L 859.243 275.371 C 857.138 275.79 857.916 275.697 855.695 275.278 C 853.916 270.431 855.011 190.846 855.018 180.275 L 992.022 162.252 C 1025.92 157.655 1060.75 152.347 1094.66 148.504 z" fill="rgb(245,237,230)" transform="translate(0,0)"></path>
<path d="M 1090.52 386.523 C 1093.25 386.404 1148.28 406.062 1156.8 408.324 C 1144.92 410.54 1124.9 411.771 1112.6 412.856 L 1034.63 419.75 C 939.47 427.934 844.368 436.759 749.328 446.224 C 744.079 445.119 731.413 440.719 725.747 438.908 C 711.109 434.365 696.545 429.591 682.059 424.586 C 732.606 421.959 791.946 414.689 842.908 409.876 L 1090.52 386.523 z" fill="rgb(255,90,31)" transform="translate(0,0)"></path>
<path d="M 1093.03 254.27 C 1116.59 263.064 1140.55 270.428 1164.4 278.464 C 1166.2 316.776 1164.64 368.191 1164.55 407.1 C 1154.68 406.056 1105.6 388.32 1092.94 384.016 L 1093.03 254.27 z" fill="rgb(255,90,31)" transform="translate(0,0)"></path>
<path d="M 704.377 934.898 L 736.951 939.523 L 737.03 1072.89 C 737.044 1094.08 736.279 1121.37 737.217 1141.84 C 725.794 1139.31 715.635 1137.66 704.052 1135.85 L 704.296 1118.01 C 704.6 1058.02 703.175 994.365 704.377 934.898 z" fill="rgb(245,237,230)" transform="translate(0,0)"></path>
<path d="M 436.855 903.273 C 447.198 904.272 457.533 905.356 467.858 906.527 C 467.829 923.839 469.34 1099.34 467.182 1105.75 L 466.317 1105.89 C 459.542 1103.73 442.656 1101.51 435.342 1100.77 C 436.637 1095.81 436.357 1084.58 436.41 1079.01 L 436.855 903.273 z" fill="rgb(245,237,230)" transform="translate(0,0)"></path>
<path d="M 837.714 825.675 L 856.027 826.006 L 856.085 1141.98 C 850.276 1140.28 843.755 1139.49 837.73 1138.59 L 837.714 825.675 z" fill="rgb(245,237,230)" transform="translate(0,0)"></path>
<path d="M 1093.65 129.525 C 1095.26 129.016 1094.41 129.145 1096.34 129.762 C 1097.5 134.132 1097.01 140.889 1096.91 145.625 C 1016.34 154.74 934.282 168.313 853.596 177.804 L 844.759 173.016 C 839.941 170.573 836.499 169.388 831.389 167.581 C 917.863 155.75 1007.86 139.875 1093.65 129.525 z" fill="rgb(255,90,31)" transform="translate(0,0)"></path>
<path d="M 740.079 1141.36 L 739.832 995.456 C 739.811 977.103 739.16 955.066 740.519 936.898 C 741.069 929.531 750.94 922.116 757.009 918.128 C 757.161 986.003 758.096 1054.13 757.602 1121.96 C 757.53 1125.63 757.322 1130.03 757.55 1133.63 C 751.975 1136.17 745.742 1139.19 740.079 1141.36 z" fill="rgb(245,237,230)" transform="translate(0,0)"></path>
<path d="M 471.131 1105.05 C 469.375 1070.74 470.626 1021.52 470.689 986.223 L 470.869 938.325 C 470.849 926.945 468.712 906.736 475.009 896.858 C 477.603 892.79 483.816 884.625 488.945 888.375 C 490.825 893.004 489.748 927.805 489.685 935.125 C 483.49 934.061 479.781 931.972 476.039 937.362 C 476.788 938.306 477.683 940.089 478.541 940.421 C 479.207 939.818 478.913 940.293 479.986 939.062 C 479.972 940.612 479.868 941.905 479.743 943.437 C 477.32 943.547 477.523 948.244 477.065 950.532 C 477.935 955.713 479.178 955.051 484.5 955.668 C 486.276 955.888 488.054 956.098 489.832 956.298 L 489.652 1054.82 C 489.642 1060.83 489.284 1094.32 490.34 1097.74 C 483.635 1099.29 477.173 1101.75 471.131 1105.05 z" fill="rgb(245,237,230)" transform="translate(0,0)"></path>
<path d="M 476.039 937.362 C 476.788 938.306 477.683 940.089 478.541 940.421 C 479.207 939.818 478.913 940.293 479.986 939.062 C 479.972 940.612 479.868 941.905 479.743 943.437 C 477.32 943.547 477.523 948.244 477.065 950.532 C 476.883 944.212 477.551 943.294 476.039 937.362 z" fill="rgb(164,133,126)" transform="translate(0,0)"></path>
<path d="M 479.986 939.062 C 490.102 934.976 672.714 968.026 701.486 971.39 L 701.439 986.69 C 679.559 983.119 482.718 953.476 480.744 950.503 C 479.57 948.735 479.803 945.499 479.743 943.437 C 479.868 941.905 479.972 940.612 479.986 939.062 z" fill="rgb(245,237,230)" transform="translate(0,0)"></path>
<path d="M 830.223 169.222 C 835.526 171.293 846.449 176.964 851.971 179.642 L 852.372 244.834 C 852.398 250.856 852.782 271.612 851.728 276.56 C 844.563 277.275 837.41 278.113 830.273 279.073 C 830.702 242.71 830.295 205.622 830.223 169.222 z" fill="rgb(255,90,31)" transform="translate(0,0)"></path>
<path d="M 723.08 915.114 C 733.896 914.492 741.636 915.503 752.187 917.405 C 737.433 928.712 742.31 930.5 736.813 936.225 C 733.396 935.71 705.955 933.193 705.934 931.041 C 705.858 923.334 716.899 917.754 723.08 915.114 z" fill="rgb(245,237,230)" transform="translate(0,0)"></path>
<path d="M 458.702 882.059 C 465.699 882.055 477.002 883.878 484.239 884.881 C 475.49 891.307 472.453 893.075 468.689 903.365 C 468.447 904.025 465.504 903.557 464.778 903.484 L 441.46 900.262 C 437.798 899.757 435.427 899.492 438.18 894.981 C 442.758 887.476 450.532 884.156 458.702 882.059 z" fill="rgb(245,237,230)" transform="translate(0,0)"></path>
<metadata><recraft-signature>{"signed_by": "recraft", "signature_b64": "0ioI6Cal+5bmy/LLnE0nshjWvPwdqbQ5lpqmV7vUqjKJLcKsYGhXCLWUZixPwwzUaB2sLMhKfcZ8iU5UbVrjCw==", "signing_algo": "Ed25519", "generation_timestamp": 1783313407, "identifier": "41609d24-ff3d-4aa4-b427-c20cd9af3274"}</recraft-signature></metadata></svg>