<svg xmlns="http://www.w3.org/2000/svg" height="896" preserveAspectRatio="none" style="display: block;" version="1.1" viewBox="0 0 2048 1509" width="1216">
<path d="M 0 0 L 2048 0 L 2048 1509 L 0 1509 L 0 0 z" fill="rgb(58,36,32)" transform="translate(0,0)"></path>
<path d="M 879.398 245.756 L 880.485 245.101 C 880.754 248.241 881.036 256.115 881.715 258.564 L 881.833 244.921 L 1329.52 244.89 C 1405.77 244.882 1483.69 243.98 1559.77 244.939 L 1559.64 1201.99 C 1549.93 1201.96 1501.84 1201.38 1495.78 1202.75 L 1493.56 1203.76 L 1493.69 1164.55 C 1487.39 1163.62 1463.1 1166.01 1458.99 1163.18 L 1458.98 1110.16 C 1446.64 1110.23 1434.3 1110.18 1421.96 1110.01 C 1419.02 1110.39 1417.09 1110.35 1414.18 1110.33 C 1414.23 1109.27 1414.28 1108.21 1414.35 1107.15 L 1414.31 798.139 C 1414.29 730.995 1413.54 662.751 1414.26 595.701 C 1325.67 596.016 1235.97 594.891 1147.64 595.821 L 1148 935.566 L 1147.95 1049.91 C 1147.93 1068.12 1148.57 1091.21 1147.69 1108.81 C 1141.91 1109.81 1084.05 1109.61 1078.44 1108.54 C 1079.28 1113.63 1079.57 1157.67 1078.56 1162.94 L 1042.42 1162.94 C 1041.66 1169.56 1041.44 1196.34 1042.78 1202.62 C 1002.35 1202.36 961.919 1202.3 921.488 1202.45 C 863.845 1202.2 806.202 1202.26 748.559 1202.63 L 746.814 1202.56 C 726.331 1203.59 698.211 1202.78 677.256 1202.8 L 541.009 1202.77 C 541.091 1046.25 540.551 717.644 540.78 544.277 C 541.37 543.508 541.959 542.739 542.549 541.969 L 540.242 541.1 C 531.717 543.539 523.301 547.217 515.069 550.574 L 514.987 505.421 C 525.763 500.828 545.805 494.36 557.453 490.153 L 652.422 456.108 L 711.723 434.986 C 720.373 431.875 738.872 424.718 746.794 423.02 L 748.918 422.076 C 749.905 363.973 749.139 303.381 749.123 245.047 C 765.988 245.019 871.531 243.24 879.398 245.756 z" fill="rgb(255,90,31)" transform="translate(0,0)"></path>
<path d="M 746.794 423.02 L 748.918 422.076 L 749.009 976.729 L 748.983 1131.45 C 748.988 1144.81 750.016 1191.42 748.559 1202.63 L 746.814 1202.56 C 726.331 1203.59 698.211 1202.78 677.256 1202.8 L 541.009 1202.77 C 541.091 1046.25 540.551 717.644 540.78 544.277 C 541.37 543.508 541.959 542.739 542.549 541.969 L 540.242 541.1 C 531.717 543.539 523.301 547.217 515.069 550.574 L 514.987 505.421 C 525.763 500.828 545.805 494.36 557.453 490.153 L 652.422 456.108 L 711.723 434.986 C 720.373 431.875 738.872 424.718 746.794 423.02 z" fill="rgb(255,140,66)" transform="translate(0,0)"></path>
<path d="M 514.987 505.421 C 525.763 500.828 545.805 494.36 557.453 490.153 L 652.422 456.108 L 711.723 434.986 C 720.373 431.875 738.872 424.718 746.794 423.02 C 745.719 436.566 746.251 454.89 746.346 468.803 C 678.135 490.568 608.228 517.694 540.242 541.1 C 531.717 543.539 523.301 547.217 515.069 550.574 L 514.987 505.421 z" fill="rgb(255,140,66)" transform="translate(0,0)"></path>
<path d="M 746.794 423.02 L 748.918 422.076 L 749.009 976.729 L 748.983 1131.45 C 748.988 1144.81 750.016 1191.42 748.559 1202.63 L 746.814 1202.56 L 746.667 471.178 C 734.432 473.822 702.132 486.158 688.729 490.907 L 590.982 525.199 C 579.49 529.345 553.201 539.708 542.549 541.969 L 540.242 541.1 C 608.228 517.694 678.135 490.568 746.346 468.803 C 746.251 454.89 745.719 436.566 746.794 423.02 z" fill="rgb(43,16,22)" transform="translate(0,0)"></path>
<path d="M 582.569 662.115 C 628.606 661.555 675.354 661.942 721.444 661.924 C 722.078 727.255 721.599 794.248 721.286 859.649 L 582.193 859.408 L 582.116 731.706 C 582.142 709.828 581.531 683.511 582.569 662.115 z" fill="rgb(58,36,32)" transform="translate(0,0)"></path>
<path d="M 584.935 664.376 L 719.173 664.287 C 718.125 727.908 718.996 793.661 718.878 857.49 L 584.605 857.508 L 584.935 664.376 z" fill="rgb(255,140,66)" transform="translate(0,0)"></path>
<path d="M 654.732 831.512 C 660.919 830.531 693.014 829.538 697.757 832.495 C 691.677 833.388 659.973 834.093 654.732 831.512 z" fill="rgb(58,36,32)" transform="translate(0,0)"></path>
<path d="M 669.231 684.369 C 669.631 684.557 671.394 685.342 671.413 685.522 C 672.04 691.231 671.717 707.81 671.475 712.617 C 671.147 712.6 669.874 712.7 669.448 712.317 C 668.599 709.869 669.092 688.229 669.231 684.369 z" fill="rgb(58,36,32)" transform="translate(0,0)"></path>
<path d="M 646.98 683.503 C 649.689 688.464 649.155 708.171 648.008 713.404 C 644.608 710.366 645.932 688.239 646.98 683.503 z" fill="rgb(58,36,32)" transform="translate(0,0)"></path>
<path d="M 623.923 683.586 C 627.383 686.761 626.174 708.483 625.245 713.491 C 621.912 709.853 623.222 689.089 623.923 683.586 z" fill="rgb(58,36,32)" transform="translate(0,0)"></path>
<path d="M 692.775 684.506 C 696.625 687.445 695.044 708.538 694.528 713.559 C 691.317 707.263 691.922 691.414 692.775 684.506 z" fill="rgb(58,36,32)" transform="translate(0,0)"></path>
<path d="M 557.223 1031.27 L 627.088 1031.04 C 626.774 1068.56 627.824 1107.08 626.952 1144.39 C 603.937 1144.74 580.064 1144.34 556.987 1144.24 L 557.223 1031.27 z" fill="rgb(58,36,32)" transform="translate(0,0)"></path>
<path d="M 559.382 1033.84 C 577.635 1032.76 605.391 1033.66 624.791 1033.5 C 624.509 1069.64 624.455 1105.78 624.63 1141.92 L 559.684 1141.94 C 559.867 1105.91 559.767 1069.88 559.382 1033.84 z" fill="rgb(245,237,230)" transform="translate(0,0)"></path>
<path d="M 556.91 890.552 C 580.186 890.849 603.466 890.826 626.742 890.486 C 628.203 920.836 626.258 952.491 627.022 982.966 C 627.174 989.034 627.188 995.974 626.829 1002.02 L 625.936 1003.21 C 613.652 1004.68 571.985 1003.56 556.977 1003.99 L 556.91 890.552 z" fill="rgb(58,36,32)" transform="translate(0,0)"></path>
<path d="M 565.235 892.491 C 585.067 892.624 604.899 892.57 624.73 892.329 C 624.386 906.316 625.533 998.052 623.523 1000.93 L 620.25 1001.12 L 559.428 1001.3 C 560.011 966.19 558.408 928.55 559.46 894.106 C 561.143 892.196 561.739 892.821 565.235 892.491 z" fill="rgb(245,237,230)" transform="translate(0,0)"></path>
<path d="M 582.898 550.447 C 594.656 546.15 607.672 552.196 611.974 563.952 C 616.276 575.709 610.236 588.727 598.482 593.035 C 586.72 597.345 573.691 591.301 569.386 579.536 C 565.081 567.772 571.132 554.746 582.898 550.447 z" fill="rgb(58,36,32)" transform="translate(0,0)"></path>
<path d="M 587.997 605.243 C 600.234 603.687 611.41 612.359 612.942 624.599 C 614.475 636.838 605.783 647.998 593.54 649.508 C 581.33 651.014 570.206 642.349 568.677 630.142 C 567.148 617.934 575.792 606.794 587.997 605.243 z" fill="rgb(58,36,32)" transform="translate(0,0)"></path>
<path d="M 879.398 245.756 L 880.485 245.101 C 880.754 248.241 881.036 256.115 881.715 258.564 C 882.546 281.104 881.369 306.905 881.694 329.767 C 881.88 342.904 882.178 373.976 880.302 386.062 L 879.662 385.572 C 878.786 374.723 878.893 363.213 879.007 352.276 C 879.376 316.867 878.342 281.131 879.398 245.756 z" fill="rgb(43,16,22)" transform="translate(0,0)"></path>
<path d="M 1421.96 1110.01 C 1432.6 1108.11 1448.38 1110.03 1461.04 1108.22 L 1461 1163.04 C 1472.67 1162.73 1484.35 1162.69 1496.02 1162.9 C 1495.99 1175.85 1496.23 1189.89 1495.78 1202.75 L 1493.56 1203.76 L 1493.69 1164.55 C 1487.39 1163.62 1463.1 1166.01 1458.99 1163.18 L 1458.98 1110.16 C 1446.64 1110.23 1434.3 1110.18 1421.96 1110.01 z" fill="rgb(43,16,22)" transform="translate(0,0)"></path>
<path d="M 1078.44 1108.54 C 1084.96 1107.46 1142.39 1107.79 1147.69 1108.81 C 1141.91 1109.81 1084.05 1109.61 1078.44 1108.54 z" fill="rgb(126,58,37)" transform="translate(0,0)"></path>
<path d="M 1414.35 1107.15 C 1416.99 1109.27 1454.1 1107.3 1461.04 1108.22 C 1448.38 1110.03 1432.6 1108.11 1421.96 1110.01 C 1419.02 1110.39 1417.09 1110.35 1414.18 1110.33 C 1414.23 1109.27 1414.28 1108.21 1414.35 1107.15 z" fill="rgb(126,58,37)" transform="translate(0,0)"></path>
<path d="M 1078.56 1162.94 C 1077.78 1156.42 1077.64 1113.36 1078.44 1108.54 C 1079.28 1113.63 1079.57 1157.67 1078.56 1162.94 z" fill="rgb(126,58,37)" transform="translate(0,0)"></path>
<path d="M 810.854 596.82 C 867.013 596.124 923.429 597.307 979.608 596.788 C 994.011 596.655 1009.03 596.542 1023.4 597.07 L 1097.05 596.845 C 1097.07 679.369 1096.17 763.678 1097.18 846.026 C 1057.5 845.979 1013.71 846.899 974.401 845.834 C 922.781 847.474 863.681 846.032 811.479 846.005 C 810.726 822.028 811.248 793.8 811.139 769.543 L 810.854 596.82 z" fill="rgb(245,237,230)" transform="translate(0,0)"></path>
<path d="M 810.854 596.82 C 867.013 596.124 923.429 597.307 979.608 596.788 C 994.011 596.655 1009.03 596.542 1023.4 597.07 L 1023.1 598.229 C 954.254 598.348 881.413 597.09 812.983 598.506 L 813.063 844.027 L 1018.09 844.044 L 1067.81 844.004 C 1073.46 843.996 1090.41 843.711 1095.09 844.705 C 1080.36 847.69 977.487 843.476 974.401 845.834 C 922.781 847.474 863.681 846.032 811.479 846.005 C 810.726 822.028 811.248 793.8 811.139 769.543 L 810.854 596.82 z" fill="rgb(58,36,32)" transform="translate(0,0)"></path>
<path d="M 1023.4 597.07 L 1097.05 596.845 C 1097.07 679.369 1096.17 763.678 1097.18 846.026 C 1057.5 845.979 1013.71 846.899 974.401 845.834 C 977.487 843.476 1080.36 847.69 1095.09 844.705 L 1095.05 598.211 L 1023.1 598.229 L 1023.4 597.07 z" fill="rgb(43,16,22)" transform="translate(0,0)"></path>
<path d="M 833.271 618.273 L 1074.77 618.287 L 1074.62 715.098 C 994.703 716.066 913.042 715.225 833.041 715.172 C 832.925 682.873 833.001 650.572 833.271 618.273 z" fill="rgb(58,36,32)" transform="translate(0,0)"></path>
<path d="M 835.122 620.259 L 1072.24 620.253 C 1071.44 650.78 1072.36 682.168 1071.85 712.9 L 835.1 713.014 L 835.122 620.259 z" fill="rgb(255,140,66)" transform="translate(0,0)"></path>
<path d="M 833.229 733.181 C 911.863 731.526 995.977 733.035 1074.89 733.142 C 1074.64 763.292 1075.12 793.496 1074.66 823.665 C 1050.11 822.831 1021.41 823.427 996.506 823.355 L 833.087 823.293 L 833.229 733.181 z" fill="rgb(43,16,22)" transform="translate(0,0)"></path>
<path d="M 835.004 735.238 L 1072.87 735.096 C 1071.66 762.239 1072.53 794.347 1072.57 821.938 C 1066.22 822.44 1053.6 822.054 1046.89 822.053 L 995.22 822.054 L 835.008 822.265 L 835.004 735.238 z" fill="rgb(255,140,66)" transform="translate(0,0)"></path>
<path d="M 1102.28 435.447 C 1109.46 434.345 1143.93 435.039 1152.57 435.061 L 1260.74 435.104 L 1395.97 435.057 C 1403.75 435.057 1446.5 434.652 1451.25 435.565 C 1462.53 451.964 1474.02 468.22 1485.71 484.328 C 1493.04 494.625 1501.05 506.849 1508.97 516.448 C 1507.17 547.166 1490.04 570.719 1456.74 568.066 C 1444.26 567.109 1432.69 561.128 1424.7 551.492 C 1419.43 545.173 1417.64 540.677 1414.82 533.035 C 1410.68 546.291 1404.2 556.505 1391.57 563.254 C 1380.18 569.25 1366.86 570.453 1354.58 566.598 C 1336.48 560.845 1329.71 549.732 1323.14 533.193 C 1317.81 547.628 1312.08 557.262 1297.32 564.063 C 1285.61 569.395 1272.27 569.886 1260.2 565.429 C 1244.56 559.606 1235.99 548.248 1231.04 532.786 C 1226.79 546.537 1219.92 556.184 1206.9 563.094 C 1195.61 569.054 1182.4 570.225 1170.24 566.342 C 1162.35 563.758 1155.24 559.252 1149.53 553.232 C 1148.91 552.673 1149.06 552.823 1148.61 552.17 C 1142.88 545.192 1141.44 541.327 1138.76 532.703 C 1135.56 540.93 1133.64 546.021 1127.74 552.812 C 1119.57 562.31 1107.85 568.02 1095.34 568.595 C 1082.51 569.27 1069.94 564.758 1060.47 556.076 C 1048.38 544.868 1045.84 532.289 1045.14 516.691 C 1050.2 510.933 1059.79 496.638 1064.48 489.986 C 1077.23 471.914 1089.83 453.734 1102.28 435.447 z" fill="rgb(43,16,22)" transform="translate(0,0)"></path>
<path d="M 1102.28 435.447 C 1109.46 434.345 1143.93 435.039 1152.57 435.061 L 1260.74 435.104 L 1395.97 435.057 C 1403.75 435.057 1446.5 434.652 1451.25 435.565 C 1445.2 436.957 1414.61 436.377 1406.1 436.363 L 1305.16 436.206 L 1169.73 436.257 C 1155.21 436.263 1115.11 437.153 1102.28 435.447 z" fill="rgb(126,58,37)" transform="translate(0,0)"></path>
<path d="M 1103.57 437.567 L 1449.57 437.464 L 1504.5 514.955 L 1505.33 517.997 C 1512.66 553.649 1464.38 580.126 1435.83 558.819 C 1420.11 547.089 1417.8 536.11 1415.48 517.926 L 1415.09 517.376 L 1414.4 517.973 C 1413.14 533.76 1410.47 545.411 1398.03 556.208 C 1380.12 571.739 1350.28 569.807 1335.13 551.369 C 1327.3 541.838 1325.33 532.419 1323.59 520.68 C 1321.89 524.634 1321.8 526.702 1321.27 530.873 C 1318.96 538.444 1316.95 543.817 1311.87 550.071 C 1304.28 559.41 1293.23 565.27 1281.25 566.307 C 1269.32 567.389 1257.16 563.924 1248.14 556.027 C 1235.27 544.756 1233.19 533.979 1231.75 518.026 L 1231.33 516.083 L 1230.39 515.992 L 1229.91 518.175 C 1230.07 531.067 1227.13 542.125 1218.22 551.877 C 1210.02 560.767 1198.58 565.986 1186.49 566.36 C 1174.33 566.898 1162.47 562.507 1153.59 554.18 C 1142.79 543.89 1140.18 532.366 1139.84 518.094 L 1138.9 515.89 L 1136.72 515.52 L 1136.99 517.933 C 1141.43 578.052 1050.48 585.939 1047.95 520.303 C 1047.92 519.556 1047.9 518.809 1047.88 518.062 L 1050.04 516.081 L 1049.71 514.583 C 1068.07 489.2 1086.03 463.525 1103.57 437.567 z" fill="rgb(255,140,66)" transform="translate(0,0)"></path>
<path d="M 1050.04 516.081 C 1077.85 514.043 1109.13 516.726 1136.72 515.52 L 1136.99 517.933 C 1141.43 578.052 1050.48 585.939 1047.95 520.303 C 1047.92 519.556 1047.9 518.809 1047.88 518.062 L 1050.04 516.081 z" fill="rgb(255,140,66)" transform="translate(0,0)"></path>
<path d="M 1050.04 516.081 C 1077.85 514.043 1109.13 516.726 1136.72 515.52 L 1136.99 517.933 L 1047.88 518.062 L 1050.04 516.081 z" fill="rgb(58,36,32)" transform="translate(0,0)"></path>
<path d="M 1323.59 520.68 L 1324.67 518.604 C 1330.45 517.497 1348.71 517.996 1356.02 518.013 L 1414.4 517.973 C 1413.14 533.76 1410.47 545.411 1398.03 556.208 C 1380.12 571.739 1350.28 569.807 1335.13 551.369 C 1327.3 541.838 1325.33 532.419 1323.59 520.68 z" fill="rgb(255,140,66)" transform="translate(0,0)"></path>
<path d="M 1139.84 518.094 L 1198.78 517.962 C 1207.07 517.947 1221.87 517.524 1229.91 518.175 C 1230.07 531.067 1227.13 542.125 1218.22 551.877 C 1210.02 560.767 1198.58 565.986 1186.49 566.36 C 1174.33 566.898 1162.47 562.507 1153.59 554.18 C 1142.79 543.89 1140.18 532.366 1139.84 518.094 z" fill="rgb(255,140,66)" transform="translate(0,0)"></path>
<path d="M 1231.75 518.026 L 1321.18 517.966 L 1321.27 530.873 C 1318.96 538.444 1316.95 543.817 1311.87 550.071 C 1304.28 559.41 1293.23 565.27 1281.25 566.307 C 1269.32 567.389 1257.16 563.924 1248.14 556.027 C 1235.27 544.756 1233.19 533.979 1231.75 518.026 z" fill="rgb(255,140,66)" transform="translate(0,0)"></path>
<path d="M 1415.48 517.926 L 1505.33 517.997 C 1512.66 553.649 1464.38 580.126 1435.83 558.819 C 1420.11 547.089 1417.8 536.11 1415.48 517.926 z" fill="rgb(255,140,66)" transform="translate(0,0)"></path>
<path d="M 1504.5 514.955 L 1505.33 517.997 L 1415.48 517.926 L 1415.09 517.376 L 1414.4 517.973 L 1356.02 518.013 C 1348.71 517.996 1330.45 517.497 1324.67 518.604 L 1323.59 520.68 C 1321.89 524.634 1321.8 526.702 1321.27 530.873 L 1321.18 517.966 L 1231.75 518.026 L 1231.33 516.083 C 1252.88 514.902 1282.98 515.775 1305.27 515.794 L 1441.06 515.77 C 1450.15 515.762 1499.25 516.222 1504.5 514.955 z" fill="rgb(58,36,32)" transform="translate(0,0)"></path>
<path d="M 1138.9 515.89 C 1164.56 515.658 1205.7 514.518 1230.39 515.992 L 1229.91 518.175 C 1221.87 517.524 1207.07 517.947 1198.78 517.962 L 1139.84 518.094 L 1138.9 515.89 z" fill="rgb(58,36,32)" transform="translate(0,0)"></path>
<path d="M 1525.2 779.408 L 1527.21 780.743 C 1529.04 787.385 1528.02 838.257 1527.93 848.131 C 1527.07 952.858 1529.51 1058.08 1527.87 1162.73 L 1526.4 1162.12 C 1524.29 1159.46 1525.06 1151.45 1525.06 1147.6 C 1525.04 1125.42 1525.06 1103.24 1525.06 1081.06 L 1525.02 889.498 C 1525 853.306 1524.42 815.505 1525.2 779.408 z" fill="rgb(245,237,230)" transform="translate(0,0)"></path>
<path d="M 1149.72 597.595 C 1235.83 598.138 1326.05 598.827 1412.03 597.421 L 1412.36 938.803 L 1412.25 1050.69 C 1412.21 1068.43 1412.89 1091.57 1411.91 1108.61 L 1414.18 1110.33 C 1408.54 1111.05 1390.83 1110.82 1384.24 1110.82 L 1329.15 1110.8 L 1148.91 1110.32 C 1148.32 1104.87 1147.92 1075.09 1149.59 1072.25 L 1149.72 597.595 z" fill="rgb(126,58,37)" transform="translate(0,0)"></path>
<path d="M 1149.72 597.595 C 1235.83 598.138 1326.05 598.827 1412.03 597.421 L 1412.36 938.803 L 1412.25 1050.69 C 1412.21 1068.43 1412.89 1091.57 1411.91 1108.61 C 1406.7 1107.52 1395.41 1107.93 1389.66 1107.96 L 1389.87 619.851 L 1172.13 619.995 C 1171.77 671.446 1171.74 722.899 1172.03 774.35 L 1171.81 1107.88 L 1149.53 1107.95 C 1149.68 1096.05 1149.7 1084.15 1149.59 1072.25 L 1149.72 597.595 z" fill="rgb(245,237,230)" transform="translate(0,0)"></path>
<path d="M 1174.71 622.234 L 1387.07 622.322 L 1387.06 1107.88 L 1174.23 1107.91 L 1174.71 622.234 z" fill="rgb(245,237,230)" transform="translate(0,0)"></path>
<path d="M 1191.99 850.068 C 1200.73 847.21 1210.14 851.956 1213.04 860.687 C 1215.94 869.417 1211.24 878.851 1202.53 881.796 C 1193.75 884.76 1184.24 880.021 1181.31 871.229 C 1178.39 862.437 1183.18 852.946 1191.99 850.068 z" fill="rgb(126,58,37)" transform="translate(0,0)"></path>
<path d="M 1194.68 852.069 C 1202.31 850.633 1209.69 855.564 1211.28 863.164 C 1212.86 870.764 1208.08 878.238 1200.52 879.98 C 1195.48 881.138 1190.22 879.486 1186.75 875.661 C 1183.28 871.836 1182.16 866.435 1183.8 861.541 C 1185.44 856.647 1189.61 853.024 1194.68 852.069 z" fill="rgb(245,237,230)" transform="translate(0,0)"></path>
<path d="M 1421.96 1110.01 C 1434.3 1110.18 1446.64 1110.23 1458.98 1110.16 L 1458.99 1163.18 C 1463.1 1166.01 1487.39 1163.62 1493.69 1164.55 L 1493.56 1203.76 C 1490.99 1205.92 1350.72 1204.89 1336.19 1204.88 L 1044.61 1204.83 L 1044.43 1164.92 L 1078.42 1165 L 1081.09 1163.73 L 1080.61 1162.92 C 1079.6 1151.12 1080.39 1123.24 1080.38 1110.27 C 1103.22 1110.11 1126.07 1110.13 1148.91 1110.32 L 1329.15 1110.8 L 1384.24 1110.82 C 1390.83 1110.82 1408.54 1111.05 1414.18 1110.33 C 1417.09 1110.35 1419.02 1110.39 1421.96 1110.01 z" fill="rgb(245,237,230)" transform="translate(0,0)"></path>
<path d="M 1080.61 1162.92 C 1091.83 1161.58 1114.19 1162.22 1126.21 1162.24 L 1209.1 1162.37 L 1391.82 1162.5 C 1400.57 1162.5 1453.51 1161.48 1458.99 1163.18 C 1463.1 1166.01 1487.39 1163.62 1493.69 1164.55 L 1493.56 1203.76 C 1490.99 1205.92 1350.72 1204.89 1336.19 1204.88 L 1044.61 1204.83 L 1044.43 1164.92 L 1078.42 1165 L 1081.09 1163.73 L 1080.61 1162.92 z" fill="rgb(245,237,230)" transform="translate(0,0)"></path>
<path d="M 1080.61 1162.92 C 1091.83 1161.58 1114.19 1162.22 1126.21 1162.24 L 1209.1 1162.37 L 1391.82 1162.5 C 1400.57 1162.5 1453.51 1161.48 1458.99 1163.18 C 1463.1 1166.01 1487.39 1163.62 1493.69 1164.55 C 1486.46 1165.61 1461.49 1165.15 1452.62 1165.15 L 1368.25 1165.15 L 1078.42 1165 L 1081.09 1163.73 L 1080.61 1162.92 z" fill="rgb(126,58,37)" transform="translate(0,0)"></path>
<path d="M 339.901 1225.39 L 1409.02 1225.02 L 1644.51 1225.37 C 1660.37 1225.46 1676.08 1225.63 1691.94 1225.12 C 1699.03 1224.9 1710.71 1224.19 1714.43 1231.43 C 1714.83 1234.97 1714.73 1235.38 1713.19 1238.6 C 1710.67 1241 1710.35 1240.9 1706.75 1241.49 L 815.825 1241.56 L 491.387 1241.37 L 388.401 1241.09 C 377.088 1241.06 341.672 1244.09 334.213 1237.13 C 332.213 1231.01 334.36 1228.23 339.901 1225.39 z" fill="rgb(245,237,230)" transform="translate(0,0)"></path>
<path d="M 337.02 1253.02 C 349.879 1252.39 366.713 1252.88 379.78 1252.89 L 459.364 1252.98 L 700.677 1252.95 L 1468.86 1252.99 L 1640.15 1253.17 C 1660.64 1253.31 1681.39 1252.6 1701.89 1252.95 C 1705.11 1253 1711.51 1254.41 1713.62 1256.82 C 1717.47 1261.21 1714.37 1265.54 1711.43 1269.12 C 1696.67 1270.03 1672.79 1269.34 1657.33 1269.35 L 1551.05 1269.35 L 1227.81 1269.26 L 350.3 1269.69 C 338.774 1269.59 325.969 1266.1 337.02 1253.02 z" fill="rgb(245,237,230)" transform="translate(0,0)"></path>
<path d="M 384.235 522.497 C 401.695 522.495 504.16 520.517 513.296 523.814 L 512.875 524.92 C 506.646 527.979 401.116 526.083 384.012 526.094 L 384.031 572.481 C 419.212 572.814 454.395 572.855 489.576 572.602 C 496.649 572.558 533.289 571.72 537.059 572.744 L 537.77 574.277 C 534.4 577.625 509.817 576.026 503.701 576.074 L 421.008 576.328 L 420.957 960.5 L 421.05 1120.9 L 421.121 1170.52 C 421.141 1176.8 421.761 1185.43 421.407 1191.36 C 421.21 1195.2 420.409 1198.99 419.034 1202.58 C 416.628 1200.11 417.751 1000.93 417.756 983.871 L 417.086 576.227 L 380.187 576.485 C 380.106 568.458 378.884 528.159 381.225 523.083 L 384.235 522.497 z" fill="rgb(253,209,172)" transform="translate(0,0)"></path>
<metadata><recraft-signature>{"signed_by": "recraft", "signature_b64": "OK2/cjPQYVX9ntQa4/PvCxFU+m1Y7bYJ7MZrE2JUyRnH0Wp3S8sqJNfyKWD2iNyjHl2ZKcP6RzE9ekoZ3doGBg==", "signing_algo": "Ed25519", "generation_timestamp": 1783313450, "identifier": "114ffe15-eba5-4b48-b840-4759f99e7418"}</recraft-signature></metadata></svg>