<svg xmlns="http://www.w3.org/2000/svg" height="1024" preserveAspectRatio="none" style="display: block;" version="1.1" viewBox="0 0 2048 2048" width="1024">
<path d="M 0 0 L 2048 0 L 2048 2048 L 1880.43 2048 L 1360.47 2048 L 1356.38 2048 L 1134.09 2048 L 1130.71 2048 L 1024.05 2048 L 1021.71 2048 L 919.199 2048 L 913.857 2048 L 694.146 2048 L 691.367 2048 L 167.18 2048 L 0 2048 L 0 0 z" fill="rgb(43,30,46)" transform="translate(0,0)"></path>
<path d="M 404.046 1158.19 C 411.895 1151.92 418.92 1147.06 428.041 1142.66 C 437.755 1168.42 448.474 1194.64 456.751 1221.81 C 491.461 1335.75 514.352 1454.66 533.038 1572.19 C 535.553 1588 533.873 1617.44 533.857 1633.75 C 533.806 1665.61 533.936 1697.47 534.245 1729.33 C 514.992 1745.29 494.874 1759.66 475.821 1775.21 C 456.653 1789.17 437.013 1805.39 418.047 1820.03 L 320.073 1895.15 C 303.761 1907.77 287.308 1920.22 271.119 1932.97 C 265.561 1937.35 260.343 1940.36 255.691 1945.71 C 260.523 1945.84 450.446 1797.01 476.009 1777.85 C 495.885 1762.58 515.636 1747.14 535.262 1731.54 C 544.345 1741.46 553.481 1751.33 562.669 1761.15 C 563.408 1762.37 563.27 1762.37 564.362 1763.06 C 577.599 1777.8 595.154 1798.49 608.665 1812.14 C 609.41 1813.38 609.261 1813.38 610.389 1814.01 L 645.656 1853.16 C 646.403 1854.36 646.286 1854.36 647.326 1855.13 C 674.409 1886.17 709.689 1926.19 738.22 1955.92 C 741.77 1960 758.401 1977.72 760.201 1980.55 C 738.189 2002.55 712.281 2026.2 691.367 2048 L 167.18 2048 C 165.118 2045.22 162.847 2041.48 160.925 2038.51 C 161.956 2022.97 175.002 1976.83 179.259 1959.02 L 236.646 1727.82 L 326.46 1362.84 C 334.163 1332.62 341.709 1302.37 349.1 1272.08 C 361.36 1222.55 364.616 1194.28 404.046 1158.19 z" fill="rgb(255,90,31)" transform="translate(0,0)"></path>
<path d="M 1620.21 1142.81 L 1621.8 1143.69 C 1684.37 1178.81 1684.11 1224.78 1701.32 1284.98 L 1816.96 1751.36 L 1861 1928.65 L 1877.35 1993.05 C 1880.44 2005.36 1883.81 2017.74 1885.8 2030.27 C 1886.78 2036.43 1883.64 2042.94 1880.43 2048 L 1360.47 2048 C 1354.32 2043.12 1346.15 2034.64 1340.2 2029.14 C 1323.39 2013.61 1307.3 1997.04 1290.54 1981.48 C 1294.69 1975.23 1309.33 1961.76 1315.91 1953.63 C 1335.1 1930.16 1359.4 1904.44 1379.95 1881.25 C 1423.76 1831 1468.04 1781.16 1512.79 1731.75 C 1535.33 1747.51 1564.59 1771.26 1586.83 1788.37 C 1634.52 1825.68 1682.5 1862.62 1730.77 1899.17 C 1738.77 1905.31 1786.31 1943.57 1791.23 1945.77 L 1792.01 1944.93 C 1788.37 1940.74 1772.8 1929.38 1767.56 1925.24 C 1744.16 1906.66 1720.53 1888.38 1696.66 1870.41 L 1514.76 1730.34 C 1515.88 1695.55 1516.77 1657.66 1516.59 1623 C 1516.15 1538.88 1532.26 1460.74 1549.83 1378.69 C 1567.26 1297.32 1587.67 1220 1620.21 1142.81 z" fill="rgb(255,90,31)" transform="translate(0,0)"></path>
<path d="M 1017.19 1070.15 C 1017.86 1068.99 1019.72 1066.61 1020.59 1065.42 C 1022.78 1101.26 1021.14 1156.57 1021.09 1193.69 L 1021.22 1416.3 L 1021.71 2048 L 919.199 2048 C 918.819 2043.89 918.114 2039.31 917.578 2035.18 C 913.058 2008.49 910.679 1971.37 907.767 1943.4 L 892.173 1791.56 C 889.383 1763.65 887.005 1734.09 883.655 1706.39 L 929.087 1644.51 C 941.926 1626.96 955.346 1610.45 964.142 1591.28 C 990.897 1532.99 978.152 1477.03 955.087 1420.58 C 945.385 1396.83 944.496 1356.83 945.214 1330.3 C 947.206 1321.46 948.515 1306.13 950.652 1295.28 C 952.331 1288.37 963.832 1256.89 963.888 1254.61 C 965.246 1199.47 885.082 1240.16 879.144 1274.7 C 878.486 1278.52 875.379 1288.41 874.255 1291.94 L 873.319 1291.74 L 872.616 1287.21 C 866.145 1235.78 862.45 1184.06 856.827 1132.54 C 856.265 1127.39 855.415 1123.08 855.501 1117.87 L 857.149 1117.96 C 857.625 1118.44 858.101 1118.92 858.577 1119.39 L 860.157 1120.94 L 862.476 1120.17 C 864.436 1122.04 866.722 1124.23 868.322 1126.4 L 867.942 1129.21 L 890.12 1151.58 C 891.943 1153.84 893.97 1156.4 896.344 1158.09 C 899.873 1161.88 904.469 1167.1 908.104 1170.62 C 909.676 1172.52 913.323 1176.91 915.261 1178.1 C 920.199 1183.31 925.349 1188.95 930.408 1193.98 C 930.872 1194.64 930.824 1194.71 931.37 1195.06 C 933.698 1197.79 936.553 1200.72 939.02 1203.38 C 942.999 1197.53 947.214 1190.46 950.741 1184.3 C 972.4 1146.44 997.454 1108.94 1017.19 1070.15 z" fill="rgb(245,237,230)" transform="translate(0,0)"></path>
<path d="M 862.476 1120.17 C 864.436 1122.04 866.722 1124.23 868.322 1126.4 L 867.942 1129.21 C 865.227 1126.57 862.629 1123.81 860.157 1120.94 L 862.476 1120.17 z" fill="rgb(93,89,78)" transform="translate(0,0)"></path>
<path d="M 1023.49 1067.17 C 1041.74 1098.09 1061.46 1128.8 1079.68 1159.82 C 1088.5 1174.83 1098.07 1188.93 1106.28 1204.44 C 1129.88 1178.31 1159.36 1146.32 1184.55 1121.48 L 1169.85 1277.18 L 1164.91 1267.07 C 1163.57 1263.86 1160.48 1259.57 1158.48 1256.56 C 1140.53 1234.12 1095.82 1208.32 1083.06 1247.35 C 1080.56 1255 1106.84 1317.25 1101.99 1324.59 C 1099.13 1324.78 1097.73 1324.82 1094.88 1325.51 C 1092.98 1330.31 1093.58 1350.53 1095.37 1356.1 C 1096.22 1358.75 1099.04 1359.54 1101.49 1360.33 C 1105.03 1365.6 1100.49 1389.94 1099.04 1396.3 C 1089.68 1437.18 1065.79 1480.86 1069.91 1524.64 C 1068.78 1560.89 1081.24 1592.16 1102.23 1621.01 L 1146.25 1679.24 C 1133.01 1709.45 1128.32 1748.79 1160.31 1769.41 C 1152.5 1837.74 1145.3 1906.13 1138.72 1974.58 C 1136.38 1997.4 1132.63 2023.2 1130.87 2045.48 L 1130.71 2048 L 1024.05 2048 L 1023.49 1067.17 z" fill="rgb(245,237,230)" transform="translate(0,0)"></path>
<path d="M 873.187 945.841 C 902.681 989.898 926.511 1015.54 972.69 1043.18 C 980.728 1047.66 989.139 1051.84 997.67 1055.28 C 1004.35 1057.98 1011.31 1060.12 1018.12 1062.48 C 1019.22 1062.86 1015.93 1069.01 1015.59 1069.66 C 1003.54 1091.89 989.515 1114.89 976.512 1136.71 C 964.497 1156.88 951.585 1180.23 938.832 1199.81 C 915.812 1174.88 892.305 1150.4 868.322 1126.4 C 866.722 1124.23 864.436 1122.04 862.476 1120.17 L 855.289 1112.87 C 849.417 1077.87 852.771 1057.52 858.351 1023.29 L 870.315 950.702 C 871.223 947.84 870.99 947.784 873.187 945.841 z" fill="rgb(245,237,230)" transform="translate(0,0)"></path>
<path d="M 1249.01 1890.96 C 1265.14 1906.18 1279.89 1923.1 1296.35 1938.49 C 1288.62 1948.13 1280.76 1957.66 1272.77 1967.08 C 1277.55 1971.82 1283.82 1978.38 1288.75 1982.69 C 1306.71 2000.97 1327.19 2020.23 1346.03 2037.76 C 1346.64 2038.6 1346.52 2038.45 1347.38 2039.05 L 1356.38 2048 L 1134.09 2048 L 1144.13 2034.3 C 1177.72 1990.54 1217.65 1935.84 1249.01 1890.96 z" fill="rgb(255,90,31)" transform="translate(0,0)"></path>
<path d="M 799.467 1892.57 C 832.528 1938.59 866.647 1984.03 900.273 2029.65 C 904.336 2035.17 908.487 2040.8 912.698 2046.19 L 913.857 2048 L 694.146 2048 C 716.923 2026.4 739.41 2004.5 761.601 1982.3 C 767.152 1977.2 772.733 1972.12 778.343 1967.08 C 774.189 1962.29 770.144 1957.4 766.211 1952.43 C 763.344 1948.77 756.224 1940.69 756.723 1936.54 C 771.181 1922.09 785.43 1907.43 799.467 1892.57 z" fill="rgb(255,90,31)" transform="translate(0,0)"></path>
<path d="M 908.104 1170.62 C 910.719 1172.63 914.272 1174.95 915.261 1178.1 C 913.323 1176.91 909.676 1172.52 908.104 1170.62 z" fill="rgb(93,89,78)" transform="translate(0,0)"></path>
<path d="M 890.12 1151.58 C 892.37 1153.41 895.37 1155.49 896.344 1158.09 C 893.97 1156.4 891.943 1153.84 890.12 1151.58 z" fill="rgb(93,89,78)" transform="translate(0,0)"></path>
<path d="M 871.733 1389.89 C 871.773 1401.11 871.376 1416.22 873.033 1426.87 C 876.721 1418.46 873.142 1366.03 874.173 1351.92 C 874.542 1335.38 873.213 1319.83 874.589 1303.23 C 877.721 1265.42 905.176 1226.07 947.144 1231.22 C 955.285 1232.22 963.864 1239.63 962.426 1248.53 C 959.895 1264.22 952.708 1278.98 948.561 1294.96 C 946.327 1306.62 943.769 1320.79 942.908 1332.67 C 942.519 1360.98 944.067 1400.65 954.762 1426.58 C 975.994 1478.05 986.163 1529.82 965.42 1583.73 C 956.755 1606.25 936.933 1630.24 922.009 1650.43 L 879.376 1708.24 C 854.586 1741.6 830.945 1775.47 805.751 1808.64 C 803.166 1812.43 797.616 1821.52 794.408 1823.53 C 792.038 1822.79 792.99 1823.36 791.427 1822.04 C 784.965 1813.08 760.527 1787.43 752.237 1778.45 C 725.783 1750.28 699.639 1721.83 673.808 1693.1 C 676.348 1687.77 689.587 1670.57 693.695 1665.06 C 707.943 1645.87 722.337 1626.79 736.876 1607.81 C 738.785 1605.7 739.593 1605.24 740.257 1602.5 C 732.522 1587.23 721.304 1569.73 712.755 1554.62 L 671.963 1481.42 C 654.875 1451.35 637.727 1417.28 619.764 1388.27 C 638.624 1374.81 657.901 1360.77 677.595 1348.61 C 685.527 1358.92 705.699 1387.08 715.433 1393.9 C 721.376 1398.07 738.716 1406.42 747.785 1412.4 L 749.598 1410.78 C 740.53 1405.27 724.766 1397.25 716.969 1392.07 C 709.385 1387.03 693.797 1366.1 687.036 1357.66 C 693.454 1348.71 700.784 1340.45 708.91 1333.02 C 745.067 1300.09 769.175 1302.74 814.148 1304.9 C 832.006 1332.67 853.077 1362.19 871.733 1389.89 z" fill="rgb(255,209,102)" transform="translate(0,0)"></path>
<path d="M 767.813 1423.38 C 774.01 1427.42 778.254 1430.59 784.08 1435.19 C 824.316 1467.64 866.419 1511.75 888.726 1558.83 L 888.301 1560.24 L 889.818 1561.86 L 889.82 1561.86 C 885.945 1558.35 879.739 1545.86 876.786 1540.96 C 855.295 1505.32 827.505 1476.49 796.887 1448.39 C 796.204 1448.01 796.343 1448.09 795.727 1447.5 L 785.709 1439.3 C 780.494 1435.17 775.202 1431.14 769.836 1427.22 L 766.843 1425.57 L 767.813 1423.38 z" fill="rgb(43,30,46)" transform="translate(0,0)"></path>
<path d="M 767.813 1423.38 L 769.836 1427.22 L 766.843 1425.57 L 767.813 1423.38 z" fill="rgb(97,66,27)" transform="translate(0,0)"></path>
<path d="M 750.355 1411.4 C 753.563 1413.19 765.642 1421.22 767.813 1423.38 L 766.843 1425.57 C 763.419 1422 755.063 1416.85 750.648 1414.05 L 750.355 1411.4 z" fill="rgb(43,30,46)" transform="translate(0,0)"></path>
<path d="M 749.598 1410.78 C 750.017 1411.05 749.77 1410.87 750.355 1411.4 L 750.648 1414.05 C 749.639 1413.49 748.764 1413.02 747.785 1412.4 L 749.598 1410.78 z" fill="rgb(97,66,27)" transform="translate(0,0)"></path>
<path d="M 915.565 1622.8 C 915.814 1624.25 916.07 1625.2 915.041 1626.48 C 904.799 1639.14 889.324 1648.68 873.493 1650.97 L 865.504 1652.16 L 865.475 1651.9 C 865.387 1651.18 865.251 1650.95 865.423 1650.38 C 865.763 1650.07 870.273 1649.23 870.997 1649.14 C 892.602 1646.51 901.364 1636.78 915.565 1622.8 z" fill="rgb(43,30,46)" transform="translate(0,0)"></path>
<path d="M 1403.52 1242.87 C 1404.99 1229 1406.29 1222.66 1412.4 1209.98 C 1418.16 1198.01 1447.06 1172.3 1459.85 1180.57 C 1461.64 1183.33 1462.13 1317.37 1460.77 1330.36 C 1459.74 1340.2 1427.05 1392.52 1419.97 1405.13 C 1395.26 1449.89 1370.1 1494.4 1344.5 1538.66 C 1332.13 1560.17 1320.88 1580.86 1307.61 1601.94 C 1310.9 1605.76 1313.98 1609.49 1317.63 1612.98 C 1321.49 1618.47 1325.22 1623.84 1329.32 1629.16 C 1326.44 1637.68 1323.92 1642.68 1319.87 1650.81 C 1296.68 1691.27 1236.47 1738.31 1187.31 1731.86 C 1181.07 1725.08 1170.58 1708.1 1164.06 1699.28 L 1105.11 1621.06 C 1082.49 1589.1 1075.82 1571.92 1071.93 1533.32 C 1070.76 1488.97 1079.75 1459.27 1095.34 1418.71 C 1101.64 1402.34 1104.59 1377.5 1105.69 1359.85 C 1128.2 1360.82 1151.56 1360.77 1174.15 1360.9 C 1174.36 1380.2 1173.43 1408.36 1175.46 1426.57 C 1177.83 1421.11 1177.07 1397.87 1177 1390.93 L 1177.4 1390.24 C 1192.22 1364.86 1217.79 1330.59 1235.25 1305.07 C 1268.2 1299.18 1302.24 1304.34 1331 1321.67 C 1334.19 1323.78 1337.87 1326.07 1340.9 1328.33 C 1349.76 1334.34 1358.63 1342.05 1366.83 1349.02 C 1361.59 1356.6 1335.96 1390.46 1331.18 1392.78 C 1265.95 1424.38 1209.61 1476.69 1170.47 1537.52 C 1167.21 1542.59 1159.2 1555.32 1157.5 1561.76 L 1158.57 1562.6 C 1159.66 1561.67 1178.55 1528.86 1181.96 1524.02 C 1196.73 1503.39 1213.31 1484.12 1231.5 1466.43 C 1251.48 1447.05 1273.24 1429.59 1296.48 1414.28 C 1302.36 1410.42 1307.94 1407.34 1314.08 1404.02 C 1320.7 1400.45 1332.52 1396.34 1337.13 1390.72 C 1346.86 1378.87 1356.14 1366.5 1365.56 1354.4 C 1378.39 1337.9 1390.96 1321.07 1402.84 1303.87 C 1404.08 1302.07 1403.86 1299.67 1403.75 1297.57 C 1402.64 1292.51 1402.11 1245.81 1403.52 1242.87 z" fill="rgb(255,209,102)" transform="translate(0,0)"></path>
<path d="M 1403.75 1297.57 C 1402.64 1292.51 1402.11 1245.81 1403.52 1242.87 C 1404.41 1247.92 1404.1 1290.78 1403.75 1297.57 z" fill="rgb(97,66,27)" transform="translate(0,0)"></path>
<path d="M 1131.61 1622.72 C 1133.24 1623.5 1134.16 1623.84 1135.33 1625.29 C 1144.04 1635.71 1157.54 1644.2 1170.65 1647.71 C 1175.07 1648.9 1178.42 1649.3 1182.92 1650.78 C 1166.92 1652.57 1137.21 1637.56 1131.61 1622.72 z" fill="rgb(43,30,46)" transform="translate(0,0)"></path>
<path d="M 530.1 1116.7 C 538.377 1115.68 555.549 1110.93 564.148 1108.72 C 581.665 1104.14 599.252 1099.82 616.903 1095.77 L 616.932 1186.05 C 604.539 1179.25 600.31 1176.96 585.82 1176.89 C 586.013 1223.76 585.936 1270.63 585.591 1317.5 C 585.436 1329.17 584.52 1334.35 591.077 1343.84 C 593.319 1347.08 603.307 1359.63 599.64 1360.82 C 600.201 1360.64 596.441 1362.98 596.882 1362.7 C 597.458 1365.66 611.869 1388.77 614.22 1391.53 C 616.114 1391.28 616.604 1391.2 618.363 1390.82 C 622.733 1395.12 650.047 1445.95 654.51 1454.66 C 642.224 1469.55 630.096 1484.56 618.127 1499.71 C 628.039 1516.84 648.403 1543.84 660.621 1560.66 C 674.517 1579.8 691.263 1605.19 705.71 1623.28 C 691.582 1628.76 656.822 1650.82 642.462 1659.56 C 636.743 1652.88 631.569 1647.25 625.473 1640.9 C 596.552 1669.64 565.876 1699.7 536.458 1727.74 C 536.78 1699.61 536.106 1670.12 536.245 1641.83 C 536.332 1624.19 537.241 1590.05 535.466 1573.64 C 532.511 1546.3 525.34 1511.13 520.226 1483.49 C 504.641 1399.23 487.195 1314.04 462.238 1232.04 C 453.056 1201.87 441.228 1171.01 430.333 1141.39 C 459.406 1132.38 500.278 1123.25 530.1 1116.7 z" fill="rgb(255,90,31)" transform="translate(0,0)"></path>
<path d="M 1431.27 1096.5 C 1451.87 1100.07 1478.7 1107.65 1499.6 1112.77 L 1612.34 1139.58 C 1615.86 1141.14 1616.29 1140.54 1617.29 1143.13 C 1607.56 1169.11 1596.3 1194.88 1588.2 1221.45 C 1553.77 1334.45 1528.21 1452.47 1515.43 1569.9 C 1513.42 1588.4 1514.14 1611.82 1513.85 1630.78 L 1512.25 1728.7 C 1486.13 1701.38 1451.44 1666.53 1423.64 1640.53 C 1419.12 1645.63 1412.18 1653.04 1408.58 1658.44 C 1408.11 1658.77 1405.9 1659.8 1405.57 1659.66 C 1393.49 1654.54 1382.49 1649.5 1369.94 1645.46 C 1375.24 1627.25 1375.7 1609.16 1364.32 1593.01 C 1364.67 1587.66 1406.54 1534.29 1410.75 1526.02 C 1412.53 1522.54 1426.01 1504.65 1429.23 1500.94 C 1417.56 1486.53 1404.88 1472.36 1393.59 1457.69 C 1415.31 1415.7 1442.04 1375.12 1462.95 1333.25 C 1464.67 1329.8 1463.81 1262.82 1463.78 1255 L 1463.62 1207.14 C 1463.58 1199.24 1463.87 1185.55 1462.69 1178.14 C 1456.35 1172.77 1438.09 1182.18 1431.75 1185.58 C 1430.72 1176.23 1431.13 1160.78 1431.14 1151.13 L 1431.27 1096.5 z" fill="rgb(255,90,31)" transform="translate(0,0)"></path>
<path d="M 625.356 1644.39 C 630.598 1649.76 635.797 1655.48 640.918 1660.99 L 672.81 1695.24 C 710.691 1738.24 751.158 1780.58 789.912 1823.01 C 798.034 1831.02 820.868 1853.32 827.389 1862.3 C 802.822 1885.59 780.053 1910.21 756.287 1934.25 C 750.605 1940.11 744.278 1947.29 738.655 1952.79 C 671.073 1880.86 604.118 1803.36 537.213 1730.04 C 545.725 1722.67 559.048 1708.81 567.467 1700.51 C 586.506 1681.54 605.804 1662.83 625.356 1644.39 z" fill="rgb(245,237,230)" transform="translate(0,0)"></path>
<path d="M 746.088 1850.59 C 760.529 1847.72 774.566 1857.1 777.433 1871.54 C 780.3 1885.98 770.91 1900.01 756.465 1902.87 C 742.034 1905.72 728.021 1896.34 725.158 1881.91 C 722.294 1867.49 731.662 1853.47 746.088 1850.59 z" fill="rgb(43,30,46)" transform="translate(0,0)"></path>
<path d="M 746.47 1852.65 C 759.512 1850.03 772.255 1858.32 775.158 1871.3 C 778.06 1884.28 770.057 1897.2 757.142 1900.39 C 748.533 1902.51 739.448 1899.81 733.397 1893.33 C 727.347 1886.84 725.279 1877.59 727.993 1869.15 C 730.706 1860.71 737.775 1854.39 746.47 1852.65 z" fill="rgb(255,209,102)" transform="translate(0,0)"></path>
<path d="M 1423.5 1644.1 L 1483.93 1703.01 C 1492.22 1711.19 1502.98 1722.99 1511.12 1730.27 L 1384.56 1872.89 C 1364.27 1895.75 1332.34 1929.16 1314.42 1952.54 C 1310.4 1950.63 1301.92 1941.32 1298.04 1937.54 C 1272.98 1912.79 1249.57 1887.1 1223.95 1862.53 C 1228.26 1856.36 1252.67 1830.85 1258.27 1825.14 C 1298.76 1782.57 1341.34 1735.08 1380.64 1691.34 C 1385.79 1687.02 1405.24 1664.78 1410.28 1659.19 L 1423.5 1644.1 z" fill="rgb(245,237,230)" transform="translate(0,0)"></path>
<path d="M 1292.73 1850.58 C 1307.13 1847.43 1321.33 1856.64 1324.34 1871.07 C 1327.34 1885.5 1318 1899.61 1303.54 1902.48 C 1289.28 1905.31 1275.39 1896.12 1272.43 1881.88 C 1269.46 1867.65 1278.52 1853.68 1292.73 1850.58 z" fill="rgb(43,30,46)" transform="translate(0,0)"></path>
<path d="M 1295.24 1852.52 C 1308.36 1850.83 1320.43 1859.94 1322.4 1873.03 C 1324.37 1886.11 1315.52 1898.37 1302.48 1900.62 C 1293.79 1902.11 1284.98 1898.79 1279.43 1891.94 C 1273.89 1885.09 1272.49 1875.77 1275.77 1867.59 C 1279.05 1859.41 1286.5 1853.65 1295.24 1852.52 z" fill="rgb(255,209,102)" transform="translate(0,0)"></path>
<path d="M 307.162 1433.82 C 262.885 1385.86 239.529 1322.24 242.253 1257.03 C 248.139 1120.74 364.057 1056.74 489.882 1096.68 C 498.714 1099.48 524.84 1108 530.448 1114.31 L 529.575 1114.61 C 489.622 1127.58 434.605 1129.3 402.467 1157.42 C 361.126 1191.19 355.169 1241 343.109 1289.56 L 307.162 1433.82 z" fill="rgb(78,205,196)" transform="translate(0,0)"></path>
<path d="M 1174.04 957.832 C 1177.58 961.369 1181.14 964.906 1184.56 968.56 C 1215.27 1001.32 1248.43 1031.68 1278.88 1064.7 C 1277.12 1068.85 1274 1075.73 1273.54 1080.11 C 1269.51 1118.3 1273.88 1157.58 1271.9 1195.98 C 1271.24 1208.79 1262.86 1223.15 1259.31 1235.58 C 1250.66 1259.44 1242.25 1283.95 1231.19 1306.73 C 1214.66 1333.25 1193.91 1359.27 1177.05 1386.54 C 1176.99 1384.47 1176.69 1371.29 1177.22 1369.88 C 1179.62 1363.47 1183.72 1331.85 1180.43 1327.16 L 1176.7 1326.42 C 1175.03 1321.64 1175.87 1311.36 1175.08 1305.98 C 1170.52 1274.97 1174.73 1246.44 1177.76 1215.29 L 1186.74 1119.99 L 1191.16 1078.3 C 1191 1072.53 1190.88 1066.76 1190.79 1060.99 C 1190.36 1060.06 1190.41 1060.26 1190.36 1059.23 C 1187.03 1029.48 1179.35 988.209 1174.04 957.832 z" fill="rgb(255,90,31)" transform="translate(0,0)"></path>
<path d="M 866.889 956.91 C 861.665 993.484 853.723 1030.53 849.727 1067.15 C 848.891 1074.81 851.259 1098.16 852.082 1107.08 C 854.544 1133.76 857.457 1160.62 860.101 1187.32 C 862.208 1210.21 864.489 1233.08 866.944 1255.93 C 867.78 1263.63 869.316 1281.01 870.973 1287.83 C 870.876 1290.17 870.891 1288.52 870.982 1290.5 C 872.41 1321.73 872.035 1353.82 871.937 1385.11 C 858.851 1366.73 845.973 1348.19 833.307 1329.51 C 828.015 1321.76 821.671 1313.12 816.945 1305.11 C 811.896 1296.55 809.451 1270.18 804.637 1263.34 C 803.501 1263.19 801.463 1262.91 800.55 1262.47 C 798.28 1261.36 793.34 1247.83 792.366 1245.18 C 787.264 1231.33 779.405 1214.68 775.942 1200.68 C 774.669 1195.53 774.981 1177.99 774.998 1172 L 775.185 1119.12 C 775.267 1095.1 777 1083.35 767.184 1060.99 C 771.975 1055.69 776.869 1050.49 781.864 1045.39 C 789.772 1038.59 797.421 1029.08 804.861 1021.66 C 824.875 1001.68 846.25 975.632 866.889 956.91 z" fill="rgb(255,90,31)" transform="translate(0,0)"></path>
<path d="M 1169.33 942.349 C 1169.68 944.99 1169.84 947.908 1170.76 950.307 C 1174.88 990.787 1190.77 1044.71 1188.87 1083.39 C 1187.76 1085.61 1185.08 1113.34 1184.55 1117.87 C 1160.87 1140.76 1129.18 1175.63 1106.88 1200.31 C 1100.98 1189.25 1092.26 1175.87 1085.57 1164.88 L 1047.21 1101.95 C 1039.86 1089.97 1030.43 1075.5 1024.32 1063.2 C 1026.09 1062.19 1025.49 1062.41 1027.3 1061.82 C 1076.89 1045.74 1116.59 1013.57 1148.43 972.921 C 1155.46 963.943 1161.6 952.665 1168.66 943.238 L 1169.33 942.349 z" fill="rgb(245,237,230)" transform="translate(0,0)"></path>
<path d="M 1563.66 1125.96 C 1561.14 1105.89 1557.13 1081.47 1571.17 1065.22 C 1602.03 1030.62 1658.26 1062.75 1684.61 1086.91 C 1720.62 1119.92 1751.15 1169.19 1754.17 1218.8 C 1756.46 1256.48 1742.61 1280.55 1702.67 1284.65 C 1696.63 1257.92 1688.7 1219.69 1676.37 1195.92 C 1663.62 1171.36 1640.29 1147.02 1613.13 1138.76 C 1599.3 1134.12 1578.16 1129.08 1563.66 1125.96 z" fill="rgb(78,205,196)" transform="translate(0,0)"></path>
<path d="M 808.183 1808.76 C 813.943 1801.19 880.665 1710.49 881.34 1710.09 C 882.812 1715.54 883.908 1730.69 884.529 1736.91 L 889.613 1787.7 L 906.847 1954.39 C 909.208 1977.3 911.753 2016.88 915.697 2038.34 L 915.97 2043.01 L 914.565 2044.2 C 911.829 2041.54 902.632 2028.89 899.94 2025.32 C 889.474 2011.58 879.181 1997.71 869.064 1983.71 C 846.442 1952.46 823.359 1922.13 800.966 1890.6 C 810.683 1881.47 820.221 1872.14 829.575 1862.64 C 833.18 1859.45 837.964 1853.99 841.364 1850.33 C 831.662 1836.99 818.706 1821.74 808.183 1808.76 z" fill="rgb(255,90,31)" transform="translate(0,0)"></path>
<path d="M 1162.47 1770.96 C 1182.29 1778.41 1193.66 1778.33 1215.06 1775.68 L 1241.51 1809.93 C 1230.26 1823.2 1219.66 1836.95 1208.28 1850.15 C 1213.09 1854.69 1217.82 1859.31 1222.48 1864 C 1230.56 1872.14 1239.4 1880.73 1247.24 1889.01 C 1214.84 1937.32 1175.58 1986.92 1141.49 2034.51 L 1134.08 2044.09 C 1133.32 2034.73 1139.1 1990.21 1140.31 1977.61 C 1146.66 1908.62 1154.05 1839.73 1162.47 1770.96 z" fill="rgb(255,90,31)" transform="translate(0,0)"></path>
<path d="M 1332.95 1028.32 C 1344.67 1012.38 1355.47 1002.5 1375.75 999.36 C 1376.85 999.186 1377.96 999.023 1379.06 998.87 C 1379.06 1007.78 1378.51 1026.84 1379.22 1035.01 C 1379.17 1041.63 1379.61 1070.22 1378.42 1072.8 C 1362.06 1108.48 1374.03 1160.72 1369.85 1195.97 C 1368.64 1206.19 1337.8 1312.95 1334.09 1319.17 L 1331.9 1319.84 C 1319.58 1311.18 1302.17 1305.75 1287.69 1302.4 C 1299.01 1269.23 1310.59 1233.04 1320.99 1199.42 C 1322.99 1192.98 1322.11 1165.7 1322.12 1157.94 L 1321.82 1081.55 C 1322.19 1075.25 1321.87 1067.06 1321.79 1060.59 C 1324.04 1046.89 1326.52 1040.42 1332.95 1028.32 z" fill="rgb(255,209,102)" transform="translate(0,0)"></path>
<path d="M 1427.41 1047.04 C 1430.07 1051.05 1428.75 1175.01 1428.64 1188.12 C 1408.85 1204.34 1401.47 1222.85 1401.28 1248.26 C 1401.15 1266.38 1401.4 1284.56 1401.35 1302.68 L 1368.33 1347.45 C 1359.91 1340.43 1351.55 1333.29 1342.78 1326.72 C 1340.9 1325.59 1336.62 1323.36 1337.15 1320.58 C 1345.31 1281.6 1361.64 1243.25 1371.12 1204.7 C 1376.13 1184.32 1371.55 1142.41 1372.69 1120.07 C 1374.18 1090.92 1371.4 1085.01 1391.48 1061.67 C 1407.68 1052.24 1406.63 1050.37 1427.41 1047.04 z" fill="rgb(255,209,102)" transform="translate(0,0)"></path>
<path d="M 1328.41 1571.86 C 1344.01 1576.44 1352.6 1581.57 1362.97 1594.28 C 1385.74 1633.77 1356.37 1677.12 1330.88 1707.58 C 1325.83 1713.62 1317.63 1719.91 1313.13 1725.58 C 1297.71 1737.33 1283.17 1747.76 1265.73 1756.6 C 1240.68 1769.28 1197.76 1781.18 1170.13 1771.51 C 1158.01 1767.32 1148.21 1758.22 1143.13 1746.45 C 1133.85 1725.36 1140.06 1701.07 1147.92 1680.71 C 1156.14 1692.56 1166.31 1703.83 1173.14 1716.34 C 1175.39 1720.46 1172.34 1730.66 1180.37 1733.22 C 1192.16 1736.99 1213.28 1733.47 1224.8 1729.77 C 1262.63 1717.62 1302.82 1686.55 1321.44 1651.36 C 1330.39 1638.76 1342.59 1613.67 1318.53 1610.41 C 1316.01 1608.52 1312.3 1604.53 1309.98 1602.18 L 1328.41 1571.86 z" fill="rgb(139,92,246)" transform="translate(0,0)"></path>
<path d="M 666.773 999.167 C 687.149 1001.3 696.931 1006.44 710.399 1022.28 L 712.121 1024.28 C 727.15 1048.51 725.746 1064.03 725.646 1091.62 L 725.437 1160.59 C 725.441 1172.47 724.441 1193.4 727.408 1204.24 C 732.781 1223.87 741.107 1243.79 747.033 1263.43 C 729.131 1267.38 720.53 1271.3 704.431 1280.37 C 696.676 1259.14 690.047 1237.34 682.703 1215.95 C 680.86 1210.59 677.861 1201.73 677.618 1196.11 C 676.243 1164.39 677.725 1132.44 676.866 1100.68 C 676.987 1089.85 667.907 1078.82 667.503 1068.57 C 666.602 1045.68 667.102 1022.08 666.773 999.167 z" fill="rgb(255,209,102)" transform="translate(0,0)"></path>
<path d="M 618.636 1047.31 C 635.406 1048.33 641.559 1050.86 655.147 1061.61 C 676.474 1084.13 674.993 1100.82 674.967 1129.97 L 674.881 1174.12 C 674.87 1179.14 674.66 1194.42 675.638 1198.41 C 682.302 1225.56 693.505 1255.19 702.281 1281.75 C 687.916 1289.43 671.555 1305.49 660.986 1317.65 C 655.539 1312.29 651.97 1308.03 647.071 1302.11 C 647.117 1286.5 646.926 1270.44 647.138 1254.88 C 647.522 1226.72 641.929 1206.04 619.263 1187.94 L 619.128 1099.14 C 619.108 1083.16 619.603 1063.05 618.636 1047.31 z" fill="rgb(255,209,102)" transform="translate(0,0)"></path>
<path d="M 1281.91 1063.22 C 1292.96 1044.83 1307.57 1032.19 1329.69 1029.95 C 1317.48 1053.51 1319.3 1066.93 1319.54 1092.97 C 1319.78 1115.27 1319.88 1137.57 1319.82 1159.88 C 1319.81 1168.02 1320.23 1189.42 1318.98 1196.78 C 1316.88 1209.06 1309.35 1228.91 1305.1 1241.49 L 1285.14 1302.22 C 1265.74 1300.9 1255.93 1300.1 1236.53 1302.39 C 1245.73 1278.71 1254.7 1254.93 1263.41 1231.07 C 1273.79 1202.65 1275.19 1201.15 1275 1171 L 1274.69 1117.84 C 1274.59 1096.29 1272.6 1083.27 1281.91 1063.22 z" fill="rgb(255,209,102)" transform="translate(0,0)"></path>
<path d="M 501.997 508.235 C 566.817 508.241 633.327 628.609 569.21 647.117 C 503.115 647.917 434.114 521.926 501.997 508.235 z" fill="rgb(139,92,246)" transform="translate(0,0)"></path>
<path d="M 760.934 803.007 C 747.206 747.682 768.23 665.774 823.142 638.249 C 828.112 635.758 841.113 632.078 846.051 633.908 C 842.931 638.037 833.904 641.481 829.385 644.893 C 793.276 672.153 773.556 735.995 790.906 778.366 C 795.839 790.412 809.332 800.964 821.763 793.407 C 859.621 770.391 873.728 710.738 868.007 669.38 C 866.245 656.743 861.606 645.611 856.046 634.861 C 890.804 665.065 887.723 716.973 877.034 757.563 C 867.4 788.587 851.344 820.519 821.784 836.811 C 796.688 850.642 775.36 836.495 764.757 812.918 C 763.28 809.696 762.004 806.386 760.934 803.007 z" fill="rgb(255,209,102)" transform="translate(0,0)"></path>
<path d="M 718.242 1029.93 C 734.508 1033.36 743.927 1039.23 756.424 1050.27 C 774.006 1070.99 773.178 1086.54 773.074 1112.21 L 772.814 1166.26 C 772.783 1172.44 772.386 1194.28 773.558 1198.96 C 778.62 1219.16 789.464 1242.74 796.697 1262.86 C 779.392 1262.08 766.966 1261.77 749.635 1263.22 C 742.853 1243.65 732.417 1216.96 728.579 1197.17 C 727.413 1191.16 727.903 1165.8 727.922 1158.58 L 728.121 1092.07 C 728.196 1066.59 729.779 1052.98 718.242 1029.93 z" fill="rgb(255,209,102)" transform="translate(0,0)"></path>
<path d="M 588.234 1179.35 C 612.496 1179.55 631.39 1196.78 639.792 1218.58 C 645.476 1233.33 644.849 1249.47 644.903 1265.01 L 644.962 1303.02 C 648.993 1308.28 654.269 1314.14 658.651 1319.25 C 652.246 1325.07 644.596 1330.18 637.502 1335.21 C 626.211 1343.16 614.725 1350.83 603.053 1358.2 C 597.92 1350.07 592.645 1341.9 587.825 1333.58 L 588.234 1179.35 z" fill="rgb(255,209,102)" transform="translate(0,0)"></path>
<path d="M 1202.01 812.209 C 1214.73 815.47 1223.59 818.512 1236.99 816.038 C 1252.66 813.066 1266.54 804.064 1275.63 790.968 C 1293.12 765.533 1290.48 729.674 1274.22 704.267 C 1269.08 696.247 1247.55 680.532 1254.21 671.524 C 1257.51 671.644 1260.08 672.961 1262.93 674.623 C 1293.02 692.162 1307.71 712.63 1317.21 745.043 C 1326.03 796.72 1304.74 847.39 1248.66 856.03 C 1245.54 856.493 1242.4 856.832 1239.24 857.045 C 1217.84 856.814 1198.32 850.033 1180.99 837.526 C 1187.19 829.265 1195.24 819.97 1202.01 812.209 z" fill="rgb(255,209,102)" transform="translate(0,0)"></path>
<path d="M 1300.35 783.735 C 1301.1 784.431 1301.71 784.909 1301.82 785.987 C 1304.62 814.175 1281.73 836.158 1255.4 840.661 C 1252.89 837.517 1261.55 835.889 1264.56 834.106 C 1284.4 822.347 1293.12 804.392 1300.35 783.735 z" fill="rgb(245,237,230)" transform="translate(0,0)"></path>
<path d="M 980.835 642.111 C 990.253 650.158 998.25 655.727 1008.35 662.723 C 1010.64 668.155 1014.15 674.839 1016.81 680.229 C 1019.61 684.6 1027.58 696.935 1031.2 700.485 C 1038.37 709.03 1043.23 713.391 1051.8 720.582 L 1053.57 718.784 L 1055.49 720.202 L 1056.72 721.007 L 1058.49 722.147 L 1057.06 723.726 C 1073.89 732.631 1081.31 735.644 1099.83 738.783 C 1134.95 741.003 1169.07 725.218 1194.72 701.943 L 1196.75 701.722 L 1198.05 702.943 C 1197.63 707.812 1190.73 718.701 1187.98 723.286 C 1158.37 772.618 1105.81 801.269 1052.57 766.891 C 1012.54 741.037 990.974 686.973 980.835 642.111 z" fill="rgb(255,90,31)" transform="translate(0,0)"></path>
<path d="M 1055.49 720.202 L 1056.72 721.007 L 1058.49 722.147 L 1057.06 723.726 C 1056.32 723.288 1055.58 722.837 1054.84 722.374 L 1054.05 721.72 L 1055.49 720.202 z" fill="rgb(117,30,18)" transform="translate(0,0)"></path>
<path d="M 1053.57 718.784 L 1055.49 720.202 L 1054.05 721.72 L 1051.8 720.582 L 1053.57 718.784 z" fill="rgb(117,30,18)" transform="translate(0,0)"></path>
<path d="M 1011.34 664.521 C 1015.9 661.061 1090.51 646.626 1101.12 645.938 C 1110.02 650.26 1116.29 654.803 1124.36 660.379 L 1126.82 660.942 L 1157.2 657.33 C 1169.91 671.89 1179.89 687.583 1193.6 701.286 C 1189.12 701.755 1175.47 698.104 1170.22 696.845 C 1167.4 705.034 1164.89 712.688 1161.27 720.599 L 1067.65 697.19 C 1053.6 693.649 1037.73 690.358 1024.21 685.411 C 1021.68 684.484 1020.17 681.938 1018.8 679.683 C 1015.96 674.34 1013.8 670.052 1011.34 664.521 z" fill="rgb(255,90,31)" transform="translate(0,0)"></path>
<path d="M 1011.34 664.521 C 1064.57 674.294 1118.35 687.617 1170.22 696.845 C 1167.4 705.034 1164.89 712.688 1161.27 720.599 L 1067.65 697.19 C 1053.6 693.649 1037.73 690.358 1024.21 685.411 C 1021.68 684.484 1020.17 681.938 1018.8 679.683 C 1015.96 674.34 1013.8 670.052 1011.34 664.521 z" fill="rgb(245,237,230)" transform="translate(0,0)"></path>
<path d="M 1124.36 660.379 L 1126.82 660.942 C 1124.04 662.797 1124.18 662.766 1120.84 663.498 C 1108.83 667.252 1102.44 669.533 1090.76 675.018 L 1094.28 663.071 C 1099.68 662.693 1105.47 662.075 1110.82 661.915 C 1116.03 660.79 1119.21 661.081 1124.36 660.379 z" fill="rgb(245,237,230)" transform="translate(0,0)"></path>
<path d="M 655.473 1456.76 C 663.809 1472.18 737.065 1598.54 737.682 1603.36 L 735.395 1605.93 C 725.068 1610.25 714.221 1618.92 707.287 1621.71 C 678.386 1581.15 648.87 1541.38 620.889 1500.04 L 655.473 1456.76 z" fill="rgb(255,90,31)" transform="translate(0,0)"></path>
<path d="M 1105.52 1325.43 C 1104.82 1321.64 1103.88 1317.76 1103.19 1313.99 C 1100.6 1300.38 1096.92 1287.01 1092.17 1274 C 1087.39 1260.7 1077.66 1245.48 1092.32 1235.31 C 1114.18 1220.14 1143.7 1240.5 1156.39 1257.48 C 1157.85 1260.18 1161.9 1266.05 1163.78 1269.16 C 1173.96 1291.46 1173.14 1303.02 1173.24 1326.99 C 1150.59 1326.98 1128.1 1325.57 1105.52 1325.43 z" fill="rgb(255,209,102)" transform="translate(0,0)"></path>
<path d="M 751.426 1265.31 C 766.091 1263.69 788.869 1264.9 804.338 1265.37 C 807.328 1278.02 810.168 1289.99 813.731 1302.49 C 764.901 1301.05 744.579 1297.72 705.496 1333.81 C 697.766 1341.32 692.502 1347.48 685.743 1355.66 C 677.532 1347.12 684.41 1349.06 679.314 1341.12 C 674.31 1333.33 668.592 1325.86 662.938 1318.52 C 685.132 1291.96 716.918 1271.02 751.426 1265.31 z" fill="rgb(139,92,246)" transform="translate(0,0)"></path>
<path d="M 1313.44 1727.34 C 1333.92 1710.19 1347.88 1691.92 1360.72 1668.58 C 1366.76 1676.98 1371.91 1682.93 1378.66 1690.68 C 1368.02 1701.86 1357.45 1713.46 1347.2 1725.02 C 1317.47 1758.55 1285.98 1790.7 1256.32 1824.25 L 1254.9 1824.39 C 1250.45 1819.39 1248.42 1814.15 1243.74 1809.73 C 1241 1804.76 1222.64 1781.89 1217.5 1774.75 C 1255.61 1766.71 1283.49 1752.31 1313.44 1727.34 z" fill="rgb(255,209,102)" transform="translate(0,0)"></path>
<path d="M 1391.76 1460.54 C 1396.13 1463.41 1420.78 1494.52 1425.84 1500.75 C 1404.65 1529.3 1384.68 1559.5 1363.04 1588.41 L 1361.89 1588.98 C 1360.25 1587.91 1360.33 1588.11 1359.09 1586.79 C 1350.46 1577.62 1341.55 1573.83 1329.93 1569.66 C 1348.8 1534.3 1371.67 1495.51 1391.76 1460.54 z" fill="rgb(255,90,31)" transform="translate(0,0)"></path>
<path d="M 1095.84 1326.97 C 1123.86 1327.2 1151.88 1327.88 1179.88 1329.03 C 1179.67 1339.12 1179.81 1349.06 1179.63 1359.1 C 1151.53 1359.42 1124.01 1358.85 1096 1356.97 C 1096.04 1346.97 1095.99 1336.97 1095.84 1326.97 z" fill="rgb(78,205,196)" transform="translate(0,0)"></path>
<path d="M 660.197 1320.71 C 664.32 1322.18 676.605 1340.28 679.536 1344.93 C 659.608 1358.08 636.299 1372.97 617.481 1387.57 C 617.308 1387.67 615.46 1388.92 615.203 1388.56 C 609.637 1380.78 603.904 1371.41 599.197 1363 C 619.443 1348.95 641.123 1336.66 660.197 1320.71 z" fill="rgb(78,205,196)" transform="translate(0,0)"></path>
<path d="M 964.574 463.928 C 1003.09 425.869 1045.59 414.308 1096.15 436.308 C 1092 442.478 1085.08 452.106 1081.62 458.315 C 1038.33 436.181 1005.91 439.516 965.413 466.112 L 964.574 463.928 z" fill="rgb(255,209,102)" transform="translate(0,0)"></path>
<path d="M 1168.63 449.373 C 1186.79 448.537 1198.61 449.748 1214.6 461.408 C 1224.27 468.461 1234.71 483.842 1237.7 496.069 C 1237.8 496.456 1237.74 496.467 1237.52 496.655 C 1237.09 496.396 1236.65 496.137 1236.22 495.878 C 1217.7 473.592 1199.14 465.745 1170.34 471.028 C 1169.81 466.719 1166.14 451.726 1168.63 449.373 z" fill="rgb(255,209,102)" transform="translate(0,0)"></path>
<path d="M 1032.4 699.488 C 1032.4 699.488 1031.73 697.341 1032.49 697.375 C 1033.89 697.454 1035.57 697.957 1036.98 698.254 C 1046.83 700.34 1057.1 702.374 1066.48 706.091 C 1078.79 710.966 1091.95 724.943 1098.09 736.389 C 1096.85 736.182 1095.62 735.965 1094.38 735.739 C 1079.63 732.904 1071.45 728.994 1058.49 722.147 L 1056.72 721.007 L 1055.49 720.202 L 1053.57 718.784 C 1044.42 712.806 1039.76 706.966 1032.4 699.488 z" fill="rgb(255,90,31)" transform="translate(0,0)"></path>
<path d="M 1197.64 533.306 C 1241.19 530.685 1240.46 590.258 1229.37 560.971 C 1223.18 544.609 1210.87 536.766 1194.3 539.637 L 1191.08 540.221 C 1190.49 540.403 1189.89 540.58 1189.29 540.752 C 1185.78 541.759 1180.71 543.574 1177.94 546.137 C 1177.34 546.764 1178.25 547.541 1178.77 547.676 C 1185.02 549.291 1186.67 556.461 1181.27 560.309 C 1177.15 563.239 1172.61 561.628 1170 557.448 C 1169.51 556.668 1168.94 555.409 1168.05 555.062 C 1166.37 555.628 1164.91 562.298 1162.7 562.571 C 1154.38 563.602 1163.7 551.262 1164.56 550.214 C 1173.44 539.361 1184.25 535.203 1197.64 533.306 z" fill="rgb(245,237,230)" transform="translate(0,0)"></path>
<path d="M 1017.43 505.278 C 1023.6 504.922 1028.56 505.245 1034.56 506.654 C 1039.28 507.684 1043.83 509.395 1048.05 511.735 C 1058.63 517.453 1064.99 524.762 1068.16 536.491 C 1068.41 537.943 1070.78 546.784 1069.54 547.645 C 1063.56 551.798 1064.19 543.702 1064.02 542.977 C 1061.28 531.377 1056.83 524.803 1047.77 517.653 C 1028.26 507.873 1006.72 507.332 990.721 524.741 C 989.87 525.667 986.369 531.482 985.744 531.566 C 979.271 532.432 982.961 525.941 985.049 523.552 C 993.285 511.845 1003.75 507.53 1017.43 505.278 z" fill="rgb(245,237,230)" transform="translate(0,0)"></path>
<path d="M 1100.49 602.705 C 1104.09 601.571 1108.02 602.521 1110.7 605.174 C 1113.39 607.826 1114.39 611.747 1113.3 615.36 C 1112.21 618.974 1109.21 621.688 1105.5 622.414 C 1100.2 623.452 1095.01 620.168 1093.68 614.931 C 1092.35 609.695 1095.33 604.329 1100.49 602.705 z" fill="rgb(245,237,230)" transform="translate(0,0)"></path>
<path d="M 1146.17 609.512 C 1149.6 608.328 1153.39 609.08 1156.1 611.48 C 1158.82 613.879 1160.03 617.554 1159.27 621.097 C 1158.52 624.639 1155.91 627.5 1152.45 628.582 C 1147.22 630.222 1141.63 627.354 1139.92 622.142 C 1138.2 616.93 1140.99 611.305 1146.17 609.512 z" fill="rgb(245,237,230)" transform="translate(0,0)"></path>
<path d="M 1044.1 521.321 C 1048.44 520.813 1052.4 523.827 1053.06 528.141 C 1053.73 532.456 1050.86 536.524 1046.57 537.346 C 1043.66 537.905 1040.67 536.827 1038.78 534.535 C 1036.89 532.244 1036.41 529.104 1037.52 526.35 C 1038.63 523.596 1041.15 521.667 1044.1 521.321 z" fill="rgb(245,237,230)" transform="translate(0,0)"></path>
<path d="M 964.574 463.928 L 965.413 466.112 C 958.181 471.867 956.966 470.592 964.574 463.928 z" fill="rgb(200,134,89)" transform="translate(0,0)"></path>
<metadata><recraft-signature>{"signed_by": "recraft", "signature_b64": "OOqPswU17A8n1zNX7k75S3eol+C66iSd2KiOf7v+nCbppmPGgytsTBK12VwRIUKI8OkXDoSlA5WK8KanVbXpCA==", "signing_algo": "Ed25519", "generation_timestamp": 1783346042, "identifier": "27eb654f-1680-40e8-85d1-ac45e6b82bc3"}</recraft-signature></metadata></svg>