<svg xmlns="http://www.w3.org/2000/svg" height="1024" preserveAspectRatio="none" style="display: block;" version="1.1" viewBox="0 0 2048 2048" width="1024">
<defs>
	<linearGradient gradientUnits="userSpaceOnUse" id="Gradient1" x1="1478.54" x2="1367.3" y1="914.756" y2="911.621">
		<stop class="stop0" offset="0" stop-color="rgb(188,127,65)" stop-opacity="1"></stop>
		<stop class="stop1" offset="1" stop-color="rgb(255,207,105)" stop-opacity="1"></stop>
	</linearGradient>
	<linearGradient gradientUnits="userSpaceOnUse" id="Gradient2" x1="893.834" x2="637.941" y1="911.251" y2="912.727">
		<stop class="stop0" offset="0" stop-color="rgb(178,113,50)" stop-opacity="1"></stop>
		<stop class="stop1" offset="1" stop-color="rgb(255,225,122)" stop-opacity="1"></stop>
	</linearGradient>
	<linearGradient gradientUnits="userSpaceOnUse" id="Gradient3" x1="1713.24" x2="1862.58" y1="1723.83" y2="1721.29">
		<stop class="stop0" offset="0" stop-color="rgb(253,99,39)" stop-opacity="1"></stop>
		<stop class="stop1" offset="1" stop-color="rgb(252,189,67)" stop-opacity="1"></stop>
	</linearGradient>
	<linearGradient gradientUnits="userSpaceOnUse" id="Gradient4" x1="1461.21" x2="1553.82" y1="1710.71" y2="1699.49">
		<stop class="stop0" offset="0" stop-color="rgb(255,178,57)" stop-opacity="1"></stop>
		<stop class="stop1" offset="1" stop-color="rgb(255,212,87)" stop-opacity="1"></stop>
	</linearGradient>
</defs>
<path d="M 0 0 L 2048 0 L 2048 2048 L 1913.66 2048 L 1895.14 2048 L 1871.02 2048 L 1766.1 2048 L 1726.36 2048 L 1564.57 2048 L 1544.04 2048 L 1538.32 2048 L 1433.39 2048 L 1306.58 2048 L 1300.37 2048 L 1154.44 2048 L 997.365 2048 L 990.519 2048 L 594.83 2048 L 533.416 2048 L 134.382 2048 L 0 2048 L 0 0 z" fill="rgb(43,16,22)" transform="translate(0,0)"></path>
<path d="M 0 0 L 2048 0 L 2048 2048 L 1913.66 2048 C 1909.44 2006.74 1904.58 1965.54 1899.08 1924.43 L 1873.55 1718.88 L 1854.87 1567.72 C 1851.73 1543.54 1848.81 1515.52 1843.46 1492.1 C 1838.96 1476.51 1831.01 1462.28 1821.88 1448.98 C 1818.99 1444.77 1813.68 1439.01 1812.07 1434.69 L 1808.2 1432.6 C 1828.37 1418.7 1842.78 1406.09 1848.74 1381.23 C 1856.39 1349.34 1848.6 1329.28 1832.54 1302.6 C 1846.45 1293.44 1855.83 1283.42 1863.07 1268.22 C 1872.92 1247.35 1874.01 1223.41 1866.11 1201.72 C 1857.67 1178.96 1841.49 1162.54 1819.69 1152.37 C 1823.41 1148.29 1826.91 1144.2 1829.84 1139.51 C 1840.77 1122.07 1844.15 1100.93 1839.19 1080.95 C 1833.2 1055.85 1818.98 1042.16 1797.88 1029.1 C 1808.36 1015.77 1815.91 1005.19 1820.81 988.624 C 1828.2 962.743 1825.28 935.004 1812.65 911.233 C 1798.79 885.751 1773.13 869.288 1745.83 861.271 C 1768.05 813.787 1771.07 761.278 1742.53 715.487 C 1722.91 683.488 1691.26 660.717 1654.68 652.293 C 1676.91 610.783 1682.82 573.102 1658.44 529.97 C 1641.55 500.099 1614.75 484.129 1582.22 475.31 C 1583.37 471.308 1584.14 467.473 1584.86 463.374 C 1590.02 434.965 1583.49 405.677 1566.76 382.145 C 1548.31 356.098 1523.43 342.62 1492.47 337.208 C 1498.72 315.479 1495.28 287.934 1485.66 267.677 C 1470.08 234.906 1445.21 217.554 1412.19 205.421 L 1405.93 203.712 C 1401.3 203.252 1398.83 203.063 1394.2 203.216 L 1393.72 202.397 C 1379.34 177.698 1360.47 164.515 1332.87 157.204 C 1327.92 155.806 1327.6 155.715 1322.8 156.368 C 1316.2 154.316 1310.6 151.5 1303.55 149.987 C 1281.39 145.234 1252.72 147.621 1231.86 156.138 C 1189.62 106.325 1105.52 96.4602 1055.44 139.619 C 1053.61 141.169 1051.84 142.792 1050.15 144.484 C 1018.84 113.155 981.234 97.4422 936.994 97.7271 C 870.513 98.1552 819.29 132.44 790.215 191.492 C 749.751 176.522 705.001 178.226 665.793 196.229 C 629.186 212.855 594.352 249.818 581.261 287.875 C 576.72 301.078 574.936 309.931 572.581 323.782 C 525.101 324.047 483.102 338.214 449.149 372.773 C 418.433 404.029 401.324 446.164 401.555 489.985 C 401.683 502.697 403.299 521.05 406.671 533.423 C 372.31 541.058 343.439 553.394 318.627 579.334 C 272.158 627.916 256.598 700.381 285.447 761.739 C 222.729 783.9 189.715 842.736 213.478 906.669 C 216.887 915.741 221.225 924.436 226.422 932.616 C 209.113 945.598 196.534 957.868 187.443 977.98 C 171.924 1012.31 175.299 1054 198.187 1084.4 C 201.636 1088.96 205.367 1093.3 209.358 1097.39 C 200.322 1103.49 192.092 1109 184.307 1116.66 C 132.628 1167.46 147.242 1246.87 207.347 1282.87 C 198.942 1293.7 192.634 1302.44 188.656 1315.76 C 175.847 1358.67 203.294 1400.25 243.161 1415.99 C 239.6 1417.42 230.591 1420.83 227.717 1422.51 C 224.008 1423.28 222.942 1423.23 219.93 1425.62 C 199.818 1429.2 171.495 1455.66 159.902 1472.19 C 147.235 1490.27 139.123 1511.14 136.257 1533.04 C 133.973 1549.8 134.714 1575.98 134.711 1593.51 L 134.696 1689.6 L 134.382 2048 L 0 2048 L 0 0 z" fill="rgb(58,36,32)" transform="translate(0,0)"></path>
<path d="M 1405.93 203.712 C 1411.96 202.905 1418.24 202.521 1424.22 203.921 C 1452.71 205.458 1479.4 218.349 1498.31 239.711 C 1514.79 258.506 1523.26 283.013 1521.88 307.976 C 1521.42 315.595 1519.83 323.105 1517.18 330.262 C 1550.38 338.224 1576.43 347.942 1596.81 377.488 C 1617 406.741 1615.65 434.917 1607.74 468.079 C 1638.62 472.901 1666.6 486.299 1685.27 512.111 C 1702.29 535.838 1709.11 565.393 1704.21 594.182 C 1701.2 612.074 1695.3 626.16 1686.3 641.673 C 1724.5 651.207 1755.86 672.575 1776.47 706.554 C 1795.72 737.685 1801.43 775.328 1792.27 810.768 C 1788.9 824.068 1783.72 835.659 1777.88 848.026 C 1789.79 852.603 1800.96 856.609 1811.63 863.825 C 1870.94 903.933 1876.57 969.442 1835.43 1024.97 C 1854.45 1037.31 1869.33 1054.32 1874.24 1076.98 C 1878.63 1097.64 1874.66 1119.21 1863.21 1136.96 C 1860.85 1140.55 1857.48 1144.57 1854.72 1147.93 C 1919.3 1185.71 1919.78 1261.76 1861.75 1306.25 C 1872.71 1315.9 1877.8 1333.27 1878.6 1347.5 C 1879.64 1369.78 1871.88 1391.58 1856.99 1408.19 C 1845.24 1421.21 1829.42 1431.37 1812.07 1434.69 L 1808.2 1432.6 C 1828.37 1418.7 1842.78 1406.09 1848.74 1381.23 C 1856.39 1349.34 1848.6 1329.28 1832.54 1302.6 C 1846.45 1293.44 1855.83 1283.42 1863.07 1268.22 C 1872.92 1247.35 1874.01 1223.41 1866.11 1201.72 C 1857.67 1178.96 1841.49 1162.54 1819.69 1152.37 C 1823.41 1148.29 1826.91 1144.2 1829.84 1139.51 C 1840.77 1122.07 1844.15 1100.93 1839.19 1080.95 C 1833.2 1055.85 1818.98 1042.16 1797.88 1029.1 C 1808.36 1015.77 1815.91 1005.19 1820.81 988.624 C 1828.2 962.743 1825.28 935.004 1812.65 911.233 C 1798.79 885.751 1773.13 869.288 1745.83 861.271 C 1768.05 813.787 1771.07 761.278 1742.53 715.487 C 1722.91 683.488 1691.26 660.717 1654.68 652.293 C 1676.91 610.783 1682.82 573.102 1658.44 529.97 C 1641.55 500.099 1614.75 484.129 1582.22 475.31 C 1583.37 471.308 1584.14 467.473 1584.86 463.374 C 1590.02 434.965 1583.49 405.677 1566.76 382.145 C 1548.31 356.098 1523.43 342.62 1492.47 337.208 C 1498.72 315.479 1495.28 287.934 1485.66 267.677 C 1470.08 234.906 1445.21 217.554 1412.19 205.421 L 1405.93 203.712 z" fill="rgb(245,237,230)" transform="translate(0,0)"></path>
<path d="M 243.161 1415.99 C 312.096 1392.36 384.918 1362.21 453.626 1336.35 L 586.93 1285.59 C 606.058 1278.11 632.871 1268.35 651.118 1259.85 C 650.62 1349.44 650.635 1439.04 651.161 1528.64 C 692.883 1531.7 736.802 1538.92 778.706 1543.76 C 751.266 1562.67 723.609 1581.26 695.742 1599.54 C 686.759 1605.52 667.128 1619.72 658.774 1624.29 C 659.56 1626.42 659.573 1626.61 660.668 1628.59 L 661.189 1628.65 C 699.502 1678.78 740.387 1728.08 779.964 1777.33 L 963.563 2005.37 C 972.823 2016.83 989.531 2036.35 997.365 2048 L 990.519 2048 L 594.83 2048 L 533.416 2048 L 134.382 2048 L 134.696 1689.6 L 134.711 1593.51 C 134.714 1575.98 133.973 1549.8 136.257 1533.04 C 139.123 1511.14 147.235 1490.27 159.902 1472.19 C 171.495 1455.66 199.818 1429.2 219.93 1425.62 C 222.942 1423.23 224.008 1423.28 227.717 1422.51 C 230.591 1420.83 239.6 1417.42 243.161 1415.99 z" fill="rgb(255,90,31)" transform="translate(0,0)"></path>
<path d="M 134.382 2048 L 134.696 1689.6 L 134.711 1593.51 C 134.714 1575.98 133.973 1549.8 136.257 1533.04 C 139.123 1511.14 147.235 1490.27 159.902 1472.19 C 171.495 1455.66 199.818 1429.2 219.93 1425.62 C 302.78 1445.91 373.948 1534.29 416.116 1604.4 C 500.959 1745.48 531.522 1884.68 533.416 2048 L 134.382 2048 z" fill="rgb(255,90,31)" transform="translate(0,0)"></path>
<path d="M 219.93 1425.62 C 222.942 1423.23 224.008 1423.28 227.717 1422.51 C 320.587 1450.51 393.76 1551.41 438.302 1633.11 C 473.956 1698.52 497.349 1766.13 521.624 1836.09 C 534.501 1872.37 547.177 1908.72 559.651 1945.14 C 566.698 1965.43 573.533 1985.79 580.157 2006.22 C 583.471 2016.41 590.427 2039.15 594.83 2048 L 533.416 2048 C 531.522 1884.68 500.959 1745.48 416.116 1604.4 C 373.948 1534.29 302.78 1445.91 219.93 1425.62 z" fill="rgb(43,16,22)" transform="translate(0,0)"></path>
<path d="M 955.724 2004.14 L 793.987 1803.14 C 747.67 1745.37 701.094 1686.08 654.164 1628.95 C 654.906 1626.11 655.625 1626.49 658.774 1624.29 C 659.56 1626.42 659.573 1626.61 660.668 1628.59 L 661.189 1628.65 C 699.502 1678.78 740.387 1728.08 779.964 1777.33 L 963.563 2005.37 C 972.823 2016.83 989.531 2036.35 997.365 2048 L 990.519 2048 C 984.862 2040.23 977.481 2031.22 971.482 2023.53 C 966.329 2016.77 961.182 2010.63 955.724 2004.14 z" fill="rgb(58,36,32)" transform="translate(0,0)"></path>
<path d="M 1220.34 266.029 C 1241.67 302.548 1267.15 318.356 1309.67 319.181 C 1308.26 376.291 1337.8 410.708 1392.97 423.158 C 1393.75 464.353 1393.34 505.563 1391.74 546.734 C 1354.44 519.599 1326.97 519.961 1282.19 529.537 C 1269.58 532.233 1255.49 534.709 1252.01 550.108 C 1250.66 556.323 1251.83 562.82 1255.27 568.171 C 1266.42 585.593 1286.23 577.022 1302.4 573.537 C 1334.46 566.627 1359.23 566.867 1390.92 574.707 C 1391.12 597.856 1389.65 618.604 1388.92 641.52 C 1388.86 642.75 1388.73 647.093 1388.49 648.025 C 1384.26 682.693 1382.58 719.037 1377.64 753.823 C 1376.04 765.098 1374.29 782.942 1371.24 793.64 C 1369.99 801.503 1367.21 812.525 1367.2 820.343 C 1363.28 860.972 1339.6 921.947 1315.63 954.407 C 1302.04 972.818 1292.75 982.907 1276.5 998.542 C 1271.76 1004.03 1262.95 1010.27 1256.85 1014.47 C 1253.87 1013.46 1236.75 1025.38 1232.49 1027.55 C 1112.35 1088.76 982.355 1002.89 902.918 916.324 C 901.828 914.811 900.782 913.358 899.648 911.874 C 897.439 910.465 895.578 884.597 893.547 877.901 C 888.854 852.527 867.752 824.598 848.397 808.271 C 846.616 805.808 836.4 799.39 833.484 797.717 C 807.326 782.712 771.493 776.027 742.154 784.267 C 733.616 776.663 726.574 769.472 719.845 760.263 C 693.582 724.317 692.683 668.594 732.202 641.091 C 747.391 630.491 766.165 626.353 784.403 629.585 C 806.759 633.676 820.393 646.549 832.835 664.49 C 845.082 655.455 853.707 642.349 857.159 627.526 C 862.995 603.4 857.81 584.075 845.187 563.557 C 897.048 547.606 922.045 513.718 909.499 459.043 C 971.774 452.551 1011.65 421.921 1023.46 358.807 C 1069.71 360.864 1107.07 344.271 1120.72 296.919 C 1162.32 307.146 1191.81 298.419 1220.34 266.029 z" fill="rgb(255,140,66)" transform="translate(0,0)"></path>
<path d="M 1240.32 646.212 C 1254.81 627.645 1272.01 614.827 1295.53 610.984 C 1332.03 605.018 1360.46 621.468 1388.92 641.52 C 1388.86 642.75 1388.73 647.093 1388.49 648.025 L 1386.99 646.727 C 1373.26 665.188 1347.23 678.577 1324.71 682.318 C 1296.68 686.971 1258.51 675.483 1244.46 648.752 L 1241.09 649.775 L 1240.32 646.212 z" fill="rgb(58,36,32)" transform="translate(0,0)"></path>
<path d="M 1308.28 614.555 C 1333.06 616.28 1347.89 621.507 1369.13 635.179 C 1372.91 637.612 1383.86 645.181 1386.99 646.727 C 1373.26 665.188 1347.23 678.577 1324.71 682.318 C 1296.68 686.971 1258.51 675.483 1244.46 648.752 C 1257.95 637.328 1254.63 636.087 1273.52 625.143 C 1245.38 687.476 1344.33 692.077 1329.69 633.838 C 1327.59 629.325 1327.29 629.127 1323.77 625.47 C 1317.74 620.084 1315.33 618.709 1308.28 614.555 z" fill="rgb(245,237,230)" transform="translate(0,0)"></path>
<path d="M 1327.42 637.451 C 1317.98 658.522 1294.67 629.25 1322 626.807 C 1326.21 631.099 1326.5 631.542 1327.42 637.451 z" fill="rgb(245,237,230)" transform="translate(0,0)"></path>
<path d="M 1249.96 787.066 C 1243.78 724.261 1234.95 661.475 1229.87 598.556 C 1230.29 597.856 1230.71 597.156 1231.14 596.457 C 1234.3 596.083 1232.96 595.629 1235.38 597.29 C 1237.22 605.575 1239.31 636.142 1240.32 646.212 L 1241.09 649.775 C 1243.08 660.28 1245.1 690.082 1246.32 702.481 C 1249.19 731.777 1254.04 764.097 1255.86 793.114 C 1241.47 793.177 1143.88 786.056 1137.16 782.128 L 1136.94 780.572 C 1137.65 780.073 1138.37 779.574 1139.08 779.075 C 1172.32 780.638 1217.94 785.872 1249.96 787.066 z" fill="rgb(43,16,22)" transform="translate(0,0)"></path>
<path d="M 1063.31 802.03 C 1131.64 824.693 1209.69 832.402 1280.91 820.456 C 1273.4 842.853 1268.9 850.514 1253.12 868.026 L 1252.17 868.939 C 1205.96 913.113 1134.18 907.125 1091.75 861.17 C 1079.4 847.798 1062.71 820.692 1063.31 802.03 z" fill="rgb(255,90,31)" transform="translate(0,0)"></path>
<path d="M 964.129 627.382 C 960.833 625.742 961.724 626.99 960.665 624.095 C 964.652 615.51 995.327 599.469 1004.49 596.188 C 1031.81 586.401 1054.61 584.582 1081.32 597.026 C 1095.7 603.723 1120.82 621.447 1126.99 635.493 C 1126.49 638.179 1125.92 639.039 1122.78 639.981 C 1113.54 654.584 1083.15 666.304 1066.71 668.384 C 1038.16 672.148 1009.23 665.444 986.518 647.428 C 978.947 641.423 971.34 632.489 964.129 627.382 z" fill="rgb(58,36,32)" transform="translate(0,0)"></path>
<path d="M 1021.8 596.872 C 1017.79 601.708 1014.54 605.582 1012.31 611.61 C 1002.63 637.725 1022.6 663.504 1050.28 659.803 C 1060.02 658.463 1068.8 653.216 1074.6 645.269 C 1080.3 637.59 1082.45 627.85 1080.53 618.485 C 1078.87 610.077 1076.05 607.358 1071.78 600.237 C 1092.18 608.439 1111.62 620.113 1122.78 639.981 C 1113.54 654.584 1083.15 666.304 1066.71 668.384 C 1038.16 672.148 1009.23 665.444 986.518 647.428 C 978.947 641.423 971.34 632.489 964.129 627.382 C 985.869 610.387 996.337 605.766 1021.8 596.872 z" fill="rgb(245,237,230)" transform="translate(0,0)"></path>
<path d="M 1065.81 609.074 C 1068.4 609 1074.51 608.09 1075.82 611.112 C 1079.47 619.471 1078.37 624.189 1071.25 628.587 C 1057.63 627.265 1054.56 617.189 1065.81 609.074 z" fill="rgb(245,237,230)" transform="translate(0,0)"></path>
<path d="M 1044.25 505.373 C 1072.6 503.421 1095.41 511.261 1121.73 521.623 C 1142.73 529.89 1149.34 550.968 1131.34 566.688 C 1120.25 576.375 1101.19 566.067 1088.91 561.888 C 1072.66 556.357 1056.6 550.431 1038.97 548.995 C 1002.45 543.836 970.186 557.583 937.866 572.093 C 968.304 538.658 997.282 511.157 1044.25 505.373 z" fill="rgb(43,16,22)" transform="translate(0,0)"></path>
<path d="M 734.914 678.231 C 744.428 677.386 751.771 677.26 761.011 678.755 C 787.682 683.071 808.288 702.501 810.718 730 C 811.867 743.003 808.18 752.869 803.407 764.576 C 797.844 762.674 797.816 761.954 800.34 756.608 C 805.641 745.379 806.015 736.663 803.908 724.505 C 798.976 696.042 771.063 682.178 744.281 683.029 C 740.365 683.153 735.529 684.299 735.109 679.814 L 734.914 678.231 z" fill="rgb(43,16,22)" transform="translate(0,0)"></path>
<path d="M 838.711 1068.08 C 845.17 1072.32 852.173 1076.52 858.765 1080.62 C 866.715 1086.82 896.019 1103.59 906.112 1109.67 L 995.817 1163.79 C 1034.87 1186.99 1073.23 1211.53 1112.33 1234.66 C 1120.88 1239.72 1129.34 1245.32 1138.06 1250.05 C 1150.43 1237.27 1164.95 1215.48 1176.97 1201.27 C 1180.42 1197.19 1201.65 1170.95 1203.16 1168.07 C 1209.83 1159.19 1218.93 1146.27 1225.87 1138.07 C 1228.13 1144.3 1238.95 1174.22 1241.77 1178.63 C 1253.13 1213.26 1268.25 1248.66 1281.38 1282.7 C 1284.1 1289.75 1296.03 1321.85 1299.43 1326.54 C 1301.96 1329.46 1302.57 1331.17 1304.28 1334.7 C 1300.05 1348.17 1295.61 1366.14 1292.71 1380.07 C 1296.35 1387.93 1304.11 1417.28 1306.86 1426.93 L 1333.85 1521.32 L 1391.93 1723.22 C 1413.71 1801.73 1431.78 1863.61 1435.57 1946.13 C 1437.44 1977.32 1437.03 2016.82 1433.39 2048 L 1306.58 2048 L 1300.37 2048 L 1154.44 2048 C 1146.96 2011.93 1140.56 1988.02 1129.21 1952.88 L 1120.44 1929.42 C 1117.45 1921.24 1114.45 1913.01 1111.66 1904.77 C 1093.39 1850.78 1070.66 1798.51 1048.84 1745.86 L 949.521 1509.03 L 906.014 1406.47 C 898.071 1387.88 888.244 1366.9 881.48 1348.12 C 877.704 1344.07 877.13 1342.5 877.367 1337 C 874.423 1333.9 860.825 1300.1 858.417 1294.31 C 845.711 1263.94 832.759 1233.69 819.561 1203.53 C 814.917 1192.64 806.639 1170.27 801.677 1161.12 C 806.678 1146.38 813.098 1131.33 818.933 1116.79 C 825.351 1100.81 831.64 1083.71 838.711 1068.08 z" fill="rgb(245,237,230)" transform="translate(0,0)"></path>
<path d="M 838.711 1068.08 C 845.17 1072.32 852.173 1076.52 858.765 1080.62 C 866.715 1086.82 896.019 1103.59 906.112 1109.67 L 995.817 1163.79 C 1034.87 1186.99 1073.23 1211.53 1112.33 1234.66 C 1120.88 1239.72 1129.34 1245.32 1138.06 1250.05 C 1150.43 1237.27 1164.95 1215.48 1176.97 1201.27 C 1180.42 1197.19 1201.65 1170.95 1203.16 1168.07 C 1209.83 1159.19 1218.93 1146.27 1225.87 1138.07 C 1228.13 1144.3 1238.95 1174.22 1241.77 1178.63 C 1253.13 1213.26 1268.25 1248.66 1281.38 1282.7 C 1284.1 1289.75 1296.03 1321.85 1299.43 1326.54 C 1297.85 1338.63 1289.08 1372.3 1285.4 1385.44 C 1279.73 1405.69 1273.81 1434.45 1267.7 1453.45 C 1255.78 1436.59 1243.25 1416.25 1231.92 1398.66 L 1172.58 1306.73 C 1165.3 1295.49 1146.73 1264.12 1139.78 1256.76 C 1135.92 1263.68 1132.15 1272.08 1129.09 1279.44 C 1100.6 1348.08 1069.58 1415.6 1040.9 1484.15 C 999.299 1447.22 957.968 1409.99 916.911 1372.46 C 910.366 1366.56 881.748 1339.52 877.367 1337 C 874.423 1333.9 860.825 1300.1 858.417 1294.31 C 845.711 1263.94 832.759 1233.69 819.561 1203.53 C 814.917 1192.64 806.639 1170.27 801.677 1161.12 C 806.678 1146.38 813.098 1131.33 818.933 1116.79 C 825.351 1100.81 831.64 1083.71 838.711 1068.08 z" fill="rgb(245,237,230)" transform="translate(0,0)"></path>
<path d="M 1316.9 1981.91 C 1317.22 1953.36 1317.88 1930.89 1312.23 1902.08 C 1306.67 1873.75 1297.74 1847.57 1288.84 1820.19 L 1264.98 1744.72 C 1235.76 1652.92 1208.83 1560.41 1184.22 1467.26 C 1173.83 1425.75 1163.74 1384.17 1153.93 1342.52 C 1151.29 1331.42 1135.87 1276.46 1140.58 1268.46 C 1143.67 1269.13 1255.61 1447.35 1269.42 1467.18 C 1277.3 1444.64 1285.58 1405.01 1292.71 1380.07 C 1296.35 1387.93 1304.11 1417.28 1306.86 1426.93 L 1333.85 1521.32 L 1391.93 1723.22 C 1413.71 1801.73 1431.78 1863.61 1435.57 1946.13 C 1437.44 1977.32 1437.03 2016.82 1433.39 2048 L 1306.58 2048 C 1311.45 2023.31 1314.03 2006.73 1316.9 1981.91 z" fill="rgb(245,237,230)" transform="translate(0,0)"></path>
<path d="M 1040.9 1484.15 C 1069.58 1415.6 1100.6 1348.08 1129.09 1279.44 C 1132.15 1272.08 1135.92 1263.68 1139.78 1256.76 C 1146.73 1264.12 1165.3 1295.49 1172.58 1306.73 L 1231.92 1398.66 C 1243.25 1416.25 1255.78 1436.59 1267.7 1453.45 C 1273.81 1434.45 1279.73 1405.69 1285.4 1385.44 C 1289.08 1372.3 1297.85 1338.63 1299.43 1326.54 C 1301.96 1329.46 1302.57 1331.17 1304.28 1334.7 C 1300.05 1348.17 1295.61 1366.14 1292.71 1380.07 C 1285.58 1405.01 1277.3 1444.64 1269.42 1467.18 C 1255.61 1447.35 1143.67 1269.13 1140.58 1268.46 C 1135.87 1276.46 1151.29 1331.42 1153.93 1342.52 C 1163.74 1384.17 1173.83 1425.75 1184.22 1467.26 C 1208.83 1560.41 1235.76 1652.92 1264.98 1744.72 L 1288.84 1820.19 C 1297.74 1847.57 1306.67 1873.75 1312.23 1902.08 C 1317.88 1930.89 1317.22 1953.36 1316.9 1981.91 C 1314.03 2006.73 1311.45 2023.31 1306.58 2048 L 1300.37 2048 C 1304.72 2028.62 1307.46 2013.53 1310.03 1993.84 C 1317.23 1922.25 1302.25 1881.47 1281.43 1815.14 L 1238.22 1677.75 C 1198.08 1547.39 1163.43 1415.42 1134.36 1282.16 C 1124.83 1302.42 1115.24 1327.09 1106.11 1348.03 L 1042.84 1492.33 C 1030.53 1483.68 1010.21 1463.69 997.879 1453.16 C 958.663 1419.69 920.459 1381.44 881.48 1348.12 C 877.704 1344.07 877.13 1342.5 877.367 1337 C 881.748 1339.52 910.366 1366.56 916.911 1372.46 C 957.968 1409.99 999.299 1447.22 1040.9 1484.15 z" fill="rgb(58,36,32)" transform="translate(0,0)"></path>
<path d="M 656.012 1256.57 C 665.974 1245.58 678.717 1233.89 689.395 1223.15 L 743.358 1168.31 C 752.469 1159.19 777.491 1132.29 786.167 1125.64 C 789.504 1133.53 797.198 1155.23 801.677 1161.12 C 806.639 1170.27 814.917 1192.64 819.561 1203.53 C 832.759 1233.69 845.711 1263.94 858.417 1294.31 C 860.825 1300.1 874.423 1333.9 877.367 1337 C 877.13 1342.5 877.704 1344.07 881.48 1348.12 C 888.244 1366.9 898.071 1387.88 906.014 1406.47 L 949.521 1509.03 L 1048.84 1745.86 C 1070.66 1798.51 1093.39 1850.78 1111.66 1904.77 C 1114.45 1913.01 1117.45 1921.24 1120.44 1929.42 L 1129.21 1952.88 C 1140.56 1988.02 1146.96 2011.93 1154.44 2048 L 997.365 2048 C 989.531 2036.35 972.823 2016.83 963.563 2005.37 L 779.964 1777.33 C 740.387 1728.08 699.502 1678.78 661.189 1628.65 C 673.768 1621.68 690.961 1608.39 707.32 1597.67 C 774.8 1553.48 843.682 1507.22 910.29 1461.71 C 911.111 1461.15 910.567 1459.43 910.407 1458.1 L 908.636 1457.58 C 902.391 1460.37 873.572 1480.59 865.353 1486.14 L 784.81 1539.6 C 771.698 1537.31 755.675 1535.98 742.063 1534.1 C 713.576 1530.16 684.818 1526.36 656.189 1523.79 C 655.096 1434.72 655.037 1345.65 656.012 1256.57 z" fill="rgb(255,90,31)" transform="translate(0,0)"></path>
<path d="M 1241.77 1178.63 C 1285.04 1202.2 1313.57 1223.44 1352.64 1252.76 C 1396.34 1285.55 1411.11 1307.76 1444.56 1350.1 C 1478.24 1393.15 1512.17 1436 1546.35 1478.65 C 1531.74 1487.89 1497.21 1511.33 1483.43 1517.97 C 1463.43 1511.98 1339.91 1463.28 1331.45 1463.33 L 1330.46 1464.76 C 1332.01 1468.34 1337.32 1470.32 1340.86 1471.65 C 1434.32 1506.8 1529.56 1538.68 1622.65 1574.82 C 1625.53 1625.94 1625.98 1671.9 1619.22 1722.89 C 1614 1762.25 1603.96 1796.68 1594.42 1835.16 C 1576.89 1905.84 1555.4 1977.32 1538.32 2048 L 1433.39 2048 C 1437.03 2016.82 1437.44 1977.32 1435.57 1946.13 C 1431.78 1863.61 1413.71 1801.73 1391.93 1723.22 L 1333.85 1521.32 L 1306.86 1426.93 C 1304.11 1417.28 1296.35 1387.93 1292.71 1380.07 C 1295.61 1366.14 1300.05 1348.17 1304.28 1334.7 C 1302.57 1331.17 1301.96 1329.46 1299.43 1326.54 C 1296.03 1321.85 1284.1 1289.75 1281.38 1282.7 C 1268.25 1248.66 1253.13 1213.26 1241.77 1178.63 z" fill="rgb(255,90,31)" transform="translate(0,0)"></path>
<path d="M 1490.92 1609.12 C 1512.82 1614.66 1531.56 1623.71 1543.91 1643.61 C 1568.46 1683.16 1531.44 1708.83 1523.61 1744.56 C 1519.01 1765.55 1522.76 1781.23 1534.06 1799.05 C 1485.31 1800.18 1454.35 1759.37 1464.73 1713.19 C 1471.11 1684.79 1476.29 1679.96 1471.35 1649.82 C 1485.36 1663.8 1490.37 1672.3 1490.95 1692.43 C 1490.33 1695.96 1489.73 1695.25 1490.91 1697.43 C 1493.05 1695.29 1493.01 1694.5 1493.95 1691.61 C 1507.67 1660.53 1508.42 1639.05 1490.92 1609.12 z" fill="url(#Gradient4)" transform="translate(0,0)"></path>
<path d="M 1568.34 1680.45 C 1571.04 1682.54 1575.15 1687.35 1577.1 1690.26 C 1601.74 1726.9 1596.24 1765.3 1561.15 1790.78 C 1559.97 1791.56 1558.19 1792.32 1556.92 1792.94 C 1552.69 1791.62 1550.03 1786.83 1547.84 1782.73 C 1525.29 1740.6 1558.95 1715.67 1568.34 1680.45 z" fill="rgb(255,209,102)" transform="translate(0,0)"></path>
<path d="M 1698.1 1388.82 C 1703.86 1388.94 1709.15 1388.82 1714.8 1389.94 C 1750.89 1389.98 1782.04 1409.6 1808.2 1432.6 L 1812.07 1434.69 C 1813.68 1439.01 1818.99 1444.77 1821.88 1448.98 C 1831.01 1462.28 1838.96 1476.51 1843.46 1492.1 C 1848.81 1515.52 1851.73 1543.54 1854.87 1567.72 L 1873.55 1718.88 L 1899.08 1924.43 C 1904.58 1965.54 1909.44 2006.74 1913.66 2048 L 1895.14 2048 L 1871.02 2048 L 1766.1 2048 C 1767.71 2044.96 1769.61 2039.96 1770.79 2036.7 C 1792.8 1976.28 1783.75 1916.99 1757.23 1859.89 C 1750.19 1844.74 1741.37 1829.8 1734.61 1814.97 C 1734.34 1806.37 1726.39 1783.94 1724.26 1773.33 C 1720.15 1762.15 1715.49 1747.45 1717.74 1736 C 1719.91 1724.96 1719.25 1681.24 1722.76 1673.09 C 1723 1658.64 1725.47 1634.39 1726.51 1619.39 C 1731.96 1540.71 1732.88 1493.7 1708.4 1419.15 C 1708.57 1418.95 1708.74 1404.39 1717.41 1400.65 L 1718.69 1400.05 C 1715.08 1397.92 1698.97 1391.04 1698.1 1388.82 z" fill="url(#Gradient3)" transform="translate(0,0)"></path>
<path d="M 1698.1 1388.82 C 1703.86 1388.94 1709.15 1388.82 1714.8 1389.94 C 1750.89 1389.98 1782.04 1409.6 1808.2 1432.6 L 1812.07 1434.69 C 1813.68 1439.01 1818.99 1444.77 1821.88 1448.98 C 1831.01 1462.28 1838.96 1476.51 1843.46 1492.1 C 1848.81 1515.52 1851.73 1543.54 1854.87 1567.72 L 1873.55 1718.88 L 1899.08 1924.43 C 1904.58 1965.54 1909.44 2006.74 1913.66 2048 L 1895.14 2048 L 1871.02 2048 C 1868.75 2032.95 1867.3 2016.26 1865.18 2000.81 L 1847.38 1873.65 L 1821.29 1690.4 L 1806.51 1586.7 C 1796.1 1508.9 1794.19 1445.29 1718.69 1400.05 C 1715.08 1397.92 1698.97 1391.04 1698.1 1388.82 z" fill="rgb(245,237,230)" transform="translate(0,0)"></path>
<path d="M 1714.8 1389.94 C 1750.89 1389.98 1782.04 1409.6 1808.2 1432.6 L 1812.07 1434.69 C 1813.68 1439.01 1818.99 1444.77 1821.88 1448.98 C 1831.01 1462.28 1838.96 1476.51 1843.46 1492.1 C 1848.81 1515.52 1851.73 1543.54 1854.87 1567.72 L 1873.55 1718.88 L 1899.08 1924.43 C 1904.58 1965.54 1909.44 2006.74 1913.66 2048 L 1895.14 2048 C 1891.87 2011.28 1886.79 1975.27 1882.77 1938.7 L 1854.09 1687.19 L 1839.99 1563.65 C 1836.32 1532.91 1835.05 1500.61 1821.57 1472.51 C 1806.65 1441.4 1779.61 1416.52 1748.61 1401.73 C 1738.31 1396.81 1725.68 1393.72 1714.8 1389.94 z" fill="rgb(255,209,102)" transform="translate(0,0)"></path>
<path d="M 1722.76 1673.09 C 1727.04 1676.55 1721.89 1677.54 1723.38 1683.51 C 1725.53 1693.09 1723.14 1700.38 1724.21 1709.51 C 1725.08 1717.03 1723.52 1727.7 1723.56 1735.56 C 1723.6 1743.15 1728.11 1754.48 1724.7 1761.7 C 1722.48 1766.41 1724.43 1767.41 1724.26 1773.33 C 1720.15 1762.15 1715.49 1747.45 1717.74 1736 C 1719.91 1724.96 1719.25 1681.24 1722.76 1673.09 z" fill="rgb(255,90,31)" transform="translate(0,0)"></path>
<path d="M 1631 1633.38 C 1634.59 1637.33 1635.07 1638.67 1637.36 1643.56 C 1652.81 1671.62 1670.71 1698.73 1685.68 1727.15 C 1688.65 1732.8 1691.95 1738.7 1695.44 1744.05 C 1707.57 1767.6 1721.73 1791.64 1734.61 1814.97 C 1741.37 1829.8 1750.19 1844.74 1757.23 1859.89 C 1783.75 1916.99 1792.8 1976.28 1770.79 2036.7 C 1769.61 2039.96 1767.71 2044.96 1766.1 2048 L 1726.36 2048 L 1564.57 2048 L 1544.04 2048 L 1546.47 2038.01 C 1550.04 2026.48 1553.73 2010.33 1556.83 1998.37 L 1576.84 1922.09 C 1593.38 1859.82 1612.05 1794.17 1623.24 1730.75 C 1628.47 1701.09 1629.76 1665.59 1631.1 1635.38 L 1631 1633.38 z" fill="rgb(255,90,31)" transform="translate(0,0)"></path>
<path d="M 1631 1633.38 C 1634.59 1637.33 1635.07 1638.67 1637.36 1643.56 C 1652.81 1671.62 1670.71 1698.73 1685.68 1727.15 C 1688.65 1732.8 1691.95 1738.7 1695.44 1744.05 C 1707.57 1767.6 1721.73 1791.64 1734.61 1814.97 C 1741.37 1829.8 1750.19 1844.74 1757.23 1859.89 C 1783.75 1916.99 1792.8 1976.28 1770.79 2036.7 C 1769.61 2039.96 1767.71 2044.96 1766.1 2048 L 1726.36 2048 C 1770.53 1931.05 1719.75 1855.83 1678.17 1748.9 C 1664.95 1714.91 1650.46 1678.44 1635.75 1645.31 L 1631.1 1635.38 L 1631 1633.38 z" fill="rgb(245,237,230)" transform="translate(0,0)"></path>
<path d="M 1404.72 1291.53 C 1436.58 1301.11 1464.17 1312.28 1495.06 1322.78 C 1558.61 1344.38 1623.14 1368.2 1687.01 1388.34 C 1731.11 1473.06 1726.89 1537.55 1720.3 1630.39 C 1718.06 1661.87 1716.04 1695.07 1713.04 1726.39 C 1712.98 1729.36 1713.55 1731.44 1712.09 1733.23 L 1710.25 1730.04 C 1701.7 1709.71 1683.62 1669.66 1677.44 1650.4 L 1675.71 1648.96 L 1673.55 1649.34 C 1669.37 1656.4 1693.57 1731.67 1695.44 1744.05 C 1691.95 1738.7 1688.65 1732.8 1685.68 1727.15 C 1670.71 1698.73 1652.81 1671.62 1637.36 1643.56 C 1635.07 1638.67 1634.59 1637.33 1631 1633.38 C 1630.04 1612.54 1628.88 1591.71 1627.51 1570.9 L 1490.93 1520.71 C 1508.28 1506.96 1535.09 1491.97 1554.21 1478.81 C 1530.21 1453.35 1504.08 1417.13 1481.72 1388.96 L 1429.88 1323.29 C 1422.43 1313.86 1411.31 1300.86 1404.72 1291.53 z" fill="rgb(255,90,31)" transform="translate(0,0)"></path>
<path d="M 742.154 784.267 C 771.493 776.027 807.326 782.712 833.484 797.717 C 836.4 799.39 846.616 805.808 848.397 808.271 C 867.752 824.598 888.854 852.527 893.547 877.901 C 895.578 884.597 897.439 910.465 899.648 911.874 L 898.354 913.649 C 897.23 924.41 896.782 930.389 894.449 940.927 C 889.514 961.398 881.469 976.683 869.307 993.771 C 865.584 999.002 863.647 1001.37 862.52 1007.72 L 861.357 1004.44 C 847.977 1014.21 835.434 1027.92 818.055 1033.44 C 811.777 1036.68 803.258 1039.21 796.364 1040.71 C 762.235 1048.18 726.537 1041.74 697.167 1022.82 C 668.017 1003.8 647.713 973.875 640.798 939.759 C 633.753 905.345 640.517 869.542 659.632 840.07 C 679.626 809.634 706.701 791.633 742.154 784.267 z" fill="url(#Gradient2)" transform="translate(0,0)"></path>
<path d="M 893.547 877.901 C 895.578 884.597 897.439 910.465 899.648 911.874 L 898.354 913.649 C 897.23 924.41 896.782 930.389 894.449 940.927 C 888.847 936.864 895.455 922.204 892.767 913.502 C 891.332 908.857 894.076 894.93 892.792 888.509 C 892.58 887.45 893.129 879.314 893.547 877.901 z" fill="rgb(148,87,40)" transform="translate(0,0)"></path>
<path d="M 823.563 999.388 C 778.893 1028.13 719.709 1018.32 686.703 976.7 C 653.697 935.081 657.626 875.218 695.787 838.27 C 733.949 801.322 793.908 799.329 834.438 833.662 C 859.426 854.828 872.9 886.588 870.755 919.265 C 868.611 951.942 851.102 981.668 823.563 999.388 z" fill="rgb(43,16,22)" transform="translate(0,0)"></path>
<path d="M 899.648 911.874 C 900.782 913.358 901.828 914.811 902.918 916.324 L 902.12 917.852 C 949.438 1033.33 1077.37 1130.33 1202.75 1137.26 C 1202.68 1145.31 1202.13 1160.63 1203.16 1168.07 C 1201.65 1170.95 1180.42 1197.19 1176.97 1201.27 C 1164.95 1215.48 1150.43 1237.27 1138.06 1250.05 C 1129.34 1245.32 1120.88 1239.72 1112.33 1234.66 C 1073.23 1211.53 1034.87 1186.99 995.817 1163.79 L 906.112 1109.67 C 896.019 1103.59 866.715 1086.82 858.765 1080.62 C 858.822 1059.51 860.203 1028.79 862.52 1007.72 C 863.647 1001.37 865.584 999.002 869.307 993.771 C 881.469 976.683 889.514 961.398 894.449 940.927 C 896.782 930.389 897.23 924.41 898.354 913.649 L 899.648 911.874 z" fill="rgb(255,140,66)" transform="translate(0,0)"></path>
<path d="M 899.648 911.874 C 900.782 913.358 901.828 914.811 902.918 916.324 L 902.12 917.852 C 900.85 916.464 899.595 915.063 898.354 913.649 L 899.648 911.874 z" fill="rgb(185,106,41)" transform="translate(0,0)"></path>
<path d="M 1368.62 820.021 C 1399.96 829.461 1425.4 843.747 1441.34 873.916 C 1454.3 898.882 1456.86 927.96 1448.45 954.804 C 1440.21 981.14 1421.81 1003.11 1397.33 1015.84 C 1392.84 1018.16 1388.27 1020.29 1383.62 1022.24 C 1336.02 1034.62 1314.25 1025.79 1276.5 998.542 C 1292.75 982.907 1302.04 972.818 1315.63 954.407 C 1339.6 921.947 1363.28 860.972 1367.2 820.343 L 1368.62 820.021 z" fill="rgb(43,16,22)" transform="translate(0,0)"></path>
<path d="M 1367.2 820.343 C 1367.21 812.525 1369.99 801.503 1371.24 793.64 C 1372.73 793.891 1373.39 793.98 1374.76 794.343 C 1410.96 802.386 1440.29 819.522 1460.56 851.369 C 1479.34 881.448 1485.35 917.78 1477.23 952.303 C 1469.09 988.203 1446.68 1017.84 1415.46 1036.91 C 1408.63 1041.08 1396.93 1047 1389.06 1048.48 C 1390.62 1044.86 1412.82 1038.27 1420.54 1031.23 C 1421.3 1022.9 1421.26 1009.57 1421.49 1000.97 C 1412.58 1008.93 1396.16 1022.05 1383.62 1022.24 C 1388.27 1020.29 1392.84 1018.16 1397.33 1015.84 C 1421.81 1003.11 1440.21 981.14 1448.45 954.804 C 1456.86 927.96 1454.3 898.882 1441.34 873.916 C 1425.4 843.747 1399.96 829.461 1368.62 820.021 L 1367.2 820.343 z" fill="url(#Gradient1)" transform="translate(0,0)"></path>
<path d="M 1367.2 820.343 C 1367.21 812.525 1369.99 801.503 1371.24 793.64 C 1372.73 793.891 1373.39 793.98 1374.76 794.343 C 1370.7 796.859 1369.28 814.882 1368.62 820.021 L 1367.2 820.343 z" fill="rgb(255,90,31)" transform="translate(0,0)"></path>
<path d="M 1276.5 998.542 C 1314.25 1025.79 1336.02 1034.62 1383.62 1022.24 C 1396.16 1022.05 1412.58 1008.93 1421.49 1000.97 C 1421.26 1009.57 1421.3 1022.9 1420.54 1031.23 C 1412.82 1038.27 1390.62 1044.86 1389.06 1048.48 C 1377.37 1053.06 1357.96 1055.21 1345.5 1054.79 C 1310.13 1053.61 1280.92 1040.01 1256.85 1014.47 C 1262.95 1010.27 1271.76 1004.03 1276.5 998.542 z" fill="rgb(255,209,102)" transform="translate(0,0)"></path>
<path d="M 1322.8 156.368 C 1327.6 155.715 1327.92 155.806 1332.87 157.204 C 1360.47 164.515 1379.34 177.698 1393.72 202.397 L 1394.2 203.216 C 1386.38 202.638 1383.26 203.036 1375.56 204.068 C 1363.72 184.848 1350.54 169.731 1330.02 159.485 C 1327.58 158.548 1325.21 157.4 1322.8 156.368 z" fill="rgb(245,237,230)" transform="translate(0,0)"></path>
<path d="M 1708.4 1419.15 C 1706.96 1417.16 1696.34 1393.15 1694.38 1389.21 C 1694.31 1389.06 1694.61 1388.58 1694.9 1388.46 C 1695.97 1387.99 1697.12 1388.48 1698.1 1388.82 C 1698.97 1391.04 1715.08 1397.92 1718.69 1400.05 L 1717.41 1400.65 C 1708.74 1404.39 1708.57 1418.95 1708.4 1419.15 z" fill="rgb(255,90,31)" transform="translate(0,0)"></path>
<metadata><recraft-signature>{"signed_by": "recraft", "signature_b64": "nUUHIHchV/SBRuigGuzB0Jktd0iQxd46jBGO4CCRcB/v5DZv5qc2OJh7lbQqnN3YTC9sy+o+h9cWHmqqCL1mCw==", "signing_algo": "Ed25519", "generation_timestamp": 1783313381, "identifier": "69a99fd6-0a15-4f3c-a926-07e3c0863e4d"}</recraft-signature></metadata></svg>