<svg xmlns="http://www.w3.org/2000/svg" height="896" preserveAspectRatio="none" style="display: block;" version="1.1" viewBox="0 0 2048 1509" width="1216">
<path d="M 0 0 L 2048 0 L 2048 400.904 L 2048 608.886 L 2048 611.097 L 2048 755.952 L 2048 757.33 L 2048 834.93 L 2048 837.137 L 2048 898.088 L 2048 938.008 L 2048 1424.9 L 2048 1426.85 L 2048 1509 L 0 1509 L 0 1404.93 L 0 312.733 L 0 7.6828 L 0 0 z" fill="rgb(43,30,46)" transform="translate(0,0)"></path>
<path d="M 948.887 938.425 L 951.131 938.024 C 968.723 937.984 1149.69 936.977 1153.7 938.902 L 1155.09 938.671 C 1159.36 937.502 1205.44 937.964 1212.77 937.968 L 1364.78 937.926 L 1366.82 938.505 C 1376.12 937.386 1396.82 937.978 1407.2 937.969 L 1486.47 937.934 L 1547.53 937.93 C 1552.78 937.934 1570.67 937.637 1575.06 938.505 L 1576.78 938.56 C 1587.79 937.101 1617.33 937.973 1630.16 937.993 L 1731.11 937.992 C 1745.67 937.987 1770.25 938.709 1784.21 937.667 L 1786.16 938.004 L 1921 937.929 C 1938.34 937.929 1972.4 936.943 1988.9 938.224 L 1990.93 938.174 C 2009.96 937.969 2028.98 937.914 2048 938.008 L 2048 1424.9 L 2048 1426.85 L 2048 1509 L 0 1509 L 0 1404.93 C 11.9536 1401.85 45.2807 1388.21 57.8162 1383.47 L 175.96 1338.85 C 188.134 1334.24 212.021 1324.06 223.522 1321.14 C 244.855 1315.05 281.104 1299.49 303.251 1291.01 C 350.195 1273.49 397.025 1255.68 443.741 1237.56 C 470.423 1227.31 503.264 1213.52 529.701 1204.88 C 528.399 1277.33 531.667 1352.54 530.069 1425.29 L 531.144 1424.42 C 531.772 1408.19 531.273 1388.42 531.257 1371.92 L 531.158 1272.79 L 531.386 937.985 L 736.94 938.035 L 739.076 937.914 L 882.847 937.958 C 894.84 937.954 938.95 937.109 948.887 938.425 z" fill="rgb(245,237,230)" transform="translate(0,0)"></path>
<path d="M 948.887 938.425 L 951.131 938.024 C 968.723 937.984 1149.69 936.977 1153.7 938.902 L 1155.09 938.671 C 1156.15 1040.97 1156.46 1143.27 1156.02 1245.57 C 1156.04 1304.12 1156.95 1366.03 1155.23 1424.4 L 1154.42 1424.67 C 1137.99 1425.55 1116.96 1425.02 1100.15 1425.01 L 1004.67 1424.92 C 994.491 1424.91 959 1424.28 951.007 1425.56 C 948.302 1426.6 927.373 1425.72 923.457 1425.09 C 894.835 1423.45 864.107 1425.67 835.273 1424.82 C 820.974 1424.4 804.792 1424.59 790.526 1425.09 C 774.775 1427.02 753.318 1424.85 736.432 1426.23 C 727.166 1425.03 694.876 1425.79 683.434 1425.79 L 571.672 1425.76 C 563.382 1425.76 535.933 1426.64 530.069 1425.29 L 531.144 1424.42 C 531.772 1408.19 531.273 1388.42 531.257 1371.92 L 531.158 1272.79 L 531.386 937.985 L 736.94 938.035 L 739.076 937.914 L 882.847 937.958 C 894.84 937.954 938.95 937.109 948.887 938.425 z" fill="rgb(255,209,102)" transform="translate(0,0)"></path>
<path d="M 736.94 938.035 L 739.076 937.914 L 738.968 1424.9 C 754.541 1424.91 775.383 1424.32 790.526 1425.09 C 774.775 1427.02 753.318 1424.85 736.432 1426.23 C 727.166 1425.03 694.876 1425.79 683.434 1425.79 L 571.672 1425.76 C 563.382 1425.76 535.933 1426.64 530.069 1425.29 L 531.144 1424.42 C 531.772 1408.19 531.273 1388.42 531.257 1371.92 L 531.158 1272.79 L 531.386 937.985 L 736.94 938.035 z" fill="rgb(245,237,230)" transform="translate(0,0)"></path>
<path d="M 736.94 938.035 L 739.076 937.914 L 738.968 1424.9 C 754.541 1424.91 775.383 1424.32 790.526 1425.09 C 774.775 1427.02 753.318 1424.85 736.432 1426.23 C 727.166 1425.03 694.876 1425.79 683.434 1425.79 L 571.672 1425.76 C 563.382 1425.76 535.933 1426.64 530.069 1425.29 L 531.144 1424.42 C 538.306 1425.6 584.317 1424.96 593.781 1424.95 L 736.918 1424.96 L 736.94 938.035 z" fill="rgb(146,107,52)" transform="translate(0,0)"></path>
<path d="M 951.131 938.024 C 968.723 937.984 1149.69 936.977 1153.7 938.902 L 1155.09 938.671 C 1156.15 1040.97 1156.46 1143.27 1156.02 1245.57 C 1156.04 1304.12 1156.95 1366.03 1155.23 1424.4 L 1154.42 1424.67 C 1137.99 1425.55 1116.96 1425.02 1100.15 1425.01 L 1004.67 1424.92 C 994.491 1424.91 959 1424.28 951.007 1425.56 C 950.065 1263.05 950.106 1100.53 951.131 938.024 z" fill="rgb(245,237,230)" transform="translate(0,0)"></path>
<path d="M 1155.09 938.671 C 1156.15 1040.97 1156.46 1143.27 1156.02 1245.57 C 1156.04 1304.12 1156.95 1366.03 1155.23 1424.4 L 1154.42 1424.67 C 1153.33 1418.2 1153.86 1388.23 1153.87 1380.1 L 1153.92 1283.3 L 1153.7 938.902 L 1155.09 938.671 z" fill="rgb(182,129,46)" transform="translate(0,0)"></path>
<path d="M 948.887 938.425 L 951.131 938.024 C 950.106 1100.53 950.065 1263.05 951.007 1425.56 C 948.302 1426.6 927.373 1425.72 923.457 1425.09 C 931.244 1424.74 940.97 1424.97 948.904 1424.95 L 948.77 1144.4 C 948.827 1076.09 949.624 1006.63 948.887 938.425 z" fill="rgb(146,107,52)" transform="translate(0,0)"></path>
<path d="M 223.522 1321.14 C 244.855 1315.05 281.104 1299.49 303.251 1291.01 C 350.195 1273.49 397.025 1255.68 443.741 1237.56 C 470.423 1227.31 503.264 1213.52 529.701 1204.88 C 528.399 1277.33 531.667 1352.54 530.069 1425.29 C 535.933 1426.64 563.382 1425.76 571.672 1425.76 L 683.434 1425.79 C 694.876 1425.79 727.166 1425.03 736.432 1426.23 C 753.318 1424.85 774.775 1427.02 790.526 1425.09 C 804.792 1424.59 820.974 1424.4 835.273 1424.82 C 864.107 1425.67 894.835 1423.45 923.457 1425.09 C 927.373 1425.72 948.302 1426.6 951.007 1425.56 C 959 1424.28 994.491 1424.91 1004.67 1424.92 L 1100.15 1425.01 C 1116.96 1425.02 1137.99 1425.55 1154.42 1424.67 L 1155.23 1424.4 C 1165.51 1425.83 1198.05 1424.81 1210.66 1424.82 L 1307.38 1424.84 C 1325.83 1424.82 1346.53 1424.3 1364.69 1425.13 L 1365.03 1426.29 L 1367.11 1425.58 C 1377.44 1424.26 1398.71 1424.91 1410.14 1424.92 L 1489.78 1424.88 L 1544.68 1424.88 C 1549.35 1424.88 1566.91 1424.64 1570.39 1425.28 L 1575.04 1424.48 L 1576.72 1424.86 L 1714.86 1424.82 C 1733.85 1424.82 1766.44 1423.75 1783.68 1425.13 L 1784.1 1426.3 C 1791.33 1425.19 1810.79 1425.65 1818.92 1425.65 L 1886.52 1425.67 L 1954.85 1425.71 C 1963.59 1425.72 1982.52 1425.22 1990.71 1426.29 L 1991.54 1425.01 C 2010.36 1424.86 2029.18 1424.82 2048 1424.9 L 2048 1426.85 L 2048 1509 L 0 1509 L 0 1404.93 C 11.9536 1401.85 45.2807 1388.21 57.8162 1383.47 L 175.96 1338.85 C 188.134 1334.24 212.021 1324.06 223.522 1321.14 z" fill="rgb(255,90,31)" transform="translate(0,0)"></path>
<path d="M 1364.78 937.926 L 1366.82 938.505 C 1376.12 937.386 1396.82 937.978 1407.2 937.969 L 1486.47 937.934 L 1547.53 937.93 C 1552.78 937.934 1570.67 937.637 1575.06 938.505 L 1574.93 1230.43 C 1574.91 1293.35 1573.56 1362.08 1575.04 1424.48 L 1570.39 1425.28 C 1566.91 1424.64 1549.35 1424.88 1544.68 1424.88 L 1489.78 1424.88 L 1410.14 1424.92 C 1398.71 1424.91 1377.44 1424.26 1367.11 1425.58 L 1365.03 1426.29 L 1364.69 1425.13 C 1346.53 1424.3 1325.83 1424.82 1307.38 1424.84 L 1210.66 1424.82 C 1198.05 1424.81 1165.51 1425.83 1155.23 1424.4 C 1156.95 1366.03 1156.04 1304.12 1156.02 1245.57 C 1156.46 1143.27 1156.15 1040.97 1155.09 938.671 C 1159.36 937.502 1205.44 937.964 1212.77 937.968 L 1364.78 937.926 z" fill="rgb(255,209,102)" transform="translate(0,0)"></path>
<path d="M 1366.82 938.505 C 1376.12 937.386 1396.82 937.978 1407.2 937.969 L 1486.47 937.934 L 1547.53 937.93 C 1552.78 937.934 1570.67 937.637 1575.06 938.505 L 1574.93 1230.43 C 1574.91 1293.35 1573.56 1362.08 1575.04 1424.48 L 1570.39 1425.28 C 1566.91 1424.64 1549.35 1424.88 1544.68 1424.88 L 1489.78 1424.88 L 1410.14 1424.92 C 1398.71 1424.91 1377.44 1424.26 1367.11 1425.58 L 1367.08 1102.75 L 1367.12 999.323 C 1367.14 979.962 1367.68 957.694 1366.82 938.505 z" fill="rgb(245,237,230)" transform="translate(0,0)"></path>
<path d="M 1364.78 937.926 L 1366.82 938.505 C 1367.68 957.694 1367.14 979.962 1367.12 999.323 L 1367.08 1102.75 L 1367.11 1425.58 L 1365.03 1426.29 L 1364.69 1425.13 C 1366.08 1409.66 1365.08 1379.84 1365.08 1363.59 L 1364.99 1240.97 L 1365.02 1045.67 C 1365.04 1010.53 1365.71 972.933 1364.78 937.926 z" fill="rgb(146,107,52)" transform="translate(0,0)"></path>
<path d="M 1576.78 938.56 C 1587.79 937.101 1617.33 937.973 1630.16 937.993 L 1731.11 937.992 C 1745.67 937.987 1770.25 938.709 1784.21 937.667 C 1785.84 1042.3 1783.89 1149.58 1783.86 1254.32 L 1784 1368.35 C 1784.02 1382.55 1784.88 1412.5 1783.68 1425.13 C 1766.44 1423.75 1733.85 1424.82 1714.86 1424.82 L 1576.72 1424.86 L 1575.04 1424.48 C 1573.56 1362.08 1574.91 1293.35 1574.93 1230.43 L 1575.06 938.505 L 1576.78 938.56 z" fill="rgb(255,209,102)" transform="translate(0,0)"></path>
<path d="M 1575.06 938.505 L 1576.78 938.56 C 1579.03 1022.15 1576.64 1113.96 1576.52 1198.02 L 1576.66 1343.55 C 1576.75 1370.02 1577.48 1398.66 1576.72 1424.86 L 1575.04 1424.48 C 1573.56 1362.08 1574.91 1293.35 1574.93 1230.43 L 1575.06 938.505 z" fill="rgb(182,129,46)" transform="translate(0,0)"></path>
<path d="M 1990.93 938.174 C 2009.96 937.969 2028.98 937.914 2048 938.008 L 2048 1424.9 C 2029.18 1424.82 2010.36 1424.86 1991.54 1425.01 L 1990.99 1424.29 L 1989.44 1422.23 C 1988.3 1413.93 1988.89 1383.9 1988.89 1374.18 L 1988.92 1274.71 L 1988.9 938.224 L 1990.93 938.174 z" fill="rgb(255,209,102)" transform="translate(0,0)"></path>
<path d="M 1990.93 938.174 L 1991.04 1266.14 L 1990.95 1370.85 C 1990.93 1387.09 1990.21 1408.75 1990.99 1424.29 L 1989.44 1422.23 C 1988.3 1413.93 1988.89 1383.9 1988.89 1374.18 L 1988.92 1274.71 L 1988.9 938.224 L 1990.93 938.174 z" fill="rgb(182,129,46)" transform="translate(0,0)"></path>
<path d="M 1784.21 937.667 L 1786.16 938.004 L 1786.1 1424.99 L 1917.25 1424.91 C 1925.38 1424.91 1985.48 1425.93 1988.9 1423.4 L 1989.44 1422.23 L 1990.99 1424.29 L 1991.54 1425.01 L 1990.71 1426.29 C 1982.52 1425.22 1963.59 1425.72 1954.85 1425.71 L 1886.52 1425.67 L 1818.92 1425.65 C 1810.79 1425.65 1791.33 1425.19 1784.1 1426.3 L 1783.68 1425.13 C 1784.88 1412.5 1784.02 1382.55 1784 1368.35 L 1783.86 1254.32 C 1783.89 1149.58 1785.84 1042.3 1784.21 937.667 z" fill="rgb(146,107,52)" transform="translate(0,0)"></path>
<path d="M 746.873 400.391 C 758.06 401.663 780.194 401.03 792.173 401.026 L 883.865 400.988 C 883.807 404.711 883.408 413.204 884.211 416.378 L 888 418.622 C 898.404 425.683 914.277 434.138 925.494 440.509 L 1003.84 484.582 C 1009.48 488.464 1019.49 487.147 1026.58 486.885 C 1064.92 488.376 1111.86 487.277 1150.71 487.296 L 1400.08 487.304 L 1645.13 487.825 C 1685.99 487.808 1735.33 488.956 1775.43 486.948 C 1787.37 487.175 1813.66 489.274 1822.49 483.91 C 1856.36 462.708 1897.96 439.969 1933.06 419.553 C 1935.55 418.549 1935.53 418.354 1937.38 416.527 C 1938.94 412.422 1938.09 405.924 1937.79 401.331 C 1947.79 400.399 1965.43 400.911 1975.93 400.9 L 2048 400.904 L 2048 608.886 L 2048 611.097 L 2048 755.952 L 2048 757.33 L 2048 834.93 L 2048 837.137 L 2048 898.088 L 2048 938.008 C 2028.98 937.914 2009.96 937.969 1990.93 938.174 L 1988.9 938.224 C 1972.4 936.943 1938.34 937.929 1921 937.929 L 1786.16 938.004 L 1784.21 937.667 C 1770.25 938.709 1745.67 937.987 1731.11 937.992 L 1630.16 937.993 C 1617.33 937.973 1587.79 937.101 1576.78 938.56 L 1575.06 938.505 C 1570.67 937.637 1552.78 937.934 1547.53 937.93 L 1486.47 937.934 L 1407.2 937.969 C 1396.82 937.978 1376.12 937.386 1366.82 938.505 L 1364.78 937.926 L 1212.77 937.968 C 1205.44 937.964 1159.36 937.502 1155.09 938.671 L 1153.7 938.902 C 1149.69 936.977 968.723 937.984 951.131 938.024 L 948.887 938.425 C 938.95 937.109 894.84 937.954 882.847 937.958 L 739.076 937.914 L 736.94 938.035 L 531.386 937.985 C 531.894 929.135 530.84 906.751 532.412 899.901 C 534.698 899.124 536.602 898.406 538.839 897.502 L 544.986 895.337 C 597.833 881.13 649.915 865.031 702.475 849.843 C 714.433 846.387 730.377 842.418 741.64 837.673 L 783.859 837.959 C 773.613 842.725 754.919 850.275 761.331 865.461 C 763.617 870.873 773.78 876.371 779.25 878.286 C 777.802 876.529 770.41 871.749 767.796 869.724 C 764.324 866.874 764.122 866.638 761.546 862.951 C 760.496 858.995 761.138 857.492 762.574 853.799 C 765.955 851.502 766.196 850.976 768.79 847.662 C 784.918 836.985 811.592 830.871 830.709 827.342 C 832.255 831.543 832.776 833.446 835.495 837.141 C 829.715 819.05 830.326 813.89 834.79 795.164 L 833.244 794.183 L 832.28 798.078 C 831.427 787.997 832.04 768.313 832.036 757.522 L 746.989 757.188 L 745.513 756.464 C 746.548 698.223 745.947 637.675 745.934 579.282 L 745.607 578.237 C 746.397 563.37 745.931 545.016 745.926 529.917 L 745.891 445.86 C 745.888 438.982 745.267 404.667 746.873 400.391 z" fill="rgb(255,209,102)" transform="translate(0,0)"></path>
<path d="M 746.873 400.391 C 758.06 401.663 780.194 401.03 792.173 401.026 L 883.865 400.988 C 883.807 404.711 883.408 413.204 884.211 416.378 L 888 418.622 C 898.404 425.683 914.277 434.138 925.494 440.509 L 1003.84 484.582 C 1009.48 488.464 1019.49 487.147 1026.58 486.885 C 1064.92 488.376 1111.86 487.277 1150.71 487.296 L 1400.08 487.304 L 1645.13 487.825 C 1685.99 487.808 1735.33 488.956 1775.43 486.948 C 1787.37 487.175 1813.66 489.274 1822.49 483.91 C 1856.36 462.708 1897.96 439.969 1933.06 419.553 C 1935.55 418.549 1935.53 418.354 1937.38 416.527 C 1938.94 412.422 1938.09 405.924 1937.79 401.331 C 1947.79 400.399 1965.43 400.911 1975.93 400.9 L 2048 400.904 L 2048 608.886 C 2043.6 608.976 2040.9 609.826 2037.28 607.988 L 2035.87 605.837 C 2039.29 597.072 2036.68 578.137 2032.79 569.034 C 2026.61 554.907 2015.11 543.783 2000.79 538.07 C 1966.53 524.678 1937.05 543.229 1924.52 575.812 C 1889.21 554.474 1844.54 560.334 1812.08 584.009 C 1781.21 564.823 1735.17 550.612 1699.3 545.149 C 1631.72 534.856 1562.32 550.106 1507.21 591.425 C 1506.13 592.362 1505.14 593.29 1504.1 594.264 L 1503.47 592.997 C 1499.24 595.75 1496.85 597.866 1493.05 601.157 C 1447.19 583.651 1397.21 595.108 1361.36 627.901 C 1357.94 631.027 1357.04 633.668 1352.95 631.125 L 1351.89 633.207 C 1333.91 610.449 1285.2 594.868 1256.59 591.447 L 1258.54 589.984 C 1238.65 588.228 1227.64 588.876 1208.08 592.623 L 1208.04 562.336 C 1203.73 561.657 1174.25 561.764 1168.55 561.976 C 1149.87 562.673 1124.05 560.836 1106.11 562.381 C 1106.94 570.464 1107.85 605.597 1106.44 613.01 C 1103.04 612.096 1101.66 612.117 1098.1 611.915 C 1092.4 611.921 1086.2 611.96 1080.54 611.858 C 1079.78 611.864 1079.02 611.888 1078.26 611.929 C 1051.47 613.186 1029.73 627.318 1012.13 646.507 L 1012.02 616.05 L 966.971 616.44 L 966.898 562.559 C 960.347 563.474 945.787 563.194 938.818 563.19 L 890.831 563.118 C 875.845 563.089 829.823 564.053 817.087 562.508 C 816.847 585.029 816.758 607.552 816.817 630.075 L 803.094 630.182 L 803.088 577.831 L 745.607 578.237 C 746.397 563.37 745.931 545.016 745.926 529.917 L 745.891 445.86 C 745.888 438.982 745.267 404.667 746.873 400.391 z" fill="rgb(255,90,31)" transform="translate(0,0)"></path>
<path d="M 1258.54 589.984 C 1267.44 571.325 1270.2 564.28 1285.36 547.576 C 1305.51 525.363 1340.16 506.882 1370.53 505.827 C 1376.8 505.97 1383.08 505.973 1389.36 505.835 C 1428.2 506.602 1472.37 533.258 1492.85 566.044 C 1495.36 570.067 1498.7 575.199 1500.1 579.642 L 1505.19 590.983 L 1507.21 591.425 C 1506.13 592.362 1505.14 593.29 1504.1 594.264 L 1503.47 592.997 C 1499.24 595.75 1496.85 597.866 1493.05 601.157 C 1447.19 583.651 1397.21 595.108 1361.36 627.901 C 1357.94 631.027 1357.04 633.668 1352.95 631.125 L 1351.89 633.207 C 1333.91 610.449 1285.2 594.868 1256.59 591.447 L 1258.54 589.984 z" fill="rgb(255,209,102)" transform="translate(0,0)"></path>
<path d="M 1258.54 589.984 C 1267.44 571.325 1270.2 564.28 1285.36 547.576 C 1305.51 525.363 1340.16 506.882 1370.53 505.827 C 1376.8 505.97 1383.08 505.973 1389.36 505.835 C 1428.2 506.602 1472.37 533.258 1492.85 566.044 C 1495.36 570.067 1498.7 575.199 1500.1 579.642 L 1498.67 580.234 C 1479.77 546.432 1454.21 523.1 1416.26 512.382 C 1383.08 502.668 1347.36 506.98 1317.45 524.312 C 1290.82 539.589 1272.33 561.817 1260.84 590.032 C 1291.02 595.158 1332.02 607.879 1352.95 631.125 L 1351.89 633.207 C 1333.91 610.449 1285.2 594.868 1256.59 591.447 L 1258.54 589.984 z" fill="rgb(105,68,27)" transform="translate(0,0)"></path>
<path d="M 1498.67 580.234 L 1500.1 579.642 L 1505.19 590.983 L 1507.21 591.425 C 1506.13 592.362 1505.14 593.29 1504.1 594.264 L 1503.47 592.997 C 1503.53 588.923 1500.6 583.993 1498.67 580.234 z" fill="rgb(43,30,46)" transform="translate(0,0)"></path>
<path d="M 1923.45 572.983 C 1929.98 556.449 1939.82 544.003 1956.54 536.874 C 1971.34 530.735 1987.97 530.757 2002.74 536.935 C 2017.5 543.1 2029.17 554.932 2035.12 569.776 C 2039.31 580.494 2040.93 597.035 2037.28 607.988 L 2035.87 605.837 C 2039.29 597.072 2036.68 578.137 2032.79 569.034 C 2026.61 554.907 2015.11 543.783 2000.79 538.07 C 1966.53 524.678 1937.05 543.229 1924.52 575.812 C 1889.21 554.474 1844.54 560.334 1812.08 584.009 C 1781.21 564.823 1735.17 550.612 1699.3 545.149 C 1631.72 534.856 1562.32 550.106 1507.21 591.425 L 1505.19 590.983 C 1555.26 551.065 1618.51 537.075 1681.38 541.192 C 1682.75 541.14 1682.73 541.07 1683.95 541.615 C 1723.8 543.681 1777.13 561.719 1811.68 581.433 C 1847.26 558.062 1884.53 553.561 1923.45 572.983 z" fill="rgb(123,43,24)" transform="translate(0,0)"></path>
<path d="M 1681.38 541.192 C 1682.75 541.14 1682.73 541.07 1683.95 541.615 C 1682.53 541.623 1682.46 541.77 1681.38 541.192 z" fill="rgb(193,56,40)" transform="translate(0,0)"></path>
<path d="M 1370.53 505.827 C 1377.05 504.58 1382.85 504.581 1389.36 505.835 C 1383.08 505.973 1376.8 505.97 1370.53 505.827 z" fill="rgb(193,56,40)" transform="translate(0,0)"></path>
<path d="M 1080.54 611.858 C 1087.18 610.611 1091.47 610.427 1098.1 611.915 C 1092.4 611.921 1086.2 611.96 1080.54 611.858 z" fill="rgb(193,56,40)" transform="translate(0,0)"></path>
<path d="M 741.64 837.673 L 783.859 837.959 C 773.613 842.725 754.919 850.275 761.331 865.461 C 763.617 870.873 773.78 876.371 779.25 878.286 C 800.565 888.411 827.058 890.883 850.038 894.736 C 855.075 895.285 861.358 896.141 866.301 896.231 C 871.104 895.856 874.924 896.947 880.02 896.974 L 879.933 899.028 C 881.925 899.083 883.918 899.098 885.911 899.074 C 907.908 898.851 937.876 900.224 959.119 898.453 L 965.127 896.941 C 967.317 896.697 968.131 896.692 970.335 896.775 C 975.409 897.08 977.758 896.151 982.282 896.287 C 982.31 896.456 982.42 897.442 982.661 897.461 C 994.511 898.393 1020.48 897.289 1031.13 898.16 L 2048 898.088 L 2048 938.008 C 2028.98 937.914 2009.96 937.969 1990.93 938.174 L 1988.9 938.224 C 1972.4 936.943 1938.34 937.929 1921 937.929 L 1786.16 938.004 L 1784.21 937.667 C 1770.25 938.709 1745.67 937.987 1731.11 937.992 L 1630.16 937.993 C 1617.33 937.973 1587.79 937.101 1576.78 938.56 L 1575.06 938.505 C 1570.67 937.637 1552.78 937.934 1547.53 937.93 L 1486.47 937.934 L 1407.2 937.969 C 1396.82 937.978 1376.12 937.386 1366.82 938.505 L 1364.78 937.926 L 1212.77 937.968 C 1205.44 937.964 1159.36 937.502 1155.09 938.671 L 1153.7 938.902 C 1149.69 936.977 968.723 937.984 951.131 938.024 L 948.887 938.425 C 938.95 937.109 894.84 937.954 882.847 937.958 L 739.076 937.914 L 736.94 938.035 L 531.386 937.985 C 531.894 929.135 530.84 906.751 532.412 899.901 C 534.698 899.124 536.602 898.406 538.839 897.502 L 544.986 895.337 C 597.833 881.13 649.915 865.031 702.475 849.843 C 714.433 846.387 730.377 842.418 741.64 837.673 z" fill="rgb(36,84,91)" transform="translate(0,0)"></path>
<path d="M 741.64 837.673 L 783.859 837.959 C 773.613 842.725 754.919 850.275 761.331 865.461 C 763.617 870.873 773.78 876.371 779.25 878.286 C 800.565 888.411 827.058 890.883 850.038 894.736 C 855.075 895.285 861.358 896.141 866.301 896.231 C 866.815 897.1 866.717 896.814 866.8 897.217 C 865.885 898.346 852.059 898.065 849.38 898.058 C 841.079 897.935 831.803 897.728 823.581 898.167 C 732.583 897.645 638.077 896.979 547.207 898.158 C 544.711 898.091 541.4 897.713 538.839 897.502 L 544.986 895.337 C 597.833 881.13 649.915 865.031 702.475 849.843 C 714.433 846.387 730.377 842.418 741.64 837.673 z" fill="rgb(245,237,230)" transform="translate(0,0)"></path>
<path d="M 970.335 896.775 C 975.409 897.08 977.758 896.151 982.282 896.287 C 982.31 896.456 982.42 897.442 982.661 897.461 C 994.511 898.393 1020.48 897.289 1031.13 898.16 C 1016.62 899.672 983.79 898.606 967.513 899.059 L 970.335 896.775 z" fill="rgb(205,181,177)" transform="translate(0,0)"></path>
<path d="M 866.301 896.231 C 871.104 895.856 874.924 896.947 880.02 896.974 L 879.933 899.028 C 862.233 897.743 841.672 900.155 823.581 898.167 C 831.803 897.728 841.079 897.935 849.38 898.058 C 852.059 898.065 865.885 898.346 866.8 897.217 C 866.717 896.814 866.815 897.1 866.301 896.231 z" fill="rgb(156,133,127)" transform="translate(0,0)"></path>
<path d="M 965.127 896.941 C 967.317 896.697 968.131 896.692 970.335 896.775 L 967.513 899.059 C 964.475 898.979 962.108 898.766 959.119 898.453 L 965.127 896.941 z" fill="rgb(138,115,112)" transform="translate(0,0)"></path>
<path d="M 1934.2 755.989 L 2048 755.952 L 2048 757.33 L 2048 834.93 L 2048 837.137 L 2048 898.088 L 1031.13 898.16 C 1020.48 897.289 994.511 898.393 982.661 897.461 C 982.42 897.442 982.31 896.456 982.282 896.287 C 1005.92 893.972 1054.82 886.838 1073.35 872.079 C 1078.23 868.893 1080.04 867.236 1082.81 862.167 L 1083.95 860.018 C 1084.09 850.721 1076.94 844.768 1069.07 841.373 L 1065.19 839.261 C 1069.1 837.176 1096.26 837.631 1103.16 837.359 C 1131.61 836.842 1160.81 837.803 1188.91 837.142 L 1188.84 835.006 L 1190.14 835.358 C 1214.41 834.503 1250.72 834.261 1274.9 835.32 L 1275.69 834.972 L 1275.97 837.107 L 1366.96 837.069 L 1452.99 837.076 L 1463.1 837.083 L 1480.58 837.148 C 1482.23 849.976 1483.86 865.571 1486.27 878.093 C 1510.08 888.217 1545.21 886.792 1569.83 879.473 C 1570.59 870.998 1572.75 843.948 1574.69 837.089 L 1575.36 835.325 C 1584.4 834.812 1615.38 834.71 1623.7 835.381 L 1624.3 837.113 C 1625.86 843.928 1627.87 870.476 1627.97 878.176 C 1656.09 887.495 1684.88 888.657 1712.81 877.962 C 1713.73 868.889 1715.57 844.255 1717.57 836.882 L 1716.84 834.605 L 1717.94 834.779 C 1725.66 835.932 1755.71 835.178 1765.69 835.375 L 1766.15 837.194 C 1768.79 850.37 1768.35 865.715 1771.38 879.798 C 1794.81 887.661 1831.5 888.085 1854.82 879.158 C 1856.74 864.836 1858.37 851.755 1859.71 837.346 C 1881.46 836.789 1905.3 837.805 1926.53 836.858 L 1927.82 836.933 L 1934.02 837.153 C 1933.41 813.069 1933.32 779.893 1934.2 755.989 z" fill="rgb(245,237,230)" transform="translate(0,0)"></path>
<path d="M 1934.2 755.989 L 2048 755.952 L 2048 757.33 L 2048 834.93 L 2048 837.137 L 2023.14 837.08 L 1934.02 837.153 C 1933.41 813.069 1933.32 779.893 1934.2 755.989 z" fill="rgb(138,115,112)" transform="translate(0,0)"></path>
<path d="M 2048 757.33 L 2048 834.93 L 2048 837.137 L 2023.14 837.08 L 2023.43 835.527 C 2022.63 830.25 2022.86 814.717 2022.85 808.583 L 2022.86 757.504 L 2048 757.33 z" fill="rgb(139,92,246)" transform="translate(0,0)"></path>
<path d="M 1934.88 758.038 L 2020.91 757.854 C 2020.94 783.648 2021.19 809.818 2020.89 835.581 C 2009.25 837.415 1947.42 836.939 1934.77 835.616 L 1934.88 758.038 z" fill="rgb(245,237,230)" transform="translate(0,0)"></path>
<path d="M 1934.77 835.616 C 1947.09 834.281 1967.69 835.032 1980.54 834.922 C 1990.39 834.837 2011.64 834.454 2020.89 835.581 C 2009.25 837.415 1947.42 836.939 1934.77 835.616 z" fill="rgb(205,181,177)" transform="translate(0,0)"></path>
<path d="M 1190.14 835.358 C 1214.41 834.503 1250.72 834.261 1274.9 835.32 L 1275.69 834.972 L 1275.97 837.107 L 1188.91 837.142 L 1188.84 835.006 L 1190.14 835.358 z" fill="rgb(138,115,112)" transform="translate(0,0)"></path>
<path d="M 1190.14 835.358 C 1214.41 834.503 1250.72 834.261 1274.9 835.32 C 1270.82 836.576 1194.98 836.542 1190.14 835.358 z" fill="rgb(205,181,177)" transform="translate(0,0)"></path>
<path d="M 1575.36 835.325 C 1584.4 834.812 1615.38 834.71 1623.7 835.381 L 1624.3 837.113 L 1574.69 837.089 L 1575.36 835.325 z" fill="rgb(156,133,127)" transform="translate(0,0)"></path>
<path d="M 1717.94 834.779 C 1725.66 835.932 1755.71 835.178 1765.69 835.375 L 1766.15 837.194 C 1752.1 837.165 1730.94 837.823 1717.57 836.882 L 1716.84 834.605 L 1717.94 834.779 z" fill="rgb(156,133,127)" transform="translate(0,0)"></path>
<path d="M 1553.81 595.123 L 1572.15 599.282 L 1575.4 601.133 C 1575.72 603.047 1575.9 603.128 1575.42 604.971 C 1572.27 616.08 1569.72 629.323 1567.01 640.729 L 1552.88 699.958 L 1595.22 699.873 C 1594.08 705.413 1595.06 715.584 1593.59 718.714 C 1591.76 719.036 1590.18 719.269 1588.33 719.494 C 1585.17 723.736 1583.95 748.204 1582.96 755.325 C 1594.4 755.173 1605.84 755.098 1617.27 755.1 C 1616.71 748.732 1614.53 724.297 1613.23 719.769 C 1611.28 719.175 1610.41 718.987 1608.41 718.636 C 1608.35 717.158 1608.21 717.019 1608.52 715.606 C 1609.13 713.046 1609.5 709.657 1609.87 706.986 C 1610.08 715.266 1607.56 716.953 1615.38 718.74 L 1615.22 719.61 C 1615.79 725.063 1618.18 751.688 1620.02 754.795 L 1622.75 755.542 C 1630.74 750.945 1645.18 749.734 1654.49 748.866 L 1664.01 748.899 C 1677.52 748.941 1714.25 747.55 1721.77 759.227 L 1723.26 759.062 C 1723.42 767.299 1721.91 768.212 1724.04 775.898 C 1723.35 794.482 1718.92 815.974 1717.94 834.779 L 1716.84 834.605 L 1717.57 836.882 C 1715.57 844.255 1713.73 868.889 1712.81 877.962 C 1684.88 888.657 1656.09 887.495 1627.97 878.176 C 1627.87 870.476 1625.86 843.928 1624.3 837.113 L 1623.7 835.381 C 1615.38 834.71 1584.4 834.812 1575.36 835.325 L 1574.69 837.089 C 1572.75 843.948 1570.59 870.998 1569.83 879.473 C 1545.21 886.792 1510.08 888.217 1486.27 878.093 C 1483.86 865.571 1482.23 849.976 1480.58 837.148 L 1463.1 837.083 L 1452.99 837.076 L 1452.79 834.862 C 1453.45 824.725 1452.82 810.52 1453.13 799.524 C 1452.7 785.742 1452.98 771.08 1453.03 757.23 L 1453.72 756.052 L 1473.9 755.337 C 1472.39 746.485 1472.25 728.808 1469.33 721.072 C 1461.71 717.895 1463.83 707.134 1464.03 699.85 C 1484.82 699.464 1506.66 699.896 1527.53 700.015 C 1537.87 668.324 1541.6 630.263 1553.81 595.123 z" fill="rgb(43,30,46)" transform="translate(0,0)"></path>
<path d="M 1654.49 748.866 L 1664.01 748.899 C 1677.52 748.941 1714.25 747.55 1721.77 759.227 L 1723.26 759.062 C 1723.42 767.299 1721.91 768.212 1724.04 775.898 C 1723.35 794.482 1718.92 815.974 1717.94 834.779 L 1716.84 834.605 C 1714.23 838.65 1712.38 864.58 1711.71 871.256 L 1711.63 874.408 C 1707.77 881.47 1692.55 882.261 1685.36 883.043 C 1666.52 885.092 1648.07 882.329 1630.04 877.008 L 1620.22 767.949 L 1622.95 767.136 C 1622.95 763.076 1622.97 759.586 1622.75 755.542 C 1630.74 750.945 1645.18 749.734 1654.49 748.866 z" fill="rgb(43,30,46)" transform="translate(0,0)"></path>
<path d="M 1721.77 759.227 L 1723.26 759.062 C 1723.42 767.299 1721.91 768.212 1724.04 775.898 C 1723.35 794.482 1718.92 815.974 1717.94 834.779 L 1716.84 834.605 C 1714.23 838.65 1712.38 864.58 1711.71 871.256 L 1711.63 874.408 C 1707.77 881.47 1692.55 882.261 1685.36 883.043 C 1666.52 885.092 1648.07 882.329 1630.04 877.008 L 1620.22 767.949 L 1622.95 767.136 C 1627.79 799.624 1628.25 840.025 1633.53 869.972 C 1649.77 876.117 1697.44 883.89 1708.36 867.302 C 1708.9 864.238 1709.27 861.666 1709.61 858.573 C 1712.09 842.629 1717.58 769.541 1721.77 759.227 z" fill="rgb(139,92,246)" transform="translate(0,0)"></path>
<path d="M 1624.96 759.584 C 1650.65 766.005 1692.92 767.912 1718.32 759.502 C 1716.93 786.817 1710.51 832.304 1707.38 860.764 C 1705.07 884.066 1650.38 873.752 1635.47 868.603 C 1632.76 847.097 1631 824.88 1628.8 803.258 C 1627.47 790.11 1624.93 772.421 1624.96 759.584 z" fill="rgb(139,92,246)" transform="translate(0,0)"></path>
<path d="M 1623.53 756.326 C 1628.98 754.458 1653.4 748.766 1657.94 751.126 C 1658.4 751.914 1658.31 757.731 1658.67 759.777 C 1661.51 756.757 1658.96 752.112 1660.15 751.521 C 1662.54 750.334 1681.33 750.753 1684.37 750.706 C 1683.19 755.105 1682.39 758.359 1680.98 762.741 C 1671.81 762.824 1665.9 762.288 1656.99 761.876 C 1643.06 761.788 1636.56 760.72 1623.53 756.326 z" fill="rgb(139,92,246)" transform="translate(0,0)"></path>
<path d="M 1685.79 750.787 C 1687.07 750.836 1731.92 755.416 1712.8 759.088 C 1701.74 761.302 1694.12 762.118 1682.96 762.931 C 1683.96 758.905 1684.82 754.796 1685.79 750.787 z" fill="rgb(139,92,246)" transform="translate(0,0)"></path>
<path d="M 1583.26 757.005 L 1617.61 756.928 C 1618.35 774.424 1620.75 792.169 1622.11 809.618 C 1622.65 816.532 1624.42 829.18 1623.7 835.381 C 1615.38 834.71 1584.4 834.812 1575.36 835.325 C 1574.44 825.711 1581.77 770.557 1583.26 757.005 z" fill="rgb(245,237,230)" transform="translate(0,0)"></path>
<path d="M 1454.35 757.58 C 1460.81 757.419 1467.45 757.165 1473.89 757.112 C 1474.73 784.211 1479.18 809.785 1480.21 835.821 L 1463.42 836.064 L 1463.1 837.083 L 1452.99 837.076 L 1452.79 834.862 C 1453.45 824.725 1452.82 810.52 1453.13 799.524 C 1455.01 788.747 1452.37 769.289 1454.35 757.58 z" fill="rgb(139,92,246)" transform="translate(0,0)"></path>
<path d="M 1453.13 799.524 C 1455.01 788.747 1452.37 769.289 1454.35 757.58 C 1456.09 769.864 1453.3 821.578 1456.18 835.19 C 1456.35 835.984 1461.21 836.008 1463.42 836.064 L 1463.1 837.083 L 1452.99 837.076 L 1452.79 834.862 C 1453.45 824.725 1452.82 810.52 1453.13 799.524 z" fill="rgb(112,59,162)" transform="translate(0,0)"></path>
<path d="M 1620.02 754.795 L 1622.75 755.542 C 1622.97 759.586 1622.95 763.076 1622.95 767.136 L 1620.22 767.949 C 1620.09 763.566 1620.02 759.181 1620.02 754.795 z" fill="rgb(199,90,202)" transform="translate(0,0)"></path>
<path d="M 1549.46 720.007 L 1585.31 719.523 C 1584.21 729.744 1582.92 746.305 1581.09 755.934 C 1580.09 755.675 1579.17 755.34 1578.19 755.002 L 1578.05 758.972 C 1579.06 760.28 1580.06 761.593 1581.05 762.913 C 1579.47 774.118 1575.96 799.664 1575.68 810.329 C 1575.61 811.272 1575.64 811.15 1575.31 812.033 C 1573.1 831.897 1570.52 852.5 1568.69 872.344 C 1569 874.831 1568.88 874.751 1568.2 877.168 C 1553.91 885.133 1504.63 885.968 1489.53 876.878 C 1486.79 875.224 1486.97 871.874 1486.58 868.985 C 1483.1 846.595 1477.63 796.212 1476.96 773.034 C 1475.82 766.118 1476.39 761.162 1475.73 754.396 C 1474.19 750.611 1472.27 725.88 1471.64 719.961 C 1488.9 719.826 1506.16 719.806 1523.42 719.901 L 1549.46 720.007 z" fill="rgb(43,30,46)" transform="translate(0,0)"></path>
<path d="M 1549.46 720.007 L 1585.31 719.523 C 1584.21 729.744 1582.92 746.305 1581.09 755.934 C 1580.09 755.675 1579.17 755.34 1578.19 755.002 C 1567.83 751.269 1553.62 748.897 1542.54 749.113 L 1540.65 748.239 C 1536.94 749.698 1519.93 748.894 1515.47 748.682 C 1504.36 749.833 1488.36 751.222 1478 755.118 L 1475.73 754.396 C 1474.19 750.611 1472.27 725.88 1471.64 719.961 C 1488.9 719.826 1506.16 719.806 1523.42 719.901 L 1549.46 720.007 z" fill="rgb(245,237,230)" transform="translate(0,0)"></path>
<path d="M 1542.47 738.209 C 1543.37 737.825 1543.55 737.744 1544.38 737.259 C 1544.08 740.455 1543.08 745.63 1542.54 749.113 L 1540.65 748.239 C 1541.15 744.874 1541.86 741.563 1542.47 738.209 z" fill="rgb(205,181,177)" transform="translate(0,0)"></path>
<path d="M 1475.73 754.396 L 1478 755.118 C 1478.62 757.967 1478.74 758.439 1478.72 761.328 C 1483.4 790.638 1484.32 821.945 1488.24 851.49 C 1488.9 856.4 1489.58 862.322 1489.82 867.239 C 1504.31 882.162 1546.65 877.716 1564.37 870.027 C 1566.63 859.328 1567.05 847.953 1568.46 837.198 C 1571.68 812.716 1573.24 783.02 1578.05 758.972 C 1579.06 760.28 1580.06 761.593 1581.05 762.913 C 1579.47 774.118 1575.96 799.664 1575.68 810.329 C 1575.61 811.272 1575.64 811.15 1575.31 812.033 C 1573.1 831.897 1570.52 852.5 1568.69 872.344 C 1569 874.831 1568.88 874.751 1568.2 877.168 C 1553.91 885.133 1504.63 885.968 1489.53 876.878 C 1486.79 875.224 1486.97 871.874 1486.58 868.985 C 1483.1 846.595 1477.63 796.212 1476.96 773.034 C 1475.82 766.118 1476.39 761.162 1475.73 754.396 z" fill="rgb(243,104,146)" transform="translate(0,0)"></path>
<path d="M 1475.73 754.396 L 1478 755.118 C 1478.62 757.967 1478.74 758.439 1478.72 761.328 C 1476.67 761.967 1477.3 770.213 1476.96 773.034 C 1475.82 766.118 1476.39 761.162 1475.73 754.396 z" fill="rgb(247,110,134)" transform="translate(0,0)"></path>
<path d="M 1568.69 872.344 C 1569 874.831 1568.88 874.751 1568.2 877.168 C 1568.1 875.197 1567.68 874.065 1568.69 872.344 z" fill="rgb(186,83,108)" transform="translate(0,0)"></path>
<path d="M 1574.39 759.133 L 1575.27 759.49 C 1575.46 763.763 1574.71 767.948 1574.09 772.164 C 1569.41 804.168 1567.14 836.45 1563.04 868.525 C 1548.15 875.562 1499.41 880.535 1491.25 863.778 C 1491.04 854.706 1488.81 838.15 1487.81 828.478 L 1480.65 759.5 C 1508.81 766.03 1546.71 768.164 1574.39 759.133 z" fill="rgb(247,110,134)" transform="translate(0,0)"></path>
<path d="M 1541 750.38 C 1545.9 750.584 1572.38 752.709 1574.87 755.592 C 1575.26 757.476 1569.61 758.51 1568.29 758.907 C 1559.19 761.181 1547.63 762.495 1538.15 763.066 C 1539.22 758.861 1540.01 754.6 1541 750.38 z" fill="rgb(243,104,146)" transform="translate(0,0)"></path>
<path d="M 1516.99 750.51 L 1539.3 750.51 C 1538.52 754.169 1537.27 759.498 1536.82 763.042 C 1529.31 763.048 1521.79 762.974 1514.28 762.82 C 1514.42 762.157 1514.57 761.494 1514.71 760.83 C 1515.36 757.367 1516.12 753.925 1516.99 750.51 z" fill="rgb(243,104,146)" transform="translate(0,0)"></path>
<path d="M 1505.19 751.405 C 1518.22 748.773 1514.56 752.974 1512.37 762.272 C 1505.8 761.789 1500.37 761.156 1493.82 760.157 C 1488.67 758.968 1483.54 757.912 1478.38 756.701 C 1488.19 754.047 1495.22 752.627 1505.19 751.405 z" fill="rgb(243,104,146)" transform="translate(0,0)"></path>
<path d="M 1547.89 622.704 C 1555.34 619.72 1563.07 617.394 1570.61 614.528 C 1569.8 618.917 1567.74 625.756 1567.64 629.847 C 1567.53 634.158 1563.59 638.485 1563.68 638.999 C 1559.84 640.448 1555.25 642.186 1551.34 643.38 C 1548.07 643.151 1547.67 643.373 1544.44 643.72 C 1544.26 643.738 1543.48 643.657 1543.43 643.417 C 1542.71 638.816 1545.58 633.223 1546.35 628.591 C 1546.62 626.987 1547.45 624.319 1547.89 622.704 z" fill="rgb(255,90,31)" transform="translate(0,0)"></path>
<path d="M 1560.36 648.862 C 1561.16 648.89 1562.06 648.713 1562.62 649.369 C 1562.82 650.618 1558.15 667.016 1557.44 669.125 C 1550.76 671.967 1545.09 673.527 1538.36 675.992 C 1533.08 675.559 1538.71 661.352 1539.63 657.283 C 1546.71 654.355 1553.24 652.179 1560.36 648.862 z" fill="rgb(255,90,31)" transform="translate(0,0)"></path>
<path d="M 1551.37 682.923 C 1556.57 682.299 1551.69 696.68 1551.01 700.008 C 1544.89 700.093 1538.86 700.066 1532.75 700.195 C 1529.07 699.689 1529.02 699.578 1530.19 695.562 C 1532.23 688.554 1544.78 686.173 1551.37 682.923 z" fill="rgb(255,90,31)" transform="translate(0,0)"></path>
<path d="M 1573.23 603.622 C 1572.47 612.876 1572.6 612.188 1564.02 615.311 C 1558.95 617.156 1553.32 618.455 1548.35 620.347 C 1550.13 610.849 1550.29 611.496 1559.74 608.127 C 1564.14 606.56 1568.74 604.994 1573.23 603.622 z" fill="rgb(245,237,230)" transform="translate(0,0)"></path>
<path d="M 1555.14 672.068 C 1558.38 672.925 1554.91 679.008 1555.59 678.469 C 1550.73 682.322 1541.33 685.623 1535.38 687.953 C 1531.09 687.951 1533.95 681.867 1534.79 678.539 C 1542.17 676.34 1547.86 674.494 1555.14 672.068 z" fill="rgb(245,237,230)" transform="translate(0,0)"></path>
<path d="M 1563.68 638.999 C 1571.8 647.511 1539.92 654.202 1541.3 654.571 C 1540.98 654.484 1540.71 654.275 1540.55 653.988 C 1540.22 653.412 1540.95 646.682 1542.64 645.963 C 1545.39 644.796 1548.39 644.26 1551.34 643.38 C 1555.25 642.186 1559.84 640.448 1563.68 638.999 z" fill="rgb(245,237,230)" transform="translate(0,0)"></path>
<path d="M 1535.48 702.016 C 1544.91 702.054 1544.35 700.652 1544.42 710.5 C 1544.47 719.21 1544.24 718.11 1535.66 717.755 C 1534.67 712.454 1534.56 707.323 1535.48 702.016 z" fill="rgb(245,237,230)" transform="translate(0,0)"></path>
<path d="M 1535.66 717.755 C 1534.67 712.454 1534.56 707.323 1535.48 702.016 C 1536.13 707.957 1536.2 711.755 1535.66 717.755 z" fill="rgb(143,142,143)" transform="translate(0,0)"></path>
<path d="M 1525.04 701.983 C 1537.69 702.34 1533.88 703.64 1533.83 717.952 C 1521.31 717.597 1524.94 716.392 1525.04 701.983 z" fill="rgb(245,237,230)" transform="translate(0,0)"></path>
<path d="M 1473.45 717.849 C 1461.38 717.78 1466.44 715.948 1466.43 701.644 C 1466.43 701.304 1473.06 701.434 1473.66 701.43 C 1474.77 706.26 1474.53 713.028 1473.45 717.849 z" fill="rgb(245,237,230)" transform="translate(0,0)"></path>
<path d="M 1474.87 701.375 C 1476.3 701.477 1481.94 701.529 1482.39 702.156 C 1483.59 703.818 1482.92 716.173 1482.81 718.078 C 1470.98 717.392 1474.81 714.624 1474.87 701.375 z" fill="rgb(245,237,230)" transform="translate(0,0)"></path>
<path d="M 1484.99 701.704 C 1496.88 701.893 1493.18 704.448 1493.01 717.882 C 1481.13 717.727 1485.13 714.991 1484.99 701.704 z" fill="rgb(245,237,230)" transform="translate(0,0)"></path>
<path d="M 1504.82 701.965 C 1516.82 702.233 1513.03 704.585 1512.84 717.901 C 1500.86 717.793 1504.75 715.084 1504.82 701.965 z" fill="rgb(245,237,230)" transform="translate(0,0)"></path>
<path d="M 1515 702.003 C 1526.89 702.275 1523.09 704.397 1523.05 717.872 C 1511.3 717.793 1515.01 715.34 1515 702.003 z" fill="rgb(245,237,230)" transform="translate(0,0)"></path>
<path d="M 1555.86 701.868 C 1567.73 702.107 1564 704.408 1563.84 717.918 C 1552.23 717.749 1555.92 715.27 1555.86 701.868 z" fill="rgb(245,237,230)" transform="translate(0,0)"></path>
<path d="M 1565.91 701.928 C 1577.71 702.194 1574.04 704.555 1573.89 717.927 C 1562.22 717.777 1565.99 714.808 1565.91 701.928 z" fill="rgb(245,237,230)" transform="translate(0,0)"></path>
<path d="M 1575.99 701.823 C 1587.7 702.082 1584 704.765 1583.97 717.896 C 1572.18 717.855 1576.1 714.89 1575.99 701.823 z" fill="rgb(245,237,230)" transform="translate(0,0)"></path>
<path d="M 1545.92 701.837 C 1557.53 702.303 1554.47 704.473 1553.74 718.101 C 1542.18 717.334 1545.9 714.835 1545.92 701.837 z" fill="rgb(245,237,230)" transform="translate(0,0)"></path>
<path d="M 1585.57 701.624 C 1597.34 702.616 1591.44 702.515 1592.66 715.035 C 1593.04 718.974 1588.2 717.87 1585.42 717.969 C 1584.56 713.124 1584.38 706.414 1585.57 701.624 z" fill="rgb(245,237,230)" transform="translate(0,0)"></path>
<path d="M 1585.57 701.624 C 1586.29 707.52 1586.17 712.137 1585.42 717.969 C 1584.56 713.124 1584.38 706.414 1585.57 701.624 z" fill="rgb(184,182,190)" transform="translate(0,0)"></path>
<path d="M 1554.82 597.591 C 1560.41 598.371 1566.04 599.19 1571.39 601.058 L 1570.99 602.537 C 1564.35 605.153 1557.79 607.116 1551.11 609.396 C 1552.26 605.447 1553.68 601.522 1554.82 597.591 z" fill="rgb(255,90,31)" transform="translate(0,0)"></path>
<path d="M 1495.02 701.88 C 1506.71 702.097 1502.99 704.744 1502.87 717.883 C 1491.34 717.8 1495.13 714.986 1495.02 701.88 z" fill="rgb(245,237,230)" transform="translate(0,0)"></path>
<path d="M 1578.19 755.002 C 1579.17 755.34 1580.09 755.675 1581.09 755.934 C 1580.96 758.516 1580.98 760.351 1581.05 762.913 C 1580.06 761.593 1579.06 760.28 1578.05 758.972 L 1578.19 755.002 z" fill="rgb(247,110,134)" transform="translate(0,0)"></path>
<path d="M 834.79 795.164 C 845.629 769.325 890.705 688.43 914.733 678.569 C 918.64 676.966 922.329 676.815 926.239 678.493 C 948.207 687.916 991.762 765.543 1000.58 789.83 C 1002.92 796.286 1004.86 802.844 1006.68 809.463 L 1007.66 808.269 C 1008.18 810.12 1008.65 811.981 1009.08 813.853 C 1009.01 818.417 1009.12 822.288 1008.9 826.929 L 1011.04 827.473 C 1023.41 829.193 1034.11 830.827 1046.07 834.467 C 1049.66 835.561 1067.13 841.608 1069.07 841.373 C 1076.94 844.768 1084.09 850.721 1083.95 860.018 L 1082.81 862.167 C 1080.04 867.236 1078.23 868.893 1073.35 872.079 C 1054.82 886.838 1005.92 893.972 982.282 896.287 C 977.758 896.151 975.409 897.08 970.335 896.775 C 968.131 896.692 967.317 896.697 965.127 896.941 L 959.119 898.453 C 937.876 900.224 907.908 898.851 885.911 899.074 C 883.918 899.098 881.925 899.083 879.933 899.028 L 880.02 896.974 C 874.924 896.947 871.104 895.856 866.301 896.231 C 861.358 896.141 855.075 895.285 850.038 894.736 C 827.058 890.883 800.565 888.411 779.25 878.286 C 777.802 876.529 770.41 871.749 767.796 869.724 C 764.324 866.874 764.122 866.638 761.546 862.951 C 760.496 858.995 761.138 857.492 762.574 853.799 C 765.955 851.502 766.196 850.976 768.79 847.662 C 784.918 836.985 811.592 830.871 830.709 827.342 C 832.255 831.543 832.776 833.446 835.495 837.141 C 829.715 819.05 830.326 813.89 834.79 795.164 z" fill="rgb(255,209,102)" transform="translate(0,0)"></path>
<path d="M 1006.68 809.463 L 1007.66 808.269 C 1008.18 810.12 1008.65 811.981 1009.08 813.853 C 1009.01 818.417 1009.12 822.288 1008.9 826.929 L 1011.04 827.473 C 1023.41 829.193 1034.11 830.827 1046.07 834.467 C 1049.66 835.561 1067.13 841.608 1069.07 841.373 C 1076.94 844.768 1084.09 850.721 1083.95 860.018 L 1082.81 862.167 C 1080.04 867.236 1078.23 868.893 1073.35 872.079 C 1054.82 886.838 1005.92 893.972 982.282 896.287 C 977.758 896.151 975.409 897.08 970.335 896.775 C 968.131 896.692 967.317 896.697 965.127 896.941 L 959.119 898.453 C 937.876 900.224 907.908 898.851 885.911 899.074 C 883.918 899.098 881.925 899.083 879.933 899.028 L 880.02 896.974 C 874.924 896.947 871.104 895.856 866.301 896.231 C 861.358 896.141 855.075 895.285 850.038 894.736 C 827.058 890.883 800.565 888.411 779.25 878.286 C 777.802 876.529 770.41 871.749 767.796 869.724 C 764.324 866.874 764.122 866.638 761.546 862.951 C 760.496 858.995 761.138 857.492 762.574 853.799 C 765.955 851.502 766.196 850.976 768.79 847.662 C 784.918 836.985 811.592 830.871 830.709 827.342 C 832.255 831.543 832.776 833.446 835.495 837.141 C 838.108 840.773 838.83 841.828 840.763 845.899 C 848.411 853.444 853.675 857.965 862.904 863.488 C 863.489 863.552 878.277 868.801 879.696 869.445 C 920.449 887.926 1016.76 869.66 1006.68 809.463 z" fill="rgb(28,124,131)" transform="translate(0,0)"></path>
<path d="M 1006.68 809.463 L 1007.66 808.269 C 1008.18 810.12 1008.65 811.981 1009.08 813.853 C 1009.01 818.417 1009.12 822.288 1008.9 826.929 C 1007.07 831.738 1005.98 834.377 1003.59 838.938 C 1015 841.557 1045.95 846.748 1045.08 861.662 C 1041.35 868.853 1029.5 872.931 1022.19 875.038 C 984.949 885.761 943.682 886.386 905.206 885.881 C 872.267 885.448 836.6 882.264 805.884 869.914 C 799.558 867.37 794.54 860.784 798.926 854.875 C 803.869 845.898 833.013 842.64 835.495 837.141 C 838.108 840.773 838.83 841.828 840.763 845.899 C 848.411 853.444 853.675 857.965 862.904 863.488 C 863.489 863.552 878.277 868.801 879.696 869.445 C 920.449 887.926 1016.76 869.66 1006.68 809.463 z" fill="rgb(78,205,196)" transform="translate(0,0)"></path>
<path d="M 1006.68 809.463 L 1007.66 808.269 C 1008.18 810.12 1008.65 811.981 1009.08 813.853 C 1009.01 818.417 1009.12 822.288 1008.9 826.929 C 1007.07 831.738 1005.98 834.377 1003.59 838.938 C 1015 841.557 1045.95 846.748 1045.08 861.662 C 1041.35 868.853 1029.5 872.931 1022.19 875.038 C 984.949 885.761 943.682 886.386 905.206 885.881 C 872.267 885.448 836.6 882.264 805.884 869.914 C 799.558 867.37 794.54 860.784 798.926 854.875 C 803.869 845.898 833.013 842.64 835.495 837.141 C 838.108 840.773 838.83 841.828 840.763 845.899 C 839.45 844.501 838.114 843.126 836.754 841.773 C 828.055 842.499 799.212 850.25 799.65 861.632 C 820.804 893.54 1035.86 890.061 1043.56 860.262 C 1041.46 848.541 1012.98 843.106 1002.63 840.594 C 989.484 860.43 969.844 869.682 946.988 875.083 C 924.391 880.423 883.417 876.509 863.341 864.332 L 862.904 863.488 C 863.489 863.552 878.277 868.801 879.696 869.445 C 920.449 887.926 1016.76 869.66 1006.68 809.463 z" fill="rgb(43,30,46)" transform="translate(0,0)"></path>
<path d="M 887.71 897.063 C 915.404 897.022 936.558 898.208 965.127 896.941 L 959.119 898.453 C 937.876 900.224 907.908 898.851 885.911 899.074 L 887.71 897.063 z" fill="rgb(43,30,46)" transform="translate(0,0)"></path>
<path d="M 1073.35 872.079 C 1075.41 865.995 1077.1 865.463 1082.24 862.502 L 1082.81 862.167 C 1080.04 867.236 1078.23 868.893 1073.35 872.079 z" fill="rgb(36,84,91)" transform="translate(0,0)"></path>
<path d="M 880.02 896.974 C 882.584 896.961 885.147 896.991 887.71 897.063 L 885.911 899.074 C 883.918 899.098 881.925 899.083 879.933 899.028 L 880.02 896.974 z" fill="rgb(118,57,68)" transform="translate(0,0)"></path>
<path d="M 761.546 862.951 C 764.689 865.645 765.51 866.397 767.796 869.724 C 764.324 866.874 764.122 866.638 761.546 862.951 z" fill="rgb(36,84,91)" transform="translate(0,0)"></path>
<path d="M 990.531 822.61 C 993.08 824.941 990.879 825.863 989.072 828.54 C 976.699 846.875 957.449 856.759 936.249 860.519 C 933.131 856.944 940.987 857.756 944.437 856.848 C 965.429 851.327 979.021 840.651 990.531 822.61 z" fill="rgb(43,30,46)" transform="translate(0,0)"></path>
<path d="M 931.467 744.719 C 935.987 746.357 936.898 748.135 939.881 752.359 C 935.137 750.788 934.422 749.259 931.467 744.719 z" fill="rgb(43,30,46)" transform="translate(0,0)"></path>
<path d="M 881.97 765.956 C 883.185 769.241 879.229 772.413 877.041 774.531 C 876.195 771.049 879.648 768.747 881.97 765.956 z" fill="rgb(43,30,46)" transform="translate(0,0)"></path>
<path d="M 970.869 793.932 C 972.189 796.946 968.28 799.433 966.053 801.824 C 963.774 799.808 969.253 795.588 970.869 793.932 z" fill="rgb(43,30,46)" transform="translate(0,0)"></path>
<path d="M 850.177 814.72 C 854.311 816.807 854.835 818.02 857.357 822.239 C 853.256 820.29 852.528 818.758 850.177 814.72 z" fill="rgb(43,30,46)" transform="translate(0,0)"></path>
<path d="M 915.488 721.993 C 915.744 725.578 912.904 726.931 910.24 728.957 C 910.408 726.063 913.257 724.092 915.488 721.993 z" fill="rgb(43,30,46)" transform="translate(0,0)"></path>
<path d="M 936.817 828.688 C 941.137 829.893 941.065 831.042 943.113 835.225 C 939.621 833.354 939.288 832.092 936.817 828.688 z" fill="rgb(43,30,46)" transform="translate(0,0)"></path>
<path d="M 1774.51 598.975 C 1783.57 596.795 1789.35 595.786 1798.6 594.557 C 1803.86 630.238 1812.72 665.932 1817.71 699.897 C 1837.89 700.182 1858.07 700.212 1878.24 699.988 C 1878.33 704.828 1879.26 715.817 1876.28 719.392 C 1874.78 721.19 1872.76 718.91 1872.15 720.892 C 1869.13 730.785 1869.1 745.565 1867.57 755.986 C 1889.78 756.161 1911.99 756.163 1934.2 755.989 C 1933.32 779.893 1933.41 813.069 1934.02 837.153 L 1927.82 836.933 L 1926.53 836.858 C 1905.3 837.805 1881.46 836.789 1859.71 837.346 C 1858.37 851.755 1856.74 864.836 1854.82 879.158 C 1831.5 888.085 1794.81 887.661 1771.38 879.798 C 1768.35 865.715 1768.79 850.37 1766.15 837.194 L 1765.69 835.375 C 1755.71 835.178 1725.66 835.932 1717.94 834.779 C 1718.92 815.974 1723.35 794.482 1724.04 775.898 C 1721.91 768.212 1723.42 767.299 1723.26 759.062 L 1723.6 757.764 L 1723.72 754.02 C 1729.17 755.377 1752.35 755.592 1757.89 754.221 L 1758.9 751.928 C 1758.33 750.115 1758.25 750.228 1758.31 748.468 C 1757.28 740.138 1756.3 732.132 1755.63 723.754 C 1755.08 722.334 1755.1 722.404 1755.04 720.837 C 1752.27 719.816 1750.32 719.797 1749.47 717.41 C 1747.64 712.281 1749.16 705.662 1748.93 699.856 L 1792.67 699.992 C 1789.13 677.801 1785.34 655.651 1781.29 633.546 C 1779.47 623.873 1775.55 607.62 1774.51 598.975 z" fill="rgb(88,84,80)" transform="translate(0,0)"></path>
<path d="M 1867.62 757.49 L 1932.93 757.49 C 1932.9 783.398 1933.12 809.722 1932.72 835.595 L 1927.82 836.933 L 1926.53 836.858 C 1912.23 834.242 1877.11 838.066 1860.09 835.571 C 1863.09 814.63 1866.41 778.862 1867.62 757.49 z" fill="rgb(139,92,246)" transform="translate(0,0)"></path>
<path d="M 1723.26 759.062 L 1723.6 757.764 L 1723.98 758.94 C 1724.15 759.298 1724.31 759.656 1724.48 760.013 C 1725.32 759.763 1725.47 758.973 1725.99 758.163 C 1731.24 756.073 1752.06 756.931 1758.67 757.047 C 1759.45 775.208 1762.46 794.107 1763.96 812.285 C 1764.43 817.952 1766.1 830.075 1765.69 835.375 C 1755.71 835.178 1725.66 835.932 1717.94 834.779 C 1718.92 815.974 1723.35 794.482 1724.04 775.898 C 1721.91 768.212 1723.42 767.299 1723.26 759.062 z" fill="rgb(245,237,230)" transform="translate(0,0)"></path>
<path d="M 1723.26 759.062 L 1723.6 757.764 L 1723.98 758.94 C 1724.15 759.298 1724.31 759.656 1724.48 760.013 C 1725.32 759.763 1725.47 758.973 1725.99 758.163 C 1725.7 762.26 1724.69 772.336 1724.04 775.898 C 1721.91 768.212 1723.42 767.299 1723.26 759.062 z" fill="rgb(112,59,162)" transform="translate(0,0)"></path>
<path d="M 1755.04 720.837 C 1755.8 722.223 1755.66 722.094 1755.63 723.754 C 1755.08 722.334 1755.1 722.404 1755.04 720.837 z" fill="rgb(105,68,27)" transform="translate(0,0)"></path>
<path d="M 1758.31 748.468 C 1759.61 749.599 1759.05 750.274 1758.9 751.928 C 1758.33 750.115 1758.25 750.228 1758.31 748.468 z" fill="rgb(146,107,52)" transform="translate(0,0)"></path>
<path d="M 1756.7 719.709 C 1769.68 719.749 1782.66 719.858 1795.63 720.037 L 1820.43 720.006 L 1869.44 719.945 C 1869.04 731.263 1867.93 744.703 1865.9 755.845 C 1864.54 787.294 1859.04 835.006 1854.87 866.255 L 1853.77 875.672 C 1845.51 889.55 1786.77 882.987 1772.94 878.478 C 1771.48 870.156 1770.6 860.466 1770.03 852.049 C 1768.88 846.722 1766.51 822.239 1766.02 815.879 C 1764.67 798.492 1760.41 772.614 1761.05 756.095 C 1760.18 744.638 1758 731.275 1756.7 719.709 z" fill="rgb(43,30,46)" transform="translate(0,0)"></path>
<path d="M 1756.7 719.709 C 1769.68 719.749 1782.66 719.858 1795.63 720.037 L 1820.43 720.006 C 1823.02 729.144 1824.5 739.199 1825.98 748.613 L 1824.8 748.209 C 1820.3 749.182 1807.39 749.161 1802.49 748.802 C 1800.82 748.87 1799.15 748.974 1797.48 749.114 C 1789.83 748.963 1769.94 752.307 1763.87 756.823 L 1761.05 756.095 C 1760.18 744.638 1758 731.275 1756.7 719.709 z" fill="rgb(245,237,230)" transform="translate(0,0)"></path>
<path d="M 1795.63 720.037 L 1820.43 720.006 C 1823.02 729.144 1824.5 739.199 1825.98 748.613 L 1824.8 748.209 C 1820.3 749.182 1807.39 749.161 1802.49 748.802 C 1802.09 743.79 1801.97 742.792 1801.02 737.945 C 1799.68 737.611 1800.23 737.797 1799.35 737.463 C 1797.1 730.338 1796.15 727.432 1795.63 720.037 z" fill="rgb(78,205,196)" transform="translate(0,0)"></path>
<path d="M 1801.02 737.945 C 1808.62 739.797 1815.98 742.603 1823.49 744.561 C 1823.78 744.636 1824.72 747.94 1824.8 748.209 C 1820.3 749.182 1807.39 749.161 1802.49 748.802 C 1802.09 743.79 1801.97 742.792 1801.02 737.945 z" fill="rgb(245,237,230)" transform="translate(0,0)"></path>
<path d="M 1799.35 737.463 C 1800.23 737.797 1799.68 737.611 1801.02 737.945 C 1801.97 742.792 1802.09 743.79 1802.49 748.802 C 1800.82 748.87 1799.15 748.974 1797.48 749.114 C 1802.13 746.229 1800.62 743.128 1799.35 737.463 z" fill="rgb(184,182,190)" transform="translate(0,0)"></path>
<path d="M 1862.83 755.661 L 1865.9 755.845 C 1864.54 787.294 1859.04 835.006 1854.87 866.255 L 1853.77 875.672 C 1845.51 889.55 1786.77 882.987 1772.94 878.478 C 1771.48 870.156 1770.6 860.466 1770.03 852.049 C 1768.88 846.722 1766.51 822.239 1766.02 815.879 C 1764.67 798.492 1760.41 772.614 1761.05 756.095 L 1763.87 756.823 C 1765.44 761.022 1772.04 831.617 1771.96 838.741 C 1773.87 849.184 1773.62 859.588 1775.54 870.146 C 1792.12 876.339 1809.36 878.027 1826.96 876.193 C 1833.25 875.539 1838.89 874.637 1844.66 871.945 C 1850.32 869.301 1850.65 869.114 1851.6 862.756 C 1854.45 827.399 1859.11 791.056 1862.83 755.661 z" fill="rgb(78,205,196)" transform="translate(0,0)"></path>
<path d="M 1820.43 720.006 L 1869.44 719.945 C 1869.04 731.263 1867.93 744.703 1865.9 755.845 L 1862.83 755.661 C 1851.93 751.916 1838.11 750.353 1826.71 748.725 L 1825.98 748.613 C 1824.5 739.199 1823.02 729.144 1820.43 720.006 z" fill="rgb(245,237,230)" transform="translate(0,0)"></path>
<path d="M 1766.41 759.11 C 1793.93 766.517 1832.96 766.946 1860.11 758.604 C 1858.95 788.527 1852.41 828.653 1849.68 860.235 C 1849.65 861.604 1848.67 866.71 1848.39 868.35 C 1831.19 874.389 1793.8 879.972 1778.34 867.774 C 1775.31 862.044 1767.69 773.629 1766.41 759.11 z" fill="rgb(78,205,196)" transform="translate(0,0)"></path>
<path d="M 1795.78 750.459 C 1804.47 749.146 1801.91 753.9 1802.29 762.153 C 1792.17 761.859 1786.14 760.905 1776.22 759.664 C 1773.88 758.679 1768.05 757.622 1765.19 756.841 C 1778.65 752.596 1782.16 751.883 1795.78 750.459 z" fill="rgb(78,205,196)" transform="translate(0,0)"></path>
<path d="M 1803.93 750.71 C 1807.23 750.757 1811.19 750.877 1814.46 750.783 C 1826.09 750.45 1825.51 749.857 1826.19 761.833 C 1823.21 762.002 1807.65 762.798 1804.65 761.423 C 1803.66 760.967 1803.96 752.513 1803.93 750.71 z" fill="rgb(78,205,196)" transform="translate(0,0)"></path>
<path d="M 1826.56 750.821 C 1832.5 751.131 1853.98 753.588 1857.88 756.503 C 1857.58 757.011 1856.22 757.744 1855.81 757.994 C 1851.22 759.115 1846.23 760.399 1841.5 760.858 C 1826.83 762.282 1828.54 764.731 1826.56 750.821 z" fill="rgb(78,205,196)" transform="translate(0,0)"></path>
<path d="M 1779.31 614.03 C 1786.72 616.955 1792.86 619.741 1800.64 622.055 C 1802.11 627.7 1804.19 636.949 1804.58 642.909 C 1804.64 643.741 1799.59 643.163 1798.72 643.172 C 1796.86 642.653 1794.89 641.521 1793 640.733 C 1790.85 637.49 1786.99 636.228 1783.46 634.11 C 1781.82 627.341 1780.66 620.836 1779.31 614.03 z" fill="rgb(78,205,196)" transform="translate(0,0)"></path>
<path d="M 1789.47 668.901 C 1788.89 664.938 1784.78 650.197 1787.59 648.772 C 1792.88 651.357 1801.69 654.805 1807.48 657.014 C 1808.3 661.943 1813.2 675.025 1809 677.542 C 1804.73 674.277 1795.05 671.231 1789.47 668.901 z" fill="rgb(78,205,196)" transform="translate(0,0)"></path>
<path d="M 1794.05 681.432 C 1799.54 685.899 1807.08 687.099 1813.84 689.239 L 1814.09 690.329 C 1814.72 693.061 1816.89 698.439 1814.3 699.984 L 1795.25 699.95 C 1794.22 695.584 1789.88 683.8 1794.05 681.432 z" fill="rgb(78,205,196)" transform="translate(0,0)"></path>
<path d="M 1796.53 701.456 L 1798.94 702.071 L 1807.09 701.843 C 1808.86 705.205 1808.17 714.018 1807.46 717.728 C 1804.4 717.826 1801.94 717.832 1798.88 717.73 L 1796.94 717.634 C 1785.51 718.664 1790.89 713.278 1790.44 702.631 C 1790.41 701.979 1795.84 701.544 1796.53 701.456 z" fill="rgb(245,237,230)" transform="translate(0,0)"></path>
<path d="M 1796.53 701.456 L 1798.94 702.071 C 1798.97 707.291 1798.96 712.511 1798.88 717.73 L 1796.94 717.634 C 1785.51 718.664 1790.89 713.278 1790.44 702.631 C 1790.41 701.979 1795.84 701.544 1796.53 701.456 z" fill="rgb(245,237,230)" transform="translate(0,0)"></path>
<path d="M 1796.53 701.456 L 1798.94 702.071 C 1798.97 707.291 1798.96 712.511 1798.88 717.73 L 1796.94 717.634 C 1796.94 712.33 1797.21 706.661 1796.53 701.456 z" fill="rgb(128,127,129)" transform="translate(0,0)"></path>
<path d="M 1807.09 701.843 C 1808.86 705.205 1808.17 714.018 1807.46 717.728 C 1806.91 712.452 1806.78 707.139 1807.09 701.843 z" fill="rgb(184,182,190)" transform="translate(0,0)"></path>
<path d="M 1776.62 603.283 C 1781.87 604.84 1793.83 609.305 1799.1 611.584 C 1800.31 612.11 1800.68 617.988 1800.86 619.618 C 1794.72 618.853 1785.57 614.715 1779.87 612.153 C 1778.07 611.346 1777.17 605.2 1776.62 603.283 z" fill="rgb(245,237,230)" transform="translate(0,0)"></path>
<path d="M 1798.72 643.172 C 1800.16 643.837 1804.72 645.486 1805.37 646.583 C 1806.73 648.873 1809.42 656.355 1803.64 653.607 C 1798.05 651.191 1791.98 649.426 1786.81 646.202 C 1785.17 645.18 1783.18 638.815 1784.41 637.423 C 1785.41 637.077 1791.49 640.095 1793 640.733 C 1794.89 641.521 1796.86 642.653 1798.72 643.172 z" fill="rgb(245,237,230)" transform="translate(0,0)"></path>
<path d="M 1794.05 681.432 C 1781.98 664.897 1799.88 675.31 1809 677.542 C 1811.73 680.264 1811.7 679.133 1812.91 683.496 C 1814.81 690.372 1798.67 682.66 1794.05 681.432 z" fill="rgb(245,237,230)" transform="translate(0,0)"></path>
<path d="M 1791.67 597.394 C 1801.69 595.25 1798.13 608.756 1798.12 608.765 C 1796.4 608.814 1792.96 607.131 1790.6 606.49 C 1784.57 603.932 1782.13 603.327 1775.78 600.215 C 1781.37 599.115 1786.05 598.246 1791.67 597.394 z" fill="rgb(78,205,196)" transform="translate(0,0)"></path>
<path d="M 1859.12 702.008 C 1871.67 702.324 1868.21 703.633 1867.91 717.91 C 1855.5 717.732 1858.86 715.861 1859.12 702.008 z" fill="rgb(245,237,230)" transform="translate(0,0)"></path>
<path d="M 1819.01 702.086 C 1831.56 702.11 1827.91 703.636 1827.84 717.849 C 1815.39 717.894 1819.14 715.671 1819.01 702.086 z" fill="rgb(245,237,230)" transform="translate(0,0)"></path>
<path d="M 1817.59 717.764 C 1804.91 717.927 1810.19 716.433 1809.25 703.93 C 1809.03 700.993 1815.63 702.077 1817.28 702.646 C 1818.36 708.084 1818.62 712.27 1817.59 717.764 z" fill="rgb(245,237,230)" transform="translate(0,0)"></path>
<path d="M 1817.28 702.646 C 1818.36 708.084 1818.62 712.27 1817.59 717.764 C 1816.85 711.813 1816.91 708.53 1817.28 702.646 z" fill="rgb(184,182,190)" transform="translate(0,0)"></path>
<path d="M 1768.35 717.868 C 1756.79 717.824 1761.13 716.271 1761.4 702.423 C 1761.41 701.868 1767.79 701.764 1768.52 701.715 C 1769.68 706.669 1769.4 712.901 1768.35 717.868 z" fill="rgb(245,237,230)" transform="translate(0,0)"></path>
<path d="M 1768.52 701.715 C 1769.68 706.669 1769.4 712.901 1768.35 717.868 C 1767.82 712.251 1767.79 707.35 1768.52 701.715 z" fill="rgb(184,182,190)" transform="translate(0,0)"></path>
<path d="M 1750.79 701.947 C 1762.82 702.122 1759.06 704.65 1758.9 717.754 C 1746.92 718.001 1750.89 715.474 1750.79 701.947 z" fill="rgb(245,237,230)" transform="translate(0,0)"></path>
<path d="M 1829.78 702.033 C 1841.74 702.216 1838.05 704.735 1837.89 717.792 C 1825.89 718.151 1829.84 714.698 1829.78 702.033 z" fill="rgb(245,237,230)" transform="translate(0,0)"></path>
<path d="M 1857.44 717.96 C 1845.75 717.592 1850.71 716.397 1850.47 702.683 C 1850.45 701.86 1857.01 702.012 1857.61 701.989 C 1858.58 707.274 1858.52 712.697 1857.44 717.96 z" fill="rgb(245,237,230)" transform="translate(0,0)"></path>
<path d="M 1779.99 701.846 C 1791.48 702.484 1788.45 704.43 1787.75 718.089 C 1776.41 717.524 1779.76 715.33 1779.99 701.846 z" fill="rgb(245,237,230)" transform="translate(0,0)"></path>
<path d="M 1840.04 701.868 C 1851.41 702.485 1848.49 704.878 1847.74 718.052 C 1836.22 717.572 1839.9 715.168 1840.04 701.868 z" fill="rgb(245,237,230)" transform="translate(0,0)"></path>
<path d="M 1770.07 701.98 C 1781.74 702.065 1778.04 704.949 1777.88 717.902 C 1766.24 717.781 1770 714.525 1770.07 701.98 z" fill="rgb(245,237,230)" transform="translate(0,0)"></path>
<path d="M 1869.36 701.905 C 1880.95 702.445 1875.44 702.78 1876.76 714.623 C 1877.23 718.8 1872.25 717.973 1869.73 717.347 C 1868.44 711.608 1868.29 707.714 1869.36 701.905 z" fill="rgb(245,237,230)" transform="translate(0,0)"></path>
<path d="M 1696.44 594.514 C 1704.26 596.11 1712.01 598.007 1719.68 600.202 C 1715.19 614.645 1711.37 637.715 1707.78 653.135 C 1704.38 667.684 1700.24 685.561 1697.65 700.062 C 1698.88 700.676 1699.1 700.84 1700.26 701.634 C 1703.88 702.005 1705.32 702.066 1709 701.965 L 1710.29 702.228 C 1713.89 702.013 1714.58 701.833 1718.03 702.574 L 1718.85 702.918 L 1719.95 702.747 C 1721.72 702.227 1722.42 702.009 1724.32 702.06 L 1726.78 702.149 C 1727.62 701.947 1728.33 701.731 1729.15 701.485 C 1728.93 707.254 1729.03 713.019 1729.08 718.792 C 1728.82 719.244 1728.55 719.695 1728.29 720.147 C 1727.7 732.581 1725.75 741.113 1724.73 752.676 L 1723.72 754.02 L 1723.6 757.764 L 1723.26 759.062 L 1721.77 759.227 C 1714.25 747.55 1677.52 748.941 1664.01 748.899 L 1654.49 748.866 C 1645.18 749.734 1630.74 750.945 1622.75 755.542 L 1620.02 754.795 C 1618.18 751.688 1615.79 725.063 1615.22 719.61 L 1615.38 718.74 C 1607.56 716.953 1610.08 715.266 1609.87 706.986 C 1609.5 709.657 1609.13 713.046 1608.52 715.606 L 1607.9 699.815 C 1629.02 699.637 1650.15 699.721 1671.27 700.067 C 1677.82 668.145 1688.59 626.937 1696.44 594.514 z" fill="rgb(88,84,80)" transform="translate(0,0)"></path>
<path d="M 1615.22 719.61 C 1632.28 719.583 1649.34 719.641 1666.4 719.786 C 1674.59 719.732 1682.78 719.783 1690.97 719.938 L 1728.29 720.147 C 1727.7 732.581 1725.75 741.113 1724.73 752.676 L 1723.72 754.02 L 1723.6 757.764 L 1723.26 759.062 L 1721.77 759.227 C 1714.25 747.55 1677.52 748.941 1664.01 748.899 L 1654.49 748.866 C 1645.18 749.734 1630.74 750.945 1622.75 755.542 L 1620.02 754.795 C 1618.18 751.688 1615.79 725.063 1615.22 719.61 z" fill="rgb(245,237,230)" transform="translate(0,0)"></path>
<path d="M 1700.26 701.634 C 1703.88 702.005 1705.32 702.066 1709 701.965 C 1708.73 704.129 1708.61 715.65 1707.76 717.159 C 1707.13 718.286 1700.58 718.594 1700.29 716.005 C 1699.88 712.387 1700.09 705.542 1700.26 701.634 z" fill="rgb(245,237,230)" transform="translate(0,0)"></path>
<path d="M 1609.87 706.986 C 1610.17 698.245 1619.14 700.449 1618.09 706.215 C 1617.16 711.342 1620.07 715.424 1615.38 718.74 C 1607.56 716.953 1610.08 715.266 1609.87 706.986 z" fill="rgb(245,237,230)" transform="translate(0,0)"></path>
<path d="M 1719.95 702.747 C 1721.72 702.227 1722.42 702.009 1724.32 702.06 L 1726.78 702.149 C 1727.32 714.528 1730.52 717.786 1719.37 717.866 C 1718.45 712.755 1718.75 708.099 1718.85 702.918 L 1719.95 702.747 z" fill="rgb(245,237,230)" transform="translate(0,0)"></path>
<path d="M 1718.85 702.918 L 1719.95 702.747 C 1720.08 708.44 1720.17 712.186 1719.37 717.866 C 1718.45 712.755 1718.75 708.099 1718.85 702.918 z" fill="rgb(184,182,190)" transform="translate(0,0)"></path>
<path d="M 1710.29 702.228 C 1713.89 702.013 1714.58 701.833 1718.03 702.574 C 1718.06 704.778 1718.56 716.204 1717.42 716.936 C 1707.5 723.281 1710.36 705.05 1710.32 703.105 L 1710.29 702.228 z" fill="rgb(245,237,230)" transform="translate(0,0)"></path>
<path d="M 1683.66 656.743 C 1691.66 653.924 1698.7 651.519 1706.45 647.962 C 1705.3 654.145 1703.97 660.302 1702.94 666.508 C 1702.78 667.517 1702.61 668.524 1702.42 669.529 C 1696.83 671.635 1686.29 673.889 1682.58 677.213 L 1681.93 677.93 C 1676.49 674.933 1682.3 663.065 1683.66 656.743 z" fill="rgb(255,90,31)" transform="translate(0,0)"></path>
<path d="M 1711.16 616.063 C 1712.03 615.845 1712.65 615.564 1713.47 615.728 C 1714.32 617.14 1710.15 633.641 1709.56 636.049 C 1702.97 638.48 1697.04 640.886 1690.23 643.129 C 1689.36 643.08 1688.02 643.19 1687.41 642.534 C 1687.1 641.302 1691.8 625.006 1692.39 623.007 C 1698.54 620.719 1705.17 618.446 1711.16 616.063 z" fill="rgb(255,90,31)" transform="translate(0,0)"></path>
<path d="M 1697.12 681.987 C 1700.02 683.095 1696.59 696.64 1696.04 699.889 L 1675 700.028 C 1671.92 698 1674.85 692.811 1675.7 689.428 L 1697.12 681.987 z" fill="rgb(255,90,31)" transform="translate(0,0)"></path>
<path d="M 1688.86 702.376 C 1689.65 702.221 1690.47 701.901 1691.23 701.637 C 1700.9 702.681 1697.33 701.851 1698.12 712.276 C 1698.61 718.722 1696.84 718.555 1690.99 717.25 L 1689.42 717.015 C 1685.16 718.253 1680.12 719.65 1680.76 713.512 C 1681.89 702.834 1677.12 701.616 1688.86 702.376 z" fill="rgb(245,237,230)" transform="translate(0,0)"></path>
<path d="M 1689.42 717.015 C 1685.16 718.253 1680.12 719.65 1680.76 713.512 C 1681.89 702.834 1677.12 701.616 1688.86 702.376 C 1689.14 707.437 1688.86 712.006 1689.42 717.015 z" fill="rgb(245,237,230)" transform="translate(0,0)"></path>
<path d="M 1688.86 702.376 C 1689.65 702.221 1690.47 701.901 1691.23 701.637 C 1690.88 706.781 1691.08 712.058 1690.99 717.25 L 1689.42 717.015 C 1688.86 712.006 1689.14 707.437 1688.86 702.376 z" fill="rgb(128,127,129)" transform="translate(0,0)"></path>
<path d="M 1715.93 604.185 C 1717.22 606.085 1715.02 610.547 1714.42 612.804 C 1707.36 615.734 1701.05 617.771 1693.98 620.388 C 1691.61 619.086 1692.46 612.241 1697.88 611.011 C 1702.82 609.891 1711.3 606.298 1715.93 604.185 z" fill="rgb(245,237,230)" transform="translate(0,0)"></path>
<path d="M 1682.58 677.213 C 1686.5 676.438 1699.34 671.989 1701.33 672.437 C 1702.28 673.316 1700.85 680.747 1697.98 680.033 C 1694.3 679.12 1669.09 695.304 1678.28 680.039 C 1678.86 679.072 1680.86 678.403 1681.93 677.93 L 1682.58 677.213 z" fill="rgb(245,237,230)" transform="translate(0,0)"></path>
<path d="M 1706.45 638.95 C 1710.17 638.946 1709.17 641.705 1707.86 643.987 C 1705.63 647.889 1689.87 652.508 1686.45 653.85 C 1685.35 653.697 1684.91 653.833 1684.33 653.096 C 1682.77 643.891 1696.29 642.845 1702.99 640.255 C 1704.14 639.802 1705.29 639.366 1706.45 638.95 z" fill="rgb(245,237,230)" transform="translate(0,0)"></path>
<path d="M 1697.68 597.15 C 1700.75 597.878 1713.68 599.564 1715.16 601.624 C 1714.81 603.689 1711.59 604.262 1709.75 605.1 C 1704.66 606.739 1699.23 608.723 1694.07 610.475 C 1695.17 606.04 1696.66 601.539 1697.68 597.15 z" fill="rgb(255,90,31)" transform="translate(0,0)"></path>
<path d="M 1629.24 701.803 C 1641.9 701.445 1638.14 704.373 1637.91 717.903 C 1625.47 717.883 1629.19 715.477 1629.24 701.803 z" fill="rgb(245,237,230)" transform="translate(0,0)"></path>
<path d="M 1670.37 701.995 C 1682.68 702.278 1679.28 703.63 1678.97 717.938 C 1666.86 717.674 1669.73 715.892 1670.37 701.995 z" fill="rgb(245,237,230)" transform="translate(0,0)"></path>
<path d="M 1627.46 717.995 C 1624.21 717.87 1619.42 719.034 1619.94 714.517 C 1621.13 704.299 1615.53 700.392 1627.61 702.065 C 1628.57 706.035 1628.16 713.956 1627.46 717.995 z" fill="rgb(245,237,230)" transform="translate(0,0)"></path>
<path d="M 1627.61 702.065 C 1628.57 706.035 1628.16 713.956 1627.46 717.995 C 1626.84 712.249 1626.64 707.828 1627.61 702.065 z" fill="rgb(184,182,190)" transform="translate(0,0)"></path>
<path d="M 1639.84 701.721 C 1651.96 701.971 1648.12 704.549 1647.9 717.896 C 1636.01 717.785 1639.94 714.922 1639.84 701.721 z" fill="rgb(245,237,230)" transform="translate(0,0)"></path>
<path d="M 1650.01 701.866 C 1661.83 702.035 1658.3 704.333 1658.01 717.893 C 1646.23 717.789 1650.11 715.259 1650.01 701.866 z" fill="rgb(245,237,230)" transform="translate(0,0)"></path>
<path d="M 1660.1 701.98 C 1672.04 702.424 1668.33 704.126 1668.13 718.1 C 1656.5 717.317 1659.91 715.711 1660.1 701.98 z" fill="rgb(245,237,230)" transform="translate(0,0)"></path>
<path d="M 1276.02 757.286 C 1280.92 756.733 1286.51 757.078 1291.51 757.226 C 1314.01 757.234 1343.09 756.364 1365.04 757.397 C 1365.02 781.997 1364.3 810.31 1365.17 834.606 L 1366.4 831.511 L 1366.85 835.134 L 1366.95 836.025 L 1366.96 837.069 L 1275.97 837.107 L 1275.69 834.972 C 1277.25 816.055 1276.03 777.573 1276.02 757.286 z" fill="rgb(139,92,246)" transform="translate(0,0)"></path>
<path d="M 1276.02 757.286 C 1280.92 756.733 1286.51 757.078 1291.51 757.226 C 1287.11 757.451 1282.39 757.78 1278.02 757.82 C 1278 766.666 1277.14 832.413 1278.71 835.792 C 1286.26 836.727 1360.21 836.594 1363.7 835.17 L 1365.17 834.606 L 1366.4 831.511 L 1366.85 835.134 L 1366.95 836.025 L 1366.96 837.069 L 1275.97 837.107 L 1275.69 834.972 C 1277.25 816.055 1276.03 777.573 1276.02 757.286 z" fill="rgb(43,30,46)" transform="translate(0,0)"></path>
<path d="M 1099.95 757.455 C 1110.97 757.199 1182 756.078 1187.38 758.332 L 1188.82 758.37 C 1189.59 777.422 1189.88 816.153 1188.84 835.006 L 1188.91 837.142 C 1160.81 837.803 1131.61 836.842 1103.16 837.359 L 1099.93 836.833 L 1100.03 835.719 C 1100.15 819.657 1100.05 803.594 1099.76 787.535 L 1099.95 757.455 z" fill="rgb(139,92,246)" transform="translate(0,0)"></path>
<path d="M 1187.38 758.332 L 1188.82 758.37 C 1189.59 777.422 1189.88 816.153 1188.84 835.006 L 1188.91 837.142 C 1160.81 837.803 1131.61 836.842 1103.16 837.359 L 1099.93 836.833 L 1100.03 835.719 L 1186.98 835.617 C 1187 813.569 1185.84 779.882 1187.38 758.332 z" fill="rgb(112,59,162)" transform="translate(0,0)"></path>
<path d="M 1366.39 757.701 C 1395.18 757.32 1424.29 758.084 1453.03 757.23 C 1452.98 771.08 1452.7 785.742 1453.13 799.524 C 1452.82 810.52 1453.45 824.725 1452.79 834.862 L 1452.99 837.076 L 1366.96 837.069 L 1366.95 836.025 L 1366.85 835.134 L 1366.4 831.511 L 1366.39 757.701 z" fill="rgb(245,237,230)" transform="translate(0,0)"></path>
<path d="M 1451.87 835.421 L 1452.79 834.862 L 1452.99 837.076 L 1366.96 837.069 L 1366.95 836.025 C 1389.48 835.768 1412.08 836.304 1434.62 836.155 C 1440 836.119 1446.64 836.526 1451.87 835.421 z" fill="rgb(138,115,112)" transform="translate(0,0)"></path>
<path d="M 1366.85 835.134 C 1391.85 834.969 1427.49 833.849 1451.87 835.421 C 1446.64 836.526 1440 836.119 1434.62 836.155 C 1412.08 836.304 1389.48 835.768 1366.95 836.025 L 1366.85 835.134 z" fill="rgb(205,181,177)" transform="translate(0,0)"></path>
<path d="M 1188.82 758.37 C 1191.43 756.766 1266.7 757.441 1276.02 757.286 C 1276.03 777.573 1277.25 816.055 1275.69 834.972 L 1274.9 835.32 C 1250.72 834.261 1214.41 834.503 1190.14 835.358 L 1188.84 835.006 C 1189.88 816.153 1189.59 777.422 1188.82 758.37 z" fill="rgb(245,237,230)" transform="translate(0,0)"></path>
<path d="M 1012.54 757.805 L 1098.49 757.39 C 1100.06 767.198 1098.08 778.879 1099.76 787.535 C 1100.05 803.594 1100.15 819.657 1100.03 835.719 L 1099.93 836.833 L 1103.16 837.359 C 1096.26 837.631 1069.1 837.176 1065.19 839.261 C 1062.61 838.545 1060.4 836.972 1058.02 835.578 C 1055.79 835.481 1044.37 832.474 1041.67 831.744 C 1030.99 828.862 1024.13 827.455 1013.05 826.739 C 1013.02 819.008 1012.81 811.278 1012.43 803.556 C 1013.09 789.195 1012.61 772.345 1012.54 757.805 z" fill="rgb(245,237,230)" transform="translate(0,0)"></path>
<path d="M 1098.49 757.39 C 1100.06 767.198 1098.08 778.879 1099.76 787.535 C 1100.05 803.594 1100.15 819.657 1100.03 835.719 L 1099.93 836.833 L 1103.16 837.359 C 1096.26 837.631 1069.1 837.176 1065.19 839.261 C 1062.61 838.545 1060.4 836.972 1058.02 835.578 C 1070.94 836.04 1085.13 835.826 1098.15 835.893 C 1098.03 816.084 1096.76 775.272 1098.49 757.39 z" fill="rgb(156,133,127)" transform="translate(0,0)"></path>
<path d="M 851.823 756.181 C 914.697 653.984 924.133 646.253 986.855 756.117 L 1453.72 756.052 L 1453.03 757.23 C 1424.29 758.084 1395.18 757.32 1366.39 757.701 L 1366.4 831.511 L 1365.17 834.606 C 1364.3 810.31 1365.02 781.997 1365.04 757.397 C 1343.09 756.364 1314.01 757.234 1291.51 757.226 C 1286.51 757.078 1280.92 756.733 1276.02 757.286 C 1266.7 757.441 1191.43 756.766 1188.82 758.37 L 1187.38 758.332 C 1182 756.078 1110.97 757.199 1099.95 757.455 L 1099.76 787.535 C 1098.08 778.879 1100.06 767.198 1098.49 757.39 L 1012.54 757.805 C 1012.61 772.345 1013.09 789.195 1012.43 803.556 C 1012.81 811.278 1013.02 819.008 1013.05 826.739 C 1024.13 827.455 1030.99 828.862 1041.67 831.744 C 1044.37 832.474 1055.79 835.481 1058.02 835.578 C 1060.4 836.972 1062.61 838.545 1065.19 839.261 L 1069.07 841.373 C 1067.13 841.608 1049.66 835.561 1046.07 834.467 C 1034.11 830.827 1023.41 829.193 1011.04 827.473 L 1008.9 826.929 C 1009.12 822.288 1009.01 818.417 1009.08 813.853 C 1008.65 811.981 1008.18 810.12 1007.66 808.269 L 1006.68 809.463 C 1004.86 802.844 1002.92 796.286 1000.58 789.83 C 991.762 765.543 948.207 687.916 926.239 678.493 C 922.329 676.815 918.64 676.966 914.733 678.569 C 890.705 688.43 845.629 769.325 834.79 795.164 L 833.244 794.183 L 832.28 798.078 C 831.427 787.997 832.04 768.313 832.036 757.522 L 746.989 757.188 L 745.513 756.464 C 777.328 755.493 819.767 755.611 851.823 756.181 z" fill="rgb(105,68,27)" transform="translate(0,0)"></path>
<path d="M 1009.97 757.398 L 1011.56 757.975 C 1011.89 768.895 1010.92 794.621 1012.43 803.556 C 1012.81 811.278 1013.02 819.008 1013.05 826.739 C 1024.13 827.455 1030.99 828.862 1041.67 831.744 C 1044.37 832.474 1055.79 835.481 1058.02 835.578 C 1060.4 836.972 1062.61 838.545 1065.19 839.261 L 1069.07 841.373 C 1067.13 841.608 1049.66 835.561 1046.07 834.467 C 1034.11 830.827 1023.41 829.193 1011.04 827.473 L 1008.9 826.929 C 1009.12 822.288 1009.01 818.417 1009.08 813.853 C 1008.65 811.981 1008.18 810.12 1007.66 808.269 C 1004.13 789.9 996.005 773.973 987.461 757.636 C 994.961 757.435 1002.46 757.355 1009.97 757.398 z" fill="rgb(139,92,246)" transform="translate(0,0)"></path>
<path d="M 1009.97 757.398 L 1011.56 757.975 C 1011.89 768.895 1010.92 794.621 1012.43 803.556 C 1012.81 811.278 1013.02 819.008 1013.05 826.739 C 1024.13 827.455 1030.99 828.862 1041.67 831.744 C 1044.37 832.474 1055.79 835.481 1058.02 835.578 C 1060.4 836.972 1062.61 838.545 1065.19 839.261 L 1069.07 841.373 C 1067.13 841.608 1049.66 835.561 1046.07 834.467 C 1034.11 830.827 1023.41 829.193 1011.04 827.473 C 1010.97 822.55 1010.97 817.625 1011.06 812.701 C 1011.05 806.006 1011.94 760.082 1009.97 757.398 z" fill="rgb(43,30,46)" transform="translate(0,0)"></path>
<path d="M 833.947 757.784 C 839.46 757.781 844.973 757.812 850.485 757.876 C 845.677 766.803 840.713 776.552 836.69 785.856 C 836.345 786.972 835.741 790.708 834.493 791.157 C 833.478 789.893 833.842 782.486 833.856 780.321 L 833.947 757.784 z" fill="rgb(245,237,230)" transform="translate(0,0)"></path>
<path d="M 1106.11 562.381 C 1124.05 560.836 1149.87 562.673 1168.55 561.976 C 1174.25 561.764 1203.73 561.657 1208.04 562.336 L 1208.08 592.623 C 1227.64 588.876 1238.65 588.228 1258.54 589.984 L 1256.59 591.447 C 1236.27 590.252 1225.86 591.262 1205.94 594.575 L 1205.98 564.032 L 1108.14 564.073 L 1108.26 614.569 C 1068.82 610.056 1040.45 617.68 1013.26 647.728 C 1012.54 649.325 1012.62 649.378 1011.08 649.851 C 1009.32 644.55 1010.42 624.425 1010.61 617.952 L 965.148 617.887 L 965.103 564.045 L 818.316 564.177 C 819.204 584.966 818.521 610.04 818.477 631.145 L 801.013 631.904 C 801.474 614.484 801.254 596.806 801.582 579.306 C 783.033 579.07 764.483 579.062 745.934 579.282 L 745.607 578.237 L 803.088 577.831 L 803.094 630.182 L 816.817 630.075 C 816.758 607.552 816.847 585.029 817.087 562.508 C 829.823 564.053 875.845 563.089 890.831 563.118 L 938.818 563.19 C 945.787 563.194 960.347 563.474 966.898 562.559 L 966.971 616.44 L 1012.02 616.05 L 1012.13 646.507 C 1029.73 627.318 1051.47 613.186 1078.26 611.929 C 1079.02 611.888 1079.78 611.864 1080.54 611.858 C 1086.2 611.96 1092.4 611.921 1098.1 611.915 C 1101.66 612.117 1103.04 612.096 1106.44 613.01 C 1107.85 605.597 1106.94 570.464 1106.11 562.381 z" fill="rgb(123,43,24)" transform="translate(0,0)"></path>
<path d="M 1106.11 562.381 C 1124.05 560.836 1149.87 562.673 1168.55 561.976 C 1174.25 561.764 1203.73 561.657 1208.04 562.336 C 1189.84 563.621 1167.16 562.981 1148.79 563.184 C 1137.95 563.304 1116.31 563.627 1106.11 562.381 z" fill="rgb(193,56,40)" transform="translate(0,0)"></path>
<path d="M 1011.08 649.851 C 1011.16 649.145 1011.04 646.665 1011.88 646.506 C 1012.51 646.717 1012.76 647.189 1013.26 647.728 C 1012.54 649.325 1012.62 649.378 1011.08 649.851 z" fill="rgb(43,30,46)" transform="translate(0,0)"></path>
<path d="M 1352.95 631.125 C 1357.04 633.668 1357.94 631.027 1361.36 627.901 C 1397.21 595.108 1447.19 583.651 1493.05 601.157 C 1496.85 597.866 1499.24 595.75 1503.47 592.997 L 1504.1 594.264 L 1493.97 603.21 C 1445.73 586.275 1398.85 595.798 1361.85 630.187 C 1359.79 632.104 1357.78 634.154 1355.01 634.665 L 1351.89 633.207 L 1352.95 631.125 z" fill="rgb(105,68,27)" transform="translate(0,0)"></path>
<path d="M 1697.65 700.062 C 1710.9 700.204 1724.72 699.992 1738.01 699.921 C 1738.02 719.721 1740.67 718.571 1730.1 720.635 C 1728.79 720.89 1728.51 748.713 1724.73 752.676 C 1725.75 741.113 1727.7 732.581 1728.29 720.147 C 1728.55 719.695 1728.82 719.244 1729.08 718.792 C 1729.03 713.019 1728.93 707.254 1729.15 701.485 C 1728.33 701.731 1727.62 701.947 1726.78 702.149 L 1724.32 702.06 C 1722.42 702.009 1721.72 702.227 1719.95 702.747 L 1718.85 702.918 L 1718.03 702.574 C 1714.58 701.833 1713.89 702.013 1710.29 702.228 L 1709 701.965 C 1705.32 702.066 1703.88 702.005 1700.26 701.634 C 1699.1 700.84 1698.88 700.676 1697.65 700.062 z" fill="rgb(105,68,27)" transform="translate(0,0)"></path>
<path d="M 1729.15 701.485 C 1729.62 701.548 1736.42 701.95 1736.28 703.022 C 1734.61 716.1 1740.94 716.429 1729.08 718.792 C 1729.03 713.019 1728.93 707.254 1729.15 701.485 z" fill="rgb(245,237,230)" transform="translate(0,0)"></path>
<path d="M 2035.87 605.837 L 2037.28 607.988 C 2040.9 609.826 2043.6 608.976 2048 608.886 L 2048 611.097 C 2040.48 611.067 2033.33 614.038 2035.87 605.837 z" fill="rgb(123,43,24)" transform="translate(0,0)"></path>
<path d="M 885.649 162.991 L 1936.66 163.033 C 1936.6 240.085 1934.79 324.3 1936.84 400.83 L 1936.97 415.146 C 1919.75 415.153 1897.39 414.486 1880.6 415.249 C 1871.94 417.69 1828.55 416.123 1816.05 416.43 C 1816.15 439.47 1816.04 462.51 1815.72 485.549 C 1807.9 485.58 1781.36 485.229 1775.43 486.948 C 1735.33 488.956 1685.99 487.808 1645.13 487.825 L 1400.08 487.304 L 1150.71 487.296 C 1111.86 487.277 1064.92 488.376 1026.58 486.885 C 1022.09 485.586 1014.24 485.643 1009.29 485.481 C 1008.63 463.494 1009.39 437.766 1009.49 415.488 C 970.673 416.298 923.642 416.114 884.863 414.841 C 886.452 349.676 884.265 283.728 885.136 218.481 C 885.36 201.719 885.503 183.503 884.709 166.819 L 885.649 162.991 z" fill="rgb(78,205,196)" transform="translate(0,0)"></path>
<path d="M 1009.49 415.488 L 1622.14 415.166 L 1880.6 415.249 C 1871.94 417.69 1828.55 416.123 1816.05 416.43 C 1816.15 439.47 1816.04 462.51 1815.72 485.549 C 1807.9 485.58 1781.36 485.229 1775.43 486.948 C 1735.33 488.956 1685.99 487.808 1645.13 487.825 L 1400.08 487.304 L 1150.71 487.296 C 1111.86 487.277 1064.92 488.376 1026.58 486.885 C 1022.09 485.586 1014.24 485.643 1009.29 485.481 C 1008.63 463.494 1009.39 437.766 1009.49 415.488 z" fill="rgb(36,84,91)" transform="translate(0,0)"></path>
<path d="M 1733.66 184.854 C 1791.81 186.648 1857.79 185.037 1916.63 185.077 L 1916.44 345.85 C 1916.42 362.467 1917.21 379.585 1917.01 396.042 L 1256.59 396.161 C 1141.39 395.548 1026.19 395.599 910.996 396.315 C 910.921 328.465 911.786 258.107 910.492 190.504 C 910.393 188.56 910.583 187.849 910.878 185.943 C 915.59 183.364 1657.18 186.008 1733.66 184.854 z" fill="rgb(245,237,230)" transform="translate(0,0)"></path>
<path d="M 938.172 309.246 C 991.935 309.737 1045.7 309.767 1099.46 309.335 C 1101.05 314.67 1100.58 362.413 1100.79 372.112 L 985.601 372.096 C 978.704 372.095 943.746 372.577 939.128 371.42 L 938.17 370.347 C 938.693 350.61 938.233 329.113 938.172 309.246 z" fill="rgb(255,90,31)" transform="translate(0,0)"></path>
<path d="M 1144.75 309.846 L 1307.04 309.865 L 1307.04 372.044 L 1144.43 372.105 C 1145.03 351.921 1144.7 330.151 1144.75 309.846 z" fill="rgb(112,59,162)" transform="translate(0,0)"></path>
<path d="M 1146.5 311.331 L 1305.11 311.126 C 1304.79 328.783 1304.46 352.794 1305.56 370.119 C 1254.92 369.91 1196.3 368.298 1146.45 370.256 C 1146.77 352.173 1147.25 329.086 1146.5 311.331 z" fill="rgb(139,92,246)" transform="translate(0,0)"></path>
<path d="M 1144.83 250.84 C 1197.25 249.758 1254.28 250.868 1307.02 250.795 L 1307.03 296.001 C 1253.72 296.839 1198.24 296.029 1144.76 296.017 L 1144.83 250.84 z" fill="rgb(112,59,162)" transform="translate(0,0)"></path>
<path d="M 1146.49 252.263 L 1305.51 252.339 C 1305.41 266.454 1305.47 280.569 1305.71 294.682 C 1252.81 294.547 1199.32 293.231 1146.45 294.154 L 1146.49 252.263 z" fill="rgb(139,92,246)" transform="translate(0,0)"></path>
<path d="M 1344.45 250.324 L 1504.07 250.261 C 1504.1 257.369 1505.06 292.19 1502.74 295.981 L 1343.32 296.04 C 1343.41 289.202 1342.32 253.218 1344.45 250.324 z" fill="rgb(78,205,196)" transform="translate(0,0)"></path>
<path d="M 938.132 250.819 L 1100.27 250.792 L 1100.28 295.336 C 1046.77 294.593 991.696 295.247 938.055 295.223 L 938.132 250.819 z" fill="rgb(255,90,31)" transform="translate(0,0)"></path>
<path d="M 1883.43 250.51 L 1894.9 250.446 L 1894.88 292.99 L 1742.75 293.037 C 1739.45 293.181 1738.71 293.154 1735.47 292.525 C 1733.04 288.918 1734.41 257.073 1734.52 250.639 C 1783.31 249.811 1834.44 250.631 1883.43 250.51 z" fill="rgb(146,107,52)" transform="translate(0,0)"></path>
<path d="M 1736.19 252.342 L 1892.95 252.235 L 1892.93 291.042 C 1841.45 290.222 1787.81 291.016 1736.15 291.078 L 1736.19 252.342 z" fill="rgb(255,209,102)" transform="translate(0,0)"></path>
<path d="M 1734.26 301.883 L 1894.88 301.898 L 1894.84 342.468 C 1841.44 343.095 1788.03 343.319 1734.62 343.137 C 1733.81 331.889 1734.07 313.078 1734.26 301.883 z" fill="rgb(146,107,52)" transform="translate(0,0)"></path>
<path d="M 1736.16 304.128 C 1788.41 303.614 1840.65 303.569 1892.89 303.993 L 1892.87 340.755 L 1736.13 341.016 L 1736.16 304.128 z" fill="rgb(255,209,102)" transform="translate(0,0)"></path>
<path d="M 1144.79 201.371 L 1259 201.184 C 1266.87 201.171 1301.08 200.5 1306.4 201.913 C 1307.7 208.008 1307.1 232.626 1307.05 240.148 C 1303.84 241.726 1159.14 240.964 1144.64 240.973 L 1144.79 201.371 z" fill="rgb(139,92,246)" transform="translate(0,0)"></path>
<path d="M 1027.62 201.508 L 1100.23 201.157 L 1100.27 240.805 C 1070.77 240.269 1039.15 240.792 1009.5 240.816 L 938.118 240.944 L 938.32 201.474 C 968.086 201.637 997.853 201.649 1027.62 201.508 z" fill="rgb(255,90,31)" transform="translate(0,0)"></path>
<path d="M 1393.35 201.505 L 1504.03 201.246 L 1504.07 240.385 L 1449.82 240.495 C 1414.27 240.412 1378.71 240.513 1343.16 240.796 L 1343.16 201.63 L 1393.35 201.505 z" fill="rgb(78,205,196)" transform="translate(0,0)"></path>
<path d="M 1734.92 202.103 L 1895.06 202.015 L 1895.15 240.958 C 1842.13 240.41 1787.87 240.83 1734.82 241.022 L 1734.92 202.103 z" fill="rgb(182,129,46)" transform="translate(0,0)"></path>
<path d="M 1736.98 204.083 C 1788.58 203.282 1841.19 204.259 1892.96 203.929 C 1893.11 215.564 1893.08 227.2 1892.88 238.835 L 1736.69 238.758 C 1737.18 227.356 1737 215.532 1736.98 204.083 z" fill="rgb(255,209,102)" transform="translate(0,0)"></path>
<path d="M 1537.09 333.244 L 1694.07 333.136 L 1694.24 369.067 C 1642.13 368.52 1589.18 369.03 1537 369.058 L 1537.09 333.244 z" fill="rgb(146,107,52)" transform="translate(0,0)"></path>
<path d="M 1539.15 335.096 L 1692.92 335.101 L 1692.91 366.945 C 1677.68 367.587 1657.28 367.02 1641.72 367.025 L 1539.15 367.046 L 1539.15 335.096 z" fill="rgb(255,209,102)" transform="translate(0,0)"></path>
<path d="M 1537.04 201.648 L 1694.07 201.82 C 1694.11 213.117 1694.26 224.413 1694.5 235.706 C 1643.21 234.685 1588.85 235.778 1537.25 235.67 C 1536.79 224.997 1537.07 212.462 1537.04 201.648 z" fill="rgb(252,150,60)" transform="translate(0,0)"></path>
<path d="M 0 312.733 L 163.448 367.188 C 183.359 373.837 207.129 380.582 226.383 387.671 L 225.906 927.752 L 226.473 1200.16 C 226.366 1237.61 226.406 1275.23 226.105 1312.69 C 226.073 1316.58 226.207 1318.29 223.522 1321.14 C 212.021 1324.06 188.134 1334.24 175.96 1338.85 L 57.8162 1383.47 C 45.2807 1388.21 11.9536 1401.85 0 1404.93 L 0 312.733 z" fill="rgb(78,205,196)" transform="translate(0,0)"></path>
<path d="M 173.882 765.148 C 176.555 765.236 179.014 765.61 181.587 766.38 C 186.047 767.714 190.002 770.415 192.058 774.7 C 193.13 776.934 193.409 779.276 193.531 781.722 C 194.417 799.419 195.583 941.764 192.941 949.255 C 190.73 955.527 186.841 957.974 181.072 960.45 C 178.295 960.489 175.308 960.548 172.611 959.777 C 167.975 958.453 164.566 955.691 162.456 951.351 C 159.859 946.008 159.404 783.511 162.252 776.105 C 164.533 770.172 168.358 767.641 173.882 765.148 z" fill="rgb(43,30,46)" transform="translate(0,0)"></path>
<path d="M 163.265 777.325 C 174.147 759.728 191.401 768.234 191.391 784.245 C 191.362 830.328 190.86 876.401 191.705 922.485 C 191.851 930.476 192.804 944.389 189.814 951.569 C 187.296 955.03 187.384 955.048 183.859 957.544 C 175.432 958.412 164.325 957.992 163.698 946.752 C 162.66 928.157 163.112 909.197 163.111 890.534 L 163.265 777.325 z" fill="rgb(3,163,163)" transform="translate(0,0)"></path>
<path d="M 183.859 957.544 C 186.132 954.333 186.645 953.88 189.814 951.569 C 187.296 955.03 187.384 955.048 183.859 957.544 z" fill="rgb(28,124,131)" transform="translate(0,0)"></path>
<path d="M 175.452 782.437 C 179.172 782.51 179.502 782.442 181.563 784.583 C 182.408 790.088 182.113 804.263 182.127 810.603 C 182.193 827.56 182.164 844.516 182.04 861.473 C 181.912 878.199 181.816 895.036 181.672 911.756 C 181.611 918.897 183.302 941.023 180.186 945.548 C 175.863 944.328 176.893 945.293 174.565 942.274 C 173.609 936.688 173.898 930.598 173.912 924.924 C 174.022 879.483 173.624 834.027 174.006 788.589 C 174.026 786.262 174.473 784.543 175.452 782.437 z" fill="rgb(43,30,46)" transform="translate(0,0)"></path>
<path d="M 176.815 784.312 C 177.328 784.613 179.316 786.042 179.328 786.631 C 180.416 838.159 178.941 891.08 179.804 942.508 C 177.779 942.595 178.774 942.745 176.899 941.583 C 175.683 938.017 175.756 790.245 176.815 784.312 z" fill="rgb(78,205,196)" transform="translate(0,0)"></path>
<path d="M 746.989 757.188 L 832.036 757.522 C 832.04 768.313 831.427 787.997 832.28 798.078 C 829.091 806.278 828.381 816.747 829.774 825.426 C 817.765 828.273 799.281 833.315 787.746 835.267 C 778.944 836.757 755.808 836.128 745.75 836.084 C 745.887 825.255 744.196 762.036 746.989 757.188 z" fill="rgb(139,92,246)" transform="translate(0,0)"></path>
<path d="M 888 418.622 C 893.583 415.081 991.55 417.568 1007.14 416.658 C 1007.16 425.493 1008.02 480.277 1006.1 484.474 L 1003.84 484.582 L 925.494 440.509 C 914.277 434.138 898.404 425.683 888 418.622 z" fill="rgb(28,124,131)" transform="translate(0,0)"></path>
<path d="M 1818.25 416.878 C 1844.67 417.389 1871.85 416.464 1898.33 416.958 C 1908.6 417.15 1922.79 416.505 1932.73 417.385 L 1933.06 419.553 C 1897.96 439.969 1856.36 462.708 1822.49 483.91 L 1818.6 483.432 C 1816.92 478.115 1818.18 426.183 1818.25 416.878 z" fill="rgb(28,124,131)" transform="translate(0,0)"></path>
<path d="M 768.79 847.662 C 766.196 850.976 765.955 851.502 762.574 853.799 C 765.1 850.314 765.261 850.115 768.79 847.662 z" fill="rgb(36,84,91)" transform="translate(0,0)"></path>
<path d="M 335.632 427.864 C 355.92 433.422 385.54 444.097 406.833 450.759 L 609.791 515.279 L 609.413 787.201 C 593.667 790.085 575.598 794.451 559.773 797.909 C 484.894 814.5 410.111 831.52 335.427 848.969 C 334.381 800.314 335.116 748.388 335.139 699.501 L 335.632 427.864 z" fill="rgb(245,237,230)" transform="translate(0,0)"></path>
<path d="M 349.974 447.479 C 358.3 450.557 367.159 453.31 375.66 455.966 C 448.706 478.786 521.753 503.355 595.096 525.028 L 595.091 775.629 C 583.848 777.191 567.895 781.031 556.582 783.505 C 530.485 789.272 504.458 795.351 478.506 801.74 L 476.9 801.734 C 472.273 802.329 466.574 803.794 461.984 804.855 C 424.734 813.463 386.927 821.302 349.951 830.959 L 350.062 656.923 L 479.568 656.927 C 479.808 651.797 479.808 646.201 479.912 641.025 C 439.36 639.523 391.412 641.012 349.948 640.897 C 350.882 577.174 349.92 511.369 349.974 447.479 z" fill="rgb(143,142,143)" transform="translate(0,0)"></path>
<path d="M 352.015 659.073 C 380.207 658.645 408.401 658.437 436.596 658.447 C 446.579 658.428 470.053 657.848 479.173 658.98 C 477.474 704.819 480.473 753.669 478.73 799.823 L 476.385 799.84 C 468.383 800.815 445.417 806.597 436.875 808.552 L 352.006 828.341 L 352.015 659.073 z" fill="rgb(245,237,230)" transform="translate(0,0)"></path>
<path d="M 377.056 709.514 C 385.466 708.369 450.352 708.354 455.649 710.525 C 448.259 712 381.404 711.769 377.056 709.514 z" fill="rgb(128,127,129)" transform="translate(0,0)"></path>
<path d="M 377.811 736.495 C 384.633 735.59 450.301 735.149 454.443 737.118 C 446.8 738.372 382.951 738.707 377.811 736.495 z" fill="rgb(143,142,143)" transform="translate(0,0)"></path>
<path d="M 479.173 658.98 C 480.578 684.659 479.233 714.609 479.912 740.639 C 480.118 748.534 480.275 793.829 478.73 799.823 C 480.473 753.669 477.474 704.819 479.173 658.98 z" fill="rgb(184,182,190)" transform="translate(0,0)"></path>
<path d="M 478.73 799.823 C 478.647 800.461 478.572 801.1 478.506 801.74 L 476.9 801.734 L 476.385 799.84 L 478.73 799.823 z" fill="rgb(184,182,190)" transform="translate(0,0)"></path>
<path d="M 351.974 450.219 C 394.322 464.2 436.82 477.722 479.461 490.781 C 480.385 499.375 479.98 512.311 479.987 521.392 L 479.889 576.954 C 479.849 588.535 480.696 628.944 479.251 638.605 L 352.007 638.895 L 351.974 450.219 z" fill="rgb(245,237,230)" transform="translate(0,0)"></path>
<path d="M 479.461 490.781 C 480.385 499.375 479.98 512.311 479.987 521.392 L 479.889 576.954 C 479.849 588.535 480.696 628.944 479.251 638.605 C 478.069 626.19 478.816 584.448 479.018 570.581 C 479.36 547.164 478.077 513.277 479.461 490.781 z" fill="rgb(184,182,190)" transform="translate(0,0)"></path>
<path d="M 375.617 554.24 C 381.643 553.752 457.93 568.387 461.556 570.686 C 452.98 570.569 382.062 557.346 375.617 554.24 z" fill="rgb(143,142,143)" transform="translate(0,0)"></path>
<path d="M 372.722 524.092 C 378.644 523.675 454.327 539.633 458.977 541.78 C 451.471 542.704 381.586 527.028 372.722 524.092 z" fill="rgb(128,127,129)" transform="translate(0,0)"></path>
<path d="M 501.131 497.512 C 525.602 506.294 567.695 519.217 592.989 526.16 C 592.296 562.765 592.966 601.582 592.978 638.366 C 581.905 639.501 562.33 639.039 550.771 639.011 C 537.404 638.979 519.786 639.546 506.849 638.789 C 503.294 638.827 503.813 639.375 501.365 637.749 C 500.328 625.059 501.381 602.32 501.444 588.364 L 501.131 497.512 z" fill="rgb(245,237,230)" transform="translate(0,0)"></path>
<path d="M 515.166 566.137 C 522.666 566.057 575.638 579.239 582.854 581.892 C 574.668 581.719 555.693 576.309 546.461 574.284 C 541.478 573.176 536.51 572.007 531.556 570.776 C 525.901 569.364 520.553 568.289 515.166 566.137 z" fill="rgb(128,127,129)" transform="translate(0,0)"></path>
<path d="M 519.868 536.132 C 524.605 536.75 578.248 551.364 579.948 552.5 C 573.672 553.165 525.404 539.686 519.868 536.132 z" fill="rgb(128,127,129)" transform="translate(0,0)"></path>
<path d="M 501.109 659.021 L 592.976 658.51 L 592.946 773.753 L 574.439 777.784 C 570.074 778.178 554.627 781.934 549.849 783.023 C 533.566 786.689 517.317 790.504 501.104 794.467 L 501.109 659.021 z" fill="rgb(245,237,230)" transform="translate(0,0)"></path>
<path d="M 516.212 709.531 C 524.088 708.655 576.019 708.174 581.176 710.526 C 573.514 711.495 520.438 711.943 516.212 709.531 z" fill="rgb(128,127,129)" transform="translate(0,0)"></path>
<path d="M 517.072 733.866 C 523.054 732.326 571.188 733 580.174 733.049 C 573.939 734.664 526.163 734.186 517.072 733.866 z" fill="rgb(143,142,143)" transform="translate(0,0)"></path>
<path d="M 481.494 491.213 C 487.186 493.041 493.591 495.272 499.273 496.886 C 499.535 560.545 499.448 624.206 499.012 687.865 L 499.342 758.669 C 499.361 768.99 499.847 785.037 499.091 794.958 L 481.503 798.833 C 480.472 791.836 481.02 766.873 481.034 758.273 L 481.176 675.162 L 481.029 553.07 C 481.034 535.577 480.213 508.133 481.494 491.213 z" fill="rgb(245,237,230)" transform="translate(0,0)"></path>
<path d="M 504.962 640.876 C 512.548 639.326 539.589 639.94 548.235 640.183 C 562.849 640.181 578.419 639.93 592.958 640.222 L 592.94 657.019 L 501.133 656.977 C 500.943 652.225 499.974 644.931 502.511 641.242 L 504.962 640.876 z" fill="rgb(245,237,230)" transform="translate(0,0)"></path>
<path d="M 998.335 87.8096 C 1033.02 88.8914 1071.26 87.9721 1106.36 87.9871 L 1316.18 88.0374 L 1936.48 88.0477 C 1936.72 112.735 1936.8 137.424 1936.73 162.113 L 885.632 162.252 C 883.629 155.662 885.024 98.3924 885.027 87.9183 L 998.335 87.8096 z" fill="rgb(255,90,31)" transform="translate(0,0)"></path>
<path d="M 1766.89 105.307 C 1777.74 102.86 1788.51 109.664 1790.96 120.505 C 1793.4 131.346 1786.6 142.119 1775.76 144.568 C 1764.92 147.017 1754.14 140.213 1751.7 129.371 C 1749.25 118.528 1756.05 107.754 1766.89 105.307 z" fill="rgb(43,30,46)" transform="translate(0,0)"></path>
<path d="M 1411.83 105.2 C 1422.65 103.481 1432.83 110.794 1434.66 121.595 C 1436.49 132.395 1429.28 142.654 1418.5 144.594 C 1411.43 145.867 1404.21 143.243 1399.61 137.723 C 1395.01 132.202 1393.73 124.635 1396.26 117.907 C 1398.78 111.18 1404.73 106.327 1411.83 105.2 z" fill="rgb(43,30,46)" transform="translate(0,0)"></path>
<path d="M 1232.06 105.285 C 1242.77 103.063 1253.26 109.879 1255.58 120.561 C 1257.91 131.242 1251.19 141.8 1240.53 144.223 C 1229.73 146.679 1219 139.852 1216.64 129.027 C 1214.29 118.203 1221.22 107.536 1232.06 105.285 z" fill="rgb(43,30,46)" transform="translate(0,0)"></path>
<path d="M 1052.99 105.289 C 1063.85 103.759 1073.9 111.327 1075.43 122.19 C 1076.95 133.053 1069.38 143.097 1058.52 144.621 C 1047.66 146.144 1037.62 138.577 1036.09 127.718 C 1034.57 116.859 1042.13 106.818 1052.99 105.289 z" fill="rgb(43,30,46)" transform="translate(0,0)"></path>
<path d="M 1591.52 105.26 C 1602.33 104.18 1611.98 112.06 1613.09 122.876 C 1614.2 133.691 1606.34 143.361 1595.53 144.491 C 1584.68 145.626 1574.97 137.736 1573.86 126.885 C 1572.75 116.033 1580.66 106.343 1591.52 105.26 z" fill="rgb(43,30,46)" transform="translate(0,0)"></path>
<metadata><recraft-signature>{"signed_by": "recraft", "signature_b64": "3eGB5cH7fPSdkngKZq/YTmaRW5280cpQrrPHLhn+iRCA9t0q5oRh6nKKJBDaLwaWCOkN0qE2l8DZ/rR01Y4yAw==", "signing_algo": "Ed25519", "generation_timestamp": 1783344381, "identifier": "ad544d21-7fc0-4c69-9521-c3084c4bd12b"}</recraft-signature></metadata></svg>