<svg xmlns="http://www.w3.org/2000/svg" height="896" preserveAspectRatio="none" style="display: block;" version="1.1" viewBox="0 0 2048 1509" width="1216">
<path d="M 0 0 L 1562.74 0 L 1609 0 L 1612.06 0 L 1683.45 0 L 1685.66 0 L 1744.81 0 L 1747.66 0 L 1760.32 0 L 1762.85 0 L 1866.59 0 L 1869.63 0 L 1945.88 0 L 1968.4 0 L 2048 0 L 2048 22.7677 L 2048 25.8125 L 2048 113.929 L 2048 117.446 L 2048 192.423 L 2048 195.362 L 2048 277.68 L 2048 321.077 L 2048 615.769 L 2048 635.118 L 2048 1316.69 L 2048 1335.99 L 2048 1509 L 1881.17 1509 L 1877.24 1509 L 1703.26 1509 L 1698.84 1509 L 1473.92 1509 L 1470.01 1509 L 1240.99 1509 L 1238.16 1509 L 1054.63 1509 L 1051.5 1509 L 722.207 1509 L 720.013 1509 L 688.586 1509 L 686.396 1509 L 455.24 1509 L 453.04 1509 L 419.102 1509 L 201.045 1509 L 154.348 1509 L 152.27 1509 L 0 1509 L 0 1471.86 L 0 1469.88 L 0 1440.06 L 0 1437.65 L 0 1239.88 L 0 1148.84 L 0 1128.53 L 0 808.419 L 0 766.878 L 0 0 z" fill="rgb(43,30,46)" transform="translate(0,0)"></path>
<path d="M 1178.27 783.662 C 1179.5 781.783 1179.3 743.716 1179.82 737.489 C 1180.82 785.927 1179.91 836.897 1179.98 885.575 L 1179.85 1205.49 C 1203.63 1214.68 1228.36 1226.58 1251.39 1235.22 L 1251.5 1235.8 L 1251.34 1236.93 L 1356.87 1281.3 C 1380.35 1291.04 1408.01 1301.72 1430.84 1312.27 L 1504.4 1344.07 L 1285.77 1344.16 L 1231.85 1344.09 C 1226.87 1344.09 1207.08 1344.01 1202.75 1344.92 L 1204.5 1346 C 1210.33 1350.93 1230.66 1362.08 1238.5 1366.86 C 1243.67 1369.88 1277.35 1388.52 1280.13 1391.61 L 1280.41 1392.84 C 1280.93 1395.32 1281.96 1395.43 1284.27 1395.96 C 1287 1396.6 1287.12 1396.87 1289.44 1398.42 L 1289.99 1396.7 C 1309.85 1409.8 1330.95 1421.7 1351.22 1434.13 C 1355.74 1436.9 1374.06 1447.36 1377.4 1450.35 C 1377.74 1451.46 1378.06 1452.58 1378.38 1453.7 L 1379 1454.88 C 1381.15 1455.31 1382.78 1455.74 1384.91 1456.3 C 1387.11 1459.16 1408.04 1471.32 1412.91 1474.31 C 1427.47 1482.07 1455.43 1499.73 1470.01 1509 L 1240.99 1509 L 1238.16 1509 L 1054.63 1509 L 1051.5 1509 L 722.207 1509 L 720.013 1509 L 688.586 1509 L 686.396 1509 L 455.24 1509 L 453.04 1509 L 419.102 1509 L 201.045 1509 L 154.348 1509 L 152.27 1509 L 0 1509 L 0 1471.86 L 0 1469.88 L 0 1440.06 L 0 1437.65 L 0 1239.88 L 0 1148.84 L 0 1128.53 L 0 808.419 L 0 766.878 L 1178.23 766.315 L 1178.27 783.662 z" fill="rgb(255,90,31)" transform="translate(0,0)"></path>
<path d="M 372.988 1206.57 C 397.445 1205.71 423.675 1206.43 448.346 1206.19 L 448.459 1239.34 C 455.694 1239.44 463.139 1239.45 470.355 1239.63 C 470.351 1234.92 469.627 1212.01 470.799 1209.24 C 475.678 1207.28 492.904 1214.9 497.594 1208.69 C 501.163 1206.23 575.622 1207.25 587.786 1207.25 L 770.942 1207.16 C 771.283 1207.91 772.33 1211.05 773.503 1210.9 C 778.885 1210.23 788.765 1213.84 791.43 1208.26 L 797.058 1207.1 C 798.38 1211.85 797.867 1233.69 797.829 1239.94 L 819.02 1239.94 L 819.061 1206.97 L 1074.27 1207.15 L 1140.48 1207.01 C 1147.47 1207 1173.19 1206.49 1178.34 1207.97 C 1202.04 1214.76 1227.81 1228.2 1251.34 1236.93 L 1356.87 1281.3 C 1380.35 1291.04 1408.01 1301.72 1430.84 1312.27 L 1504.4 1344.07 L 1285.77 1344.16 L 1231.85 1344.09 C 1226.87 1344.09 1207.08 1344.01 1202.75 1344.92 L 1204.5 1346 C 1210.33 1350.93 1230.66 1362.08 1238.5 1366.86 C 1243.67 1369.88 1277.35 1388.52 1280.13 1391.61 L 1280.41 1392.84 C 1280.93 1395.32 1281.96 1395.43 1284.27 1395.96 C 1287 1396.6 1287.12 1396.87 1289.44 1398.42 L 1289.99 1396.7 C 1309.85 1409.8 1330.95 1421.7 1351.22 1434.13 C 1355.74 1436.9 1374.06 1447.36 1377.4 1450.35 C 1377.74 1451.46 1378.06 1452.58 1378.38 1453.7 L 1379 1454.88 C 1381.15 1455.31 1382.78 1455.74 1384.91 1456.3 C 1387.11 1459.16 1408.04 1471.32 1412.91 1474.31 C 1427.47 1482.07 1455.43 1499.73 1470.01 1509 L 1240.99 1509 L 1238.16 1509 L 1054.63 1509 L 1051.5 1509 L 722.207 1509 L 720.013 1509 L 688.586 1509 L 686.396 1509 L 455.24 1509 L 453.04 1509 L 419.102 1509 L 201.045 1509 L 154.348 1509 L 152.27 1509 L 0 1509 L 0 1471.86 L 0 1469.88 L 0 1440.06 L 0 1437.65 L 0 1239.88 L 22.053 1239.99 C 22.1652 1232.96 20.6519 1212.3 23.6577 1207.39 L 27.1768 1206.73 C 29.451 1207.6 29.7013 1207.88 31.0956 1209.88 C 37.0201 1211.41 45.9188 1214.16 48.9363 1207.25 L 233.166 1207.26 L 293.5 1207.25 C 302.067 1207.25 315.492 1206.85 323.786 1207.37 C 330.521 1214.57 343.811 1206.83 351.59 1209.07 C 353.816 1212.63 352.281 1232.3 352.293 1239.07 L 373.008 1239.13 L 372.988 1206.57 z" fill="rgb(255,209,102)" transform="translate(0,0)"></path>
<path d="M 328.484 1269.1 L 718.995 1269 L 720.013 1509 L 688.586 1509 L 686.396 1509 L 455.24 1509 L 453.04 1509 L 419.102 1509 L 201.045 1509 L 154.348 1509 L 152.27 1509 L 0 1509 L 0 1471.86 L 0 1469.88 L 0 1440.06 C 22.7168 1427.85 47.0158 1412.32 69.6232 1399.02 L 211.782 1315.16 L 253.488 1315.03 C 278.33 1299.46 303.33 1284.15 328.484 1269.1 z" fill="rgb(245,237,230)" transform="translate(0,0)"></path>
<path d="M 478.469 1471.99 L 689.064 1471.99 C 687.782 1484.21 687.149 1496.72 686.396 1509 L 455.24 1509 C 463.117 1496.75 470.86 1484.41 478.469 1471.99 z" fill="rgb(254,161,58)" transform="translate(0,0)"></path>
<path d="M 242.812 1471.18 C 259.144 1472.5 278.825 1472.11 295.382 1472.11 C 324.371 1472.17 353.36 1472.07 382.348 1471.82 C 399.831 1471.66 420.779 1470.87 438.01 1471.56 C 438.859 1474.66 437.62 1476.65 436.609 1480.21 C 432.927 1488.99 423.802 1500.53 419.102 1509 L 201.045 1509 L 205.51 1504.15 C 211.841 1503.19 236.133 1477.77 242.812 1471.18 z" fill="rgb(254,161,58)" transform="translate(0,0)"></path>
<path d="M 0 1471.86 L 134.008 1472.08 C 147.274 1472.05 182.768 1472.8 194.167 1471.26 C 184.5 1479.88 159.537 1500.48 152.27 1509 L 0 1509 L 0 1471.86 z" fill="rgb(254,161,58)" transform="translate(0,0)"></path>
<path d="M 477.591 1469.94 L 690.293 1470.19 C 689.902 1483.13 689.333 1496.07 688.586 1509 L 686.396 1509 C 687.149 1496.72 687.782 1484.21 689.064 1471.99 L 478.469 1471.99 C 470.86 1484.41 463.117 1496.75 455.24 1509 L 453.04 1509 C 461.127 1495.92 469.311 1482.9 477.591 1469.94 z" fill="rgb(146,78,34)" transform="translate(0,0)"></path>
<path d="M 241.853 1469.8 L 443.458 1469.59 C 440.991 1473.91 439.579 1476.22 436.609 1480.21 C 437.62 1476.65 438.859 1474.66 438.01 1471.56 C 420.779 1470.87 399.831 1471.66 382.348 1471.82 C 353.36 1472.07 324.371 1472.17 295.382 1472.11 C 278.825 1472.11 259.144 1472.5 242.812 1471.18 C 236.133 1477.77 211.841 1503.19 205.51 1504.15 C 217.288 1493.79 230.356 1480.77 241.853 1469.8 z" fill="rgb(185,111,42)" transform="translate(0,0)"></path>
<path d="M 0 1469.88 L 199.056 1469.81 C 184.622 1482.22 168.084 1495.95 154.348 1509 L 152.27 1509 C 159.537 1500.48 184.5 1479.88 194.167 1471.26 C 182.768 1472.8 147.274 1472.05 134.008 1472.08 L 0 1471.86 L 0 1469.88 z" fill="rgb(185,111,42)" transform="translate(0,0)"></path>
<path d="M 526.14 1386.94 L 694.051 1386.89 L 691.015 1448.77 C 681.097 1448.53 670.647 1448.67 660.684 1448.66 L 490.009 1448.73 C 502.17 1428.2 514.214 1407.6 526.14 1386.94 z" fill="rgb(146,78,34)" transform="translate(0,0)"></path>
<path d="M 526.899 1389.01 L 691.866 1389 C 691.029 1407.93 690.407 1428.11 688.902 1446.92 L 659.5 1446.91 L 492.995 1446.88 C 503.144 1432.11 517.789 1404.92 526.899 1389.01 z" fill="rgb(254,161,58)" transform="translate(0,0)"></path>
<path d="M 333.7 1386.93 L 495.616 1386.78 C 482.045 1407.26 468.902 1428.02 456.198 1449.05 C 446.436 1448.83 436.296 1448.91 426.5 1448.86 L 323.423 1448.83 C 304.894 1448.76 281.459 1448.01 263.259 1448.9 C 286.737 1428.73 310.136 1406.59 333.7 1386.93 z" fill="rgb(146,78,34)" transform="translate(0,0)"></path>
<path d="M 333.806 1389.15 L 492.007 1388.94 C 489.02 1394.63 481.4 1405.55 477.669 1411.29 C 470.065 1423.03 462.618 1434.88 455.328 1446.82 L 428.5 1446.87 L 268.435 1446.9 C 289.951 1427.34 311.743 1408.09 333.806 1389.15 z" fill="rgb(254,161,58)" transform="translate(0,0)"></path>
<path d="M 137.598 1386.91 L 294.113 1386.84 C 287.222 1393.78 262.108 1415.48 254.175 1421.06 C 251.703 1424.44 235.6 1438.13 232.124 1439.94 C 229.288 1443.61 226.284 1445.75 222.697 1448.66 C 201.684 1448.57 43.3524 1449.16 39.8819 1447.49 L 40.2917 1446.26 L 40.8123 1446.32 L 41.8864 1445.54 L 41.6128 1446.55 L 42.6457 1445.73 L 42.8518 1445.69 C 48.5746 1439.67 126.068 1393.83 137.598 1386.91 z" fill="rgb(255,209,102)" transform="translate(0,0)"></path>
<path d="M 137.598 1386.91 L 294.113 1386.84 C 287.222 1393.78 262.108 1415.48 254.175 1421.06 C 258.711 1413.4 281.71 1396.52 289.29 1389.01 C 239.432 1388.99 187.158 1389.83 137.576 1388.94 L 79.2711 1424.19 C 72.8951 1428.1 47.9899 1444.27 42.8518 1445.69 C 48.5746 1439.67 126.068 1393.83 137.598 1386.91 z" fill="rgb(146,78,34)" transform="translate(0,0)"></path>
<path d="M 222.345 1447.17 C 225.054 1444.75 228.886 1440.62 232.124 1439.94 C 229.288 1443.61 226.284 1445.75 222.697 1448.66 C 201.684 1448.57 43.3524 1449.16 39.8819 1447.49 L 40.2917 1446.26 L 40.8123 1446.32 L 41.8864 1445.54 L 41.6128 1446.55 L 42.6457 1445.73 L 42.8518 1445.69 C 46.9087 1448.36 94.2891 1447.36 102.769 1447.36 L 222.345 1447.17 z" fill="rgb(43,30,46)" transform="translate(0,0)"></path>
<path d="M 559.205 1330.83 L 696.06 1330.87 C 696.003 1342.79 695.163 1355.77 694.999 1368.07 L 674.112 1367.97 L 536.111 1368.05 C 543.769 1356.29 552.472 1343 559.205 1330.83 z" fill="rgb(146,78,34)" transform="translate(0,0)"></path>
<path d="M 645.814 1332.12 C 653.244 1331.72 687.959 1331.68 693.92 1332.57 C 694.013 1343.38 693.419 1355.15 693.066 1366.03 L 539.444 1365.96 C 545.702 1356.72 555.024 1340.01 561.467 1332.17 C 589.582 1331.97 617.698 1331.96 645.814 1332.12 z" fill="rgb(254,161,58)" transform="translate(0,0)"></path>
<path d="M 645.814 1332.12 C 653.244 1331.72 687.959 1331.68 693.92 1332.57 C 686.49 1333.35 653.166 1333.06 645.814 1332.12 z" fill="rgb(255,90,31)" transform="translate(0,0)"></path>
<path d="M 394.141 1330.95 L 530.773 1330.85 C 523.047 1341.9 514.456 1356.6 507.211 1368.26 L 492.817 1368.04 L 351.478 1367.7 C 365.122 1357.5 380.221 1342.37 394.141 1330.95 z" fill="rgb(146,78,34)" transform="translate(0,0)"></path>
<path d="M 395.847 1332.15 C 438.974 1331.26 484.281 1331.98 527.477 1332.1 C 521.473 1342.86 513.245 1355.47 506.692 1366.14 L 490.959 1365.99 L 356.622 1365.98 C 368.982 1356.79 382.906 1342.55 395.847 1332.15 z" fill="rgb(254,161,58)" transform="translate(0,0)"></path>
<path d="M 223.891 1330.92 C 265.458 1329.33 316.647 1331.04 359.169 1330.73 C 347.469 1339.39 327.278 1357.93 315.431 1368.06 L 305.924 1368.01 L 167.25 1367.9 C 185.609 1355.47 205.252 1343.08 223.891 1330.92 z" fill="rgb(146,78,34)" transform="translate(0,0)"></path>
<path d="M 304.491 1332.1 C 310.445 1331.76 351.753 1330.88 352.672 1333.44 C 340.402 1344.47 327.969 1355.31 315.376 1365.96 L 172.922 1365.98 C 190.47 1354.88 207.906 1343.6 225.228 1332.15 C 250.191 1331.24 279.299 1331.87 304.491 1332.1 z" fill="rgb(254,161,58)" transform="translate(0,0)"></path>
<path d="M 304.491 1332.1 C 310.445 1331.76 351.753 1330.88 352.672 1333.44 C 339.684 1331.74 318.875 1333.94 304.491 1332.1 z" fill="rgb(255,90,31)" transform="translate(0,0)"></path>
<path d="M 484.14 1291.81 C 485.396 1289.43 486.861 1285.41 489.096 1285.31 C 502.506 1284.66 519.886 1284.96 533.022 1285 L 638.89 1285.03 L 632.715 1315.17 L 470.242 1315.08 C 471.875 1312.02 474.146 1307.21 476.376 1304.78 C 477.03 1301.97 482.236 1294.29 484.14 1291.81 z" fill="rgb(254,161,58)" transform="translate(0,0)"></path>
<path d="M 484.14 1291.81 C 485.396 1289.43 486.861 1285.41 489.096 1285.31 C 502.506 1284.66 519.886 1284.96 533.022 1285 L 638.89 1285.03 L 632.715 1315.17 L 470.242 1315.08 C 471.875 1312.02 474.146 1307.21 476.376 1304.78 L 474.483 1312.07 C 476.412 1313.5 616.276 1313.15 631.027 1313.14 C 632.814 1304.49 634.66 1295.86 636.565 1287.24 L 525.862 1287.2 C 514.843 1287.2 500.856 1287.13 489.626 1287.56 C 487.46 1289.24 485.631 1290.66 484.14 1291.81 z" fill="rgb(185,111,42)" transform="translate(0,0)"></path>
<path d="M 296.867 1311.1 C 307.731 1303.96 324.338 1290.19 336.123 1286.26 C 346.237 1282.88 449.571 1284.96 467.057 1284.96 C 459.967 1294.04 452.904 1305.19 446.455 1314.91 C 411.166 1315.22 375.875 1315.28 340.585 1315.09 C 333.346 1315.09 302.178 1314.7 297.362 1315.78 C 290.553 1314.45 291.172 1314.62 296.867 1311.1 z" fill="rgb(185,111,42)" transform="translate(0,0)"></path>
<path d="M 296.867 1311.1 C 297.074 1312.67 297.21 1314.2 297.362 1315.78 C 290.553 1314.45 291.172 1314.62 296.867 1311.1 z" fill="rgb(43,30,46)" transform="translate(0,0)"></path>
<path d="M 461.398 1286.94 L 461.897 1286.73 L 462.398 1287.51 C 456.546 1296.84 451.84 1304.01 444.811 1312.64 C 397.188 1313.43 347.543 1312.17 300.248 1313.64 L 298.815 1313.4 C 299.697 1310.87 331.418 1290.65 336.775 1287.4 C 376.542 1287.09 422.563 1288.63 461.398 1286.94 z" fill="rgb(255,209,102)" transform="translate(0,0)"></path>
<path d="M 660.312 1285.19 L 698.065 1285.13 C 698.031 1289.68 698.909 1313 695.991 1315.04 C 682.826 1315.1 669.661 1315.08 656.496 1314.97 C 657.838 1304.56 659.324 1295.75 660.312 1285.19 z" fill="rgb(146,78,34)" transform="translate(0,0)"></path>
<path d="M 662.311 1287.04 L 695.858 1286.77 C 695.897 1290.85 697.382 1312.07 694.043 1313.01 C 682.259 1313.06 670.474 1313.02 658.691 1312.87 C 659.58 1304.65 660.827 1295.15 662.311 1287.04 z" fill="rgb(254,161,58)" transform="translate(0,0)"></path>
<path d="M 1202.75 1344.92 L 1204.5 1346 C 1210.33 1350.93 1230.66 1362.08 1238.5 1366.86 C 1243.67 1369.88 1277.35 1388.52 1280.13 1391.61 L 1280.41 1392.84 C 1280.93 1395.32 1281.96 1395.43 1284.27 1395.96 C 1287 1396.6 1287.12 1396.87 1289.44 1398.42 L 1289.99 1396.7 C 1309.85 1409.8 1330.95 1421.7 1351.22 1434.13 C 1355.74 1436.9 1374.06 1447.36 1377.4 1450.35 C 1377.74 1451.46 1378.06 1452.58 1378.38 1453.7 L 1379 1454.88 C 1381.15 1455.31 1382.78 1455.74 1384.91 1456.3 C 1387.11 1459.16 1408.04 1471.32 1412.91 1474.31 C 1427.47 1482.07 1455.43 1499.73 1470.01 1509 L 1240.99 1509 L 1238.16 1509 L 1054.63 1509 L 1051.5 1509 C 1027.4 1484.82 1003.14 1460.8 978.702 1436.95 C 970.606 1429.09 936.768 1397.2 932.249 1389.94 C 933.178 1390.6 938.546 1394.33 939.027 1394.32 C 981.967 1393.08 1053.94 1395.95 1094.27 1393.81 L 1094.83 1392.82 L 1090.95 1389.48 L 1091.26 1387.17 C 1082.32 1380.53 1057.96 1360.23 1050.5 1355.92 C 1048.5 1353.96 1047.49 1353.13 1045.22 1351.47 L 1044.83 1350.8 C 1042.49 1349.15 1042.45 1349.17 1040.65 1346.97 C 1041.62 1346.32 1191.99 1344.81 1201.79 1346.7 L 1202.02 1344.84 L 1202.75 1344.92 z" fill="rgb(245,237,230)" transform="translate(0,0)"></path>
<path d="M 1167.03 1448.68 L 1173.19 1453.25 C 1179.54 1454.81 1235.22 1454.18 1244.48 1454.18 L 1329.28 1454.11 C 1344.49 1454.09 1363.35 1454.5 1378.38 1453.7 L 1379 1454.88 C 1381.15 1455.31 1382.78 1455.74 1384.91 1456.3 C 1387.11 1459.16 1408.04 1471.32 1412.91 1474.31 C 1427.47 1482.07 1455.43 1499.73 1470.01 1509 L 1240.99 1509 L 1238.16 1509 C 1235.17 1506.8 1232.59 1504.37 1229.69 1502.21 L 1228.23 1498.72 C 1221.4 1491.04 1192.13 1468.57 1182.72 1461.58 L 1180.58 1462.54 C 1177.27 1459.61 1174.27 1456.28 1170.17 1455.17 C 1169.5 1454.11 1168.32 1452.69 1167.53 1451.66 L 1165.08 1449.59 L 1167.03 1448.68 z" fill="rgb(245,237,230)" transform="translate(0,0)"></path>
<path d="M 1167.03 1448.68 L 1173.19 1453.25 C 1179.54 1454.81 1235.22 1454.18 1244.48 1454.18 L 1329.28 1454.11 C 1344.49 1454.09 1363.35 1454.5 1378.38 1453.7 L 1379 1454.88 C 1355.92 1455.86 1329.07 1455.2 1305.75 1455.19 L 1174.59 1455.11 L 1182.72 1461.58 L 1180.58 1462.54 C 1177.27 1459.61 1174.27 1456.28 1170.17 1455.17 C 1169.5 1454.11 1168.32 1452.69 1167.53 1451.66 L 1165.08 1449.59 L 1167.03 1448.68 z" fill="rgb(105,99,97)" transform="translate(0,0)"></path>
<path d="M 1228.23 1498.72 C 1231.71 1500.6 1237.83 1506.25 1240.99 1509 L 1238.16 1509 C 1235.17 1506.8 1232.59 1504.37 1229.69 1502.21 L 1228.23 1498.72 z" fill="rgb(136,122,112)" transform="translate(0,0)"></path>
<path d="M 1284.27 1395.96 C 1287 1396.6 1287.12 1396.87 1289.44 1398.42 L 1289.99 1396.7 C 1309.85 1409.8 1330.95 1421.7 1351.22 1434.13 C 1355.74 1436.9 1374.06 1447.36 1377.4 1450.35 C 1377.74 1451.46 1378.06 1452.58 1378.38 1453.7 C 1363.35 1454.5 1344.49 1454.09 1329.28 1454.11 L 1244.48 1454.18 C 1235.22 1454.18 1179.54 1454.81 1173.19 1453.25 L 1167.03 1448.68 L 1165.08 1449.59 C 1161.59 1447.35 1155.88 1442.85 1152.82 1439.95 C 1151.7 1438.96 1150.85 1438.2 1149.64 1437.31 C 1142.39 1432.21 1122.14 1416.43 1116.63 1410.51 C 1112.27 1407.08 1108.12 1404.03 1104.1 1400.19 L 1104.6 1398.9 L 1103.77 1397.03 C 1106.07 1395.37 1265.48 1396.43 1284.27 1395.96 z" fill="rgb(245,237,230)" transform="translate(0,0)"></path>
<path d="M 1289.99 1396.7 C 1309.85 1409.8 1330.95 1421.7 1351.22 1434.13 C 1355.74 1436.9 1374.06 1447.36 1377.4 1450.35 C 1377.74 1451.46 1378.06 1452.58 1378.38 1453.7 C 1363.35 1454.5 1344.49 1454.09 1329.28 1454.11 L 1244.48 1454.18 C 1235.22 1454.18 1179.54 1454.81 1173.19 1453.25 C 1191.41 1452.11 1220.49 1453.11 1239.72 1453.11 L 1379.05 1452.89 C 1368.91 1448.2 1296.56 1404.68 1289.44 1398.42 L 1289.99 1396.7 z" fill="rgb(186,171,158)" transform="translate(0,0)"></path>
<path d="M 1118.52 1409.88 C 1129.02 1418.32 1140.23 1426.45 1150.37 1435.29 L 1149.64 1437.31 C 1142.39 1432.21 1122.14 1416.43 1116.63 1410.51 L 1118.52 1409.88 z" fill="rgb(136,122,112)" transform="translate(0,0)"></path>
<path d="M 1104.6 1398.9 C 1109.19 1401.3 1114.92 1406.11 1118.52 1409.88 L 1116.63 1410.51 C 1112.27 1407.08 1108.12 1404.03 1104.1 1400.19 L 1104.6 1398.9 z" fill="rgb(136,122,112)" transform="translate(0,0)"></path>
<path d="M 1155.83 1440.1 C 1159.98 1442.45 1163.34 1445.79 1167.03 1448.68 L 1165.08 1449.59 C 1161.59 1447.35 1155.88 1442.85 1152.82 1439.95 L 1155.83 1440.1 z" fill="rgb(136,122,112)" transform="translate(0,0)"></path>
<path d="M 1150.37 1435.29 C 1152.28 1436.91 1153.98 1438.39 1155.83 1440.1 L 1152.82 1439.95 C 1151.7 1438.96 1150.85 1438.2 1149.64 1437.31 L 1150.37 1435.29 z" fill="rgb(105,99,97)" transform="translate(0,0)"></path>
<path d="M 1170.17 1455.17 C 1174.27 1456.28 1177.27 1459.61 1180.58 1462.54 L 1182.72 1461.58 C 1192.13 1468.57 1221.4 1491.04 1228.23 1498.72 L 1229.69 1502.21 C 1232.59 1504.37 1235.17 1506.8 1238.16 1509 L 1054.63 1509 C 1036.65 1490.94 1018.5 1473.05 1000.17 1455.34 C 1056.84 1454.95 1113.5 1454.89 1170.17 1455.17 z" fill="rgb(245,237,230)" transform="translate(0,0)"></path>
<path d="M 1182.72 1461.58 C 1192.13 1468.57 1221.4 1491.04 1228.23 1498.72 L 1226.66 1499.54 C 1217.56 1492.37 1208.27 1485.04 1199.41 1477.61 C 1194.14 1473.19 1185.03 1467.18 1180.58 1462.54 L 1182.72 1461.58 z" fill="rgb(136,122,112)" transform="translate(0,0)"></path>
<path d="M 1228.23 1498.72 L 1229.69 1502.21 C 1228.14 1501.05 1227.93 1500.96 1226.66 1499.54 L 1228.23 1498.72 z" fill="rgb(186,171,158)" transform="translate(0,0)"></path>
<path d="M 1202.75 1344.92 L 1204.5 1346 C 1210.33 1350.93 1230.66 1362.08 1238.5 1366.86 L 1236.82 1368.45 L 1280.47 1393.77 C 1245.37 1394.2 1210.27 1394.27 1175.17 1393.96 C 1150.38 1393.93 1124.63 1394.39 1099.93 1393.85 C 1097.08 1391.66 1094.04 1389.42 1091.26 1387.17 C 1082.32 1380.53 1057.96 1360.23 1050.5 1355.92 C 1048.5 1353.96 1047.49 1353.13 1045.22 1351.47 L 1044.83 1350.8 C 1042.49 1349.15 1042.45 1349.17 1040.65 1346.97 C 1041.62 1346.32 1191.99 1344.81 1201.79 1346.7 L 1202.02 1344.84 L 1202.75 1344.92 z" fill="rgb(245,237,230)" transform="translate(0,0)"></path>
<path d="M 1202.75 1344.92 L 1204.5 1346 C 1210.33 1350.93 1230.66 1362.08 1238.5 1366.86 L 1236.82 1368.45 C 1230.26 1364.45 1206.16 1350.64 1201.79 1346.7 L 1202.02 1344.84 L 1202.75 1344.92 z" fill="rgb(136,122,112)" transform="translate(0,0)"></path>
<path d="M 1238.5 1366.86 C 1243.67 1369.88 1277.35 1388.52 1280.13 1391.61 L 1280.41 1392.84 C 1280.93 1395.32 1281.96 1395.43 1284.27 1395.96 C 1265.48 1396.43 1106.07 1395.37 1103.77 1397.03 L 1104.6 1398.9 L 1104.1 1400.19 C 1102.57 1398.82 1100.07 1396.6 1097.95 1396.54 C 1053.75 1395.21 1009.36 1396.46 965.121 1396.17 C 956.774 1396.12 948.407 1396.19 940.087 1396.37 L 997.941 1453.18 C 1017.08 1453.52 1162.22 1455.14 1167.53 1451.66 C 1168.32 1452.69 1169.5 1454.11 1170.17 1455.17 C 1113.5 1454.89 1056.84 1454.95 1000.17 1455.34 C 1018.5 1473.05 1036.65 1490.94 1054.63 1509 L 1051.5 1509 C 1027.4 1484.82 1003.14 1460.8 978.702 1436.95 C 970.606 1429.09 936.768 1397.2 932.249 1389.94 C 933.178 1390.6 938.546 1394.33 939.027 1394.32 C 981.967 1393.08 1053.94 1395.95 1094.27 1393.81 L 1094.83 1392.82 L 1090.95 1389.48 L 1091.26 1387.17 C 1094.04 1389.42 1097.08 1391.66 1099.93 1393.85 C 1124.63 1394.39 1150.38 1393.93 1175.17 1393.96 C 1210.27 1394.27 1245.37 1394.2 1280.47 1393.77 L 1236.82 1368.45 L 1238.5 1366.86 z" fill="rgb(136,122,112)" transform="translate(0,0)"></path>
<path d="M 888.918 1346.09 L 1036.08 1346.19 L 1041.71 1351.02 L 1044.83 1350.8 L 1045.22 1351.47 C 1047.49 1353.13 1048.5 1353.96 1050.5 1355.92 C 1057.96 1360.23 1082.32 1380.53 1091.26 1387.17 L 1090.95 1389.48 L 1094.83 1392.82 L 1094.27 1393.81 C 1053.94 1395.95 981.967 1393.08 939.027 1394.32 C 938.546 1394.33 933.178 1390.6 932.249 1389.94 C 931.189 1387.95 931.16 1388.3 929.181 1386.84 C 923.72 1379.61 896.47 1353.56 888.918 1346.09 z" fill="rgb(245,237,230)" transform="translate(0,0)"></path>
<path d="M 1050.5 1355.92 C 1057.96 1360.23 1082.32 1380.53 1091.26 1387.17 L 1090.95 1389.48 C 1085.2 1385.95 1052.81 1361.04 1048.6 1356.47 L 1050.5 1355.92 z" fill="rgb(136,122,112)" transform="translate(0,0)"></path>
<path d="M 1045.22 1351.47 C 1047.49 1353.13 1048.5 1353.96 1050.5 1355.92 L 1048.6 1356.47 C 1047.12 1355.15 1046.28 1354.45 1044.65 1353.3 L 1045.22 1351.47 z" fill="rgb(105,99,97)" transform="translate(0,0)"></path>
<path d="M 1044.83 1350.8 L 1045.22 1351.47 L 1044.65 1353.3 C 1043.42 1352.43 1042.87 1352 1041.71 1351.02 L 1044.83 1350.8 z" fill="rgb(136,122,112)" transform="translate(0,0)"></path>
<path d="M 328.144 1267.11 C 361.542 1266.06 398.09 1267.66 431.875 1267.49 L 721.077 1266.89 C 720.755 1311.99 722.025 1357.93 721.289 1402.71 C 721.785 1411.11 722.621 1458.59 721.928 1465.65 C 722.239 1480.1 722.332 1494.55 722.207 1509 L 720.013 1509 L 718.995 1269 L 328.484 1269.1 C 303.33 1284.15 278.33 1299.46 253.488 1315.03 L 211.782 1315.16 L 69.6232 1399.02 C 47.0158 1412.32 22.7168 1427.85 0 1440.06 L 0 1437.65 C 5.91066 1435.69 48.1468 1409.66 56.9161 1404.48 L 210.559 1313.71 C 223.291 1313.4 237.248 1315.37 249.744 1312.93 C 262.259 1310.48 314.29 1275.65 328.144 1267.11 z" fill="rgb(146,78,34)" transform="translate(0,0)"></path>
<path d="M 721.289 1402.71 C 721.785 1411.11 722.621 1458.59 721.928 1465.65 C 720.84 1462.81 720.864 1408.43 721.289 1402.71 z" fill="rgb(185,111,42)" transform="translate(0,0)"></path>
<path d="M 883.127 1344.29 C 911.707 1343.25 943.454 1344.09 972.405 1344.16 L 1107.41 1344 C 1122.01 1344 1191.68 1341.98 1202.02 1344.84 L 1201.79 1346.7 C 1191.99 1344.81 1041.62 1346.32 1040.65 1346.97 C 1042.45 1349.17 1042.49 1349.15 1044.83 1350.8 L 1041.71 1351.02 L 1036.08 1346.19 L 888.918 1346.09 C 896.47 1353.56 923.72 1379.61 929.181 1386.84 C 921.849 1384.06 893.863 1352.45 883.127 1344.29 z" fill="rgb(185,111,42)" transform="translate(0,0)"></path>
<path d="M 281.933 998.86 C 294.952 997.854 312.246 999.496 323.638 997.365 L 324.112 996.278 C 328.324 986.748 333.358 986.858 342.747 989.596 C 345.082 997.138 339.881 995.687 348.213 999.938 C 351.163 1004.44 349.907 1065.46 349.583 1074.98 C 344.207 1079.72 343.485 1080.19 343.158 1088.76 C 342.789 1098.45 343.435 1109.16 343.615 1118.97 C 354.044 1118.76 370.57 1116.32 375.951 1127.43 C 381.601 1134.89 383.205 1146.05 373.646 1151.27 C 371.645 1160.4 373.157 1192.81 372.519 1205.2 L 372.988 1206.57 L 373.008 1239.13 L 352.293 1239.07 C 352.281 1232.3 353.816 1212.63 351.59 1209.07 C 343.811 1206.83 330.521 1214.57 323.786 1207.37 C 315.492 1206.85 302.067 1207.25 293.5 1207.25 L 233.166 1207.26 L 48.9363 1207.25 C 45.9188 1214.16 37.0201 1211.41 31.0956 1209.88 C 29.7013 1207.88 29.451 1207.6 27.1768 1206.73 L 23.6577 1207.39 C 20.6519 1212.3 22.1652 1232.96 22.053 1239.99 L 0 1239.88 L 0 1148.84 L 0 1128.53 C 5.37212 1122.22 4.26202 1121.71 11.9817 1119.74 C 14.82 1118.62 27.514 1119.09 31.2759 1119.14 C 31.3521 1111.45 32.8085 1081.73 29.3892 1077.03 L 26.5737 1075.07 C 25.7483 1073.24 25.2727 1071.92 25.2336 1069.12 C 24.9259 1047.1 23.7854 1023.49 25.4573 1001.64 C 26.2984 1000.67 26.9917 999.872 27.5371 999.245 C 32.9506 995.914 32.5614 990.834 33.0256 990.634 C 42.239 986.651 45.2876 988.466 49.1189 997.272 C 58.2887 999.709 72.9146 997.841 83.4272 998.842 C 141.083 999.957 199.097 998.477 256.786 999.039 C 265.005 999.119 273.763 999.263 281.933 998.86 z" fill="rgb(43,30,46)" transform="translate(0,0)"></path>
<path d="M 83.4272 998.842 C 141.083 999.957 199.097 998.477 256.786 999.039 C 265.005 999.119 273.763 999.263 281.933 998.86 C 296.373 999.08 310.814 999.147 325.254 999.06 C 325.301 1022.27 324.67 1049.11 325.491 1072 C 325.204 1075.51 325.75 1074.9 324.023 1077.47 C 238.54 1076.74 152.579 1078.5 67.219 1077.62 L 48.7848 1077.22 C 48.9371 1051.37 48.8649 1025.52 48.5684 999.674 C 53.3497 998.576 76.6788 998.951 83.4272 998.842 z" fill="rgb(78,205,196)" transform="translate(0,0)"></path>
<path d="M 48.0399 1149.7 C 77.0472 1150.89 110.061 1150.13 139.455 1150.11 L 271.878 1150.34 C 289.571 1150.61 307.266 1150.57 324.958 1150.25 C 325.049 1159.1 325.856 1198.64 324.413 1204.92 L 323.786 1207.37 C 315.492 1206.85 302.067 1207.25 293.5 1207.25 L 233.166 1207.26 L 48.9363 1207.25 L 48.4528 1205.47 C 47.2513 1193.68 48.0207 1162.85 48.0399 1149.7 z" fill="rgb(255,90,31)" transform="translate(0,0)"></path>
<path d="M 48.4528 1205.47 C 128.623 1203.49 209.686 1206.26 289.927 1204.89 C 301.201 1204.7 313.153 1204.65 324.413 1204.92 L 323.786 1207.37 C 315.492 1206.85 302.067 1207.25 293.5 1207.25 L 233.166 1207.26 L 48.9363 1207.25 L 48.4528 1205.47 z" fill="rgb(175,55,31)" transform="translate(0,0)"></path>
<path d="M 67.219 1077.62 C 152.579 1078.5 238.54 1076.74 324.023 1077.47 C 326.107 1080.42 325.106 1112.78 325.026 1119.2 L 186.335 1119.36 L 48.4168 1119.27 C 48.0919 1106.03 48.4569 1091.33 48.4979 1077.98 L 67.219 1077.62 z" fill="rgb(255,90,31)" transform="translate(0,0)"></path>
<path d="M 27.5371 999.245 C 32.9863 999.093 42.9882 998.544 47.9704 999.573 C 46.6169 1019.73 47.2939 1056.62 47.9054 1077.75 C 40.9287 1077.87 36.3729 1078.04 29.3892 1077.03 L 26.5737 1075.07 C 25.7483 1073.24 25.2727 1071.92 25.2336 1069.12 C 24.9259 1047.1 23.7854 1023.49 25.4573 1001.64 C 26.2984 1000.67 26.9917 999.872 27.5371 999.245 z" fill="rgb(139,92,246)" transform="translate(0,0)"></path>
<path d="M 11.9817 1119.74 C 13.0989 1119.97 19.0551 1120.01 19.2059 1120.82 C 20.5842 1128.26 19.4118 1136.17 20.3164 1143.99 C 19.5096 1150.45 17.8421 1148.6 11.4991 1148.86 C 7.74118 1149.02 3.7687 1148.86 0 1148.84 L 0 1128.53 C 5.37212 1122.22 4.26202 1121.71 11.9817 1119.74 z" fill="rgb(139,92,246)" transform="translate(0,0)"></path>
<path d="M 186.12 1120.24 L 353.061 1120.2 C 353.109 1127.59 352.792 1142.89 353.514 1149.63 C 329.889 1148.28 296.149 1149.35 271.671 1149.41 L 30.7603 1148.98 C 28.1224 1149.03 25.4849 1149.09 22.8479 1149.18 C 20.7257 1146.97 21.3891 1147.56 20.7782 1143.94 C 21.2446 1138.41 20.9625 1126.06 20.9762 1120.11 L 186.12 1120.24 z" fill="rgb(78,205,196)" transform="translate(0,0)"></path>
<path d="M 325.712 999.203 C 332.056 999.116 343.353 997.949 347.917 1001.64 C 350.062 1010.36 348.744 1061.4 349.101 1074.39 C 344.453 1077.95 330.301 1079.4 325.824 1075.47 L 325.607 1071.88 C 326.419 1048.37 325.846 1022.88 325.712 999.203 z" fill="rgb(139,92,246)" transform="translate(0,0)"></path>
<path d="M 354.693 1149.03 C 354.701 1145.15 354.389 1125.15 355.357 1120.52 C 355.519 1119.75 360.678 1120.02 361.971 1120.18 C 369.406 1121.14 371.251 1123.28 375.743 1128.53 C 379.188 1137.15 378.492 1139.93 378.126 1149.37 C 370.321 1149.02 362.506 1148.9 354.693 1149.03 z" fill="rgb(139,92,246)" transform="translate(0,0)"></path>
<path d="M 344.061 1149.95 C 345.794 1150.02 352.439 1149.9 352.497 1150.92 C 353.23 1163.67 352.881 1195.07 352.661 1206.41 C 350.647 1206.32 346.417 1206.87 344.775 1205.47 C 343.334 1204.25 344.015 1156.04 344.061 1149.95 z" fill="rgb(255,90,31)" transform="translate(0,0)"></path>
<path d="M 22.8479 1149.18 C 25.4849 1149.09 28.1224 1149.03 30.7603 1148.98 C 31.3986 1157.65 31.106 1193.76 30.4695 1204.93 C 30.4401 1205.44 27.8466 1206.27 27.1502 1206.52 C 26.8028 1206.46 23.4049 1206.13 23.3091 1205.66 C 19.9763 1189.53 24.2816 1165.14 22.8479 1149.18 z" fill="rgb(255,90,31)" transform="translate(0,0)"></path>
<path d="M 474.444 999.267 C 479.528 997.21 478.682 996.055 479.222 990.298 C 482.764 987.71 491.771 988.773 495.514 991.206 C 497.135 993.934 497.238 994.205 498.089 997.282 C 504.975 999.238 516.189 998.067 523.39 998.475 C 542.818 999.577 575.131 996.677 593.508 998.851 C 623.715 999.12 653.923 999.201 684.131 999.092 C 700.205 999.094 723.495 999.801 738.826 998.875 C 744.536 999.157 769.181 998.362 772.109 999.889 L 772.275 1007.74 C 773.136 1030.2 772.678 1054.92 772.682 1077.56 C 776.807 1077.56 787.97 1077.28 791.452 1078.06 C 790.083 1085.39 790.757 1110.51 790.868 1118.99 C 805.334 1118.18 825.97 1116.4 826.957 1137.57 C 827.097 1140.57 827.647 1147.59 826.461 1150.08 C 823.761 1150.91 822.943 1150.71 820.185 1150.57 C 817.638 1154.4 818.948 1197.1 819.029 1205.01 L 819.061 1206.97 L 819.02 1239.94 L 797.829 1239.94 C 797.867 1233.69 798.38 1211.85 797.058 1207.1 L 791.43 1208.26 C 788.765 1213.84 778.885 1210.23 773.503 1210.9 C 772.33 1211.05 771.283 1207.91 770.942 1207.16 L 587.786 1207.25 C 575.622 1207.25 501.163 1206.23 497.594 1208.69 C 492.904 1214.9 475.678 1207.28 470.799 1209.24 C 469.627 1212.01 470.351 1234.92 470.355 1239.63 C 463.139 1239.45 455.694 1239.44 448.459 1239.34 L 448.346 1206.19 C 449.945 1200.33 449.163 1157.33 448.382 1149.72 C 444.558 1149.77 444.866 1150.33 441.939 1148.76 C 439.649 1144.16 440.845 1137.82 441.09 1132.2 C 450.967 1115.96 460.963 1118.65 477.805 1119.04 C 477.897 1112.19 478.998 1081.21 476.652 1077.66 C 474.157 1075.83 472.572 1074.25 472.667 1070.94 C 472.972 1060.3 469.966 1004.77 474.444 999.267 z" fill="rgb(43,30,46)" transform="translate(0,0)"></path>
<path d="M 593.508 998.851 C 623.715 999.12 653.923 999.201 684.131 999.092 C 700.205 999.094 723.495 999.801 738.826 998.875 C 744.536 999.157 769.181 998.362 772.109 999.889 L 772.275 1007.74 C 772.29 1017.63 772.959 1070.89 771.257 1076.58 C 769.632 1077.29 769.843 1077.42 768.17 1077.55 C 688.031 1079.33 601.834 1077.94 521.393 1077.54 L 496.776 1077.07 L 496.766 999.655 C 506.337 996.831 577.89 999.219 593.508 998.851 z" fill="rgb(78,205,196)" transform="translate(0,0)"></path>
<path d="M 771.867 1149.72 C 777.477 1149.32 785.288 1149.29 790.933 1149.47 C 793.259 1149.6 795.586 1149.69 797.915 1149.75 C 796.063 1162.86 799.32 1196.17 797.058 1207.1 L 791.43 1208.26 C 788.765 1213.84 778.885 1210.23 773.503 1210.9 C 772.33 1211.05 771.283 1207.91 770.942 1207.16 L 587.786 1207.25 C 575.622 1207.25 501.163 1206.23 497.594 1208.69 L 495.924 1205.82 C 497.264 1194.88 493.991 1157.59 497.84 1150.68 L 501.635 1149.65 C 530.46 1150.23 560.465 1150.21 589.346 1149.75 C 649.952 1148.8 711.375 1151.25 771.867 1149.72 z" fill="rgb(255,90,31)" transform="translate(0,0)"></path>
<path d="M 771.867 1149.72 C 777.477 1149.32 785.288 1149.29 790.933 1149.47 C 793.259 1149.6 795.586 1149.69 797.915 1149.75 C 796.063 1162.86 799.32 1196.17 797.058 1207.1 L 791.43 1208.26 C 788.765 1213.84 778.885 1210.23 773.503 1210.9 C 772.33 1211.05 771.283 1207.91 770.942 1207.16 L 771.296 1205.1 C 772.603 1199.61 772.391 1157.45 771.867 1149.72 z" fill="rgb(43,30,46)" transform="translate(0,0)"></path>
<path d="M 790.933 1149.47 C 793.259 1149.6 795.586 1149.69 797.915 1149.75 C 796.063 1162.86 799.32 1196.17 797.058 1207.1 L 791.43 1208.26 C 790.152 1198.13 790.92 1161.79 790.933 1149.47 z" fill="rgb(255,90,31)" transform="translate(0,0)"></path>
<path d="M 495.924 1205.82 C 536.624 1203.64 587.933 1205.15 629.348 1205.43 C 674.69 1205.75 726.694 1203.49 771.296 1205.1 L 770.942 1207.16 L 587.786 1207.25 C 575.622 1207.25 501.163 1206.23 497.594 1208.69 L 495.924 1205.82 z" fill="rgb(175,55,31)" transform="translate(0,0)"></path>
<path d="M 521.393 1077.54 C 601.834 1077.94 688.031 1079.33 768.17 1077.55 C 769.409 1077.75 769.891 1078.09 771.074 1078.6 C 772.887 1084.24 771.939 1111.37 771.799 1119.09 L 625.885 1119.28 C 583.266 1119.28 539.432 1118.7 496.918 1119.51 C 496.722 1105.74 496.854 1091.65 496.826 1077.85 L 521.393 1077.54 z" fill="rgb(255,90,31)" transform="translate(0,0)"></path>
<path d="M 469.717 1120.24 C 578.534 1121.57 690.557 1120.31 799.57 1120 C 799.705 1124.81 801.553 1147.35 797.915 1149.75 C 795.586 1149.69 793.259 1149.6 790.933 1149.47 C 785.288 1149.29 777.477 1149.32 771.867 1149.72 C 711.375 1151.25 649.952 1148.8 589.346 1149.75 C 560.465 1150.21 530.46 1150.23 501.635 1149.65 C 490.871 1149.22 480.172 1149.62 469.784 1149.22 L 469.717 1120.24 z" fill="rgb(78,205,196)" transform="translate(0,0)"></path>
<path d="M 474.444 999.267 C 479.646 998.873 491.305 998.11 496.101 999.579 C 496.058 1024.52 495.441 1052.36 496.263 1077.03 C 490.482 1077.21 482.208 1077.19 476.652 1077.66 C 474.157 1075.83 472.572 1074.25 472.667 1070.94 C 472.972 1060.3 469.966 1004.77 474.444 999.267 z" fill="rgb(139,92,246)" transform="translate(0,0)"></path>
<path d="M 457.755 1120.34 C 459.925 1120.26 465.864 1119.41 467.643 1120.57 C 468.749 1121.28 469.087 1145.63 469.295 1148.79 C 463.447 1148.86 457.599 1148.89 451.75 1148.87 C 448.554 1148.88 445.34 1148.99 442.125 1149.02 L 442.207 1133.01 C 446.822 1126.24 449.237 1122.66 457.755 1120.34 z" fill="rgb(139,92,246)" transform="translate(0,0)"></path>
<path d="M 801.104 1119.86 C 823.984 1120.39 825.819 1129.22 825.903 1149.34 L 801.076 1149.15 C 800.947 1139.39 800.956 1129.63 801.104 1119.86 z" fill="rgb(139,92,246)" transform="translate(0,0)"></path>
<path d="M 470.738 1149.14 C 471.322 1149.23 476.395 1149.69 476.42 1150.11 C 477.462 1168.32 477.055 1188 476.907 1206.36 C 475.633 1206.25 472.375 1206.4 471.403 1205.49 C 469.933 1204.12 470.778 1155.12 470.738 1149.14 z" fill="rgb(255,90,31)" transform="translate(0,0)"></path>
<path d="M 0 766.878 L 1178.23 766.315 L 1178.27 783.662 L 1178.06 808.699 C 1162.59 807.728 1143.73 808.253 1127.97 808.322 L 1047.38 808.536 L 777.217 808.607 L 0 808.419 L 0 766.878 z" fill="rgb(245,237,230)" transform="translate(0,0)"></path>
<path d="M 772.109 999.889 C 775.713 998.353 791.696 999.06 795.742 999.634 C 796.308 1009.6 797.33 1071.1 794.658 1076.59 L 791.452 1078.06 C 787.97 1077.28 776.807 1077.56 772.682 1077.56 C 772.678 1054.92 773.136 1030.2 772.275 1007.74 L 772.109 999.889 z" fill="rgb(139,92,246)" transform="translate(0,0)"></path>
<path d="M 1178.27 783.662 C 1179.5 781.783 1179.3 743.716 1179.82 737.489 C 1180.82 785.927 1179.91 836.897 1179.98 885.575 L 1179.85 1205.49 C 1203.63 1214.68 1228.36 1226.58 1251.39 1235.22 L 1251.5 1235.8 L 1251.34 1236.93 C 1227.81 1228.2 1202.04 1214.76 1178.34 1207.97 C 1173.19 1206.49 1147.47 1207 1140.48 1207.01 L 1074.27 1207.15 L 819.061 1206.97 L 819.029 1205.01 L 819.831 1205.03 C 841.576 1204.53 865.784 1205.43 887.925 1205.46 L 1047.15 1205.51 L 1131.89 1205.27 C 1143.28 1205.17 1167.3 1204.25 1177.72 1205.14 L 1177.85 809.823 L 1162.29 809.527 L 1178.06 808.699 L 1178.27 783.662 z" fill="rgb(121,34,25)" transform="translate(0,0)"></path>
<path d="M 819.831 1205.03 C 841.576 1204.53 865.784 1205.43 887.925 1205.46 L 1047.15 1205.51 L 1131.89 1205.27 C 1143.28 1205.17 1167.3 1204.25 1177.72 1205.14 C 1153.78 1207.12 1115.96 1206.19 1091.14 1206.21 L 941.586 1206.26 L 861.243 1206.23 C 853.696 1206.22 826.139 1206.52 819.831 1205.03 z" fill="rgb(175,55,31)" transform="translate(0,0)"></path>
<path d="M 738.826 998.875 C 745.727 998.071 752.519 998.473 759.553 998.26 C 761.599 998.199 769.965 998.807 771.554 997.672 C 773.089 996.577 770.134 989.234 773.957 989.155 C 778.882 989.387 785.398 988.261 789.97 989.562 C 791.091 989.881 790.304 992.05 790.238 992.447 C 789.323 997.968 791.892 997.519 795.742 999.634 C 791.696 999.06 775.713 998.353 772.109 999.889 C 769.181 998.362 744.536 999.157 738.826 998.875 z" fill="rgb(43,30,46)" transform="translate(0,0)"></path>
<path d="M 448.382 1149.72 C 449.163 1157.33 449.945 1200.33 448.346 1206.19 C 423.675 1206.43 397.445 1205.71 372.988 1206.57 L 372.519 1205.2 C 396.008 1204.13 424.226 1204.85 448.061 1204.87 C 448.168 1187.67 447.359 1166.57 448.382 1149.72 z" fill="rgb(121,34,25)" transform="translate(0,0)"></path>
<path d="M 2048 321.077 L 2048 615.769 L 2048 635.118 L 2048 1316.69 L 2048 1335.99 L 2048 1509 L 1881.17 1509 C 1869.85 1502.33 1839.73 1489.73 1827 1484.03 L 1708.13 1431.26 C 1701.86 1429.12 1689.69 1423.36 1683.29 1420.56 C 1664.46 1412.28 1645.67 1403.89 1626.93 1395.41 L 1627.06 477.925 L 1785.27 418.957 C 1830.28 401.693 1875.43 384.775 1920.71 368.204 C 1962.92 351.92 2005.36 336.209 2048 321.077 z" fill="rgb(78,205,196)" transform="translate(0,0)"></path>
<path d="M 1937.81 639.238 C 1941.04 638.005 1966.64 632.932 1971.24 631.958 L 2048 615.769 L 2048 635.118 L 2048 1316.69 L 2048 1335.99 C 2030.97 1331.75 1984.98 1320.73 1970.89 1315.36 C 1960.71 1313.08 1947.87 1309.91 1938.13 1306.39 C 1936.95 1287.58 1937.92 1255.86 1937.88 1236.26 L 1937.51 1097.65 L 1937.81 639.238 z" fill="rgb(43,30,46)" transform="translate(0,0)"></path>
<path d="M 1938.13 1306.39 C 1936.95 1287.58 1937.92 1255.86 1937.88 1236.26 L 1937.51 1097.65 L 1937.81 639.238 C 1946.22 644.394 1968.71 646.724 1977.98 650.14 L 1978.04 1113.42 C 1978.05 1173.33 1979.37 1238.14 1977.98 1297.58 C 1969.38 1299.12 1944.48 1303.07 1938.13 1306.39 z" fill="rgb(35,118,127)" transform="translate(0,0)"></path>
<path d="M 1937.81 639.238 C 1941.04 638.005 1966.64 632.932 1971.24 631.958 L 2048 615.769 L 2048 635.118 C 2031.93 638.35 1992.48 647.239 1977.87 648.434 C 1973.63 646.745 1941.46 638.287 1937.81 639.238 z" fill="rgb(35,118,127)" transform="translate(0,0)"></path>
<path d="M 1978.47 1299.36 C 1983.04 1299.94 1987.47 1301.06 1991.91 1302.25 C 2010.55 1307.28 2029.36 1311.67 2048 1316.69 L 2048 1335.99 C 2030.97 1331.75 1984.98 1320.73 1970.89 1315.36 L 1971.23 1314.66 C 1969.3 1313 1948.51 1307.54 1944.17 1306.19 C 1955.57 1303.74 1967 1301.47 1978.47 1299.36 z" fill="rgb(35,118,127)" transform="translate(0,0)"></path>
<path d="M 1799 668.896 C 1829.7 661.963 1863 654.665 1893.89 648.78 C 1893.83 663.687 1894.45 692.691 1893.16 706.507 L 1892.96 1090.36 C 1892.96 1151.16 1891.38 1219.89 1892.98 1279.89 L 1893.26 1295.86 C 1890.53 1295.21 1881.94 1293.33 1879.8 1292.44 C 1874.87 1291.57 1850.55 1285.79 1845.99 1284.21 C 1839.44 1282.77 1834.26 1281.65 1827.85 1279.51 C 1823.39 1278.71 1816.91 1277.11 1812.68 1275.57 C 1810.13 1275.16 1804.84 1273.3 1802.16 1272.44 L 1799.39 1271.7 C 1798.28 1265.56 1798.98 1230.04 1798.99 1221.82 L 1798.75 1109.43 L 1799 668.896 z" fill="rgb(43,30,46)" transform="translate(0,0)"></path>
<path d="M 1799.39 1271.7 C 1798.28 1265.56 1798.98 1230.04 1798.99 1221.82 L 1798.75 1109.43 L 1799 668.896 C 1803.7 672.493 1820.32 676.861 1826.66 678.653 C 1827.41 722.731 1826.91 768.271 1826.92 812.446 L 1826.82 1084.72 L 1826.9 1210.9 C 1826.89 1219.41 1827.51 1256.66 1826.54 1262.78 C 1821.31 1264.13 1801.93 1268.15 1799.39 1271.7 z" fill="rgb(35,118,127)" transform="translate(0,0)"></path>
<path d="M 1799 668.896 C 1829.7 661.963 1863 654.665 1893.89 648.78 C 1893.83 663.687 1894.45 692.691 1893.16 706.507 C 1892.33 693.437 1892.79 677.745 1892.87 664.461 C 1881.3 667.537 1837.97 677.515 1827.27 677.961 C 1822.5 675.214 1804.2 668.195 1799 668.896 z" fill="rgb(35,118,127)" transform="translate(0,0)"></path>
<path d="M 1827.37 1264.27 C 1848.79 1268.26 1871.71 1275.64 1892.98 1279.89 L 1893.26 1295.86 C 1890.53 1295.21 1881.94 1293.33 1879.8 1292.44 C 1874.87 1291.57 1850.55 1285.79 1845.99 1284.21 C 1839.44 1282.77 1834.26 1281.65 1827.85 1279.51 C 1823.39 1278.71 1816.91 1277.11 1812.68 1275.57 C 1810.13 1275.16 1804.84 1273.3 1802.16 1272.44 C 1804.84 1269.63 1822.01 1265.85 1827.37 1264.27 z" fill="rgb(35,118,127)" transform="translate(0,0)"></path>
<path d="M 1845.99 1284.21 C 1848.71 1282.01 1860.98 1286.24 1864.58 1287.45 C 1868.73 1288.84 1877.66 1287.69 1879.8 1292.44 C 1874.87 1291.57 1850.55 1285.79 1845.99 1284.21 z" fill="rgb(43,30,46)" transform="translate(0,0)"></path>
<path d="M 1812.68 1275.57 C 1815.92 1275.05 1827.15 1275.24 1827.85 1279.51 C 1823.39 1278.71 1816.91 1277.11 1812.68 1275.57 z" fill="rgb(29,84,93)" transform="translate(0,0)"></path>
<path d="M 1674.19 696.943 C 1677.91 695.709 1681.81 694.93 1685.64 694.091 C 1708.39 689.113 1731.02 683.029 1753.95 678.953 C 1755.94 681.607 1755.13 762.423 1755.14 771.174 L 1755.22 1103.24 L 1755.22 1208.54 C 1755.22 1220.87 1756 1248.34 1755.02 1259.88 C 1750.8 1261.38 1738.11 1257.31 1733.24 1256.14 C 1714.01 1251.71 1693.55 1245.73 1674.38 1240.54 L 1669.53 1239 C 1668.38 1192.95 1669.09 1143.32 1669.07 1097.09 L 1669.06 842.008 C 1669.06 825.581 1667.62 703.897 1669.79 697.843 L 1672.4 697.159 L 1674.19 696.943 z" fill="rgb(43,30,46)" transform="translate(0,0)"></path>
<path d="M 1669.53 1239 C 1668.38 1192.95 1669.09 1143.32 1669.07 1097.09 L 1669.06 842.008 C 1669.06 825.581 1667.62 703.897 1669.79 697.843 L 1672.4 697.159 L 1671.41 698.504 C 1675.81 701.34 1697.65 704.243 1703.36 704.144 C 1704.79 714.328 1703.89 755.656 1703.87 768.282 L 1703.8 904.734 L 1703.67 1137.5 L 1703.67 1198.8 C 1703.66 1204.92 1703.88 1225.71 1702.9 1230.76 C 1692.86 1232.23 1679.04 1235.67 1669.53 1239 z" fill="rgb(35,118,127)" transform="translate(0,0)"></path>
<path d="M 1703.26 1232.27 C 1712.14 1233.16 1744.24 1241.41 1754.43 1244.59 C 1754.29 1248.46 1754.25 1255.61 1753.79 1259.19 L 1755.02 1259.88 C 1750.8 1261.38 1738.11 1257.31 1733.24 1256.14 C 1714.01 1251.71 1693.55 1245.73 1674.38 1240.54 C 1678.38 1236.73 1696.97 1233.65 1703.26 1232.27 z" fill="rgb(35,118,127)" transform="translate(0,0)"></path>
<path d="M 1733.24 1256.14 C 1735.88 1252.94 1748.71 1259.02 1753.79 1259.19 L 1755.02 1259.88 C 1750.8 1261.38 1738.11 1257.31 1733.24 1256.14 z" fill="rgb(29,84,93)" transform="translate(0,0)"></path>
<path d="M 1674.19 696.943 C 1677.91 695.709 1681.81 694.93 1685.64 694.091 C 1708.39 689.113 1731.02 683.029 1753.95 678.953 C 1754.14 683.475 1754.41 688.198 1754.48 692.702 C 1738.02 696.298 1720.16 700.522 1703.72 703.569 C 1701.49 702.26 1681.54 699.66 1674.19 696.943 z" fill="rgb(35,118,127)" transform="translate(0,0)"></path>
<path d="M 1518.81 477.958 C 1520.79 478.024 1523.36 477.966 1525.21 478.403 C 1524.73 478.483 1520.77 478.932 1520.73 479.586 C 1519.95 491.493 1520.57 503.638 1520.2 515.72 L 1523.03 514.918 C 1528.89 513.267 1537.89 508.45 1543.01 508.526 C 1539.14 511.099 1525.26 515.969 1520.18 517.868 L 1520.8 1127.93 C 1520.49 1200.3 1521.59 1277.17 1520 1349.07 L 1577.92 1374.28 C 1583.6 1376.71 1616.47 1390.55 1619.08 1392.64 C 1620.53 1395.55 1619.47 1394.43 1622.51 1395.96 C 1628.86 1397.53 1656.82 1410 1664.27 1413.57 C 1675.01 1418.73 1696.85 1426.98 1706.6 1432.29 L 1708.13 1431.26 L 1827 1484.03 C 1839.73 1489.73 1869.85 1502.33 1881.17 1509 L 1877.24 1509 L 1703.26 1509 L 1698.84 1509 L 1473.92 1509 L 1470.01 1509 C 1455.43 1499.73 1427.47 1482.07 1412.91 1474.31 C 1408.04 1471.32 1387.11 1459.16 1384.91 1456.3 C 1382.78 1455.74 1381.15 1455.31 1379 1454.88 L 1378.38 1453.7 C 1378.06 1452.58 1377.74 1451.46 1377.4 1450.35 C 1374.06 1447.36 1355.74 1436.9 1351.22 1434.13 C 1330.95 1421.7 1309.85 1409.8 1289.99 1396.7 L 1289.44 1398.42 C 1287.12 1396.87 1287 1396.6 1284.27 1395.96 C 1281.96 1395.43 1280.93 1395.32 1280.41 1392.84 L 1280.13 1391.61 C 1277.35 1388.52 1243.67 1369.88 1238.5 1366.86 C 1230.66 1362.08 1210.33 1350.93 1204.5 1346 L 1202.75 1344.92 C 1207.08 1344.01 1226.87 1344.09 1231.85 1344.09 L 1285.77 1344.16 L 1504.4 1344.07 L 1430.84 1312.27 C 1408.01 1301.72 1380.35 1291.04 1356.87 1281.3 L 1251.34 1236.93 L 1251.5 1235.8 L 1251.39 1235.22 C 1228.36 1226.58 1203.63 1214.68 1179.85 1205.49 L 1179.98 885.575 C 1179.91 836.897 1180.82 785.927 1179.82 737.489 C 1181.18 708.519 1179.73 666.055 1179.57 636.182 L 1191.26 631.371 L 1407.56 529.988 L 1478.56 496.418 C 1490.72 490.692 1506.81 482.529 1518.81 477.958 z" fill="rgb(255,90,31)" transform="translate(0,0)"></path>
<path d="M 1430.23 767.801 L 1432.03 767.958 L 1432.13 1129.03 L 1432.09 1249.05 C 1432.09 1268.58 1431.51 1291.93 1432.15 1311.23 L 1430.84 1312.27 C 1408.01 1301.72 1380.35 1291.04 1356.87 1281.3 L 1251.34 1236.93 L 1251.5 1235.8 C 1252.51 1235.57 1264.67 1235.43 1268.02 1235.12 C 1271.79 1234.99 1272.64 1235.61 1275.3 1233.67 C 1276.29 1228.23 1275.96 1199.96 1275.96 1193.34 L 1275.86 1108.77 L 1276.11 803.221 L 1276.74 802.042 C 1287.44 800.711 1316.54 794.054 1327.92 791.386 C 1358.15 784.301 1401.9 777.534 1430.23 767.801 z" fill="rgb(43,30,46)" transform="translate(0,0)"></path>
<path d="M 1577.92 1374.28 C 1583.6 1376.71 1616.47 1390.55 1619.08 1392.64 C 1620.53 1395.55 1619.47 1394.43 1622.51 1395.96 C 1628.86 1397.53 1656.82 1410 1664.27 1413.57 C 1675.01 1418.73 1696.85 1426.98 1706.6 1432.29 L 1708.13 1431.26 L 1827 1484.03 C 1839.73 1489.73 1869.85 1502.33 1881.17 1509 L 1877.24 1509 L 1703.26 1509 L 1698.84 1509 L 1473.92 1509 L 1470.01 1509 C 1455.43 1499.73 1427.47 1482.07 1412.91 1474.31 C 1408.04 1471.32 1387.11 1459.16 1384.91 1456.3 C 1382.78 1455.74 1381.15 1455.31 1379 1454.88 L 1378.38 1453.7 C 1378.06 1452.58 1377.74 1451.46 1377.4 1450.35 C 1374.06 1447.36 1355.74 1436.9 1351.22 1434.13 C 1330.95 1421.7 1309.85 1409.8 1289.99 1396.7 L 1289.91 1396.43 C 1331.47 1394.89 1375.53 1396.86 1417.34 1396.15 C 1433.17 1395.88 1450.53 1396.81 1466.11 1395.84 C 1466.31 1394.74 1466.52 1393.65 1466.73 1392.55 C 1468 1393.07 1469.04 1393.55 1470.28 1394.13 L 1561.05 1394.14 C 1574.66 1394.17 1595.55 1394.87 1608.65 1394.1 C 1611.15 1394.16 1613.64 1393.92 1616.14 1393.75 L 1616.4 1393 L 1613.04 1391.83 C 1607.37 1388.35 1584.73 1379.21 1576.71 1375.26 L 1577.92 1374.28 z" fill="rgb(245,237,230)" transform="translate(0,0)"></path>
<path d="M 1585.39 1451.46 C 1587.88 1452.52 1589.29 1452.87 1591.89 1453.59 C 1593.53 1454.36 1593.45 1454.53 1593.91 1456.3 C 1596.91 1460.16 1678.25 1498.27 1690.72 1504.64 C 1693.49 1505.99 1696.26 1507.32 1698.84 1509 L 1473.92 1509 L 1470.01 1509 C 1455.43 1499.73 1427.47 1482.07 1412.91 1474.31 L 1414.95 1473.01 L 1385.43 1455.31 C 1450.14 1453.23 1519.36 1456.37 1584.76 1455.05 L 1585.39 1451.46 z" fill="rgb(245,237,230)" transform="translate(0,0)"></path>
<path d="M 1414.95 1473.01 C 1434.73 1484.32 1454.5 1497 1473.92 1509 L 1470.01 1509 C 1455.43 1499.73 1427.47 1482.07 1412.91 1474.31 L 1414.95 1473.01 z" fill="rgb(136,122,112)" transform="translate(0,0)"></path>
<path d="M 1585.39 1451.46 C 1587.88 1452.52 1589.29 1452.87 1591.89 1453.59 C 1593.53 1454.36 1593.45 1454.53 1593.91 1456.3 C 1589.78 1455.38 1589.06 1455.22 1584.76 1455.05 L 1585.39 1451.46 z" fill="rgb(43,30,46)" transform="translate(0,0)"></path>
<path d="M 1708.13 1431.26 L 1827 1484.03 C 1839.73 1489.73 1869.85 1502.33 1881.17 1509 L 1877.24 1509 L 1703.26 1509 L 1698.84 1509 C 1696.26 1507.32 1693.49 1505.99 1690.72 1504.64 C 1678.25 1498.27 1596.91 1460.16 1593.91 1456.3 C 1593.45 1454.53 1593.53 1454.36 1591.89 1453.59 C 1595.39 1452.79 1629.05 1453.41 1635.97 1453.35 C 1674.56 1453.02 1713.59 1454.04 1752.18 1452.88 C 1736.9 1446.22 1721.7 1439.36 1706.6 1432.29 L 1708.13 1431.26 z" fill="rgb(245,237,230)" transform="translate(0,0)"></path>
<path d="M 1708.13 1431.26 L 1827 1484.03 C 1839.73 1489.73 1869.85 1502.33 1881.17 1509 L 1877.24 1509 C 1872.59 1505.73 1835.65 1489.65 1828.45 1486.58 C 1806.86 1477.38 1778.87 1463.25 1757.33 1456.09 C 1753.01 1454.65 1710.56 1454.99 1703.79 1455.1 C 1668.2 1455.66 1630.63 1454.26 1595.18 1455.45 L 1691.42 1502.65 L 1690.72 1504.64 C 1678.25 1498.27 1596.91 1460.16 1593.91 1456.3 C 1593.45 1454.53 1593.53 1454.36 1591.89 1453.59 C 1595.39 1452.79 1629.05 1453.41 1635.97 1453.35 C 1674.56 1453.02 1713.59 1454.04 1752.18 1452.88 C 1736.9 1446.22 1721.7 1439.36 1706.6 1432.29 L 1708.13 1431.26 z" fill="rgb(136,122,112)" transform="translate(0,0)"></path>
<path d="M 1691.42 1502.65 C 1695.36 1505 1699.23 1506.81 1703.26 1509 L 1698.84 1509 C 1696.26 1507.32 1693.49 1505.99 1690.72 1504.64 L 1691.42 1502.65 z" fill="rgb(136,122,112)" transform="translate(0,0)"></path>
<path d="M 1622.51 1395.96 C 1628.86 1397.53 1656.82 1410 1664.27 1413.57 C 1675.01 1418.73 1696.85 1426.98 1706.6 1432.29 C 1721.7 1439.36 1736.9 1446.22 1752.18 1452.88 C 1713.59 1454.04 1674.56 1453.02 1635.97 1453.35 C 1629.05 1453.41 1595.39 1452.79 1591.89 1453.59 C 1589.29 1452.87 1587.88 1452.52 1585.39 1451.46 C 1582.63 1449.09 1555.59 1436.14 1550.39 1433.58 L 1474.59 1396.29 C 1523.67 1395.4 1573.54 1396.98 1622.51 1395.96 z" fill="rgb(245,237,230)" transform="translate(0,0)"></path>
<path d="M 1577.92 1374.28 C 1583.6 1376.71 1616.47 1390.55 1619.08 1392.64 C 1620.53 1395.55 1619.47 1394.43 1622.51 1395.96 C 1573.54 1396.98 1523.67 1395.4 1474.59 1396.29 L 1550.39 1433.58 C 1555.59 1436.14 1582.63 1449.09 1585.39 1451.46 L 1584.76 1455.05 C 1519.36 1456.37 1450.14 1453.23 1385.43 1455.31 L 1414.95 1473.01 L 1412.91 1474.31 C 1408.04 1471.32 1387.11 1459.16 1384.91 1456.3 C 1382.78 1455.74 1381.15 1455.31 1379 1454.88 L 1378.38 1453.7 C 1378.06 1452.58 1377.74 1451.46 1377.4 1450.35 C 1379.26 1451.4 1381.15 1452.41 1383.06 1453.36 L 1385.76 1453.19 C 1400.36 1451.97 1421.62 1453.33 1437.03 1452.94 C 1483.97 1451.75 1536.96 1455.15 1583.32 1452.36 C 1577.63 1449.28 1571.6 1446.3 1565.76 1443.5 C 1534.77 1428.67 1504.29 1412.09 1473.13 1397.69 C 1470.34 1396.29 1469.19 1396.19 1466.11 1395.84 C 1466.31 1394.74 1466.52 1393.65 1466.73 1392.55 C 1468 1393.07 1469.04 1393.55 1470.28 1394.13 L 1561.05 1394.14 C 1574.66 1394.17 1595.55 1394.87 1608.65 1394.1 C 1611.15 1394.16 1613.64 1393.92 1616.14 1393.75 L 1616.4 1393 L 1613.04 1391.83 C 1607.37 1388.35 1584.73 1379.21 1576.71 1375.26 L 1577.92 1374.28 z" fill="rgb(136,122,112)" transform="translate(0,0)"></path>
<path d="M 1583.32 1452.36 L 1583.41 1453.54 C 1575.59 1454.46 1557.76 1453.96 1549.15 1453.97 L 1481.32 1454.02 L 1418.31 1453.94 C 1410.92 1453.93 1392.05 1454.25 1385.76 1453.19 C 1400.36 1451.97 1421.62 1453.33 1437.03 1452.94 C 1483.97 1451.75 1536.96 1455.15 1583.32 1452.36 z" fill="rgb(186,171,158)" transform="translate(0,0)"></path>
<path d="M 1466.73 1392.55 C 1468 1393.07 1469.04 1393.55 1470.28 1394.13 C 1472.92 1394.87 1472.83 1394.91 1475.52 1395.2 L 1475.75 1395.69 L 1476.08 1395.46 C 1474.87 1396.22 1474.19 1396.73 1473.13 1397.69 C 1470.34 1396.29 1469.19 1396.19 1466.11 1395.84 C 1466.31 1394.74 1466.52 1393.65 1466.73 1392.55 z" fill="rgb(43,30,46)" transform="translate(0,0)"></path>
<path d="M 1378.38 1453.7 C 1378.06 1452.58 1377.74 1451.46 1377.4 1450.35 C 1379.26 1451.4 1381.15 1452.41 1383.06 1453.36 C 1384.58 1454.48 1384.39 1454.45 1384.91 1456.3 C 1382.78 1455.74 1381.15 1455.31 1379 1454.88 L 1378.38 1453.7 z" fill="rgb(43,30,46)" transform="translate(0,0)"></path>
<path d="M 1253.43 799.183 L 1255.26 800.065 L 1259.06 800.052 C 1263.92 802.042 1270.86 803.112 1276.11 803.221 L 1275.86 1108.77 L 1275.96 1193.34 C 1275.96 1199.96 1276.29 1228.23 1275.3 1233.67 C 1272.64 1235.61 1271.79 1234.99 1268.02 1235.12 C 1264.67 1235.43 1252.51 1235.57 1251.5 1235.8 L 1251.39 1235.22 C 1254.22 1232.17 1253.22 1196.58 1253.24 1189.43 L 1253.44 1110.02 L 1253.36 914.307 C 1253.28 876.403 1252.64 836.992 1253.43 799.183 z" fill="rgb(255,90,31)" transform="translate(0,0)"></path>
<path d="M 1253.43 799.183 L 1255.26 800.065 L 1255.08 1234.83 C 1259.13 1234.91 1264.06 1234.87 1268.02 1235.12 C 1264.67 1235.43 1252.51 1235.57 1251.5 1235.8 L 1251.39 1235.22 C 1254.22 1232.17 1253.22 1196.58 1253.24 1189.43 L 1253.44 1110.02 L 1253.36 914.307 C 1253.28 876.403 1252.64 836.992 1253.43 799.183 z" fill="rgb(175,55,31)" transform="translate(0,0)"></path>
<path d="M 1204.5 1346 L 1324.92 1345.91 C 1339.52 1345.9 1357.37 1345.54 1372.19 1346.47 C 1373.68 1346.57 1381.72 1351.28 1383.69 1352.34 L 1384.41 1350.61 L 1440.85 1379.19 C 1444.55 1381.06 1464.22 1390.7 1466.73 1392.55 C 1466.52 1393.65 1466.31 1394.74 1466.11 1395.84 C 1450.53 1396.81 1433.17 1395.88 1417.34 1396.15 C 1375.53 1396.86 1331.47 1394.89 1289.91 1396.43 L 1289.99 1396.7 L 1289.44 1398.42 C 1287.12 1396.87 1287 1396.6 1284.27 1395.96 C 1281.96 1395.43 1280.93 1395.32 1280.41 1392.84 L 1280.13 1391.61 C 1277.35 1388.52 1243.67 1369.88 1238.5 1366.86 C 1230.66 1362.08 1210.33 1350.93 1204.5 1346 z" fill="rgb(245,237,230)" transform="translate(0,0)"></path>
<path d="M 1384.41 1350.61 L 1440.85 1379.19 C 1444.55 1381.06 1464.22 1390.7 1466.73 1392.55 C 1466.52 1393.65 1466.31 1394.74 1466.11 1395.84 C 1450.53 1396.81 1433.17 1395.88 1417.34 1396.15 C 1375.53 1396.86 1331.47 1394.89 1289.91 1396.43 L 1290.87 1394.2 C 1298.61 1393.23 1332.04 1394.11 1341.71 1394.1 L 1466.26 1394.1 C 1442.22 1382.86 1406.47 1365 1383.69 1352.34 L 1384.41 1350.61 z" fill="rgb(136,122,112)" transform="translate(0,0)"></path>
<path d="M 1280.13 1391.61 C 1285.28 1394 1285.14 1393.85 1290.87 1394.2 L 1289.91 1396.43 L 1289.99 1396.7 L 1289.44 1398.42 C 1287.12 1396.87 1287 1396.6 1284.27 1395.96 C 1281.96 1395.43 1280.93 1395.32 1280.41 1392.84 L 1280.13 1391.61 z" fill="rgb(43,30,46)" transform="translate(0,0)"></path>
<path d="M 1375.62 1345.91 L 1463.44 1345.93 C 1471.42 1345.93 1504.06 1345.21 1509.67 1347.18 C 1531.14 1354.71 1555.42 1366.41 1576.71 1375.26 C 1584.73 1379.21 1607.37 1388.35 1613.04 1391.83 L 1616.4 1393 L 1616.14 1393.75 C 1613.64 1393.92 1611.15 1394.16 1608.65 1394.1 C 1595.55 1394.87 1574.66 1394.17 1561.05 1394.14 L 1470.28 1394.13 C 1469.04 1393.55 1468 1393.07 1466.73 1392.55 C 1464.22 1390.7 1444.55 1381.06 1440.85 1379.19 L 1384.41 1350.61 C 1381.64 1349.21 1378.14 1347.59 1375.62 1345.91 z" fill="rgb(245,237,230)" transform="translate(0,0)"></path>
<path d="M 1518.81 477.958 C 1520.79 478.024 1523.36 477.966 1525.21 478.403 C 1524.73 478.483 1520.77 478.932 1520.73 479.586 C 1519.95 491.493 1520.57 503.638 1520.2 515.72 L 1523.03 514.918 C 1528.89 513.267 1537.89 508.45 1543.01 508.526 C 1539.14 511.099 1525.26 515.969 1520.18 517.868 L 1520.8 1127.93 C 1520.49 1200.3 1521.59 1277.17 1520 1349.07 L 1577.92 1374.28 L 1576.71 1375.26 C 1555.42 1366.41 1531.14 1354.71 1509.67 1347.18 C 1504.06 1345.21 1471.42 1345.93 1463.44 1345.93 L 1375.62 1345.91 C 1378.14 1347.59 1381.64 1349.21 1384.41 1350.61 L 1383.69 1352.34 C 1381.72 1351.28 1373.68 1346.57 1372.19 1346.47 C 1357.37 1345.54 1339.52 1345.9 1324.92 1345.91 L 1204.5 1346 L 1202.75 1344.92 C 1207.08 1344.01 1226.87 1344.09 1231.85 1344.09 L 1285.77 1344.16 L 1504.4 1344.07 L 1430.84 1312.27 L 1432.15 1311.23 C 1435.92 1312.14 1452.38 1319.35 1456.68 1321.16 C 1477.52 1329.85 1498.21 1338.94 1518.71 1348.42 L 1518.81 477.958 z" fill="rgb(146,78,34)" transform="translate(0,0)"></path>
<path d="M 1257.04 797.834 C 1264.32 794.973 1308.25 784.8 1318.73 782.401 C 1356.46 773.767 1394.52 763.514 1432.12 755.015 L 1432.03 767.958 L 1430.23 767.801 C 1401.9 777.534 1358.15 784.301 1327.92 791.386 C 1316.54 794.054 1287.44 800.711 1276.74 802.042 L 1276.11 803.221 C 1270.86 803.112 1263.92 802.042 1259.06 800.052 L 1255.26 800.065 L 1253.43 799.183 C 1254.65 798.719 1255.81 798.262 1257.04 797.834 z" fill="rgb(255,90,31)" transform="translate(0,0)"></path>
<path d="M 1257.04 797.834 C 1264.32 794.973 1308.25 784.8 1318.73 782.401 C 1356.46 773.767 1394.52 763.514 1432.12 755.015 L 1432.03 767.958 L 1430.23 767.801 C 1430.09 764.86 1430.46 759.046 1428.86 757.509 C 1417.69 760.721 1406 762.992 1394.59 765.795 C 1366.27 772.817 1337.91 779.657 1309.51 786.314 C 1296.69 789.394 1273.08 794.808 1260.82 798.971 L 1276.74 802.042 L 1276.11 803.221 C 1270.86 803.112 1263.92 802.042 1259.06 800.052 L 1255.26 800.065 L 1253.43 799.183 C 1254.65 798.719 1255.81 798.262 1257.04 797.834 z" fill="rgb(121,34,25)" transform="translate(0,0)"></path>
<path d="M 1257.04 797.834 C 1259.06 798.206 1259.39 797.986 1259.06 800.052 L 1255.26 800.065 L 1253.43 799.183 C 1254.65 798.719 1255.81 798.262 1257.04 797.834 z" fill="rgb(43,30,46)" transform="translate(0,0)"></path>
<path d="M 1374.53 647.078 C 1379.67 648.049 1385.7 649.441 1390.84 649.303 L 1390.71 697.743 C 1390.72 706.123 1391.29 719.25 1390.19 726.94 C 1387 728.791 1365.16 735.529 1360.56 736.476 C 1337.28 741.272 1287.21 762.332 1264.85 760.447 C 1260.81 759.99 1260.46 760.585 1257.49 758.33 C 1256.52 752.437 1256.95 740.183 1256.96 733.62 L 1256.9 689.993 C 1263.07 688.146 1269.89 685.228 1276.18 684.762 C 1286.31 682.991 1338.36 663.148 1349.8 657.701 C 1355.02 654.399 1368.39 649.106 1374.53 647.078 z" fill="rgb(245,237,230)" transform="translate(0,0)"></path>
<path d="M 1374.53 647.078 C 1379.67 648.049 1385.7 649.441 1390.84 649.303 L 1390.71 697.743 C 1390.72 706.123 1391.29 719.25 1390.19 726.94 C 1387 728.791 1365.16 735.529 1360.56 736.476 C 1337.28 741.272 1287.21 762.332 1264.85 760.447 L 1263.79 757.171 C 1267.3 755.334 1292.27 748.278 1297.83 746.639 C 1322.88 739.316 1347.9 731.867 1372.88 724.291 L 1372.87 649.681 C 1365.23 652.513 1357.54 655.186 1349.8 657.701 C 1355.02 654.399 1368.39 649.106 1374.53 647.078 z" fill="rgb(105,99,97)" transform="translate(0,0)"></path>
<path d="M 1375.14 649.091 C 1378.75 650.038 1385.29 650.24 1389.24 650.489 C 1390.4 672.851 1389.22 704.38 1388.98 727.211 C 1384.42 725.987 1379.72 724.985 1375.11 723.945 L 1375.14 649.091 z" fill="rgb(245,237,230)" transform="translate(0,0)"></path>
<path d="M 1372.78 726.192 C 1375.3 725.929 1379.53 725.823 1381.65 727.238 C 1377.72 731.584 1286.13 756.229 1275.01 759.295 L 1269.44 759.668 L 1268.97 758.176 L 1267.26 759.386 L 1267.93 759.394 L 1267.07 758.815 C 1269.2 756.208 1362.18 729.36 1372.78 726.192 z" fill="rgb(245,237,230)" transform="translate(0,0)"></path>
<path d="M 1256.9 689.993 C 1263.07 688.146 1269.89 685.228 1276.18 684.762 C 1270.36 687.081 1264.93 689.256 1258.97 691.232 C 1258.94 700.882 1257.91 751.977 1259.68 757.256 C 1261.83 757.691 1261.69 757.744 1263.79 757.171 L 1264.85 760.447 C 1260.81 759.99 1260.46 760.585 1257.49 758.33 C 1256.52 752.437 1256.95 740.183 1256.96 733.62 L 1256.9 689.993 z" fill="rgb(121,34,25)" transform="translate(0,0)"></path>
<path d="M 1588.84 491.711 C 1601.31 487.85 1613.88 482.978 1626.14 478.418 L 1626.25 1111.65 L 1626.13 1304.58 L 1626.16 1360.89 C 1626.2 1369.82 1626.69 1385.04 1625.77 1393.5 L 1624.67 1394.44 C 1622.58 1393.87 1621.09 1393.5 1619.08 1392.64 C 1616.47 1390.55 1583.6 1376.71 1577.92 1374.28 L 1520 1349.07 C 1521.59 1277.17 1520.49 1200.3 1520.8 1127.93 L 1520.18 517.868 C 1525.26 515.969 1539.14 511.099 1543.01 508.526 C 1555.34 505.064 1576.46 496.39 1588.84 491.711 z" fill="rgb(139,92,246)" transform="translate(0,0)"></path>
<path d="M 1581.61 727.192 L 1583.47 727.164 C 1585.9 732.711 1584.75 1004.5 1584.89 1033.04 C 1578.01 1031.45 1571.1 1030.61 1564.11 1029.63 C 1559.89 1029.1 1558.12 1029.58 1555.06 1027.33 C 1554.18 1020.57 1554.51 1004.14 1554.47 996.908 L 1554.23 936.115 L 1554.33 732.32 C 1563.86 730.829 1572.17 729.209 1581.61 727.192 z" fill="rgb(43,30,46)" transform="translate(0,0)"></path>
<path d="M 1968.4 0 L 2048 0 L 2048 22.7677 L 2048 25.8125 L 2048 113.929 L 2048 117.446 C 2044.94 121.168 2038.62 128.851 2036.1 132.453 C 2034.39 133.621 2032.79 134.633 2031.03 135.721 C 2033.69 134.458 1988.54 173.754 1988.08 174.227 C 1981.87 178.358 1970.98 186.65 1965.04 189.781 C 1911.07 218.259 1853.96 236.539 1793.02 236.098 C 1806.55 186.417 1832.82 130.068 1864.26 89.2976 C 1889.15 57.7416 1905.98 42.9529 1937.13 19.4824 C 1947.48 12.7079 1957.91 7.22404 1968.4 0 z" fill="rgb(139,92,246)" transform="translate(0,0)"></path>
<path d="M 2048 22.7677 L 2048 25.8125 C 2036.56 33.2215 2003.76 61.6529 1992.18 71.224 L 1869.94 172.718 C 1863.65 177.943 1830.95 205.997 1825.83 207.29 C 1845.9 188.113 1878.62 163.221 1901.1 144.604 L 2048 22.7677 z" fill="rgb(43,30,46)" transform="translate(0,0)"></path>
<path d="M 2031.03 135.721 C 2035.38 129.447 2042.31 121.777 2047.56 114.531 L 2048 113.929 L 2048 117.446 C 2044.94 121.168 2038.62 128.851 2036.1 132.453 C 2034.39 133.621 2032.79 134.633 2031.03 135.721 z" fill="rgb(43,30,46)" transform="translate(0,0)"></path>
<path d="M 1762.85 0 L 1866.59 0 L 1869.63 0 L 1945.88 0 C 1943.09 5.06296 1940.15 10.7022 1937.12 15.5654 C 1930.58 22.9721 1916.9 32.0364 1908.91 39.2002 C 1891.61 54.7052 1876.86 70.3338 1862.31 88.3504 C 1858.42 91.8847 1844.15 99.7551 1839.1 102.372 C 1788.44 128.601 1721.93 143.766 1664.96 144.076 C 1669.58 129.071 1688.29 95.8154 1696.32 82.2467 C 1717.16 49.5239 1735.37 27.762 1762.85 0 z" fill="rgb(139,92,246)" transform="translate(0,0)"></path>
<path d="M 1818.58 34.5583 L 1821.14 35.1311 C 1812.92 42.0386 1706.95 119.095 1702.03 119.789 C 1702.58 118.162 1705.73 115.295 1707.21 114.301 C 1745.17 88.9253 1781.21 60.8609 1818.58 34.5583 z" fill="rgb(91,46,140)" transform="translate(0,0)"></path>
<path d="M 1866.59 0 L 1869.63 0 C 1853.73 12.5994 1836.2 23.3411 1821.14 35.1311 L 1818.58 34.5583 C 1831.82 25.9206 1854.31 9.7527 1866.59 0 z" fill="rgb(43,30,46)" transform="translate(0,0)"></path>
<path d="M 2048 117.446 L 2048 192.423 L 2048 195.362 L 2048 277.68 C 2011.2 308.915 1963.09 333.894 1915.77 343.773 C 1923.13 298.76 1950.84 203.395 1988.87 175.704 L 1988.08 174.227 C 1988.54 173.754 2033.69 134.458 2031.03 135.721 C 2032.79 134.633 2034.39 133.621 2036.1 132.453 C 2038.62 128.851 2044.94 121.168 2048 117.446 z" fill="rgb(139,92,246)" transform="translate(0,0)"></path>
<path d="M 2041.59 199.634 L 2043.24 200.284 C 2034.27 209.539 2023.9 222.233 2015.06 232.155 L 1966.29 286.394 C 1961.21 292.119 1944.13 312.531 1939.8 315.766 L 1939.6 314.814 C 1943.52 308.247 1971.34 277.779 1978.24 270.28 C 1999.49 247.2 2020.27 222.419 2041.59 199.634 z" fill="rgb(43,30,46)" transform="translate(0,0)"></path>
<path d="M 2036.1 132.453 C 2025.47 146.23 2002.98 165.405 1988.87 175.704 L 1988.08 174.227 C 1988.54 173.754 2033.69 134.458 2031.03 135.721 C 2032.79 134.633 2034.39 133.621 2036.1 132.453 z" fill="rgb(91,46,140)" transform="translate(0,0)"></path>
<path d="M 2048 192.423 L 2048 195.362 L 2043.24 200.284 L 2041.59 199.634 C 2043.73 196.992 2045.67 194.875 2048 192.423 z" fill="rgb(91,46,140)" transform="translate(0,0)"></path>
<path d="M 1685.66 0 L 1744.81 0 L 1747.66 0 L 1760.32 0 C 1734.16 26.5386 1714.44 48.822 1695.12 80.9345 C 1670.71 93.6518 1633.93 100.794 1606.56 102.172 C 1620.27 72.7083 1633.88 53.1716 1655.32 28.7754 L 1678.2 7.37441 L 1685.66 0 z" fill="rgb(139,92,246)" transform="translate(0,0)"></path>
<path d="M 1744.81 0 L 1747.66 0 C 1727.35 17.8661 1699.69 36.8919 1677.8 53.5856 C 1668.55 60.6399 1643.36 79.6239 1635 84.4816 C 1631.98 86.7146 1631.18 87.6724 1627.63 88.3931 C 1628.62 85.9463 1632.58 83.8974 1635 82.3155 L 1706.98 29.4436 C 1718.98 20.4559 1733.84 9.81085 1744.81 0 z" fill="rgb(43,30,46)" transform="translate(0,0)"></path>
<path d="M 1562.74 0 L 1609 0 L 1612.06 0 L 1683.45 0 L 1676.64 6.61068 C 1672.78 9.79273 1661.18 19.6718 1657.85 23.4487 C 1630.35 40.9496 1565.33 50.0925 1532.93 45.7819 C 1539.24 30.7399 1552.8 13.5032 1562.74 0 z" fill="rgb(139,92,246)" transform="translate(0,0)"></path>
<path d="M 1609 0 L 1612.06 0 C 1608.25 3.19137 1604.08 5.77997 1599.98 8.55185 C 1585.42 18.3844 1570.82 28.6501 1555.36 36.8997 C 1555.18 36.9965 1554.58 36.8189 1554.46 36.6174 C 1553.68 35.3041 1556.39 34.0453 1557.12 33.5714 C 1574.94 23.1973 1591.81 11.3466 1609 0 z" fill="rgb(43,30,46)" transform="translate(0,0)"></path>
<path d="M 1525.21 478.403 C 1532.48 479.62 1587.7 488.284 1588.84 491.711 C 1576.46 496.39 1555.34 505.064 1543.01 508.526 C 1537.89 508.45 1528.89 513.267 1523.03 514.918 L 1520.2 515.72 C 1520.57 503.638 1519.95 491.493 1520.73 479.586 C 1520.77 478.932 1524.73 478.483 1525.21 478.403 z" fill="rgb(255,90,31)" transform="translate(0,0)"></path>
<path d="M 254.377 98.8675 C 320.219 93.358 378.133 142.095 383.951 207.91 C 389.769 273.725 341.304 331.867 275.518 337.994 C 209.293 344.162 150.679 295.303 144.822 229.051 C 138.965 162.798 188.098 104.414 254.377 98.8675 z" fill="rgb(245,237,230)" transform="translate(0,0)"></path>
<path d="M 1222.1 163.287 C 1225.32 160.247 1219.66 150.212 1221.4 146.166 C 1221.99 144.787 1229.49 143.534 1230.14 144.497 C 1232.98 148.67 1231.53 155.483 1233.97 160.044 C 1250.74 158.456 1265.35 161.319 1278.6 172.411 C 1294.42 185.649 1301.86 203.605 1303.6 223.816 C 1305 240.113 1299.49 254.585 1301.54 269.796 C 1303.22 279.008 1307.67 288.667 1310.9 297.272 C 1312.74 302.183 1313.49 310.575 1309.24 313.822 C 1284.96 332.349 1237.33 304.688 1220.9 287.535 C 1201.84 267.642 1190.26 245.136 1189.46 218.442 C 1189.51 201.374 1194.69 186.118 1206.94 173.912 C 1211.34 169.524 1216.47 165.929 1222.1 163.287 z" fill="rgb(255,209,102)" transform="translate(0,0)"></path>
<path d="M 1222.1 163.287 C 1225.32 160.247 1219.66 150.212 1221.4 146.166 C 1221.99 144.787 1229.49 143.534 1230.14 144.497 C 1232.98 148.67 1231.53 155.483 1233.97 160.044 C 1235.63 165.805 1239.86 171.941 1224.6 169.759 C 1224.31 169.719 1223.34 165.235 1222.1 163.287 z" fill="rgb(254,161,58)" transform="translate(0,0)"></path>
<path d="M 678.515 235.508 C 682.249 236.548 686.189 237.71 689.928 238.659 C 688.53 243.846 687.258 249.067 686.113 254.315 C 689.879 255.96 694.561 258.34 697.997 260.571 C 710.814 268.991 719.717 282.2 722.712 297.24 C 727.242 319.894 720.184 339.395 706.807 361.718 C 693.494 383.936 648.129 422.72 618.647 409.231 C 603.809 399.267 619.144 373.291 618.269 361.934 C 615.864 330.691 605.84 302.144 627.105 274.605 C 637.352 261.334 649.744 254.659 666.727 252.505 C 668.115 252.391 673.926 252.667 674.278 251.63 C 676.004 246.546 677.123 240.774 678.515 235.508 z" fill="rgb(255,209,102)" transform="translate(0,0)"></path>
<path d="M 678.515 235.508 C 682.249 236.548 686.189 237.71 689.928 238.659 C 688.53 243.846 687.258 249.067 686.113 254.315 C 685.769 255.254 684.329 261.177 683.034 260.571 C 681.812 260 670.366 259.911 672.47 256.773 C 675.468 252.304 669.682 253.008 666.727 252.505 C 668.115 252.391 673.926 252.667 674.278 251.63 C 676.004 246.546 677.123 240.774 678.515 235.508 z" fill="rgb(254,161,58)" transform="translate(0,0)"></path>
<path d="M 512.728 415.085 C 516.748 416.231 520.231 417.448 524.159 418.759 C 522.593 422.394 516.569 433.143 516.165 435.181 C 561.101 465.229 543.607 520.294 507.061 549.012 C 492.994 560.065 497.201 595.01 477.932 596.999 C 465.372 598.295 451.768 582.269 445.696 572.7 C 420.538 533.058 420.067 465.499 462.456 436.867 C 475.181 428.315 490.289 426.962 505.134 430.296 C 507.826 428.537 511.018 418.866 512.728 415.085 z" fill="rgb(255,209,102)" transform="translate(0,0)"></path>
<path d="M 512.728 415.085 C 516.748 416.231 520.231 417.448 524.159 418.759 C 522.593 422.394 516.569 433.143 516.165 435.181 C 513.138 443.342 513.987 444.176 503.695 436.996 C 503.026 436.53 504.972 431.972 505.134 430.296 C 507.826 428.537 511.018 418.866 512.728 415.085 z" fill="rgb(254,161,58)" transform="translate(0,0)"></path>
<path d="M 978.566 132.449 C 981.946 133.355 985.507 134.316 988.846 135.312 C 987.883 140.387 985.283 148.973 986.535 153.659 C 1009.61 160.777 1020.98 177.075 1025.06 200.48 C 1030.93 234.152 1008.78 251.426 999.652 280.464 C 997.071 288.673 1001.58 306.045 995.209 313.954 C 983.116 327.25 961.142 310.922 951.801 302.044 C 929.902 281.234 916.975 253.246 915.852 223.16 C 914.475 186.278 932.891 151.964 973.002 150.693 C 975.679 147.733 977.422 137.146 978.566 132.449 z" fill="rgb(255,209,102)" transform="translate(0,0)"></path>
<path d="M 978.566 132.449 C 981.946 133.355 985.507 134.316 988.846 135.312 C 987.883 140.387 985.283 148.973 986.535 153.659 C 985.252 160.826 982.474 157.899 976.465 157.164 C 970.987 156.494 971.767 155.013 973.002 150.693 C 975.679 147.733 977.422 137.146 978.566 132.449 z" fill="rgb(254,161,58)" transform="translate(0,0)"></path>
<path d="M 1417.03 278.3 C 1420.79 277.702 1424.56 277.228 1428.35 276.878 C 1429.11 280.248 1430.55 291.327 1432.77 292.754 C 1448.83 291.115 1463.45 294.884 1476.02 305.434 C 1505.8 330.425 1498.66 362.841 1496.52 396.491 C 1495.54 411.998 1525.44 446.958 1486.29 447.66 C 1460.54 448.122 1435.68 431.355 1418.29 414.363 C 1386.48 386.481 1372.3 316.31 1419.88 296.186 C 1422.16 294.193 1417.83 281.545 1417.03 278.3 z" fill="rgb(255,209,102)" transform="translate(0,0)"></path>
<path d="M 1417.03 278.3 C 1420.79 277.702 1424.56 277.228 1428.35 276.878 C 1429.11 280.248 1430.55 291.327 1432.77 292.754 C 1435.5 300.884 1434.59 299.72 1426.5 301.135 C 1420.82 302.131 1423.05 301.045 1419.88 296.186 C 1422.16 294.193 1417.83 281.545 1417.03 278.3 z" fill="rgb(254,161,58)" transform="translate(0,0)"></path>
<path d="M 1196.72 378.268 C 1200.18 379.637 1203.41 380.891 1206.83 382.361 C 1205.88 385.135 1201.66 396.72 1201.96 398.98 C 1227.38 410.443 1238.1 438.671 1232.74 465.081 C 1224.1 508.431 1178.41 548.515 1133.88 549.007 C 1099.34 549.389 1120.22 515.794 1123.7 498.623 C 1126.03 487.156 1121.82 472.387 1122.86 460.528 C 1126.26 421.568 1149.29 393.478 1190.12 395.261 C 1192.71 392.871 1195.34 382.45 1196.72 378.268 z" fill="rgb(255,209,102)" transform="translate(0,0)"></path>
<path d="M 1196.72 378.268 C 1200.18 379.637 1203.41 380.891 1206.83 382.361 C 1205.88 385.135 1201.66 396.72 1201.96 398.98 C 1199.07 406.316 1196.75 405.122 1189.31 400.726 C 1188.95 400.512 1190.12 396.704 1190.12 395.261 C 1192.71 392.871 1195.34 382.45 1196.72 378.268 z" fill="rgb(254,161,58)" transform="translate(0,0)"></path>
<path d="M 787.99 396.169 C 788.531 390.767 784.089 380.24 789.904 378.988 C 803.101 376.144 795.982 386.712 799.684 394.328 C 800.238 395.467 804.819 395.396 806.214 395.557 C 844.052 400.483 861.075 433.704 856.385 470.375 C 854.859 482.308 849.921 493.387 848.215 505.248 C 845.869 516.225 858.877 547.306 847.564 552.442 C 819.044 565.392 776.829 527.896 764.474 506.576 C 750.576 482.595 745.499 464.602 750.177 438.641 C 755.239 416.928 767.83 404.22 787.99 396.169 z" fill="rgb(255,209,102)" transform="translate(0,0)"></path>
<path d="M 787.99 396.169 C 788.531 390.767 784.089 380.24 789.904 378.988 C 803.101 376.144 795.982 386.712 799.684 394.328 C 800.238 395.467 804.819 395.396 806.214 395.557 C 805.32 395.704 802.714 396.153 801.94 396.103 C 798.025 395.853 801.119 401.105 799.502 402.144 C 797.475 403.448 792.837 403.012 790.468 402.869 C 788.307 402.801 788.198 397.673 787.99 396.169 z" fill="rgb(254,161,58)" transform="translate(0,0)"></path>
<metadata><recraft-signature>{"signed_by": "recraft", "signature_b64": "lPnI+iV71bCsK2rgqfwrKJX3aBAJdkb1OJeoMuyfjtWZMqAM/Z+4Wcf2TzGtpHvmPF7E057AR7JgpbA2sbtlCw==", "signing_algo": "Ed25519", "generation_timestamp": 1783344375, "identifier": "2bed46c1-775a-462c-8b8c-ab53b4666092"}</recraft-signature></metadata></svg>