<svg xmlns="http://www.w3.org/2000/svg" height="896" preserveAspectRatio="none" style="display: block;" version="1.1" viewBox="0 0 2048 1509" width="1216">
<defs>
	<linearGradient gradientUnits="userSpaceOnUse" id="Gradient1" x1="288.872" x2="284.913" y1="1353.87" y2="1360.6">
		<stop class="stop0" offset="0" stop-color="rgb(57,31,30)" stop-opacity="1"></stop>
		<stop class="stop1" offset="1" stop-color="rgb(128,61,60)" stop-opacity="1"></stop>
	</linearGradient>
	<linearGradient gradientUnits="userSpaceOnUse" id="Gradient2" x1="2041.63" x2="2039.86" y1="1501.99" y2="1500.44">
		<stop class="stop0" offset="0" stop-color="rgb(2,0,1)" stop-opacity="1"></stop>
		<stop class="stop1" offset="1" stop-color="rgb(51,22,63)" stop-opacity="1"></stop>
	</linearGradient>
	<linearGradient gradientUnits="userSpaceOnUse" id="Gradient3" x1="1458.94" x2="1256.18" y1="1047.65" y2="1501">
		<stop class="stop0" offset="0" stop-color="rgb(75,42,46)" stop-opacity="1"></stop>
		<stop class="stop1" offset="1" stop-color="rgb(129,63,59)" stop-opacity="1"></stop>
	</linearGradient>
	<linearGradient gradientUnits="userSpaceOnUse" id="Gradient4" x1="1029.27" x2="1087.1" y1="194.105" y2="1071.65">
		<stop class="stop0" offset="0" stop-color="rgb(255,135,51)" stop-opacity="1"></stop>
		<stop class="stop1" offset="1" stop-color="rgb(255,255,87)" stop-opacity="1"></stop>
	</linearGradient>
</defs>
<path d="M 0 0 L 1114.82 0 L 2048 0 L 2048 151.885 L 2048 165.903 L 2048 295.033 L 2048 388.759 L 2048 441.896 L 2048 477.037 L 2048 477.857 L 2048 915.07 L 2048 1085.93 L 2048 1192.38 L 2048 1200.92 L 2048 1272.84 L 2048 1275.9 L 2048 1333.56 L 2048 1336.17 L 2048 1390.65 L 2048 1393.14 L 2048 1490.99 L 2048 1494.61 L 2048 1509 L 2037.39 1509 L 2033.78 1509 L 2015.22 1509 L 2012.91 1509 L 1987.15 1509 L 1983.8 1509 L 1952.16 1509 L 1945.72 1509 L 1886.28 1509 L 1881.03 1509 L 1770.99 1509 L 1359.47 1509 L 644.08 1509 L 248.006 1509 L 202.463 1509 L 199.012 1509 L 161.696 1509 L 150.524 1509 L 122.417 1509 L 120.409 1509 L 92.7781 1509 L 90.6769 1509 L 74.1284 1509 L 71.7564 1509 L 51.2142 1509 L 49.031 1509 L 28.2933 1509 L 25.9889 1509 L 0 1509 L 0 1446.96 L 0 1441.89 L 0 1338.07 L 0 1056.32 L 0 907.809 L 0 905.09 L 0 891.005 L 0 478.612 L 0 476.9 L 0 441.976 L 0 212.543 L 0 0 z" fill="url(#Gradient4)" transform="translate(0,0)"></path>
<path d="M 1850.91 482.809 L 1851.25 477.661 C 1855.2 475.907 2026.21 477.015 2048 477.037 L 2048 477.857 L 2048 915.07 L 2048 1085.93 L 2048 1192.38 L 2048 1200.92 L 2048 1272.84 L 2048 1275.9 L 2048 1333.56 L 2048 1336.17 L 2048 1390.65 L 2048 1393.14 L 2048 1490.99 L 2048 1494.61 L 2048 1509 L 2037.39 1509 L 2033.78 1509 L 2015.22 1509 L 2012.91 1509 L 1987.15 1509 L 1983.8 1509 L 1952.16 1509 L 1945.72 1509 L 1886.28 1509 L 1881.03 1509 L 1770.99 1509 L 1359.47 1509 L 644.08 1509 L 248.006 1509 L 202.463 1509 L 199.012 1509 L 161.696 1509 L 150.524 1509 L 122.417 1509 L 120.409 1509 L 92.7781 1509 L 90.6769 1509 L 74.1284 1509 L 71.7564 1509 L 51.2142 1509 L 49.031 1509 L 28.2933 1509 L 25.9889 1509 L 0 1509 L 0 1446.96 L 0 1441.89 L 0 1338.07 L 0 1056.32 L 0 907.809 L 0 905.09 L 0 891.005 L 0 478.612 L 140.535 478.903 C 149.266 478.92 191.032 479.675 197.006 478.358 L 196.624 483.346 C 197.216 489.756 197.629 512.451 196.506 518.454 C 216.527 518.843 342.106 516.314 351.5 519.525 L 351.769 538.825 L 351.686 617.04 C 367.028 617.442 382.612 617.052 397.974 616.829 L 398.003 694.32 C 390.172 694.189 357.537 692.887 352.281 695.274 C 351.923 696.491 351.511 697.615 351.361 698.854 C 353.771 732.625 350.924 775.899 352.068 810.956 L 398.215 810.649 C 398.222 819.819 399.191 868.621 396.978 873.545 C 385.918 873.764 361.433 874.508 351.592 873.234 L 351.779 969.089 C 351.813 981.696 351.154 1006.8 352.147 1018.51 C 358.348 1015.38 367.37 1008.42 375.342 1004.52 C 404.003 990.49 425.677 989.635 455.854 992.846 C 467.099 996.351 474.769 998.581 485.961 1002.67 L 495.884 1008.87 C 497.308 1009.79 498.727 1010.72 500.14 1011.66 C 506.219 1016.61 505.56 1016.85 512.657 1016.14 C 519.011 1016.07 527.378 1015.02 534.184 1014.67 C 559.777 1018.49 578.087 1024.95 596.718 1044.3 C 611.541 1040.52 624.779 1039.68 640.076 1039.97 C 637.274 1030.04 630.832 1012.34 635.041 1002.67 C 644.156 994.553 657.236 1017.85 664.539 1013.79 C 669.318 1002.38 647.888 976.316 651.92 962.004 C 654.115 954.211 666.834 957.166 668.495 951.804 C 672.138 939.476 668.007 923.956 666.883 911.281 C 665.209 895.314 664.675 862.023 682.546 854.374 C 696.911 848.225 699.632 877.414 702.15 883.517 C 706.586 894.271 700.384 934.084 705.224 939.168 C 711.69 939.71 722.37 928.252 727.579 934.005 C 739.215 946.857 712.126 997.323 715.031 1004.32 C 721.629 1008.2 726.038 1002.26 731.135 1009.95 C 732.987 1023.57 720.373 1046.69 715.415 1059.45 C 724.572 1050.77 763.437 1015.5 775.942 1023.1 L 777.399 1025 C 780.361 1041.64 755.536 1081.09 745.936 1094.96 C 814.299 1085.09 882.274 1072.69 949.719 1057.79 C 995.548 1047.89 1053.59 1034.91 1098.35 1020.82 C 1117.09 1015.23 1135.51 1010.58 1154.09 1004.32 C 1154.83 985.908 1154.43 967.59 1155.44 949.09 C 1157.71 965.1 1153.8 987.067 1156.45 1003.21 C 1175.26 997.181 1193.85 990.5 1212.19 983.178 C 1251.97 968.138 1296.48 947.158 1334.46 928.111 C 1418.23 885.75 1499.44 838.514 1577.67 786.643 C 1595.9 774.607 1636.2 749.071 1651.58 736.265 C 1662.47 727.548 1676.46 718.748 1688.45 709.323 C 1688.03 703.412 1687.96 701.433 1688.61 695.577 C 1681.88 693.45 1651.75 694.383 1642.97 694.481 L 1643.06 632.289 C 1658.1 632.486 1673.16 632.506 1688.21 632.35 C 1687.68 600.023 1688.06 566.508 1688.02 534.09 L 1688.04 519.647 C 1692.38 517.499 1832.93 518.487 1849.09 518.831 C 1851.94 514.464 1848.93 491.569 1850.91 482.809 z" fill="rgb(43,30,46)" transform="translate(0,0)"></path>
<path d="M 126.629 887.282 C 129.477 887.006 133.097 886.211 135.444 887.505 C 140.932 905.607 130.989 952.326 140.999 964.576 C 150.333 972.301 159.036 979.657 166.058 989.822 C 169.182 994.343 174.4 1005.31 177.568 1008.67 C 179.408 1008.15 179.779 1008.12 181.511 1007.34 L 197.678 1004.3 C 224.821 1002.34 243.807 1005.07 268.296 1018.38 L 271.823 1020.36 C 296.399 1037.9 302.64 1046.26 317.543 1072.43 C 320.271 1064.86 322.147 1060.88 326.13 1054.07 C 327.539 1051.66 332.547 1043.86 333.044 1042.3 C 335.656 1040.03 339.058 1035.49 341.48 1032.68 C 375.303 993.448 435.541 982.448 482.122 1004.12 C 491.669 1008.56 499.012 1014.57 508.016 1019.65 C 508.016 1019.65 511.903 1018.96 512.28 1018.89 C 513.439 1023.89 513 1053.21 513.001 1059.68 L 512.997 1153.72 L 501.159 1153.97 C 501.233 1169.94 501.93 1191.52 501.163 1207.03 C 506.863 1216.29 529.141 1240.87 537.907 1248 C 549.332 1258.48 561.2 1268.46 573.477 1277.93 L 577.91 1280.5 L 576.398 1282.54 C 576.923 1282.97 577.452 1283.38 577.984 1283.8 C 588.063 1290.16 598.19 1296.69 608.528 1302.61 C 645.028 1322.21 683.081 1337.32 723.811 1345.48 L 723.823 1364.15 C 686.535 1355.17 668.158 1349.34 633.789 1334.07 L 633.972 1335.85 C 653.685 1345.93 702.05 1363.47 723.344 1365.74 C 723.216 1375.65 723.189 1385.56 723.265 1395.48 L 513.474 1395.16 L 453.387 1395.53 C 444.366 1395.59 427.09 1395.36 418.563 1396.31 C 412.1 1392.27 411.054 1388.52 401.064 1385.36 C 387.073 1380.92 376.61 1389.08 364.361 1395.41 C 348.391 1365.69 333.583 1356.67 299.898 1360.85 C 292.248 1356.3 284.032 1351.7 276.667 1346.79 C 274.882 1340.52 284.031 1334.43 283.562 1327.67 C 281.308 1324.73 281.687 1325.6 277.342 1324.26 C 278.489 1325.26 281.613 1327.5 281.297 1328.37 C 274.814 1346.18 253.383 1381.61 243.944 1397.06 C 232.942 1396.77 221.053 1396.05 210.221 1395.97 C 218.096 1401.57 225.818 1407.37 233.379 1413.38 C 205.76 1451.36 184.604 1476.91 150.524 1509 L 122.417 1509 L 120.409 1509 L 92.7781 1509 L 90.6769 1509 L 74.1284 1509 L 71.7564 1509 L 51.2142 1509 L 49.031 1509 L 28.2933 1509 L 25.9889 1509 L 0 1509 L 0 1446.96 L 0 1441.89 L 0 1338.07 L 0 1056.32 L 0 907.809 L 0 905.09 C 4.73258 907.551 9.79344 909.514 14.412 912.261 C 20.5333 915.543 23.9565 917.613 29.7124 921.572 C 34.9572 926.725 41.121 931.917 46.083 936.926 C 47.489 939.037 48.8624 941.23 50.5003 943.158 C 53.6699 935.908 58.4791 919.884 61.7338 911.117 C 74.1761 911.082 86.6673 912.069 99.1083 912.258 C 112.131 912.456 118.864 912.559 127.633 902.26 C 127.889 901.223 128.131 900.182 128.359 899.137 C 129.541 893.684 129.711 892.044 126.629 887.282 z" fill="rgb(43,30,46)" transform="translate(0,0)"></path>
<path d="M 126.629 887.282 C 129.477 887.006 133.097 886.211 135.444 887.505 C 140.932 905.607 130.989 952.326 140.999 964.576 C 150.333 972.301 159.036 979.657 166.058 989.822 C 169.182 994.343 174.4 1005.31 177.568 1008.67 C 179.408 1008.15 179.779 1008.12 181.511 1007.34 L 197.678 1004.3 C 224.821 1002.34 243.807 1005.07 268.296 1018.38 L 271.823 1020.36 C 296.399 1037.9 302.64 1046.26 317.543 1072.43 C 320.271 1064.86 322.147 1060.88 326.13 1054.07 C 327.539 1051.66 332.547 1043.86 333.044 1042.3 C 335.656 1040.03 339.058 1035.49 341.48 1032.68 C 375.303 993.448 435.541 982.448 482.122 1004.12 C 491.669 1008.56 499.012 1014.57 508.016 1019.65 C 508.016 1019.65 511.903 1018.96 512.28 1018.89 C 513.439 1023.89 513 1053.21 513.001 1059.68 L 512.997 1153.72 L 501.159 1153.97 C 501.233 1169.94 501.93 1191.52 501.163 1207.03 C 492.645 1196.47 484.278 1182.68 477.825 1170.72 C 472.86 1161.52 469.057 1149.5 462.213 1141.66 C 451.3 1137.99 385.593 1139.87 371.192 1139.9 L 244.649 1139.79 L 161.229 1139.85 C 148.998 1139.86 127.987 1139.33 116.501 1140.36 C 114.244 1117.08 102.659 1111.03 81.0786 1107.64 C 74.8104 1079.81 54.5695 1073.23 31.5533 1088.73 C 26.6915 1067.89 20.0549 1062.6 0 1056.32 L 0 907.809 L 0 905.09 C 4.73258 907.551 9.79344 909.514 14.412 912.261 C 20.5333 915.543 23.9565 917.613 29.7124 921.572 C 34.9572 926.725 41.121 931.917 46.083 936.926 C 47.489 939.037 48.8624 941.23 50.5003 943.158 C 53.6699 935.908 58.4791 919.884 61.7338 911.117 C 74.1761 911.082 86.6673 912.069 99.1083 912.258 C 112.131 912.456 118.864 912.559 127.633 902.26 C 127.889 901.223 128.131 900.182 128.359 899.137 C 129.541 893.684 129.711 892.044 126.629 887.282 z" fill="rgb(49,246,253)" transform="translate(0,0)"></path>
<path d="M 126.629 887.282 C 129.477 887.006 133.097 886.211 135.444 887.505 C 140.932 905.607 130.989 952.326 140.999 964.576 C 135.133 960.6 131.11 958.272 124.847 954.926 C 120.712 953.105 116.045 951.386 111.795 949.728 C 92.2304 944.015 71.6347 942.839 51.7223 947.583 C 39.3417 932.5 30.6349 923.738 13.4702 914.342 C 9.03033 912.125 4.47469 909.972 0 907.809 L 0 905.09 C 4.73258 907.551 9.79344 909.514 14.412 912.261 C 20.5333 915.543 23.9565 917.613 29.7124 921.572 C 34.9572 926.725 41.121 931.917 46.083 936.926 C 47.489 939.037 48.8624 941.23 50.5003 943.158 C 53.6699 935.908 58.4791 919.884 61.7338 911.117 C 74.1761 911.082 86.6673 912.069 99.1083 912.258 C 112.131 912.456 118.864 912.559 127.633 902.26 C 127.889 901.223 128.131 900.182 128.359 899.137 C 129.541 893.684 129.711 892.044 126.629 887.282 z" fill="rgb(43,30,46)" transform="translate(0,0)"></path>
<path d="M 59.2916 943.397 C 60.6592 940.759 61.037 941.247 63.5666 939.563 C 75.2924 931.754 98.2988 916.65 108.743 934.125 C 111.219 938.267 112.096 942.529 111.748 947.373 C 93.9721 942.387 77.7032 941.659 59.2916 943.397 z" fill="rgb(78,205,196)" transform="translate(0,0)"></path>
<path d="M 130.65 888.206 C 130.968 888.289 131.286 888.372 131.604 888.455 C 131.67 888.391 134.769 889.159 134.766 889.675 C 134.691 900.526 135.926 951.803 134.316 958.806 C 132.954 957.649 131.592 956.492 130.231 955.335 C 129.289 937.164 127.663 905.546 130.65 888.206 z" fill="rgb(124,60,57)" transform="translate(0,0)"></path>
<path d="M 183.826 1164.28 L 453.615 1164.09 C 487.349 1241.76 558.565 1298.94 633.789 1334.07 L 633.972 1335.85 C 653.685 1345.93 702.05 1363.47 723.344 1365.74 C 723.216 1375.65 723.189 1385.56 723.265 1395.48 L 513.474 1395.16 L 453.387 1395.53 C 444.366 1395.59 427.09 1395.36 418.563 1396.31 C 412.1 1392.27 411.054 1388.52 401.064 1385.36 C 387.073 1380.92 376.61 1389.08 364.361 1395.41 C 348.391 1365.69 333.583 1356.67 299.898 1360.85 C 292.248 1356.3 284.032 1351.7 276.667 1346.79 C 274.882 1340.52 284.031 1334.43 283.562 1327.67 C 281.308 1324.73 281.687 1325.6 277.342 1324.26 C 274.045 1323.88 268.344 1319.76 265.37 1317.83 C 271.345 1316.13 283.653 1316.14 290.309 1315.9 C 292.667 1305.64 300.85 1283.46 304.417 1271.87 C 312.42 1245.87 314.103 1232.3 318.223 1206.81 C 286.001 1222.55 266.279 1233.72 236.502 1254.44 C 238.581 1258.76 240.08 1263.67 241.628 1268.23 L 227.074 1261.49 C 217.728 1268.76 210.429 1276.96 201.318 1284.13 L 199.269 1283.47 C 193.688 1276.47 187.762 1270.24 182.437 1262.87 C 158.428 1229.6 150.699 1203.58 142.209 1164.82 C 155.231 1164.71 171.183 1165.12 183.826 1164.28 z" fill="rgb(124,60,57)" transform="translate(0,0)"></path>
<path d="M 74.4911 1164.34 C 106.837 1164.02 152.283 1162.79 183.826 1164.28 C 171.183 1165.12 155.231 1164.71 142.209 1164.82 C 150.699 1203.58 158.428 1229.6 182.437 1262.87 C 187.762 1270.24 193.688 1276.47 199.269 1283.47 L 201.318 1284.13 C 210.429 1276.96 217.728 1268.76 227.074 1261.49 L 241.628 1268.23 C 240.08 1263.67 238.581 1258.76 236.502 1254.44 C 266.279 1233.72 286.001 1222.55 318.223 1206.81 C 314.103 1232.3 312.42 1245.87 304.417 1271.87 C 300.85 1283.46 292.667 1305.64 290.309 1315.9 C 283.653 1316.14 271.345 1316.13 265.37 1317.83 C 268.344 1319.76 274.045 1323.88 277.342 1324.26 C 278.489 1325.26 281.613 1327.5 281.297 1328.37 C 274.814 1346.18 253.383 1381.61 243.944 1397.06 C 232.942 1396.77 221.053 1396.05 210.221 1395.97 C 218.096 1401.57 225.818 1407.37 233.379 1413.38 C 205.76 1451.36 184.604 1476.91 150.524 1509 L 122.417 1509 L 120.409 1509 L 92.7781 1509 C 93.7023 1490.85 99.6124 1464.5 104.371 1447.1 C 115.33 1407.09 139.684 1364.03 164.662 1331.07 C 170.81 1334.6 177.018 1338.02 183.285 1341.33 C 181.321 1334.79 176.942 1325.73 174.057 1319.28 C 181.383 1308.6 189.194 1300.97 197.588 1291.25 L 198.652 1290.33 C 198.47 1288.31 200.289 1286.78 198.864 1285.4 C 182.577 1269.71 172.007 1252.51 161.569 1232.36 C 150.509 1211 145.579 1188.38 140.49 1164.85 C 119.906 1164.64 94.5457 1165.64 74.4911 1164.34 z" fill="rgb(78,205,196)" transform="translate(0,0)"></path>
<path d="M 122.417 1509 C 161.796 1406.82 240.945 1291.94 315.539 1212.53 C 310.129 1249.94 301.864 1278.54 288.089 1314.07 C 281.879 1314.03 267.155 1313.41 262.249 1314.71 L 262.11 1315.85 L 265.37 1317.83 C 268.344 1319.76 274.045 1323.88 277.342 1324.26 C 278.489 1325.26 281.613 1327.5 281.297 1328.37 C 274.814 1346.18 253.383 1381.61 243.944 1397.06 C 232.942 1396.77 221.053 1396.05 210.221 1395.97 C 218.096 1401.57 225.818 1407.37 233.379 1413.38 C 205.76 1451.36 184.604 1476.91 150.524 1509 L 122.417 1509 z" fill="rgb(78,205,196)" transform="translate(0,0)"></path>
<path d="M 74.4911 1164.34 C 106.837 1164.02 152.283 1162.79 183.826 1164.28 C 171.183 1165.12 155.231 1164.71 142.209 1164.82 C 150.699 1203.58 158.428 1229.6 182.437 1262.87 C 187.762 1270.24 193.688 1276.47 199.269 1283.47 L 201.318 1284.13 C 210.429 1276.96 217.728 1268.76 227.074 1261.49 L 241.628 1268.23 C 240.08 1263.67 238.581 1258.76 236.502 1254.44 C 266.279 1233.72 286.001 1222.55 318.223 1206.81 C 314.103 1232.3 312.42 1245.87 304.417 1271.87 C 300.85 1283.46 292.667 1305.64 290.309 1315.9 C 283.653 1316.14 271.345 1316.13 265.37 1317.83 L 262.11 1315.85 L 262.249 1314.71 C 267.155 1313.41 281.879 1314.03 288.089 1314.07 C 301.864 1278.54 310.129 1249.94 315.539 1212.53 C 240.945 1291.94 161.796 1406.82 122.417 1509 L 120.409 1509 C 159.411 1405.01 238.81 1291.72 314.277 1210.57 C 287.232 1224.1 263.364 1237.1 239.063 1255.3 C 240.866 1260.55 242.546 1266.11 244.24 1271.41 L 226.683 1264.06 C 217.76 1271.13 206.545 1282.16 198.652 1290.33 C 198.47 1288.31 200.289 1286.78 198.864 1285.4 C 182.577 1269.71 172.007 1252.51 161.569 1232.36 C 150.509 1211 145.579 1188.38 140.49 1164.85 C 119.906 1164.64 94.5457 1165.64 74.4911 1164.34 z" fill="rgb(43,30,46)" transform="translate(0,0)"></path>
<path d="M 65.7167 1164.38 L 74.4911 1164.34 C 94.5457 1165.64 119.906 1164.64 140.49 1164.85 C 145.579 1188.38 150.509 1211 161.569 1232.36 C 172.007 1252.51 182.577 1269.71 198.864 1285.4 C 200.289 1286.78 198.47 1288.31 198.652 1290.33 L 197.588 1291.25 C 189.194 1300.97 181.383 1308.6 174.057 1319.28 C 176.942 1325.73 181.321 1334.79 183.285 1341.33 C 177.018 1338.02 170.81 1334.6 164.662 1331.07 C 139.684 1364.03 115.33 1407.09 104.371 1447.1 C 99.6124 1464.5 93.7023 1490.85 92.7781 1509 L 90.6769 1509 L 74.1284 1509 L 71.7564 1509 L 71.8353 1504.27 C 70.0775 1488.92 70.8154 1460.05 70.8994 1444 C 71.2538 1376.3 78.4746 1309.41 88.2373 1242.5 C 91.2292 1221.99 95.9352 1201.38 98.751 1181 C 97.2338 1182.75 96.1877 1184.11 94.4294 1185.64 C 86.0138 1190.07 81.7896 1218.77 73.0699 1213.89 C 55.2875 1203.94 45.8765 1199.76 25.3823 1199.82 L 25.4038 1165.55 C 31.7813 1165.59 62.7173 1166.46 65.7167 1164.38 z" fill="rgb(78,205,196)" transform="translate(0,0)"></path>
<path d="M 65.7167 1164.38 L 74.4911 1164.34 C 94.5457 1165.64 119.906 1164.64 140.49 1164.85 C 145.579 1188.38 150.509 1211 161.569 1232.36 C 172.007 1252.51 182.577 1269.71 198.864 1285.4 C 200.289 1286.78 198.47 1288.31 198.652 1290.33 L 197.588 1291.25 C 194.302 1291.64 187.88 1299.17 185.148 1301.98 C 165.648 1300.86 158.156 1300.52 141.551 1311.49 C 132.927 1300.01 127.383 1295.4 116.094 1287.16 C 116.125 1278.82 115.233 1244.84 113.223 1238.45 C 112.797 1222.52 106.111 1185.31 102.275 1169.32 C 99.9828 1173.56 99.3944 1174.8 97.8285 1179.43 L 98.751 1181 C 97.2338 1182.75 96.1877 1184.11 94.4294 1185.64 C 86.0138 1190.07 81.7896 1218.77 73.0699 1213.89 C 55.2875 1203.94 45.8765 1199.76 25.3823 1199.82 L 25.4038 1165.55 C 31.7813 1165.59 62.7173 1166.46 65.7167 1164.38 z" fill="rgb(124,60,57)" transform="translate(0,0)"></path>
<path d="M 98.751 1181 L 97.8285 1179.43 C 99.3944 1174.8 99.9828 1173.56 102.275 1169.32 C 106.111 1185.31 112.797 1222.52 113.223 1238.45 C 115.233 1244.84 116.125 1278.82 116.094 1287.16 C 127.383 1295.4 132.927 1300.01 141.551 1311.49 C 158.156 1300.52 165.648 1300.86 185.148 1301.98 C 187.88 1299.17 194.302 1291.64 197.588 1291.25 C 189.194 1300.97 181.383 1308.6 174.057 1319.28 C 176.942 1325.73 181.321 1334.79 183.285 1341.33 C 177.018 1338.02 170.81 1334.6 164.662 1331.07 C 139.684 1364.03 115.33 1407.09 104.371 1447.1 C 99.6124 1464.5 93.7023 1490.85 92.7781 1509 L 90.6769 1509 C 92.9134 1486.81 97.1695 1467.05 101.543 1445.19 C 112.906 1366.67 116.182 1316.71 111.889 1238.12 C 109.198 1217.57 106.918 1196.48 101.757 1176.42 C 99.64 1194.59 95.4834 1213.36 92.3742 1231.48 C 77.14 1320.25 71.9494 1407.64 73.171 1497.76 C 73.5983 1501.59 74.0608 1505.13 74.1284 1509 L 71.7564 1509 L 71.8353 1504.27 C 70.0775 1488.92 70.8154 1460.05 70.8994 1444 C 71.2538 1376.3 78.4746 1309.41 88.2373 1242.5 C 91.2292 1221.99 95.9352 1201.38 98.751 1181 z" fill="rgb(43,30,46)" transform="translate(0,0)"></path>
<path d="M 90.9795 1141.91 L 343.229 1142.09 L 409.501 1142.1 C 416.927 1142.07 459.124 1140.34 462.851 1145.48 C 469.555 1154.72 476.62 1175.7 483.774 1186.44 C 498.809 1209.6 519.656 1234.54 540.052 1252.72 C 540.637 1253.6 540.478 1253.39 541.402 1254.03 C 553.392 1265.02 563.24 1272.96 576.398 1282.54 C 576.923 1282.97 577.452 1283.38 577.984 1283.8 C 588.063 1290.16 598.19 1296.69 608.528 1302.61 C 645.028 1322.21 683.081 1337.32 723.811 1345.48 L 723.823 1364.15 C 686.535 1355.17 668.158 1349.34 633.789 1334.07 C 558.565 1298.94 487.349 1241.76 453.615 1164.09 L 183.826 1164.28 C 152.283 1162.79 106.837 1164.02 74.4911 1164.34 L 65.7167 1164.38 C 51.9269 1164.39 38.1372 1164.3 24.3487 1164.11 C 29.8502 1131.15 63.1663 1143.02 90.9795 1141.91 z" fill="rgb(78,205,196)" transform="translate(0,0)"></path>
<path d="M 94.4294 1185.64 C 96.1877 1184.11 97.2338 1182.75 98.751 1181 C 95.9352 1201.38 91.2292 1221.99 88.2373 1242.5 C 78.4746 1309.41 71.2538 1376.3 70.8994 1444 C 70.8154 1460.05 70.0775 1488.92 71.8353 1504.27 L 71.7564 1509 L 51.2142 1509 L 50.8242 1502.08 C 48.1008 1487.89 43.003 1455.28 41.5351 1441.64 C 38.4615 1362.63 49.3302 1275.26 85.1017 1204.21 C 87.6752 1199.09 93.1596 1190.76 94.4294 1185.64 z" fill="rgb(78,205,196)" transform="translate(0,0)"></path>
<path d="M 0 1338.07 C 10.5166 1356.24 34.5972 1419.55 38.3023 1441.44 C 41.0815 1454.96 43.5718 1468.55 45.7714 1482.18 C 46.7197 1488.17 47.7146 1498.43 48.8152 1503.8 L 49.031 1509 L 28.2933 1509 L 25.9889 1509 L 0 1509 L 0 1446.96 L 0 1441.89 L 0 1338.07 z" fill="rgb(78,205,196)" transform="translate(0,0)"></path>
<path d="M 0 1446.96 C 1.92125 1450.21 2.90034 1453.05 4.30909 1456.53 C 11.3686 1473.96 18.1979 1491.88 25.9889 1509 L 0 1509 L 0 1446.96 z" fill="rgb(78,205,196)" transform="translate(0,0)"></path>
<path d="M 0 1441.89 C 7.5089 1455.03 20.7612 1492.58 28.2933 1509 L 25.9889 1509 C 18.1979 1491.88 11.3686 1473.96 4.30909 1456.53 C 2.90034 1453.05 1.92125 1450.21 0 1446.96 L 0 1441.89 z" fill="rgb(43,30,46)" transform="translate(0,0)"></path>
<path d="M 1717.72 1320.86 C 1722.45 1320.88 1727.52 1320.19 1731.23 1322.82 C 1737.24 1323.27 1739.78 1323.27 1745.79 1322.84 L 1801.1 1322.81 C 1806.41 1323.09 1809.98 1323.16 1815.28 1322.95 L 1818.12 1324.94 C 1795.76 1331.73 1784.98 1343.07 1776.48 1364.24 C 1747.16 1353.86 1722.7 1366.54 1721.9 1399.06 C 1708.12 1401.35 1700.75 1403.12 1694.39 1416.64 C 1667.64 1410.54 1648.34 1419.94 1641.36 1447.24 C 1632.47 1439.07 1624.71 1432.85 1612.59 1429.96 C 1589.01 1424.35 1561.05 1431.52 1545.41 1450.7 C 1543.88 1452.57 1541.36 1455.61 1539.42 1456.92 L 877.144 1456.97 L 670.203 1456.96 L 607.569 1456.89 C 596.495 1456.88 579.29 1456.48 568.745 1457.57 C 565.51 1457.21 552.657 1446.34 548.227 1443.63 C 533.956 1434.92 516.629 1435.75 501.033 1439.3 C 500.371 1437.49 499.662 1435.69 498.907 1433.92 C 491.481 1416.73 474.448 1416.8 459.731 1424.15 C 448.493 1412.85 439.953 1413.46 425.651 1416.77 C 424.48 1408.38 423.592 1404.9 419.128 1397.74 C 431.461 1398.45 448.804 1397.82 461.498 1397.72 L 537.611 1397.26 C 599.946 1397.09 663.549 1398.4 725.622 1397.57 C 726.085 1379.43 724.903 1361.3 725.746 1343.24 C 713.897 1341.56 666.728 1329.55 658.193 1323.49 C 660.794 1321.94 757.22 1322.72 768.29 1322.69 C 778.066 1322.66 819.394 1322.02 827.033 1323.44 C 825.959 1329.92 826.453 1344.39 826.573 1351.69 C 833.408 1351.58 839.21 1351.53 846.082 1351.91 C 846.104 1345.5 846.572 1327.95 845.094 1322.72 C 897.562 1321.52 953.351 1322.81 1006.08 1322.76 L 1069.26 1322.6 C 1077.98 1322.57 1094.49 1322.06 1102.49 1322.74 C 1115.1 1323.63 1130.7 1323.22 1143.51 1323.2 L 1210.19 1323.14 L 1421.79 1323.11 C 1434.82 1323.14 1493.46 1321.46 1502.01 1323.62 L 1502.17 1323.03 C 1501.98 1322.39 1501.56 1321.45 1501.79 1320.76 C 1506.15 1320.31 1533.93 1320.69 1540.62 1320.98 C 1540.83 1320.99 1541.95 1322.75 1542.12 1322.99 C 1547.19 1323.05 1562.42 1322.84 1565.99 1324.35 C 1570.02 1333.64 1570.76 1354.31 1580.6 1363.29 L 1582.09 1362.73 C 1600.75 1389.09 1634.23 1400.48 1665.09 1390.95 C 1695.94 1381.43 1717.18 1353.15 1717.72 1320.86 z" fill="rgb(124,60,57)" transform="translate(0,0)"></path>
<path d="M 1502.17 1323.03 C 1501.98 1322.39 1501.56 1321.45 1501.79 1320.76 C 1506.15 1320.31 1533.93 1320.69 1540.62 1320.98 C 1540.83 1320.99 1541.95 1322.75 1542.12 1322.99 C 1538.07 1332.93 1544.68 1357.11 1538.65 1371.37 C 1535.45 1380.35 1520.32 1384.01 1511.94 1378.21 C 1496.91 1367.82 1502.45 1341.2 1502.01 1323.62 L 1502.17 1323.03 z" fill="rgb(43,30,46)" transform="translate(0,0)"></path>
<path d="M 1717.72 1320.86 C 1722.45 1320.88 1727.52 1320.19 1731.23 1322.82 C 1727.82 1322.82 1723.47 1322.44 1720.51 1323.77 C 1715.51 1340.04 1718.28 1341.41 1708.87 1358.44 C 1683.56 1404.27 1608.86 1409.22 1580.6 1363.29 L 1582.09 1362.73 C 1600.75 1389.09 1634.23 1400.48 1665.09 1390.95 C 1695.94 1381.43 1717.18 1353.15 1717.72 1320.86 z" fill="rgb(43,30,46)" transform="translate(0,0)"></path>
<path d="M 512.28 1018.89 C 514.503 1016.93 523.908 1017.12 527.158 1017 C 558.001 1018.98 573.302 1024.09 596.441 1046.29 C 630.953 1037.92 664.403 1041.16 695.094 1059.91 C 700.912 1063.46 706.476 1067.41 711.745 1071.73 C 712.564 1072.64 713.142 1073.2 714.008 1074.03 C 721.715 1081.8 730.952 1092.16 736.107 1101.9 C 739.876 1109.66 741.451 1113.84 744.211 1121.88 C 777.687 1105.36 811.963 1109.75 838.605 1136.7 C 858.428 1118.5 881.461 1109.85 908.55 1111.02 C 936.561 1112.24 962.926 1124.59 981.799 1145.32 C 997.822 1162.85 1004.89 1180.2 1008.69 1203.22 C 1034.04 1198.41 1055.76 1205.23 1072.35 1225.17 C 1099.13 1189.09 1151.92 1183.78 1184.18 1215.36 C 1199.82 1189.64 1220.41 1180.32 1250.12 1181 C 1255.71 1156.77 1266.9 1139.2 1288.3 1125.66 C 1308.64 1112.94 1333.22 1108.89 1356.57 1114.4 C 1374.35 1118.64 1392.44 1129.31 1403.61 1143.95 C 1409.49 1139.38 1413.75 1136.44 1420.77 1133.7 L 1421.27 1135.12 C 1421.27 1139.7 1421.81 1161.52 1420.06 1165.95 C 1419.62 1167.08 1414.03 1166.99 1410.45 1169.28 C 1398.35 1177.8 1397.31 1194.2 1410.36 1201.75 C 1414.51 1203.63 1415.37 1203.73 1419.91 1204.36 L 1419.94 1295.97 L 1032.93 1296.05 L 909.891 1296.09 C 894.051 1296.09 862.389 1295.2 847.649 1296.41 L 845.14 1295.13 C 845.867 1289.56 845.622 1276.29 845.647 1270.04 L 866.928 1269.97 L 866.867 1250.69 C 856.979 1250.86 847.088 1250.77 837.204 1250.43 L 836.898 1245 C 837.455 1242.95 836.962 1243.86 838.6 1242.28 C 843.426 1241.29 851.332 1241.76 856.488 1241.86 C 856.517 1235 856.764 1227.81 855.818 1221.04 C 855.746 1218.64 855.685 1217.91 855.988 1215.55 L 856.086 1194.57 C 850.624 1194.73 842.843 1196.09 839.152 1191.82 L 840.267 1190.19 C 844.739 1187.79 851.275 1188.52 856.535 1188.63 L 856.627 1168.12 L 594.684 1168.06 C 594.586 1173.67 593.78 1184.4 595.747 1189.02 C 596.198 1191.16 595.974 1191.7 595.778 1193.96 C 594.093 1198.66 594.641 1210.03 595.45 1215.19 C 595.779 1217.7 595.5 1218.63 595.149 1221.2 C 594.535 1228.07 594.776 1235.41 594.841 1242.33 C 600.474 1242.03 608.488 1240.67 613.035 1243.37 C 614.608 1246.03 614.36 1246.46 614.103 1249.72 C 610.482 1253.26 592.112 1251.34 586.098 1251.36 L 586.095 1270.22 L 608.799 1270.19 C 608.872 1278.84 609.303 1291.85 608.46 1300.05 L 579.54 1282.24 L 577.91 1280.5 L 573.477 1277.93 C 561.2 1268.46 549.332 1258.48 537.907 1248 C 529.141 1240.87 506.863 1216.29 501.163 1207.03 C 501.93 1191.52 501.233 1169.94 501.159 1153.97 L 512.997 1153.72 L 513.001 1059.68 C 513 1053.21 513.439 1023.89 512.28 1018.89 z" fill="rgb(49,246,253)" transform="translate(0,0)"></path>
<path d="M 512.28 1018.89 C 514.503 1016.93 523.908 1017.12 527.158 1017 C 527.197 1031.85 525.658 1144.6 528.066 1152.39 C 533.459 1154.5 533.713 1151.67 537.358 1154.44 C 538.645 1164.08 538.013 1180.86 537.968 1191.1 L 537.907 1248 C 529.141 1240.87 506.863 1216.29 501.163 1207.03 C 501.93 1191.52 501.233 1169.94 501.159 1153.97 L 512.997 1153.72 L 513.001 1059.68 C 513 1053.21 513.439 1023.89 512.28 1018.89 z" fill="rgb(124,60,57)" transform="translate(0,0)"></path>
<path d="M 0 478.612 L 140.535 478.903 C 149.266 478.92 191.032 479.675 197.006 478.358 L 196.624 483.346 C 194.229 487.018 195.166 547.231 195.144 556.408 L 194.898 693.745 C 194.87 796.024 193.912 900.391 195.39 1002.53 C 191.078 1003.32 184.413 1004.03 181.511 1007.34 C 179.779 1008.12 179.408 1008.15 177.568 1008.67 C 174.4 1005.31 169.182 994.343 166.058 989.822 C 159.036 979.657 150.333 972.301 140.999 964.576 C 130.989 952.326 140.932 905.607 135.444 887.505 C 133.097 886.211 129.477 887.006 126.629 887.282 C 129.711 892.044 129.541 893.684 128.359 899.137 C 128.131 900.182 127.889 901.223 127.633 902.26 C 118.864 912.559 112.131 912.456 99.1083 912.258 C 86.6673 912.069 74.1761 911.082 61.7338 911.117 C 58.4791 919.884 53.6699 935.908 50.5003 943.158 C 48.8624 941.23 47.489 939.037 46.083 936.926 C 41.121 931.917 34.9572 926.725 29.7124 921.572 C 23.9565 917.613 20.5333 915.543 14.412 912.261 C 9.79344 909.514 4.73258 907.551 0 905.09 L 0 891.005 L 0 478.612 z" fill="rgb(124,60,57)" transform="translate(0,0)"></path>
<path d="M 89.0542 796.409 C 88.5995 781.987 92.374 758.815 115.814 768.956 C 120.958 771.181 123.82 779.586 124.884 785.188 C 122.53 791.232 121.932 792.502 118.265 797.825 L 117.384 799.332 L 114.972 801.736 L 114.383 802.648 C 109.439 810.229 103.683 815.391 98.7755 821.919 C 92.9106 829.719 87.4899 846.584 84.1021 856.171 C 100.023 844.033 141.234 806.686 145.309 850.007 C 145.584 852.924 141.537 858.036 139.092 859.34 C 124.831 866.947 96.7239 864.913 80.7537 864.19 L 70.7124 888.39 L 69.4774 891.803 C 76.3412 891.256 76.8558 889.313 84.0441 890.47 C 86.8982 889.257 89.4055 887.55 91.9848 885.849 C 106.151 878.823 114.465 874.092 126.629 887.282 C 129.711 892.044 129.541 893.684 128.359 899.137 C 128.131 900.182 127.889 901.223 127.633 902.26 C 118.864 912.559 112.131 912.456 99.1083 912.258 C 86.6673 912.069 74.1761 911.082 61.7338 911.117 C 58.4791 919.884 53.6699 935.908 50.5003 943.158 C 48.8624 941.23 47.489 939.037 46.083 936.926 C 48.1353 929.319 53.1865 917.752 55.9006 908.885 C 45.8301 900.777 33.7256 891.413 23.6154 883.242 C -2.39912 862.216 17.2924 835.675 42.3443 850.36 C 50.1227 862.507 51.9876 884.38 59.0426 900.671 C 64.744 887.771 70.2687 874.792 75.615 861.74 C 72.0666 859.419 65.481 854.032 62.3547 850.885 C 49.6331 838.077 11.9846 812.853 44.2689 797.571 L 49.0365 797.509 L 54.687 797.834 C 57.009 798.952 59.3746 800.005 61.6734 801.127 C 62.6669 802.071 62.9601 802.364 64.0036 803.157 C 71.8975 803.32 80.8631 803.665 88.7253 804.053 L 89.214 801.567 C 89.1435 799.889 89.0315 798.083 89.0542 796.409 z" fill="rgb(78,205,196)" transform="translate(0,0)"></path>
<path d="M 64.0036 803.157 C 71.8975 803.32 80.8631 803.665 88.7253 804.053 C 89.0002 809.75 91.0174 821.415 89.2264 825.988 C 85.4518 835.627 81.3668 845.983 77.1682 855.408 C 73.8571 841.945 68.7873 815.012 64.0036 803.157 z" fill="rgb(124,60,57)" transform="translate(0,0)"></path>
<path d="M 69.4774 891.803 C 76.3412 891.256 76.8558 889.313 84.0441 890.47 C 78.7638 893.834 71.7324 897.493 66.1253 900.526 C 67.1895 897.237 68.3291 894.914 69.4774 891.803 z" fill="rgb(124,60,57)" transform="translate(0,0)"></path>
<path d="M 49.9045 716.963 C 76.0231 716.813 103.188 717.132 129.17 716.44 L 129.04 768.35 L 129.288 794.656 C 125.757 795.516 121.51 796.35 118.265 797.825 C 121.932 792.502 122.53 791.232 124.884 785.188 C 123.82 779.586 120.958 771.181 115.814 768.956 C 92.374 758.815 88.5995 781.987 89.0542 796.409 C 89.0315 798.083 89.1435 799.889 89.214 801.567 L 88.7253 804.053 C 80.8631 803.665 71.8975 803.32 64.0036 803.157 C 62.9601 802.364 62.6669 802.071 61.6734 801.127 C 59.3746 800.005 57.009 798.952 54.687 797.834 L 49.0365 797.509 C 48.9509 786.365 47.7744 723.038 49.9045 716.963 z" fill="rgb(43,30,46)" transform="translate(0,0)"></path>
<path d="M 54.687 797.834 C 63.6165 796.44 80.0894 796.11 89.0542 796.409 C 89.0315 798.083 89.1435 799.889 89.214 801.567 L 88.7253 804.053 C 80.8631 803.665 71.8975 803.32 64.0036 803.157 C 62.9601 802.364 62.6669 802.071 61.6734 801.127 C 59.3746 800.005 57.009 798.952 54.687 797.834 z" fill="rgb(124,60,57)" transform="translate(0,0)"></path>
<path d="M 89.214 801.567 L 88.7253 804.053 C 80.8631 803.665 71.8975 803.32 64.0036 803.157 C 62.9601 802.364 62.6669 802.071 61.6734 801.127 C 71.5058 801.539 79.2535 802.017 89.214 801.567 z" fill="rgb(43,30,46)" transform="translate(0,0)"></path>
<path d="M 44.9756 711.045 C 73.53 711.065 106.746 710.274 134.795 711.136 C 135.221 738 135.761 773.826 134.729 800.364 C 130.194 800.292 121.335 800.471 117.384 799.332 L 118.265 797.825 C 121.51 796.35 125.757 795.516 129.288 794.656 L 129.04 768.35 L 129.17 716.44 C 103.188 717.132 76.0231 716.813 49.9045 716.963 C 47.7744 723.038 48.9509 786.365 49.0365 797.509 L 44.2689 797.571 C 46.124 789.247 45.0557 723.627 44.9756 711.045 z" fill="rgb(124,60,57)" transform="translate(0,0)"></path>
<path d="M 42.9678 709.009 C 73.8159 709.073 105.779 709.532 136.537 709.083 C 136.901 740.078 137.106 771.075 137.151 802.072 C 131.437 802.03 120.25 802.283 114.972 801.736 L 117.384 799.332 C 121.335 800.471 130.194 800.292 134.729 800.364 C 135.761 773.826 135.221 738 134.795 711.136 C 106.746 710.274 73.53 711.065 44.9756 711.045 C 45.0557 723.627 46.124 789.247 44.2689 797.571 C 41.9584 792.951 42.9566 720.178 42.9678 709.009 z" fill="rgb(43,30,46)" transform="translate(0,0)"></path>
<path d="M 0 891.005 C 24.228 891.249 23.9388 900.112 29.7124 921.572 C 23.9565 917.613 20.5333 915.543 14.412 912.261 C 9.79344 909.514 4.73258 907.551 0 905.09 L 0 891.005 z" fill="rgb(78,205,196)" transform="translate(0,0)"></path>
<path d="M 70.7124 888.39 C 74.9495 887.278 86.8061 886.326 91.9848 885.849 C 89.4055 887.55 86.8982 889.257 84.0441 890.47 C 76.8558 889.313 76.3412 891.256 69.4774 891.803 L 70.7124 888.39 z" fill="rgb(43,30,46)" transform="translate(0,0)"></path>
<path d="M 42.8132 531.753 L 137.135 531.991 L 136.975 624.899 C 105.987 624.369 74.0166 624.709 42.9487 624.68 L 42.8132 531.753 z" fill="rgb(43,30,46)" transform="translate(0,0)"></path>
<path d="M 44.7155 533.495 C 73.6922 534.347 105.812 533.928 134.863 533.771 L 134.899 622.592 C 129.695 623.246 110.944 622.838 104.886 622.837 C 84.7736 622.776 64.6614 622.854 44.5506 623.071 C 45.2146 593.217 45.2696 563.352 44.7155 533.495 z" fill="rgb(124,60,57)" transform="translate(0,0)"></path>
<path d="M 49.8538 538.829 C 55.7082 536.968 119.972 537.584 130.006 538.132 L 129.993 617.94 L 116.769 617.858 C 112.044 618.429 99.27 618.15 93.9847 618.145 C 79.0168 618.146 64.049 618.056 49.0821 617.873 C 48.99 606.111 47.9616 546.161 49.8538 538.829 z" fill="rgb(43,30,46)" transform="translate(0,0)"></path>
<path d="M 1851.71 478.97 L 1988.08 478.806 C 1998.09 478.776 2039.88 479.265 2048 477.857 L 2048 915.07 L 2034.23 916.456 C 2026.49 914.227 2013.62 918.82 2005.91 921.313 C 2005.85 909.768 2005.86 898.224 2005.93 886.679 C 1973.94 886.889 1941.95 886.899 1909.97 886.712 C 1910.02 909.317 1910.38 932.773 1909.76 955.301 C 1901.97 944.313 1893.87 929.276 1884.67 919.972 C 1875.36 910.565 1864.75 911.634 1852.79 912.021 C 1851.56 874.077 1852.15 832.625 1852.14 794.5 L 1852.2 599.42 L 1852.23 524.929 C 1852.24 510.309 1852.69 493.328 1851.71 478.97 z" fill="rgb(124,60,57)" transform="translate(0,0)"></path>
<path d="M 1909.94 708.997 C 1940.66 708.202 1974.99 708.914 2005.98 708.919 C 2005.82 740.312 2005.85 771.706 2006.06 803.099 C 1973.96 802.731 1941.87 802.592 1909.78 802.68 L 1909.94 708.997 z" fill="rgb(43,30,46)" transform="translate(0,0)"></path>
<path d="M 1911.47 711.044 L 2003.89 711.06 L 2003.81 800.872 L 1911.51 800.807 C 1911.77 770.886 1911.76 740.964 1911.47 711.044 z" fill="rgb(124,60,57)" transform="translate(0,0)"></path>
<path d="M 1918.1 716.926 C 1944.08 716.88 1970.84 717.15 1996.75 716.547 C 1996.57 724.408 1996.5 792.947 1995.22 795.215 C 1987.47 796.267 1925.43 796.62 1918.05 795.121 C 1917.99 769.335 1917.67 742.648 1918.1 716.926 z" fill="rgb(43,30,46)" transform="translate(0,0)"></path>
<path d="M 2003.08 531.523 L 2004.51 531.545 C 2004.96 532.013 2005.41 532.482 2005.86 532.95 C 2005.42 557.657 2005.76 601.955 2005.95 624.985 L 1912.85 624.948 C 1912.37 624.876 1911.06 624.246 1910.54 624.022 C 1909.79 618.107 1910.25 600.26 1910.26 593.658 L 1910.32 531.944 C 1941.24 531.961 1972.16 531.82 2003.08 531.523 z" fill="rgb(43,30,46)" transform="translate(0,0)"></path>
<path d="M 1912.47 533.967 C 1940.27 534.295 1976.43 534.896 2003.83 533.44 C 2004.08 563.379 2004.07 593.32 2003.82 623.258 C 1976 622.199 1940.01 622.662 1912.11 623.311 C 1912.75 593.964 1912.25 563.462 1912.47 533.967 z" fill="rgb(124,60,57)" transform="translate(0,0)"></path>
<path d="M 1918.21 537.876 C 1942.34 537.925 1966.43 537.648 1990.55 537.312 C 1994.6 537.256 1995.12 537.043 1997.2 539.291 C 1997.01 565.586 1997.01 591.881 1997.2 618.176 C 1988.16 618.192 1921.47 619.202 1918.65 616.933 L 1918.36 616.168 C 1916.95 598.071 1917.81 556.655 1918.21 537.876 z" fill="rgb(43,30,46)" transform="translate(0,0)"></path>
<path d="M 1410.91 1200.27 C 1420.88 1204.26 1533.04 1202.02 1552.84 1202.02 L 1796.25 1202.41 C 1800.78 1205.17 1813.83 1201.6 1820.56 1203.45 C 1819.46 1204.88 1820.16 1204.26 1817.94 1204.75 L 1818.28 1205.13 L 1818.13 1207.2 L 1815.57 1210.22 C 1801.37 1233.58 1802.42 1245.43 1805.37 1271.01 C 1805.97 1273.09 1806.52 1274.74 1806.81 1276.9 L 1806.6 1279.05 L 1807.7 1280.16 L 1809.08 1279.29 C 1818.19 1306.13 1840.26 1300.14 1841.18 1318.64 C 1834.39 1320.77 1824.19 1320.54 1822.26 1321.66 L 1824.15 1322.67 L 1822.34 1323.55 L 1818.12 1324.94 L 1815.28 1322.95 C 1809.98 1323.16 1806.41 1323.09 1801.1 1322.81 L 1745.79 1322.84 C 1739.78 1323.27 1737.24 1323.27 1731.23 1322.82 C 1727.52 1320.19 1722.45 1320.88 1717.72 1320.86 C 1717.18 1353.15 1695.94 1381.43 1665.09 1390.95 C 1634.23 1400.48 1600.75 1389.09 1582.09 1362.73 L 1580.6 1363.29 C 1570.76 1354.31 1570.02 1333.64 1565.99 1324.35 C 1562.42 1322.84 1547.19 1323.05 1542.12 1322.99 C 1541.95 1322.75 1540.83 1320.99 1540.62 1320.98 C 1533.93 1320.69 1506.15 1320.31 1501.79 1320.76 C 1501.56 1321.45 1501.98 1322.39 1502.17 1323.03 L 1502.01 1323.62 C 1493.46 1321.46 1434.82 1323.14 1421.79 1323.11 L 1210.19 1323.14 L 1143.51 1323.2 C 1130.7 1323.22 1115.1 1323.63 1102.49 1322.74 C 1108.69 1321.89 1124.05 1322.25 1131.04 1322.25 L 1184.07 1322.32 L 1364.6 1322.15 C 1380.59 1322.12 1421.94 1323.46 1434.49 1320.62 L 1433.84 1318.55 L 1431.55 1318.37 C 1431.05 1319.65 1430.93 1319.89 1430.28 1321.19 C 1417.49 1319.9 1392.07 1320.49 1378.77 1320.5 L 1294.61 1320.25 L 998.405 1320.49 L 898.545 1320.76 C 882.603 1320.78 861.429 1321.36 845.766 1320.46 C 845.706 1314.44 844.725 1300.69 847.649 1296.41 C 862.389 1295.2 894.051 1296.09 909.891 1296.09 L 1032.93 1296.05 L 1419.94 1295.97 L 1419.91 1204.36 C 1415.37 1203.73 1414.51 1203.63 1410.36 1201.75 L 1410.91 1200.27 z" fill="url(#Gradient3)" transform="translate(0,0)"></path>
<path d="M 1582.09 1362.73 C 1563.39 1336.29 1563.86 1300.8 1583.26 1274.86 C 1602.66 1248.93 1636.58 1238.46 1667.22 1248.94 C 1697.87 1259.42 1718.27 1288.47 1717.72 1320.86 C 1717.18 1353.15 1695.94 1381.43 1665.09 1390.95 C 1634.23 1400.48 1600.75 1389.09 1582.09 1362.73 z" fill="rgb(78,205,196)" transform="translate(0,0)"></path>
<path d="M 1585.39 1313.02 C 1587.4 1295.32 1597.45 1279.54 1612.62 1270.22 C 1627.8 1260.9 1646.42 1259.08 1663.11 1265.29 C 1691.38 1275.8 1706.84 1306.25 1698.65 1335.28 C 1690.46 1364.31 1661.35 1382.19 1631.76 1376.37 C 1602.16 1370.55 1581.99 1342.99 1585.39 1313.02 z" fill="rgb(43,30,46)" transform="translate(0,0)"></path>
<path d="M 1586.63 1322.46 C 1594 1322.35 1601.36 1322.36 1608.73 1322.49 C 1610.04 1327.23 1611.4 1331.93 1614.04 1336.11 C 1619.05 1344.06 1627.07 1349.64 1636.26 1351.58 C 1657.93 1356.27 1671.79 1343.84 1676.09 1323.25 L 1699.57 1323.45 C 1698.3 1330.13 1697.46 1334.24 1695.41 1340.68 C 1669.63 1394.32 1592.23 1382.27 1586.63 1322.46 z" fill="rgb(124,60,57)" transform="translate(0,0)"></path>
<path d="M 1625.97 1295.22 C 1638.85 1286.52 1656.2 1288.88 1666.29 1300.7 C 1676.38 1312.51 1676 1330.02 1665.39 1341.38 C 1654.78 1352.74 1637.34 1354.33 1624.86 1345.07 C 1612.38 1335.81 1608.84 1318.65 1616.64 1305.21 C 1618.95 1301.22 1622.14 1297.8 1625.97 1295.22 z" fill="rgb(139,92,246)" transform="translate(0,0)"></path>
<path d="M 1638.52 1308.2 C 1645.03 1305.79 1652.27 1309.11 1654.69 1315.61 C 1657.12 1322.12 1653.81 1329.37 1647.3 1331.8 C 1640.78 1334.23 1633.53 1330.91 1631.1 1324.39 C 1628.67 1317.87 1632 1310.62 1638.52 1308.2 z" fill="rgb(43,30,46)" transform="translate(0,0)"></path>
<path d="M 1638.31 1310.3 C 1643.67 1307.87 1650 1310.17 1652.54 1315.49 C 1655.08 1320.81 1652.89 1327.18 1647.63 1329.82 C 1644.13 1331.57 1639.96 1331.3 1636.72 1329.1 C 1633.48 1326.91 1631.68 1323.14 1632.01 1319.24 C 1632.34 1315.34 1634.75 1311.92 1638.31 1310.3 z" fill="rgb(245,237,230)" transform="translate(0,0)"></path>
<path d="M 1805.37 1271.01 C 1805.23 1271.07 1804.52 1271.42 1804.18 1271.34 C 1804.04 1271.31 1803.95 1271.2 1803.91 1271.07 C 1803.8 1270.73 1803.75 1270.38 1803.65 1270.04 C 1803.35 1268.95 1803.09 1268.14 1802.98 1267.01 C 1802.86 1265.83 1802.79 1264.76 1802.55 1263.6 C 1800.66 1254.67 1802.14 1246.37 1802.86 1237.49 C 1803.49 1229.6 1806.64 1219.56 1811.24 1213.08 C 1812.48 1211.33 1813.5 1210.5 1815.57 1210.22 C 1801.37 1233.58 1802.42 1245.43 1805.37 1271.01 z" fill="rgb(43,30,46)" transform="translate(0,0)"></path>
<path d="M 1745.79 1322.84 C 1757.46 1320.14 1789.61 1320.19 1801.1 1322.81 L 1745.79 1322.84 z" fill="rgb(43,30,46)" transform="translate(0,0)"></path>
<path d="M 1815.28 1322.95 C 1818.09 1323.01 1819.58 1323.16 1822.34 1323.55 L 1818.12 1324.94 L 1815.28 1322.95 z" fill="rgb(124,60,57)" transform="translate(0,0)"></path>
<path d="M 568.593 1459.02 C 610.13 1457.8 657.6 1458.99 699.567 1459 L 962.494 1459.01 L 1284.28 1458.98 C 1336.63 1458.93 1389.06 1458.85 1441.42 1458.63 C 1444.79 1458.61 1446.66 1458.76 1449.5 1460.78 C 1411.61 1468.21 1386.31 1481.27 1359.47 1509 L 644.08 1509 C 642.245 1507.6 640.38 1506.25 638.487 1504.93 C 619.582 1491.6 604.561 1488.86 582.214 1492.69 C 580.481 1484.01 577.696 1477.11 573.791 1469.28 C 572.143 1465.97 568.801 1462.44 568.593 1459.02 z" fill="rgb(124,60,57)" transform="translate(0,0)"></path>
<path d="M 2048 915.07 L 2048 1085.93 C 2036.39 1086.94 2025.19 1088.53 2017.18 1097.89 C 2013.08 1102.67 2010.52 1108.77 2009.36 1114.91 C 2009.09 1116.28 2009 1119.23 2008.45 1120.38 C 2005.5 1126.5 1970.83 1119.82 1974.47 1160.31 L 1974.62 1161.81 C 1963.24 1162.56 1953.73 1163.76 1945.61 1172.98 C 1940.27 1179.12 1937.61 1187.15 1938.25 1195.26 C 1938.38 1196.85 1938.55 1198.44 1938.75 1200.02 C 1929.17 1199.61 1918.73 1198.99 1909.21 1198.98 C 1917.68 1185.89 1915.51 1175.33 1901.91 1167.62 L 1900.83 1167.02 L 1899.6 1166.22 C 1898.32 1162.05 1898.7 1145.7 1898.69 1140.43 L 1898.62 1085.55 C 1898.6 1077.08 1898.98 1063.72 1898.14 1055.59 C 1898.64 1048.07 1898.38 1037.02 1898.41 1029.22 C 1930.31 1024.67 1931.06 1016.61 1938.59 987.843 C 1939.8 983.209 1945.1 974.617 1947.72 970.122 C 1966.48 946.354 1969.35 943.399 1996.08 927.647 C 2009.71 921.241 2019.44 918.645 2034.23 916.456 L 2048 915.07 z" fill="rgb(49,246,253)" transform="translate(0,0)"></path>
<path d="M 1470.5 1168.25 L 1879.97 1169.07 L 1899.85 1168.97 C 1918.22 1177.31 1915.26 1198.62 1895.76 1203 C 1864.07 1201.31 1828.07 1202.09 1796.25 1202.41 L 1552.84 1202.02 C 1533.04 1202.02 1420.88 1204.26 1410.91 1200.27 C 1399.25 1190.48 1401.57 1180.69 1410.96 1170.76 C 1418.66 1167.28 1458.43 1168.84 1470.5 1168.25 z" fill="rgb(139,92,246)" transform="translate(0,0)"></path>
<path d="M 197.011 812.916 L 326.372 812.825 C 344.375 812.7 379.126 810.878 395.077 813.241 C 398.221 817.519 394.705 863.591 396.978 873.545 C 385.918 873.764 361.433 874.508 351.592 873.234 C 347.038 869.989 216.902 872.063 197.019 871.335 L 197.011 812.916 z" fill="rgb(124,60,57)" transform="translate(0,0)"></path>
<path d="M 1710.83 1434.64 C 1717.21 1432.09 1730.2 1431.04 1737.29 1430.59 C 1780.65 1427.86 1814.99 1436.9 1855.25 1450.84 C 1853.53 1460.34 1852.95 1466.71 1852.53 1476.43 C 1860.27 1470.34 1865.46 1465.71 1872.63 1458.94 C 1883 1464.17 1897.25 1471.15 1906.45 1478.22 C 1911.45 1486.57 1914.13 1489.29 1921.83 1495.32 L 1930.89 1501.27 C 1935.19 1503.5 1941.72 1506.62 1945.72 1509 L 1886.28 1509 C 1882.21 1506.59 1877.22 1504.44 1872.89 1502.33 C 1820.26 1476.62 1765.45 1455.51 1710.83 1434.64 z" fill="rgb(139,92,246)" transform="translate(0,0)"></path>
<path d="M 1841.31 1423.51 C 1873.85 1422.72 1906.38 1421.77 1938.92 1420.64 C 1945.27 1430.57 1954.24 1445.56 1961.12 1454.61 C 1953.08 1474.33 1960.92 1490.15 1976.54 1503.6 C 1977.69 1504.67 1978.67 1505.47 1979.88 1506.48 L 1983.8 1509 L 1952.16 1509 C 1944.79 1505.58 1937.47 1502.04 1930.22 1498.38 C 1929.38 1497.61 1924.8 1494.57 1923.59 1493.73 C 1916.19 1488.41 1911.99 1484.23 1908.35 1475.99 C 1908.96 1463.1 1912.3 1463.38 1921.32 1451.9 C 1917.51 1436.22 1842.79 1458.57 1841.31 1423.51 z" fill="rgb(139,92,246)" transform="translate(0,0)"></path>
<path d="M 1978.89 1502.84 C 1972.38 1497.53 1967.12 1490.84 1963.51 1483.25 C 1960.33 1476.7 1957.67 1467.18 1960.7 1460.28 C 1966.31 1447.48 1976.49 1450.87 1984.47 1447.37 C 1994.95 1434.72 1964.31 1425.72 1959.99 1414.39 C 1957.61 1408.14 1948.73 1389.7 1956.72 1385.07 C 1960.24 1385.9 1967.47 1391.03 1970.91 1393.27 L 1972.69 1391.56 C 1974.52 1392.5 1975.18 1392.94 1976.82 1394.09 C 1977.94 1394.84 1978.49 1395.07 1979.73 1395.69 L 1978.99 1398.12 L 1980.1 1398.69 C 1986.73 1402.76 2004.09 1414.01 2010.25 1416.9 C 2014.67 1422.49 2013.13 1427.41 2012.62 1435.21 C 2012.52 1436.66 2012.3 1438.9 2012.32 1440.28 C 2011.81 1461.99 2011.15 1487.51 2012.91 1509 L 1987.15 1509 L 1978.89 1502.84 z" fill="rgb(139,92,246)" transform="translate(0,0)"></path>
<path d="M 1972.69 1391.56 C 1974.52 1392.5 1975.18 1392.94 1976.82 1394.09 L 1974.98 1395.79 C 1973.61 1394.97 1972.26 1394.13 1970.91 1393.27 L 1972.69 1391.56 z" fill="rgb(86,39,115)" transform="translate(0,0)"></path>
<path d="M 1976.82 1394.09 C 1977.94 1394.84 1978.49 1395.07 1979.73 1395.69 L 1978.99 1398.12 C 1977.53 1397.19 1976.53 1396.58 1974.98 1395.79 L 1976.82 1394.09 z" fill="rgb(43,30,46)" transform="translate(0,0)"></path>
<path d="M 1708.03 1435.46 C 1748.85 1453.01 1792.83 1467.46 1833.35 1486.39 C 1844.65 1491.67 1870.77 1502.6 1881.03 1509 L 1770.99 1509 C 1773.34 1498.37 1776.34 1494.9 1781.78 1485.52 C 1772.55 1487.66 1765.68 1489.76 1756.74 1492.76 C 1740.63 1478.03 1716.15 1455.93 1708.03 1435.46 z" fill="rgb(139,92,246)" transform="translate(0,0)"></path>
<path d="M 2042.43 1397.34 L 2048 1393.14 L 2048 1490.99 L 2048 1494.61 L 2048 1509 L 2037.39 1509 L 2033.78 1509 L 2015.22 1509 C 2013.9 1487.31 2013.63 1465.57 2014.42 1443.86 C 2015 1440.11 2014.89 1433.9 2014.93 1429.93 L 2015.48 1419.83 C 2023.39 1412.01 2033.59 1404.32 2042.43 1397.34 z" fill="rgb(139,92,246)" transform="translate(0,0)"></path>
<path d="M 2037.39 1509 C 2040.83 1504.13 2044.37 1499.34 2048 1494.61 L 2048 1509 L 2037.39 1509 z" fill="rgb(139,92,246)" transform="translate(0,0)"></path>
<path d="M 2033.78 1509 C 2039.26 1502.88 2043.04 1497.25 2048 1490.99 L 2048 1494.61 C 2044.37 1499.34 2040.83 1504.13 2037.39 1509 L 2033.78 1509 z" fill="url(#Gradient2)" transform="translate(0,0)"></path>
<path d="M 1809.08 1279.29 C 1824.05 1281.56 1846.86 1285.69 1861.55 1289.29 C 1865.48 1296.09 1896.49 1351.5 1896.32 1354.55 C 1879.75 1350.15 1822.32 1346.69 1812 1342.01 C 1821.33 1326.18 1833.87 1333.64 1841.18 1318.64 C 1840.26 1300.14 1818.19 1306.13 1809.08 1279.29 z" fill="rgb(139,92,246)" transform="translate(0,0)"></path>
<path d="M 161.696 1509 C 196.206 1470.08 249.362 1439.57 298.121 1423.03 C 306.166 1420.3 317.112 1416.19 325.07 1414.62 C 283.49 1445.39 238.221 1474.05 199.012 1509 L 161.696 1509 z" fill="rgb(78,205,196)" transform="translate(0,0)"></path>
<path d="M 1964.67 1306.78 L 1968.1 1309.69 C 1968.64 1310.59 1968.48 1310.38 1969.41 1311.01 C 1973.45 1314.5 1977.83 1318.47 1981.93 1321.79 C 1982.59 1322.57 1982.53 1322.48 1983.38 1323.06 L 1988.98 1327.74 C 1989.62 1328.58 1989.5 1328.44 1990.4 1329.04 L 2004.95 1341.78 C 2005.6 1342.57 2005.53 1342.47 2006.38 1343.06 L 2020.01 1354.61 C 2019.13 1360.86 2013.39 1414.29 2012.82 1415.18 L 2011.16 1415.51 C 2006.89 1411.87 1987.01 1400.31 1981.54 1397.2 L 1979.73 1395.69 C 1978.49 1395.07 1977.94 1394.84 1976.82 1394.09 C 1975.18 1392.94 1974.52 1392.5 1972.69 1391.56 C 1967.64 1388.52 1961.28 1384.99 1956.89 1381.23 C 1967 1369.75 1973.91 1373.28 1987.26 1373.97 C 1999.33 1361.94 1953.65 1335.58 1964.67 1306.78 z" fill="rgb(139,92,246)" transform="translate(0,0)"></path>
<path d="M 328.709 1416.03 C 311.84 1450.55 277.169 1484.68 248.006 1509 L 202.463 1509 C 232.589 1482.53 270.854 1455.25 303.729 1432.06 C 308.938 1428.39 323.444 1418.48 328.709 1416.03 z" fill="rgb(78,205,196)" transform="translate(0,0)"></path>
<path d="M 1818.13 1207.2 C 1825.19 1221.62 1833.29 1236.55 1840.73 1250.84 C 1844.62 1258.29 1854.37 1278.72 1858.86 1284.32 C 1856.04 1287.81 1815.7 1277.41 1806.81 1276.9 C 1806.52 1274.74 1805.97 1273.09 1805.37 1271.01 C 1802.42 1245.43 1801.37 1233.58 1815.57 1210.22 L 1818.13 1207.2 z" fill="rgb(139,92,246)" transform="translate(0,0)"></path>
<path d="M 271.823 1020.36 C 277.883 1017.77 341.489 1019.07 352.736 1018.84 C 347.442 1023.48 334.395 1035.22 333.044 1042.3 C 332.547 1043.86 327.539 1051.66 326.13 1054.07 C 322.147 1060.88 320.271 1064.86 317.543 1072.43 C 302.64 1046.26 296.399 1037.9 271.823 1020.36 z" fill="rgb(124,60,57)" transform="translate(0,0)"></path>
<path d="M 2022.42 1353.65 C 2030.55 1347.73 2039.61 1341.83 2048 1336.17 L 2048 1390.65 L 2041.17 1395.58 C 2032.41 1402.16 2023.94 1409.12 2015.8 1416.45 C 2016.66 1397.84 2019.61 1371.84 2022.42 1353.65 z" fill="rgb(139,92,246)" transform="translate(0,0)"></path>
<path d="M 2048 1275.9 L 2048 1333.56 C 2039.68 1338.74 2030.62 1345.3 2022.52 1350.92 C 2023.81 1342.2 2031.91 1288.38 2034.62 1284.95 C 2039.84 1282.17 2042.97 1278.83 2048 1275.9 z" fill="rgb(139,92,246)" transform="translate(0,0)"></path>
<path d="M 712.808 1069.23 C 710.847 1067.79 711.283 1067.38 712.979 1065.46 C 728.801 1047.56 751.316 1030.67 773.836 1022.58 C 758.924 1042.37 741.865 1064.87 726.015 1083.89 C 721.872 1079.06 718.754 1075.86 714.412 1071.34 C 713.893 1070.62 713.358 1069.92 712.808 1069.23 z" fill="rgb(78,205,196)" transform="translate(0,0)"></path>
<path d="M 2048 1200.92 L 2048 1272.84 L 2034.54 1283.01 C 2033.56 1275.02 2045.42 1211.58 2048 1200.92 z" fill="rgb(139,92,246)" transform="translate(0,0)"></path>
<path d="M 276.667 1346.79 C 284.032 1351.7 292.248 1356.3 299.898 1360.85 C 298.384 1361.72 289.779 1365.74 289.074 1364.72 C 284.043 1357.43 278.662 1355.41 276.667 1346.79 z" fill="url(#Gradient1)" transform="translate(0,0)"></path>
<path d="M 595.45 1215.19 C 600.027 1215.07 618.835 1212.3 613.337 1220.6 C 612.789 1221.42 597.048 1221.19 595.149 1221.2 C 595.5 1218.63 595.779 1217.7 595.45 1215.19 z" fill="rgb(49,246,253)" transform="translate(0,0)"></path>
<path d="M 855.988 1215.55 C 855.685 1217.91 855.746 1218.64 855.818 1221.04 C 853.891 1221.08 839.666 1221.43 839.031 1220.74 C 832.132 1213.28 852.091 1215.58 855.988 1215.55 z" fill="rgb(49,246,253)" transform="translate(0,0)"></path>
<path d="M 595.747 1189.02 C 600.708 1188.67 614.02 1186.19 614.412 1192.17 C 611.973 1195.44 599.954 1194.19 595.778 1193.96 C 595.974 1191.7 596.198 1191.16 595.747 1189.02 z" fill="rgb(49,246,253)" transform="translate(0,0)"></path>
<path d="M 712.808 1069.23 C 713.358 1069.92 713.893 1070.62 714.412 1071.34 L 714.008 1074.03 C 713.142 1073.2 712.564 1072.64 711.745 1071.73 L 712.808 1069.23 z" fill="rgb(26,101,105)" transform="translate(0,0)"></path>
<path d="M 577.91 1280.5 L 579.54 1282.24 L 577.984 1283.8 C 577.452 1283.38 576.923 1282.97 576.398 1282.54 L 577.91 1280.5 z" fill="rgb(26,101,105)" transform="translate(0,0)"></path>
<path d="M 1979.73 1395.69 L 1981.54 1397.2 L 1980.1 1398.69 L 1978.99 1398.12 L 1979.73 1395.69 z" fill="rgb(86,39,115)" transform="translate(0,0)"></path>
<path d="M 1847.27 913.799 C 1858.64 913.461 1873.78 911.148 1881.39 919.367 C 1892.21 931.045 1902.89 948.69 1911.98 962.161 L 1917.36 969.813 L 1919.19 972.25 L 1921.22 975.29 L 1924.6 980.404 C 1927.51 977.131 1929.52 978.097 1934 978.119 L 1940.61 978.205 C 1938.44 982.42 1936.03 990.829 1931.62 992.103 C 1936.54 1005.56 1927.14 1020.38 1914.08 1024.23 C 1891.61 1030.86 1878.13 1022.22 1866.52 1004.15 L 1866.28 1002.13 L 1865.26 1002.1 C 1855.7 1022.92 1840.19 1033.2 1815.97 1023.94 C 1805.23 1019.83 1799.1 1010.41 1795.19 999.792 C 1785.96 1029.66 1750.88 1035.56 1729.95 1012.74 C 1727.98 1010.59 1727.78 1003.46 1724.75 1001.43 C 1723.48 1002.26 1723.02 1002.91 1722.72 1004.4 C 1720.13 1017 1708.65 1021.49 1697.67 1025.93 C 1684.91 1027.23 1678.82 1025.71 1667.06 1020.57 L 1657.88 1011.15 C 1657.53 1009.75 1654.47 1002.85 1653.73 1001.1 C 1652.71 1004.56 1651.26 1007.96 1649.91 1011.32 C 1628.34 1034.78 1595.15 1032.73 1583.46 1001.33 C 1579.34 1009.26 1577.32 1013.67 1570.21 1019.17 C 1554.17 1031.56 1528.62 1027.87 1517.33 1010.8 C 1515.26 1007.66 1513.58 1002.61 1512.27 999.029 C 1508.38 1010 1505.08 1016.72 1493.9 1022.18 C 1484.48 1026.66 1473.68 1027.32 1463.78 1024 C 1455.51 1021.16 1448.53 1015.34 1444.76 1007.4 C 1443.62 1004.97 1442.61 1002.49 1441.73 999.961 C 1439.22 1006.57 1438.51 1008.51 1434.56 1014.26 C 1429.27 1019.12 1427.9 1020 1421.53 1023.41 C 1414.59 1025.03 1411.64 1025.1 1404.43 1025.26 C 1389.22 1026.51 1365.44 1009.88 1376.08 993.138 C 1391.65 968.642 1411.58 942.69 1429.59 919.719 C 1436.03 911.508 1459.96 913.781 1470.76 913.782 L 1521.85 913.796 L 1691.68 913.947 L 1847.27 913.799 z" fill="rgb(78,205,196)" transform="translate(0,0)"></path>
<path d="M 1924.6 980.404 C 1927.51 977.131 1929.52 978.097 1934 978.119 L 1940.61 978.205 C 1938.44 982.42 1936.03 990.829 1931.62 992.103 C 1929.55 988.041 1927.14 984.189 1924.6 980.404 z" fill="rgb(124,60,57)" transform="translate(0,0)"></path>
<path d="M 1877.37 1041.97 C 1878 1046.79 1878.08 1049.41 1878.11 1054.27 C 1877.28 1088.21 1877.99 1122.44 1877.89 1156.4 C 1877.88 1159.52 1877.75 1164.01 1878.19 1166.95 C 1823.87 1165.28 1762.61 1166.6 1708 1166.65 L 1442.23 1166.24 L 1442.13 1127.09 C 1455.59 1126.86 1462.47 1127.04 1475.62 1130.66 C 1483.33 1097.02 1495.06 1083.51 1525.26 1067.29 C 1533.01 1063.46 1539.21 1062.04 1547.46 1059.98 C 1555.32 1072.67 1563.58 1071.37 1570.82 1059.29 C 1578.02 1060.64 1582.05 1061.52 1588.85 1064.03 C 1602.23 1071.98 1602.73 1070.52 1616.54 1081.86 C 1642.04 1074.99 1663.16 1076.8 1686.51 1090 C 1687.1 1090.33 1687.69 1090.68 1688.27 1091.04 L 1688.99 1091.18 C 1706.32 1104.29 1714.14 1112.68 1720.57 1133.72 C 1734.76 1132.22 1748.5 1133.72 1761.77 1138.87 C 1772.73 1120.04 1778.82 1114.35 1800.77 1110.66 C 1807.94 1083.42 1825.16 1073.2 1852.02 1070.44 C 1855.78 1055.16 1862.77 1047.36 1877.37 1041.97 z" fill="rgb(49,246,253)" transform="translate(0,0)"></path>
<path d="M 1646.13 812.234 C 1652.24 813.1 1664.91 813.397 1671.12 812.824 L 1850.08 813.049 L 1850.16 871.93 L 1745.64 871.97 C 1728.66 871.957 1707.43 872.497 1690.72 871.673 C 1685.2 870.552 1652.8 871.612 1645.33 871.793 C 1646.58 865.21 1646.04 821.709 1646.13 812.234 z" fill="rgb(124,60,57)" transform="translate(0,0)"></path>
<path d="M 1644.92 634.51 C 1713.34 634.855 1781.77 634.852 1850.19 634.501 C 1850.18 651.437 1850.86 676.683 1849.73 692.913 L 1715.37 692.747 C 1696.49 692.671 1662.46 691.373 1645.05 692.884 L 1644.92 634.51 z" fill="rgb(124,60,57)" transform="translate(0,0)"></path>
<path d="M 628.943 1270.34 L 826.125 1270.62 C 826.205 1277.9 826.015 1289.1 826.563 1296.09 L 814.471 1296.21 L 825.968 1297.6 C 826.173 1303.13 827.717 1317.59 824.576 1321.23 C 818.791 1319.56 769.316 1320.55 760.633 1320.85 C 724.077 1319.14 684.769 1321.9 648.201 1318.94 C 645.087 1318.68 632.474 1312.15 628.922 1310.41 C 628.795 1306.94 628.215 1301.72 630.486 1299.32 C 631.237 1298.53 630.9 1298.72 630.834 1296.98 L 632.035 1297.92 L 633.344 1297.38 L 630.056 1296.63 L 628.794 1295.59 C 628.888 1287.18 628.938 1278.76 628.943 1270.34 z" fill="rgb(49,246,253)" transform="translate(0,0)"></path>
<path d="M 630.056 1296.63 C 685.497 1294.9 741.799 1297.09 797.32 1296.08 C 802.734 1295.98 809.1 1295.85 814.471 1296.21 L 825.968 1297.6 C 826.173 1303.13 827.717 1317.59 824.576 1321.23 C 818.791 1319.56 769.316 1320.55 760.633 1320.85 C 724.077 1319.14 684.769 1321.9 648.201 1318.94 C 645.087 1318.68 632.474 1312.15 628.922 1310.41 C 628.795 1306.94 628.215 1301.72 630.486 1299.32 C 631.237 1298.53 630.9 1298.72 630.834 1296.98 L 632.035 1297.92 L 633.344 1297.38 L 630.056 1296.63 z" fill="rgb(124,60,57)" transform="translate(0,0)"></path>
<path d="M 351.764 640.044 C 364.654 639.645 379.774 639.942 392.784 640.02 C 392.823 644.416 393.555 650.002 391.848 653.701 C 392.046 654.002 393.884 655.316 394.24 655.584 C 396.8 661.888 395.306 683.994 395.194 692.49 L 196.905 692.923 C 196.986 680.328 196.971 667.733 196.861 655.139 C 233.112 655.685 269.968 654.945 306.268 655.296 C 313.013 655.361 350.366 655.621 355.038 654.544 L 351.736 653.464 C 351.773 648.99 351.782 644.517 351.764 640.044 z" fill="rgb(124,60,57)" transform="translate(0,0)"></path>
<path d="M 351.764 640.044 C 364.654 639.645 379.774 639.942 392.784 640.02 C 392.823 644.416 393.555 650.002 391.848 653.701 C 385.721 652.613 358.026 652.703 351.736 653.464 C 351.773 648.99 351.782 644.517 351.764 640.044 z" fill="rgb(255,209,102)" transform="translate(0,0)"></path>
<path d="M 1811.58 1344.39 C 1825.17 1347.68 1845.43 1349.17 1859.7 1351.39 C 1866.4 1352.43 1890.59 1355.88 1896.36 1355.78 C 1897.23 1356.22 1898.1 1356.67 1898.97 1357.12 C 1912.13 1377.09 1923.76 1398.04 1937.09 1417.91 C 1915.15 1420 1891.56 1419.36 1869.46 1420.47 C 1862.24 1420.84 1849.57 1420.6 1842.78 1421.66 C 1840.42 1419.68 1841.3 1420.94 1840.66 1417.38 C 1845.99 1401.84 1869.27 1403.04 1871.29 1389.38 C 1867.56 1368.25 1804.55 1385.37 1811.58 1344.39 z" fill="rgb(139,92,246)" transform="translate(0,0)"></path>
<path d="M 1945.91 1294.27 C 1980.73 1320.7 1928.93 1380.17 1960.76 1373.5 C 1959.1 1375.64 1957.6 1377.53 1955.83 1379.59 C 1946.73 1395.09 1952.94 1413 1966.17 1423.67 C 1984.14 1438.16 1980.37 1442.81 1962.73 1452.74 C 1957.05 1445.34 1951.02 1434.95 1945.67 1427.07 C 1929.75 1403.59 1915.62 1378.59 1900.19 1354.9 C 1915.26 1337.55 1930.5 1313.04 1945.91 1294.27 z" fill="rgb(139,92,246)" transform="translate(0,0)"></path>
<path d="M 1864.99 1290.06 C 1871.7 1278.52 1883.36 1250.75 1889.78 1243.03 C 1891.01 1245.13 1892.95 1248.66 1894.38 1250.46 L 1897.42 1258.12 C 1900.36 1272.18 1895.11 1290.83 1905 1298.99 C 1914.33 1302.51 1927.69 1285.05 1943.92 1293.17 C 1930.22 1309.34 1912.81 1335.06 1899.42 1353.02 C 1887.27 1332.42 1875.79 1311.42 1864.99 1290.06 z" fill="rgb(139,92,246)" transform="translate(0,0)"></path>
<path d="M 1999.72 1238.94 C 2009.17 1252.1 2023.67 1272.13 2031.25 1286.05 C 2027.67 1305.63 2022.39 1332.03 2020.45 1351.73 C 2003.26 1338.25 1981.8 1319.4 1965.66 1304.56 C 1979.76 1292 1990.45 1305.14 1996.81 1302.12 C 2022.33 1290.03 1981.63 1266.5 1999.72 1238.94 z" fill="rgb(139,92,246)" transform="translate(0,0)"></path>
<path d="M 1820.22 1207.06 C 1831.16 1204.5 1854.11 1216.09 1863.58 1221.57 C 1870.4 1225.51 1877.72 1232.44 1882.17 1235.09 C 1884.98 1237.93 1886.11 1238.15 1886.97 1241.66 C 1882.66 1250.46 1869.22 1279.26 1864.47 1286.36 C 1861.86 1286.17 1863.12 1286.62 1860.91 1284.17 C 1859.17 1279.89 1850.9 1265.11 1848.34 1260.24 L 1820.22 1207.06 z" fill="rgb(139,92,246)" transform="translate(0,0)"></path>
<path d="M 682.917 855.476 L 685.06 855.93 C 686.426 857.79 686.91 979.32 686.913 992.53 L 672.665 977.334 C 666.604 970.95 661.935 965.578 656.72 958.478 C 659.535 958.205 666.356 957.722 668.015 956.014 C 676.286 947.498 669.428 919.536 668.406 907.528 C 667.827 900.201 667.92 892.837 668.682 885.528 C 670.082 872.806 672.813 863.566 682.917 855.476 z" fill="rgb(78,205,196)" transform="translate(0,0)"></path>
<path d="M 726.529 936.763 C 733.913 947.871 715.982 987.614 712.565 999.95 C 711.716 1003.02 712.584 1004.18 714.227 1006.44 C 717.959 1008.49 721.321 1008.13 725.662 1008.25 C 716.524 1019.24 707.154 1030.04 697.558 1040.63 C 694.695 1043.77 691.584 1047.69 688.825 1051.01 C 688.779 1039.19 687.191 1001.88 691.026 993.013 C 696.481 980.393 717.934 948.075 726.529 936.763 z" fill="rgb(78,205,196)" transform="translate(0,0)"></path>
<path d="M 1999.84 1237 C 2005.52 1224.91 2033.34 1191.79 2046.67 1193.04 C 2040.93 1221.23 2037.4 1254.31 2031.4 1280.67 C 2026.36 1273.28 2004.84 1240.83 1999.84 1237 z" fill="rgb(139,92,246)" transform="translate(0,0)"></path>
<path d="M 688.067 856.459 C 709.622 870.635 696.591 931.882 704.718 940.682 C 709.839 941.857 720.827 934.995 726.86 932.407 C 718.937 943.463 713.417 951.518 705.973 963.253 C 699.989 972.581 694.586 981.191 689.062 990.789 C 688.404 947.44 687.593 899.47 688.067 856.459 z" fill="rgb(78,205,196)" transform="translate(0,0)"></path>
<path d="M 629.05 1242.03 L 756.576 1241.92 C 773.814 1241.93 806.021 1241.02 822.225 1242.43 C 823.711 1244.3 823.294 1248.18 823.318 1250.79 L 698.441 1251.07 C 679.619 1251.18 648.308 1252.39 630.251 1251.09 C 628.446 1248.72 629.006 1245.19 629.05 1242.03 z" fill="rgb(49,246,253)" transform="translate(0,0)"></path>
<path d="M 635.406 1001.94 C 649.62 1005.41 647.519 1008.35 659.734 1015.16 C 662.413 1016.65 663.743 1015.97 665.963 1015.05 C 672.556 1003.52 652.2 978.956 653.241 962.413 L 654.451 961.812 C 659.059 964.183 664.965 971.988 668.615 976.183 C 669.208 976.492 669.146 976.564 669.553 977.226 C 675.675 983.581 681.267 989.238 686.791 996.151 C 686.97 1014.47 686.387 1033.86 686.254 1052.31 L 685.467 1051.91 C 674.968 1046.67 644.571 1012.4 635.406 1001.94 z" fill="rgb(78,205,196)" transform="translate(0,0)"></path>
<path d="M 823.963 1220.88 C 803.454 1221.05 634.362 1222.51 630.041 1219.81 C 630.271 1218.42 630.136 1216.88 631.27 1216.35 C 636.856 1213.77 651.986 1215.15 657.988 1215.13 L 729.794 1215.03 C 757.146 1215.02 795.874 1213.79 822.459 1215.24 L 823.674 1217.5 L 823.963 1220.88 z" fill="rgb(78,205,196)" transform="translate(0,0)"></path>
<path d="M 698.314 1188.49 C 713.526 1188.38 819.531 1187.16 823.612 1189.67 C 824.116 1192.91 824.506 1191.57 822.92 1193.94 C 808.603 1195.5 773.145 1194.32 757.5 1194.2 L 673.774 1193.98 C 667.177 1193.99 632.975 1195.49 629.245 1192.79 L 629.337 1189.89 C 629.895 1189.48 630.452 1189.06 631.01 1188.65 C 646.771 1188.73 684.986 1188.54 698.314 1188.49 z" fill="rgb(78,205,196)" transform="translate(0,0)"></path>
<path d="M 1911.91 888.672 C 1940.01 889.056 1976.14 889.913 2003.97 888.485 C 2004.02 897.279 2004.74 913.714 2003.3 921.574 C 2001.48 922.871 2001.15 923.388 1998.94 923.591 C 1995.75 919.395 1996.98 900.05 1997.07 893.629 C 1970.69 893.905 1944.31 894 1917.92 893.913 L 1917.99 941.927 C 1918 947.742 1918.35 965.094 1917.36 969.813 L 1911.98 962.161 C 1911.39 937.972 1912.04 913.011 1911.91 888.672 z" fill="rgb(124,60,57)" transform="translate(0,0)"></path>
<path d="M 774.94 1025.16 C 776.236 1044.35 751.685 1087.29 738.375 1101.14 C 734.761 1094.87 732.032 1091.13 727.495 1085.5 L 757.846 1047.41 C 763.6 1040.07 768.891 1032.02 774.94 1025.16 z" fill="rgb(78,205,196)" transform="translate(0,0)"></path>
<path d="M 728.512 1008.65 C 732.527 1020.5 715.168 1055.69 708.79 1066.77 C 705.149 1064.09 701.434 1061.5 697.649 1059.03 C 694.758 1057.27 691.893 1055.47 689.056 1053.63 C 701.81 1040.02 716.354 1021.03 728.512 1008.65 z" fill="rgb(78,205,196)" transform="translate(0,0)"></path>
<path d="M 351.787 620.943 C 360.637 620.947 385.486 621.523 392.925 620.316 C 392.961 625.77 392.955 631.224 392.904 636.678 C 383.515 635.571 362.161 636.169 351.81 636.202 C 351.763 631.116 351.755 626.029 351.787 620.943 z" fill="rgb(255,209,102)" transform="translate(0,0)"></path>
<path d="M 634.501 1004.31 C 640.582 1010.53 646.498 1016.97 652.611 1023.19 C 653.222 1023.51 653.168 1023.63 653.54 1024.26 C 656.896 1028.34 659.617 1031.23 663.395 1035 C 664.088 1035.47 664.009 1035.33 664.369 1036.04 C 667.524 1039.63 670.698 1042.99 673.683 1046.73 C 662.138 1043.38 654.874 1041.64 642.815 1040.62 C 638.768 1027.11 636.015 1018.42 634.501 1004.31 z" fill="rgb(78,205,196)" transform="translate(0,0)"></path>
<path d="M 1485.51 1461.75 C 1486.49 1461 1488.94 1458.84 1490.02 1458.8 C 1505.2 1458.19 1522.81 1459.73 1537.8 1458.62 C 1537.4 1461.59 1531.48 1475.5 1530.06 1481.1 C 1514.01 1470.73 1504.76 1465.28 1485.51 1461.75 z" fill="rgb(124,60,57)" transform="translate(0,0)"></path>
<path d="M 1780.1 1050.33 C 1797.34 1058.63 1782.19 1073.02 1772.35 1065.63 C 1765.7 1060.63 1769.87 1055.07 1775.17 1050.79 C 1777.21 1050.42 1778.07 1050.42 1780.1 1050.33 z" fill="rgb(255,209,102)" transform="translate(0,0)"></path>
<path d="M 1808.45 1050.36 C 1810.85 1047.69 1814.64 1046.74 1818.02 1047.96 C 1821.67 1049.28 1824.03 1052.83 1823.83 1056.71 C 1823.63 1060.58 1820.93 1063.88 1817.16 1064.82 C 1813.4 1065.77 1809.46 1064.14 1807.45 1060.82 C 1805.45 1057.49 1805.85 1053.25 1808.45 1050.36 z" fill="rgb(255,209,102)" transform="translate(0,0)"></path>
<path d="M 1735.32 1050.14 C 1738.04 1048.66 1741.33 1048.72 1744 1050.29 C 1747.44 1052.32 1749.08 1056.42 1747.99 1060.27 C 1746.9 1064.11 1743.36 1066.74 1739.36 1066.67 C 1735.37 1066.6 1731.92 1063.85 1730.97 1059.96 C 1730.02 1056.08 1731.8 1052.05 1735.32 1050.14 z" fill="rgb(255,209,102)" transform="translate(0,0)"></path>
<path d="M 1555.49 1049.51 C 1558.02 1049.97 1560.31 1050.53 1562.8 1051.05 C 1571.32 1057.81 1568.79 1065.77 1560.52 1066.99 C 1551.5 1068.32 1545.8 1058.95 1553.91 1051.1 L 1555.49 1049.51 z" fill="rgb(255,209,102)" transform="translate(0,0)"></path>
<path d="M 1666.74 1032.39 C 1671.3 1031.24 1675.96 1033.9 1677.27 1038.42 C 1678.59 1042.94 1676.09 1047.68 1671.62 1049.16 C 1668.59 1050.16 1665.25 1049.43 1662.91 1047.24 C 1660.58 1045.06 1659.62 1041.77 1660.42 1038.68 C 1661.22 1035.58 1663.64 1033.17 1666.74 1032.39 z" fill="rgb(255,209,102)" transform="translate(0,0)"></path>
<path d="M 1592.73 1048.38 C 1595.27 1048.49 1597.61 1048.6 1600.15 1048.8 C 1610.62 1058.56 1604.45 1069.32 1590.22 1063.62 C 1586.83 1059.35 1586.92 1057.32 1589.09 1052.24 C 1590.49 1050.88 1591.45 1049.88 1592.73 1048.38 z" fill="rgb(255,209,102)" transform="translate(0,0)"></path>
<path d="M 1629.12 1044.3 C 1633.19 1042.55 1637.92 1044.15 1640.09 1048.02 C 1642.25 1051.89 1641.14 1056.76 1637.51 1059.31 C 1633.89 1061.86 1628.92 1061.26 1626.02 1057.91 C 1623.11 1054.57 1623.2 1049.57 1626.23 1046.33 C 1627.04 1045.46 1628.02 1044.77 1629.12 1044.3 z" fill="rgb(255,209,102)" transform="translate(0,0)"></path>
<path d="M 1523.96 1066.05 C 1506.1 1065.75 1507.57 1045.64 1525.65 1050.41 C 1531.3 1057.65 1530.59 1059.53 1523.96 1066.05 z" fill="rgb(255,209,102)" transform="translate(0,0)"></path>
<path d="M 1709.3 1046.11 C 1711.82 1049.84 1713.46 1054.32 1709.68 1057.46 C 1694.76 1069.83 1684.47 1041.24 1705.9 1044.77 L 1709.3 1046.11 z" fill="rgb(255,209,102)" transform="translate(0,0)"></path>
<path d="M 1490.71 1046.2 C 1493.42 1049.6 1493.13 1054.49 1490.04 1057.54 C 1486.94 1060.59 1482.04 1060.8 1478.69 1058.03 C 1475.34 1055.26 1474.64 1050.4 1477.05 1046.79 C 1479.47 1043.18 1484.22 1041.98 1488.06 1044.02 C 1489.08 1044.56 1489.98 1045.3 1490.71 1046.2 z" fill="rgb(255,209,102)" transform="translate(0,0)"></path>
<path d="M 1845.03 1041.97 C 1848.06 1038.64 1853.18 1038.28 1856.66 1041.15 C 1860.13 1044.03 1860.74 1049.12 1858.03 1052.73 C 1855.33 1056.34 1850.27 1057.19 1846.53 1054.66 C 1842.8 1052.13 1841.71 1047.11 1844.06 1043.26 C 1844.34 1042.8 1844.66 1042.37 1845.03 1041.97 z" fill="rgb(255,209,102)" transform="translate(0,0)"></path>
<path d="M 1441.23 1035.34 C 1442.77 1032.89 1445.45 1031.41 1448.34 1031.4 C 1451.23 1031.4 1453.92 1032.88 1455.47 1035.32 C 1457.78 1038.97 1456.94 1043.78 1453.54 1046.44 C 1450.14 1049.11 1445.27 1048.76 1442.28 1045.65 C 1439.61 1042.86 1439.17 1038.61 1441.23 1035.34 z" fill="rgb(255,209,102)" transform="translate(0,0)"></path>
<path d="M 1966.08 1368.6 C 1976.24 1361.26 1987.46 1367.23 1983.37 1371.46 C 1976.46 1369.93 1976.95 1369.81 1969.7 1370.4 C 1967.33 1371.76 1963.42 1372.85 1960.76 1373.5 C 1962.61 1370.8 1963.09 1370.13 1966.08 1368.6 z" fill="rgb(139,92,246)" transform="translate(0,0)"></path>
<path d="M 0 0 L 1114.82 0 L 2048 0 L 2048 151.885 L 2048 165.903 L 2048 295.033 L 2048 388.759 C 1993.83 351.264 1946.39 304.669 1903.99 254.442 C 1853.49 244.89 1820.53 235.285 1774.46 213.746 C 1772.92 215.801 1765.9 225.443 1764.56 226.743 C 1758.12 230.47 1755.54 239.149 1751.47 244.76 C 1750.65 245.901 1727.31 238.494 1724.62 238.286 C 1697.05 236.146 1668.77 232.979 1641.25 236.748 C 1631.11 238.146 1622.28 242.936 1613.92 244.717 C 1607.69 246.045 1600.27 235.517 1589.57 241.409 C 1585.72 241.399 1584.83 242.123 1582.51 240.044 C 1568.09 106.886 1382.28 83.2203 1336.86 211.576 C 1317.83 182.73 1284.11 170.635 1254.17 191.396 C 1241.89 200.006 1233.61 213.206 1231.18 228.007 C 1230.71 231.007 1230.43 234.326 1230.17 237.364 C 1211.26 231.159 1198.05 234.138 1184.32 248.775 L 1183.54 248.655 C 1181.83 249.335 1181.45 250.082 1180.31 251.519 L 1179.88 252.062 C 1176.71 253.333 1175.42 254.186 1172.12 253.959 C 1157.28 241.652 1038.54 216.168 1028.17 238.049 C 1025.04 238.945 1024.85 238.615 1022.5 237.039 C 1021.92 234.675 1021.79 233.3 1020.31 231.347 C 1017.27 232.19 1016.02 234.261 1013.87 236.733 C 982.462 230.595 944.968 220.751 913.211 213.352 L 869.645 202.869 L 870.156 217.571 L 869.999 218.593 C 868.154 231.297 873.555 231.13 859.777 238.619 C 855.378 238.062 848.042 236.024 844.395 236.018 C 762.914 235.865 679.791 241.434 598.547 244.32 C 585.497 244.78 572.433 244.704 559.388 244.094 C 550.769 243.627 542.147 242.508 533.512 242.523 C 507.489 242.568 481.462 245.657 455.422 244.492 C 438.183 243.72 421.059 240.264 403.834 239.483 C 392.806 238.983 358.686 244.68 354.705 244.056 C 353.627 243.887 349.491 238.884 347.348 238.023 C 302.98 187.071 265.446 160.18 196.812 148.547 C 123.129 136.058 53.2244 161.19 0 212.543 L 0 0 z" fill="rgb(255,90,31)" transform="translate(0,0)"></path>
<path d="M 1114.82 0 L 2048 0 L 2048 151.885 L 2048 165.903 L 2048 295.033 L 2048 388.759 C 1993.83 351.264 1946.39 304.669 1903.99 254.442 C 1853.49 244.89 1820.53 235.285 1774.46 213.746 C 1749.33 200.291 1731.29 199.598 1703.81 191.606 C 1635.91 171.854 1570.72 136.094 1524.39 81.6737 C 1515.34 86.1526 1505.59 89.0326 1495.57 90.1862 C 1469.62 93.2818 1446.61 86.8663 1426.27 70.6649 C 1394.07 101.661 1329.04 96.5934 1307.67 55.308 C 1305.73 51.5454 1304 46.7068 1302.52 42.7051 C 1295.4 53.459 1287.87 61.0569 1276.28 67.0046 C 1259.14 75.7055 1239.24 77.2394 1220.97 71.2687 C 1204.58 65.8931 1193.61 56.9477 1185.95 41.6637 C 1150.5 46.3724 1125.26 35.8365 1114.82 0 z" fill="rgb(43,30,46)" transform="translate(0,0)"></path>
<path d="M 1904.94 137.364 C 1942.15 129.894 1980.04 137.623 2015.29 149.505 C 2025.57 154.209 2038.6 159.772 2048 165.903 L 2048 295.033 C 2004.8 274.474 1930.32 233.514 1897.31 199.835 C 1898.75 180.086 1900.87 156.642 1904.94 137.364 z" fill="rgb(245,237,230)" transform="translate(0,0)"></path>
<path d="M 1904.94 137.364 C 1907.55 126.618 1914.01 80.9967 1927.27 83.2285 C 1930.56 91.8172 1928.32 97.0728 1933.21 105.825 C 1939.82 117.689 1948.89 124.374 1962.02 128.026 C 1979.12 132.783 1991.39 130.681 2007.73 125.753 C 2009.42 135.587 2010.41 137.787 2017.6 145.144 C 2028.38 151.12 2036 151.289 2048 151.885 L 2048 165.903 C 2038.6 159.772 2025.57 154.209 2015.29 149.505 C 1980.04 137.623 1942.15 129.894 1904.94 137.364 z" fill="rgb(255,90,31)" transform="translate(0,0)"></path>
<path d="M 1726.26 87.6365 C 1750.1 101.001 1762.15 101.307 1788.59 99.7283 C 1802.11 121.586 1816.31 143.019 1831.16 163.996 C 1816.35 173.725 1802.99 182.883 1790.73 195.887 C 1784.32 193.204 1772.6 188.48 1767.39 184.618 C 1736.54 161.766 1712.95 132.505 1689.3 103.479 C 1704.92 101.815 1714.4 97.473 1726.26 87.6365 z" fill="rgb(255,90,31)" transform="translate(0,0)"></path>
<path d="M 1847.21 51.9424 L 1869.61 52.132 C 1871.53 78.7695 1883.69 84.9898 1909.19 85.3025 C 1896.9 107.296 1892.05 119.063 1883.79 142.776 C 1879.67 155.081 1876.83 167.267 1874.21 179.958 C 1866.94 171.211 1859.78 161.906 1852.29 153.365 C 1840.08 138.586 1817.99 109.143 1809.69 92.1653 C 1827.96 83.9537 1840.38 70.6579 1847.21 51.9424 z" fill="rgb(255,90,31)" transform="translate(0,0)"></path>
<path d="M 1852.29 153.365 C 1857.38 150.71 1878.96 141.556 1883.79 142.776 C 1879.67 155.081 1876.83 167.267 1874.21 179.958 C 1866.94 171.211 1859.78 161.906 1852.29 153.365 z" fill="rgb(245,237,230)" transform="translate(0,0)"></path>
<path d="M 1550.7 63.837 C 1552.6 65.7638 1555.79 71.9619 1557.63 74.3865 C 1582.43 107.109 1621.58 109.111 1656.62 96.1018 C 1663.49 100.067 1669 101.523 1676.65 103.076 C 1683.4 120.299 1690.37 135.509 1701.1 150.808 C 1706.38 158.333 1714.07 165.889 1718.68 173.581 C 1716.82 174.491 1714.17 173.296 1711.68 172.672 C 1667.17 157.829 1621.06 137.85 1581.06 113.3 C 1564.51 103.14 1547.07 90.1195 1530.59 79.1394 C 1539.78 74.0038 1543.42 71.4147 1550.7 63.837 z" fill="rgb(255,90,31)" transform="translate(0,0)"></path>
<path d="M 1790.73 195.887 C 1802.99 182.883 1816.35 173.725 1831.16 163.996 C 1845.37 183.932 1860.74 203.022 1877.17 221.168 C 1845.75 215.668 1820.51 205.529 1790.73 195.887 z" fill="rgb(245,237,230)" transform="translate(0,0)"></path>
<path d="M 0 212.543 C 53.2244 161.19 123.129 136.058 196.812 148.547 C 265.446 160.18 302.98 187.071 347.348 238.023 C 367.924 268.282 376.099 283.185 386.33 318.848 C 408.038 299.713 436.485 290.035 465.358 291.964 C 528.978 295.606 582.056 353.898 577.966 417.841 C 577.48 425.185 576.337 432.47 574.55 439.61 C 634.704 430.267 673.961 444.582 711.665 492.447 C 712.576 494.154 712.687 495.303 714.071 495.285 C 727.356 495.113 742.763 494.952 755.96 495.26 C 796.209 496.198 875.999 512.928 909.108 535.198 L 912.133 537.177 L 912.032 538.335 C 908.396 538.67 907.145 538.617 903.498 538.287 L 351.769 538.825 L 351.5 519.525 C 342.106 516.314 216.527 518.843 196.506 518.454 C 197.629 512.451 197.216 489.756 196.624 483.346 L 197.006 478.358 C 191.032 479.675 149.266 478.92 140.535 478.903 L 0 478.612 L 0 476.9 L 0 441.976 L 0 212.543 z" fill="rgb(245,237,230)" transform="translate(0,0)"></path>
<path d="M 0 441.976 L 79.8446 441.962 C 91.3876 441.956 111.014 441.36 121.65 442.18 L 236.913 441.981 L 236.838 458.977 C 236.977 465.436 237.022 471.896 236.972 478.356 L 197.006 478.358 C 191.032 479.675 149.266 478.92 140.535 478.903 L 0 478.612 L 0 476.9 L 0 441.976 z" fill="rgb(124,60,57)" transform="translate(0,0)"></path>
<path d="M 0 476.9 L 129.948 476.874 C 136.712 476.874 194.25 475.891 197.006 478.358 C 191.032 479.675 149.266 478.92 140.535 478.903 L 0 478.612 L 0 476.9 z" fill="rgb(43,30,46)" transform="translate(0,0)"></path>
<path d="M 121.65 442.18 L 236.913 441.981 L 236.838 458.977 C 236.418 462.596 236.793 470.564 235.11 472.778 L 235.495 474.281 C 234.639 473.136 235.092 446.733 235.107 443.033 C 217.937 444.158 196.707 443.574 179.024 443.714 C 162.963 443.84 136.811 444.831 121.65 442.18 z" fill="rgb(43,30,46)" transform="translate(0,0)"></path>
<path d="M 196.624 483.346 L 398.403 483.481 L 398.191 520.404 C 390.115 520.435 357.576 521.006 351.5 519.525 C 342.106 516.314 216.527 518.843 196.506 518.454 C 197.629 512.451 197.216 489.756 196.624 483.346 z" fill="rgb(124,60,57)" transform="translate(0,0)"></path>
<path d="M 1774.46 213.746 C 1820.53 235.285 1853.49 244.89 1903.99 254.442 C 1946.39 304.669 1993.83 351.264 2048 388.759 L 2048 441.896 L 2048 477.037 C 2026.21 477.015 1855.2 475.907 1851.25 477.661 L 1850.91 482.809 C 1848.93 491.569 1851.94 514.464 1849.09 518.831 C 1832.93 518.487 1692.38 517.499 1688.04 519.647 L 1688.02 534.09 L 1325.5 533.073 C 1325.89 532.169 1326.31 531.278 1326.76 530.4 C 1338.87 506.182 1355.63 494.981 1380.21 486.689 C 1395.55 484.062 1403.49 483.906 1418.58 487.069 C 1426.86 472.637 1441.55 459.302 1456.54 452.263 C 1487.71 437.625 1514.01 439.898 1545.17 450.52 C 1544.8 432.878 1546.01 416.753 1551.52 399.756 C 1562.91 363.999 1588.32 334.393 1621.94 317.703 C 1658.04 299.604 1695.92 299.291 1733.53 311.9 C 1739.91 272.849 1744.69 260.87 1764.56 226.743 C 1765.9 225.443 1772.92 215.801 1774.46 213.746 z" fill="rgb(245,237,230)" transform="translate(0,0)"></path>
<path d="M 1807.45 441.846 L 2048 441.896 L 2048 477.037 C 2026.21 477.015 1855.2 475.907 1851.25 477.661 L 1850.91 482.809 L 1849.89 479.51 C 1845.63 476.918 1814.32 478.203 1807.52 478.244 C 1807.18 466.51 1807.44 453.664 1807.45 441.846 z" fill="rgb(124,60,57)" transform="translate(0,0)"></path>
<path d="M 1644.63 483.488 L 1782.26 483.343 C 1802.28 483.32 1831.44 484.169 1850.91 482.809 C 1848.93 491.569 1851.94 514.464 1849.09 518.831 C 1832.93 518.487 1692.38 517.499 1688.04 519.647 C 1683.51 520.924 1651.4 520.404 1644.72 520.355 C 1644.47 508.269 1644.64 495.62 1644.63 483.488 z" fill="rgb(124,60,57)" transform="translate(0,0)"></path>
<path d="M 1336.86 211.576 C 1382.28 83.2203 1568.09 106.886 1582.51 240.044 C 1584.83 242.123 1585.72 241.399 1589.57 241.409 C 1615.02 242.991 1634.51 260.224 1632.47 286.81 L 1303.43 286.936 L 1205.51 286.725 C 1180.29 286.587 1154.98 286.007 1129.76 287.069 C 1140.11 267.212 1155.41 260.386 1177.49 264.169 C 1179.79 257.645 1181.06 254.909 1184.32 248.775 C 1198.05 234.138 1211.26 231.159 1230.17 237.364 C 1230.43 234.326 1230.71 231.007 1231.18 228.007 C 1233.61 213.206 1241.89 200.006 1254.17 191.396 C 1284.11 170.635 1317.83 182.73 1336.86 211.576 z" fill="rgb(245,237,230)" transform="translate(0,0)"></path>
<path d="M 1532.86 736.705 C 1536.3 730.099 1538.88 725.341 1544.68 720.573 C 1551.85 714.598 1561.13 711.782 1570.41 712.769 C 1583.55 714.076 1590.79 721.008 1598.6 730.647 C 1615.86 712.646 1638.63 714.828 1651.58 736.265 C 1636.2 749.071 1595.9 774.607 1577.67 786.643 C 1499.44 838.514 1418.23 885.75 1334.46 928.111 C 1296.48 947.158 1251.97 968.138 1212.19 983.178 C 1208.03 977.596 1202.73 968.66 1204.8 961.297 C 1207.69 951.027 1218.58 949.517 1226.5 944.812 C 1227.28 941.282 1224.92 936.621 1223.9 933.018 C 1217.78 911.266 1233.35 903.615 1251.03 899.445 C 1249.97 895.958 1249.08 891.63 1249.14 887.954 C 1249.28 880.137 1252.56 872.706 1258.25 867.344 C 1272.51 854.157 1291.42 858.887 1303.74 872.079 C 1318.93 852.053 1341.99 852.651 1356.07 874.298 C 1367.61 861.718 1378.23 859.905 1394.44 864.699 C 1385.74 840.969 1386.84 825.229 1412.95 815.37 C 1405.66 799.786 1405.58 785.023 1421.14 773.742 C 1432.18 765.732 1443.05 766.477 1455.98 768.808 C 1454.96 763.292 1454.37 757.51 1455.23 751.945 C 1456.97 741.077 1463.01 731.366 1471.99 725.004 C 1492.73 710.183 1518.56 716.102 1532.86 736.705 z" fill="rgb(78,205,196)" transform="translate(0,0)"></path>
<path d="M 869.645 202.869 L 913.211 213.352 C 944.968 220.751 982.462 230.595 1013.87 236.733 C 1016.02 234.261 1017.27 232.19 1020.31 231.347 C 1021.79 233.3 1021.92 234.675 1022.5 237.039 C 1024.85 238.615 1025.04 238.945 1028.17 238.049 L 1032.54 235.493 C 1032.66 237.646 1032.07 238.137 1030.97 240.034 C 1032.41 241.894 1032.68 242.181 1034.43 243.75 C 1029.32 246.344 1029.42 241.795 1025.32 244.971 C 1024 255.579 1050.96 346.021 1054.57 364.088 C 1060.42 384.609 1065.21 408.141 1071.72 428.084 C 1079.19 450.981 1109.57 436.271 1124.79 445.587 C 1128.45 447.831 1132.12 452.15 1135.5 455.032 C 1141.7 467.081 1140.23 471.685 1143.7 484.121 C 1152.86 516.989 1194.92 484.624 1210.15 517.209 C 1217.43 532.777 1211.49 551.468 1230.06 557.614 C 1246.78 561.948 1259.03 554.499 1274.69 566.193 C 1297.11 582.925 1276.86 611.158 1307.86 618.324 L 1308.74 632.725 C 1280.38 627.36 1276.17 618.297 1272.98 590.604 C 1272.24 584.169 1263.49 575.131 1257 574.348 C 1237.89 572.041 1220.35 578.385 1207.12 559.662 C 1196.94 545.25 1205.8 521.025 1183.05 516.142 C 1164.34 513.193 1147.74 519.682 1134 500.365 C 1127.88 491.752 1129.18 478.569 1125.29 470.389 C 1115.48 436.775 1070.04 480.203 1055.52 425.081 C 1002.03 407.518 947.937 385.486 894.264 368.46 C 892.625 370.353 891.008 372.078 889.292 373.901 L 887.792 373.774 C 886.778 371.441 886.019 369.431 884.277 367.544 C 881.441 369.264 880.926 369.851 877.747 370.1 C 878.571 367.475 879.324 367.625 881.949 365.505 C 881.462 363.98 879.295 362.241 877.983 360.94 C 879.445 357.993 879.626 361.891 883.771 360.172 C 884.703 352.914 880.754 316.42 879.655 307.072 C 876.22 277.879 874.151 246.508 870.156 217.571 L 869.645 202.869 z" fill="rgb(43,30,46)" transform="translate(0,0)"></path>
<path d="M 954.158 312.593 C 955.558 313.022 1047.71 414.741 1053.72 422.724 L 1010.31 407.016 C 972.576 394.169 934.217 380.149 896.643 366.683 C 916.038 348.892 935.211 330.861 954.158 312.593 z" fill="rgb(139,92,246)" transform="translate(0,0)"></path>
<path d="M 1022.86 250.075 C 1032.12 288.305 1043.97 326.794 1053.11 365.14 C 1057 379.18 1061.99 396.718 1064.82 410.806 C 1032.1 375.764 999.168 337.344 966.909 301.44 C 985.05 283.773 1003.71 266.644 1022.86 250.075 z" fill="rgb(78,205,196)" transform="translate(0,0)"></path>
<path d="M 874.847 238.499 C 873.934 233.631 872.598 224.954 873.325 220.151 L 874.5 219.966 L 876.421 222.957 C 899.378 247.386 922.335 275.387 944.644 300.815 C 924.6 317.005 906.327 337.976 886.171 353.539 C 882.671 315.332 877.975 276.518 874.847 238.499 z" fill="rgb(139,92,246)" transform="translate(0,0)"></path>
<path d="M 885.792 208.887 L 911.97 214.977 C 942.867 222.152 980.079 229.993 1010.56 238.426 C 993.69 255.479 973.728 273.298 956.104 290.042 C 933.375 263.115 907.545 236.233 885.792 208.887 z" fill="rgb(139,92,246)" transform="translate(0,0)"></path>
<path d="M 512.841 905.117 L 512.803 822.4 C 512.791 800.134 511.405 771.805 516.588 750.851 C 521.323 731.556 531.16 713.889 545.068 699.701 C 582.571 661.601 620.595 665.026 669.006 664.818 L 669.064 697.309 C 665.931 697.607 659.289 697.41 655.862 697.395 L 655.898 677.945 C 630.852 677.69 608.098 676.081 584.689 687.218 C 547.394 704.962 525.678 740.641 526.791 781.828 C 527.742 817.068 525.271 853.723 527.017 888.915 C 527.281 902.553 527.682 916.174 527.764 929.792 L 527.916 932.98 C 527.141 936.166 527.376 937.988 527.58 941.219 L 527.717 957.345 C 527.499 962.205 527.432 967.071 527.517 971.936 L 527.691 979.365 C 527.373 985.848 527.173 994.778 527.35 1001.25 C 528.084 1012.43 531.335 1007.6 534.184 1014.67 C 527.378 1015.02 519.011 1016.07 512.657 1016.14 C 505.56 1016.85 506.219 1016.61 500.14 1011.66 C 498.727 1010.72 497.308 1009.79 495.884 1008.87 C 497.16 1004.8 497.751 1002.31 499.633 998.342 C 501.376 996.194 501.867 996.259 501.98 993.688 C 503.67 987.765 509.855 973.53 509.32 969.026 L 511.966 967.858 L 512.169 966.11 C 513.426 959.232 513.038 943.529 512.661 936.329 C 513.279 927.69 513.085 913.927 512.841 905.117 z" fill="rgb(124,60,57)" transform="translate(0,0)"></path>
<path d="M 509.32 969.026 L 511.966 967.858 C 512.245 970.125 512.5 972.396 512.731 974.668 C 512.949 984.186 513.141 988.482 511.661 997.796 L 512.205 1000.37 C 513.006 1003.89 512.684 1012.14 512.657 1016.14 C 505.56 1016.85 506.219 1016.61 500.14 1011.66 C 498.727 1010.72 497.308 1009.79 495.884 1008.87 C 497.16 1004.8 497.751 1002.31 499.633 998.342 C 501.376 996.194 501.867 996.259 501.98 993.688 C 503.67 987.765 509.855 973.53 509.32 969.026 z" fill="rgb(49,246,253)" transform="translate(0,0)"></path>
<path d="M 512.205 1000.37 C 513.006 1003.89 512.684 1012.14 512.657 1016.14 C 505.56 1016.85 506.219 1016.61 500.14 1011.66 C 504.429 1001.6 502.649 1002.22 512.205 1000.37 z" fill="rgb(255,209,102)" transform="translate(0,0)"></path>
<path d="M 511.661 997.796 C 511.149 997.593 506.853 996.142 506.889 995.356 C 507.199 988.46 511.305 981.791 512.731 974.668 C 512.949 984.186 513.141 988.482 511.661 997.796 z" fill="rgb(179,240,174)" transform="translate(0,0)"></path>
<path d="M 1110.26 917.987 C 1124.79 918.247 1139.32 918.177 1153.85 917.778 L 1155.38 936.309 C 1156.08 931.005 1155.64 921.591 1156.52 917.491 C 1157.56 931.065 1156.89 950.127 1156.97 964.235 C 1157.02 973.708 1157.33 994.191 1156.45 1003.21 C 1153.8 987.067 1157.71 965.1 1155.44 949.09 C 1154.43 967.59 1154.83 985.908 1154.09 1004.32 C 1135.51 1010.58 1117.09 1015.23 1098.35 1020.82 C 1097.91 992.244 1097.2 957.634 1098.14 929.286 C 1099.78 926.13 1099.17 923.462 1100.56 919.103 C 1103.82 917.216 1105.97 917.96 1110.26 917.987 z" fill="rgb(124,60,57)" transform="translate(0,0)"></path>
<path d="M 1134.8 935.509 C 1138.55 935.298 1142.07 935.063 1145.83 934.965 C 1145.97 955.464 1145.31 975.97 1145.47 996.388 C 1137.83 996.758 1130.88 996.808 1123.25 996.851 L 1109.89 996.986 C 1109.71 976.543 1109.7 956.098 1109.88 935.654 C 1118.18 935.723 1126.49 935.674 1134.8 935.509 z" fill="rgb(43,30,46)" transform="translate(0,0)"></path>
<path d="M 655.862 697.395 C 659.289 697.41 665.931 697.607 669.064 697.309 L 671.806 698.22 C 696.297 698.486 716.463 723.641 718.881 747.048 C 681.489 747.033 642.94 747.499 605.652 746.904 C 608.805 730.283 614.164 716.889 628.924 707.046 C 634.142 703.593 639.898 701.033 645.956 699.47 C 648.712 698.566 652.904 697.937 655.862 697.395 z" fill="rgb(43,30,46)" transform="translate(0,0)"></path>
<path d="M 1086.07 900.884 L 1168.96 900.888 L 1168.93 917.428 L 1156.52 917.491 C 1155.64 921.591 1156.08 931.005 1155.38 936.309 L 1153.85 917.778 C 1139.32 918.177 1124.79 918.247 1110.26 917.987 C 1105.97 917.96 1103.82 917.216 1100.56 919.103 C 1099.17 923.462 1099.78 926.13 1098.14 929.286 L 1097.85 917.444 C 1093.88 917.495 1090.04 917.605 1086.06 917.358 L 1086.07 900.884 z" fill="rgb(43,30,46)" transform="translate(0,0)"></path>
<path d="M 499.633 998.342 C 489.888 993.068 455.584 973.364 472.968 961.121 C 491.993 947.722 496.075 983.613 501.98 993.688 C 501.867 996.259 501.376 996.194 499.633 998.342 z" fill="rgb(78,205,196)" transform="translate(0,0)"></path>
<path d="M 509.32 969.026 C 500.792 963.551 473.053 946.429 481.07 935.992 C 500.019 911.327 509.22 957.871 512.169 966.11 L 511.966 967.858 L 509.32 969.026 z" fill="rgb(78,205,196)" transform="translate(0,0)"></path>
<path d="M 527.017 888.915 L 529.011 886.997 C 534.726 881.538 543.84 882.12 548.824 888.149 C 550.741 890.483 551.564 893.528 551.083 896.51 C 550.334 901.385 532.56 923.14 527.764 929.792 C 527.682 916.174 527.281 902.553 527.017 888.915 z" fill="rgb(78,205,196)" transform="translate(0,0)"></path>
<path d="M 527.916 932.98 L 530.989 931.04 C 537.708 926.707 549.763 915.313 557.992 917.079 C 566.658 918.94 570.775 932.981 561.006 937.105 C 551.185 941.251 538.038 940.916 527.58 941.219 C 527.376 937.988 527.141 936.166 527.916 932.98 z" fill="rgb(78,205,196)" transform="translate(0,0)"></path>
<path d="M 527.717 957.345 C 533.624 953.443 541.558 946.447 549.013 947.838 C 557.207 949.367 563.234 962.849 554.184 967.534 C 545.766 971.892 536.674 970.857 527.517 971.936 C 527.432 967.071 527.499 962.205 527.717 957.345 z" fill="rgb(78,205,196)" transform="translate(0,0)"></path>
<path d="M 527.691 979.365 C 535.245 975.287 545.229 973.344 550.078 984.015 C 556.168 997.417 537.665 1001 527.35 1001.25 C 527.173 994.778 527.373 985.848 527.691 979.365 z" fill="rgb(78,205,196)" transform="translate(0,0)"></path>
<path d="M 512.661 936.329 C 508.536 932.173 493.968 917.172 494.116 912.515 C 494.513 899.96 504.396 897.8 512.841 905.117 C 513.085 913.927 513.279 927.69 512.661 936.329 z" fill="rgb(78,205,196)" transform="translate(0,0)"></path>
<path d="M 455.854 992.846 C 473.51 981.975 475.96 991.957 485.961 1002.67 C 474.769 998.581 467.099 996.351 455.854 992.846 z" fill="rgb(78,205,196)" transform="translate(0,0)"></path>
<path d="M 1058.11 660.506 C 1068.27 655.195 1080.73 649.062 1090.36 643.206 C 1091.28 650.108 1092.3 656.995 1093.43 663.867 C 1095.37 674.153 1100.23 709.359 1103.22 716.933 L 1106.69 717.044 L 1107.44 718.186 C 1106.12 719.353 1105.18 720.19 1103.76 721.275 L 1103.65 723.513 C 1101.74 723.643 1099.84 723.816 1097.94 724.031 C 1094.32 724.462 1076.73 737.081 1072.3 739.827 C 1054.63 751.158 1032 762.062 1019.43 777.887 C 999.986 782.911 1005.05 781.75 1003.04 796.852 C 1001.73 806.67 980.673 801.34 980.913 814.721 C 980.977 818.266 981.595 821.188 980.265 824.308 C 975.789 829.128 967.096 830.417 960.612 831.893 C 961.908 852.05 957.858 852.963 939.172 856.016 C 939.069 863.164 938.607 875.974 930.746 879.125 C 927.214 878.642 928.736 879.3 925.972 877.168 C 925.911 874.942 925.549 874.787 927.611 872.817 C 935.084 865.68 931.931 861.104 934.773 853.469 C 937.058 848.266 947.457 849.509 950.022 848.172 C 964.495 840.63 941.262 827.555 968.552 824.222 C 987.235 821.939 962.846 799.684 990.212 799.304 C 1002.78 799.13 994.735 784.775 999.056 779.235 C 1004.15 772.237 1012.46 777.085 1017.53 770.227 C 1020.08 761.133 1020.98 694.015 1018.71 684.752 C 1016.37 682.818 1014.91 681.589 1015.39 678.587 C 1016.34 679.427 1016.96 679.919 1017.98 680.667 L 1019.6 676.875 C 1025.74 679.984 1050.72 664.464 1058.11 660.506 z" fill="rgb(43,30,46)" transform="translate(0,0)"></path>
<path d="M 1061.75 705.178 C 1073.11 711.22 1086.35 716.151 1096.56 721.784 C 1088.07 727.562 1079.48 733.204 1070.81 738.707 C 1057.28 746.821 1043.95 756.135 1030.03 763.401 C 1035.85 752.554 1042.52 741.612 1048.51 730.669 C 1052.13 724.062 1058.28 710.547 1061.75 705.178 z" fill="rgb(139,92,246)" transform="translate(0,0)"></path>
<path d="M 1021.01 686.586 C 1032.49 692.276 1042.46 696.503 1054.13 702.79 C 1048.48 714.451 1040.39 728.424 1034.1 740.007 C 1029.63 747.806 1025.69 755.149 1020.94 762.887 C 1021.15 736.955 1022.02 712.506 1021.01 686.586 z" fill="rgb(78,205,196)" transform="translate(0,0)"></path>
<path d="M 1064.41 698.203 C 1068.2 693.306 1087.14 654.884 1089.04 654.819 C 1090.15 655.632 1090.59 660.447 1090.87 662.002 C 1091.46 664.722 1091.94 667.462 1092.53 670.181 C 1093.15 672.932 1093.67 675.704 1094.09 678.493 C 1095.96 690.602 1098.42 703.374 1100.54 715.504 C 1090.39 710.051 1075.13 702.025 1064.41 698.203 z" fill="rgb(139,92,246)" transform="translate(0,0)"></path>
<path d="M 1058.99 661.982 C 1065.25 659.109 1075.81 653.201 1082.18 649.816 C 1075.1 664.429 1066.42 681.317 1058.78 695.677 C 1048.23 690.278 1034.85 684.633 1025.18 679.379 C 1037 674.145 1048.18 666.937 1058.99 661.982 z" fill="rgb(78,205,196)" transform="translate(0,0)"></path>
<metadata><recraft-signature>{"signed_by": "recraft", "signature_b64": "245sMJjHVEF9yYUqPCbh6SwQlafCj7Nh1+agIN1MBBQEb4ULY/DlDxIQl/8HTU5rmu454Nb1+73/fnAuGoikDg==", "signing_algo": "Ed25519", "generation_timestamp": 1783344378, "identifier": "41036d8c-0f3d-4da5-8065-0a32ef27e6d2"}</recraft-signature></metadata></svg>