<svg xmlns="http://www.w3.org/2000/svg" height="896" preserveAspectRatio="none" style="display: block;" version="1.1" viewBox="0 0 2048 1509" width="1216">
<defs>
	<linearGradient gradientUnits="userSpaceOnUse" id="Gradient1" x1="419.255" x2="529.954" y1="623.1" y2="621.189">
		<stop class="stop0" offset="0" stop-color="rgb(103,43,107)" stop-opacity="1"></stop>
		<stop class="stop1" offset="1" stop-color="rgb(97,70,110)" stop-opacity="1"></stop>
	</linearGradient>
	<linearGradient gradientUnits="userSpaceOnUse" id="Gradient2" x1="1749.95" x2="1777.45" y1="-7.89014" y2="957.389">
		<stop class="stop0" offset="0" stop-color="rgb(253,44,31)" stop-opacity="1"></stop>
		<stop class="stop1" offset="1" stop-color="rgb(255,245,61)" stop-opacity="1"></stop>
	</linearGradient>
</defs>
<path d="M 0 0 L 1390.92 0 L 1472.93 0 L 2048 0 L 2048 107.274 L 2048 109.777 L 2048 298.801 L 2048 300.789 L 2048 473.669 L 2048 586.206 L 2048 587.791 L 2048 793.057 L 2048 795.206 L 2048 958.981 L 2048 1046.38 L 2048 1062.86 L 2048 1161.94 L 2048 1261.21 L 2048 1263.25 L 2048 1312.17 L 2048 1371.83 L 2048 1509 L 2031.59 1509 L 2006.93 1509 L 1981.15 1509 L 1955.93 1509 L 1932.24 1509 L 1907.55 1509 L 1880.8 1509 L 1856.8 1509 L 1831.1 1509 L 1807.21 1509 L 1789.14 1509 L 1604.1 1509 L 1148.4 1509 L 930.786 1509 L 571.71 1509 L 568.69 1509 L 532.589 1509 L 530.255 1509 L 370.261 1509 L 367.962 1509 L 247.451 1509 L 244.589 1509 L 210.345 1509 L 207.435 1509 L 74.0961 1509 L 72.0077 1509 L 0 1509 L 0 1264.9 L 0 1214.62 L 0 1046.96 L 0 959.084 L 0 667.167 L 0 572.503 L 0 570.978 L 0 387.256 L 0 292.619 L 0 190.126 L 0 188.867 L 0 132.726 L 0 130.991 L 0 0 z" fill="rgb(43,30,46)" transform="translate(0,0)"></path>
<path d="M 1472.93 0 L 2048 0 L 2048 107.274 L 2048 109.777 L 2048 298.801 L 2048 300.789 L 2048 473.669 L 2048 586.206 L 1944.62 585.663 C 1929.22 585.593 1907.79 584.257 1893.02 586.673 C 1871.47 590.2 1869.95 612.966 1870.04 629.116 C 1870.36 683.973 1870.11 738.628 1870.15 793.371 C 1856.91 793.266 1791.15 792.425 1781.65 794.693 C 1775.85 796.114 1770.57 799.129 1766.41 803.397 C 1762.79 807.035 1758.27 813.918 1757.8 818.815 C 1756.37 833.631 1757.03 851.099 1757.09 866.056 L 1757.16 958.868 L 1626.56 959.013 C 1628.48 947.81 1627.87 903.582 1627.58 888.972 C 1627.05 861.946 1628.97 826.452 1627.33 800.166 C 1626.86 791.911 1625.58 783.722 1623.5 775.718 C 1614.86 743.201 1596.09 721.236 1567.51 704.682 C 1534.61 687.19 1509.25 690.745 1472.99 691.054 C 1472.31 675.957 1472.88 656.972 1472.87 641.46 L 1472.83 545.134 L 1472.26 543.56 C 1478.16 542.37 1498.88 542.725 1505.77 542.72 L 1567.84 542.669 L 1819.41 542.738 C 1809.05 527.164 1800.65 520.472 1785.03 511.195 L 1786.75 510.046 C 1779.82 506.534 1774.77 504.793 1767.21 503.34 C 1765.15 493.459 1760.74 482.906 1755.69 474.207 C 1742.1 450.642 1719.61 433.526 1693.28 426.708 C 1665.64 419.611 1638.81 424.056 1614.5 438.59 C 1597.83 387.05 1541.36 346.784 1487.26 345.931 C 1482.65 346.298 1477.31 346.939 1472.94 345.593 L 1472.93 0 z" fill="url(#Gradient2)" transform="translate(0,0)"></path>
<path d="M 1930.09 192.909 C 1935.03 182.477 1941.3 172.724 1948.74 163.891 C 1973.96 133.599 2008.34 113.487 2048 109.777 L 2048 298.801 L 1730.62 298.383 C 1731.29 297.205 1732.01 296.053 1732.76 294.928 C 1746.4 274.559 1762.71 263.401 1786.66 258.743 C 1787.87 254.107 1789.25 249.06 1791 244.627 C 1800.77 220.104 1819.96 200.52 1844.28 190.259 C 1874.25 177.558 1901.05 181.138 1930.09 192.909 z" fill="rgb(245,237,230)" transform="translate(0,0)"></path>
<path d="M 2020.04 112.636 C 2029.42 111.18 2037.66 108.739 2048 107.274 L 2048 109.777 C 2008.34 113.487 1973.96 133.599 1948.74 163.891 C 1941.3 172.724 1935.03 182.477 1930.09 192.909 C 1901.05 181.138 1874.25 177.558 1844.28 190.259 C 1819.96 200.52 1800.77 220.104 1791 244.627 C 1789.25 249.06 1787.87 254.107 1786.66 258.743 C 1762.71 263.401 1746.4 274.559 1732.76 294.928 C 1732.01 296.053 1731.29 297.205 1730.62 298.383 L 2048 298.801 L 2048 300.789 L 1726.29 300.867 C 1738.64 281.532 1749.33 269.466 1771.43 260.206 C 1775.48 258.512 1778.58 258.577 1783.44 256.604 C 1786.13 253.613 1788.07 246.202 1789.45 242.008 C 1798.72 216.328 1825.81 193.761 1851.29 185.375 C 1876.81 176.775 1904.71 178.82 1928.7 191.047 C 1948.26 152.279 1979.66 127.255 2020.04 112.636 z" fill="rgb(145,45,28)" transform="translate(0,0)"></path>
<path d="M 1786.75 510.046 C 1790.41 512.092 1793.85 513.942 1797.33 516.304 C 1808.19 524.786 1816.56 532.547 1822.83 545.111 L 1472.83 545.134 L 1472.26 543.56 C 1478.16 542.37 1498.88 542.725 1505.77 542.72 L 1567.84 542.669 L 1819.41 542.738 C 1809.05 527.164 1800.65 520.472 1785.03 511.195 L 1786.75 510.046 z" fill="rgb(128,73,33)" transform="translate(0,0)"></path>
<path d="M 1928.12 187.609 C 1938.24 168.963 1948.66 154.997 1964.83 140.972 C 1975.78 131.483 2006.55 111.486 2020.04 112.636 C 1979.66 127.255 1948.26 152.279 1928.7 191.047 C 1904.71 178.82 1876.81 176.775 1851.29 185.375 C 1825.81 193.761 1798.72 216.328 1789.45 242.008 C 1789.35 240.469 1789.26 238.247 1789.96 236.79 C 1811.14 192.388 1860.67 170.27 1908.23 181.402 C 1914.62 182.896 1921.7 185.458 1928.12 187.609 z" fill="rgb(255,90,31)" transform="translate(0,0)"></path>
<path d="M 1472.94 345.593 C 1478.4 344.624 1481.8 344.908 1487.26 345.931 C 1482.65 346.298 1477.31 346.939 1472.94 345.593 z" fill="rgb(128,73,33)" transform="translate(0,0)"></path>
<path d="M 1892.97 155.793 C 1898.52 157.048 1899.95 156.397 1904.14 161.286 C 1908.83 166.748 1905.45 166.122 1906.91 172.019 C 1907.02 172.456 1908.81 174.043 1906.88 174.821 C 1903.9 176.022 1907.15 177.22 1907.03 178.642 C 1901.07 181.845 1902.19 174.593 1897.99 174.49 C 1894.91 174.497 1890.75 174.249 1887.78 174.73 C 1887.35 175.137 1886.56 176.949 1885.87 177.093 C 1873.02 179.775 1876.24 171.026 1879.14 163.075 C 1880.85 158.37 1881.4 159.978 1885.28 157.748 C 1888.71 155.781 1888.61 156.802 1892.23 155.97 L 1892.97 155.793 z" fill="rgb(255,90,31)" transform="translate(0,0)"></path>
<path d="M 1386.17 693.051 L 1472.03 693.032 C 1508.65 692.924 1532.84 689.17 1566.04 706.17 C 1639.86 750.223 1623.75 811.008 1625.04 883.727 C 1625.47 907.785 1626 935.022 1624.51 958.811 C 1615.49 996.281 1595.88 1026.62 1559.92 1043.49 C 1547.31 1048.6 1539.83 1051.13 1526.48 1054.65 C 1515.21 1055.18 1504.04 1054.98 1492.76 1055.02 C 1446.79 1055.2 1400.73 1054.53 1354.77 1055.11 C 1291.43 1121.77 1228.64 1188.95 1166.38 1256.62 C 1088.24 1340.01 1007.58 1424.47 930.786 1509 L 571.71 1509 C 576.621 1503.54 581.587 1498.13 586.607 1492.78 L 1056.18 985.236 L 1213.78 814.971 C 1238.51 788.302 1263.42 761.421 1288.16 734.77 C 1318.13 702.48 1342.85 692.94 1386.17 693.051 z" fill="rgb(255,209,102)" transform="translate(0,0)"></path>
<path d="M 1175.34 692.864 C 1200.07 693.124 1218.56 699.603 1236.56 717.572 C 1240.2 721.211 1248.02 729.978 1249.13 734.997 L 1247.97 737.024 L 1245.78 739.256 L 1245.97 741.947 C 1169.24 826.377 1089.39 910.875 1011.38 994.247 L 788.597 1233.67 L 624.997 1409.78 L 562.101 1477.25 C 553.546 1486.39 541.238 1500.6 532.589 1509 L 530.255 1509 L 370.261 1509 L 367.962 1509 L 247.451 1509 L 259.771 1495.97 L 821.563 896.662 C 873.046 841.939 924.496 786.825 975.947 732.063 C 1016.46 688.944 1042 694.114 1095.52 692.929 C 1110.64 694.346 1158.77 693.564 1175.34 692.864 z" fill="rgb(43,30,46)" transform="translate(0,0)"></path>
<path d="M 1175.34 692.864 C 1200.07 693.124 1218.56 699.603 1236.56 717.572 C 1240.2 721.211 1248.02 729.978 1249.13 734.997 L 1247.97 737.024 L 1245.78 739.256 L 1160.22 831.106 L 921.858 830.992 L 921.91 941.852 L 815.858 941.864 L 815.855 1056.84 C 807.568 1055.86 792.851 1056.18 784.051 1056.14 C 766.694 1055.99 749.336 1055.98 731.979 1056.11 C 722.274 1055.58 709.3 1055.88 699.334 1055.8 C 697.921 1074.05 699.116 1103.6 698.914 1122.68 C 698.771 1136.2 698.082 1166.04 699.232 1177.87 C 661.645 1177.93 623.355 1177.61 585.827 1178.13 C 585.836 1219.25 586.54 1264.42 585.191 1305.35 C 548.959 1304.94 512.724 1304.86 476.49 1305.12 C 476.174 1343.1 476.176 1381.09 476.494 1419.07 L 368.042 1419.49 L 367.962 1509 L 247.451 1509 L 259.771 1495.97 L 821.563 896.662 C 873.046 841.939 924.496 786.825 975.947 732.063 C 1016.46 688.944 1042 694.114 1095.52 692.929 C 1110.64 694.346 1158.77 693.564 1175.34 692.864 z" fill="rgb(255,90,31)" transform="translate(0,0)"></path>
<path d="M 588.025 1180.59 L 761.156 1180.57 C 783.728 1180.52 813.509 1181.58 835.288 1180.37 C 796.89 1222.22 758.224 1263.83 719.292 1305.19 L 717.608 1306.02 L 716.714 1308.33 L 715.859 1307.96 C 709.832 1305.53 601.747 1306.82 586.817 1306.84 C 587.1 1294.38 585.762 1256.41 587.804 1246.44 C 588.128 1224.49 588.202 1202.54 588.025 1180.59 z" fill="rgb(245,237,230)" transform="translate(0,0)"></path>
<path d="M 586.817 1306.84 C 587.1 1294.38 585.762 1256.41 587.804 1246.44 L 587.757 1305.48 C 593.784 1306.44 626.563 1306.19 634.21 1306.05 C 661.462 1305.57 690.574 1306.78 717.608 1306.02 L 716.714 1308.33 L 715.859 1307.96 C 709.832 1305.53 601.747 1306.82 586.817 1306.84 z" fill="rgb(93,79,80)" transform="translate(0,0)"></path>
<path d="M 587.757 1305.48 C 598.731 1304.48 612.736 1304.69 623.876 1304.92 C 655.457 1305.57 687.786 1304.22 719.292 1305.19 L 717.608 1306.02 C 690.574 1306.78 661.462 1305.57 634.21 1306.05 C 626.563 1306.19 593.784 1306.44 587.757 1305.48 z" fill="rgb(148,146,147)" transform="translate(0,0)"></path>
<path d="M 586.817 1306.84 C 601.747 1306.82 709.832 1305.53 715.859 1307.96 L 716.714 1308.33 L 613.086 1419.64 L 610.799 1422.12 C 606.968 1420.29 492.725 1421.1 479.147 1421.11 L 479.272 1419.52 C 478.139 1412.06 478.38 1389.47 478.38 1381.11 L 478.589 1307.34 C 511.37 1306.72 546.041 1307.25 578.957 1307.21 L 586.817 1306.84 z" fill="rgb(245,237,230)" transform="translate(0,0)"></path>
<path d="M 479.272 1419.52 C 493.648 1417.9 532.414 1419.32 548.686 1419.03 C 559.931 1418.84 603.616 1418.4 613.086 1419.64 L 610.799 1422.12 C 606.968 1420.29 492.725 1421.1 479.147 1421.11 L 479.272 1419.52 z" fill="rgb(93,79,80)" transform="translate(0,0)"></path>
<path d="M 586.817 1306.84 C 601.747 1306.82 709.832 1305.53 715.859 1307.96 C 686.66 1307.69 657.46 1307.61 628.26 1307.73 C 613.013 1307.73 593.629 1308.33 578.957 1307.21 L 586.817 1306.84 z" fill="rgb(148,146,147)" transform="translate(0,0)"></path>
<path d="M 479.147 1421.11 C 492.725 1421.1 606.968 1420.29 610.799 1422.12 L 560.774 1475.45 C 552.465 1484.3 537.628 1499.59 530.255 1509 L 370.261 1509 L 370.113 1421.21 L 479.147 1421.11 z" fill="rgb(245,237,230)" transform="translate(0,0)"></path>
<path d="M 699.334 1055.8 C 701.198 1072.75 699.417 1105.46 699.812 1124.1 C 700.023 1134.07 700.24 1169.79 699.232 1177.87 C 698.082 1166.04 698.771 1136.2 698.914 1122.68 C 699.116 1103.6 697.921 1074.05 699.334 1055.8 z" fill="rgb(145,45,28)" transform="translate(0,0)"></path>
<path d="M 731.979 1056.11 C 749.336 1055.98 766.694 1055.99 784.051 1056.14 C 792.851 1056.18 807.568 1055.86 815.855 1056.84 C 808.373 1058.31 742.041 1057.08 731.979 1056.11 z" fill="rgb(145,45,28)" transform="translate(0,0)"></path>
<path d="M 817.955 1057.23 C 825.714 1055.44 853.685 1055.97 863.454 1055.96 L 950.99 1055.93 L 947.876 1059.3 C 910.768 1098.06 874.484 1139.34 837.088 1178.42 C 792.885 1179.18 745.589 1178.19 701.099 1178.14 L 701.339 1058.15 L 746.909 1058.22 C 757.506 1057.22 812.366 1058.98 817.955 1057.23 z" fill="rgb(245,237,230)" transform="translate(0,0)"></path>
<path d="M 817.955 1057.23 C 825.714 1055.44 853.685 1055.97 863.454 1055.96 L 950.99 1055.93 L 947.876 1059.3 C 935.77 1058.12 909.877 1058.83 897.072 1058.82 L 802.435 1058.78 C 785.291 1058.77 763.692 1059.33 746.909 1058.22 C 757.506 1057.22 812.366 1058.98 817.955 1057.23 z" fill="rgb(134,102,99)" transform="translate(0,0)"></path>
<path d="M 817.968 944.014 L 1055.15 943.953 C 1051.46 948.522 1047.71 952.76 1043.65 957.004 C 1012.45 989.664 982.279 1023.38 950.99 1055.93 L 863.454 1055.96 C 853.685 1055.97 825.714 1055.44 817.955 1057.23 C 818.185 1019.49 818.19 981.753 817.968 944.014 z" fill="rgb(245,237,230)" transform="translate(0,0)"></path>
<path d="M 924.102 833.149 L 1158.16 833.257 C 1143.02 851.796 1122.69 871.675 1106.26 890.009 C 1089.91 907.15 1073.7 924.418 1057.63 941.813 C 1013.72 942.517 968.217 941.898 924.182 941.884 L 924.102 833.149 z" fill="rgb(245,237,230)" transform="translate(0,0)"></path>
<path d="M 0 0 L 1390.92 0 L 1390.93 136.095 C 1390.92 142.964 1391.4 184.564 1390.53 189.202 C 1319.27 187.351 1239.3 188.98 1167.45 189.234 C 1146.28 188.539 1117.15 188.527 1096.02 189.174 C 1020.59 188.482 937.184 187.901 861.946 189.338 C 858.934 189.378 850.037 189.168 847.846 190.221 C 840.802 191.485 811.379 190.914 802.781 190.888 C 800.824 183.12 801.281 174.111 798.291 165.964 C 782.521 122.98 720.957 114.447 690.618 146.678 C 688.473 145.966 684.588 142.418 682.713 140.849 C 658.001 120.171 623.877 123.413 599.817 142.409 C 574.748 121.552 535.37 121.553 511.399 144.306 C 483.197 122.313 454.257 122.62 423.939 140.3 C 398.444 120.544 371.406 123.889 345.089 139.117 C 328.254 128.573 310.326 124.594 290.703 129.233 C 281.943 131.31 273.749 135.291 266.703 140.894 C 265.382 141.935 262.756 144.511 261.623 144.159 C 256.217 135.978 238.082 129.423 228.791 127.877 C 209.15 124.609 191.77 129.566 175.804 140.984 C 144.957 121.144 109.39 120.715 83.8167 150.908 C 81.6136 153.509 80.2723 157.314 77.3569 156.741 C 75.7889 149.062 61.981 138.128 54.9303 134.739 C 36.0053 125.641 19.8561 124.616 0 130.991 L 0 0 z" fill="rgb(100,51,106)" transform="translate(0,0)"></path>
<path d="M 0 1046.96 L 643.657 1046.89 C 592.408 1103.16 537.118 1157.64 485.928 1213.78 C 388.457 1214.63 290.982 1214.9 193.509 1214.61 C 129.007 1215.11 64.5019 1215.11 0 1214.62 L 0 1046.96 z" fill="rgb(245,237,230)" transform="translate(0,0)"></path>
<path d="M 619.044 190.94 C 647.218 190.013 679.429 190.864 707.902 190.957 L 802.781 190.888 C 811.379 190.914 840.802 191.485 847.846 190.221 L 847.695 432.462 C 847.705 465.401 847.128 499.109 847.492 531.908 C 833.075 538.196 826.838 542.544 821.317 557.705 C 754.621 557.345 685.788 556.299 619.281 557.351 C 619.257 544.228 619.696 527.751 619.029 514.9 C 619.872 508.081 619.342 489.398 619.318 481.584 L 619.169 414.872 L 619.044 190.94 z" fill="rgb(78,205,196)" transform="translate(0,0)"></path>
<path d="M 618.917 586.291 C 619.071 582.531 618.538 580.073 620.276 577.23 C 633.662 575.63 673.505 576.742 689.302 576.759 L 821.334 576.927 C 824.764 586.826 829.681 593.953 839.354 598.704 C 841.861 599.961 844.449 601.05 847.101 601.964 C 847.728 678.377 847.902 754.792 847.624 831.207 C 811.064 868.283 775.802 907.348 739.852 945.059 C 736.552 948.521 732.728 952.659 729.743 956.325 C 726.215 960.604 699.595 959.014 692.838 959.008 L 619.011 958.895 L 618.894 873.701 C 619.772 865.276 619.17 843.247 619.165 833.806 L 619.115 754.276 L 619.21 646.081 C 619.239 627.996 619.923 603.805 618.917 586.291 z" fill="rgb(78,205,196)" transform="translate(0,0)"></path>
<path d="M 20.2726 190.507 L 98.9652 190.74 L 100.033 191.171 C 100.498 273.439 100.492 355.709 100.014 437.977 C 77.2166 438.012 47.0751 439.309 25.1487 438.245 L 24.8443 439.479 L 26.5516 440.149 L 25.7345 441.374 C 23.9479 448.022 24.4771 519.798 24.4954 532.51 C 46.0813 532.538 79.2778 533.639 99.9299 532.42 L 100.413 951.822 L 100.572 956.139 L 99.5633 958.343 C 91.1673 960.23 31.8302 959.476 19.9166 958.878 C 20.5507 936.384 20.0442 911.648 20.0544 888.972 L 20.0577 755.436 C 20.0553 743.436 21.6478 677.067 19.1605 668.455 C 17.2612 671.592 17.259 930.672 18.1221 959.311 C 12.575 959.008 5.66086 959.138 0 959.084 L 0 667.167 L 0 572.503 L 0 570.978 L 0 387.256 L 13.9999 387.298 C 23.4972 387.287 35.1658 387 44.453 387.618 L 40.7852 388.337 C 43.2834 389.5 41.9383 389.097 45.2564 388.712 C 45.6504 388.151 46.0444 387.589 46.4384 387.028 C 46.1894 360.249 46.1261 315.594 45.9207 290.733 C 37.5375 290.451 28.6004 290.774 20.1739 290.925 L 20.2726 190.507 z" fill="rgb(100,51,106)" transform="translate(0,0)"></path>
<path d="M -7.10543e-15 572.503 C 18.068 572.144 36.1401 572.042 54.2109 572.197 L 54.1993 601.842 C 53.9523 623.833 53.8936 645.826 54.0233 667.818 C 46.3596 666.387 9.47312 667.125 0 667.167 L 0 572.503 z" fill="rgb(255,209,102)" transform="translate(0,0)"></path>
<path d="M 14.0018 388.134 C 16.7734 388.174 19.2703 387.647 20.9203 389.141 C 22.0178 446.156 21.6901 513.149 20.3843 570.138 C 31.7071 570.123 44.8682 569.8 56.0412 570.298 C 56.0172 576.606 56.2817 608.94 55.4622 613.134 C 54.6927 608.917 54.4894 606.05 54.1993 601.842 L 54.2109 572.197 C 36.1401 572.042 18.068 572.144 -7.10543e-15 572.503 L 0 570.978 C 6.21526 570.358 12.4646 570.261 18.7088 570.076 L 18.7841 388.87 L 5.37201 388.591 L 14.0018 388.134 z" fill="rgb(43,30,46)" transform="translate(0,0)"></path>
<path d="M 73.9096 1265.02 C 178.306 1263.39 283.171 1265.33 387.606 1264.52 C 404.127 1264.39 421.124 1264.5 437.633 1264.88 L 307.78 1403.12 C 277.493 1435.54 238.783 1478.68 207.435 1509 L 74.0961 1509 L 74.0692 1500.91 L 73.9096 1265.02 z" fill="rgb(245,237,230)" transform="translate(0,0)"></path>
<path d="M 103.111 190.87 L 183.026 190.51 C 184.557 257.417 183.782 327.452 183.812 394.471 L 183.87 742.538 L 183.753 888.297 C 183.729 903.637 182.644 945.383 184.02 958.618 C 175.411 960.253 112.392 959.506 101.946 958.514 L 102.37 952.222 L 102.314 532.111 C 106.486 532.438 111.714 532.43 115.956 532.215 C 135.604 531.218 155.372 532.134 174.967 531.816 L 175.047 530.906 L 174.869 473.159 C 174.856 463.456 174.507 449.172 175.377 439.837 L 176.211 439.636 L 175.908 438.531 C 170.524 437.587 157.224 437.943 151.079 437.944 L 102.254 437.97 C 101.123 357.176 102.315 272.458 102.366 191.358 L 103.111 190.87 z" fill="rgb(100,51,106)" transform="translate(0,0)"></path>
<path d="M 1872.36 793.571 C 1891.32 792.465 1916.62 793.082 1936.04 793.074 L 2048 793.057 L 2048 795.206 L 2048 958.981 L 1759.06 958.884 C 1759.27 916.702 1759.25 874.519 1759.02 832.337 C 1759.02 791.35 1788.74 794.818 1819.49 795.078 C 1836.43 795.221 1853.58 795.211 1870.54 795.54 L 1872.36 793.571 z" fill="rgb(78,205,196)" transform="translate(0,0)"></path>
<path d="M 1872.36 793.571 C 1891.32 792.465 1916.62 793.082 1936.04 793.074 L 2048 793.057 L 2048 795.206 L 1870.54 795.54 L 1872.36 793.571 z" fill="rgb(21,78,90)" transform="translate(0,0)"></path>
<path d="M 1472.86 347.218 C 1540.11 348.579 1588.12 377.889 1614.23 441.548 C 1623.35 434.594 1633.49 430.308 1644.66 427.795 C 1670.99 421.914 1698.58 426.697 1721.39 441.099 C 1744.98 456.137 1759.33 477.79 1765.25 504.928 C 1773.62 506.176 1777.34 507.81 1785.03 511.195 C 1800.65 520.472 1809.05 527.164 1819.41 542.738 L 1567.84 542.669 L 1505.77 542.72 C 1498.88 542.725 1478.16 542.37 1472.26 543.56 C 1473.59 536.296 1472.84 494.359 1472.83 483.902 L 1472.86 347.218 z" fill="rgb(245,237,230)" transform="translate(0,0)"></path>
<path d="M 1872.36 793.571 C 1872.17 790.765 1872.13 787.695 1872.12 784.873 C 1871.97 731.924 1872.44 678.951 1871.89 626.004 C 1871.8 617.967 1872.01 609.579 1875.67 602.277 C 1878.99 595.662 1886.53 589.169 1893.94 588.322 C 1910.66 586.411 1928.32 587.073 1945.17 587.129 L 2048 587.791 L 2048 793.057 L 1936.04 793.074 C 1916.62 793.082 1891.32 792.465 1872.36 793.571 z" fill="rgb(78,205,196)" transform="translate(0,0)"></path>
<path d="M 1148.22 1445.96 C 1166.04 1445.19 1186.78 1445.69 1204.76 1445.7 L 1301.87 1445.67 L 1604.19 1445.26 L 1604.25 1463.57 L 1604.23 1482.63 L 1604.22 1502.12 L 1604.1 1509 L 1148.4 1509 C 1148.01 1500.43 1148.13 1492.2 1148.21 1483.62 L 1148.13 1462.98 L 1148.22 1445.96 z" fill="rgb(255,90,31)" transform="translate(0,0)"></path>
<path d="M 1148.59 1483.73 C 1157 1481.26 1229.32 1482.42 1241.98 1482.34 L 1604.23 1482.63 L 1604.22 1502.12 L 1148.67 1502.05 L 1148.59 1483.73 z" fill="rgb(255,209,102)" transform="translate(0,0)"></path>
<path d="M 1148.22 1445.96 C 1166.04 1445.19 1186.78 1445.69 1204.76 1445.7 L 1301.87 1445.67 L 1604.19 1445.26 L 1604.25 1463.57 C 1573.09 1462.64 1536.3 1463.93 1504.47 1463.96 L 1271.24 1463.92 C 1231.68 1463.79 1187.34 1464.36 1148.13 1462.98 L 1148.22 1445.96 z" fill="rgb(255,209,102)" transform="translate(0,0)"></path>
<path d="M 1341.46 692.892 L 1348.48 693.143 L 1348.79 693.754 C 1346.28 694.664 1344.08 695.435 1341.52 696.202 C 1305.25 709.558 1291.49 728.249 1266.21 755.514 L 1217.03 808.602 L 1067.46 970.051 L 753.633 1308.73 C 697.174 1369.67 642.109 1431.63 584.73 1491.84 L 568.69 1509 L 532.589 1509 C 541.238 1500.6 553.546 1486.39 562.101 1477.25 L 624.997 1409.78 L 788.597 1233.67 L 1011.38 994.247 C 1089.39 910.875 1169.24 826.377 1245.97 741.947 L 1245.78 739.256 L 1247.97 737.024 L 1249.78 737.936 C 1262.03 723.636 1277.08 712.001 1294 703.751 C 1308.34 697.449 1325.83 693.186 1341.46 692.892 z" fill="rgb(255,90,31)" transform="translate(0,0)"></path>
<path d="M 1245.78 739.256 L 1247.97 737.024 L 1249.78 737.936 C 1248.34 739.701 1247.68 740.375 1245.97 741.947 L 1245.78 739.256 z" fill="rgb(145,45,28)" transform="translate(0,0)"></path>
<path d="M 1018.52 693.927 C 1025.95 693.331 1030.34 693.033 1037.82 693.332 C 1032.86 694.406 1027.02 695.522 1022.23 696.938 C 1009.8 702.344 997.088 708.869 987.301 718.349 C 962.388 742.477 938.88 769.212 914.964 794.436 L 754.319 965.251 L 257.827 1494.96 C 253.453 1499.6 249.018 1504.44 244.589 1509 L 210.345 1509 C 222.428 1497.34 235.759 1482.42 247.377 1470.03 L 307.045 1406.54 L 497.397 1203.83 L 635.651 1058.37 C 664.412 1028.51 703.95 988.565 730.318 957.354 C 746.504 942.27 773.11 912.011 789.248 894.921 C 825.217 856.613 861.586 818.681 898.349 781.134 C 926.428 752.075 948.089 721.588 984.073 703.309 C 997.888 697.783 1003.93 696.29 1018.52 693.927 z" fill="rgb(255,90,31)" transform="translate(0,0)"></path>
<path d="M 586.104 190.486 C 596.492 190.45 607.364 190.251 617.694 190.809 L 619.044 190.94 L 619.169 414.872 L 619.318 481.584 C 619.342 489.398 619.872 508.081 619.029 514.9 C 617.544 526.98 616.12 575.043 618.917 586.291 C 619.923 603.805 619.239 627.996 619.21 646.081 L 619.115 754.276 L 619.165 833.806 C 619.17 843.247 619.772 865.276 618.894 873.701 C 617.756 882.432 618.009 901.633 618.05 911.001 C 618.117 926.176 617.308 943.774 617.926 958.753 C 610.916 958.774 591.871 959.239 585.839 958.374 L 586.104 190.486 z" fill="rgb(100,51,106)" transform="translate(0,0)"></path>
<path d="M 1907.05 1371.41 C 1914.29 1371.43 1924.95 1371.17 1931.93 1371.63 L 1955.88 1371.71 L 1981.13 1371.77 L 2006.47 1371.8 L 2031.75 1371.83 L 2048 1371.83 L 2048 1509 L 2031.59 1509 L 2006.93 1509 L 1981.15 1509 L 1955.93 1509 L 1932.24 1509 L 1907.55 1509 C 1908.05 1494.44 1907.36 1475.46 1907.27 1460.55 L 1907.05 1371.41 z" fill="rgb(255,90,31)" transform="translate(0,0)"></path>
<path d="M 2031.75 1371.83 L 2048 1371.83 L 2048 1509 L 2031.59 1509 L 2006.93 1509 L 2006.47 1371.8 L 2031.75 1371.83 z" fill="rgb(255,90,31)" transform="translate(0,0)"></path>
<path d="M 2031.75 1371.83 L 2048 1371.83 L 2048 1509 L 2031.59 1509 C 2031.91 1463.28 2031.97 1417.55 2031.75 1371.83 z" fill="rgb(78,205,196)" transform="translate(0,0)"></path>
<path d="M 1981.13 1371.77 L 2006.47 1371.8 L 2006.93 1509 L 1981.15 1509 L 1981.13 1371.77 z" fill="rgb(78,205,196)" transform="translate(0,0)"></path>
<path d="M 1955.88 1371.71 L 1981.13 1371.77 L 1981.15 1509 L 1955.93 1509 L 1955.88 1371.71 z" fill="rgb(255,90,31)" transform="translate(0,0)"></path>
<path d="M 1931.93 1371.63 L 1955.88 1371.71 L 1955.93 1509 L 1932.24 1509 L 1931.93 1371.63 z" fill="rgb(78,205,196)" transform="translate(0,0)"></path>
<path d="M 1148.8 1405.98 L 1604.33 1406.04 L 1604.26 1424.85 L 1604.19 1445.26 L 1301.87 1445.67 L 1204.76 1445.7 C 1186.78 1445.69 1166.04 1445.19 1148.22 1445.96 L 1148.72 1424.91 L 1148.8 1405.98 z" fill="rgb(255,90,31)" transform="translate(0,0)"></path>
<path d="M 1148.8 1405.98 L 1604.33 1406.04 L 1604.26 1424.85 L 1148.72 1424.91 L 1148.8 1405.98 z" fill="rgb(255,209,102)" transform="translate(0,0)"></path>
<path d="M 0 1264.9 C 23.2224 1264.91 49.1246 1265.46 72.1335 1264.6 L 71.8886 1418.21 C 71.896 1443.13 70.9769 1475.72 72.0738 1500.15 L 72.0077 1509 L 0 1509 L 0 1264.9 z" fill="rgb(245,237,230)" transform="translate(0,0)"></path>
<path d="M 26.5516 440.149 C 75.4231 439.658 126.955 441.189 175.377 439.837 C 174.507 449.172 174.856 463.456 174.869 473.159 L 175.047 530.906 C 158.725 530.047 137.353 530.624 120.704 530.668 L 25.8867 530.972 C 26.1124 501.106 26.0617 471.239 25.7345 441.374 L 26.5516 440.149 z" fill="rgb(245,107,226)" transform="translate(0,0)"></path>
<path d="M 1856.26 1371.32 C 1864.24 1371.31 1872.46 1371.21 1880.41 1371.32 L 1907.05 1371.41 L 1907.27 1460.55 C 1907.36 1475.46 1908.05 1494.44 1907.55 1509 L 1880.8 1509 L 1856.8 1509 L 1831.1 1509 L 1830.89 1371.28 L 1856.26 1371.32 z" fill="rgb(78,205,196)" transform="translate(0,0)"></path>
<path d="M 1880.41 1371.32 L 1907.05 1371.41 L 1907.27 1460.55 C 1907.36 1475.46 1908.05 1494.44 1907.55 1509 L 1880.8 1509 L 1880.41 1371.32 z" fill="rgb(78,205,196)" transform="translate(0,0)"></path>
<path d="M 1856.26 1371.32 C 1864.24 1371.31 1872.46 1371.21 1880.41 1371.32 L 1880.8 1509 L 1856.8 1509 L 1856.26 1371.32 z" fill="rgb(255,90,31)" transform="translate(0,0)"></path>
<path d="M 1604.38 1368.15 C 1605.05 1378.79 1604.69 1395.05 1604.33 1406.04 L 1148.8 1405.98 L 1148.81 1386.84 C 1200.35 1387.8 1254.78 1386.89 1306.54 1386.89 L 1604.08 1386.77 C 1604.06 1380.56 1604.16 1374.35 1604.38 1368.15 z" fill="rgb(255,90,31)" transform="translate(0,0)"></path>
<path d="M 2048 1046.38 L 2048 1062.86 L 1705.22 1063.01 L 1585.6 1063.09 C 1568.21 1063.1 1550.81 1062.87 1533.4 1063.29 C 1529.8 1063.37 1527.77 1062.87 1525.33 1060.65 C 1525.1 1057.75 1525.18 1057.88 1526.6 1055.51 C 1537.64 1053.98 1548.1 1049.69 1558.92 1047.56 C 1564.79 1046.4 1575.09 1046.61 1581.37 1046.63 L 2048 1046.38 z" fill="rgb(255,90,31)" transform="translate(0,0)"></path>
<path d="M 1148.79 1368.15 L 1604.38 1368.15 C 1604.16 1374.35 1604.06 1380.56 1604.08 1386.77 L 1306.54 1386.89 C 1254.78 1386.89 1200.35 1387.8 1148.81 1386.84 L 1148.79 1368.15 z" fill="rgb(255,209,102)" transform="translate(0,0)"></path>
<path d="M 2010.32 1162.17 C 2022.88 1161.88 2035.44 1161.81 2048 1161.94 L 2048 1261.21 C 2018.66 1261.03 1989.31 1261.09 1959.97 1261.41 C 1961.89 1251.97 2002.37 1177.14 2010.32 1162.17 z" fill="rgb(255,90,31)" transform="translate(0,0)"></path>
<path d="M 1959.97 1261.41 C 1989.31 1261.09 2018.66 1261.03 2048 1261.21 L 2048 1263.25 L 2048 1312.17 C 2022.4 1346.47 1976.75 1343.47 1960.48 1302.79 C 1959.09 1294.53 1958.1 1271.11 1959.73 1263.16 L 1959.97 1261.41 z" fill="rgb(255,90,31)" transform="translate(0,0)"></path>
<path d="M 1959.97 1261.41 C 1989.31 1261.09 2018.66 1261.03 2048 1261.21 L 2048 1263.25 L 1959.73 1263.16 L 1959.97 1261.41 z" fill="rgb(145,45,28)" transform="translate(0,0)"></path>
<path d="M 0 132.726 C 30.5507 125.178 56.9231 129.471 75.5968 157.16 C 82.2668 169.789 83.8613 174.876 85.2824 189.148 C 59.5261 187.531 26.5006 189.214 0 188.867 L 0 132.726 z" fill="rgb(139,92,246)" transform="translate(0,0)"></path>
<path d="M 10.4164 292.08 C 21.6026 292.284 32.791 292.35 43.9789 292.277 C 44.0786 323.569 43.7109 356.468 44.453 387.618 C 35.1658 387 23.4972 387.287 13.9999 387.298 L 0 387.256 L 0 292.619 C 3.61219 292.592 6.83369 292.347 10.4164 292.08 z" fill="rgb(255,209,102)" transform="translate(0,0)"></path>
<path d="M 1807.1 1371.15 L 1830.89 1371.28 L 1831.1 1509 L 1807.21 1509 L 1807.1 1371.15 z" fill="rgb(255,90,31)" transform="translate(0,0)"></path>
<path d="M 1789.2 1371.19 L 1807.1 1371.15 L 1807.21 1509 L 1789.14 1509 L 1789.2 1371.19 z" fill="rgb(78,205,196)" transform="translate(0,0)"></path>
<path d="M 0 190.126 L 17.9788 189.884 L 18.0605 252.187 C 18.0429 263.706 18.4166 278.666 17.5761 289.918 C 15.3327 291.446 13.1174 291.577 10.4164 292.08 C 6.83369 292.347 3.61219 292.592 0 292.619 L 0 190.126 z" fill="rgb(100,51,106)" transform="translate(0,0)"></path>
<path d="M 346.123 141.184 C 362.256 130.722 378.283 125.882 397.558 130.13 C 406.359 132.098 414.611 135.999 421.717 141.552 C 436.87 155.06 445.486 168.158 446.046 189.064 C 449.217 191.207 451.236 190.474 455.667 190.586 C 463.152 190.752 502.139 190.241 505.895 191.471 C 505.703 209.761 506.402 230.025 505.904 247.837 C 506.349 248.905 506.607 250.12 507.309 250.591 C 508.693 241.957 508.152 202.744 508.163 191.446 C 511.275 190.477 528.815 190.359 533.059 190.26 L 532.79 189.147 C 537.988 188.725 556.904 188.41 561.865 189.065 C 566.863 189.755 581.649 188.795 583.959 190.858 L 584.33 924.428 C 584.134 935.879 584.121 947.332 584.293 958.784 C 579.699 958.875 564.263 959.472 560.459 959.093 C 556.131 959.336 554.366 958.62 551.597 960.93 L 550.69 964.817 C 548.007 967.053 546.285 967.582 543.052 966.804 C 540.493 964.412 540.643 963.503 539.903 959.853 L 534.916 959.062 C 532.217 959.278 528.265 959.138 525.455 959.13 L 520.868 959.196 C 489.529 958.222 455.393 958.957 423.854 959.036 C 423.794 950.119 423.789 941.787 423.131 932.883 L 422.972 958.905 L 240.415 959.042 C 238.017 959.131 235.394 958.881 233.523 959.997 C 232.803 965.318 233.686 963.55 230.631 967.273 C 227.249 968.396 228.884 968.461 225.566 966.982 L 223.846 964.729 L 223.885 962.306 C 219.974 959.409 205.547 959.556 199.995 959.292 C 194.588 959.235 190.535 959.326 185.191 958.378 C 186.244 930.18 185.595 900.252 185.695 871.854 L 186.051 706.033 L 185.361 190.507 C 204.997 190.436 244.294 192.075 262.294 190.422 L 262.86 193.456 C 261.97 210.761 262.644 231.823 262.848 249.505 C 263.108 253.133 263.318 257.655 263.747 261.187 L 265.222 253.811 C 263.487 249.18 264.851 200.28 264.921 190.581 C 273.448 190.282 317.857 191.647 322.025 189.571 C 321.949 188.213 321.973 186.852 322.095 185.498 C 323.686 165.99 331.706 153.589 346.123 141.184 z" fill="rgb(85,90,107)" transform="translate(0,0)"></path>
<path d="M 263.284 276.442 C 274.393 272.187 329.446 273.796 344.034 273.798 L 345.016 273.947 C 370.936 273.798 396.858 273.785 422.778 273.91 L 422.924 285.876 L 423.267 286.849 L 422.949 288.187 L 422.833 712.727 L 422.889 855.893 C 422.904 880.56 422.211 908.582 423.131 932.883 L 422.972 958.905 L 240.415 959.042 C 238.017 959.131 235.394 958.881 233.523 959.997 C 232.467 955.35 232.812 922.748 232.801 915.62 L 232.579 810.818 L 232.963 521.985 C 232.983 454.806 232.801 387.627 232.869 320.451 C 232.891 298.691 244.81 286.051 263.284 276.442 z" fill="rgb(78,205,196)" transform="translate(0,0)"></path>
<path d="M 344.034 273.798 L 345.016 273.947 C 345.059 275.28 344.984 281.589 345.171 282.24 L 344.696 283.661 L 344.871 283.89 C 344.72 284.003 344.569 284.117 344.419 284.231 C 344.315 284.114 344.211 283.998 344.107 283.881 L 344.408 283.31 C 343.522 282.041 343.98 275.998 344.034 273.798 z" fill="rgb(81,144,129)" transform="translate(0,0)"></path>
<path d="M 505.285 286.336 L 507.167 286.039 C 511.144 286.6 514.866 286.941 518.903 287.586 C 538.249 315.862 529.699 329.493 530.563 361.263 C 531.613 399.92 531.884 438.438 531.784 477.114 C 531.197 573.356 531.104 669.599 531.503 765.842 C 531.229 824.989 529.324 884.45 531.066 943.648 C 531.214 948.674 530.148 956.342 534.842 958.397 L 534.916 959.062 C 532.217 959.278 528.265 959.138 525.455 959.13 L 520.868 959.196 C 489.529 958.222 455.393 958.957 423.854 959.036 C 423.794 950.119 423.789 941.787 423.131 932.883 C 422.211 908.582 422.904 880.56 422.889 855.893 L 422.833 712.727 L 422.949 288.187 L 423.267 286.849 L 422.924 285.876 C 444.785 285.871 484.477 284.652 505.285 286.336 z" fill="url(#Gradient1)" transform="translate(0,0)"></path>
<path d="M 505.285 286.336 L 507.167 286.039 C 511.144 286.6 514.866 286.941 518.903 287.586 C 538.249 315.862 529.699 329.493 530.563 361.263 C 531.613 399.92 531.884 438.438 531.784 477.114 C 531.197 573.356 531.104 669.599 531.503 765.842 C 531.229 824.989 529.324 884.45 531.066 943.648 C 531.214 948.674 530.148 956.342 534.842 958.397 L 534.916 959.062 C 532.217 959.278 528.265 959.138 525.455 959.13 L 520.868 959.196 C 514.805 955.538 515.361 948.983 518.108 942.852 C 515.192 937.16 520.32 913.817 519.159 903.406 L 518.007 903.927 L 517.691 908.207 C 517.088 904.249 516.914 898.994 516.283 894.421 C 516.94 894.735 517.598 895.049 518.255 895.363 C 518.863 890.928 518.859 866.132 519.84 864.663 C 523.036 870.558 520.543 889.228 520.372 896.768 C 520.063 913.786 520.296 930.809 521.071 947.812 C 522.35 943.424 521.308 905.672 522.963 894.153 L 523.069 898 C 524.26 894.082 525.875 863.879 523.853 861.68 L 522.145 864.985 L 521.653 864.801 C 521.33 856.539 525.805 855.074 525.128 849.467 C 524.044 840.502 524.435 832.1 524.55 823.115 C 523.831 825.115 522.574 840.503 521.904 844.559 C 520.707 824.099 524.878 814.355 526.082 795.129 C 527.461 773.116 526.762 744.196 526.764 721.93 C 526.766 704.478 519.236 703.614 521.965 680.308 C 522.324 681.026 524.04 700.749 524.961 704.823 L 526.087 705.013 C 526.679 696.148 525.313 686.873 525.456 678.08 C 525.697 663.146 525.995 648.18 526.239 633.244 C 523.73 639.923 523.347 636.821 522.644 645.081 L 521.711 644.98 C 520.992 640.567 521.889 631.658 525.886 629.155 C 527.152 625.379 526.613 618.825 526.505 614.543 L 525.804 614.301 C 524.305 616.768 523.618 617.948 521.772 620.14 C 521.485 617.038 520.806 616.021 522.497 613.831 C 527.91 606.82 521.96 567.8 525.275 561.36 C 526.864 564.822 525.644 603.441 526.273 610.691 C 526.913 607.074 526.5 564.629 526.497 558.696 L 526.996 457 C 527.027 443.868 526.351 431.452 526.661 418.097 C 525.27 420.252 526.74 425.568 525.407 430.352 L 524.395 429.493 C 524.059 421.486 527.411 408.511 526.514 403.677 C 525.002 395.528 518.181 383.278 522.146 372.403 C 522.649 372.807 523.782 382.346 523.979 383.831 C 524.679 363.806 524.344 344.447 524.12 324.478 C 523.909 305.669 524.516 307.313 514.307 289.829 C 506.446 285.749 437.314 287.161 423.267 286.849 L 422.924 285.876 C 444.785 285.871 484.477 284.652 505.285 286.336 z" fill="rgb(85,90,107)" transform="translate(0,0)"></path>
<path d="M 518.108 942.852 C 518.332 943.437 520.738 950.518 520.84 951.033 C 522.505 959.393 519.648 954.264 525.455 959.13 L 520.868 959.196 C 514.805 955.538 515.361 948.983 518.108 942.852 z" fill="rgb(95,68,112)" transform="translate(0,0)"></path>
<path d="M 185.361 190.507 C 204.997 190.436 244.294 192.075 262.294 190.422 L 262.86 193.456 C 261.97 210.761 262.644 231.823 262.848 249.505 C 263.108 253.133 263.318 257.655 263.747 261.187 L 263.825 267.366 C 240.259 275.89 225.255 292.284 224.322 318.304 C 223.629 337.653 224.105 357.151 224.177 376.522 L 224.313 478.254 L 224.384 803.457 L 224.199 908.716 C 224.148 926.198 224.531 947.424 223.846 964.729 L 223.885 962.306 C 219.974 959.409 205.547 959.556 199.995 959.292 C 194.588 959.235 190.535 959.326 185.191 958.378 C 186.244 930.18 185.595 900.252 185.695 871.854 L 186.051 706.033 L 185.361 190.507 z" fill="rgb(95,68,112)" transform="translate(0,0)"></path>
<path d="M 205.657 896.483 L 206.284 897.13 C 207.016 892.192 206.792 860.119 206.095 855.001 L 205.383 854.584 C 204.234 860.394 205.847 860.511 205.971 865.685 C 206.165 873.757 206.309 882.082 205.582 890.12 L 204.724 889.745 C 204.296 877.539 202.261 864.349 202.291 853.335 C 202.369 824.048 203.105 795.145 201.709 765.805 C 201.121 753.449 202.783 742.58 201.646 729.406 L 200.81 747.922 C 200.506 734.026 201.875 720.092 201.275 707.149 L 201.296 708.383 C 200.403 703.609 198.736 697.336 200.415 693.198 C 200.216 693.611 200.017 694.024 199.818 694.437 C 204.621 687.291 202.741 685.1 201.15 677.721 C 201.12 680.383 201.351 685.11 200.41 687.37 C 199.826 680.539 199.249 646.915 200.067 641.007 L 201.464 644.554 C 201.267 642.323 201.443 640.767 201.603 638.565 C 204.671 640.186 201.218 649.323 204.244 653.761 C 205.301 641.866 201.383 630.448 201.289 618.519 C 201.246 613.14 202.423 607.339 202.362 602.056 C 202.149 583.569 203.649 566.358 204.616 548.018 L 205.527 547.585 C 206.449 552.094 205.228 573.727 205.107 579.971 C 204.759 595.057 205.755 610.072 205.857 625.167 C 205.887 629.643 203.268 641.544 206.871 642.864 C 206.379 628.665 207.63 518.332 206.126 514.053 C 203.761 516.875 203.518 556.144 202.713 563.143 L 201.675 562.924 C 201.097 550.54 202.004 535.098 201.669 522.398 C 201.515 516.563 201.012 489.766 201.812 485.508 C 203.108 487.104 203.447 506.643 203.88 511.135 C 204.163 505.475 204.432 500.38 205.069 494.753 C 206.213 498.95 205.976 504.605 206.02 509.119 C 208.691 497.3 206.506 474.663 206.453 462.456 C 206.423 455.489 207.321 449.534 207.229 442.391 C 207.093 431.826 206.739 421.311 206.558 410.798 C 206.448 404.445 209.779 397.37 209.395 390.302 L 208.666 390.349 L 207.402 393.23 L 206.611 392.939 C 205.682 386.025 209.321 382.61 209.302 375.231 C 208.2 375.875 207.571 376.495 206.682 377.393 C 204.785 369.564 210.519 370.682 209.56 360.907 L 207.728 362.957 L 206.895 362.312 C 206.968 343.327 206.453 324.337 206.722 305.343 C 206.798 299.982 209.849 297.672 210.878 294.141 C 214.121 283.008 221.189 273.544 229.598 265.511 C 236.631 258.793 252.549 249.133 262.848 249.505 C 263.108 253.133 263.318 257.655 263.747 261.187 L 263.825 267.366 C 240.259 275.89 225.255 292.284 224.322 318.304 C 223.629 337.653 224.105 357.151 224.177 376.522 L 224.313 478.254 L 224.384 803.457 L 224.199 908.716 C 224.148 926.198 224.531 947.424 223.846 964.729 L 223.885 962.306 C 219.974 959.409 205.547 959.556 199.995 959.292 L 203.972 957.681 C 202.255 952.379 200.943 902.834 202.522 897.63 C 202.517 895.235 200.227 886.642 202.068 885.239 C 201.616 884.889 205.626 896.352 205.657 896.483 z" fill="rgb(85,90,107)" transform="translate(0,0)"></path>
<path d="M 223.885 962.306 C 221.666 959.071 219.792 959.607 216.774 956.92 C 214.677 937.361 215.453 902.173 215.19 881.018 C 214.417 830.367 214.013 779.711 213.979 729.054 C 213.788 655.129 214.028 581.204 214.7 507.283 C 214.914 451.735 215.333 396.858 216.787 340.775 C 217.585 309.976 223.166 280.86 254.285 263.898 C 256.585 262.644 259.858 262.041 262.348 263.122 L 263.825 267.366 C 240.259 275.89 225.255 292.284 224.322 318.304 C 223.629 337.653 224.105 357.151 224.177 376.522 L 224.313 478.254 L 224.384 803.457 L 224.199 908.716 C 224.148 926.198 224.531 947.424 223.846 964.729 L 223.885 962.306 z" fill="rgb(78,205,196)" transform="translate(0,0)"></path>
<path d="M 202.522 897.63 C 202.517 895.235 200.227 886.642 202.068 885.239 C 201.616 884.889 205.626 896.352 205.657 896.483 C 205.282 899.756 205.28 914.427 204.875 914.76 C 203.638 914.243 202.668 899.111 202.522 897.63 z" fill="rgb(95,86,116)" transform="translate(0,0)"></path>
<path d="M 263.825 267.366 C 276.866 265.062 302.368 265.711 316.688 265.674 L 406.137 265.655 L 470.756 265.754 C 489.154 265.795 510.297 263.356 526.162 274.134 C 556.883 295.005 550.236 334.626 550.202 367.262 L 550.092 479.809 L 550.177 794.994 L 550.267 902.228 C 550.295 922.622 549.878 944.638 550.69 964.817 C 548.007 967.053 546.285 967.582 543.052 966.804 C 540.493 964.412 540.643 963.503 539.903 959.853 L 534.916 959.062 L 534.842 958.397 C 530.148 956.342 531.214 948.674 531.066 943.648 C 529.324 884.45 531.229 824.989 531.503 765.842 C 531.104 669.599 531.197 573.356 531.784 477.114 C 531.884 438.438 531.613 399.92 530.563 361.263 C 529.699 329.493 538.249 315.862 518.903 287.586 C 514.866 286.941 511.144 286.6 507.167 286.039 L 505.285 286.336 C 484.477 284.652 444.785 285.871 422.924 285.876 L 422.778 273.91 C 396.858 273.785 370.936 273.798 345.016 273.947 L 344.034 273.798 C 329.446 273.796 274.393 272.187 263.284 276.442 C 244.81 286.051 232.891 298.691 232.869 320.451 C 232.801 387.627 232.983 454.806 232.963 521.985 L 232.579 810.818 L 232.801 915.62 C 232.812 922.748 232.467 955.35 233.523 959.997 C 232.803 965.318 233.686 963.55 230.631 967.273 C 227.249 968.396 228.884 968.461 225.566 966.982 L 223.846 964.729 C 224.531 947.424 224.148 926.198 224.199 908.716 L 224.384 803.457 L 224.313 478.254 L 224.177 376.522 C 224.105 357.151 223.629 337.653 224.322 318.304 C 225.255 292.284 240.259 275.89 263.825 267.366 z" fill="rgb(245,237,230)" transform="translate(0,0)"></path>
<path d="M 524.206 285.342 C 533.353 293.132 539.924 305.702 540.36 317.577 C 541.285 342.734 540.827 368.972 540.795 394.149 L 540.596 540 C 539.524 545.874 540.135 550.915 539.541 556.657 C 537.348 577.876 537.495 597.944 537.479 619.199 L 538.2 750.498 C 538.262 764.476 536.505 779.357 536.357 793.6 C 536.12 816.353 535.471 838.855 536.66 861.627 C 536.82 867.091 535.834 876.753 535.268 882.457 C 533.202 903.279 538.849 939.212 534.842 958.397 C 530.148 956.342 531.214 948.674 531.066 943.648 C 529.324 884.45 531.229 824.989 531.503 765.842 C 531.104 669.599 531.197 573.356 531.784 477.114 C 531.884 438.438 531.613 399.92 530.563 361.263 C 529.699 329.493 538.249 315.862 518.903 287.586 C 520.676 286.85 522.443 286.102 524.206 285.342 z" fill="rgb(87,141,128)" transform="translate(0,0)"></path>
<path d="M 534.842 958.397 C 538.849 939.212 533.202 903.279 535.268 882.457 C 535.834 876.753 536.82 867.091 536.66 861.627 C 535.471 838.855 536.12 816.353 536.357 793.6 C 536.505 779.357 538.262 764.476 538.2 750.498 L 537.479 619.199 C 537.495 597.944 537.348 577.876 539.541 556.657 C 540.135 550.915 539.524 545.874 540.596 540 L 540.632 839.621 L 540.602 921.692 C 540.591 928.664 540.95 953.991 539.903 959.853 L 534.916 959.062 L 534.842 958.397 z" fill="rgb(81,144,129)" transform="translate(0,0)"></path>
<path d="M 422.778 273.91 C 447.93 273.99 481.976 273.13 506.449 274.982 C 507.273 279.884 507.202 281.072 507.167 286.039 L 505.285 286.336 C 484.477 284.652 444.785 285.871 422.924 285.876 L 422.778 273.91 z" fill="rgb(81,144,129)" transform="translate(0,0)"></path>
<path d="M 506.449 274.982 C 507.273 279.884 507.202 281.072 507.167 286.039 L 505.285 286.336 C 505.205 281.586 504.604 279.161 506.449 274.982 z" fill="rgb(87,141,128)" transform="translate(0,0)"></path>
<path d="M 506.449 274.982 C 514.98 278.396 517.363 279.142 524.206 285.342 C 522.443 286.102 520.676 286.85 518.903 287.586 C 514.866 286.941 511.144 286.6 507.167 286.039 C 507.202 281.072 507.273 279.884 506.449 274.982 z" fill="rgb(81,144,129)" transform="translate(0,0)"></path>
<path d="M 532.79 189.147 C 537.988 188.725 556.904 188.41 561.865 189.065 C 566.863 189.755 581.649 188.795 583.959 190.858 L 584.33 924.428 C 584.134 935.879 584.121 947.332 584.293 958.784 C 579.699 958.875 564.263 959.472 560.459 959.093 C 563.086 957.311 568.567 957.981 572.411 957.936 L 572.103 957.21 L 565.234 956.993 C 562.729 955.023 563.558 949.906 563.566 946.157 L 565.044 491.607 C 565.2 470.73 567.57 304.728 564.52 298.633 C 558.196 286 552.287 274.397 541.637 264.698 C 532.708 256.566 519.611 250.058 507.309 250.591 C 508.693 241.957 508.152 202.744 508.163 191.446 C 511.275 190.477 528.815 190.359 533.059 190.26 L 532.79 189.147 z" fill="rgb(95,68,112)" transform="translate(0,0)"></path>
<path d="M 532.79 189.147 C 537.988 188.725 556.904 188.41 561.865 189.065 C 566.863 189.755 581.649 188.795 583.959 190.858 C 580.971 192.021 561.854 192.724 559.029 191.929 C 550.343 189.486 541.956 190.865 533.059 190.26 L 532.79 189.147 z" fill="rgb(100,51,106)" transform="translate(0,0)"></path>
<path d="M 346.123 141.184 C 362.256 130.722 378.283 125.882 397.558 130.13 C 406.359 132.098 414.611 135.999 421.717 141.552 C 436.87 155.06 445.486 168.158 446.046 189.064 C 423.191 187.49 394.168 189.327 370.61 188.643 C 363.412 188.434 327.208 188.424 322.025 189.571 C 321.949 188.213 321.973 186.852 322.095 185.498 C 323.686 165.99 331.706 153.589 346.123 141.184 z" fill="rgb(139,92,246)" transform="translate(0,0)"></path>
<path d="M 264.921 190.581 L 344.477 190.51 L 343.975 250.51 C 326.613 250.445 281.566 251.134 265.222 253.811 C 263.487 249.18 264.851 200.28 264.921 190.581 z" fill="rgb(100,51,106)" transform="translate(0,0)"></path>
<path d="M 425.51 190.51 L 455.667 190.586 C 463.152 190.752 502.139 190.241 505.895 191.471 C 505.703 209.761 506.402 230.025 505.904 247.837 L 505.109 246.487 C 498.089 241.359 440.941 248.388 427.441 246.843 C 422.323 241.209 425.548 201.543 425.51 190.51 z" fill="rgb(100,51,106)" transform="translate(0,0)"></path>
<path d="M 345.553 189.553 L 423.384 189.51 C 423.486 198.64 424.418 239.168 422.692 245.742 C 412.534 244.918 356.582 243.282 347.822 244.928 L 346.652 243.983 C 344.316 234.649 345.451 200.797 345.553 189.553 z" fill="rgb(100,51,106)" transform="translate(0,0)"></path>
<path d="M 552.306 857.488 C 555.381 863.886 552.486 907.833 552.49 918.5 C 549.102 914.927 552.002 878.056 550.996 871.056 C 550.524 867.769 552.023 861.301 552.306 857.488 z" fill="rgb(87,141,128)" transform="translate(0,0)"></path>
<path d="M 561.062 918.445 C 563.599 922.891 562.71 949.988 561.677 955.275 C 559.157 949.05 559.23 924.462 561.062 918.445 z" fill="rgb(98,109,121)" transform="translate(0,0)"></path>
<path d="M 1079.98 190.876 L 1094.94 190.989 L 1095.06 557.271 L 944.287 557.529 C 935.865 557.543 897.77 556.666 892.758 558.099 C 885.568 540.525 878.914 535.593 860.673 530.965 C 862.368 524.668 861.751 479.081 861.77 470.252 L 861.742 268.711 L 861.709 219.739 C 861.684 213.674 861.224 197.864 862.154 192.489 C 864.746 190.476 866.285 191.074 870.088 190.878 C 929.4 192.545 989.723 190.095 1049.13 191.009 C 1058.89 191.159 1070.26 191.366 1079.98 190.876 z" fill="rgb(139,92,246)" transform="translate(0,0)"></path>
<path d="M 973.316 310.258 C 998.215 310.051 1009.25 326.218 1010.21 349.514 L 1035.86 349.255 C 1038.25 391.483 1044.39 436.582 1047.08 479.848 C 1026 479.066 1001.55 479.703 980.226 479.765 L 905.609 479.636 C 907.609 441.16 913.837 387.984 917.847 349.083 L 941.777 349.176 C 942.313 328.777 952.777 314.187 973.316 310.258 z" fill="rgb(43,30,46)" transform="translate(0,0)"></path>
<path d="M 919.632 351.128 C 956.835 350.748 996.186 351.321 1033.57 351.376 C 1034.45 356.951 1035.03 362.915 1035.52 368.555 C 1038.71 404.856 1042.77 441.388 1045.19 477.733 L 1034.17 477.749 L 907.248 477.826 C 909.813 460.626 911.231 438.813 912.797 421.166 L 919.632 351.128 z" fill="rgb(255,209,102)" transform="translate(0,0)"></path>
<path d="M 1000.41 361.3 C 1003.37 359.776 1006.94 360.022 1009.67 361.94 C 1012.4 363.857 1013.84 367.13 1013.41 370.437 C 1012.98 373.745 1010.76 376.543 1007.63 377.702 C 1003.18 379.353 998.208 377.249 996.293 372.903 C 994.379 368.556 996.183 363.47 1000.41 361.3 z" fill="rgb(43,30,46)" transform="translate(0,0)"></path>
<path d="M 1000.97 363.351 C 1003.11 362.093 1005.77 362.097 1007.92 363.361 C 1010.06 364.625 1011.35 366.951 1011.28 369.439 C 1011.22 371.926 1009.81 374.183 1007.61 375.337 C 1004.31 377.061 1000.24 375.841 998.438 372.586 C 996.634 369.332 997.756 365.233 1000.97 363.351 z" fill="rgb(255,209,102)" transform="translate(0,0)"></path>
<path d="M 945.347 360.849 C 949.905 359.844 954.458 362.565 955.732 367.057 C 957.006 371.548 954.56 376.254 950.152 377.792 C 947.059 378.872 943.621 378.148 941.226 375.912 C 938.83 373.676 937.872 370.297 938.737 367.136 C 939.601 363.975 942.147 361.554 945.347 360.849 z" fill="rgb(43,30,46)" transform="translate(0,0)"></path>
<path d="M 945.954 363.006 C 948.326 362.515 950.779 363.336 952.377 365.156 C 953.975 366.977 954.472 369.515 953.677 371.804 C 952.883 374.092 950.921 375.778 948.539 376.217 C 944.911 376.886 941.42 374.51 940.712 370.89 C 940.004 367.269 942.341 363.753 945.954 363.006 z" fill="rgb(255,209,102)" transform="translate(0,0)"></path>
<path d="M 970.341 320.043 C 984.949 319.383 994.545 323.448 999 338.486 C 1003.37 353.225 995.595 349.722 984.25 349.694 C 973.711 349.628 963.173 349.673 952.635 349.828 C 951.861 334.413 955.278 325.99 970.341 320.043 z" fill="rgb(139,92,246)" transform="translate(0,0)"></path>
<path d="M 973.639 312.269 C 994.641 312.443 1007.79 326.409 1008 347.107 C 1008.04 350.639 1001.06 353.643 1001.55 344.007 C 1002.12 332.961 993.095 321.706 981.239 318.716 L 980.392 318.51 C 977.955 318.347 975.941 318.184 973.503 318.326 C 961.765 319.008 953.308 327.776 950.965 339.002 C 950.588 340.058 950.649 348.341 949.723 348.618 C 943.089 350.603 943.883 346.334 943.99 343.985 C 944.293 338.073 946.177 332.35 949.445 327.413 C 955.874 317.872 962.791 314.448 973.639 312.269 z" fill="rgb(255,209,102)" transform="translate(0,0)"></path>
<path d="M 1372.4 190.814 C 1378.34 191.009 1384.86 190.905 1390.85 190.937 L 1390.92 399.563 L 1167.88 399.961 L 1167.49 191.108 L 1303.53 191.078 C 1322.3 191.07 1354.67 191.994 1372.4 190.814 z" fill="rgb(139,92,246)" transform="translate(0,0)"></path>
<path d="M 1270.9 254.074 C 1297.09 250.027 1321.61 267.968 1325.67 294.155 C 1329.73 320.342 1311.8 344.866 1285.62 348.942 C 1259.41 353.02 1234.86 335.075 1230.8 308.868 C 1226.74 282.661 1244.69 258.124 1270.9 254.074 z" fill="rgb(43,30,46)" transform="translate(0,0)"></path>
<path d="M 1272.15 256.028 C 1297.2 252.714 1320.22 270.268 1323.64 295.302 C 1327.07 320.336 1309.62 343.433 1284.61 346.976 C 1259.43 350.541 1236.15 332.954 1232.7 307.758 C 1229.25 282.563 1246.94 259.364 1272.15 256.028 z" fill="rgb(139,92,246)" transform="translate(0,0)"></path>
<path d="M 1275.44 282.247 C 1285.98 280.553 1295.95 287.598 1297.88 298.106 C 1299.8 308.615 1292.98 318.735 1282.51 320.888 C 1275.54 322.323 1268.33 319.872 1263.68 314.48 C 1259.03 309.089 1257.65 301.602 1260.09 294.912 C 1262.54 288.222 1268.41 283.376 1275.44 282.247 z" fill="rgb(245,237,230)" transform="translate(0,0)"></path>
<path d="M 1168.77 419.984 L 1389.88 419.594 L 1389.98 621.982 L 1168.25 622.186 L 1168.77 419.984 z" fill="rgb(78,205,196)" transform="translate(0,0)"></path>
<path d="M 1273.83 471.409 C 1291.16 469.774 1308.04 477.6 1317.98 491.891 C 1327.93 506.181 1329.4 524.72 1321.85 540.405 C 1314.29 556.091 1298.88 566.492 1281.5 567.624 C 1255.18 569.34 1232.35 549.597 1230.25 523.297 C 1228.16 496.997 1247.56 473.887 1273.83 471.409 z" fill="rgb(255,209,102)" transform="translate(0,0)"></path>
<path d="M 1275.33 500.596 C 1282.33 499.56 1289.34 502.373 1293.69 507.958 C 1298.03 513.543 1299.03 521.034 1296.3 527.562 C 1293.58 534.091 1287.54 538.645 1280.52 539.48 C 1269.87 540.745 1260.18 533.225 1258.76 522.595 C 1257.34 511.965 1264.72 502.167 1275.33 500.596 z" fill="rgb(245,237,230)" transform="translate(0,0)"></path>
<path d="M 892.059 576.551 C 958.924 575.884 1027.93 576.921 1095.04 576.918 L 1095.11 691.313 C 1083.4 691.234 1033.42 690.291 1024.96 691.9 C 1011.12 692.141 995.087 696.402 982.654 702.243 C 952.863 714.573 924.624 751.562 901.923 774.53 C 889.102 787.502 874.288 802.675 861.889 816.014 C 860.067 758.909 862.582 664.564 861.524 604.001 C 861.977 603.417 862.43 602.833 862.884 602.25 C 876.223 601.677 888.501 588.923 892.059 576.551 z" fill="rgb(139,92,246)" transform="translate(0,0)"></path>
<path d="M 1168.86 641.049 L 1390.1 640.929 C 1390.23 649.535 1391.32 683.852 1389.43 690.167 C 1387.44 691.147 1388.24 691.003 1386.1 691.093 C 1351.65 690.76 1326.33 687.736 1294 702.152 C 1283.13 706.426 1271.84 714.928 1262.82 722.249 C 1259.91 718.386 1256.69 714.762 1253.2 711.41 C 1232.57 691.762 1210.12 690.692 1184.01 691.103 L 1168.78 690.953 L 1168.86 641.049 z" fill="rgb(78,205,196)" transform="translate(0,0)"></path>
<path d="M 1760 1162.17 C 1789.46 1161.52 1820.84 1161.87 1850.44 1161.75 C 1829.48 1185.15 1808.72 1208.72 1788.16 1232.46 C 1783.95 1237.23 1766.18 1258.06 1762.14 1261.58 C 1757.55 1260.7 1739.82 1261.22 1734.34 1261.2 C 1713.2 1261.14 1691.45 1262.27 1670.32 1261.57 C 1674.55 1255.29 1693.89 1234.87 1699.81 1228.43 C 1720.18 1206.63 1740.25 1184.54 1760 1162.17 z" fill="rgb(255,209,102)" transform="translate(0,0)"></path>
<path d="M 1852.75 1162.26 C 1875.14 1160.49 1909.13 1162.18 1932.37 1161.83 C 1913.69 1187.83 1894.85 1213.73 1875.87 1239.52 C 1873.11 1243.28 1861.62 1259.66 1859.71 1261.27 C 1839.74 1259.77 1802.68 1261.08 1781.55 1261.2 C 1776.94 1262.14 1771.32 1263.18 1767.02 1261.09 L 1766.19 1260.73 C 1772.48 1251.86 1787.71 1235.6 1795.36 1226.88 C 1814.24 1205.12 1833.37 1183.58 1852.75 1162.26 z" fill="rgb(255,90,31)" transform="translate(0,0)"></path>
<path d="M 1767.02 1261.09 C 1772.05 1261.22 1776.39 1260.98 1781.55 1261.2 C 1776.94 1262.14 1771.32 1263.18 1767.02 1261.09 z" fill="rgb(145,45,28)" transform="translate(0,0)"></path>
<path d="M 1934.72 1162.47 C 1938.8 1160.89 1998.46 1161.91 2008.44 1161.82 C 1995.98 1184.77 1983.83 1207.89 1972.01 1231.18 C 1967.27 1240.46 1961.64 1252.91 1956.91 1261.58 C 1950.35 1260.73 1932.08 1261.15 1925.04 1261.17 L 1862.92 1261.35 C 1872.6 1247.08 1883.19 1233.33 1893.33 1219.35 C 1906.92 1200.24 1920.72 1181.28 1934.72 1162.47 z" fill="rgb(255,209,102)" transform="translate(0,0)"></path>
<path d="M 1765.52 1263.13 C 1793.41 1263.07 1832.68 1264.22 1859.35 1262.92 C 1860.39 1270.74 1859.78 1287.9 1859.51 1296.33 C 1858.44 1302.89 1855.95 1309.14 1852.24 1314.65 C 1845.32 1325.18 1834.39 1332.41 1821.99 1334.67 C 1809.28 1337.15 1796.09 1334.48 1785.35 1327.24 C 1773.15 1318.91 1767.94 1309.04 1765.36 1294.96 C 1764.82 1288.52 1764.45 1268.83 1765.52 1263.13 z" fill="rgb(255,90,31)" transform="translate(0,0)"></path>
<path d="M 1669.47 1262.79 C 1683.1 1262.79 1707.01 1262.21 1719.34 1263.15 C 1733.31 1263.13 1748.45 1263.41 1762.32 1262.93 C 1763.69 1269.55 1762.89 1288.91 1762.61 1296.39 C 1757.31 1321 1737.17 1336.69 1711.93 1335.42 C 1699.78 1334.86 1688.39 1329.38 1680.36 1320.25 C 1665.98 1304.16 1667.83 1284.11 1668.99 1263.95 L 1669.47 1262.79 z" fill="rgb(255,90,31)" transform="translate(0,0)"></path>
<path d="M 1669.47 1262.79 C 1683.1 1262.79 1707.01 1262.21 1719.34 1263.15 C 1706.49 1264.57 1682.48 1263.99 1668.99 1263.95 L 1669.47 1262.79 z" fill="rgb(128,73,33)" transform="translate(0,0)"></path>
<path d="M 1862.14 1263.2 L 1957.15 1263.05 C 1957.04 1276.35 1957.64 1288.99 1955.31 1302.09 L 1955.12 1303.1 L 1954.53 1304.39 C 1948.25 1317.95 1940.24 1327.64 1925.68 1332.83 C 1913.25 1337.25 1899.56 1336.47 1887.72 1330.66 C 1873.14 1323.39 1867.29 1313.41 1862.4 1298.71 C 1861.6 1287.74 1862.04 1274.39 1862.14 1263.2 z" fill="rgb(255,209,102)" transform="translate(0,0)"></path>
<path d="M 691.781 147.418 C 694.71 145.104 697.806 142.586 700.907 140.507 C 728.033 122.324 767.243 125.687 787.857 152.123 C 797.026 163.882 799.18 174.862 800.901 189.156 C 770.733 189.224 737.229 188.564 707.331 189.632 C 706.332 167.658 700.067 164.848 691.781 147.418 z" fill="rgb(139,92,246)" transform="translate(0,0)"></path>
<path d="M 512.641 145.493 C 538.841 124.442 569.796 123.303 597.109 143.109 C 612.239 157.364 617.721 167.96 619.475 188.987 C 608.776 188.955 596.22 188.627 585.678 189.159 C 579.016 188.658 568.789 189.026 561.865 189.065 C 556.904 188.41 537.988 188.725 532.79 189.147 C 528.082 186.251 528.97 174.385 525.912 167.844 C 521.818 159.085 518.313 153.31 512.641 145.493 z" fill="rgb(139,92,246)" transform="translate(0,0)"></path>
<path d="M 175.681 143.696 C 202.143 123.488 234.981 123.575 260.429 145.495 C 247.522 164.96 244.127 163.793 241.591 189.179 C 224.489 187.455 196.559 189.787 178.584 188.881 C 171.687 188.533 163.293 189.549 156.382 188.412 C 155.096 188.201 155.455 187.927 154.284 186.204 C 156.428 166.703 162.233 157.535 175.681 143.696 z" fill="rgb(139,92,246)" transform="translate(0,0)"></path>
<path d="M 858.845 532.936 C 874.372 533.903 887.301 545.204 890.337 560.462 C 891.3 565.3 891.207 570.288 890.066 575.087 C 886.928 588.278 876.311 598.38 862.98 600.859 C 849.945 603.283 836.681 597.973 828.919 587.224 C 821.156 576.475 820.288 562.214 826.689 550.602 C 833.089 538.991 845.612 532.111 858.845 532.936 z" fill="rgb(139,92,246)" transform="translate(0,0)"></path>
<path d="M 852.217 558.635 C 856.664 556.098 862.325 557.641 864.87 562.083 C 867.416 566.525 865.885 572.189 861.448 574.743 C 856.998 577.305 851.315 575.768 848.762 571.314 C 846.209 566.859 847.757 561.179 852.217 558.635 z" fill="rgb(43,30,46)" transform="translate(0,0)"></path>
<path d="M 854.995 559.597 C 856.333 559.248 857.743 559.289 859.058 559.715 C 859.66 559.91 860.233 560.183 860.764 560.526 C 861.682 561.12 862.453 561.913 863.021 562.847 C 864.647 565.519 864.377 568.933 862.351 571.316 C 860.325 573.699 857 574.516 854.1 573.342 C 851.201 572.168 849.381 569.268 849.584 566.146 C 849.787 563.025 851.968 560.385 854.995 559.597 z" fill="rgb(139,92,246)" transform="translate(0,0)"></path>
<path d="M 854.995 559.597 C 856.333 559.248 857.743 559.289 859.058 559.715 C 857.708 559.667 856.342 559.594 854.995 559.597 z" fill="rgb(100,51,106)" transform="translate(0,0)"></path>
<metadata><recraft-signature>{"signed_by": "recraft", "signature_b64": "g8MXVOoGsE4h9schmeSgKKfQ/cDKr2Pz1heIooX6dq0cS9XqrvO1+6YmABv2co/KhX7t2xN6KtINMtind2oBCg==", "signing_algo": "Ed25519", "generation_timestamp": 1783344371, "identifier": "cd1513c4-dd64-4824-9fc4-aa4ea813f715"}</recraft-signature></metadata></svg>