<svg xmlns="http://www.w3.org/2000/svg" height="1344" preserveAspectRatio="none" style="display: block;" version="1.1" viewBox="0 0 1170 2048" width="768">
<path d="M 0 0 L 1170 0 L 1170 1312.72 L 1170 1416.76 L 1170 1419.64 L 1170 1495.15 L 1170 1672.32 L 1170 1851.57 L 1170 2048 L 0 2048 L 0 0 z" fill="rgb(58,36,32)" transform="translate(0,0)"></path>
<path d="M 999.831 1381.87 C 1018.95 1381.46 1039.27 1383.96 1055.78 1395.15 C 1062.83 1399.93 1067.3 1408.01 1075.84 1409.55 C 1084.22 1411.07 1094.09 1409.31 1102.54 1408.3 C 1128.23 1405.21 1146.1 1407.32 1170 1416.76 L 1170 1419.64 L 1170 1495.15 L 1170 1672.32 C 1156.22 1672.33 1130.13 1673.48 1117.62 1671.18 C 1099.42 1667.83 1088.45 1641.96 1068.56 1636.95 C 1048.54 1631.91 1029.1 1644.12 1011.38 1636.78 C 992.259 1628.85 993.871 1616.1 971.149 1611.3 L 968.43 1610.56 C 953.157 1611.77 933.068 1619.08 922.036 1629.3 L 873.047 1658.56 C 876.505 1600.03 885.662 1545.82 907.237 1490.92 C 921 1458.32 960.336 1387.91 999.819 1383.96 L 999.831 1381.87 z" fill="rgb(255,90,31)" transform="translate(0,0)"></path>
<path d="M 999.831 1381.87 C 1018.95 1381.46 1039.27 1383.96 1055.78 1395.15 C 1062.83 1399.93 1067.3 1408.01 1075.84 1409.55 C 1084.22 1411.07 1094.09 1409.31 1102.54 1408.3 C 1128.23 1405.21 1146.1 1407.32 1170 1416.76 L 1170 1419.64 L 1170 1495.15 C 1146.88 1472.04 1122.9 1459.59 1089.62 1468.18 C 1079.44 1470.81 1067 1473.6 1056.66 1472.61 C 1041.5 1471.15 1031.64 1458.78 1016.03 1457.19 C 997.321 1455.29 984.497 1462.35 970.628 1473.07 C 971.499 1468.5 975.446 1451.15 974.833 1448.3 L 973.854 1448.62 C 970.821 1456.21 968.823 1468.62 966.987 1477.13 C 953.382 1488 941.935 1497.14 923.075 1495.08 C 918.213 1494.55 911.515 1493.31 907.237 1490.92 C 921 1458.32 960.336 1387.91 999.819 1383.96 L 999.831 1381.87 z" fill="rgb(255,209,102)" transform="translate(0,0)"></path>
<path d="M 999.831 1381.87 C 1018.95 1381.46 1039.27 1383.96 1055.78 1395.15 C 1062.83 1399.93 1067.3 1408.01 1075.84 1409.55 C 1084.22 1411.07 1094.09 1409.31 1102.54 1408.3 C 1128.23 1405.21 1146.1 1407.32 1170 1416.76 L 1170 1419.64 C 1148.11 1409.42 1125.18 1407.98 1101.61 1411.04 C 1093.95 1412.03 1082.66 1413.36 1075.16 1412.08 C 1066.34 1410.57 1060.5 1400.9 1052.81 1396.07 C 1036.76 1385.99 1018.06 1384.36 999.819 1383.96 L 999.831 1381.87 z" fill="rgb(43,16,22)" transform="translate(0,0)"></path>
<path d="M 966.987 1477.13 C 968.823 1468.62 970.821 1456.21 973.854 1448.62 L 974.833 1448.3 C 975.446 1451.15 971.499 1468.5 970.628 1473.07 C 965.013 1497.37 959.264 1521.64 953.379 1545.87 C 950.245 1559.18 947.766 1575.56 942.587 1587.95 L 942.004 1587.55 C 946.045 1555.84 960.515 1509.95 966.987 1477.13 z" fill="rgb(43,16,22)" transform="translate(0,0)"></path>
<path d="M 1102.82 1491.68 C 1103.01 1491.8 1103.2 1491.91 1103.37 1492.05 C 1107.23 1495.36 1147.5 1623.38 1148.13 1633.31 C 1144.22 1630.03 1105.92 1505.28 1102.82 1491.68 z" fill="rgb(43,16,22)" transform="translate(0,0)"></path>
<path d="M 1027.18 1473.55 C 1027.77 1473.78 1028.83 1474.06 1028.96 1474.54 C 1033.32 1491.74 1055.15 1582.82 1055.04 1593.28 C 1050.47 1586.89 1030.06 1488.06 1027.18 1473.55 z" fill="rgb(43,16,22)" transform="translate(0,0)"></path>
<path d="M 999.831 1381.87 C 1004.95 1377.76 1038.27 1365.32 1046.7 1361.94 C 1087.91 1345.38 1129.03 1329.98 1170 1312.72 L 1170 1416.76 C 1146.1 1407.32 1128.23 1405.21 1102.54 1408.3 C 1094.09 1409.31 1084.22 1411.07 1075.84 1409.55 C 1067.3 1408.01 1062.83 1399.93 1055.78 1395.15 C 1039.27 1383.96 1018.95 1381.46 999.831 1381.87 z" fill="rgb(245,237,230)" transform="translate(0,0)"></path>
<path d="M 1087.11 1357.13 C 1091.78 1356.8 1132.01 1366.56 1135.25 1368.92 C 1129.66 1370.82 1091.88 1360.98 1087.11 1357.13 z" fill="rgb(58,36,32)" transform="translate(0,0)"></path>
<path d="M 244.995 249.786 C 255.375 250.139 302.426 262.658 316.336 265.9 L 407.897 287.068 C 423.273 290.584 439.33 293.711 454.48 297.699 C 454.169 366.44 454.28 435.181 454.815 503.92 L 454.89 960.53 C 450.199 960.839 445.853 960.732 441.171 960.661 L 438.941 958.913 C 416.618 962.793 374.277 964.901 349.806 966.863 C 324.209 968.914 286.702 973.354 262.085 973.929 L 259.831 973.97 L 259.74 972.171 C 256.983 975.45 249.004 974.999 244.751 975.083 C 245.836 933.663 244.946 888.034 244.949 846.376 L 244.957 602.196 C 244.837 501.114 246.728 395.956 244.846 295.349 C 245.564 282.005 245.005 263.51 244.995 249.786 z" fill="rgb(43,16,22)" transform="translate(0,0)"></path>
<path d="M 262.026 602.966 C 320.146 607.122 380.38 615.457 438.959 620.198 L 438.941 958.913 C 416.618 962.793 374.277 964.901 349.806 966.863 C 324.209 968.914 286.702 973.354 262.085 973.929 L 262.026 602.966 z" fill="rgb(255,209,102)" transform="translate(0,0)"></path>
<path d="M 244.995 249.786 C 255.375 250.139 302.426 262.658 316.336 265.9 L 407.897 287.068 C 423.273 290.584 439.33 293.711 454.48 297.699 C 454.169 366.44 454.28 435.181 454.815 503.92 C 449.358 504.846 445.405 508.587 441.152 509.808 L 441.109 377.317 C 441.114 355.827 440.268 326.14 441.627 305.574 L 328.373 278.645 C 306.143 273.426 281.625 268.12 259.764 262.137 L 259.821 505.757 C 259.817 542.818 261.208 590.473 259.751 626.504 C 259.19 620.848 259.417 610.187 259.381 604.159 C 255.183 603.913 249.249 602.84 244.957 602.196 C 244.837 501.114 246.728 395.956 244.846 295.349 C 245.564 282.005 245.005 263.51 244.995 249.786 z" fill="rgb(255,90,31)" transform="translate(0,0)"></path>
<path d="M 441.152 509.808 C 445.405 508.587 449.358 504.846 454.815 503.92 L 454.89 960.53 C 450.199 960.839 445.853 960.732 441.171 960.661 C 440.534 944.094 441.027 924.936 441.031 908.059 L 441.063 809.362 L 441.152 509.808 z" fill="rgb(255,209,102)" transform="translate(0,0)"></path>
<path d="M 244.957 602.196 C 249.249 602.84 255.183 603.913 259.381 604.159 C 259.417 610.187 259.19 620.848 259.751 626.504 L 259.868 835.688 C 259.849 880.42 260.574 927.662 259.74 972.171 C 256.983 975.45 249.004 974.999 244.751 975.083 C 245.836 933.663 244.946 888.034 244.949 846.376 L 244.957 602.196 z" fill="rgb(255,209,102)" transform="translate(0,0)"></path>
<path d="M 262.021 265.191 C 284.293 271.13 306.489 275.821 328.917 281.102 L 438.965 307.083 L 438.757 545.504 C 438.964 569.78 439.024 594.056 438.938 618.332 C 404.815 614.537 370.658 611.053 336.472 607.881 C 317.42 605.949 296.219 603.117 277.342 601.729 C 272.425 601.357 267.007 600.45 262.086 599.738 L 262.021 265.191 z" fill="rgb(255,90,31)" transform="translate(0,0)"></path>
<path d="M 277.342 601.729 L 277.405 601.153 C 280.987 595.8 419.664 521.969 438.31 511.902 C 438.292 523.12 438.173 534.298 438.757 545.504 C 438.964 569.78 439.024 594.056 438.938 618.332 C 404.815 614.537 370.658 611.053 336.472 607.881 C 317.42 605.949 296.219 603.117 277.342 601.729 z" fill="rgb(255,209,102)" transform="translate(0,0)"></path>
<path d="M 262.085 973.929 C 286.702 973.354 324.209 968.914 349.806 966.863 C 374.277 964.901 416.618 962.793 438.941 958.913 L 441.171 960.661 L 441.109 977.625 L 440.895 1108.51 C 440.902 1112.99 441.144 1120.16 440.837 1124.42 C 440.885 1136.41 440.173 1221.65 441.913 1223.72 L 447.559 1225.9 C 471.498 1221.14 498.626 1213.81 522.333 1210.09 C 529.329 1208.99 566.116 1217.74 574.862 1219.55 L 681.388 1241.66 C 718.92 1249.58 756.927 1256.37 794.514 1264.15 C 812.884 1267.95 832.629 1271.26 850.648 1275.95 L 630.992 1328.54 L 541.33 1350.99 C 533.026 1353.08 491.912 1364.19 486.287 1363.26 C 471.753 1360.87 443.708 1353.83 428.534 1350.24 L 290.803 1317.34 C 275.526 1313.63 168.343 1289.42 163.807 1286.4 C 178.985 1283.83 194.233 1279.17 209.635 1276.22 L 251.318 1267.04 L 245.996 1266.06 L 259.898 1263.18 C 260.013 1224.93 259.9 1186.67 259.561 1148.42 C 258.978 1139.95 259.34 1123.95 259.806 1115.71 C 258.332 1077.43 259.854 1030.18 259.714 991.143 C 259.272 985.409 259.615 979.716 259.831 973.97 L 262.085 973.929 z" fill="rgb(245,237,230)" transform="translate(0,0)"></path>
<path d="M 262.085 973.929 C 286.702 973.354 324.209 968.914 349.806 966.863 C 374.277 964.901 416.618 962.793 438.941 958.913 L 441.171 960.661 L 441.109 977.625 L 440.895 1108.51 C 440.902 1112.99 441.144 1120.16 440.837 1124.42 L 438.74 1125.04 C 412.95 1127.18 378.179 1133.78 351.197 1137.2 L 291.781 1144.55 C 286.443 1145.22 266.669 1147.55 261.769 1148.85 L 259.561 1148.42 C 258.978 1139.95 259.34 1123.95 259.806 1115.71 C 258.332 1077.43 259.854 1030.18 259.714 991.143 C 259.272 985.409 259.615 979.716 259.831 973.97 L 262.085 973.929 z" fill="rgb(255,90,31)" transform="translate(0,0)"></path>
<path d="M 262.085 973.929 C 286.702 973.354 324.209 968.914 349.806 966.863 C 374.277 964.901 416.618 962.793 438.941 958.913 L 441.171 960.661 L 441.109 977.625 L 438.958 976.447 C 439.144 989.341 439.155 1002.24 438.993 1015.13 C 381.66 1021.84 318.577 1027.74 262.09 1036.23 C 262.07 1022.61 262.47 1005.8 261.81 992.436 L 259.714 991.143 C 259.272 985.409 259.615 979.716 259.831 973.97 L 262.085 973.929 z" fill="rgb(255,90,31)" transform="translate(0,0)"></path>
<path d="M 262.085 973.929 C 286.702 973.354 324.209 968.914 349.806 966.863 C 374.277 964.901 416.618 962.793 438.941 958.913 L 441.171 960.661 L 441.109 977.625 L 438.958 976.447 C 432.731 976.113 398.246 980.108 389.112 980.907 C 346.658 984.518 304.223 988.361 261.81 992.436 L 259.714 991.143 C 259.272 985.409 259.615 979.716 259.831 973.97 L 262.085 973.929 z" fill="rgb(58,36,32)" transform="translate(0,0)"></path>
<path d="M 438.958 976.447 L 441.109 977.625 L 440.895 1108.51 L 439.052 1108.23 C 438.833 1093.27 438.761 1078.31 438.836 1063.35 C 400.381 1068.19 361.96 1073.28 323.573 1078.63 C 305.432 1081.13 279.517 1083.99 261.899 1087.47 C 261.946 1095.74 262.613 1125.2 261.403 1132.29 L 260.573 1132.03 C 260.492 1126.58 260.236 1121.14 259.806 1115.71 C 258.332 1077.43 259.854 1030.18 259.714 991.143 L 261.81 992.436 C 262.47 1005.8 262.07 1022.61 262.09 1036.23 C 318.577 1027.74 381.66 1021.84 438.993 1015.13 C 439.155 1002.24 439.144 989.341 438.958 976.447 z" fill="rgb(43,16,22)" transform="translate(0,0)"></path>
<path d="M 433.046 1018.42 C 435.677 1017.97 435.837 1017.87 438.355 1018.55 C 439.738 1024.4 439.007 1053.14 438.929 1060.93 C 382.27 1068.18 325.661 1075.82 269.109 1083.86 C 266.435 1084.27 264.763 1084.87 262.47 1083.62 C 261.354 1075.47 261.991 1047.98 262.021 1038.38 C 278.274 1037.01 298.379 1033.99 314.995 1032.04 L 433.046 1018.42 z" fill="rgb(255,90,31)" transform="translate(0,0)"></path>
<path d="M 439.052 1108.23 L 440.895 1108.51 C 440.902 1112.99 441.144 1120.16 440.837 1124.42 L 438.74 1125.04 C 412.95 1127.18 378.179 1133.78 351.197 1137.2 L 291.781 1144.55 C 286.443 1145.22 266.669 1147.55 261.769 1148.85 L 259.561 1148.42 C 258.978 1139.95 259.34 1123.95 259.806 1115.71 C 260.236 1121.14 260.492 1126.58 260.573 1132.03 L 261.403 1132.29 L 372.24 1117.59 C 392.801 1114.89 419.012 1112.03 439.052 1108.23 z" fill="rgb(58,36,32)" transform="translate(0,0)"></path>
<path d="M 438.74 1125.04 L 440.837 1124.42 C 440.885 1136.41 440.173 1221.65 441.913 1223.72 L 447.559 1225.9 L 319.211 1253.03 C 297.234 1257.67 273.333 1263.17 251.318 1267.04 L 245.996 1266.06 L 259.898 1263.18 C 260.013 1224.93 259.9 1186.67 259.561 1148.42 L 261.769 1148.85 C 266.669 1147.55 286.443 1145.22 291.781 1144.55 L 351.197 1137.2 C 378.179 1133.78 412.95 1127.18 438.74 1125.04 z" fill="rgb(43,16,22)" transform="translate(0,0)"></path>
<path d="M 261.769 1148.85 C 266.669 1147.55 286.443 1145.22 291.781 1144.55 L 351.197 1137.2 C 378.179 1133.78 412.95 1127.18 438.74 1125.04 L 438.647 1173.03 L 262.087 1201.46 C 262.039 1184.4 262.349 1165.79 261.769 1148.85 z" fill="rgb(255,90,31)" transform="translate(0,0)"></path>
<path d="M 437.942 1175.48 C 439.865 1179.49 439.049 1217.98 439.015 1224.5 C 380.568 1237.58 322.016 1250.18 263.364 1262.3 C 261.21 1259.43 262.027 1211.36 262.044 1203.58 C 278.291 1202.07 303.294 1197.26 320.222 1194.57 L 437.942 1175.48 z" fill="rgb(255,90,31)" transform="translate(0,0)"></path>
<path d="M 575.856 1232.03 C 585.672 1239.49 600.547 1246.92 611.711 1252.87 C 619.1 1249.38 624.332 1246.22 631.13 1241.79 C 662.071 1255.02 693.879 1262.21 727.099 1266.59 C 734.589 1267.58 742.285 1268.23 749.621 1269.99 C 718.715 1287.09 677.38 1306.96 645.613 1322.36 C 629.713 1317.48 598.35 1308.18 585.922 1298.79 C 566.987 1305.74 526.59 1313.63 505 1318.47 C 498.29 1311.4 490.865 1304.33 483.88 1297.48 C 475.283 1305 466.236 1311.05 456.864 1317.5 C 451.495 1320.97 445.92 1324.39 440.498 1327.8 C 426.248 1325.13 411.198 1321.02 396.556 1318.07 L 378.449 1327.12 C 343.653 1315.6 308.958 1303.78 274.366 1291.66 C 295.656 1283.79 317.068 1276.25 338.594 1269.04 C 346.078 1266.54 375.161 1257.39 380.963 1254.05 C 401.138 1259.52 444.342 1265.3 467.06 1269.2 C 463.076 1260.47 459.233 1253.13 454.681 1244.67 C 499.293 1248.31 532.916 1249.76 575.856 1232.03 z" fill="rgb(43,16,22)" transform="translate(0,0)"></path>
<path d="M 575.138 1235.09 C 590.957 1245.28 626.782 1265.42 643.366 1273.86 C 604.059 1294.71 549.036 1306.03 505.869 1315.3 L 485.747 1295.73 C 492.266 1289.16 502.44 1280.6 509.568 1274.14 C 497.918 1273.97 481.944 1271.16 470.106 1269.44 C 466.716 1261.76 463.304 1255.15 459.415 1247.71 C 500.378 1250.67 536.039 1251.19 575.138 1235.09 z" fill="rgb(245,237,230)" transform="translate(0,0)"></path>
<path d="M 532.033 1256.43 C 543.626 1263.52 483.443 1260.5 480.249 1260.05 C 476.833 1255.65 486.199 1257.63 487.753 1257.81 C 503.171 1259.62 516.685 1258.43 532.033 1256.43 z" fill="rgb(58,36,32)" transform="translate(0,0)"></path>
<path d="M 572.943 1288.15 C 574.558 1289.07 575.747 1290.02 573 1290.89 C 560.137 1294.97 546.827 1298.23 533.537 1300.57 C 532.693 1300.5 532.471 1300.65 531.94 1299.93 C 531.952 1298.01 534.528 1297.38 536.006 1297.11 C 548.547 1294.8 560.679 1291.54 572.943 1288.15 z" fill="rgb(58,36,32)" transform="translate(0,0)"></path>
<path d="M 562.219 1282.24 C 565.947 1284.6 562.429 1285.34 560.021 1285.98 C 549.154 1288.89 538.032 1290.85 527.191 1293.77 C 526.123 1293.21 525.062 1292.78 525.072 1291.44 C 525.095 1291.4 558.432 1283.31 562.219 1282.24 z" fill="rgb(43,16,22)" transform="translate(0,0)"></path>
<path d="M 551.717 1277.18 C 552.594 1277.09 553.709 1276.89 554.151 1277.99 C 554.228 1278.18 554.286 1278.86 554.012 1278.95 C 543.3 1282.58 530.413 1284.61 519.229 1286.73 C 518.975 1286.74 514.953 1287.03 516.16 1284.71 C 516.613 1283.84 520.594 1283.48 521.823 1283.28 C 531.874 1281.65 541.771 1279.34 551.717 1277.18 z" fill="rgb(43,16,22)" transform="translate(0,0)"></path>
<path d="M 617.456 1269.97 C 626.133 1271.57 593.834 1281.97 591.593 1283.01 C 590.243 1283.1 590.286 1283.23 589.038 1282.71 L 589.139 1282.82 C 588.718 1279.26 613.584 1271.34 617.456 1269.97 z" fill="rgb(58,36,32)" transform="translate(0,0)"></path>
<path d="M 606.624 1263.95 C 617.682 1263.98 584.56 1277.04 584.421 1277.1 C 581.919 1278.1 580.922 1275.19 583.164 1274.28 C 591.083 1271.08 598.905 1267.61 606.624 1263.95 z" fill="rgb(58,36,32)" transform="translate(0,0)"></path>
<path d="M 597.808 1258.99 C 598.606 1259.13 601.218 1259.45 600.38 1261.05 C 599.844 1262.08 597.48 1262.56 596.516 1262.88 C 590.362 1264.91 584.289 1267.38 578.381 1270.05 C 569.467 1268.6 597.189 1259.23 597.808 1258.99 z" fill="rgb(43,16,22)" transform="translate(0,0)"></path>
<path d="M 571.847 1244.18 C 574.586 1248.18 551.803 1253.88 548.384 1254.91 C 545.321 1251.12 567.946 1245.41 571.847 1244.18 z" fill="rgb(43,16,22)" transform="translate(0,0)"></path>
<path d="M 382.198 1257.08 C 421.942 1264.73 461.895 1271.24 502.008 1276.63 C 480.756 1297.12 466.17 1311.08 439.276 1325.32 L 425.783 1322.24 C 411.171 1318.16 395.116 1315.31 380.309 1311.47 C 353.23 1304.35 326.618 1295.56 300.624 1285.16 C 328.422 1275.37 354.032 1266.33 382.198 1257.08 z" fill="rgb(255,90,31)" transform="translate(0,0)"></path>
<path d="M 360.308 1275.28 C 370.753 1274.8 385.808 1280.18 396.334 1281.92 C 399.416 1282.43 401.043 1282.88 401.901 1285.78 C 396.475 1285.52 366.441 1279.57 360.687 1277.6 C 360.3 1277.13 360.351 1275.93 360.308 1275.28 z" fill="rgb(58,36,32)" transform="translate(0,0)"></path>
<path d="M 380.926 1265.26 C 387.043 1264.61 422.193 1269.93 426.504 1273.41 C 420.354 1275.1 386.349 1268.83 380.926 1265.26 z" fill="rgb(43,16,22)" transform="translate(0,0)"></path>
<path d="M 371.344 1269.24 C 382.467 1269.95 396.389 1275.56 408.012 1276.22 C 410.711 1276.37 411.309 1277.55 412.574 1279.43 C 402.819 1280.64 390.457 1275.26 380.475 1274.11 C 376.067 1273.6 373.543 1272.97 371.344 1269.24 z" fill="rgb(58,36,32)" transform="translate(0,0)"></path>
<path d="M 399.682 1307.34 C 406.266 1306.54 435.267 1311.37 438.485 1316.09 C 426.194 1316.08 413.918 1310.35 401.574 1309.58 C 400.666 1309.53 400.073 1308.04 399.682 1307.34 z" fill="rgb(43,16,22)" transform="translate(0,0)"></path>
<path d="M 350.743 1280.16 C 357.32 1279.76 379.564 1286.37 387.658 1287.36 C 388.199 1287.42 388.646 1289.14 388.82 1289.69 C 378.145 1288.87 362.405 1285.08 351.643 1282.77 C 351.102 1282.66 350.843 1280.63 350.743 1280.16 z" fill="rgb(43,16,22)" transform="translate(0,0)"></path>
<path d="M 413.377 1301.29 C 415.88 1301.46 445.605 1306.8 447.259 1307.49 C 447.608 1307.94 447.462 1308.87 447.452 1309.49 C 442.608 1310.21 414.432 1305.72 413.377 1301.29 z" fill="rgb(43,16,22)" transform="translate(0,0)"></path>
<path d="M 425.102 1296.77 C 428.475 1296.19 452.846 1300.41 455.838 1303.77 C 453.26 1303.82 427.483 1299.65 425.283 1298.59 C 425.013 1298.08 425.107 1297.33 425.102 1296.77 z" fill="rgb(43,16,22)" transform="translate(0,0)"></path>
<path d="M 630.897 1244.77 C 666.185 1258.58 705.116 1268.31 743.064 1270.64 C 716.376 1284.42 689.519 1297.86 662.5 1310.98 C 656.673 1314.01 651.474 1316.35 645.484 1319 C 627.144 1314.68 605.274 1306.76 588.644 1298 C 611.671 1290.31 627.069 1284.29 649.065 1274.05 C 642.625 1269.58 622.505 1258.82 614.704 1254.31 C 619.938 1251.43 625.703 1247.85 630.897 1244.77 z" fill="rgb(255,209,102)" transform="translate(0,0)"></path>
<path d="M 629.258 1291.16 C 636.575 1290.81 659.69 1298.12 664.09 1302.87 C 656.976 1303.06 636.086 1294.61 629.258 1291.16 z" fill="rgb(43,16,22)" transform="translate(0,0)"></path>
<path d="M 621.002 1295.15 C 625.411 1295.56 651.64 1305.47 653.408 1308.94 C 646.951 1308.01 623.725 1300.35 621.002 1295.15 z" fill="rgb(43,16,22)" transform="translate(0,0)"></path>
<path d="M 643.128 1285.14 C 648.312 1285.82 669.97 1294.03 672.491 1298.34 C 667.615 1297.38 644.919 1289 643.128 1285.14 z" fill="rgb(43,16,22)" transform="translate(0,0)"></path>
<path d="M 297.433 1286.14 C 311.792 1294.54 376.63 1314.22 393.337 1316.84 C 387.948 1319.6 383.133 1321.7 377.598 1324.09 C 368.413 1321.65 354.784 1316.6 345.548 1313.48 C 324.192 1306.32 302.899 1298.97 281.67 1291.44 C 287.298 1289.88 291.986 1288.15 297.433 1286.14 z" fill="rgb(255,90,31)" transform="translate(0,0)"></path>
<path d="M 788.623 1720.36 C 785.944 1721.6 783.257 1722.82 780.56 1724.02 C 742.052 1741.1 703.765 1745.58 663.699 1730.04 C 627.67 1716.14 598.694 1688.41 583.218 1653.03 C 567.082 1616.79 566.135 1575.6 580.589 1538.67 C 594.679 1502.91 622.53 1474.31 657.896 1459.27 C 698.996 1441.62 735.832 1443.97 776.441 1460.19 L 792.827 1468.48 C 826.847 1490.43 850.878 1521.78 859.521 1561.78 C 867.731 1600.2 860.376 1640.31 839.067 1673.31 C 827.566 1691.03 811.134 1706.45 793.228 1717.57 L 788.623 1720.36 z" fill="rgb(255,90,31)" transform="translate(0,0)"></path>
<path d="M 663.916 1461.5 C 697.474 1450.75 739.273 1446.36 771.745 1462.95 L 772.575 1463.38 C 781.896 1467.79 789.42 1471.95 797.873 1477.96 C 844.649 1506.7 862.596 1564.2 856.572 1616.52 C 849.987 1614.36 841.614 1613.2 834.66 1612.66 C 835.541 1606.99 838.032 1593.69 835.795 1588.8 L 833.121 1590 C 833.135 1596.6 832.081 1605.9 831.479 1612.68 C 824.248 1611.17 815.664 1609.98 808.275 1608.77 C 808.942 1601.39 809.44 1596.66 809.038 1589.24 L 807.144 1588.24 L 807.37 1587.2 L 808.836 1587.21 L 808.343 1585.47 L 807.558 1585.92 C 805.407 1592.77 805.27 1601.23 804.792 1608.5 C 799.124 1607.28 792.391 1606.65 786.564 1605.96 C 786.774 1600.57 787.997 1586.2 785.222 1582.19 C 781.391 1587.27 783.3 1599.39 782.523 1606.97 C 788.846 1609.37 800.93 1607.58 804.082 1612.96 L 803.819 1616.5 L 805.328 1620.68 L 805.612 1620.09 C 806.755 1617.67 807.064 1616.76 807.752 1614.19 C 813.19 1609.3 823.294 1613.95 830.721 1615.14 C 827.98 1625.65 822.745 1640.62 821.011 1650.16 C 827.499 1640.22 831.415 1627.13 833.959 1615.57 C 840.406 1616.61 849.702 1617.82 855.859 1619.2 C 847.066 1658.05 828.418 1689.42 794.243 1710.95 C 783.387 1717.7 771.766 1723.14 759.625 1727.15 C 758.277 1719.72 756.83 1712.31 755.286 1704.93 C 762.552 1701.98 770.555 1698.82 776.94 1694.22 L 775.192 1693.35 C 771.981 1693.25 758.778 1699.59 754.482 1701.32 L 749.207 1682.5 C 755.259 1680.1 757.824 1679.12 763.412 1675.5 L 763.767 1673.76 L 765.938 1673.41 L 764.917 1674.45 L 764.809 1673.41 L 765.917 1673.31 C 761.348 1673.32 753.123 1677.74 748.62 1679.88 L 742.599 1659.05 C 746.421 1657.73 748.879 1656.66 752.554 1654.95 L 752.052 1655.01 L 752.215 1652.93 L 754.298 1652.7 L 754.686 1653.36 L 754.954 1652.81 C 750.778 1651.61 742.136 1655.47 737.793 1657.11 C 739.683 1662.06 745.753 1675.39 743.942 1680.81 C 743.559 1681.96 740.894 1682.52 739.356 1683.07 L 737.039 1684.92 C 741.287 1684.53 745.966 1682.96 747.791 1688.39 C 749.308 1692.9 749.816 1697.96 751.12 1702.57 C 743.181 1704.69 736.372 1706.23 728.003 1706.14 L 724.958 1708.79 C 730.038 1712.18 746.451 1707.41 752.305 1706.02 C 753.398 1712.63 755.67 1721.4 757.215 1728.09 C 745.853 1731.1 734.231 1733.03 722.506 1733.84 C 680.266 1736.49 648.178 1721.79 617.018 1694.39 L 635.015 1679.27 C 643.827 1686.55 646.877 1688.99 657.349 1693.87 L 657.748 1693.18 C 651.489 1687.1 644.869 1683.04 637.785 1677.92 C 642.618 1673.29 647.675 1667.94 652.401 1663.12 C 655.395 1665.5 668.343 1675.5 671.543 1675.24 L 672.24 1675.96 C 668.062 1670.67 658.408 1663.72 652.783 1659.38 L 649.011 1661.98 C 646.616 1664.2 638.065 1671.85 636.395 1673.91 L 634.838 1674.43 C 630.447 1670.78 628.215 1667.53 625.028 1662.86 L 621.192 1664.09 C 624.565 1668.19 628.887 1673.78 632.65 1677.33 L 614.447 1691.98 C 585.794 1658.59 573.339 1626.82 575.513 1582.43 C 581.478 1583.73 591.238 1584.34 597.646 1584.9 C 597.56 1589.53 597.077 1594.75 598.755 1598.97 L 599.915 1599.18 C 601.387 1595.18 600.424 1589.51 600.033 1585.1 C 608.331 1586.39 615.206 1584.78 622.002 1588.34 C 624.246 1592.06 623.411 1592.02 623.185 1597.19 C 624.162 1601.48 623.325 1600.97 626.163 1603.13 C 626.733 1600.56 626.044 1590.88 625.898 1587.71 C 633.052 1587.95 640.736 1588.55 647.924 1588.99 C 647.908 1595.07 647.484 1598.34 649.603 1604.04 C 651.534 1600.95 651.209 1588.92 648.535 1585.67 C 646.875 1584.97 631.659 1585.54 625.897 1585 C 626.307 1581.27 627.276 1576.54 625.352 1573.47 C 623.397 1576.44 623.444 1581.22 623.138 1584.94 C 616.021 1584.02 607.679 1583.44 600.445 1582.75 C 601.094 1576.67 607.588 1554.09 604.685 1550.91 C 601.029 1554.32 597.995 1576.45 597.648 1582.46 L 575.729 1580.78 C 576.902 1566.03 580.348 1551.55 585.945 1537.85 C 600.199 1503.75 627.52 1476.79 661.801 1462.98 C 664.319 1470.29 666.543 1476.66 669.555 1483.77 C 662.801 1487.07 649.144 1493.2 645.291 1499.66 L 648.126 1501.04 C 655.783 1494.73 661.932 1491.11 670.875 1486.64 C 673.6 1494.21 675.672 1499.3 679.101 1506.58 C 673.888 1509.11 661.316 1515.34 657.043 1519.04 L 658.347 1521.03 C 666.021 1516.84 673.552 1512.07 681.642 1508.84 L 681.606 1505.71 C 679.204 1500.91 675.565 1490.66 673.496 1485.3 C 679.572 1483.06 685.143 1481.36 690.425 1477.59 L 689.936 1476.95 L 689.937 1477.77 L 688.801 1477.09 L 689.037 1478.28 L 687.781 1477.29 C 683.379 1478.1 676.367 1480.98 671.961 1482.63 C 669.307 1474.68 667.406 1469.08 663.916 1461.5 z" fill="rgb(58,36,32)" transform="translate(0,0)"></path>
<path d="M 684.195 1504.03 C 685.579 1493.96 688.401 1484.1 695.807 1476.31 C 709.487 1461.92 737.599 1459.3 752.701 1472.91 C 756.731 1476.54 757.259 1480.17 757.344 1485.36 C 761.455 1486.28 767.163 1487.35 770.943 1488.88 L 772.111 1487.23 C 771.236 1485.94 771.976 1468.5 772.182 1465.71 C 780.577 1470.31 788.42 1473.29 796.053 1479.62 C 795.877 1488.63 796.413 1491.94 795.018 1501.03 L 797.046 1501.34 C 801.083 1497.74 805.548 1493.17 810.489 1491.28 L 810.762 1492.41 C 807.081 1497.81 801.351 1501.69 796.033 1505.55 C 803.504 1511.97 807.189 1515.43 812.669 1523.91 L 812.68 1525.27 L 813.165 1525.53 L 812.87 1524.33 L 813.071 1525.67 C 805.41 1521.12 799.909 1513.31 793.786 1506.98 C 790.58 1510.06 780.892 1518.82 779.295 1522.05 C 780.294 1523.76 780.985 1524.85 782.115 1526.48 L 781.131 1527.8 C 778.943 1526.87 778.471 1526.28 776.649 1524.69 C 772.805 1526.29 763.45 1537.45 760.2 1541.11 L 759.389 1540.5 C 754.235 1536.74 737.507 1530.44 736.627 1527.34 C 745.951 1529.02 751.586 1532.29 760.107 1536.34 L 774.084 1521.89 C 763.94 1514.49 757.571 1511.01 746.035 1505.99 L 746.58 1503.22 C 756.672 1506.69 767.804 1513.34 776.138 1520 L 790.974 1505.6 C 777.955 1495.89 771.875 1492.23 756.199 1487.26 C 752.301 1493.08 750.089 1496.13 745.512 1501.46 L 743.487 1504.49 C 733.744 1520.37 729.394 1535.77 726.61 1554.14 C 716.549 1553.53 712.055 1553.19 702.065 1555.84 C 692.509 1540.15 686.31 1530.67 683.882 1511.84 L 684.195 1504.03 z" fill="rgb(255,90,31)" transform="translate(0,0)"></path>
<path d="M 772.182 1465.71 C 780.577 1470.31 788.42 1473.29 796.053 1479.62 C 795.877 1488.63 796.413 1491.94 795.018 1501.03 C 786.293 1494.25 782.688 1491.78 772.111 1487.23 C 771.236 1485.94 771.976 1468.5 772.182 1465.71 z" fill="rgb(255,90,31)" transform="translate(0,0)"></path>
<path d="M 772.111 1487.23 C 782.688 1491.78 786.293 1494.25 795.018 1501.03 L 797.046 1501.34 C 792.269 1504.6 794.457 1503.97 790.115 1500.45 C 784.376 1495.78 777.501 1492.28 770.943 1488.88 L 772.111 1487.23 z" fill="rgb(43,16,22)" transform="translate(0,0)"></path>
<path d="M 692.04 1563.89 C 712.646 1553.14 724.795 1552.14 742.786 1568.68 C 752.14 1581.81 753.898 1586.86 751.545 1603.32 C 747.531 1612.92 745.777 1615.92 737.898 1623.06 C 721.629 1633.36 709.531 1631.76 693.177 1623.26 C 685.229 1616.43 682.52 1613.65 678.567 1604.11 C 677.285 1596.77 677.008 1595.3 677.429 1587.77 C 680.247 1575.64 682.816 1572.05 692.04 1563.89 z" fill="rgb(255,90,31)" transform="translate(0,0)"></path>
<path d="M 710.251 1575.43 C 720.024 1572.82 730.085 1578.51 732.894 1588.23 C 735.703 1597.94 730.23 1608.12 720.576 1611.14 C 714.146 1613.15 707.133 1611.52 702.245 1606.88 C 697.356 1602.25 695.356 1595.33 697.018 1588.81 C 698.679 1582.28 703.742 1577.16 710.251 1575.43 z" fill="rgb(43,16,22)" transform="translate(0,0)"></path>
<path d="M 712.79 1577.49 C 721.538 1576.24 729.656 1582.28 730.959 1591.02 C 732.261 1599.77 726.258 1607.92 717.525 1609.27 C 708.723 1610.63 700.493 1604.57 699.181 1595.76 C 697.868 1586.95 703.973 1578.75 712.79 1577.49 z" fill="rgb(245,237,230)" transform="translate(0,0)"></path>
<path d="M 676.097 1585.08 C 653.488 1583.75 622.352 1573.4 609.759 1553.76 C 595.067 1530.85 616.075 1493.93 643.796 1501.24 L 647.109 1503.04 C 649.803 1508.67 651.712 1513.11 653.997 1518.87 L 656.821 1523.14 C 665.328 1536.49 678.31 1552.73 691.602 1561.55 C 683.356 1568.39 678.202 1574.23 676.097 1585.08 z" fill="rgb(255,90,31)" transform="translate(0,0)"></path>
<path d="M 743.837 1565.56 C 756.534 1539.77 789.908 1517.8 818.367 1531.33 C 837.293 1540.33 850.951 1570.48 833.725 1586.59 L 832.561 1587.08 C 823.969 1587.51 810.773 1582.63 801.887 1581.33 C 796.983 1580.62 790.804 1580.96 785.787 1581.13 C 774.821 1582.05 766.565 1584.04 755.981 1586.75 C 752.332 1577.46 749.792 1573.13 743.837 1565.56 z" fill="rgb(255,90,31)" transform="translate(0,0)"></path>
<path d="M 754.829 1602.55 C 762.741 1603.96 771.382 1605.73 778.938 1608.55 C 788.156 1611.48 793.543 1614.6 801.742 1619.83 L 804.973 1622.22 C 833.381 1648.74 813.462 1691.78 782.601 1691.89 C 781.203 1691.89 779.806 1691.86 778.409 1691.81 C 771.965 1687.52 767.283 1663.61 759.809 1652.18 C 751.124 1638.9 750.556 1637.37 738.963 1625.44 C 747.553 1619.25 750.927 1611.84 754.829 1602.55 z" fill="rgb(255,90,31)" transform="translate(0,0)"></path>
<path d="M 700.124 1629.93 C 710.002 1632.54 716.457 1634.33 726.707 1631.39 C 733.149 1648.75 735.213 1655.05 735.848 1673.62 C 735.616 1675.92 735.108 1679.7 735.086 1681.88 C 733.278 1690.16 731.346 1695.46 727.274 1703.06 L 722.327 1708.72 C 708.078 1717.16 690.789 1719.68 675.818 1712.07 C 656.8 1702.39 657.588 1692.48 672.295 1678.95 C 679.134 1672.66 686.125 1663.41 690.611 1655.23 C 694.564 1646.38 697.486 1639.31 700.124 1629.93 z" fill="rgb(255,90,31)" transform="translate(0,0)"></path>
<path d="M 621.336 1659.41 C 602.655 1657.3 591.126 1631.24 593.576 1614.56 C 595.986 1598.16 610.628 1603.09 621.288 1605.59 L 622.923 1605.78 C 635.19 1608.64 654.178 1607.2 666.467 1604.91 C 669.331 1604.38 673.5 1603.12 675.847 1604.12 C 679.889 1614.45 683.424 1618.97 691.902 1626.31 C 686.019 1632.08 679.166 1639.29 673.259 1644.72 L 671.181 1646.24 C 663.941 1651.39 660.725 1653.26 652.924 1657.35 L 648.174 1659.49 C 639.602 1660.99 634.901 1661.04 626.13 1661.17 L 621.336 1659.41 z" fill="rgb(255,90,31)" transform="translate(0,0)"></path>
<path d="M 675.331 1646 C 679.955 1649.27 684.33 1651.74 688.32 1655.6 C 682.843 1656.11 676.79 1652.26 673.106 1648.39 L 675.331 1646 z" fill="rgb(255,90,31)" transform="translate(0,0)"></path>
<path d="M 684.36 1530.62 C 685.115 1530.82 686.538 1531.11 687.063 1531.55 C 686.903 1531.82 675.368 1538.96 673.508 1540.25 C 666.296 1538.99 682.753 1531.45 684.36 1530.62 z" fill="rgb(255,90,31)" transform="translate(0,0)"></path>
<path d="M 245.021 1351.62 C 248.712 1352.56 259.163 1353.75 259.548 1357.8 C 259.88 1357.4 261.007 1356.63 261.479 1356.28 C 290.379 1362.73 322.501 1372.26 351.59 1379.65 C 377.062 1386.12 413.961 1394.42 438.105 1402.51 C 438.964 1465.42 439.061 1528.34 438.394 1591.25 C 429.449 1594.47 387.415 1607.41 383.55 1609.73 C 385.034 1626.03 395.093 1713.03 390.555 1718.49 C 388.641 1720.79 386.889 1721.96 383.986 1722.62 C 373.652 1721.5 373.644 1715.41 372.306 1706.77 C 367.628 1676.54 364.99 1646.01 361.332 1615.68 C 346.869 1620.77 332.661 1625.15 318.013 1629.68 C 319.836 1648.21 321.77 1666.74 323.814 1685.25 C 324.765 1694.05 326.567 1703.51 326.465 1712.33 C 326.44 1714.51 326.315 1716.59 324.86 1718.34 C 322.931 1720.65 319.997 1722.19 316.963 1722.31 C 314.398 1722.41 312.008 1721.52 310.196 1719.68 C 305.238 1714.66 298.82 1648.3 297.003 1636.14 C 285.56 1639.63 272.635 1644.24 261.325 1647.28 C 260.422 1645.38 260.11 1641.26 259.8 1638.95 C 258.553 1651.88 259.128 1675.16 259.114 1688.98 L 245.102 1688.96 C 244.941 1627.97 244.429 1565.9 245.22 1504.97 C 242.203 1503.5 230.831 1503.96 226.335 1503.67 C 192.625 1502.98 166.757 1501.34 134.273 1490.84 C 123.048 1486.9 118.408 1484.88 108.495 1478.41 C 103.395 1472.25 100.747 1460.08 104.094 1452.91 L 104.981 1453.26 L 107.188 1451.44 C 106.928 1449.21 106.949 1446.63 106.893 1444.35 L 106.133 1441.71 C 111.675 1436.23 117.399 1432.13 125 1430.03 C 125.902 1430.45 126.802 1430.93 127.756 1431.18 C 147.14 1423.87 165.776 1419.02 186.041 1415.03 L 185.596 1412.84 C 190.801 1411.72 200.717 1409.77 205.722 1410.31 L 206.838 1411.77 C 219.568 1410.3 232.33 1409.11 245.113 1408.2 L 245.587 1406.21 C 244.539 1402.02 244.988 1359.15 245.021 1351.62 z" fill="rgb(255,90,31)" transform="translate(0,0)"></path>
<path d="M 370.95 1465.14 C 370.973 1467.03 370.772 1468.93 371.464 1470.72 C 371.957 1475.77 373.355 1494.73 372.812 1499.07 C 374.458 1504.49 375.615 1519.02 376.158 1525.23 L 381.048 1583.35 C 381.446 1588.12 382.652 1605.74 383.55 1609.73 C 385.034 1626.03 395.093 1713.03 390.555 1718.49 C 388.641 1720.79 386.889 1721.96 383.986 1722.62 C 373.652 1721.5 373.644 1715.41 372.306 1706.77 C 367.628 1676.54 364.99 1646.01 361.332 1615.68 C 346.869 1620.77 332.661 1625.15 318.013 1629.68 C 319.836 1648.21 321.77 1666.74 323.814 1685.25 C 324.765 1694.05 326.567 1703.51 326.465 1712.33 C 326.44 1714.51 326.315 1716.59 324.86 1718.34 C 322.931 1720.65 319.997 1722.19 316.963 1722.31 C 314.398 1722.41 312.008 1721.52 310.196 1719.68 C 305.238 1714.66 298.82 1648.3 297.003 1636.14 C 285.56 1639.63 272.635 1644.24 261.325 1647.28 C 260.422 1645.38 260.11 1641.26 259.8 1638.95 C 258.553 1651.88 259.128 1675.16 259.114 1688.98 L 245.102 1688.96 C 244.941 1627.97 244.429 1565.9 245.22 1504.97 C 242.203 1503.5 230.831 1503.96 226.335 1503.67 C 232.586 1502.68 252.606 1503.02 261.135 1502.09 C 291.44 1498.8 314.048 1492.63 342.216 1482.39 C 354.982 1475.95 359.505 1474.15 370.95 1465.14 z" fill="rgb(255,90,31)" transform="translate(0,0)"></path>
<path d="M 370.95 1465.14 C 370.973 1467.03 370.772 1468.93 371.464 1470.72 C 371.957 1475.77 373.355 1494.73 372.812 1499.07 C 374.458 1504.49 375.615 1519.02 376.158 1525.23 L 381.048 1583.35 C 381.446 1588.12 382.652 1605.74 383.55 1609.73 C 385.034 1626.03 395.093 1713.03 390.555 1718.49 C 388.641 1720.79 386.889 1721.96 383.986 1722.62 C 373.652 1721.5 373.644 1715.41 372.306 1706.77 C 367.628 1676.54 364.99 1646.01 361.332 1615.68 C 346.869 1620.77 332.661 1625.15 318.013 1629.68 C 317.54 1608.49 312.3 1577.06 310.141 1554.94 C 308.709 1540.28 306.317 1510.4 303.654 1497.06 C 317.536 1493.92 330.709 1489.07 344.048 1484.22 L 342.216 1482.39 C 354.982 1475.95 359.505 1474.15 370.95 1465.14 z" fill="rgb(255,90,31)" transform="translate(0,0)"></path>
<path d="M 372.812 1499.07 C 374.458 1504.49 375.615 1519.02 376.158 1525.23 L 381.048 1583.35 C 381.446 1588.12 382.652 1605.74 383.55 1609.73 C 385.034 1626.03 395.093 1713.03 390.555 1718.49 C 388.641 1720.79 386.889 1721.96 383.986 1722.62 C 373.652 1721.5 373.644 1715.41 372.306 1706.77 C 367.628 1676.54 364.99 1646.01 361.332 1615.68 C 356.994 1583.89 352.999 1552.05 349.347 1520.18 C 356.929 1512.75 364.979 1506.22 372.812 1499.07 z" fill="rgb(245,237,230)" transform="translate(0,0)"></path>
<path d="M 370.95 1465.14 C 370.973 1467.03 370.772 1468.93 371.464 1470.72 C 371.957 1475.77 373.355 1494.73 372.812 1499.07 C 364.979 1506.22 356.929 1512.75 349.347 1520.18 C 348.36 1513.59 346.791 1487.42 344.048 1484.22 L 342.216 1482.39 C 354.982 1475.95 359.505 1474.15 370.95 1465.14 z" fill="rgb(58,36,32)" transform="translate(0,0)"></path>
<path d="M 280.299 1501.85 C 287.945 1500.6 296.037 1498.71 303.654 1497.06 C 306.317 1510.4 308.709 1540.28 310.141 1554.94 C 312.3 1577.06 317.54 1608.49 318.013 1629.68 C 319.836 1648.21 321.77 1666.74 323.814 1685.25 C 324.765 1694.05 326.567 1703.51 326.465 1712.33 C 326.44 1714.51 326.315 1716.59 324.86 1718.34 C 322.931 1720.65 319.997 1722.19 316.963 1722.31 C 314.398 1722.41 312.008 1721.52 310.196 1719.68 C 305.238 1714.66 298.82 1648.3 297.003 1636.14 C 290.542 1591.49 284.973 1546.72 280.299 1501.85 z" fill="rgb(245,237,230)" transform="translate(0,0)"></path>
<path d="M 245.22 1504.97 C 249.719 1505.66 254.893 1505.06 259.489 1504.74 L 259.62 1595.56 C 259.629 1605.12 258.946 1630.34 259.8 1638.95 C 258.553 1651.88 259.128 1675.16 259.114 1688.98 L 245.102 1688.96 C 244.941 1627.97 244.429 1565.9 245.22 1504.97 z" fill="rgb(255,90,31)" transform="translate(0,0)"></path>
<path d="M 226.335 1503.67 C 232.586 1502.68 252.606 1503.02 261.135 1502.09 C 291.44 1498.8 314.048 1492.63 342.216 1482.39 L 344.048 1484.22 C 330.709 1489.07 317.536 1493.92 303.654 1497.06 C 296.037 1498.71 287.945 1500.6 280.299 1501.85 C 273.43 1503.09 268.946 1503.7 261.995 1504.26 L 262.004 1602.04 C 262.001 1609.74 262.417 1641.01 261.325 1647.28 C 260.422 1645.38 260.11 1641.26 259.8 1638.95 C 258.946 1630.34 259.629 1605.12 259.62 1595.56 L 259.489 1504.74 C 254.893 1505.06 249.719 1505.66 245.22 1504.97 C 242.203 1503.5 230.831 1503.96 226.335 1503.67 z" fill="rgb(43,16,22)" transform="translate(0,0)"></path>
<path d="M 261.479 1356.28 C 290.379 1362.73 322.501 1372.26 351.59 1379.65 C 377.062 1386.12 413.961 1394.42 438.105 1402.51 C 438.964 1465.42 439.061 1528.34 438.394 1591.25 C 429.449 1594.47 387.415 1607.41 383.55 1609.73 C 382.652 1605.74 381.446 1588.12 381.048 1583.35 L 376.158 1525.23 C 375.615 1519.02 374.458 1504.49 372.812 1499.07 C 373.355 1494.73 371.957 1475.77 371.464 1470.72 C 371.747 1468.61 373.484 1465.96 374.034 1463.77 C 381.441 1434.32 373.392 1424.1 345.295 1416.06 C 316.752 1407.89 291.028 1406.38 261.912 1405.56 C 261.969 1391.37 262.635 1369.81 261.479 1356.28 z" fill="rgb(255,90,31)" transform="translate(0,0)"></path>
<path d="M 104.981 1453.26 C 130.742 1483.9 214.481 1485.1 252.32 1482.34 C 285.563 1479.92 343.135 1469.84 369.651 1447.81 C 371.009 1446.68 372.325 1445.5 373.596 1444.27 C 373.859 1451.92 374.962 1458.6 370.95 1465.14 C 359.505 1474.15 354.982 1475.95 342.216 1482.39 C 314.048 1492.63 291.44 1498.8 261.135 1502.09 C 252.606 1503.02 232.586 1502.68 226.335 1503.67 C 192.625 1502.98 166.757 1501.34 134.273 1490.84 C 123.048 1486.9 118.408 1484.88 108.495 1478.41 C 103.395 1472.25 100.747 1460.08 104.094 1452.91 L 104.981 1453.26 z" fill="rgb(245,237,230)" transform="translate(0,0)"></path>
<path d="M 245.021 1351.62 C 248.712 1352.56 259.163 1353.75 259.548 1357.8 C 259.88 1357.4 261.007 1356.63 261.479 1356.28 C 262.635 1369.81 261.969 1391.37 261.912 1405.56 C 291.028 1406.38 316.752 1407.89 345.295 1416.06 C 373.392 1424.1 381.441 1434.32 374.034 1463.77 C 373.484 1465.96 371.747 1468.61 371.464 1470.72 C 370.772 1468.93 370.973 1467.03 370.95 1465.14 C 374.962 1458.6 373.859 1451.92 373.596 1444.27 C 372.325 1445.5 371.009 1446.68 369.651 1447.81 C 343.135 1469.84 285.563 1479.92 252.32 1482.34 C 214.481 1485.1 130.742 1483.9 104.981 1453.26 L 107.188 1451.44 C 108.064 1452.53 108.988 1453.59 109.955 1454.6 C 129.444 1474.91 187.71 1480.06 214.475 1480.54 C 257.936 1481.53 302.299 1475.97 342.946 1459.96 C 351.27 1456.68 373.347 1447.47 372.032 1436.05 C 371.155 1428.43 358.487 1423.91 351.985 1421.54 C 318.683 1409.36 280.42 1407.39 245.113 1408.2 L 245.587 1406.21 C 244.539 1402.02 244.988 1359.15 245.021 1351.62 z" fill="rgb(43,16,22)" transform="translate(0,0)"></path>
<path d="M 245.021 1351.62 C 248.712 1352.56 259.163 1353.75 259.548 1357.8 C 259.652 1373.75 259.607 1389.7 259.414 1405.65 C 254.243 1405.68 250.73 1405.58 245.587 1406.21 C 244.539 1402.02 244.988 1359.15 245.021 1351.62 z" fill="rgb(255,90,31)" transform="translate(0,0)"></path>
<path d="M 125 1430.03 C 125.902 1430.45 126.802 1430.93 127.756 1431.18 C 116.729 1436.06 115.461 1436.34 106.893 1444.35 L 106.133 1441.71 C 111.675 1436.23 117.399 1432.13 125 1430.03 z" fill="rgb(43,16,22)" transform="translate(0,0)"></path>
<path d="M 185.596 1412.84 C 190.801 1411.72 200.717 1409.77 205.722 1410.31 L 206.838 1411.77 C 200.36 1412.63 192.516 1413.93 186.041 1415.03 L 185.596 1412.84 z" fill="rgb(43,16,22)" transform="translate(0,0)"></path>
<path d="M 1038.71 330.594 L 1038.5 332.09 C 1015.67 337.238 987.549 341.064 964.077 344.885 L 867.512 361.234 L 782.015 375.389 C 757.763 379.544 727.268 385.09 702.927 387.546 L 703.019 578.852 C 702.936 611.167 703.627 647.943 702.315 679.936 L 936.498 674.527 C 970.159 673.791 1004.15 672.583 1037.81 672.885 L 1038.81 674.614 L 850.205 678.686 C 801.427 679.917 751.243 681.743 702.527 682.161 C 703.889 744.261 703.168 809.613 703.095 871.927 C 703.041 917.848 704.26 970.471 702.673 1015.89 C 756.513 1016.65 821.961 1028.63 874.699 1027.87 C 887.621 1015.95 896.74 1017.42 912.984 1019.5 C 917.533 1017.02 922.409 1020.1 927.234 1021.76 C 931.272 1018.45 929.281 1017.66 934.876 1017.16 C 935.93 1016.42 941.895 1009.72 943.166 1008.33 C 949.669 999.752 955.437 988.177 965.825 987.128 C 972.217 986.483 986.276 987.443 990.896 991.878 C 998.433 999.111 999.84 1009.35 1007.15 1020.31 C 1011.69 1025.9 1016.17 1031.54 1020.59 1037.23 C 1021.54 1043.26 1022.14 1041.85 1020.2 1047.05 L 1022.26 1049.5 C 1020.38 1054.09 1015.74 1065.99 1011.23 1067.79 C 1020.6 1068.16 1028.83 1069.22 1038.16 1070.37 C 1042.42 1070.78 1056.56 1071.5 1059.13 1073.63 L 1061.93 1075.37 C 1063.18 1077.77 1062.74 1112.55 1062.66 1118.09 C 1057.48 1120.67 1042.84 1128.03 1037.93 1127.81 L 1036.29 1128.44 C 956.255 1119.24 876.281 1109.51 796.376 1099.24 C 744.828 1092.9 694.934 1087.81 643.071 1080.6 C 643.001 1070.71 642.505 1056.61 643.437 1047.09 C 645.789 1045.36 646.904 1045.87 650.226 1045.7 L 651.688 1043.47 L 651.347 1043.17 L 651.396 1042.27 C 660.629 1039.08 669.49 1036.53 678.855 1033.84 C 735.994 1038.75 793.017 1045.7 850.312 1050.36 C 851.592 1052.18 853.338 1054.91 854.834 1056.42 L 856.636 1054.19 C 850.538 1043.76 852.13 1044.7 856.126 1034.8 L 856.343 1034.25 C 856.94 1032.58 857.119 1032.24 857.362 1030.44 C 817.706 1026.39 777.613 1024.16 737.903 1020.51 C 725.503 1019.37 712.758 1018.37 700.332 1017.86 C 701.65 1000.48 700.325 965.296 700.425 946.443 L 700.652 778.723 C 700.195 648.173 701.88 516.325 700.063 386.162 C 707.185 385.713 722.159 382.942 729.938 381.692 L 800.038 369.728 C 879.487 356.031 959.048 342.986 1038.71 330.594 z" fill="rgb(43,16,22)" transform="translate(0,0)"></path>
<path d="M 643.071 1080.6 C 643.001 1070.71 642.505 1056.61 643.437 1047.09 C 645.789 1045.36 646.904 1045.87 650.226 1045.7 C 688.345 1050.95 726.925 1054.35 765.233 1057.95 C 786.139 1059.92 881.949 1067.02 894.309 1072.89 C 902.952 1076.99 906.628 1074.02 915.159 1072.98 C 918.435 1072.58 922.278 1073.12 925.57 1073.37 C 950.713 1075.29 975.894 1078.27 1000.97 1080.93 C 1012.6 1082.16 1024.37 1084 1036.05 1084.4 C 1036.02 1098.45 1035.68 1114.57 1036.29 1128.44 C 956.255 1119.24 876.281 1109.51 796.376 1099.24 C 744.828 1092.9 694.934 1087.81 643.071 1080.6 z" fill="rgb(255,90,31)" transform="translate(0,0)"></path>
<path d="M 943.166 1008.33 C 949.669 999.752 955.437 988.177 965.825 987.128 C 972.217 986.483 986.276 987.443 990.896 991.878 C 998.433 999.111 999.84 1009.35 1007.15 1020.31 C 1011.69 1025.9 1016.17 1031.54 1020.59 1037.23 C 1021.54 1043.26 1022.14 1041.85 1020.2 1047.05 C 1014.87 1060.6 1013.55 1064.45 999.231 1068.27 L 979.2 1063.1 C 983.565 1059.49 991.155 1052.86 996.025 1050.55 L 996.634 1050.27 C 1003.65 1046.96 1009.19 1049.36 1012.03 1047.18 L 1010.95 1045.86 C 998.248 1040.56 981.148 1060.11 965.792 1065.81 C 958.797 1063.75 949.779 1060.34 942.715 1057.9 C 935.576 1060.45 926.015 1064.81 919.111 1068.23 C 893.117 1081.11 879.792 1061.2 866.928 1040.8 C 869.702 1034.98 870.877 1033.07 874.699 1027.87 C 887.621 1015.95 896.74 1017.42 912.984 1019.5 C 917.533 1017.02 922.409 1020.1 927.234 1021.76 C 931.272 1018.45 929.281 1017.66 934.876 1017.16 C 935.93 1016.42 941.895 1009.72 943.166 1008.33 z" fill="rgb(255,90,31)" transform="translate(0,0)"></path>
<path d="M 927.234 1021.76 C 931.272 1018.45 929.281 1017.66 934.876 1017.16 C 932.166 1020.17 908.057 1045.4 906.432 1046.24 L 905.59 1045.93 C 905.826 1043.85 922.404 1026.27 925.212 1023.13 C 921.093 1021.86 917.156 1020.63 912.984 1019.5 C 917.533 1017.02 922.409 1020.1 927.234 1021.76 z" fill="rgb(43,16,22)" transform="translate(0,0)"></path>
<path d="M 967.957 993.58 C 972.319 997.549 970.999 1004.27 969.781 1009.47 C 966.914 1021.72 954.1 1025.32 944.54 1030.98 C 938.463 1029.62 951.532 1024.48 953.498 1023.49 C 968.338 1016.02 967.767 1007.82 967.957 993.58 z" fill="rgb(43,16,22)" transform="translate(0,0)"></path>
<path d="M 678.855 1033.84 C 735.994 1038.75 793.017 1045.7 850.312 1050.36 C 851.592 1052.18 853.338 1054.91 854.834 1056.42 C 861.412 1059.91 869.551 1059.74 877.013 1060.19 L 885.72 1067.8 C 868.511 1064.7 841.255 1062.84 823.09 1061.07 C 782.274 1057.37 741.488 1053.35 700.737 1048.99 C 687.691 1047.56 663.529 1046.01 651.688 1043.47 L 651.347 1043.17 L 651.396 1042.27 C 660.629 1039.08 669.49 1036.53 678.855 1033.84 z" fill="rgb(255,90,31)" transform="translate(0,0)"></path>
<path d="M 923.995 1068.35 C 930.296 1065.79 936.774 1063.05 943.095 1060.6 C 949.997 1063.07 958.845 1066.51 965.726 1068.53 C 988.922 1061.07 988.243 1074.71 1011.23 1067.79 C 1020.6 1068.16 1028.83 1069.22 1038.16 1070.37 C 1042.42 1070.78 1056.56 1071.5 1059.13 1073.63 C 1052.83 1076.96 1040.28 1081.51 1033.61 1081.3 C 998.216 1080.21 961.163 1072.4 925.876 1071.55 L 921.846 1070.8 L 921.299 1069.81 L 923.995 1068.35 z" fill="rgb(255,90,31)" transform="translate(0,0)"></path>
<path d="M 1061.93 1075.37 C 1063.18 1077.77 1062.74 1112.55 1062.66 1118.09 C 1057.48 1120.67 1042.84 1128.03 1037.93 1127.81 C 1038.73 1113.76 1038.04 1098.13 1038.35 1083.85 C 1046.6 1081.32 1054.1 1077.91 1061.93 1075.37 z" fill="rgb(255,90,31)" transform="translate(0,0)"></path>
<path d="M 856.343 1034.25 C 857.326 1033.88 869.289 1030.06 867.554 1033.46 C 862.045 1044.24 867.635 1047.31 874.919 1057.15 C 867.695 1056.9 863.126 1057.5 856.636 1054.19 C 850.538 1043.76 852.13 1044.7 856.126 1034.8 L 856.343 1034.25 z" fill="rgb(255,90,31)" transform="translate(0,0)"></path>
<path d="M 107.622 1355.69 C 98.079 1303.88 80.5119 1248.95 73.1394 1197.07 C 65.6283 1144.21 196.349 1126.11 206.299 1176.65 C 208.391 1187.28 210.01 1269.63 206.945 1274.98 C 207.815 1275.43 208.707 1275.95 209.635 1276.22 C 194.233 1279.17 178.985 1283.83 163.807 1286.4 C 162.183 1286.49 160.642 1288.42 157.073 1289.29 C 163.353 1288.73 178.24 1293.09 184.762 1294.89 L 185.02 1319.52 C 191.119 1320.42 204.561 1321.37 208.218 1326.08 C 208.788 1326.81 208.683 1331.08 208.595 1332.25 C 202.39 1333.49 189.609 1335.69 184.042 1337.45 C 164.379 1340.82 128.166 1350.74 107.622 1355.69 z" fill="rgb(245,237,230)" transform="translate(0,0)"></path>
<path d="M 157.073 1289.29 C 156.277 1288.68 154.77 1287.69 154.38 1286.7 C 154.331 1286.57 154.345 1286.31 154.429 1286.29 C 163.69 1283.41 199.412 1275.24 206.945 1274.98 C 207.815 1275.43 208.707 1275.95 209.635 1276.22 C 194.233 1279.17 178.985 1283.83 163.807 1286.4 C 162.183 1286.49 160.642 1288.42 157.073 1289.29 z" fill="rgb(43,16,22)" transform="translate(0,0)"></path>
<path d="M 541.434 768.39 C 563.113 762.943 579.383 762.261 600.859 770.014 C 603.188 771.608 605.549 773.594 607.135 776.483 C 623.996 807.198 641.184 839.468 655.934 871.146 C 655.968 871.335 656.001 871.523 656.035 871.711 L 657.027 875.488 C 685.211 900.401 580.381 908.835 570.2 908.204 C 541.378 906.419 506.144 906.308 481.235 889.686 C 474.623 885.275 480.543 877.982 484.356 874.656 L 483.507 872.578 C 483.746 869.77 485.603 865.738 486.967 863.086 C 502.478 832.92 516.886 801.969 533.418 772.381 C 534.261 770.872 539.63 769.047 541.434 768.39 z" fill="rgb(255,90,31)" transform="translate(0,0)"></path>
<path d="M 483.507 872.578 C 527.566 848.863 610.613 852.604 656.035 871.711 L 657.027 875.488 C 685.211 900.401 580.381 908.835 570.2 908.204 C 541.378 906.419 506.144 906.308 481.235 889.686 C 474.623 885.275 480.543 877.982 484.356 874.656 L 483.507 872.578 z" fill="rgb(245,237,230)" transform="translate(0,0)"></path>
<path d="M 483.507 872.578 C 527.566 848.863 610.613 852.604 656.035 871.711 L 657.027 875.488 C 614.549 851.47 528.277 854.928 484.356 874.656 L 483.507 872.578 z" fill="rgb(43,16,22)" transform="translate(0,0)"></path>
<path d="M 703.361 1741.97 C 723.099 1741.93 737.101 1741.11 756.216 1736.19 C 761.837 1745.78 766.816 1754.56 773.469 1763.53 C 791.525 1765.82 813.711 1770.41 829.93 1778.67 C 837.946 1782.74 840.545 1787.28 835.512 1794.99 L 837.871 1796.39 C 842.029 1802.2 837.692 1815.94 831.155 1819.49 C 784.083 1845.05 719.761 1842.46 668.454 1833.64 C 655.869 1831.47 642.407 1826.96 631.507 1820.9 C 624.298 1816.66 619.424 1804.25 622.843 1796.54 L 624.551 1796.73 L 625.974 1795.51 C 623.993 1793.17 623.806 1792.85 622.948 1789.91 C 624.892 1773.49 676.465 1765.33 689.464 1763.53 C 693.995 1756.28 698.628 1749.09 703.361 1741.97 z" fill="rgb(255,90,31)" transform="translate(0,0)"></path>
<path d="M 835.512 1794.99 L 837.871 1796.39 C 842.029 1802.2 837.692 1815.94 831.155 1819.49 C 784.083 1845.05 719.761 1842.46 668.454 1833.64 C 655.869 1831.47 642.407 1826.96 631.507 1820.9 C 624.298 1816.66 619.424 1804.25 622.843 1796.54 L 624.551 1796.73 L 625.974 1795.51 C 668.539 1825.84 791.86 1824.04 835.512 1794.99 z" fill="rgb(255,90,31)" transform="translate(0,0)"></path>
<path d="M 835.512 1794.99 L 837.871 1796.39 C 800.207 1822.8 719.972 1823.24 675.691 1815.26 C 659.379 1812.32 637.463 1807.76 624.551 1796.73 L 625.974 1795.51 C 668.539 1825.84 791.86 1824.04 835.512 1794.99 z" fill="rgb(43,16,22)" transform="translate(0,0)"></path>
<path d="M 460.392 1832.93 C 488.577 1821.97 508.677 1812.38 535.777 1798.84 C 567.952 1823.52 613.313 1845.32 653.418 1851.7 C 632.912 1873.34 611.267 1886.62 587.029 1902.81 C 573.642 1898.01 560.308 1893.06 547.027 1887.98 L 545.904 1889.69 L 546.103 1891.24 C 523.489 1899.62 500.444 1906.78 477.065 1912.7 C 462.017 1899.66 439.246 1878.91 428.99 1862.61 C 443.957 1860.19 460.474 1856.55 475.463 1853.54 L 473.657 1852.49 L 475.249 1849.94 C 470.862 1845.32 463.809 1838.07 460.392 1832.93 z" fill="rgb(245,237,230)" transform="translate(0,0)"></path>
<path d="M 475.463 1853.54 C 504.267 1873.61 512.474 1876.98 545.904 1889.69 L 546.103 1891.24 C 523.489 1899.62 500.444 1906.78 477.065 1912.7 C 462.017 1899.66 439.246 1878.91 428.99 1862.61 C 443.957 1860.19 460.474 1856.55 475.463 1853.54 z" fill="rgb(255,209,102)" transform="translate(0,0)"></path>
<path d="M 492.131 1876.2 C 500.931 1878.26 466.176 1885.97 465.225 1886.26 C 460.853 1883.5 465.325 1882.91 468.437 1882.1 C 476.305 1880.07 484.176 1877.84 492.131 1876.2 z" fill="rgb(43,16,22)" transform="translate(0,0)"></path>
<path d="M 483.186 1869.12 C 494.401 1870.69 457.777 1878.97 458.237 1878.86 C 450.755 1875.78 480.978 1869.66 483.186 1869.12 z" fill="rgb(43,16,22)" transform="translate(0,0)"></path>
<path d="M 499.953 1883.21 C 504.635 1886.72 474.811 1892.85 471.313 1893.59 C 471.025 1892.88 470.716 1892.21 470.526 1891.47 C 472.69 1890 495.663 1884.31 499.953 1883.21 z" fill="rgb(43,16,22)" transform="translate(0,0)"></path>
<path d="M 507.46 1890.01 C 508.821 1889.94 510.692 1889.93 509.587 1892.01 C 507.271 1896.37 505.467 1893.25 502.521 1894.2 C 495.521 1896.47 488.704 1898.4 481.459 1899.82 C 480.443 1900.05 479.42 1900.5 478.538 1899.77 C 478.191 1898.37 481.895 1897.46 482.63 1897.27 C 490.979 1895.08 499.222 1892.58 507.46 1890.01 z" fill="rgb(43,16,22)" transform="translate(0,0)"></path>
<path d="M 475.925 1863.17 C 484.097 1862.79 474.36 1866.47 472.195 1867 C 465.016 1868.72 458.312 1869.83 451.115 1871.2 C 450.156 1871.02 448.287 1870.9 448.522 1869.52 C 448.162 1869.79 473.521 1863.8 475.925 1863.17 z" fill="rgb(43,16,22)" transform="translate(0,0)"></path>
<path d="M 475.249 1849.94 C 502.157 1870.05 516.186 1875.42 547.027 1887.98 L 545.904 1889.69 C 512.474 1876.98 504.267 1873.61 475.463 1853.54 L 473.657 1852.49 L 475.249 1849.94 z" fill="rgb(43,16,22)" transform="translate(0,0)"></path>
<path d="M 526.433 1821.14 C 531.242 1821.49 557.583 1836.78 559.307 1841.27 C 554.131 1840.25 527.586 1825.08 526.433 1821.14 z" fill="rgb(58,36,32)" transform="translate(0,0)"></path>
<path d="M 556.525 1873.04 C 561.505 1873.67 589.09 1884.98 591.424 1889.2 C 583.453 1888.42 565.342 1878.49 556.695 1875.67 C 556.34 1875.55 556.507 1873.5 556.525 1873.04 z" fill="rgb(43,16,22)" transform="translate(0,0)"></path>
<path d="M 481.993 1834.84 C 486.494 1835.68 508.895 1854.78 515.4 1857.28 C 516.221 1857.6 516.801 1859.16 517.137 1859.98 C 510.83 1858.76 483.147 1840.3 481.993 1834.84 z" fill="rgb(43,16,22)" transform="translate(0,0)"></path>
<path d="M 537.293 1816.04 C 541.219 1817.03 570.342 1833.02 570.841 1835.93 L 571.047 1837.04 C 565.518 1835.19 538.585 1820.58 537.293 1816.04 z" fill="rgb(43,16,22)" transform="translate(0,0)"></path>
<path d="M 577.163 1861.13 C 582.652 1860.78 608.135 1870.61 610.472 1874.35 C 604.936 1875.08 580.87 1865 577.163 1861.13 z" fill="rgb(43,16,22)" transform="translate(0,0)"></path>
<path d="M 588.347 1854.11 C 593.45 1854.37 618.666 1863.12 619.739 1867.88 C 612.26 1866.72 596.913 1859.38 588.966 1856.47 C 588.546 1856.32 588.41 1854.57 588.347 1854.11 z" fill="rgb(43,16,22)" transform="translate(0,0)"></path>
<path d="M 500.017 1831.87 C 503.015 1834 502.074 1835.03 505.787 1837.82 C 512.724 1843.02 520.742 1847.16 527.627 1852.25 C 528.234 1852.69 527.595 1854.77 527.446 1855.42 C 517.986 1849.75 506.464 1842.67 498.599 1834.87 C 498.219 1834.5 499.761 1832.3 500.017 1831.87 z" fill="rgb(43,16,22)" transform="translate(0,0)"></path>
<path d="M 567.94 1868.25 C 573.348 1867.7 600.003 1877.84 601.03 1881.95 C 596.075 1881.61 569.664 1871.24 567.94 1868.25 z" fill="rgb(43,16,22)" transform="translate(0,0)"></path>
<path d="M 515.269 1825.96 C 521.504 1826.06 542.901 1840.39 548.447 1845.09 C 540.588 1844.82 520.738 1831.8 515.269 1825.96 z" fill="rgb(58,36,32)" transform="translate(0,0)"></path>
<path d="M 599.616 1847.97 C 601.203 1847.05 627.487 1857.7 629.323 1860.25 C 624.697 1860.65 602.878 1851.95 599.221 1849.83 C 599.031 1849.3 599.455 1848.45 599.616 1847.97 z" fill="rgb(43,16,22)" transform="translate(0,0)"></path>
<path d="M 460.011 1388.48 C 467.899 1390.05 481.879 1394.43 490.089 1396.7 C 490.617 1486.51 490.65 1576.32 490.188 1666.13 C 490.083 1690.54 490.124 1714.96 490.311 1739.38 C 490.419 1749.51 492.645 1783.28 488.022 1790.54 C 477.029 1798.53 469.967 1797.42 460.299 1788.6 C 459.426 1775.06 459.981 1755.9 459.975 1741.86 L 459.982 1656.08 L 460.011 1388.48 z" fill="rgb(255,90,31)" transform="translate(0,0)"></path>
<path d="M 390.643 1725.83 L 431.781 1765.57 C 437.746 1771.34 448.492 1781.09 453.56 1786.99 C 424.706 1796.99 392.861 1805.43 363.259 1812.9 C 355.998 1814.73 336.882 1819.43 330.07 1819.72 C 328.535 1819.51 327.122 1819.39 325.582 1819.26 C 326.492 1818.54 330.708 1815.71 330.432 1814.47 C 330.348 1814.4 297.796 1801.7 294.029 1799.85 L 295.544 1798.62 C 290.556 1795.83 265.946 1762.12 260.426 1755.15 C 311.969 1753.07 343.41 1741.4 390.643 1725.83 z" fill="rgb(245,237,230)" transform="translate(0,0)"></path>
<path d="M 295.544 1798.62 C 299.704 1799.95 334.859 1812.67 335.588 1813.94 C 335.63 1815.6 331.489 1818.45 330.07 1819.72 C 328.535 1819.51 327.122 1819.39 325.582 1819.26 C 326.492 1818.54 330.708 1815.71 330.432 1814.47 C 330.348 1814.4 297.796 1801.7 294.029 1799.85 L 295.544 1798.62 z" fill="rgb(43,16,22)" transform="translate(0,0)"></path>
<path d="M 424.834 1780.13 L 425.869 1781.14 L 425.217 1782.49 C 396.214 1794.2 370.543 1799.43 340.291 1804.93 L 339.674 1804.3 L 339.775 1802.87 C 343.498 1801.38 362.656 1798.17 368.647 1796.86 C 389.002 1792.4 405.333 1787.29 424.834 1780.13 z" fill="rgb(43,16,22)" transform="translate(0,0)"></path>
<path d="M 386.892 1736.11 C 387.184 1736.45 388.928 1738.46 387.787 1738.92 C 376.337 1743.63 363.304 1747.31 351.297 1750.61 C 351.255 1750.5 350.213 1748.51 350.639 1748.34 C 362.163 1743.71 374.973 1740.72 386.892 1736.11 z" fill="rgb(58,36,32)" transform="translate(0,0)"></path>
<path d="M 400.153 1752.04 C 401.597 1752 402.229 1751.84 403.414 1752.67 C 403.893 1754.12 402.133 1754.8 401.042 1755.19 C 390.913 1758.82 380.368 1761.17 370.283 1764.91 C 368.247 1765.42 366.406 1764.16 367.359 1763.45 C 370.573 1761.08 376.887 1759.42 380.89 1758.12 C 387.177 1756.08 393.828 1754.01 400.153 1752.04 z" fill="rgb(58,36,32)" transform="translate(0,0)"></path>
<path d="M 407.85 1759.14 C 419.867 1760.76 378.279 1772.05 377.233 1772.41 C 376.346 1772.06 375.062 1771.64 374.471 1770.82 C 374.381 1770.69 374.325 1770.37 374.405 1770.33 C 380.263 1767.16 401.921 1761.28 407.85 1759.14 z" fill="rgb(58,36,32)" transform="translate(0,0)"></path>
<path d="M 319.578 1761.23 C 321.06 1760.96 323.541 1760.52 324.652 1762.04 C 324.67 1762.06 324.813 1762.46 324.685 1762.51 C 315.018 1766.07 302.329 1767.23 292.095 1769.29 C 290.477 1769.64 287.007 1770.31 287.143 1767.48 C 287.892 1766.54 315.921 1761.92 319.578 1761.23 z" fill="rgb(43,16,22)" transform="translate(0,0)"></path>
<path d="M 390.67 1744.99 C 392.187 1744.7 393.595 1744.67 394.744 1746.11 C 394.823 1746.21 394.92 1746.75 394.706 1746.83 C 384.22 1750.39 372.954 1753.91 362.206 1757.12 C 359.174 1758.69 358.135 1755.25 358.594 1755.11 C 369.133 1751.81 380.025 1748.53 390.67 1744.99 z" fill="rgb(43,16,22)" transform="translate(0,0)"></path>
<path d="M 330.356 1778.35 C 331.58 1778.68 331.459 1778.68 332.402 1779.6 C 332.011 1783.64 304.83 1786.11 300.237 1786.83 L 299.46 1786.72 C 298.479 1786.58 298.442 1786.58 297.902 1785.86 C 297.965 1783.22 325.895 1779.46 330.356 1778.35 z" fill="rgb(58,36,32)" transform="translate(0,0)"></path>
<path d="M 322.963 1770.31 C 324.982 1769.95 327.087 1769.67 328.306 1771.65 L 327.986 1772.41 C 326.764 1773.2 300.016 1777.17 296.735 1777.66 C 288.089 1779.42 292.938 1772.93 303.116 1773.61 C 304.629 1773.71 320.077 1770.79 322.963 1770.31 z" fill="rgb(43,16,22)" transform="translate(0,0)"></path>
<path d="M 417.039 1766.14 C 417.104 1771.21 387.477 1779.15 381.76 1780.16 C 381.674 1779.66 381.369 1778.09 381.703 1777.97 C 388.509 1775.51 411.599 1767.76 417.039 1766.14 z" fill="rgb(58,36,32)" transform="translate(0,0)"></path>
<path d="M 226.028 1768.28 C 251.764 1782.62 267.517 1788.25 294.029 1799.85 C 297.796 1801.7 330.348 1814.4 330.432 1814.47 C 330.708 1815.71 326.492 1818.54 325.582 1819.26 C 305.274 1833.8 285.325 1847.19 265.19 1862.26 C 228.035 1846.18 191.219 1829.33 154.766 1811.71 C 176.857 1796.86 202.928 1782.32 226.028 1768.28 z" fill="rgb(255,90,31)" transform="translate(0,0)"></path>
<path d="M 236.984 1832.15 C 241.89 1832.5 270.354 1844.25 272.305 1847.88 C 266.459 1848.27 239.201 1836.2 236.984 1832.15 z" fill="rgb(43,16,22)" transform="translate(0,0)"></path>
<path d="M 211.527 1784.83 C 215.347 1785.34 242.54 1799.02 243.886 1801.82 C 243.023 1801.85 240.032 1802.07 239.495 1801.7 C 235.003 1798.57 214.617 1790.16 211.615 1788.11 C 211.115 1787.12 211.44 1785.88 211.527 1784.83 z" fill="rgb(58,36,32)" transform="translate(0,0)"></path>
<path d="M 249.336 1827.2 C 255.45 1826.77 278.618 1836.21 281.064 1840.85 C 276.309 1840.72 250.255 1830.79 249.336 1827.2 z" fill="rgb(43,16,22)" transform="translate(0,0)"></path>
<path d="M 201.505 1790.99 C 204.893 1791.82 232.973 1805.19 234.249 1807.01 C 228.15 1808.93 204.384 1796.65 201.505 1790.99 z" fill="rgb(58,36,32)" transform="translate(0,0)"></path>
<path d="M 221.593 1779.17 C 227.165 1780.08 252.286 1793.61 256.258 1797.08 C 250.293 1797.08 223.997 1784.2 221.593 1779.17 z" fill="rgb(43,16,22)" transform="translate(0,0)"></path>
<path d="M 270.973 1813.99 L 272.397 1814.08 C 275.722 1814.27 299.131 1824.66 301.235 1827.02 C 294.967 1829.18 274.614 1818.79 270.973 1813.99 z" fill="rgb(43,16,22)" transform="translate(0,0)"></path>
<path d="M 260.222 1821.2 C 265.989 1821.05 286.542 1829.74 291.338 1833.13 C 290.509 1833.43 288.101 1834.49 287.42 1834.22 C 281.773 1832.04 263.243 1825.27 260.222 1821.2 z" fill="rgb(43,16,22)" transform="translate(0,0)"></path>
<path d="M 173.455 1807.12 C 176.363 1806.89 178.877 1806.64 181.189 1808.62 C 187.009 1813.59 205.104 1817.65 207.434 1823.88 C 201.225 1822.71 178.367 1810.91 173.455 1807.12 z" fill="rgb(43,16,22)" transform="translate(0,0)"></path>
<path d="M 280.063 1809.12 C 285.042 1808.56 308.926 1818.22 311.33 1821.91 C 310.952 1822.01 308.584 1822.75 308.421 1822.65 C 302.083 1818.98 284.605 1813.56 280.063 1809.12 z" fill="rgb(43,16,22)" transform="translate(0,0)"></path>
<path d="M 185.886 1800.97 C 191.73 1801.85 214.739 1812.47 217.836 1817 C 212.035 1816.17 189.535 1805.52 185.886 1800.97 z" fill="rgb(43,16,22)" transform="translate(0,0)"></path>
<path d="M 106.133 1441.71 C 105.138 1441.55 105.364 1441.39 104.354 1440.4 C 92.3636 1393.19 82.6898 1344.14 71.0006 1296.56 C 64.285 1266.37 56.6936 1235.66 50.6309 1205.41 C 47.4923 1186.18 56.3094 1164.55 71.8432 1153.2 C 87.8531 1141.05 106.679 1139.28 125.666 1135.9 C 156.905 1130.34 178.652 1129.64 199.14 1157.68 C 198.097 1156.97 197.049 1156.27 195.995 1155.58 C 172.518 1140.18 144.46 1144.14 117.733 1148.82 C 96.6461 1151.16 70.9132 1170.06 70.5031 1193.05 C 70.2006 1210 78.6965 1240.08 82.5873 1257.2 L 105.429 1357.51 C 106.886 1358.09 107.884 1358.53 109.295 1359.22 C 112.961 1374.49 116.504 1389.78 119.925 1405.11 C 121.528 1412.16 124.6 1423.05 125 1430.03 C 117.399 1432.13 111.675 1436.23 106.133 1441.71 z" fill="rgb(245,237,230)" transform="translate(0,0)"></path>
<path d="M 567.342 601.689 C 565.849 599.983 564.525 598.22 564.453 595.862 C 563.445 562.755 564.891 529.55 564.242 496.429 C 564.203 494.42 564.639 492.334 566.054 490.876 C 574.365 488.159 620.073 487.814 628.672 491.028 C 633.339 496.347 630.012 574.378 630.687 586.897 C 630.846 589.84 629.545 597.444 627.19 599.884 C 619.653 602.221 582.443 601.464 572.101 601.657 C 571.421 592.169 574.489 581.471 580.846 574.326 L 579.562 571.112 C 566.046 583.378 572.317 594.117 567.342 601.689 z" fill="rgb(245,237,230)" transform="translate(0,0)"></path>
<path d="M 582.109 553.972 C 592.895 553.395 601.714 553.641 612.516 554.197 C 612.657 563.408 612.62 572.62 612.405 581.829 C 606.042 582.266 599.899 582.446 593.547 582.418 C 584.519 582.378 586.428 583.091 582.798 575.753 C 582.05 576.243 581.296 576.724 580.534 577.193 L 580.846 574.326 L 579.562 571.112 C 580.364 569.847 580.384 569.762 580.864 568.335 L 582.811 567.62 C 582.342 562.319 582.179 559.327 582.109 553.972 z" fill="rgb(245,237,230)" transform="translate(0,0)"></path>
<path d="M 582.811 567.62 C 590.061 567.197 596.71 557.157 604.025 562.916 C 612.12 569.289 599.593 580.969 592.775 572.144 C 589.941 568.476 585.058 572.39 582.798 575.753 C 582.05 576.243 581.296 576.724 580.534 577.193 L 580.846 574.326 L 579.562 571.112 C 580.364 569.847 580.384 569.762 580.864 568.335 L 582.811 567.62 z" fill="rgb(43,16,22)" transform="translate(0,0)"></path>
<path d="M 580.864 568.335 C 580.053 565.174 577.346 551.347 584.008 551.203 C 621.522 550.392 615.894 546.815 614.217 583.137 C 614.085 585.997 585.804 585.764 583.206 583.456 C 581.839 582.228 580.998 578.806 580.534 577.193 C 581.296 576.724 582.05 576.243 582.798 575.753 C 586.428 583.091 584.519 582.378 593.547 582.418 C 599.899 582.446 606.042 582.266 612.405 581.829 C 612.62 572.62 612.657 563.408 612.516 554.197 C 601.714 553.641 592.895 553.395 582.109 553.972 C 582.179 559.327 582.342 562.319 582.811 567.62 L 580.864 568.335 z" fill="rgb(58,36,32)" transform="translate(0,0)"></path>
<path d="M 581.718 507.106 C 592.814 506.449 603.936 506.365 615.041 506.854 C 615.182 513.362 615.232 519.872 615.19 526.381 C 615.191 532.16 616.196 536.105 612.387 539.914 C 603.669 541.331 593.162 541.381 584.479 540.234 C 578.886 539.495 580.205 526.919 580.291 522.877 C 580.409 517.341 578.989 511.746 581.718 507.106 z" fill="rgb(58,36,32)" transform="translate(0,0)"></path>
<path d="M 583.967 509.313 C 593.253 508.815 603.371 508.99 612.764 508.896 C 612.879 516.23 613.744 531.408 611.177 537.484 C 603.872 538.491 593.346 538.685 586.134 537.641 C 581.213 536.929 582.66 512.061 583.967 509.313 z" fill="rgb(245,237,230)" transform="translate(0,0)"></path>
<path d="M 602.736 516.089 C 607.746 518.151 605.967 521.078 605.575 526.401 C 601.462 524.63 602.908 520.543 602.736 516.089 z" fill="rgb(43,16,22)" transform="translate(0,0)"></path>
<path d="M 589.971 516.698 C 595.281 518.275 594.394 521.477 592.503 525.972 C 590.046 523.741 589.531 519.912 589.971 516.698 z" fill="rgb(43,16,22)" transform="translate(0,0)"></path>
<path d="M 597.05 529.521 C 597.756 529.117 598.627 529.133 599.317 529.563 C 600.007 529.993 600.406 530.767 600.355 531.578 C 600.304 532.39 599.811 533.108 599.072 533.448 C 597.998 533.942 596.724 533.503 596.183 532.451 C 595.641 531.4 596.024 530.108 597.05 529.521 z" fill="rgb(43,16,22)" transform="translate(0,0)"></path>
<path d="M 217.931 1519.15 L 220.06 1518.77 L 220.964 1520.01 C 214.704 1596.36 203.696 1673.62 195.312 1749.81 C 194.717 1755.21 194.818 1759.06 191.017 1763.07 C 187.476 1764.81 184.303 1764.3 180.341 1764.13 L 176.706 1761.3 C 173.91 1755.83 182.709 1674.54 183.958 1661.41 L 196.214 1525.51 L 217.931 1519.15 z" fill="rgb(245,237,230)" transform="translate(0,0)"></path>
<path d="M 108.986 1482.62 C 113.268 1484.8 130.593 1492.06 132.661 1493.75 C 130.349 1499.06 123.092 1531.82 121.217 1539.71 L 94.5302 1649.43 C 89.4469 1670.67 84.5272 1691.88 78.9559 1713.08 C 76.458 1722.59 68.0472 1726.55 61.1642 1717.37 C 60.0354 1715.87 60.7158 1709.79 61.1103 1707.86 C 65.8827 1684.53 71.0857 1660.81 76.0388 1637.56 L 108.986 1482.62 z" fill="rgb(245,237,230)" transform="translate(0,0)"></path>
<path d="M 244.751 975.083 C 249.004 974.999 256.983 975.45 259.74 972.171 L 259.831 973.97 C 259.615 979.716 259.272 985.409 259.714 991.143 C 259.854 1030.18 258.332 1077.43 259.806 1115.71 C 259.34 1123.95 258.978 1139.95 259.561 1148.42 C 259.9 1186.67 260.013 1224.93 259.898 1263.18 L 245.996 1266.06 C 243.919 1262.8 244.514 1005.96 244.751 975.083 z" fill="rgb(255,90,31)" transform="translate(0,0)"></path>
<path d="M 441.171 960.661 C 445.853 960.732 450.199 960.839 454.89 960.53 L 455.005 1221.28 L 441.913 1223.72 C 440.173 1221.65 440.885 1136.41 440.837 1124.42 C 441.144 1120.16 440.902 1112.99 440.895 1108.51 L 441.109 977.625 L 441.171 960.661 z" fill="rgb(255,90,31)" transform="translate(0,0)"></path>
<path d="M 556.619 702.843 C 567.979 701.131 572.158 701.627 583.263 703.668 L 593.462 707.774 C 594.669 715.319 603.723 765.433 601.518 768.197 L 600.859 770.014 C 579.383 762.261 563.113 762.943 541.434 768.39 L 539.423 766.839 C 537.384 767.538 537.23 767.809 535.154 767.174 C 535.011 760.859 542.878 717.341 544.455 708.049 C 548.207 706.232 552.718 704.471 556.619 702.843 z" fill="rgb(245,237,230)" transform="translate(0,0)"></path>
<path d="M 539.423 766.839 C 557.756 760.14 583.788 759.368 601.518 768.197 L 600.859 770.014 C 579.383 762.261 563.113 762.943 541.434 768.39 L 539.423 766.839 z" fill="rgb(43,16,22)" transform="translate(0,0)"></path>
<path d="M 683.083 1883.73 C 704.395 1898.14 711.777 1901.96 737.598 1905.18 C 730.23 1921.92 722.474 1930.54 708.016 1941.13 L 700.412 1938.89 C 677.093 1932.91 658.072 1927.31 640.123 1910.55 C 660.08 1904.31 668.596 1899.21 683.083 1883.73 z" fill="rgb(255,209,102)" transform="translate(0,0)"></path>
<path d="M 677.264 1908.1 C 682.627 1907.83 700.154 1914.61 703.93 1917.83 C 697.455 1918.38 681.667 1912.62 677.264 1908.1 z" fill="rgb(43,16,22)" transform="translate(0,0)"></path>
<path d="M 671.469 1913.07 C 674.869 1913.55 694.789 1921.06 697.729 1922.81 C 690.908 1923.65 675.386 1918.47 671.469 1913.07 z" fill="rgb(43,16,22)" transform="translate(0,0)"></path>
<path d="M 688.205 1902.93 C 689.42 1902.76 709.933 1911.32 711.947 1912.8 C 707.225 1913.15 687.634 1907.72 688.205 1902.93 z" fill="rgb(43,16,22)" transform="translate(0,0)"></path>
<path d="M 795.403 1718.94 C 829.69 1755.35 980.403 1792.71 979.35 1845.72 C 979.186 1853.93 974.537 1860.92 968.745 1866.39 C 941.078 1892.54 876.324 1894.64 840.732 1893.29 C 807.267 1892.02 759.001 1887.65 734.609 1861.36 C 730.316 1856.74 726.259 1851.41 725.258 1845.03 L 726.006 1843.14 L 727.959 1842.79 C 731.32 1845.13 731.756 1849.83 734.296 1853.24 C 744.517 1867 759.731 1874.37 775.942 1878.64 C 821.935 1890.74 867.993 1890.67 914.256 1883.12 C 969.973 1874.02 1001.65 1844.09 941.628 1805.39 C 898.599 1777.26 850.714 1761.15 806.731 1735.11 C 800.891 1731.65 795.636 1727.12 790.505 1722.67 L 795.403 1718.94 z" fill="rgb(255,90,31)" transform="translate(0,0)"></path>
<path d="M 771.151 1328.05 L 795.237 1321.03 C 795.332 1339.05 797.249 1460.97 794.351 1467.25 C 793.061 1466.28 790.748 1464.93 790.644 1463.43 C 790.185 1456.77 790.679 1447.61 790.584 1441.02 C 790.306 1421.68 781.073 1415.55 771.484 1402.29 C 771.074 1377.55 770.963 1352.8 771.151 1328.05 z" fill="rgb(255,90,31)" transform="translate(0,0)"></path>
<path d="M 531.206 1734.27 C 538.454 1728.12 541.546 1723.92 552.439 1724.43 C 557.211 1724.66 568.532 1728.82 569.858 1733.68 L 571.114 1735.88 C 577.586 1738.14 581.144 1741.86 581.775 1748.94 C 581.721 1749.67 581.746 1750.23 581.758 1750.95 C 583.972 1765.92 565.96 1774.32 557.531 1766.73 C 558.895 1765.96 565.734 1763.04 564.823 1761.04 C 564.694 1760.76 564.435 1760.56 564.129 1760.5 C 562.33 1760.16 557.354 1763.58 555.733 1764.63 C 550.177 1768.4 546.218 1771.8 539.014 1769.76 C 533.063 1768.07 528.933 1764.15 531.05 1757.98 C 530.696 1756.95 530.543 1756.21 529.91 1755.34 C 523.593 1750.02 510.088 1747.93 507.893 1742.52 C 508.138 1732.74 522.756 1728.11 529.555 1735.69 C 529.971 1735.36 530.854 1734.7 531.206 1734.27 z" fill="rgb(255,90,31)" transform="translate(0,0)"></path>
<path d="M 581.758 1750.95 C 583.972 1765.92 565.96 1774.32 557.531 1766.73 C 558.895 1765.96 565.734 1763.04 564.823 1761.04 C 564.694 1760.76 564.435 1760.56 564.129 1760.5 C 562.33 1760.16 557.354 1763.58 555.733 1764.63 C 550.177 1768.4 546.218 1771.8 539.014 1769.76 C 533.063 1768.07 528.933 1764.15 531.05 1757.98 C 546.078 1766.85 553.822 1757.16 566.995 1752.49 C 571.042 1751.05 577.378 1751.09 581.758 1750.95 z" fill="rgb(255,90,31)" transform="translate(0,0)"></path>
<path d="M 531.206 1734.27 C 538.454 1728.12 541.546 1723.92 552.439 1724.43 C 557.211 1724.66 568.532 1728.82 569.858 1733.68 C 555.739 1735.16 557.005 1737.06 545.533 1744.12 C 539.154 1748.05 533.205 1739.78 531.206 1734.27 z" fill="rgb(255,90,31)" transform="translate(0,0)"></path>
<path d="M 529.91 1755.34 C 555.098 1766.91 553.264 1746.59 581.775 1748.94 C 581.721 1749.67 581.746 1750.23 581.758 1750.95 C 577.378 1751.09 571.042 1751.05 566.995 1752.49 C 553.822 1757.16 546.078 1766.85 531.05 1757.98 C 530.696 1756.95 530.543 1756.21 529.91 1755.34 z" fill="rgb(43,16,22)" transform="translate(0,0)"></path>
<path d="M 569.858 1733.68 L 571.114 1735.88 C 567.745 1736.38 560.655 1737.38 558.002 1738.98 C 550.667 1743.41 544.938 1751.36 535.649 1744.98 C 531.228 1741.95 530.415 1740.88 529.555 1735.69 C 529.971 1735.36 530.854 1734.7 531.206 1734.27 C 533.205 1739.78 539.154 1748.05 545.533 1744.12 C 557.005 1737.06 555.739 1735.16 569.858 1733.68 z" fill="rgb(43,16,22)" transform="translate(0,0)"></path>
<path d="M 328.196 1854.99 C 340.101 1857.71 374.372 1862.29 386.54 1863.52 C 381.569 1871.42 369.615 1885.64 363.43 1893.44 C 346.62 1889.61 321.273 1886.21 303.791 1883.61 L 328.196 1854.99 z" fill="rgb(255,90,31)" transform="translate(0,0)"></path>
<path d="M 324.784 1877.23 C 331.463 1877.29 345.275 1880.01 352.32 1881.26 C 352.725 1881.34 353.065 1883.35 353.17 1883.83 C 346.784 1883.68 332.906 1880.37 325.809 1879.53 C 325.47 1879.49 324.929 1877.65 324.784 1877.23 z" fill="rgb(43,16,22)" transform="translate(0,0)"></path>
<path d="M 337.771 1864.27 C 342.899 1863.94 365.387 1866.41 368.232 1869.96 C 363.025 1871.37 342.546 1867.14 337.771 1864.27 z" fill="rgb(58,36,32)" transform="translate(0,0)"></path>
<path d="M 334.095 1871.24 C 339.379 1871.21 357.883 1872.94 360.583 1877.06 C 356.04 1878.24 337.349 1874.83 334.095 1871.24 z" fill="rgb(43,16,22)" transform="translate(0,0)"></path>
<path d="M 207.846 1334.63 C 211.476 1344.45 207.942 1387.69 209.561 1400.79 C 210.116 1405.27 209.733 1408.24 205.722 1410.31 C 200.717 1409.77 190.801 1411.72 185.596 1412.84 C 184.163 1407.67 184.929 1349.43 184.798 1339.58 C 191.802 1338.28 201.294 1336.78 207.846 1334.63 z" fill="rgb(245,237,230)" transform="translate(0,0)"></path>
<path d="M 573.278 910.177 L 576.363 911.317 C 577.727 914.462 567.47 1030.87 567.157 1048.51 C 566.902 1066.11 568.229 1083.7 571.122 1101.07 C 575.177 1123.92 583.558 1145.79 595.817 1165.5 C 605.464 1181.22 633.978 1213.57 636.07 1230.31 C 627.897 1228.03 621.6 1208.91 615.678 1201.29 C 601.841 1183.48 589.232 1166.05 579.714 1145.45 C 554.162 1090.14 562.197 1027.46 567.269 968.769 C 568.921 950.236 570.938 928.425 573.278 910.177 z" fill="rgb(255,90,31)" transform="translate(0,0)"></path>
<path d="M 774.19 1416.81 C 771.003 1412.17 767.191 1408.74 762.504 1405.6 C 752.477 1398.86 740.167 1396.43 728.331 1398.85 C 711.256 1402.48 699.028 1415.64 694.751 1432.44 C 693.413 1437.69 693.906 1443.76 691.304 1447.79 L 689.766 1447.76 C 677.957 1430.44 716.199 1368.29 768.628 1403.98 L 770.24 1404.32 L 771.484 1402.29 C 781.073 1415.55 790.306 1421.68 790.584 1441.02 C 790.679 1447.61 790.185 1456.77 790.644 1463.43 C 790.748 1464.93 793.061 1466.28 794.351 1467.25 L 792.827 1468.48 L 776.441 1460.19 L 778.942 1458.82 C 776.457 1457.68 774.132 1456.51 771.696 1455.29 L 771.713 1425.31 C 771.701 1423.03 770.971 1420.1 772.266 1418.45 L 774.19 1416.81 z" fill="rgb(255,90,31)" transform="translate(0,0)"></path>
<path d="M 771.484 1402.29 C 781.073 1415.55 790.306 1421.68 790.584 1441.02 C 790.679 1447.61 790.185 1456.77 790.644 1463.43 C 790.748 1464.93 793.061 1466.28 794.351 1467.25 L 792.827 1468.48 L 776.441 1460.19 L 778.942 1458.82 C 776.457 1457.68 774.132 1456.51 771.696 1455.29 L 771.713 1425.31 C 771.701 1423.03 770.971 1420.1 772.266 1418.45 L 774.19 1416.81 C 787.215 1435.32 780.898 1444.92 784.547 1461.86 L 785.803 1462.47 C 787.846 1459.82 789.024 1453.68 788.96 1450.26 C 788.61 1431.31 782.15 1417.02 768.628 1403.98 L 770.24 1404.32 L 771.484 1402.29 z" fill="rgb(43,16,22)" transform="translate(0,0)"></path>
<path d="M 772.266 1418.45 C 773.625 1420.47 774.268 1421.73 775.415 1423.81 C 778.78 1430.49 786.661 1453.92 778.942 1458.82 C 776.457 1457.68 774.132 1456.51 771.696 1455.29 L 771.713 1425.31 C 771.701 1423.03 770.971 1420.1 772.266 1418.45 z" fill="rgb(255,90,31)" transform="translate(0,0)"></path>
<path d="M 243.553 257.961 C 205.945 271.208 164.702 279.741 126.857 292.596 C 123.83 293.624 121.934 293.493 118.999 292.232 C 116.956 289.691 117.207 290.767 117.309 288.019 C 120.659 283.676 228.041 253.91 242.94 249.473 C 243.017 252.114 242.959 255.455 243.553 257.961 z" fill="rgb(255,90,31)" transform="translate(0,0)"></path>
<path d="M 946.622 425.804 C 948.3 428.64 944.696 432.056 942.673 434.009 C 901.791 473.483 862.092 514.159 821.61 554.034 C 809.282 566.178 797.316 579.232 784.731 590.978 L 783.633 588.85 C 784.645 584.409 877.473 493.592 888.994 482.143 L 924.654 446.716 C 930.786 440.623 940.004 430.933 946.622 425.804 z" fill="rgb(245,237,230)" transform="translate(0,0)"></path>
<path d="M 933.544 832.772 C 935 834.32 934.567 833.388 934.55 835.789 C 931.423 840.337 919.213 851.671 914.523 856.081 C 879.883 888.659 847.007 926.084 811.627 957.63 C 809.925 956.148 810.358 957.047 810.147 954.922 C 815.355 948.367 839.394 925.838 846.87 918.422 L 933.544 832.772 z" fill="rgb(245,237,230)" transform="translate(0,0)"></path>
<path d="M 957.885 759.593 L 960.356 760.375 L 960.356 762.149 C 947.631 775.835 931.909 790.887 918.563 804.145 C 899.152 823.668 879.499 842.95 859.609 861.985 L 858.203 862.088 L 856.997 861.035 C 858.311 858.007 948.51 769.092 957.885 759.593 z" fill="rgb(245,237,230)" transform="translate(0,0)"></path>
<path d="M 567.081 602.582 C 575.201 605.163 571.732 612.738 572.162 620.547 C 571.647 637.9 572.514 665.245 571.519 683.388 C 570.902 684.061 570.373 684.639 569.931 685.12 L 567.848 684.735 C 565.086 681.284 565.282 610.352 567.081 602.582 z" fill="rgb(255,90,31)" transform="translate(0,0)"></path>
<path d="M 980.48 859.7 L 981.913 861.137 C 980.83 864.963 911.042 933.587 902.71 941.448 L 901.107 940.177 L 901.172 938.577 C 919.561 918.432 940.734 899.692 959.626 879.926 C 966.129 873.122 973.484 865.968 980.48 859.7 z" fill="rgb(245,237,230)" transform="translate(0,0)"></path>
<path d="M 869.6 742.776 C 870.286 743.443 870.519 744.084 871.016 744.969 C 869.172 747.966 851.834 765.259 848.446 768.552 C 833.169 783.397 817.81 799.714 802.251 814.141 L 801.135 812.433 C 802.013 809.167 862.69 748.946 869.6 742.776 z" fill="rgb(245,237,230)" transform="translate(0,0)"></path>
<path d="M 933.048 532.677 C 933.172 532.747 935.309 533.786 934.761 534.419 C 919.793 551.727 902.178 568.627 885.925 585.068 C 885.439 584.807 883.377 583.695 884.022 582.966 C 897.654 567.575 918.696 546.493 933.048 532.677 z" fill="rgb(245,237,230)" transform="translate(0,0)"></path>
<path d="M 823.465 867.631 C 824.159 868.124 825.362 868.788 825.511 869.602 C 824.416 872.692 791.923 904.699 787.017 909.309 C 783.988 907.425 785.474 906.023 787.964 903.63 C 799.978 892.082 811.494 879.111 823.465 867.631 z" fill="rgb(245,237,230)" transform="translate(0,0)"></path>
<path d="M 555.641 699.749 C 560.739 685.259 578.513 686.745 582.161 700.574 C 566.294 698.119 567.662 700.486 555.641 699.749 z" fill="rgb(245,237,230)" transform="translate(0,0)"></path>
<path d="M 509.33 1750.38 C 519.78 1751.51 529.804 1752.05 526.896 1764.53 C 517.302 1765.95 509.175 1760.22 509.33 1750.38 z" fill="rgb(255,90,31)" transform="translate(0,0)"></path>
<path d="M 984 483.578 C 984.354 483.731 986.779 484.751 986.034 485.599 C 977.193 495.647 966.82 505.952 957.141 515.304 C 956.73 514.983 954.837 513.596 955.344 512.983 C 962.976 503.744 975.448 491.585 984 483.578 z" fill="rgb(245,237,230)" transform="translate(0,0)"></path>
<path d="M 812.378 460.712 C 812.852 461.231 814.127 462.486 813.734 463.033 C 809.286 469.213 792.475 485.29 787.657 489.887 C 786.276 487.561 785.451 487.032 787.877 484.906 C 796.507 477.345 803.696 468.203 812.378 460.712 z" fill="rgb(245,237,230)" transform="translate(0,0)"></path>
<path d="M 854.797 419.736 C 857.073 421.607 857.37 421.92 854.871 424.407 C 847.888 431.358 841.026 438.582 833.957 445.429 C 833.491 445.272 831.135 444.525 831.967 443.48 C 838.104 435.769 847.316 426.276 854.797 419.736 z" fill="rgb(245,237,230)" transform="translate(0,0)"></path>
<metadata><recraft-signature>{"signed_by": "recraft", "signature_b64": "7MAXDQJPa+0ae3WXA4+vC/YRxv7VbcIo5DCPrHTqWntDrRQY/6s76VS9N6jfyk7ccuFxC1R9ohuc8GcGI4n4Aw==", "signing_algo": "Ed25519", "generation_timestamp": 1783313381, "identifier": "c0a86224-560b-4fec-bf19-c8faae704898"}</recraft-signature></metadata></svg>