<svg xmlns="http://www.w3.org/2000/svg" height="1344" preserveAspectRatio="none" style="display: block;" version="1.1" viewBox="0 0 1170 2048" width="768">
<defs>
	<linearGradient gradientUnits="userSpaceOnUse" id="Gradient1" x1="977.054" x2="1179.55" y1="1795.93" y2="1593.56">
		<stop class="stop0" offset="0" stop-color="rgb(42,28,27)" stop-opacity="1"></stop>
		<stop class="stop1" offset="1" stop-color="rgb(73,37,34)" stop-opacity="1"></stop>
	</linearGradient>
</defs>
<path d="M 0 0 L 31.0692 0 L 1129.09 0 L 1168.81 0 L 1170 0 L 1170 156.082 L 1170 231.947 L 1170 301.03 L 1170 1152.93 L 1170 1443.52 L 1170 1469.44 L 1170 1534.95 L 1170 1578.09 L 1170 1604.97 L 1170 1619.51 L 1170 1664.68 L 1170 1698.5 L 1170 1748.01 L 1170 1788.06 L 1170 1838.47 L 1170 1881.53 L 1170 1992.38 L 1170 2048 L 1132.26 2048 L 924.874 2048 L 784.108 2048 L 726.852 2048 L 695.911 2048 L 338.059 2048 L 306.97 2048 L 198.705 2048 L 0.710961 2048 L 0 2048 L 0 1727.79 L 0 1706.1 L 0 1518.97 L 0 1498.17 L 0 1395.32 L 0 1375.07 L 0 1215.03 L 0 1194.48 L 0 301.353 L 0 232.465 L 0 153.963 L 0 21.8283 L 0 0 z" fill="rgb(43,16,22)" transform="translate(0,0)"></path>
<path d="M 0 0 L 31.0692 0 L 1129.09 0 L 1168.81 0 L 1170 0 L 1170 156.082 L 1170 231.947 L 1170 301.03 L 0 301.353 L 0 232.465 L 0 153.963 L 0 21.8283 L 0 0 z" fill="rgb(43,16,22)" transform="translate(0,0)"></path>
<path d="M 31.0692 0 L 1129.09 0 C 1120.4 1.21718 1120.75 1.8478 1116.04 9.02648 C 1084.23 57.462 1051.58 105.29 1020.05 153.914 C 924.467 155.032 826.585 153.981 730.791 153.979 L 137.926 154.067 L 72.621 55.3952 C 61.5133 38.3424 49.9594 19.8881 38.3413 3.11425 C 36.6767 0.71089 34.0823 0.706457 31.0692 0 z" fill="rgb(58,36,32)" transform="translate(0,0)"></path>
<path d="M 1170 231.947 L 1170 301.03 L 0 301.353 L 0 232.465 C 26.7312 233.485 61.8027 232.283 89.2438 232.271 L 281.947 232.169 L 878.035 232.022 L 1089.44 232.416 C 1099.04 232.451 1164.49 233.247 1170 231.947 z" fill="rgb(58,36,32)" transform="translate(0,0)"></path>
<path d="M 1168.81 0 L 1170 0 L 1170 156.082 C 1169.18 155.438 1168.36 154.795 1167.54 154.151 C 1157.53 153.507 1147.39 153.826 1137.35 153.869 L 1070.07 153.965 C 1101.67 106.026 1135.79 59.2863 1166.99 11.0228 C 1169.58 7.02173 1168.86 4.81345 1168.81 0 z" fill="rgb(58,36,32)" transform="translate(0,0)"></path>
<path d="M 0 21.8283 C 29.6819 64.1595 58.5513 110.39 87.6592 153.59 C 58.4412 153.978 29.2203 154.102 -3.55271e-15 153.963 L 0 21.8283 z" fill="rgb(58,36,32)" transform="translate(0,0)"></path>
<path d="M 49.4387 973.76 L 47.0693 972.93 C 51.0014 971.193 71.0586 972.011 76.2549 972.153 L 128.822 971.899 C 161.151 971.833 188.711 968.711 214.352 993.623 C 236.529 1015.17 236.387 1037.33 236.555 1065.38 L 236.554 1648.74 L 236.55 1803.08 C 236.579 1829.21 236.113 1858.44 237.01 1884.27 C 253.755 1883.84 292.765 1885.57 306.987 1883.61 L 306.893 1984.79 C 306.92 2004.2 307.443 2026.34 306.699 2045.5 L 306.97 2048 L 198.705 2048 L 0.710961 2048 L 0 2048 L 0 1727.79 L 0 1706.1 L 0 1518.97 L 0 1498.17 L 0 1395.32 L 0 1375.07 L 0 1215.03 L 113.031 1214.72 L 113.035 1193.71 L 112.979 1101.08 C 112.968 1086.47 113.613 1062.47 111.966 1048.79 C 110.977 1040.15 108.707 1031.71 105.232 1023.74 C 93.459 996.8 75.7384 984.104 49.4387 973.76 z" fill="rgb(255,90,31)" transform="translate(0,0)"></path>
<path d="M 112.868 1668.04 C 113.882 1704.02 112.521 1741.12 112.986 1777.17 C 113.093 1785.46 112.436 1814.68 113.558 1821.03 C 121.238 1806.99 128.787 1795.65 145.457 1790.94 C 156.269 1787.94 167.831 1789.35 177.596 1794.88 C 191.393 1802.65 203.18 1821.06 204.043 1836.91 C 206.151 1846.96 204.864 1903.8 204.983 1917.59 C 210.113 1912.37 234.163 1888.55 237.01 1884.27 C 253.755 1883.84 292.765 1885.57 306.987 1883.61 L 306.893 1984.79 C 306.92 2004.2 307.443 2026.34 306.699 2045.5 L 306.97 2048 L 198.705 2048 L 0.710961 2048 L 0 2048 L 0 1727.79 L 0 1706.1 C 35.2549 1707.13 77.1107 1706.55 112.556 1706.22 C 112.338 1696.37 111.847 1677.67 112.868 1668.04 z" fill="rgb(43,16,22)" transform="translate(0,0)"></path>
<path d="M 204.043 1836.91 C 206.151 1846.96 204.864 1903.8 204.983 1917.59 C 210.113 1912.37 234.163 1888.55 237.01 1884.27 C 253.755 1883.84 292.765 1885.57 306.987 1883.61 L 306.893 1984.79 C 306.92 2004.2 307.443 2026.34 306.699 2045.5 L 306.97 2048 L 198.705 2048 L 0.710961 2048 C 4.83634 2043.21 48.85 2018.34 57.2792 2012.85 C 105.859 1981.22 155.727 1951.22 203.929 1918.97 C 203.871 1893.87 202.912 1861.41 204.043 1836.91 z" fill="rgb(58,36,32)" transform="translate(0,0)"></path>
<path d="M 198.705 2048 C 212.011 2039.13 233.387 2028.26 247.594 2020.58 C 266.487 2010.36 286.613 1998.91 305.743 1989.43 C 305.841 1996.94 304.571 2040.87 306.699 2045.5 L 306.97 2048 L 198.705 2048 z" fill="rgb(43,16,22)" transform="translate(0,0)"></path>
<path d="M 112.868 1668.04 C 113.882 1704.02 112.521 1741.12 112.986 1777.17 C 113.093 1785.46 112.436 1814.68 113.558 1821.03 L 112.36 1821.09 C 111.594 1814.63 112.213 1799.81 112.178 1792.4 L 111.904 1727.61 L 0 1727.79 L 0 1706.1 C 35.2549 1707.13 77.1107 1706.55 112.556 1706.22 C 112.338 1696.37 111.847 1677.67 112.868 1668.04 z" fill="rgb(58,36,32)" transform="translate(0,0)"></path>
<path d="M 113.049 1497.82 L 113.012 1519.91 C 113.032 1567.9 113.998 1620.4 112.868 1668.04 C 111.847 1677.67 112.338 1696.37 112.556 1706.22 C 77.1107 1706.55 35.2549 1707.13 0 1706.1 L 0 1518.97 L 0 1498.17 C 28.4168 1498.83 57.2376 1497.92 85.6866 1498.37 C 94.4424 1498.51 104.366 1498.6 113.049 1497.82 z" fill="rgb(43,16,22)" transform="translate(0,0)"></path>
<path d="M 113.049 1497.82 L 113.012 1519.91 C 108.278 1517.57 12.776 1518.91 0 1518.97 L 0 1498.17 C 28.4168 1498.83 57.2376 1497.92 85.6866 1498.37 C 94.4424 1498.51 104.366 1498.6 113.049 1497.82 z" fill="rgb(58,36,32)" transform="translate(0,0)"></path>
<path d="M 0 1215.03 L 113.031 1214.72 C 113.049 1242.03 113.588 1271.53 112.871 1298.67 C 111.47 1316.89 111.632 1355.77 112.42 1374.92 C 75.4913 1375.2 36.9379 1375.52 0 1375.07 L 0 1215.03 z" fill="rgb(43,16,22)" transform="translate(0,0)"></path>
<path d="M 112.42 1374.92 C 111.632 1355.77 111.47 1316.89 112.871 1298.67 C 113.83 1352.04 112.587 1405.68 113.03 1459.08 C 113.089 1466.28 113.26 1474.19 112.875 1481.34 L 113.049 1497.82 C 104.366 1498.6 94.4424 1498.51 85.6866 1498.37 C 57.2376 1497.92 28.4168 1498.83 0 1498.17 L 0 1395.32 L 0 1375.07 C 36.9379 1375.52 75.4913 1375.2 112.42 1374.92 z" fill="rgb(43,16,22)" transform="translate(0,0)"></path>
<path d="M 112.42 1374.92 C 111.632 1355.77 111.47 1316.89 112.871 1298.67 C 113.83 1352.04 112.587 1405.68 113.03 1459.08 C 113.089 1466.28 113.26 1474.19 112.875 1481.34 C 110.778 1464.62 111.944 1414.54 111.987 1395.51 L 0 1395.32 L 0 1375.07 C 36.9379 1375.52 75.4913 1375.2 112.42 1374.92 z" fill="rgb(58,36,32)" transform="translate(0,0)"></path>
<path d="M 306.852 1703.29 C 446.821 1704.09 586.794 1704.07 726.763 1703.25 L 726.78 1884.71 C 726.662 1920.28 725.123 1968.43 726.779 2002.77 L 726.852 2048 L 695.911 2048 L 338.059 2048 L 306.97 2048 L 306.699 2045.5 C 307.443 2026.34 306.92 2004.2 306.893 1984.79 L 306.987 1883.61 L 306.852 1703.29 z" fill="rgb(43,16,22)" transform="translate(0,0)"></path>
<path d="M 306.852 1703.29 C 446.821 1704.09 586.794 1704.07 726.763 1703.25 L 726.78 1884.71 C 726.662 1920.28 725.123 1968.43 726.779 2002.77 L 726.852 2048 L 695.911 2048 L 695.697 2004.73 C 693.833 2002.45 694.638 1980.8 694.672 1976.23 C 687.84 1971.24 679.117 1963.8 672.295 1958.38 C 667.143 1958.36 659.009 1959.06 654.568 1957.19 L 654.218 1956.94 L 654.109 1884.66 L 653.978 1713.93 C 646.466 1714.28 638.058 1714.23 630.518 1714.13 C 570.756 1713.3 510.167 1715.68 450.493 1714.23 C 428.692 1715.17 401.99 1714.84 379.984 1714.59 C 380.04 1730.77 379.365 1753.83 380.251 1769.42 L 380.069 1900.66 C 380.045 1917.33 380.794 1941.69 379.927 1957.84 L 363.266 1957.9 C 355.171 1962.2 347.178 1966.7 339.294 1971.38 C 339.349 1980.11 340.192 2014.7 338.115 2020.58 L 338.059 2048 L 306.97 2048 L 306.699 2045.5 C 307.443 2026.34 306.92 2004.2 306.893 1984.79 L 306.987 1883.61 L 306.852 1703.29 z" fill="rgb(255,140,66)" transform="translate(0,0)"></path>
<path d="M 346.469 1714.64 C 352.201 1713.63 379.728 1713.75 386.873 1713.9 C 406.731 1714.32 431.035 1712.95 450.493 1714.23 C 428.692 1715.17 401.99 1714.84 379.984 1714.59 C 380.04 1730.77 379.365 1753.83 380.251 1769.42 L 380.069 1900.66 C 380.045 1917.33 380.794 1941.69 379.927 1957.84 L 363.266 1957.9 C 355.171 1962.2 347.178 1966.7 339.294 1971.38 C 339.349 1980.11 340.192 2014.7 338.115 2020.58 C 337.119 1944.05 338.305 1864.01 338.387 1787.26 C 338.288 1767.51 337.091 1734.52 338.52 1715.81 C 340.75 1714.2 343.537 1714.63 346.469 1714.64 z" fill="rgb(43,16,22)" transform="translate(0,0)"></path>
<path d="M 346.469 1714.64 C 352.201 1713.63 379.728 1713.75 386.873 1713.9 C 406.731 1714.32 431.035 1712.95 450.493 1714.23 C 428.692 1715.17 401.99 1714.84 379.984 1714.59 C 380.04 1730.77 379.365 1753.83 380.251 1769.42 L 380.069 1900.66 C 380.045 1917.33 380.794 1941.69 379.927 1957.84 L 363.266 1957.9 C 362.039 1943.85 362.934 1909.66 362.906 1894.65 L 362.573 1770.78 C 362.562 1757.72 363.627 1726.31 362.164 1714.58 L 346.469 1714.64 z" fill="rgb(255,90,31)" transform="translate(0,0)"></path>
<path d="M 362.164 1714.58 C 363.627 1726.31 362.562 1757.72 362.573 1770.78 L 362.906 1894.65 C 362.934 1909.66 362.039 1943.85 363.266 1957.9 C 355.171 1962.2 347.178 1966.7 339.294 1971.38 C 339.349 1980.11 340.192 2014.7 338.115 2020.58 C 337.119 1944.05 338.305 1864.01 338.387 1787.26 C 340.166 1789.82 339.382 1873.88 339.37 1884.35 C 346.714 1884.16 354.539 1884.27 361.926 1884.25 L 361.601 1775.61 C 361.582 1759.71 360.714 1729.14 362.164 1714.58 z" fill="rgb(58,36,32)" transform="translate(0,0)"></path>
<path d="M 653.978 1713.93 C 658.694 1713.89 666.697 1713.58 671.155 1713.94 C 679.192 1714.08 687.23 1714.15 695.268 1714.13 L 695.427 1762.5 C 695.422 1766.5 695.63 1780.36 695.159 1783.78 C 696.316 1802.43 695.973 1825.16 695.585 1844.03 C 694.49 1897.34 697.127 1951.56 695.697 2004.73 C 693.833 2002.45 694.638 1980.8 694.672 1976.23 C 687.84 1971.24 679.117 1963.8 672.295 1958.38 C 667.143 1958.36 659.009 1959.06 654.568 1957.19 L 654.218 1956.94 L 654.109 1884.66 L 653.978 1713.93 z" fill="rgb(43,16,22)" transform="translate(0,0)"></path>
<path d="M 653.978 1713.93 C 658.694 1713.89 666.697 1713.58 671.155 1713.94 L 671.293 1734.27 L 671.144 1957.32 L 654.568 1957.19 L 654.218 1956.94 L 654.109 1884.66 L 653.978 1713.93 z" fill="rgb(255,90,31)" transform="translate(0,0)"></path>
<path d="M 671.293 1734.27 C 673.141 1737.22 672.406 1869.94 672.236 1884.17 L 694.601 1884.12 L 694.496 1817.95 C 694.492 1810.96 694.162 1790 695.159 1783.78 C 696.316 1802.43 695.973 1825.16 695.585 1844.03 C 694.49 1897.34 697.127 1951.56 695.697 2004.73 C 693.833 2002.45 694.638 1980.8 694.672 1976.23 C 687.84 1971.24 679.117 1963.8 672.295 1958.38 C 667.143 1958.36 659.009 1959.06 654.568 1957.19 L 671.144 1957.32 L 671.293 1734.27 z" fill="rgb(58,36,32)" transform="translate(0,0)"></path>
<path d="M 654.218 1956.94 L 654.568 1957.19 C 659.009 1959.06 667.143 1958.36 672.295 1958.38 C 679.117 1963.8 687.84 1971.24 694.672 1976.23 C 694.638 1980.8 693.833 2002.45 695.697 2004.73 L 695.911 2048 L 338.059 2048 L 338.115 2020.58 C 340.192 2014.7 339.349 1980.11 339.294 1971.38 C 347.178 1966.7 355.171 1962.2 363.266 1957.9 L 379.927 1957.84 C 454.503 1956.07 529.983 1958.79 604.641 1957.59 C 621.225 1957.33 637.615 1957.73 654.218 1956.94 z" fill="rgb(43,16,22)" transform="translate(0,0)"></path>
<path d="M 380.251 1769.42 C 381.936 1776.07 381.379 1801.78 381.365 1810.04 L 381.182 1884.95 L 562.5 1884.99 C 590.882 1884.98 626.132 1885.78 654.109 1884.66 L 654.218 1956.94 C 637.615 1957.73 621.225 1957.33 604.641 1957.59 C 529.983 1958.79 454.503 1956.07 379.927 1957.84 C 380.794 1941.69 380.045 1917.33 380.069 1900.66 L 380.251 1769.42 z" fill="rgb(58,36,32)" transform="translate(0,0)"></path>
<path d="M 845.009 1544.11 L 1012.68 1731.58 L 1014.24 1729.79 C 1001.16 1709.64 986.285 1690.25 974.253 1669.54 C 958.208 1641.91 970.559 1630.1 994.432 1617.61 C 1000.91 1617.27 1011.88 1613.3 1017.99 1610.99 C 1030.26 1605.49 1044.07 1598.28 1056.25 1592.26 C 1075.34 1583.33 1085.2 1580.71 1105.81 1579.43 C 1118.29 1578.97 1130.77 1578.77 1143.26 1578.83 L 1170 1578.09 L 1170 1604.97 L 1170 1619.51 L 1170 1664.68 L 1170 1698.5 L 1170 1748.01 L 1170 1788.06 L 1170 1838.47 L 1170 1881.53 L 1170 1992.38 L 1170 2048 L 1132.26 2048 L 924.874 2048 L 845.827 1923.14 C 845.537 1913.02 846.227 1903.74 845.129 1893.48 C 843.833 1873.06 844.902 1838.31 844.916 1817.04 L 844.948 1668.42 C 844.623 1644.01 843.782 1617.41 844.881 1593.15 C 845.099 1576.81 845.142 1560.46 845.009 1544.11 z" fill="url(#Gradient1)" transform="translate(0,0)"></path>
<path d="M 844.948 1668.42 C 941.81 1793.29 1035.65 1922.72 1132.26 2048 L 924.874 2048 L 845.827 1923.14 C 845.537 1913.02 846.227 1903.74 845.129 1893.48 C 843.833 1873.06 844.902 1838.31 844.916 1817.04 L 844.948 1668.42 z" fill="rgb(43,16,22)" transform="translate(0,0)"></path>
<path d="M 844.881 1593.15 C 864.349 1618.64 890.568 1649.34 911.27 1674.66 C 951.739 1724.73 992.514 1774.56 1033.59 1824.14 L 1121.18 1932.25 C 1136.75 1951.6 1153.79 1973.78 1170 1992.38 L 1170 2048 L 1132.26 2048 C 1035.65 1922.72 941.81 1793.29 844.948 1668.42 C 844.623 1644.01 843.782 1617.41 844.881 1593.15 z" fill="rgb(255,140,66)" transform="translate(0,0)"></path>
<path d="M 990.226 1679.45 C 997.752 1673.53 1011.59 1666.29 1020.25 1661.4 C 1067.84 1634.48 1115.24 1622.32 1170 1619.51 L 1170 1664.68 C 1123.78 1672.14 1088.82 1675.06 1045.18 1697.71 C 1036.8 1702.07 1025.76 1706.41 1018.4 1712.35 C 1011.14 1706.53 994.92 1687.09 990.226 1679.45 z" fill="rgb(255,90,31)" transform="translate(0,0)"></path>
<path d="M 1170 1664.68 L 1170 1698.5 C 1129 1707.83 1082.5 1721.52 1046.68 1744.14 C 1037.42 1733.54 1028.07 1722.54 1018.4 1712.35 C 1025.76 1706.41 1036.8 1702.07 1045.18 1697.71 C 1088.82 1675.06 1123.78 1672.14 1170 1664.68 z" fill="rgb(255,140,66)" transform="translate(0,0)"></path>
<path d="M 1046.68 1744.14 C 1082.5 1721.52 1129 1707.83 1170 1698.5 L 1170 1748.01 C 1140.05 1753.31 1104.46 1761.83 1079.51 1780.19 L 1046.68 1744.14 z" fill="rgb(255,90,31)" transform="translate(0,0)"></path>
<path d="M 990.226 1679.45 C 974.127 1648.25 986.874 1632.5 1016.51 1624.18 C 1031.41 1620 1046.76 1612.04 1062.68 1609.82 C 1097.81 1604.93 1134.5 1605.64 1170 1604.97 L 1170 1619.51 C 1115.24 1622.32 1067.84 1634.48 1020.25 1661.4 C 1011.59 1666.29 997.752 1673.53 990.226 1679.45 z" fill="rgb(255,140,66)" transform="translate(0,0)"></path>
<path d="M 1170 1748.01 L 1170 1788.06 C 1144.28 1794.86 1131.21 1799.4 1106.96 1811.54 C 1098.57 1802.87 1087.67 1789.57 1079.51 1780.19 C 1104.46 1761.83 1140.05 1753.31 1170 1748.01 z" fill="rgb(255,140,66)" transform="translate(0,0)"></path>
<path d="M 1170 1788.06 L 1170 1838.47 C 1162.66 1840.3 1144.53 1843.94 1139.96 1848.25 C 1132.09 1840.89 1114.82 1820.51 1106.96 1811.54 C 1131.21 1799.4 1144.28 1794.86 1170 1788.06 z" fill="rgb(255,90,31)" transform="translate(0,0)"></path>
<path d="M 1139.96 1848.25 C 1144.53 1843.94 1162.66 1840.3 1170 1838.47 L 1170 1881.53 L 1139.96 1848.25 z" fill="rgb(255,140,66)" transform="translate(0,0)"></path>
<path d="M 1014.24 1729.79 C 1015.01 1730.92 1018.23 1734.91 1017.38 1736.21 C 1015.93 1736.5 1013.38 1732.65 1012.68 1731.58 L 1014.24 1729.79 z" fill="rgb(193,161,137)" transform="translate(0,0)"></path>
<path d="M 942.974 1153.16 C 1016.15 1151.44 1096.57 1152.59 1170 1152.93 L 1170 1443.52 L 1170 1469.44 L 1170 1534.95 L 1170 1578.09 L 1143.26 1578.83 C 1130.77 1578.77 1118.29 1578.97 1105.81 1579.43 C 1085.2 1580.71 1075.34 1583.33 1056.25 1592.26 C 1044.07 1598.28 1030.26 1605.49 1017.99 1610.99 C 1011.88 1613.3 1000.91 1617.27 994.432 1617.61 C 991.256 1616.49 989.726 1616.69 986.399 1616.67 C 974.547 1618.43 960.393 1621.51 949.796 1617.06 C 921.72 1605.26 930.837 1579.83 921.701 1563.89 C 915.404 1552.9 903.04 1560.04 893.159 1537.74 C 877.176 1540.12 861.15 1540.56 844.916 1543.5 L 845.054 1352.54 C 845.052 1327.21 843.56 1283.08 845.468 1259.05 C 846.132 1249.54 848.01 1240.15 851.055 1231.12 C 864.186 1193.16 896.63 1165.99 934.948 1156.15 C 937.678 1155.45 940.478 1154.46 942.974 1153.16 z" fill="rgb(255,90,31)" transform="translate(0,0)"></path>
<path d="M 923.082 1458.98 C 943.66 1472.02 963.899 1483.9 979.49 1503.12 C 986.333 1511.56 996 1526.95 1003.27 1533.86 C 1028.59 1557.95 1041.79 1557.74 1056.25 1592.26 C 1044.07 1598.28 1030.26 1605.49 1017.99 1610.99 C 1017.25 1608.73 1016.49 1606.48 1015.71 1604.23 C 1002 1564.93 987.181 1567.31 958.189 1542.55 C 951.821 1537.11 940.542 1521.29 934.824 1514.03 C 920.776 1496.2 903.255 1490.04 883.861 1480.65 C 896.844 1472.24 909.15 1465.65 923.082 1458.98 z" fill="rgb(255,140,66)" transform="translate(0,0)"></path>
<path d="M 985.035 1444.25 C 990.581 1443.39 1041.68 1443.04 1044.99 1444.35 C 1071.84 1473.48 1086.78 1506.49 1116.06 1532.54 C 1124.81 1540.33 1143.14 1567.45 1143.26 1578.83 C 1130.77 1578.77 1118.29 1578.97 1105.81 1579.43 C 1104.64 1579.46 1099.45 1579.36 1099.12 1578.84 C 1094.59 1571.49 1091.41 1560.45 1086.06 1553.67 C 1076.89 1542.03 1063.17 1533.78 1053.76 1522.87 C 1044.66 1512.32 1036.41 1499.05 1028.15 1487.68 C 1014.78 1469.26 1002.58 1458.02 985.035 1444.25 z" fill="rgb(255,140,66)" transform="translate(0,0)"></path>
<path d="M 1099.77 1444.06 C 1107.93 1444.02 1149.4 1443.34 1154.91 1444.23 C 1158.75 1450.77 1165.88 1463.73 1170 1469.44 L 1170 1534.95 C 1160.42 1520.85 1149.52 1514.74 1141.26 1503.11 C 1126.35 1482.12 1116.5 1464.28 1099.77 1444.06 z" fill="rgb(255,140,66)" transform="translate(0,0)"></path>
<path d="M 877.675 1485.02 C 901.186 1502.93 924.396 1537.13 937.054 1563.48 C 952.828 1596.32 954.856 1600.18 986.399 1616.67 C 974.547 1618.43 960.393 1621.51 949.796 1617.06 C 921.72 1605.26 930.837 1579.83 921.701 1563.89 C 915.404 1552.9 903.04 1560.04 893.159 1537.74 C 887.453 1520.34 883.391 1502.06 877.675 1485.02 z" fill="rgb(58,36,32)" transform="translate(0,0)"></path>
<path d="M 820.16 1662.79 C 821.016 1655.4 820.401 1632.3 820.376 1624.14 L 820.339 1547.54 C 820.565 1448.11 820.616 1348.63 820.534 1249.24 C 820.5 1206.53 843.122 1172.28 883.767 1158.26 C 903.902 1151.32 922.042 1152.79 942.974 1153.16 C 940.478 1154.46 937.678 1155.45 934.948 1156.15 C 896.63 1165.99 864.186 1193.16 851.055 1231.12 C 848.01 1240.15 846.132 1249.54 845.468 1259.05 C 843.56 1283.08 845.052 1327.21 845.054 1352.54 L 844.916 1543.5 C 861.15 1540.56 877.176 1540.12 893.159 1537.74 C 903.04 1560.04 915.404 1552.9 921.701 1563.89 C 930.837 1579.83 921.72 1605.26 949.796 1617.06 C 960.393 1621.51 974.547 1618.43 986.399 1616.67 C 989.726 1616.69 991.256 1616.49 994.432 1617.61 C 970.559 1630.1 958.208 1641.91 974.253 1669.54 C 986.285 1690.25 1001.16 1709.64 1014.24 1729.79 L 1012.68 1731.58 L 845.009 1544.11 C 845.142 1560.46 845.099 1576.81 844.881 1593.15 C 843.782 1617.41 844.623 1644.01 844.948 1668.42 L 844.916 1817.04 C 844.902 1838.31 843.833 1873.06 845.129 1893.48 C 844.706 1902.04 844.998 1913.05 844.98 1921.8 C 836.469 1910.22 828.783 1898.62 820.808 1886.68 C 819.722 1822.98 821.31 1758.87 820.622 1695.14 C 820.506 1684.35 820.842 1673.56 820.16 1662.79 z" fill="rgb(245,237,230)" transform="translate(0,0)"></path>
<path d="M 820.16 1662.79 C 820.842 1673.56 820.506 1684.35 820.622 1695.14 C 821.31 1758.87 819.722 1822.98 820.808 1886.68 C 828.783 1898.62 836.469 1910.22 844.98 1921.8 C 844.998 1913.05 844.706 1902.04 845.129 1893.48 C 846.227 1903.74 845.537 1913.02 845.827 1923.14 L 924.874 2048 L 784.108 2048 L 726.852 2048 L 726.779 2002.77 C 725.123 1968.43 726.662 1920.28 726.78 1884.71 C 757.72 1884.33 788.663 1884.21 819.605 1884.35 L 819.58 1736.97 C 819.559 1718.64 818.346 1678.81 820.16 1662.79 z" fill="rgb(58,36,32)" transform="translate(0,0)"></path>
<path d="M 726.779 2002.77 C 733.399 2006.95 740.141 2013.5 746.344 2018.64 C 758.672 2028.76 771.265 2038.55 784.108 2048 L 726.852 2048 L 726.779 2002.77 z" fill="rgb(43,16,22)" transform="translate(0,0)"></path>
<path d="M 759.738 1653.28 C 760.763 1658.34 762.114 1671.85 758.424 1675.69 L 754.16 1676.1 C 745.795 1677.11 735.258 1676.93 726.705 1676.81 C 726.744 1684.76 727.131 1695.54 726.763 1703.25 C 586.794 1704.07 446.821 1704.09 306.852 1703.29 C 306.969 1694.16 306.881 1685.03 306.59 1675.91 L 276.163 1675.89 L 276.038 1654.07 C 291.819 1655.25 311.36 1653.96 327.467 1654.3 C 331.458 1654.38 352.856 1654.26 355.821 1653.75 C 362.671 1654.8 376.62 1654.39 383.966 1654.39 L 432.902 1654.35 C 439.874 1654.35 481.065 1654.76 485.969 1653.9 C 495.014 1655.27 753.722 1655.26 759.738 1653.28 z" fill="rgb(58,36,32)" transform="translate(0,0)"></path>
<path d="M 759.738 1653.28 C 760.763 1658.34 762.114 1671.85 758.424 1675.69 L 754.16 1676.1 C 739.869 1675.35 719.756 1675.93 705.023 1675.92 L 608.862 1675.85 L 306.59 1675.91 L 276.163 1675.89 L 276.038 1654.07 C 291.819 1655.25 311.36 1653.96 327.467 1654.3 C 331.458 1654.38 352.856 1654.26 355.821 1653.75 C 362.671 1654.8 376.62 1654.39 383.966 1654.39 L 432.902 1654.35 C 439.874 1654.35 481.065 1654.76 485.969 1653.9 C 495.014 1655.27 753.722 1655.26 759.738 1653.28 z" fill="rgb(255,90,31)" transform="translate(0,0)"></path>
<path d="M 567.454 1554.18 C 613.377 1554.49 659.302 1554.52 705.225 1554.27 C 717.162 1575.36 728.893 1596.57 740.414 1617.89 C 745.937 1627.97 755.157 1643.54 759.738 1653.28 C 753.722 1655.26 495.014 1655.27 485.969 1653.9 C 505.897 1636.78 533.353 1619.13 554.766 1601.41 C 562.828 1595.35 565.588 1565.36 567.454 1554.18 z" fill="rgb(245,237,230)" transform="translate(0,0)"></path>
<path d="M 339.022 1554.54 C 380.277 1555.82 427.757 1554.77 469.37 1554.75 C 470.984 1567.09 473.629 1584.8 476.634 1596.97 C 490.497 1608.03 512.374 1607.5 529.25 1606.48 C 537.337 1605.99 551.352 1601.54 554.766 1601.41 C 533.353 1619.13 505.897 1636.78 485.969 1653.9 C 481.065 1654.76 439.874 1654.35 432.902 1654.35 L 383.966 1654.39 C 376.62 1654.39 362.671 1654.8 355.821 1653.75 C 352.856 1654.26 331.458 1654.38 327.467 1654.3 C 311.36 1653.96 291.819 1655.25 276.038 1654.07 C 280.208 1645.92 293.176 1626.9 298.568 1618.47 L 339.022 1554.54 z" fill="rgb(245,237,230)" transform="translate(0,0)"></path>
<path d="M 476.634 1596.97 C 490.497 1608.03 512.374 1607.5 529.25 1606.48 C 537.337 1605.99 551.352 1601.54 554.766 1601.41 C 533.353 1619.13 505.897 1636.78 485.969 1653.9 C 481.065 1654.76 439.874 1654.35 432.902 1654.35 L 383.966 1654.39 C 376.62 1654.39 362.671 1654.8 355.821 1653.75 C 395.08 1636.23 437.254 1613.24 476.634 1596.97 z" fill="rgb(43,16,22)" transform="translate(0,0)"></path>
<path d="M 502.169 1365.09 C 506.681 1336.43 514.18 1310.65 536.702 1290.88 C 563.704 1267.18 596.15 1268.19 629.61 1270.51 C 618.72 1289.65 597.517 1315.81 575.938 1322.4 C 555.581 1328.62 541.283 1323.98 523.524 1315.01 C 544.829 1301.54 568.575 1289.9 593.28 1284.3 L 592.79 1282.71 C 533.898 1295.9 513.683 1303.57 505.149 1366.19 C 504.36 1379.93 505.875 1432.26 511.299 1443.05 C 528.363 1375.83 556.607 1361.71 618.543 1340.86 C 604.238 1391.9 588.846 1429.04 527.558 1415.26 C 541.865 1399.5 567.567 1379.51 586.063 1368.94 L 584.618 1367.41 C 565.044 1378.34 544.136 1390.16 529.072 1407.06 C 520.777 1416.37 516.875 1430.41 514.545 1442.5 C 512.211 1462.64 515.57 1477.52 518.529 1497.49 L 518.959 1501.63 C 519.693 1506.22 520.563 1509.52 519.485 1514.01 L 518.372 1514.41 C 516.413 1510.81 516.575 1505.61 516.368 1501.38 L 516.351 1497.74 C 514.362 1489.08 512.139 1469.89 510.681 1460.08 C 505.171 1454.9 503.178 1448.72 496.652 1442.98 C 466.808 1474.27 434.157 1459.17 406.686 1435.38 C 431.669 1420.69 468.697 1415.11 492.235 1435.34 C 494.66 1437.43 497.088 1439.83 499.4 1442.05 C 503.951 1447.97 506.655 1451.82 510.568 1458.18 C 504.798 1424.4 502.389 1405.97 501.149 1371.7 L 495.734 1364.71 C 480.281 1348.8 454.219 1335.68 434.51 1326.49 L 433.893 1328.14 C 457.716 1339.89 477.397 1355.02 497.709 1371.75 C 440.898 1390 417.251 1355.8 401.473 1307.16 C 400.944 1305.53 400.494 1303.93 400.079 1302.27 C 436.72 1313.03 478.739 1324.12 498.171 1360.26 L 498.623 1361.12 L 500.935 1365.03 L 502.169 1365.09 z" fill="rgb(255,140,66)" transform="translate(0,0)"></path>
<path d="M 603.391 1357.56 C 596.438 1362.72 592.94 1364.52 586.063 1368.94 L 584.618 1367.41 C 589.059 1364.36 598.425 1359.97 603.391 1357.56 z" fill="rgb(124,73,36)" transform="translate(0,0)"></path>
<path d="M 592.79 1282.71 C 594.492 1281.87 602.612 1279.83 604.174 1280.7 C 603.797 1281.92 594.957 1283.8 593.28 1284.3 L 592.79 1282.71 z" fill="rgb(173,99,45)" transform="translate(0,0)"></path>
<path d="M 433.893 1328.14 C 431.514 1326.9 429.159 1325.61 426.831 1324.28 C 426.271 1323.96 424.893 1323.24 424.711 1322.57 L 424.813 1322.43 C 426.095 1322.3 433.111 1325.59 434.51 1326.49 L 433.893 1328.14 z" fill="rgb(124,73,36)" transform="translate(0,0)"></path>
<path d="M 446.234 1433.57 C 457.902 1432.57 484.847 1433.31 493.817 1440.69 L 493.298 1441.11 C 488.398 1441.65 484.687 1440.32 479.961 1439.04 C 460.652 1434.64 450.211 1436.52 431.389 1435.36 C 436.371 1434.43 441.2 1434.05 446.234 1433.57 z" fill="rgb(58,36,32)" transform="translate(0,0)"></path>
<path d="M 516.351 1497.74 L 516.368 1501.38 C 516.575 1505.61 516.413 1510.81 518.372 1514.41 L 519.485 1514.01 C 520.563 1509.52 519.693 1506.22 518.959 1501.63 L 518.529 1497.49 C 529.677 1497.66 540.015 1498.29 550.886 1499.63 C 562.509 1501.06 575.794 1502.9 573.598 1518.33 C 571.932 1530.03 569.842 1542.59 567.454 1554.18 C 565.588 1565.36 562.828 1595.35 554.766 1601.41 C 551.352 1601.54 537.337 1605.99 529.25 1606.48 C 512.374 1607.5 490.497 1608.03 476.634 1596.97 C 473.629 1584.8 470.984 1567.09 469.37 1554.75 C 427.757 1554.77 380.277 1555.82 339.022 1554.54 C 348.724 1553.7 371.432 1554.32 382.069 1554.32 L 468.932 1554.42 C 467.013 1542.64 464.534 1530.83 462.821 1519.04 C 460.465 1502.81 472.077 1501.76 484.4 1500.08 C 495.255 1498.6 505.461 1498.05 516.351 1497.74 z" fill="rgb(255,90,31)" transform="translate(0,0)"></path>
<path d="M 518.959 1501.63 C 519.526 1501.63 520.092 1501.63 520.658 1501.65 C 531.01 1501.87 560.589 1503.42 567.679 1510.82 L 567.447 1512.38 C 553.871 1522.41 471.851 1524.23 469.014 1510.36 C 475.577 1502.94 506.174 1501.94 516.368 1501.38 C 516.575 1505.61 516.413 1510.81 518.372 1514.41 L 519.485 1514.01 C 520.563 1509.52 519.693 1506.22 518.959 1501.63 z" fill="rgb(43,16,22)" transform="translate(0,0)"></path>
<path d="M 0 1194.48 C 30.7243 1193.88 61.7121 1194.89 92.4579 1194.4 C 99.31 1194.29 106.229 1194.55 113.035 1193.71 L 113.031 1214.72 L 0 1215.03 L 0 1194.48 z" fill="rgb(58,36,32)" transform="translate(0,0)"></path>
<path d="M 780.106 496.477 L 810.656 496.467 C 811.59 575.255 810.902 655.138 810.864 734.03 L 811.133 1255.16 C 740.337 1256.61 667.077 1255.34 596.251 1255.06 L 375.25 1255.28 C 362.423 1255.25 349.596 1255.29 336.769 1255.39 L 336.803 496.971 C 384.429 495.908 435.682 496.85 483.567 496.919 L 780.106 496.477 z" fill="rgb(58,36,32)" transform="translate(0,0)"></path>
<path d="M 359.008 529.151 L 787.256 529.412 L 786.974 1045.26 L 787.151 1175.38 C 787.181 1188.54 787.198 1204.57 787.322 1218 C 786.747 1218.8 786.263 1219.46 785.87 1220.01 L 359.39 1220.13 C 358.463 1187.9 358.944 1153.77 358.941 1121.43 L 358.961 955.713 L 359.008 529.151 z" fill="rgb(43,16,22)" transform="translate(0,0)"></path>
<path d="M 386.723 562.409 C 441.291 560.853 502.834 562.192 557.967 562.123 L 558.163 740.727 L 568.167 735.075 C 568.182 743.091 568.298 751.307 568.203 759.302 C 565.124 760.69 560.343 762.566 557.936 764.671 L 558.021 838.283 C 561.065 836.678 565.064 834.408 568.091 833.002 L 568.264 857.145 L 558.131 861.472 L 558.205 933.879 C 561.546 932.033 564.788 930.112 568.346 928.735 L 568.648 951.797 L 558.038 957.107 C 558.032 980.641 557.64 1005.57 558.131 1028.99 L 568.136 1023.85 C 568.218 1030.81 568.615 1040.7 568.238 1047.42 L 557.979 1051.39 C 557.985 1082.86 559.017 1120.59 557.827 1151.54 C 558.442 1168.21 558.029 1187.11 558.026 1203.95 L 386.761 1204.1 C 386.42 1181.03 386.772 1156.86 386.803 1133.71 L 386.883 1111.05 L 386.682 1039.88 L 386.662 1018.15 L 386.745 945.854 L 386.785 921.226 L 386.85 847.319 L 386.791 823.231 L 386.723 562.409 z" fill="rgb(245,237,230)" transform="translate(0,0)"></path>
<path d="M 590.729 562.271 L 761.408 562.173 C 763.005 573.518 762.012 618.714 761.972 632.82 L 771.94 628.707 L 772.039 651.138 L 762.007 656.657 L 761.86 733.02 L 772.012 728.65 L 771.865 751.763 L 761.871 757.091 L 762.007 830.087 L 772.065 825.753 L 772.14 848.216 L 761.807 853.676 L 761.819 924.868 L 772.064 920.357 L 772.133 943.904 L 762.06 948.838 L 761.791 1129.82 L 761.795 1178.13 C 761.794 1183.26 761.991 1199.66 761.13 1204.19 L 590.594 1204.2 C 589.975 1146.6 590.892 1088.23 590.761 1030.5 L 590.682 1007.13 L 590.64 937.121 L 590.651 912.669 L 590.711 839.858 L 590.624 816.639 L 590.586 738.725 L 590.583 715.559 L 590.729 562.271 z" fill="rgb(245,237,230)" transform="translate(0,0)"></path>
<path d="M 290.701 411.515 C 313.649 410.906 339.689 411.595 362.836 411.664 L 495.017 411.803 L 863.145 411.139 C 862.962 419.479 864.353 459.534 861.742 463.979 L 858.788 464.56 C 794.509 465.702 727.107 464.919 662.694 464.932 L 285.121 464.954 C 285.189 457.243 283.859 415.473 286.472 411.917 L 290.701 411.515 z" fill="rgb(58,36,32)" transform="translate(0,0)"></path>
<metadata><recraft-signature>{"signed_by": "recraft", "signature_b64": "0UCZAAJ3fDhFJJ9FvPQnjtuKINMWAt0RrGKiY6vOgE1SYxF0V9yWm5iZwejNx/RXTm7WzbnMVF+hQlDYKmEFCg==", "signing_algo": "Ed25519", "generation_timestamp": 1783313385, "identifier": "b5f58b6a-db72-4e6c-938c-ad0095c1394f"}</recraft-signature></metadata></svg>