<svg xmlns="http://www.w3.org/2000/svg" height="1344" preserveAspectRatio="none" style="display: block;" version="1.1" viewBox="0 0 1170 2048" width="768">
<path d="M 0 0 L 64.1514 0 L 66.8735 0 L 105.101 0 L 431.685 0 L 1170 0 L 1170 374.473 L 1170 617.329 L 1170 619.3 L 1170 640.897 L 1170 790.449 L 1170 879.257 L 1170 884.395 L 1170 916.583 L 1170 920.439 L 1170 940.392 L 1170 1207.31 L 1170 1234.96 L 1170 1236.88 L 1170 1242.98 L 1170 1250.42 L 1170 1285.13 L 1170 1287.36 L 1170 1333.99 L 1170 1637.45 L 1170 1686.8 L 1170 1707.59 L 1170 1723.45 L 1170 1902.78 L 1170 2048 L 973.784 2048 L 824.703 2048 L 0 2048 L 0 2001.08 L 0 1929.15 L 0 1928.08 L 0 1865.75 L 0 696.987 L 0 658.197 L 0 657.219 L 0 616.779 L 0 389.963 L 0 388.156 L 0 382.109 L 0 381.225 L 0 359.602 L 0 358.131 L 0 357.119 L 0 335.088 L 0 333.037 L 0 310.972 L 0 308.375 L 0 286.841 L 0 284.307 L 0 262.087 L 0 261.15 L 0 260.116 L 0 237.989 L 0 235.919 L 0 214.065 L 0 213.063 L 0 211.796 L 0 189.715 L 0 187.105 L 0 164.97 L 0 162.988 L 0 141.031 L 0 138.901 L 0 116.706 L 0 114.49 L 0 92.8272 L 0 90.0654 L 0 69.0853 L 0 68.1385 L 0 66.8746 L 0 44.1126 L 0 42.2035 L 0 19.9983 L 0 18.0112 L 0 0 z" fill="rgb(58,36,32)" transform="translate(0,0)"></path>
<path d="M 0 0 L 64.1514 0 L 66.8735 0 L 105.101 0 L 431.685 0 L 431.345 1145.72 L 431.356 1548.95 C 431.512 1605.82 429.683 1671.75 431.874 1727.99 L 434.186 1727.09 L 433.868 1847.72 L 431.901 1847.92 L 431.718 1928.04 C 424.649 1928.05 406.156 1928.5 399.999 1927.61 L 398.253 1927.53 C 391.147 1928.63 341.908 1927.58 331.628 1927.48 C 332.026 1914.37 331.852 1900.21 331.867 1887.04 L 330.073 1886.75 L 329.316 1887.02 C 319.048 1886.56 308.506 1887.3 298.377 1886.69 L 299.535 1883.46 C 300.15 1882.74 300.024 1882.98 300.148 1882.64 C 299.258 1881.8 282.513 1882.42 279.345 1881.84 L 217.834 1881.8 L 216.852 1880.08 L 219.464 1878.85 C 223.443 1876.81 235.431 1867.94 239.662 1864.91 L 137.44 1865.2 L 105.786 1865.16 C 70.5086 1865.06 35.2563 1866.02 0 1865.75 L 0 696.987 L 0 658.197 L 0 657.219 L 0 616.779 L 0 389.963 L 0 388.156 L 0 382.109 L 0 381.225 L 0 359.602 L 0 358.131 L 0 357.119 L 0 335.088 L 0 333.037 L 0 310.972 L 0 308.375 L 0 286.841 L 0 284.307 L 0 262.087 L 0 261.15 L 0 260.116 L 0 237.989 L 0 235.919 L 0 214.065 L 0 213.063 L 0 211.796 L 0 189.715 L 0 187.105 L 0 164.97 L 0 162.988 L 0 141.031 L 0 138.901 L 0 116.706 L 0 114.49 L 0 92.8272 L 0 90.0654 L 0 69.0853 L 0 68.1385 L 0 66.8746 L 0 44.1126 L 0 42.2035 L 0 19.9983 L 0 18.0112 L 0 0 z" fill="rgb(255,90,31)" transform="translate(0,0)"></path>
<path d="M 0 696.987 C 34.7775 697.04 70.3509 697.47 105.065 696.966 L 105.797 697.303 C 106.617 736.656 105.743 778.286 105.737 817.811 L 105.859 1052.08 L 105.786 1865.16 C 70.5086 1865.06 35.2563 1866.02 0 1865.75 L 0 696.987 z" fill="rgb(58,36,32)" transform="translate(0,0)"></path>
<path d="M 137.633 1594.74 C 224.155 1595.67 312.605 1594.93 399.134 1594.73 L 399.331 1693.4 C 399.366 1711.76 398.827 1733.26 399.901 1751.2 C 409.354 1743.83 421.701 1735.65 431.714 1728.71 C 432.318 1768.39 431.523 1808.24 431.901 1847.92 L 431.718 1928.04 C 424.649 1928.05 406.156 1928.5 399.999 1927.61 L 398.253 1927.53 C 391.147 1928.63 341.908 1927.58 331.628 1927.48 C 332.026 1914.37 331.852 1900.21 331.867 1887.04 L 330.073 1886.75 L 329.316 1887.02 C 319.048 1886.56 308.506 1887.3 298.377 1886.69 L 299.535 1883.46 C 300.15 1882.74 300.024 1882.98 300.148 1882.64 C 299.258 1881.8 282.513 1882.42 279.345 1881.84 L 217.834 1881.8 L 216.852 1880.08 L 219.464 1878.85 C 223.443 1876.81 235.431 1867.94 239.662 1864.91 L 137.44 1865.2 C 138.234 1833.16 137.37 1797.59 137.334 1765.29 L 137.633 1594.74 z" fill="rgb(58,36,32)" transform="translate(0,0)"></path>
<path d="M 399.901 1751.2 C 409.354 1743.83 421.701 1735.65 431.714 1728.71 C 432.318 1768.39 431.523 1808.24 431.901 1847.92 L 431.718 1928.04 C 424.649 1928.05 406.156 1928.5 399.999 1927.61 L 398.253 1927.53 C 391.147 1928.63 341.908 1927.58 331.628 1927.48 C 332.026 1914.37 331.852 1900.21 331.867 1887.04 C 332.037 1883.81 331.989 1881.98 331.836 1878.77 L 335.5 1878.09 C 339.464 1874.5 339.182 1870.47 336.254 1866.12 C 331.731 1863.4 251.736 1864.94 239.948 1865.02 C 289.563 1827.76 346.797 1789.13 397.838 1752.9 L 399.901 1751.2 z" fill="rgb(255,140,66)" transform="translate(0,0)"></path>
<path d="M 399.901 1751.2 C 409.354 1743.83 421.701 1735.65 431.714 1728.71 C 432.318 1768.39 431.523 1808.24 431.901 1847.92 L 431.718 1928.04 C 424.649 1928.05 406.156 1928.5 399.999 1927.61 L 398.253 1927.53 C 398.33 1896.86 398.212 1866.18 397.901 1835.5 C 397.872 1807.88 398.396 1780.54 397.838 1752.9 L 399.901 1751.2 z" fill="rgb(245,237,230)" transform="translate(0,0)"></path>
<path d="M 399.901 1751.2 C 400.15 1786.25 400.224 1821.29 400.122 1856.34 C 400.175 1878.98 400.999 1905.36 399.999 1927.61 L 398.253 1927.53 C 398.33 1896.86 398.212 1866.18 397.901 1835.5 C 397.872 1807.88 398.396 1780.54 397.838 1752.9 L 399.901 1751.2 z" fill="rgb(187,112,52)" transform="translate(0,0)"></path>
<path d="M 219.464 1878.85 L 291.479 1878.93 C 302.09 1878.94 319.917 1878.43 329.923 1879.17 L 331.836 1878.77 C 331.989 1881.98 332.037 1883.81 331.867 1887.04 L 330.073 1886.75 L 329.316 1887.02 C 319.048 1886.56 308.506 1887.3 298.377 1886.69 L 299.535 1883.46 C 300.15 1882.74 300.024 1882.98 300.148 1882.64 C 299.258 1881.8 282.513 1882.42 279.345 1881.84 L 217.834 1881.8 L 216.852 1880.08 L 219.464 1878.85 z" fill="rgb(245,237,230)" transform="translate(0,0)"></path>
<path d="M 299.535 1883.46 C 308.682 1883.06 317.949 1883.42 327.106 1883.34 C 329.628 1883.32 329.653 1884.69 330.073 1886.75 L 329.316 1887.02 C 319.048 1886.56 308.506 1887.3 298.377 1886.69 L 299.535 1883.46 z" fill="rgb(245,237,230)" transform="translate(0,0)"></path>
<path d="M 329.923 1879.17 L 331.836 1878.77 C 331.989 1881.98 332.037 1883.81 331.867 1887.04 L 330.073 1886.75 C 329.653 1884.69 329.628 1883.32 327.106 1883.34 C 317.949 1883.42 308.682 1883.06 299.535 1883.46 C 300.15 1882.74 300.024 1882.98 300.148 1882.64 C 299.258 1881.8 282.513 1882.42 279.345 1881.84 C 284.909 1880.15 320.854 1883.15 329.285 1881.55 C 329.649 1881.48 329.852 1879.62 329.923 1879.17 z" fill="rgb(138,104,89)" transform="translate(0,0)"></path>
<path d="M 0 213.063 C 9.2929 212.983 58.8398 211.699 64.3232 213.957 L 66.5986 213.871 C 74.8045 213.262 96.5059 213.325 104.959 213.673 C 105.02 221.001 105.115 228.626 104.826 235.929 L 105.167 238.03 C 104.961 244.683 104.677 254.423 105.687 260.881 L 105.118 262.175 C 104.952 268.852 104.638 278.339 105.727 284.767 L 105.122 286.222 C 105.005 292.381 104.895 299.909 105.272 305.99 C 106.735 315.101 105.408 344.66 105.846 356.371 C 107.089 389.557 107.017 423.22 107.059 456.449 L 107.097 606.456 C 107.067 633.046 107.856 671.176 105.797 697.303 L 105.065 696.966 C 70.3509 697.47 34.7775 697.04 0 696.987 L 0 658.197 L 0 657.219 L 0 616.779 L 0 389.963 L 0 388.156 L 0 382.109 L 0 381.225 L 0 359.602 L 0 358.131 L 0 357.119 L 0 335.088 L 0 333.037 L 0 310.972 L 0 308.375 L 0 286.841 L 0 284.307 L 0 262.087 L 0 261.15 L 0 260.116 L 0 237.989 L 0 235.919 L 0 214.065 L 0 213.063 z" fill="rgb(255,90,31)" transform="translate(0,0)"></path>
<path d="M 0 213.063 C 9.2929 212.983 58.8398 211.699 64.3232 213.957 L 66.5986 213.871 C 74.8045 213.262 96.5059 213.325 104.959 213.673 C 105.02 221.001 105.115 228.626 104.826 235.929 L 105.167 238.03 C 104.961 244.683 104.677 254.423 105.687 260.881 L 105.118 262.175 C 104.952 268.852 104.638 278.339 105.727 284.767 L 105.122 286.222 C 105.005 292.381 104.895 299.909 105.272 305.99 L 104.551 308.59 L 104.804 310.491 C 105.383 316.863 105.289 326.546 104.894 332.955 L 105.257 335.06 C 105.08 340.375 105.746 353.95 104.216 357.753 L 104.25 359.122 C 91.7285 359.644 78.7792 359.288 66.2058 359.373 C 66.149 366.429 65.8804 374.696 66.5383 381.638 L 64.8367 384.167 C 64.6492 383.848 64.5271 383.481 64.2742 383.212 C 61.4233 380.176 7.82286 382.041 0 382.109 L 0 381.225 L 0 359.602 L 0 358.131 L 0 357.119 L 0 335.088 L 0 333.037 L 0 310.972 L 0 308.375 L 0 286.841 L 0 284.307 L 0 262.087 L 0 261.15 L 0 260.116 L 0 237.989 L 0 235.919 L 0 214.065 L 0 213.063 z" fill="rgb(203,140,120)" transform="translate(0,0)"></path>
<path d="M 0 213.063 C 9.2929 212.983 58.8398 211.699 64.3232 213.957 L 66.5986 213.871 C 74.8045 213.262 96.5059 213.325 104.959 213.673 C 105.02 221.001 105.115 228.626 104.826 235.929 L 105.167 238.03 C 104.961 244.683 104.677 254.423 105.687 260.881 C 94.1384 258.869 77.3651 261.68 66.2337 259.433 C 51.3021 262.474 16.4819 261.543 0 261.15 L 0 260.116 L 0 237.989 L 0 235.919 L 0 214.065 L 0 213.063 z" fill="rgb(245,237,230)" transform="translate(0,0)"></path>
<path d="M 0 213.063 C 9.2929 212.983 58.8398 211.699 64.3232 213.957 C 63.8081 220.419 64.0047 228.993 64.1772 235.593 C 49.1424 236.987 16.2418 235.956 0 235.919 L 0 214.065 L 0 213.063 z" fill="rgb(245,237,230)" transform="translate(0,0)"></path>
<path d="M 64.3232 213.957 L 66.5986 213.871 C 74.8045 213.262 96.5059 213.325 104.959 213.673 C 105.02 221.001 105.115 228.626 104.826 235.929 C 92.6256 235.952 78.6945 236.274 66.6427 235.793 C 65.741 235.698 65.0958 235.642 64.1772 235.593 C 64.0047 228.993 63.8081 220.419 64.3232 213.957 z" fill="rgb(245,237,230)" transform="translate(0,0)"></path>
<path d="M 64.3232 213.957 L 66.5986 213.871 C 66.4492 221.178 66.4639 228.487 66.6427 235.793 C 65.741 235.698 65.0958 235.642 64.1772 235.593 C 64.0047 228.993 63.8081 220.419 64.3232 213.957 z" fill="rgb(203,140,120)" transform="translate(0,0)"></path>
<path d="M 67.1468 238.205 C 77.6961 237.522 94.3221 237.943 105.167 238.03 C 104.961 244.683 104.677 254.423 105.687 260.881 C 94.1384 258.869 77.3651 261.68 66.2337 259.433 C 67.6764 254.615 67.0551 243.895 67.1468 238.205 z" fill="rgb(245,237,230)" transform="translate(0,0)"></path>
<path d="M 104.826 235.929 L 105.167 238.03 C 94.3221 237.943 77.6961 237.522 67.1468 238.205 L 64.7902 238.764 C 58.2967 237.078 9.77862 237.931 0 237.989 L 0 235.919 C 16.2418 235.956 49.1424 236.987 64.1772 235.593 C 65.0958 235.642 65.741 235.698 66.6427 235.793 C 78.6945 236.274 92.6256 235.952 104.826 235.929 z" fill="rgb(255,140,66)" transform="translate(0,0)"></path>
<path d="M 64.7902 238.764 L 67.1468 238.205 C 67.0551 243.895 67.6764 254.615 66.2337 259.433 C 51.3021 262.474 16.4819 261.543 0 261.15 L 0 260.116 C 20.3879 260.748 43.5784 260.203 64.1495 260.173 C 64.095 253.855 63.6798 244.715 64.7902 238.764 z" fill="rgb(214,170,148)" transform="translate(0,0)"></path>
<path d="M 0 308.375 C 8.19696 308.356 58.9818 307.839 63.2839 308.75 L 63.6032 310.569 C 63.9691 318.242 63.9876 325.253 63.9489 332.938 L 0 333.037 L 0 310.972 L 0 308.375 z" fill="rgb(245,237,230)" transform="translate(0,0)"></path>
<path d="M 0 308.375 C 8.19696 308.356 58.9818 307.839 63.2839 308.75 L 63.6032 310.569 C 42.7074 311.069 20.9567 310.875 0 310.972 L 0 308.375 z" fill="rgb(255,209,102)" transform="translate(0,0)"></path>
<path d="M 0 284.307 C 6.44218 284.266 58.7211 283.555 63.1979 284.605 L 63.2921 286.106 C 64.5207 291.101 64.3768 303.752 63.2839 308.75 C 58.9818 307.839 8.19696 308.356 0 308.375 L 0 286.841 L 0 284.307 z" fill="rgb(245,237,230)" transform="translate(0,0)"></path>
<path d="M 0 284.307 C 6.44218 284.266 58.7211 283.555 63.1979 284.605 L 63.2921 286.106 C 42.1988 286.626 21.0997 286.871 0 286.841 L 0 284.307 z" fill="rgb(214,170,148)" transform="translate(0,0)"></path>
<path d="M 0 335.088 L 63.8888 335.068 L 63.9574 357.453 C 53.4954 359.215 12.9242 358.248 0 358.131 L 0 357.119 L 0 335.088 z" fill="rgb(245,237,230)" transform="translate(0,0)"></path>
<path d="M 0 262.087 L 64.024 262.041 C 64.0952 268.828 64.5905 278.174 63.1979 284.605 C 58.7211 283.555 6.44218 284.266 0 284.307 L 0 262.087 z" fill="rgb(245,237,230)" transform="translate(0,0)"></path>
<path d="M 0 359.602 C 18.4664 358.349 44.8584 359.079 63.8948 359.115 L 64.0163 381.03 L 0 381.225 L 0 359.602 z" fill="rgb(245,237,230)" transform="translate(0,0)"></path>
<path d="M 66.2233 310.473 C 79.0829 310.646 91.9443 310.652 104.804 310.491 C 105.383 316.863 105.289 326.546 104.894 332.955 C 91.9598 332.861 79.2355 333.267 66.1572 332.982 C 66.1365 325.479 66.1586 317.976 66.2233 310.473 z" fill="rgb(245,237,230)" transform="translate(0,0)"></path>
<path d="M 66.4931 286.124 C 79.2004 286.166 92.5021 285.912 105.122 286.222 C 105.005 292.381 104.895 299.909 105.272 305.99 L 104.551 308.59 C 92.3863 308.153 78.6071 308.486 66.3105 308.491 C 66.2436 301.035 66.3045 293.578 66.4931 286.124 z" fill="rgb(245,237,230)" transform="translate(0,0)"></path>
<path d="M 66.2605 335.038 L 105.257 335.06 C 105.08 340.375 105.746 353.95 104.216 357.753 L 66.2074 357.717 C 66.1714 350.157 66.1891 342.597 66.2605 335.038 z" fill="rgb(245,237,230)" transform="translate(0,0)"></path>
<path d="M 66.5771 262.097 C 79.0695 262.034 92.6839 261.839 105.118 262.175 C 104.952 268.852 104.638 278.339 105.727 284.767 C 98.2338 283.568 75.3648 284.174 66.5318 284.209 C 66.4277 276.839 66.4428 269.467 66.5771 262.097 z" fill="rgb(245,237,230)" transform="translate(0,0)"></path>
<path d="M 0 389.963 C 11.1628 389.912 56.5172 388.279 64.7688 390.279 C 64.1276 465.745 63.9533 541.213 64.246 616.681 L 0 616.779 L 0 389.963 z" fill="rgb(245,237,230)" transform="translate(0,0)"></path>
<path d="M 0 658.197 C 34.4192 658.123 70.7244 657.529 105.081 658.292 L 105.065 696.966 C 70.3509 697.47 34.7775 697.04 0 696.987 L 0 658.197 z" fill="rgb(245,237,230)" transform="translate(0,0)"></path>
<path d="M 105.272 305.99 C 106.735 315.101 105.408 344.66 105.846 356.371 C 107.089 389.557 107.017 423.22 107.059 456.449 L 107.097 606.456 C 107.067 633.046 107.856 671.176 105.797 697.303 L 105.065 696.966 L 105.081 658.292 C 70.7244 657.529 34.4192 658.123 0 658.197 L 0 657.219 C 34.1073 658.06 70.8196 657.374 105.027 657.145 L 105.009 389.087 C 96.4723 389.077 71.255 388.072 64.7688 390.279 C 56.5172 388.279 11.1628 389.912 0 389.963 L 0 388.156 L 0 382.109 C 7.82286 382.041 61.4233 380.176 64.2742 383.212 C 64.5271 383.481 64.6492 383.848 64.8367 384.167 L 66.5383 381.638 C 65.8804 374.696 66.149 366.429 66.2058 359.373 C 78.7792 359.288 91.7285 359.644 104.25 359.122 L 104.216 357.753 C 105.746 353.95 105.08 340.375 105.257 335.06 L 104.894 332.955 C 105.289 326.546 105.383 316.863 104.804 310.491 L 104.551 308.59 L 105.272 305.99 z" fill="rgb(146,48,33)" transform="translate(0,0)"></path>
<path d="M 104.25 359.122 C 105.642 363.118 104.864 375.511 105.269 381.147 C 95.0316 381.373 75.7123 380.8 66.5383 381.638 C 65.8804 374.696 66.149 366.429 66.2058 359.373 C 78.7792 359.288 91.7285 359.644 104.25 359.122 z" fill="rgb(245,237,230)" transform="translate(0,0)"></path>
<path d="M 66.5383 381.638 C 75.7123 380.8 95.0316 381.373 105.269 381.147 C 104.935 384.501 105.519 384.939 103.49 386.736 C 97.2097 387.247 69.1247 388.478 64.8651 386.458 C 60.4602 389.851 7.82785 389.146 0 388.156 L 0 382.109 C 7.82286 382.041 61.4233 380.176 64.2742 383.212 C 64.5271 383.481 64.6492 383.848 64.8367 384.167 L 66.5383 381.638 z" fill="rgb(255,90,31)" transform="translate(0,0)"></path>
<path d="M 0 0 L 64.1514 0 L 66.8735 0 L 105.101 0 C 105.124 5.90771 105.041 11.9382 105.241 17.8231 C 106.173 23.5229 106.62 38.7627 105.182 44.1103 C 104.896 50.2676 104.867 59.8635 105.246 66.0742 C 105.712 72.8475 106.192 86.0737 105.244 92.6863 C 104.832 99.9155 105.147 107.153 104.866 114.456 L 104.57 115.919 C 105.452 121.19 104.859 132.58 105.248 139.009 L 105.186 141.124 C 104.89 148.028 104.803 156.191 105.288 163.052 L 104.893 165.012 C 105.104 172.276 104.561 180.595 105.531 187.567 L 104.95 189.801 C 105.051 197.253 104.761 204.666 105.352 212.066 L 104.959 213.673 C 96.5059 213.325 74.8045 213.262 66.5986 213.871 L 64.3232 213.957 C 58.8398 211.699 9.2929 212.983 0 213.063 L 0 211.796 L 0 189.715 L 0 187.105 L 0 164.97 L 0 162.988 L 0 141.031 L 0 138.901 L 0 116.706 L 0 114.49 L 0 92.8272 L 0 90.0654 L 0 69.0853 L 0 68.1385 L 0 66.8746 L 0 44.1126 L 0 42.2035 L 0 19.9983 L 0 18.0112 L 0 0 z" fill="rgb(203,140,120)" transform="translate(0,0)"></path>
<path d="M 0 187.105 C 8.67679 187.073 56.6677 185.782 63.1016 187.622 L 63.6657 189.917 C 63.9686 197.235 64.0711 204.559 63.973 211.882 C 42.9206 211.874 20.9766 212.192 0 211.796 L 0 189.715 L 0 187.105 z" fill="rgb(245,237,230)" transform="translate(0,0)"></path>
<path d="M 0 187.105 C 8.67679 187.073 56.6677 185.782 63.1016 187.622 L 63.6657 189.917 L 0 189.715 L 0 187.105 z" fill="rgb(214,170,148)" transform="translate(0,0)"></path>
<path d="M 0 90.0654 C 9.13067 90.0554 56.2032 88.7977 63.1619 90.7307 L 63.6441 92.8362 C 63.9314 100.067 64.0116 107.305 63.8848 114.541 C 42.5901 114.395 21.2948 114.378 -3.55271e-15 114.49 L 0 92.8272 L 0 90.0654 z" fill="rgb(245,237,230)" transform="translate(0,0)"></path>
<path d="M 0 90.0654 C 9.13067 90.0554 56.2032 88.7977 63.1619 90.7307 L 63.6441 92.8362 L 0 92.8272 L 0 90.0654 z" fill="rgb(214,170,148)" transform="translate(0,0)"></path>
<path d="M 0 44.1126 L 63.9213 44.0952 L 64.0139 66.3993 C 56.5453 67.481 44.4466 67.2403 36.7804 66.8494 C 24.7529 67.063 12.0786 66.8707 0 66.8746 L 0 44.1126 z" fill="rgb(245,237,230)" transform="translate(0,0)"></path>
<path d="M 0 116.706 C 17.0493 115.397 46.1233 116.003 63.8954 116.233 L 63.8631 138.895 L 0 138.901 L 0 116.706 z" fill="rgb(245,237,230)" transform="translate(0,0)"></path>
<path d="M 0 19.9983 L 63.9229 19.9769 L 64.0013 41.953 C 42.6689 42.2533 21.3341 42.3368 0 42.2035 L 0 19.9983 z" fill="rgb(245,237,230)" transform="translate(0,0)"></path>
<path d="M 0 68.1385 C 8.07152 68.0704 59.2104 67.2793 63.9093 68.3794 C 63.9474 74.6627 64.3276 84.9721 63.1619 90.7307 C 56.2032 88.7977 9.13067 90.0554 0 90.0654 L 0 69.0853 L 0 68.1385 z" fill="rgb(245,237,230)" transform="translate(0,0)"></path>
<path d="M 0 141.031 L 63.8514 141.048 L 63.8249 162.981 L 0 162.988 L 0 141.031 z" fill="rgb(245,237,230)" transform="translate(0,0)"></path>
<path d="M 0 164.97 L 63.8581 164.993 C 63.9013 171.161 64.3048 181.997 63.1016 187.622 C 56.6677 185.782 8.67679 187.073 0 187.105 L 0 164.97 z" fill="rgb(245,237,230)" transform="translate(0,0)"></path>
<path d="M 0 0 L 64.1514 0 L 66.8735 0 L 66.7355 17.6444 C 65.6956 17.6256 65.1314 17.6063 64.0742 17.6962 C 47.1506 18.9723 17.7737 18.0285 0 18.0112 L 0 0 z" fill="rgb(245,237,230)" transform="translate(0,0)"></path>
<path d="M 64.1514 0 L 66.8735 0 L 66.7355 17.6444 C 65.6956 17.6256 65.1314 17.6063 64.0742 17.6962 C 64.0382 11.7973 64.0639 5.89829 64.1514 0 z" fill="rgb(203,140,120)" transform="translate(0,0)"></path>
<path d="M 104.57 115.919 C 105.452 121.19 104.859 132.58 105.248 139.009 C 92.4295 138.68 79.1075 138.933 66.2547 138.947 C 66.202 131.33 66.2021 123.713 66.255 116.096 C 78.5453 116 92.4681 116.449 104.57 115.919 z" fill="rgb(245,237,230)" transform="translate(0,0)"></path>
<path d="M 66.178 164.981 C 79.0831 164.919 91.9885 164.929 104.893 165.012 C 105.104 172.276 104.561 180.595 105.531 187.567 C 95.1361 186.641 77.0732 187.25 66.2175 187.485 C 66.1437 179.984 66.1306 172.482 66.178 164.981 z" fill="rgb(245,237,230)" transform="translate(0,0)"></path>
<path d="M 66.3185 189.718 C 79.095 189.786 92.2458 189.573 104.95 189.801 C 105.051 197.253 104.761 204.666 105.352 212.066 C 94.1003 211.358 78.0113 211.93 66.3772 211.869 C 66.2862 204.486 66.2667 197.102 66.3185 189.718 z" fill="rgb(245,237,230)" transform="translate(0,0)"></path>
<path d="M 66.3312 44.0781 C 79.2254 44.0576 92.3037 43.9705 105.182 44.1103 C 104.896 50.2676 104.867 59.8635 105.246 66.0742 L 66.2313 66.2771 C 66.1791 58.8773 66.2124 51.4772 66.3312 44.0781 z" fill="rgb(245,237,230)" transform="translate(0,0)"></path>
<path d="M 66.2691 92.6485 C 79.2149 92.7419 92.3935 92.5213 105.244 92.6863 C 104.832 99.9155 105.147 107.153 104.866 114.456 C 91.7942 114.424 79.3146 114.349 66.1945 114.549 C 66.1668 107.249 66.1916 99.9484 66.2691 92.6485 z" fill="rgb(245,237,230)" transform="translate(0,0)"></path>
<path d="M 66.1912 141.055 L 105.186 141.124 C 104.89 148.028 104.803 156.191 105.288 163.052 C 93.3074 162.563 78.4062 162.98 66.1602 162.95 L 66.1912 141.055 z" fill="rgb(245,237,230)" transform="translate(0,0)"></path>
<path d="M 66.8735 0 L 105.101 0 C 105.124 5.90771 105.041 11.9382 105.241 17.8231 C 94.341 18.0108 77.2685 18.383 66.7355 17.6444 L 66.8735 0 z" fill="rgb(245,237,230)" transform="translate(0,0)"></path>
<path d="M 66.2824 68.2056 L 104.834 68.1973 L 104.839 90.49 L 66.2348 90.49 C 66.1682 83.0619 66.1841 75.6333 66.2824 68.2056 z" fill="rgb(245,237,230)" transform="translate(0,0)"></path>
<path d="M 66.4906 20.082 C 77.4946 19.447 93.6193 19.7647 104.885 19.8086 L 104.865 41.8516 L 66.3336 41.8946 C 66.2692 34.6234 66.3215 27.3516 66.4906 20.082 z" fill="rgb(245,237,230)" transform="translate(0,0)"></path>
<path d="M 137.714 22.9444 L 399.835 22.998 L 399.089 395.251 L 359.351 395.212 C 291.898 394.49 222.332 394.933 154.874 395.24 L 137.84 395.324 L 137.714 22.9444 z" fill="rgb(58,36,32)" transform="translate(0,0)"></path>
<path d="M 153.973 310.019 C 222.002 309.975 292.117 310.846 360.017 309.859 C 359.829 315.666 359.774 322.33 359.414 328.056 L 359.351 395.212 C 291.898 394.49 222.332 394.933 154.874 395.24 C 154.68 372.212 155.286 349.15 154.63 326.103 C 153.853 320.186 153.943 315.927 153.973 310.019 z" fill="rgb(43,16,22)" transform="translate(0,0)"></path>
<path d="M 155.991 312.011 L 357.872 312.094 L 358.303 324.878 L 155.99 325.353 L 155.991 312.011 z" fill="rgb(58,36,32)" transform="translate(0,0)"></path>
<path d="M 137.238 1202.88 L 399.595 1202.72 L 399.671 1561.87 C 396.246 1561.72 392.033 1561.65 388.693 1561.31 L 385.214 1561.12 C 381.465 1563.02 352.553 1562.42 348.107 1561.81 C 339.743 1562.14 331.845 1562.05 323.472 1561.96 C 310.791 1562.52 296.679 1562.2 283.889 1562.16 L 137.831 1562.16 C 136.582 1551.62 137.083 1531.95 137.115 1520.78 L 137.383 1447.39 L 137.238 1202.88 z" fill="rgb(58,36,32)" transform="translate(0,0)"></path>
<path d="M 283.7 1500 C 283.432 1496.92 282.71 1488.05 284.457 1485.75 C 285.658 1489.73 285.146 1557.98 284.035 1561.25 L 283.889 1562.16 L 137.831 1562.16 C 139.243 1552.38 138.347 1511.81 138.314 1499.97 L 283.7 1500 z" fill="rgb(43,16,22)" transform="translate(0,0)"></path>
<path d="M 351.945 1322.43 C 362.45 1324.58 373.625 1326.18 384.324 1328.23 L 383.291 1338.26 C 376.197 1390.35 367.44 1441.41 359.253 1493.34 L 352.461 1537.82 C 351.731 1542.55 349.529 1557.38 348.24 1561.25 C 343.382 1560.49 338.59 1559.46 333.774 1558.47 C 330.519 1557.25 319.696 1555.62 315.737 1554.92 C 320.114 1533.64 323.897 1504.83 327.422 1482.83 L 351.945 1322.43 z" fill="rgb(245,237,230)" transform="translate(0,0)"></path>
<path d="M 366.967 1331.76 C 369.467 1332 374.428 1332.4 375.76 1334.39 C 373.526 1334.61 371.602 1334.6 369.357 1334.62 C 367.332 1336.32 366.836 1337.75 366.46 1340.65 C 363.152 1366.11 359.1 1391.63 355.178 1417 L 334.798 1544.23 C 334.176 1548.36 334.781 1548.59 332.537 1551.47 C 332.169 1550.46 362.893 1349.77 366.967 1331.76 z" fill="rgb(157,113,95)" transform="translate(0,0)"></path>
<path d="M 385.717 1317.9 L 398.86 1317.94 C 398.86 1341.72 400.363 1554.76 398.174 1560.23 C 395.033 1561.64 392.113 1561.34 388.693 1561.31 L 385.214 1561.12 C 384.446 1542.04 385.242 1518.29 385.285 1498.79 L 385.161 1385.5 C 383.698 1372.4 386.153 1352.09 384.58 1338.93 L 383.291 1338.26 L 384.324 1328.23 C 385.291 1326.69 385.54 1320.15 385.717 1317.9 z" fill="rgb(245,237,230)" transform="translate(0,0)"></path>
<path d="M 384.324 1328.23 C 385.291 1326.69 385.54 1320.15 385.717 1317.9 C 386.202 1329.18 386.363 1375.42 385.161 1385.5 C 383.698 1372.4 386.153 1352.09 384.58 1338.93 L 383.291 1338.26 L 384.324 1328.23 z" fill="rgb(138,104,89)" transform="translate(0,0)"></path>
<path d="M 137.463 811.923 L 399.395 811.823 L 399.574 1171.06 C 371.295 1171.06 338.887 1170.26 310.963 1171.15 C 305.01 1171.32 299.054 1171.35 293.1 1171.23 C 272.705 1171.01 252.308 1170.98 231.911 1171.15 C 226.959 1171.29 222.003 1171.32 217.049 1171.24 L 137.918 1171.22 L 137.435 932.632 C 137.407 893.312 138.354 850.94 137.463 811.923 z" fill="rgb(58,36,32)" transform="translate(0,0)"></path>
<path d="M 215.172 1011.37 C 225.752 1006.56 233.756 1003.37 245.215 1001.16 C 285.648 993.354 334.416 1008.22 352.279 1048.45 C 353.935 1052.25 355.445 1056.1 356.806 1060.01 C 359.811 1060.3 365.967 1061.05 368.7 1060.94 C 353.151 1026.24 400.879 1023.09 392.634 1053.44 C 391.457 1057.77 384.166 1061.75 379.744 1063 L 374.531 1064.47 C 378.203 1066.08 382.777 1067.55 384.926 1070.76 L 384.204 1072.16 C 378.527 1072.3 373.217 1070.12 370.136 1065.18 L 358.185 1064.67 C 357.833 1099.15 350.575 1115.64 323.241 1136.58 C 321.713 1148.93 320.657 1161.45 309.298 1168.77 L 310.963 1171.15 C 305.01 1171.32 299.054 1171.35 293.1 1171.23 C 272.705 1171.01 252.308 1170.98 231.911 1171.15 C 226.959 1171.29 222.003 1171.32 217.049 1171.24 L 217.939 1169.32 C 206.584 1162.62 205.255 1149.74 202.924 1137.99 C 190.983 1130.8 186.51 1124.84 178.928 1113.66 C 174.374 1112.52 153.687 1108.01 151.58 1105.36 C 150.537 1099.22 149.665 1072.5 152.275 1067.4 L 155.578 1066.5 L 157.879 1066.13 C 159.871 1065.53 164.956 1064.63 167.205 1064.16 C 171.523 1051.69 180.106 1036.15 190.384 1027.7 C 192.612 1026.41 197.535 1022.14 200.268 1020.14 C 205.624 1016.22 210.001 1014.53 215.172 1011.37 z" fill="rgb(255,90,31)" transform="translate(0,0)"></path>
<path d="M 245.495 1148.03 C 255.076 1150.42 272.464 1149.32 282.847 1148.9 C 285.057 1156.87 286.895 1164.12 294.443 1168.71 L 293.1 1171.23 C 272.705 1171.01 252.308 1170.98 231.911 1171.15 L 231.124 1168.87 C 239.662 1163.32 241.821 1157.51 245.495 1148.03 z" fill="rgb(58,36,32)" transform="translate(0,0)"></path>
<path d="M 155.578 1066.5 L 157.879 1066.13 C 163.6 1072.53 164.588 1072.71 168.106 1081.2 C 170.165 1086.17 168.885 1103.68 162.694 1103.61 L 162.478 1103.48 C 161.567 1099.3 178.448 1089.44 155.578 1066.5 z" fill="rgb(146,48,33)" transform="translate(0,0)"></path>
<path d="M 309.298 1168.77 L 310.963 1171.15 C 305.01 1171.32 299.054 1171.35 293.1 1171.23 L 294.443 1168.71 C 303.088 1169.52 300.925 1169.4 309.298 1168.77 z" fill="rgb(146,48,33)" transform="translate(0,0)"></path>
<path d="M 231.124 1168.87 L 231.911 1171.15 C 226.959 1171.29 222.003 1171.32 217.049 1171.24 L 217.939 1169.32 C 220.428 1169.14 228.313 1168.96 231.124 1168.87 z" fill="rgb(146,48,33)" transform="translate(0,0)"></path>
<path d="M 256.575 1010.36 C 265.69 1009.58 291.595 1009.2 296.251 1017.72 C 291.645 1021.18 282.581 1018.22 277.252 1017.04 C 270.055 1016.49 265.612 1016.52 258.616 1017.27 C 252.793 1017.9 240.922 1021.48 236.166 1020.99 C 234.075 1018.21 234.612 1019.52 234.233 1015.96 C 237.513 1012.51 251.437 1010.97 256.575 1010.36 z" fill="rgb(58,36,32)" transform="translate(0,0)"></path>
<path d="M 378.77 1037.27 C 380.219 1037.45 382.098 1037.65 383.471 1038.14 C 385.568 1038.87 387.282 1040.42 388.231 1042.43 C 392.017 1050.39 384.804 1055.57 378.713 1058.6 C 366.287 1060.82 368.157 1041.17 378.77 1037.27 z" fill="rgb(58,36,32)" transform="translate(0,0)"></path>
<path d="M 192.453 1047.53 C 194.055 1046.52 196.079 1046.48 197.724 1047.41 C 199.369 1048.35 200.367 1050.11 200.323 1052 C 200.28 1053.89 199.201 1055.6 197.515 1056.46 C 195.066 1057.7 192.071 1056.8 190.717 1054.41 C 189.363 1052.02 190.128 1048.99 192.453 1047.53 z" fill="rgb(43,16,22)" transform="translate(0,0)"></path>
<path d="M 180.026 993.69 C 188.926 994.365 214.229 997.647 214.597 1010.04 L 215.172 1011.37 C 210.001 1014.53 205.624 1016.22 200.268 1020.14 C 197.535 1022.14 192.612 1026.41 190.384 1027.7 L 189.034 1026.58 C 185.978 1018.13 182.311 1002.84 180.026 993.69 z" fill="rgb(255,90,31)" transform="translate(0,0)"></path>
<path d="M 189.034 1026.58 C 195.846 1021.03 206.128 1012.57 214.597 1010.04 L 215.172 1011.37 C 210.001 1014.53 205.624 1016.22 200.268 1020.14 C 197.535 1022.14 192.612 1026.41 190.384 1027.7 L 189.034 1026.58 z" fill="rgb(173,62,39)" transform="translate(0,0)"></path>
<path d="M 241.851 937.749 C 255.336 934.397 269.003 942.534 272.484 955.987 C 275.964 969.439 267.957 983.183 254.539 986.791 C 240.939 990.449 226.967 982.31 223.439 968.675 C 219.912 955.041 228.184 941.147 241.851 937.749 z" fill="rgb(255,90,31)" transform="translate(0,0)"></path>
<path d="M 244.606 945.467 C 253.92 943.675 262.936 949.725 264.81 959.022 C 266.683 968.319 260.713 977.389 251.433 979.344 C 242.037 981.323 232.829 975.262 230.932 965.849 C 229.035 956.435 235.177 947.281 244.606 945.467 z" fill="rgb(255,140,66)" transform="translate(0,0)"></path>
<path d="M 137.302 427.576 L 399.37 427.885 L 399.972 543.693 L 399.873 779.087 C 381.987 779.096 362.698 779.47 344.924 778.976 C 326.337 779.485 306.748 779.038 288.017 779.167 L 137.666 779.685 L 137.302 427.576 z" fill="rgb(58,36,32)" transform="translate(0,0)"></path>
<path d="M 399.972 543.693 L 399.873 779.087 C 381.987 779.096 362.698 779.47 344.924 778.976 L 346.027 776.762 C 346.262 768.954 346.123 760.386 346.161 752.511 C 346.939 746.689 346.747 733.905 346.779 727.582 L 346.938 682.439 C 347.046 638.543 347.896 591.403 346.827 547.729 L 347.247 545.868 C 351.063 543.584 390.578 544.805 398.06 544.888 L 399.972 543.693 z" fill="rgb(255,90,31)" transform="translate(0,0)"></path>
<path d="M 399.972 543.693 L 399.873 779.087 C 381.987 779.096 362.698 779.47 344.924 778.976 L 346.027 776.762 C 350.936 777.639 390.968 777.075 397.862 777.055 C 398.543 752.302 397.971 724.558 397.999 699.605 L 398.06 544.888 L 399.972 543.693 z" fill="rgb(146,48,33)" transform="translate(0,0)"></path>
<path d="M 356.347 551.817 L 386.15 551.878 L 386.448 772.42 C 377.446 772.972 365.623 772.721 356.408 772.792 L 356.347 551.817 z" fill="rgb(146,48,33)" transform="translate(0,0)"></path>
<path d="M 358.097 553.51 L 383.902 553.51 L 384.741 771.016 L 358.156 771.017 L 358.097 553.51 z" fill="rgb(255,90,31)" transform="translate(0,0)"></path>
<path d="M 346.827 547.729 C 347.896 591.403 347.046 638.543 346.938 682.439 L 346.779 727.582 C 346.747 733.905 346.939 746.689 346.161 752.511 C 345.201 735.755 347.41 595.386 345.118 590.707 C 342.502 594.842 334.867 632.552 333.34 639.743 C 323.528 685.959 311.533 731.576 301.211 777.637 C 291.157 777.354 278.555 773.636 269.107 770.28 C 275.463 748.816 281.491 718.648 286.785 696.008 L 316.531 571.08 C 325.68 573.168 336.811 576.565 346.016 579.098 C 345.97 570.222 345.49 555.925 346.827 547.729 z" fill="rgb(173,62,39)" transform="translate(0,0)"></path>
<path d="M 317.874 573.447 C 327.078 575.534 336.275 578.384 345.34 581.063 C 340.416 597.718 336.603 617.952 332.42 635.054 C 321.062 681.49 311.701 730.472 299.254 776.559 C 289.701 774.316 280.721 772.279 271.338 769.31 L 317.874 573.447 z" fill="rgb(58,36,32)" transform="translate(0,0)"></path>
<path d="M 1170 1250.42 L 1170 1285.13 L 1170 1287.36 L 1170 1333.99 L 1170 1637.45 L 1170 1686.8 L 1170 1707.59 L 1170 1723.45 L 1170 1902.78 L 1170 2048 L 973.784 2048 L 824.703 2048 L 0 2048 L 0 2001.08 L 0 1929.15 L 0 1928.08 L 0 1865.75 C 35.2563 1866.02 70.5086 1865.06 105.786 1865.16 L 137.44 1865.2 L 239.662 1864.91 C 235.431 1867.94 223.443 1876.81 219.464 1878.85 L 216.852 1880.08 L 217.834 1881.8 L 279.345 1881.84 C 282.513 1882.42 299.258 1881.8 300.148 1882.64 C 300.024 1882.98 300.15 1882.74 299.535 1883.46 L 298.377 1886.69 C 308.506 1887.3 319.048 1886.56 329.316 1887.02 L 330.073 1886.75 L 331.867 1887.04 C 331.852 1900.21 332.026 1914.37 331.628 1927.48 C 341.908 1927.58 391.147 1928.63 398.253 1927.53 L 399.999 1927.61 C 406.156 1928.5 424.649 1928.05 431.718 1928.04 L 431.901 1847.92 L 433.868 1847.72 L 434.186 1727.09 C 438.607 1723.13 451.876 1714.24 457.169 1710.49 C 473.001 1699.41 488.714 1688.16 504.306 1676.75 C 492.274 1676.78 479.302 1677.06 467.352 1676.53 C 488.201 1675.29 514.756 1675.54 535.876 1676.15 C 588.465 1677.66 643.983 1673.98 696.278 1676.25 L 698.363 1676.16 C 708.208 1670.55 725.976 1656.75 735.946 1649.73 L 811.067 1597.45 C 809.707 1591.18 808.757 1586.03 807.813 1579.69 C 803.903 1571.61 790.745 1496 788.428 1482.95 C 792.844 1481.99 821.284 1459.57 826.893 1455.6 L 988.73 1341.62 C 1011.45 1325.63 1043.55 1300.82 1065.91 1287.31 L 1065.95 1285.82 L 1069.24 1285.55 C 1070.72 1282.21 1110.39 1255.34 1116.8 1250.88 C 1134.82 1250.71 1151.87 1251.51 1170 1250.42 z" fill="rgb(58,36,32)" transform="translate(0,0)"></path>
<path d="M 1170 1637.45 L 1170 1686.8 L 1170 1707.59 L 1170 1723.45 L 1170 1902.78 L 1170 2048 L 973.784 2048 L 824.703 2048 C 827.951 2034.69 830.925 2017.48 833.738 2003.78 L 834.369 2002.28 C 838.007 2000.15 872.126 2001.04 879.015 2001.08 L 879.016 1927.88 L 848.512 1927.95 C 853.591 1907.44 858.068 1881.62 862.107 1860.64 L 878.249 1779.52 C 881.966 1760.59 887.327 1727.79 894.09 1710.71 C 899.757 1696.48 908.335 1683.59 919.273 1672.88 C 934.369 1657.73 953.264 1646.92 973.975 1641.59 C 995.723 1635.99 1029.72 1637.68 1052.9 1637.54 L 1170 1637.45 z" fill="rgb(255,140,66)" transform="translate(0,0)"></path>
<path d="M 1121.8 1801.88 C 1137.12 1759.22 1149.96 1727.33 1170 1686.8 L 1170 1707.59 L 1170 1723.45 L 1170 1902.78 L 1170 2048 L 973.784 2048 L 968.188 2040.45 C 980.082 2037.69 995.167 2032.92 1007.38 2029.67 C 989.048 2027.34 973.69 2024.81 955.521 2021.43 C 935.08 1991.63 916.91 1953.41 901.499 1920.77 C 911.475 1924.9 923.08 1933.46 932.256 1939.3 C 975.884 1967.06 1003.15 1998.14 1035.84 2036.92 C 1024 2007.05 1005.13 1976.88 993.544 1948.35 C 1007.14 1953.25 1032.23 1959.41 1046.25 1962.1 C 1026.36 1953.35 1006.83 1942.31 986.872 1933.29 C 975.923 1908.44 969.024 1890.31 961.454 1864.29 C 975.814 1868.09 992.225 1871.71 1006.79 1874.84 C 992.477 1867.8 972.968 1858.88 958.45 1852.93 C 949.281 1812.12 943.79 1788.15 941.554 1745.68 C 991.861 1786.35 1043.22 1854.05 1059.43 1917.13 C 1060.11 1919.33 1060.98 1923.84 1062.48 1924.77 C 1063.03 1922.06 1063.14 1921.18 1063.17 1918.41 C 1066.33 1877.24 1071 1841.39 1080.88 1800.95 C 1089.89 1819.85 1097.14 1840.35 1104.35 1860.01 C 1106.59 1855.25 1113.49 1828.65 1116.76 1819.69 L 1150.17 1845.47 C 1140.7 1830.83 1131.15 1816.7 1121.8 1801.88 z" fill="rgb(43,16,22)" transform="translate(0,0)"></path>
<path d="M 1121.8 1801.88 C 1137.12 1759.22 1149.96 1727.33 1170 1686.8 L 1170 1707.59 C 1164.51 1731.77 1164.36 1764.97 1160.04 1790.37 C 1155.73 1815.76 1153.41 1843.28 1149.84 1868.81 C 1148.82 1876.12 1143.28 1915.71 1144.02 1919.3 C 1140.42 1925.86 1130.99 1930.99 1124.58 1935.13 C 1119.56 1906.93 1113.09 1887.01 1104.35 1860.01 C 1106.59 1855.25 1113.49 1828.65 1116.76 1819.69 L 1150.17 1845.47 C 1140.7 1830.83 1131.15 1816.7 1121.8 1801.88 z" fill="rgb(58,36,32)" transform="translate(0,0)"></path>
<path d="M 1144.47 1919.12 C 1145.12 1911.65 1148.26 1895.07 1149.38 1886.58 L 1160.32 1802.15 C 1163.67 1777.53 1165.83 1746.67 1170 1723.45 L 1170 1902.78 C 1165.37 1906.16 1148.59 1919.52 1144.47 1919.12 z" fill="rgb(58,36,32)" transform="translate(0,0)"></path>
<path d="M 1064.87 1952.5 C 1071.9 1956.32 1099.5 1977.05 1106.41 1983.06 C 1103.57 1982.64 1072.04 1970.96 1065.38 1968.83 C 1065 1963 1064.82 1958.34 1064.87 1952.5 z" fill="rgb(58,36,32)" transform="translate(0,0)"></path>
<path d="M 0 2001.08 L 682.136 2001.28 C 697.157 2001.3 826.883 1999.75 832.695 2001.87 L 833.738 2003.78 C 830.925 2017.48 827.951 2034.69 824.703 2048 L 0 2048 L 0 2001.08 z" fill="rgb(43,16,22)" transform="translate(0,0)"></path>
<path d="M 1170 1250.42 L 1170 1285.13 L 1170 1287.36 L 1170 1333.99 C 1148.73 1333.86 1127.3 1333.92 1106.07 1333.64 C 1083.73 1333.35 1066.9 1335.43 1049.88 1351.98 C 1029.06 1372.22 1033.05 1402.38 1033.21 1428.92 C 1017.23 1441.7 994.624 1456.3 977.431 1468.23 L 865.054 1546.98 C 850.198 1557.43 825.907 1573.24 812.153 1583.99 C 807.845 1582.77 810.069 1581.88 807.813 1579.69 C 803.903 1571.61 790.745 1496 788.428 1482.95 C 792.844 1481.99 821.284 1459.57 826.893 1455.6 L 988.73 1341.62 C 1011.45 1325.63 1043.55 1300.82 1065.91 1287.31 L 1065.95 1285.82 L 1069.24 1285.55 C 1070.72 1282.21 1110.39 1255.34 1116.8 1250.88 C 1134.82 1250.71 1151.87 1251.51 1170 1250.42 z" fill="rgb(255,140,66)" transform="translate(0,0)"></path>
<path d="M 1170 1250.42 L 1170 1285.13 L 1069.24 1285.55 C 1070.72 1282.21 1110.39 1255.34 1116.8 1250.88 C 1134.82 1250.71 1151.87 1251.51 1170 1250.42 z" fill="rgb(255,140,66)" transform="translate(0,0)"></path>
<path d="M 1170 1285.13 L 1170 1287.36 L 1065.91 1287.31 L 1065.95 1285.82 L 1069.24 1285.55 L 1170 1285.13 z" fill="rgb(187,112,52)" transform="translate(0,0)"></path>
<path d="M 467.352 1676.53 C 488.201 1675.29 514.756 1675.54 535.876 1676.15 C 588.465 1677.66 643.983 1673.98 696.278 1676.25 C 677.626 1677.83 646.539 1676.63 626.853 1676.84 L 626.936 1713.61 C 562.64 1756.33 497.17 1803.21 433.868 1847.72 L 434.186 1727.09 C 438.607 1723.13 451.876 1714.24 457.169 1710.49 C 473.001 1699.41 488.714 1688.16 504.306 1676.75 C 492.274 1676.78 479.302 1677.06 467.352 1676.53 z" fill="rgb(255,140,66)" transform="translate(0,0)"></path>
<path d="M 698.363 1676.16 C 708.208 1670.55 725.976 1656.75 735.946 1649.73 L 811.067 1597.45 C 815.8 1621.45 822.995 1652.64 826.591 1676.13 C 784.068 1676.1 740.817 1675.69 698.363 1676.16 z" fill="rgb(255,90,31)" transform="translate(0,0)"></path>
<path d="M 137.44 1865.2 L 239.662 1864.91 C 235.431 1867.94 223.443 1876.81 219.464 1878.85 L 216.852 1880.08 C 153.588 1879.35 90.0369 1879.93 26.7388 1880.31 C 9.18608 1880.42 10.6154 1913.4 18.221 1921.86 C 24.3625 1928.69 43.2338 1925.15 52.522 1926.67 C 48.1201 1926.81 36.2605 1926.87 32.9204 1927.77 C 36.8422 1927.89 44.3039 1927.9 47.8473 1928.7 C 32.0391 1928.92 15.791 1929.26 0 1929.15 L 0 1928.08 L 0 1865.75 C 35.2563 1866.02 70.5086 1865.06 105.786 1865.16 L 137.44 1865.2 z" fill="rgb(43,16,22)" transform="translate(0,0)"></path>
<path d="M 298.377 1886.69 C 308.506 1887.3 319.048 1886.56 329.316 1887.02 L 330.564 1889.78 L 329.352 1892.36 L 329.636 1894.14 C 330.141 1895.59 330.115 1896.26 330.28 1897.81 L 330.346 1900.11 C 330.466 1901.59 330.202 1902.51 329.957 1904 C 328.757 1906.46 331.76 1904.78 330.059 1908.72 C 330.952 1914.15 331.375 1911.45 330.165 1917.06 C 320.083 1917.14 304.819 1916.53 295.485 1917.36 C 295.607 1916.65 295.688 1916.31 295.717 1915.59 L 294.529 1911.46 L 294.871 1908.79 L 294.47 1905.81 L 294.52 1903.53 L 294.441 1900.29 L 294.06 1898.77 C 294.607 1897.11 295.086 1895.73 295.501 1894.02 L 295.64 1892.29 C 296.312 1890.66 296.586 1889.9 297.498 1888.37 L 298.377 1886.69 z" fill="rgb(245,237,230)" transform="translate(0,0)"></path>
<path d="M 294.871 1908.79 L 296.365 1909.17 C 299.876 1910.01 325.227 1909.82 329.145 1909.08 L 330.059 1908.72 C 330.952 1914.15 331.375 1911.45 330.165 1917.06 C 320.083 1917.14 304.819 1916.53 295.485 1917.36 C 295.607 1916.65 295.688 1916.31 295.717 1915.59 L 294.529 1911.46 L 294.871 1908.79 z" fill="rgb(245,237,230)" transform="translate(0,0)"></path>
<path d="M 294.871 1908.79 L 296.365 1909.17 C 299.876 1910.01 325.227 1909.82 329.145 1909.08 L 330.059 1908.72 C 330.952 1914.15 331.375 1911.45 330.165 1917.06 C 320.083 1917.14 304.819 1916.53 295.485 1917.36 C 295.607 1916.65 295.688 1916.31 295.717 1915.59 C 300.438 1915.35 327.06 1915.56 328.461 1914.91 C 341.097 1909.05 295.777 1911.36 294.529 1911.46 L 294.871 1908.79 z" fill="rgb(203,140,120)" transform="translate(0,0)"></path>
<path d="M 294.52 1903.53 C 302.268 1903.2 322.908 1902.93 329.957 1904 C 328.757 1906.46 331.76 1904.78 330.059 1908.72 L 329.145 1909.08 C 325.227 1909.82 299.876 1910.01 296.365 1909.17 L 294.871 1908.79 L 294.47 1905.81 L 294.52 1903.53 z" fill="rgb(245,237,230)" transform="translate(0,0)"></path>
<path d="M 294.52 1903.53 C 302.268 1903.2 322.908 1902.93 329.957 1904 C 328.757 1906.46 331.76 1904.78 330.059 1908.72 C 329.956 1908.3 329.612 1906.59 329.312 1906.53 C 322.965 1905.41 299.857 1905.72 294.47 1905.81 L 294.52 1903.53 z" fill="rgb(203,140,120)" transform="translate(0,0)"></path>
<path d="M 298.377 1886.69 C 308.506 1887.3 319.048 1886.56 329.316 1887.02 L 330.564 1889.78 L 329.352 1892.36 C 319.083 1892.05 305.25 1893.09 295.64 1892.29 C 296.312 1890.66 296.586 1889.9 297.498 1888.37 L 298.377 1886.69 z" fill="rgb(245,237,230)" transform="translate(0,0)"></path>
<path d="M 298.377 1886.69 C 308.506 1887.3 319.048 1886.56 329.316 1887.02 L 330.564 1889.78 C 321.219 1887.99 307.743 1889.46 297.498 1888.37 L 298.377 1886.69 z" fill="rgb(203,140,120)" transform="translate(0,0)"></path>
<path d="M 294.441 1900.29 C 302.391 1899.5 321.573 1899.97 330.346 1900.11 C 330.466 1901.59 330.202 1902.51 329.957 1904 C 322.908 1902.93 302.268 1903.2 294.52 1903.53 L 294.441 1900.29 z" fill="rgb(245,237,230)" transform="translate(0,0)"></path>
<path d="M 294.06 1898.77 C 305.53 1897.31 318.538 1898.41 330.28 1897.81 L 330.346 1900.11 C 321.573 1899.97 302.391 1899.5 294.441 1900.29 L 294.06 1898.77 z" fill="rgb(138,104,89)" transform="translate(0,0)"></path>
<path d="M 295.64 1892.29 C 305.25 1893.09 319.083 1892.05 329.352 1892.36 L 329.636 1894.14 C 318.992 1894.42 306.116 1894.35 295.501 1894.02 L 295.64 1892.29 z" fill="rgb(214,170,148)" transform="translate(0,0)"></path>
<path d="M 330.165 1917.06 C 330.273 1918.44 330.443 1919.54 330.648 1920.9 C 330.599 1921.8 330.903 1926.52 329.542 1926.61 C 320.553 1927.17 310.41 1927.35 301.451 1926.32 C 299.779 1926.12 298.844 1922.98 298.197 1921.73 C 297.083 1920.12 296.341 1919.16 295.485 1917.36 C 304.819 1916.53 320.083 1917.14 330.165 1917.06 z" fill="rgb(245,237,230)" transform="translate(0,0)"></path>
<path d="M 676.234 1689.82 L 677.679 1690.51 L 677.312 1769.91 L 679.684 1769.87 C 703.761 1769.57 723.499 1774.41 741.431 1792.03 C 756.935 1807.08 765.799 1827.7 766.064 1849.31 C 766.202 1870.72 757.757 1891.28 742.618 1906.41 C 725.308 1923.62 708.132 1928.89 684.178 1928.25 C 666.61 1927.77 648.15 1928.19 630.5 1928.18 C 602.19 1928.39 584.875 1929.37 562.366 1907.41 C 547.13 1892.82 538.379 1872.74 538.073 1851.64 C 537.808 1829.44 546.538 1808.07 562.277 1792.41 C 582.037 1772.47 600.852 1769.65 627.161 1769.58 L 627.381 1724.57 C 642.628 1712.45 660.107 1700.68 676.234 1689.82 z" fill="rgb(255,90,31)" transform="translate(0,0)"></path>
<path d="M 116.653 1925 C 92.713 1923.21 65.4802 1925.82 41.2265 1924.55 C 25.7731 1923.74 15.3921 1925.53 15.3394 1905 C 15.3208 1897.77 15.428 1889.8 20.7521 1884.34 C 22.7294 1882.38 26.7024 1882.57 29.2506 1882.25 C 50.2091 1881.74 71.6062 1881.79 92.5453 1881.8 L 214.355 1882.06 C 196.4 1895.87 174.835 1911.21 156.23 1924.34 C 145.868 1924.56 126.152 1924.16 116.653 1925 z" fill="rgb(43,16,22)" transform="translate(0,0)"></path>
<path d="M 1033.34 1429.73 C 1033.78 1430.32 1034.21 1430.9 1034.64 1431.49 C 1035.75 1488.49 1035.21 1583.6 1034.95 1636.49 L 1033.5 1635.17 C 1032.71 1629.43 1033.07 1617.76 1033.08 1611.63 L 1033.17 1568.61 C 1033.24 1522.4 1032.79 1475.9 1033.34 1429.73 z" fill="rgb(43,16,22)" transform="translate(0,0)"></path>
<path d="M 467.352 1676.53 C 469.102 1666.73 473.606 1651.13 476.071 1641.01 L 495.471 1562 L 514.935 1483.16 C 520.372 1460.75 525.089 1433.46 535.999 1413.14 C 541.23 1403.4 561.854 1388.8 573.052 1387.44 C 603.203 1383.77 635.01 1386.42 665.437 1385.59 C 677.34 1385.38 716.966 1385.01 726.296 1386.5 C 735.54 1388.04 744.354 1391.51 752.154 1396.71 C 780.479 1415.63 782.225 1451.06 788.428 1482.95 C 790.745 1496 803.903 1571.61 807.813 1579.69 C 808.757 1586.03 809.707 1591.18 811.067 1597.45 L 735.946 1649.73 C 725.976 1656.75 708.208 1670.55 698.363 1676.16 L 696.278 1676.25 C 643.983 1673.98 588.465 1677.66 535.876 1676.15 C 514.756 1675.54 488.201 1675.29 467.352 1676.53 z" fill="rgb(245,237,230)" transform="translate(0,0)"></path>
<path d="M 1170 940.392 L 1170 1207.31 L 1170 1234.96 L 1170 1236.88 L 1170 1242.98 L 1170 1250.42 C 1151.87 1251.51 1134.82 1250.71 1116.8 1250.88 C 1092.32 1251.43 1067.85 1250.71 1043.17 1251.45 C 1043.48 1233.11 1042.74 1212.01 1043.84 1193.98 C 1043.49 1186.77 1043.57 1181.3 1043.82 1174.1 C 1043.12 1168.03 1043.4 1154.48 1043.39 1147.94 L 1043.36 1098.91 L 1043.21 940.473 L 1170 940.392 z" fill="rgb(58,36,32)" transform="translate(0,0)"></path>
<path d="M 1043.82 1174.1 C 1045.29 1164.4 1044.1 1139 1044.4 1127.8 C 1045.47 1087.62 1042.69 1042.7 1044.6 1003.07 L 1045.67 1002.57 L 1048.02 1002.68 L 1048.17 1004.24 L 1081.78 1004.23 C 1084.37 1004.03 1085.45 1003.8 1087.99 1003.22 L 1088.01 1248.19 C 1079.63 1247.25 1050.58 1248.63 1045.83 1247.01 C 1044.23 1228.95 1045.55 1209.81 1043.84 1193.98 C 1043.49 1186.77 1043.57 1181.3 1043.82 1174.1 z" fill="rgb(58,36,32)" transform="translate(0,0)"></path>
<path d="M 1043.82 1174.1 C 1045.29 1164.4 1044.1 1139 1044.4 1127.8 C 1045.47 1087.62 1042.69 1042.7 1044.6 1003.07 L 1045.67 1002.57 L 1048.02 1002.68 L 1048.17 1004.24 L 1047.99 1245.37 C 1060.42 1245.84 1073.46 1245.79 1085.94 1245.93 C 1086.14 1226.21 1086.9 1008.19 1085.23 1004.92 L 1081.78 1004.23 C 1084.37 1004.03 1085.45 1003.8 1087.99 1003.22 L 1088.01 1248.19 C 1079.63 1247.25 1050.58 1248.63 1045.83 1247.01 C 1044.23 1228.95 1045.55 1209.81 1043.84 1193.98 C 1043.49 1186.77 1043.57 1181.3 1043.82 1174.1 z" fill="rgb(146,48,33)" transform="translate(0,0)"></path>
<path d="M 1043.82 1174.1 C 1045.29 1164.4 1044.1 1139 1044.4 1127.8 C 1045.47 1087.62 1042.69 1042.7 1044.6 1003.07 L 1045.67 1002.57 C 1046.85 1044.81 1046.07 1091.23 1045.96 1133.7 C 1045.87 1169.92 1046.98 1211.13 1045.83 1247.01 C 1044.23 1228.95 1045.55 1209.81 1043.84 1193.98 C 1043.49 1186.77 1043.57 1181.3 1043.82 1174.1 z" fill="rgb(43,16,22)" transform="translate(0,0)"></path>
<path d="M 1091.66 1025.78 C 1102.99 1022.27 1116.01 1019.46 1127.65 1016.69 C 1141.06 1079.18 1155.27 1145.14 1170 1207.31 L 1170 1234.96 L 1170 1236.88 L 1170 1242.98 C 1161.05 1245.55 1152.06 1247.96 1143.03 1250.21 C 1137.32 1229.82 1132.21 1204.93 1127.3 1183.94 C 1115 1131.31 1103.12 1078.59 1091.66 1025.78 z" fill="rgb(245,237,230)" transform="translate(0,0)"></path>
<path d="M 1103.18 1030.23 C 1107.54 1029.09 1115.87 1026.51 1120.17 1027.26 L 1119.72 1026.73 L 1120.74 1026.83 L 1118.83 1027 L 1118.6 1028.11 C 1116.27 1029.05 1108.15 1030.91 1105.32 1031.62 C 1106.91 1037.37 1108.3 1043.61 1109.57 1049.44 C 1122.25 1107.6 1135.9 1165.53 1149.06 1223.58 C 1150.31 1229.07 1150.03 1237.3 1155.36 1239.03 L 1156.12 1240.26 C 1154.78 1240.74 1153.43 1240.83 1152.01 1241 C 1149.45 1238.72 1108.39 1051.7 1103.18 1030.23 z" fill="rgb(138,104,89)" transform="translate(0,0)"></path>
<path d="M 1155.36 1239.03 C 1160.71 1236.95 1164.69 1236.56 1170 1234.96 L 1170 1236.88 C 1165.43 1238.01 1160.69 1239.23 1156.12 1240.26 L 1155.36 1239.03 z" fill="rgb(157,113,95)" transform="translate(0,0)"></path>
<path d="M 1048.02 1002.68 C 1054.07 1001.98 1081.82 1002.39 1087.99 1003.22 C 1085.45 1003.8 1084.37 1004.03 1081.78 1004.23 L 1048.17 1004.24 L 1048.02 1002.68 z" fill="rgb(146,48,33)" transform="translate(0,0)"></path>
<path d="M 1043.09 640.833 L 1170 640.897 L 1170 790.449 L 1170 879.257 L 1170 884.395 L 1170 916.583 L 1170 920.439 C 1128.38 919.667 1084.94 920.627 1043.13 920.58 L 1043.09 640.833 z" fill="rgb(58,36,32)" transform="translate(0,0)"></path>
<path d="M 1069.21 683.497 C 1082.06 682.635 1096.08 683.008 1109.04 683.123 C 1109.01 689.335 1107.5 710.32 1112.05 713.74 C 1110.53 716.245 1111.25 717.399 1112.09 720.818 C 1112.37 721.933 1112.67 723.044 1112.98 724.151 C 1111.08 726.223 1110.3 726.483 1110.21 729.625 C 1109.72 746.831 1109.65 765.106 1109.5 782.264 L 1109.26 915.213 L 1068.95 915.331 L 1069.21 683.497 z" fill="rgb(146,48,33)" transform="translate(0,0)"></path>
<path d="M 1071.87 685.304 L 1107.45 685.139 C 1108.86 759.049 1107.56 836.817 1107.41 911.014 C 1104.18 914.025 1077.37 912.761 1071.06 912.724 L 1071.02 748.346 C 1071.02 739.195 1070.43 689.894 1071.87 685.304 z" fill="rgb(58,36,32)" transform="translate(0,0)"></path>
<path d="M 1112.05 713.74 C 1122.23 711.068 1135.39 706.916 1145.22 704.848 C 1152.76 730.805 1161.58 765.416 1170 790.449 L 1170 879.257 L 1170 884.395 L 1170 916.583 C 1163.15 896.633 1156.94 871.32 1150.53 850.601 C 1137.77 809.342 1124.27 765.768 1112.98 724.151 C 1112.67 723.044 1112.37 721.933 1112.09 720.818 C 1111.25 717.399 1110.53 716.245 1112.05 713.74 z" fill="rgb(255,90,31)" transform="translate(0,0)"></path>
<path d="M 1120.78 718.558 C 1126.83 716.628 1135.35 713.583 1141.43 712.77 C 1135.67 716.008 1128.97 717.775 1122.63 719.753 C 1133.75 757.762 1146.67 807.046 1159.32 843.868 L 1157.65 843.741 C 1152.49 830.853 1145 803.113 1140.94 789.111 C 1134.62 767.314 1125.88 740.346 1120.78 718.558 z" fill="rgb(146,48,33)" transform="translate(0,0)"></path>
<path d="M 1157.65 843.741 L 1159.32 843.868 L 1168.15 874.471 C 1168.68 876.274 1169.26 877.546 1170 879.257 L 1170 884.395 C 1167.06 877.386 1159.1 851.428 1157.65 843.741 z" fill="rgb(146,48,33)" transform="translate(0,0)"></path>
<path d="M 1130.08 617.278 L 1170 617.329 L 1170 619.3 L 1170 640.897 L 1043.09 640.833 L 1043.13 920.58 C 1084.94 920.627 1128.38 919.667 1170 920.439 L 1170 940.392 L 1043.21 940.473 L 1043.36 1098.91 L 1043.39 1147.94 C 1043.4 1154.48 1043.12 1168.03 1043.82 1174.1 C 1043.57 1181.3 1043.49 1186.77 1043.84 1193.98 C 1042.74 1212.01 1043.48 1233.11 1043.17 1251.45 C 1067.85 1250.71 1092.32 1251.43 1116.8 1250.88 C 1110.39 1255.34 1070.72 1282.21 1069.24 1285.55 L 1065.95 1285.82 C 1050.82 1286.19 1034.09 1285.81 1018.83 1285.79 L 1018.79 619.471 C 1022.31 618.645 1046.76 618.791 1052.25 618.855 C 1076.25 619.137 1101.24 618.343 1125.14 619.155 C 1126.81 619.039 1128.45 618.819 1130.11 618.617 L 1130.08 617.278 z" fill="rgb(255,90,31)" transform="translate(0,0)"></path>
<path d="M 1130.08 617.278 L 1170 617.329 L 1170 619.3 L 1066.2 619.8 C 1056.76 619.845 1025.75 620.581 1018.79 619.471 C 1022.31 618.645 1046.76 618.791 1052.25 618.855 C 1076.25 619.137 1101.24 618.343 1125.14 619.155 C 1126.81 619.039 1128.45 618.819 1130.11 618.617 L 1130.08 617.278 z" fill="rgb(173,62,39)" transform="translate(0,0)"></path>
<path d="M 1170 374.473 L 1170 617.329 L 1130.08 617.278 L 1126.78 616.561 C 1084.59 596.305 1086.74 538.354 1123.1 513.556 C 1126.38 511.315 1129.91 509.232 1133.32 507.169 C 1112.47 481.239 1122.83 466.697 1137.21 441.951 C 1148.77 422.044 1137.33 395.039 1130.78 374.627 C 1143.35 374.259 1157.33 374.507 1170 374.473 z" fill="rgb(255,90,31)" transform="translate(0,0)"></path>
<path d="M 627.673 399.321 C 645.588 398.472 668.262 399.043 686.509 399.028 L 788.555 398.718 L 869.47 398.485 C 890.596 398.468 919.907 395.769 938.258 406.312 C 952.119 414.444 962.135 427.801 966.057 443.386 C 968.553 453.039 967.46 516.408 967.45 532.497 C 967.795 602.323 967.745 672.151 967.302 741.976 L 967.72 937.29 C 967.771 970.18 967.852 1002.97 967.353 1035.86 C 966.883 1066.94 948.855 1085.8 919.08 1092.89 C 904.273 1094.47 875.217 1093.68 859.739 1093.68 L 746.279 1093.35 C 721.34 1093.25 696.4 1093.31 671.462 1093.53 C 656.142 1093.65 639.45 1094.34 624.343 1092.88 C 601.106 1090.64 578.391 1069.41 575.67 1046 C 574.579 1036.62 574.976 1025.78 574.972 1016.29 L 574.978 967.284 L 575 798.398 L 574.92 567.858 L 574.899 494.98 C 574.899 479.676 574.456 464.383 575.677 449.13 C 577.915 421.157 600.918 402.646 627.673 399.321 z" fill="rgb(255,90,31)" transform="translate(0,0)"></path>
<path d="M 748.343 707.312 C 753.953 698.626 760.37 687.129 773.599 693.662 C 780.586 697.112 781.058 705.636 783.653 708.051 C 822.653 709.466 867.646 708.28 907.161 708.305 L 907.103 925.187 C 907.09 937.134 906.262 1002.4 907.924 1008.53 C 907.951 1008.55 908.792 1009.02 908.825 1009.38 C 908.87 1009.84 908.068 1010.5 907.86 1010.69 C 907.645 1010.89 907.286 1011.12 907.059 1011.27 C 904.564 1013.02 902.657 1014.52 899.872 1015.77 C 897.531 1016.31 869.969 1039.15 868.847 1041.05 C 866.522 1044.18 865.805 1045.11 862.65 1047.51 C 861.326 1048.75 859.73 1050.26 857.863 1052.01 C 841.654 1052.14 818.765 1052.05 803.099 1052.04 C 745.409 1052.01 688.284 1051.93 630.643 1052.01 C 629.417 1052.02 628.76 1051.81 627.613 1051.5 C 626.792 1046.45 627.118 1027.62 627.14 1021.48 L 627.287 962.774 L 627.002 748.481 L 634.79 742.6 C 636.453 740.455 636.407 740.45 638.74 739.036 C 648.294 732.106 666.637 715.332 676.2 706.962 C 699.931 707.536 724.555 707.314 748.343 707.312 z" fill="rgb(245,237,230)" transform="translate(0,0)"></path>
<path d="M 748.343 707.312 C 753.953 698.626 760.37 687.129 773.599 693.662 C 780.586 697.112 781.058 705.636 783.653 708.051 C 781.628 709.691 779.642 719.631 775.565 721.654 C 766.897 725.956 757.843 725.24 752.657 716.266 C 750.931 713.279 750.215 710.159 748.338 707.98 C 725.387 708.655 700.873 708.197 677.81 708.15 C 672.477 722.015 667.232 735.914 662.074 749.846 L 628.858 749.652 L 628.879 949.843 C 628.878 981.487 629.902 1019.44 628.777 1050.64 L 627.613 1051.5 C 626.792 1046.45 627.118 1027.62 627.14 1021.48 L 627.287 962.774 L 627.002 748.481 L 634.79 742.6 C 636.453 740.455 636.407 740.45 638.74 739.036 C 648.294 732.106 666.637 715.332 676.2 706.962 C 699.931 707.536 724.555 707.314 748.343 707.312 z" fill="rgb(58,36,32)" transform="translate(0,0)"></path>
<path d="M 639.446 740.358 C 650.62 731.764 664.777 719.116 675.44 709.754 C 670.47 722.719 665.995 735.458 660.76 748.404 C 657.984 748.4 632.654 748.86 631.385 747.913 C 631.071 746.552 634.144 744.696 635.008 744.037 L 634.79 742.6 C 636.453 740.455 636.407 740.45 638.74 739.036 L 639.446 740.358 z" fill="rgb(255,140,66)" transform="translate(0,0)"></path>
<path d="M 638.74 739.036 L 639.446 740.358 C 637.679 742.058 637.003 742.596 635.008 744.037 L 634.79 742.6 C 636.453 740.455 636.407 740.45 638.74 739.036 z" fill="rgb(173,62,39)" transform="translate(0,0)"></path>
<path d="M 907.924 1008.53 C 907.951 1008.55 908.792 1009.02 908.825 1009.38 C 908.87 1009.84 908.068 1010.5 907.86 1010.69 C 907.645 1010.89 907.286 1011.12 907.059 1011.27 C 904.564 1013.02 902.657 1014.52 899.872 1015.77 C 897.531 1016.31 869.969 1039.15 868.847 1041.05 C 866.522 1044.18 865.805 1045.11 862.65 1047.51 L 860.168 1046.55 C 859.803 1041.79 871.474 1014.36 873.695 1007.97 C 881.999 1007.93 900.33 1007.52 907.924 1008.53 z" fill="rgb(245,237,230)" transform="translate(0,0)"></path>
<path d="M 907.924 1008.53 C 907.951 1008.55 908.792 1009.02 908.825 1009.38 C 908.87 1009.84 908.068 1010.5 907.86 1010.69 C 907.645 1010.89 907.286 1011.12 907.059 1011.27 C 904.564 1013.02 902.657 1014.52 899.872 1015.77 C 900.777 1014.75 904.337 1011.2 904.582 1010.56 C 904.551 1010.44 904.545 1010.37 904.378 1010.35 C 896.207 1009.8 882.81 1010.09 874.93 1010.05 C 873.312 1014.69 861.601 1042.5 862.289 1045.02 L 862.636 1045.24 C 863.523 1044.78 867.193 1042.05 868.847 1041.05 C 866.522 1044.18 865.805 1045.11 862.65 1047.51 L 860.168 1046.55 C 859.803 1041.79 871.474 1014.36 873.695 1007.97 C 881.999 1007.93 900.33 1007.52 907.924 1008.53 z" fill="rgb(157,113,95)" transform="translate(0,0)"></path>
<path d="M 860.168 1046.55 L 862.65 1047.51 C 861.326 1048.75 859.73 1050.26 857.863 1052.01 C 841.654 1052.14 818.765 1052.05 803.099 1052.04 C 745.409 1052.01 688.284 1051.93 630.643 1052.01 C 629.417 1052.02 628.76 1051.81 627.613 1051.5 L 628.777 1050.64 C 635.587 1049.47 670.384 1049.99 679.832 1049.99 L 803.858 1050 C 820.7 1050.01 838.169 1050.09 855.068 1050.43 C 857.776 1050.48 858.591 1048.56 860.168 1046.55 z" fill="rgb(173,62,39)" transform="translate(0,0)"></path>
<path d="M 663.882 771.804 L 863.963 771.87 L 863.453 996.905 L 663.619 996.314 L 663.882 771.804 z" fill="rgb(255,209,102)" transform="translate(0,0)"></path>
<path d="M 745.338 808.284 L 745.712 808.834 L 745.751 810.832 C 757.766 810.729 769.782 810.726 781.797 810.825 L 781.88 845.984 C 770.382 846.022 756.993 846.337 745.641 845.969 L 745.618 846.959 C 750.516 846.961 781.165 846.268 783.662 847.022 L 783.901 847.715 C 783.955 853.989 783.402 880.05 784.687 883.743 L 784.93 885.135 L 784.16 885.77 L 782.132 884.938 C 769.734 885.405 757.253 884.864 744.879 885.202 L 743.638 883.223 C 736.997 882.449 712.621 882.989 704.999 883.018 C 704.981 876.084 705.467 853.643 704.35 848.291 L 702.63 846.17 C 703.126 835.706 703.008 821.053 702.818 810.479 L 702.836 808.741 L 705.287 808.899 C 717.245 808.678 730.896 808.742 742.862 808.916 L 745.338 808.284 z" fill="rgb(255,90,31)" transform="translate(0,0)"></path>
<path d="M 713.258 847.631 C 718.929 848.231 737.475 847.1 743.536 848.55 C 743.689 848.586 744.154 850.319 744.305 850.8 C 743.463 861.435 744.181 872.392 743.638 883.223 C 736.997 882.449 712.621 882.989 704.999 883.018 C 704.981 876.084 705.467 853.643 704.35 848.291 C 707.424 847.989 710.182 847.794 713.258 847.631 z" fill="rgb(245,237,230)" transform="translate(0,0)"></path>
<path d="M 745.751 810.832 C 757.766 810.729 769.782 810.726 781.797 810.825 L 781.88 845.984 C 770.382 846.022 756.993 846.337 745.641 845.969 L 745.209 845.743 C 745.916 834.065 745.168 822.343 745.751 810.832 z" fill="rgb(245,237,230)" transform="translate(0,0)"></path>
<path d="M 704.903 922.056 L 742.918 922.067 L 742.913 957.259 C 730.133 957.106 717.352 957.167 704.574 957.439 C 704.59 945.644 704.7 933.849 704.903 922.056 z" fill="rgb(245,237,230)" transform="translate(0,0)"></path>
<path d="M 704.824 960.098 C 711.633 959.283 734.37 959.69 742.962 959.624 L 742.988 994.902 C 731.205 994.736 715.811 995.277 704.515 994.62 C 704.81 983.067 704.601 971.62 704.824 960.098 z" fill="rgb(245,237,230)" transform="translate(0,0)"></path>
<path d="M 823.948 810.933 C 836.51 810.825 849.073 810.794 861.635 810.84 C 861.69 822.521 861.564 834.202 861.257 845.879 C 852.341 846.651 833.566 846.062 823.824 846.062 C 823.759 834.352 823.801 822.642 823.948 810.933 z" fill="rgb(245,237,230)" transform="translate(0,0)"></path>
<path d="M 705.083 885.131 L 742.957 885.108 L 742.995 920.064 C 730.335 920.019 717.676 920.051 705.016 920.162 L 705.083 885.131 z" fill="rgb(245,237,230)" transform="translate(0,0)"></path>
<path d="M 823.546 959.657 C 835.574 959.416 848.908 959.757 861.176 959.682 L 860.971 994.964 L 823.377 994.949 C 823.312 983.185 823.368 971.42 823.546 959.657 z" fill="rgb(245,237,230)" transform="translate(0,0)"></path>
<path d="M 705.049 774.025 L 742.986 774.017 C 743.043 783.632 743.503 799.89 742.862 808.916 C 730.896 808.742 717.245 808.678 705.287 808.899 C 704.543 801.227 705.041 782.647 705.049 774.025 z" fill="rgb(245,237,230)" transform="translate(0,0)"></path>
<path d="M 745.162 959.54 C 757.074 959.41 770.209 959.477 782.128 959.538 C 782.209 971.342 782.178 983.146 782.036 994.949 L 744.952 994.968 L 745.162 959.54 z" fill="rgb(245,237,230)" transform="translate(0,0)"></path>
<path d="M 823.998 922.055 L 861.49 922.025 C 861.491 933.688 861.593 945.489 861.448 957.139 C 848.919 957.092 836.39 957.117 823.862 957.216 L 823.998 922.055 z" fill="rgb(245,237,230)" transform="translate(0,0)"></path>
<path d="M 824.083 774.076 L 861.846 774.101 L 861.802 808.802 C 849.36 808.983 836.5 808.8 824.013 808.836 C 824.096 797.25 824.12 785.663 824.083 774.076 z" fill="rgb(245,237,230)" transform="translate(0,0)"></path>
<path d="M 784.157 810.939 C 795.968 810.655 809.406 810.672 821.21 810.798 L 821.213 846.05 L 784.085 846.081 L 784.157 810.939 z" fill="rgb(245,237,230)" transform="translate(0,0)"></path>
<path d="M 784.06 959.51 L 821.08 959.508 L 821.089 994.909 C 808.747 994.84 796.404 994.853 784.062 994.947 L 784.06 959.51 z" fill="rgb(245,237,230)" transform="translate(0,0)"></path>
<path d="M 784.217 774.024 L 821.774 774.041 C 821.824 785.634 821.791 797.227 821.674 808.819 L 784.12 808.822 L 784.217 774.024 z" fill="rgb(245,237,230)" transform="translate(0,0)"></path>
<path d="M 783.901 847.715 C 790.256 849.029 813.502 848.26 821.256 848.318 L 821.273 883.288 C 811.497 883.169 794.217 882.854 784.687 883.743 C 783.402 880.05 783.955 853.989 783.901 847.715 z" fill="rgb(245,237,230)" transform="translate(0,0)"></path>
<path d="M 665.775 922.043 L 702.453 922.042 C 702.522 933.943 702.496 945.844 702.375 957.744 L 665.717 957.805 C 665.873 945.885 665.893 933.963 665.775 922.043 z" fill="rgb(245,237,230)" transform="translate(0,0)"></path>
<path d="M 784.93 885.135 L 821.163 885.09 L 821.257 919.949 L 784.027 919.931 L 784.16 885.77 L 784.93 885.135 z" fill="rgb(245,237,230)" transform="translate(0,0)"></path>
<path d="M 792.678 892.09 C 819.964 890.329 814.312 897.607 794.28 895.916 C 788.406 896.119 787.593 892.243 792.678 892.09 z" fill="rgb(255,90,31)" transform="translate(0,0)"></path>
<path d="M 823.979 885.109 L 861.246 885.087 L 861.169 920.038 C 848.75 919.926 836.331 919.916 823.912 920.005 L 823.979 885.109 z" fill="rgb(245,237,230)" transform="translate(0,0)"></path>
<path d="M 784.105 922.074 L 821.248 922.056 L 821.158 957.228 C 808.801 957.117 796.443 957.116 784.086 957.225 C 784.011 945.508 784.017 933.791 784.105 922.074 z" fill="rgb(245,237,230)" transform="translate(0,0)"></path>
<path d="M 665.962 810.925 L 702.818 810.479 C 703.008 821.053 703.126 835.706 702.63 846.17 C 695.151 845.344 674.382 845.948 665.878 845.949 C 665.993 834.275 666.021 822.6 665.962 810.925 z" fill="rgb(245,237,230)" transform="translate(0,0)"></path>
<path d="M 824.047 848.276 L 861.182 848.343 L 861.034 883.158 C 848.666 883.005 836.296 883.008 823.928 883.165 C 823.922 872.076 823.608 859.166 824.047 848.276 z" fill="rgb(245,237,230)" transform="translate(0,0)"></path>
<path d="M 665.76 885.278 C 678.009 885.163 690.258 885.117 702.508 885.141 C 702.682 896.763 702.723 908.386 702.63 920.009 C 691.661 920.575 677.085 920.144 665.632 920.308 C 665.88 908.633 665.923 896.954 665.76 885.278 z" fill="rgb(245,237,230)" transform="translate(0,0)"></path>
<path d="M 744.879 885.202 C 757.253 884.864 769.734 885.405 782.132 884.938 C 782.267 896.596 782.237 908.257 782.041 919.915 C 769.796 919.864 757.55 919.883 745.305 919.971 C 745.233 912.612 745.816 891.148 744.879 885.202 z" fill="rgb(245,237,230)" transform="translate(0,0)"></path>
<path d="M 665.84 848.129 C 678.019 847.986 690.356 848.105 702.549 848.126 C 702.737 859.365 702.607 871.545 702.603 882.878 C 690.856 883.376 677.897 883.001 665.847 883.295 C 665.969 871.573 665.967 859.851 665.84 848.129 z" fill="rgb(245,237,230)" transform="translate(0,0)"></path>
<path d="M 745.492 922.085 L 781.975 922.088 L 782.015 957.151 C 769.807 957.097 757.598 957.113 745.39 957.198 L 745.492 922.085 z" fill="rgb(245,237,230)" transform="translate(0,0)"></path>
<path d="M 665.781 959.865 C 674.351 959.875 695.734 959.32 702.853 960.51 C 701.813 965.674 702.233 989.353 702.764 995.104 C 692.896 993.891 677.357 995.157 665.748 994.282 C 665.879 982.811 665.89 971.338 665.781 959.865 z" fill="rgb(245,237,230)" transform="translate(0,0)"></path>
<path d="M 665.752 774.045 L 702.792 774.019 C 702.894 785.134 703.074 797.7 702.836 808.741 L 665.887 808.898 C 665.915 797.389 666.075 785.536 665.752 774.045 z" fill="rgb(245,237,230)" transform="translate(0,0)"></path>
<path d="M 745.37 774.046 C 757.56 774.109 769.751 774.084 781.941 773.972 L 781.89 808.908 C 769.97 808.93 757.607 809.042 745.712 808.834 L 745.338 808.284 L 745.37 774.046 z" fill="rgb(245,237,230)" transform="translate(0,0)"></path>
<path d="M 690.242 441.774 L 690.705 441.188 C 692.891 438.391 693.434 435.118 696.165 432.56 C 701.351 427.704 712.027 426.931 717.667 431.346 C 720.336 433.434 722.926 438.535 723.9 441.921 C 741.492 442.052 763.94 442.732 781.347 441.925 C 780.304 459.733 779.274 617.8 781.951 627.267 C 765.658 626.489 745.134 627.04 728.528 627.068 L 634.875 627.445 C 635.138 565.656 635.077 503.865 634.692 442.077 C 652.721 442.109 672.356 442.493 690.242 441.774 z" fill="rgb(245,237,230)" transform="translate(0,0)"></path>
<path d="M 690.242 441.774 L 690.705 441.188 C 692.891 438.391 693.434 435.118 696.165 432.56 C 701.351 427.704 712.027 426.931 717.667 431.346 C 720.336 433.434 722.926 438.535 723.9 441.921 C 722.322 447.858 723.522 450.323 718.195 455.212 C 710.679 462.11 696.883 460.38 692.928 450.495 C 691.442 446.782 692.758 444.343 690.242 441.774 z" fill="rgb(58,36,32)" transform="translate(0,0)"></path>
<path d="M 839.501 558.039 C 845.709 534.064 871.553 540.57 872.232 558.789 C 879.109 559.262 891.125 558.827 898.385 558.796 C 899.441 575.58 898.869 598.282 898.916 615.409 C 898.959 631.204 899.499 655.126 898.089 670.103 L 813.281 670.105 C 813.443 633.972 812.363 593.846 813.629 558.289 L 839.501 558.039 z" fill="rgb(255,90,31)" transform="translate(0,0)"></path>
<path d="M 839.501 558.039 C 845.709 534.064 871.553 540.57 872.232 558.789 C 871.579 560.237 871.638 560.378 871.472 562.001 C 868.212 571.424 862.487 576.105 851.618 573.586 C 844.38 571.909 842.459 565.841 839.261 560.073 C 839.333 559.357 839.398 558.756 839.501 558.039 z" fill="rgb(58,36,32)" transform="translate(0,0)"></path>
<path d="M 839.501 558.039 C 839.398 558.756 839.333 559.357 839.261 560.073 C 831.201 560.152 823.141 560.187 815.08 560.179 L 815.135 667.955 L 896.856 668.001 L 896.843 599.434 C 896.835 587.835 897.257 571.927 896.504 560.781 C 891.65 560.768 875.075 560.191 871.472 562.001 C 871.638 560.378 871.579 560.237 872.232 558.789 C 879.109 559.262 891.125 558.827 898.385 558.796 C 899.441 575.58 898.869 598.282 898.916 615.409 C 898.959 631.204 899.499 655.126 898.089 670.103 L 813.281 670.105 C 813.443 633.972 812.363 593.846 813.629 558.289 L 839.501 558.039 z" fill="rgb(146,48,33)" transform="translate(0,0)"></path>
<path d="M 1052.75 47.6114 C 1051.76 33.8246 1058.7 30.6302 1070.14 27.1711 C 1081.71 31.3571 1087.21 33.8285 1086.21 47.6247 C 1095.04 46.54 1109.68 46.9991 1119.01 47.0213 L 1118.98 74.7629 L 1120.98 74.8297 C 1136.21 76.2888 1137.91 85.3145 1137.26 98.4151 C 1136.37 116.414 1142.04 124.729 1120.45 130.81 C 1119.63 134.523 1119.6 137.324 1119.44 141.103 C 1123.85 141.317 1129.46 142.807 1132.01 146.544 C 1141.53 160.482 1142.43 190.129 1123.68 196.608 C 1115.42 198.796 1095.69 196.722 1085.98 197.799 C 1095.77 197.658 1123.92 195.372 1131 201.652 C 1140.34 209.928 1140.12 239.848 1131.28 248.811 C 1129.18 250.911 1126.66 251.971 1123.92 253.111 L 1121.78 254.485 L 1119.01 254.685 C 1107.85 254.203 1068.85 255.791 1061.37 253.257 C 1011.07 254.775 953.842 253.188 902.705 253.385 C 901.464 254.426 901.657 254.616 900.242 253.676 C 873.726 250.919 875.086 199.907 898.452 197.695 L 896.146 196.077 C 891.983 195.085 888.344 192.57 885.944 189.027 C 880.102 180.351 881.011 167.067 882.229 157.102 C 884.101 141.787 895.03 144.901 900.455 140.468 C 899.795 125.058 900.119 132.368 887.988 126.077 C 882.6 122.608 881.303 112.633 881.226 107.072 C 880.974 88.8661 880.606 76.6128 900.939 73.313 L 900.959 47.0332 L 934.619 47.0342 C 935.651 41.0951 936.933 34.8354 942.571 31.6227 C 955.511 24.2487 970.583 30.9751 970.192 46.6468 C 981.203 47.2746 992.652 47.0609 1003.71 47.0215 L 1003.75 73.6512 L 1016.25 73.8906 L 1017.91 73.2521 L 1017.94 47.1473 C 1028.02 47.0839 1043.13 46.579 1052.75 47.6114 z" fill="rgb(255,90,31)" transform="translate(0,0)"></path>
<path d="M 1085.98 197.799 C 1095.77 197.658 1123.92 195.372 1131 201.652 C 1140.34 209.928 1140.12 239.848 1131.28 248.811 C 1129.18 250.911 1126.66 251.971 1123.92 253.111 L 1121.78 254.485 L 1119.01 254.685 C 1107.85 254.203 1068.85 255.791 1061.37 253.257 C 1011.07 254.775 953.842 253.188 902.705 253.385 C 901.464 254.426 901.657 254.616 900.242 253.676 C 873.726 250.919 875.086 199.907 898.452 197.695 C 909.174 198.781 929.447 198.231 940.825 198.226 L 1017.1 198.247 C 1030.26 198.251 1075.09 200.007 1085.98 197.799 z" fill="rgb(255,90,31)" transform="translate(0,0)"></path>
<path d="M 1061.37 253.257 C 1081.22 252.491 1103.88 252.959 1123.92 253.111 L 1121.78 254.485 L 1119.01 254.685 C 1107.85 254.203 1068.85 255.791 1061.37 253.257 z" fill="rgb(146,48,33)" transform="translate(0,0)"></path>
<path d="M 900.242 253.676 C 901.389 253.361 901.475 253.403 902.705 253.385 C 901.464 254.426 901.657 254.616 900.242 253.676 z" fill="rgb(146,48,33)" transform="translate(0,0)"></path>
<path d="M 934.619 47.0342 C 935.651 41.0951 936.933 34.8354 942.571 31.6227 C 955.511 24.2487 970.583 30.9751 970.192 46.6468 C 981.203 47.2746 992.652 47.0609 1003.71 47.0215 L 1003.75 73.6512 C 1003.39 90.5217 1003.48 112.922 1004.01 129.77 C 1004.1 133.369 1004.16 136.968 1004.19 140.568 C 973.616 139.022 934.045 140.162 902.947 140.355 L 900.455 140.468 C 899.795 125.058 900.119 132.368 887.988 126.077 C 882.6 122.608 881.303 112.633 881.226 107.072 C 880.974 88.8661 880.606 76.6128 900.939 73.313 L 900.959 47.0332 L 934.619 47.0342 z" fill="rgb(245,237,230)" transform="translate(0,0)"></path>
<path d="M 900.455 140.468 C 899.795 125.058 900.119 132.368 887.988 126.077 C 882.6 122.608 881.303 112.633 881.226 107.072 C 880.974 88.8661 880.606 76.6128 900.939 73.313 C 901.17 95.699 901.009 118.087 900.455 140.468 z" fill="rgb(255,90,31)" transform="translate(0,0)"></path>
<path d="M 934.619 47.0342 C 935.651 41.0951 936.933 34.8354 942.571 31.6227 C 955.511 24.2487 970.583 30.9751 970.192 46.6468 C 969.065 47.0127 969.087 47.2169 968.093 48.0392 C 967.179 55.7501 960.766 61.6353 953.005 61.8863 C 945.244 62.1373 938.465 56.6789 937.054 49.0432 C 935.968 47.944 935.923 47.6624 934.619 47.0342 z" fill="rgb(58,36,32)" transform="translate(0,0)"></path>
<path d="M 934.619 47.0342 C 935.651 41.0951 936.933 34.8354 942.571 31.6227 C 955.511 24.2487 970.583 30.9751 970.192 46.6468 C 969.065 47.0127 969.087 47.2169 968.093 48.0392 C 968.821 41.9049 965.885 35.9138 960.591 32.7305 C 955.297 29.5471 948.629 29.7628 943.552 33.2816 C 938.474 36.8004 935.932 42.9687 937.054 49.0432 C 935.968 47.944 935.923 47.6624 934.619 47.0342 z" fill="rgb(146,48,33)" transform="translate(0,0)"></path>
<path d="M 1052.75 47.6114 C 1051.76 33.8246 1058.7 30.6302 1070.14 27.1711 C 1081.71 31.3571 1087.21 33.8285 1086.21 47.6247 C 1095.04 46.54 1109.68 46.9991 1119.01 47.0213 L 1118.98 74.7629 L 1118.95 139.916 L 1051.35 139.934 C 1043.45 139.94 1024.9 139.491 1018.03 140.31 C 1015.35 141.437 1007.13 141.012 1004.19 140.568 C 1004.16 136.968 1004.1 133.369 1004.01 129.77 C 1003.48 112.922 1003.39 90.5217 1003.75 73.6512 L 1016.25 73.8906 L 1017.91 73.2521 L 1017.94 47.1473 C 1028.02 47.0839 1043.13 46.579 1052.75 47.6114 z" fill="rgb(255,90,31)" transform="translate(0,0)"></path>
<path d="M 1052.75 47.6114 C 1051.76 33.8246 1058.7 30.6302 1070.14 27.1711 C 1081.71 31.3571 1087.21 33.8285 1086.21 47.6247 L 1084.97 48.1286 C 1083.76 55.7134 1077.2 61.2848 1069.52 61.2521 C 1061.84 61.2193 1055.33 55.5922 1054.19 47.9973 L 1052.75 47.6114 z" fill="rgb(58,36,32)" transform="translate(0,0)"></path>
<path d="M 1052.75 47.6114 C 1051.76 33.8246 1058.7 30.6302 1070.14 27.1711 C 1081.71 31.3571 1087.21 33.8285 1086.21 47.6247 L 1084.97 48.1286 C 1085.94 42.0669 1083.25 36.0033 1078.11 32.6441 C 1072.98 29.2849 1066.34 29.2566 1061.18 32.5719 C 1056.01 35.8872 1053.28 41.9276 1054.19 47.9973 L 1052.75 47.6114 z" fill="rgb(173,62,39)" transform="translate(0,0)"></path>
<path d="M 1003.75 73.6512 L 1016.25 73.8906 C 1016.16 85.5582 1015.27 118.209 1016.39 128.417 C 1011.59 130.238 1009.16 129.768 1004.01 129.77 C 1003.48 112.922 1003.39 90.5217 1003.75 73.6512 z" fill="rgb(255,90,31)" transform="translate(0,0)"></path>
<path d="M 1016.39 128.417 L 1018.05 127.882 C 1017.97 132.025 1017.97 136.168 1018.03 140.31 C 1015.35 141.437 1007.13 141.012 1004.19 140.568 C 1004.16 136.968 1004.1 133.369 1004.01 129.77 C 1009.16 129.768 1011.59 130.238 1016.39 128.417 z" fill="rgb(43,16,22)" transform="translate(0,0)"></path>
<path d="M 1016.25 73.8906 L 1017.91 73.2521 C 1018.42 90.6755 1018.3 110.404 1018.05 127.882 L 1016.39 128.417 C 1015.27 118.209 1016.16 85.5582 1016.25 73.8906 z" fill="rgb(146,48,33)" transform="translate(0,0)"></path>
<path d="M 1120.98 74.8297 C 1136.21 76.2888 1137.91 85.3145 1137.26 98.4151 C 1136.37 116.414 1142.04 124.729 1120.45 130.81 C 1121.99 119.774 1121.02 87.5325 1120.98 74.8297 z" fill="rgb(255,90,31)" transform="translate(0,0)"></path>
<path d="M 1118.98 74.7629 L 1120.98 74.8297 C 1121.02 87.5325 1121.99 119.774 1120.45 130.81 C 1119.63 134.523 1119.6 137.324 1119.44 141.103 C 1114.23 142.015 1085.53 141.772 1078.26 141.795 C 1042.59 141.911 1005.98 142.232 970.37 141.14 C 954.303 140.647 916.41 142.58 902.947 140.355 C 934.045 140.162 973.616 139.022 1004.19 140.568 C 1007.13 141.012 1015.35 141.437 1018.03 140.31 C 1024.9 139.491 1043.45 139.94 1051.35 139.934 L 1118.95 139.916 L 1118.98 74.7629 z" fill="rgb(146,48,33)" transform="translate(0,0)"></path>
<path d="M 896.146 196.077 L 1057.74 196.664 C 1067.78 196.631 1116.98 195.355 1123.68 196.608 C 1115.42 198.796 1095.69 196.722 1085.98 197.799 C 1075.09 200.007 1030.26 198.251 1017.1 198.247 L 940.825 198.226 C 929.447 198.231 909.174 198.781 898.452 197.695 L 896.146 196.077 z" fill="rgb(173,62,39)" transform="translate(0,0)"></path>
<path d="M 894.448 255.077 C 911.617 253.513 950.666 254.699 968.93 254.708 L 1119.01 254.685 L 1121.78 254.485 C 1129.86 256.906 1132.21 259.659 1136.86 266.29 C 1137.44 270.26 1137.59 274.538 1137.69 278.752 C 1137.9 287.287 1138.85 299.945 1131.26 305.841 C 1128.44 307.774 1124.74 309.51 1121.31 309.629 C 1106.54 310.138 1091.69 309.941 1076.93 309.938 L 993.111 309.897 L 932.216 309.87 C 919.533 309.89 905.699 310.464 893.286 308.703 C 881.199 306.071 881.814 290.835 881.741 281.831 C 881.622 267.281 882.232 263.05 894.448 255.077 z" fill="rgb(255,90,31)" transform="translate(0,0)"></path>
<metadata><recraft-signature>{"signed_by": "recraft", "signature_b64": "Tv7KQQDv0extF9uY/qlCPxQdaBYsbJO0n1mtCcRxw0fVtIDXNlUEmf5v7uN/1ySMesGXDunOdpbAnDw1yQByDA==", "signing_algo": "Ed25519", "generation_timestamp": 1783313465, "identifier": "c3d32d19-ea49-48e4-9ac3-8b01e16e978a"}</recraft-signature></metadata></svg>