<svg xmlns="http://www.w3.org/2000/svg" height="1344" preserveAspectRatio="none" style="display: block;" version="1.1" viewBox="0 0 1170 2048" width="768">
<defs>
	<linearGradient gradientUnits="userSpaceOnUse" id="Gradient1" x1="1164.88" x2="1163.59" y1="1714.23" y2="1716.1">
		<stop class="stop0" offset="0" stop-color="rgb(80,30,23)" stop-opacity="1"></stop>
		<stop class="stop1" offset="1" stop-color="rgb(155,58,35)" stop-opacity="1"></stop>
	</linearGradient>
</defs>
<path d="M 0 0 L 1170 0 L 1170 265.89 L 1170 340.064 L 1170 706.351 L 1170 781.139 L 1170 898.087 L 1170 915.441 L 1170 945.146 L 1170 1007.92 L 1170 1032.63 L 1170 1094.94 L 1170 1120.38 L 1170 1187.05 L 1170 1212.04 L 1170 1274.91 L 1170 1298.31 L 1170 1373.47 L 1170 1409.97 L 1170 1474.02 L 1170 1607.77 L 1170 1608.55 L 1170 1633.63 L 1170 1635.32 L 1170 1654.83 L 1170 1656.44 L 1170 1717.11 L 1170 1719.6 L 1170 1733.42 L 1170 1736.63 L 1170 1816.31 L 1170 2048 L 0 2048 L 0 1921.8 L 0 1890.35 L 0 1851.48 L 0 1847.09 L 0 1843.1 L 0 1820.53 L 0 1818.42 L 0 1809.37 L 0 1792.66 L 0 1756.49 L 0 1623.38 L 0 1621.05 L 0 1335.52 L 0 495.11 L 0 375.288 L 0 295.08 L 0 0 z" fill="rgb(58,36,32)" transform="translate(0,0)"></path>
<path d="M 313.632 1705.37 C 326.46 1706.38 353.565 1713.74 367.376 1717.11 L 460.879 1739.75 L 597.961 1772.22 C 622.552 1777.81 787.67 1813.71 796.118 1819.88 C 797.095 1822.7 797.15 1821.34 795.889 1824.08 C 782.576 1830.21 733.861 1843.59 718.076 1847.96 C 678.035 1859.03 636.772 1872.64 596.951 1883.19 L 517.754 1906.44 C 505.475 1910.01 488.133 1915.53 475.954 1918.25 C 440.063 1930.29 399.918 1940.06 363.029 1951.38 C 336.738 1958.12 307.591 1970.3 281.033 1974.13 C 267.964 1976.01 234.438 1964.03 220.77 1959.78 L 149.074 1937.22 C 100.202 1921.76 48.159 1906.56 0 1890.35 L 0 1851.48 L 0 1847.09 L 0 1843.1 L 0 1820.53 L 0 1818.42 L 0 1809.37 L 0 1792.66 C 7.89532 1790.15 16.9519 1787.61 24.9898 1785.65 C 102.58 1766.8 180.238 1747.15 258.06 1729.39 L 249.425 1720.67 C 265.167 1715.91 297.277 1708.7 313.632 1705.37 z" fill="rgb(245,237,230)" transform="translate(0,0)"></path>
<path d="M 43.0328 1835.52 C 51.0266 1833.18 52.074 1833.25 60.0562 1835.65 C 69.7794 1838.35 80.2213 1841.04 89.8235 1843.95 C 71.7461 1848.34 51.1211 1853.26 33.4319 1858.82 C 28.5128 1860.63 6.0861 1853.19 0 1851.48 L 0 1847.09 C 14.2704 1843.11 28.6314 1838.96 43.0328 1835.52 z" fill="rgb(58,36,32)" transform="translate(0,0)"></path>
<path d="M 0 1820.53 C 2.38912 1821.31 4.7847 1822.06 7.18649 1822.8 C 17.0759 1826.64 28.8791 1829.24 39.098 1832.15 C 28.4826 1836.19 11.7798 1839.33 0 1843.1 L 0 1820.53 z" fill="rgb(58,36,32)" transform="translate(0,0)"></path>
<path d="M 11.2724 1805.47 C 16.6835 1807.58 22.2394 1809.5 27.6741 1811.54 C 22.1348 1813.02 14.5429 1814.67 9.26004 1816.39 C 5.79522 1816.99 3.4296 1817.55 0 1818.42 L 0 1809.37 C 3.70524 1807.96 7.51638 1806.76 11.2724 1805.47 z" fill="rgb(58,36,32)" transform="translate(0,0)"></path>
<path d="M 436.366 1821.09 C 438.736 1819.95 567.427 1856.65 583.098 1860.82 C 564.084 1866 421.591 1905.79 413.737 1905.36 L 318.957 1881.56 C 302.694 1877.45 279.571 1872.18 264.044 1867.11 C 321.586 1852.15 379.028 1836.81 436.366 1821.09 z" fill="rgb(58,36,32)" transform="translate(0,0)"></path>
<path d="M 376.499 1796.45 C 386.101 1799.25 396.371 1802.45 406.03 1804.82 C 409.167 1805.77 413.389 1806.95 416.347 1808.08 C 354.041 1824.76 291.229 1839.9 228.869 1856.42 C 226.926 1856.94 225.265 1856.83 223.402 1856.09 C 212.304 1852.38 200.629 1849.83 189.33 1846.07 C 207.671 1841.62 225.923 1836.82 244.076 1831.65 C 254.039 1829.49 268.138 1825.78 277.838 1822.7 C 285.624 1821.38 302.779 1816.67 310.871 1814.56 C 326.112 1810.57 346.873 1806.03 361.308 1800.75 C 366.885 1799.51 371.108 1798.18 376.499 1796.45 z" fill="rgb(58,36,32)" transform="translate(0,0)"></path>
<path d="M 430.985 1758.32 C 443.077 1762.74 455.45 1766.14 467.667 1770.12 C 448.575 1773.49 423.641 1781.08 404.172 1785.71 C 393.402 1788.27 365.375 1795.06 356.099 1798.77 C 349.683 1795.18 329.226 1790.05 321.219 1787.88 C 338.338 1782.6 421.757 1764.26 430.985 1758.32 z" fill="rgb(58,36,32)" transform="translate(0,0)"></path>
<path d="M 100.203 1844.26 C 111.791 1848.23 125.569 1851.87 137.463 1855.31 C 130.62 1857.28 122.376 1859.85 115.543 1861.32 C 102.644 1865.21 89.1452 1867.79 75.6651 1871.99 C 62.8391 1868.25 49.9276 1864.82 36.941 1861.69 C 53.6317 1855.57 80.5549 1850.94 100.203 1844.26 z" fill="rgb(58,36,32)" transform="translate(0,0)"></path>
<path d="M 47.002 1810.71 C 87.1907 1799.02 72.9693 1803.77 111.534 1813.91 C 106.355 1815.12 91.4785 1817.52 88.7288 1821.97 C 91.5794 1826.66 118.553 1832.3 125.336 1834 L 96.9763 1842.27 C 93.9043 1840.34 67.0287 1833.67 60.8178 1831.54 C 69.7603 1828.95 81.3652 1826.11 89.7333 1822.82 C 75.6192 1818.8 61.146 1814.49 47.002 1810.71 z" fill="rgb(58,36,32)" transform="translate(0,0)"></path>
<path d="M 330.805 1737.22 C 340.393 1733.18 363.397 1742.56 375.289 1745.18 C 370.051 1747.41 352.316 1751.75 346.01 1753.14 L 341.889 1754.42 C 341.951 1755.46 341.756 1757.08 341.662 1758.16 C 339.773 1758.29 339.447 1758.32 337.61 1758.9 C 336.959 1757.85 336.327 1756.79 335.715 1755.72 L 328.696 1754.4 C 319.334 1751.63 309.988 1748.81 300.659 1745.92 C 310.673 1742.9 320.722 1740 330.805 1737.22 z" fill="rgb(58,36,32)" transform="translate(0,0)"></path>
<path d="M 335.715 1755.72 C 337.883 1755.11 339.699 1754.82 341.889 1754.42 C 341.951 1755.46 341.756 1757.08 341.662 1758.16 C 339.773 1758.29 339.447 1758.32 337.61 1758.9 C 336.959 1757.85 336.327 1756.79 335.715 1755.72 z" fill="rgb(255,209,102)" transform="translate(0,0)"></path>
<path d="M 382.275 1746.35 C 388.793 1748.76 415.91 1755.76 423.184 1757.17 C 419.525 1758.7 391.324 1765.49 384.842 1767.38 L 347.802 1756.85 C 355.317 1754.19 376.876 1750.53 382.275 1746.35 z" fill="rgb(58,36,32)" transform="translate(0,0)"></path>
<path d="M 182.579 1847.16 C 190.397 1850.24 216.185 1856.18 220.276 1858.63 C 213.638 1860.53 194.197 1866.74 188.658 1865.74 C 176.78 1862.24 166.11 1859.77 154.625 1854.92 C 162.316 1853.38 166.409 1852.3 173.84 1849.8 C 176.953 1849.23 179.597 1848.2 182.579 1847.16 z" fill="rgb(58,36,32)" transform="translate(0,0)"></path>
<path d="M 144.768 1856.81 C 150.469 1857.49 178.641 1865.41 183.296 1867.72 L 155.698 1875.58 C 143.178 1872.5 130.788 1868.92 118.56 1864.84 C 124.969 1862.1 136.517 1860.13 144.768 1856.81 z" fill="rgb(58,36,32)" transform="translate(0,0)"></path>
<path d="M 297.957 1769.66 C 304.334 1767.52 305.527 1767.86 312.196 1769.73 C 321.603 1772.61 331.027 1775.44 340.468 1778.2 C 333.778 1780.63 319.322 1783.39 310.509 1786.11 C 299.585 1783.73 285.088 1779.13 274.123 1775.9 L 297.957 1769.66 z" fill="rgb(58,36,32)" transform="translate(0,0)"></path>
<path d="M 254.513 1754.15 C 255.008 1753.84 255.536 1753.59 256.056 1753.32 L 256.819 1755.8 L 259.83 1756.44 C 270.823 1760.25 282.588 1763.31 292.872 1766.92 C 284.167 1769.22 274.449 1771.55 266.068 1774.59 C 252.949 1771.17 239.871 1767.59 226.836 1763.87 C 235.763 1761.71 244.124 1759.7 252.908 1757.04 L 254.513 1754.15 z" fill="rgb(58,36,32)" transform="translate(0,0)"></path>
<path d="M 254.513 1754.15 C 255.008 1753.84 255.536 1753.59 256.056 1753.32 L 256.819 1755.8 C 255.523 1756.24 254.22 1756.65 252.908 1757.04 L 254.513 1754.15 z" fill="rgb(166,139,114)" transform="translate(0,0)"></path>
<path d="M 145.327 1783.67 L 156.257 1786.63 C 165.562 1789.35 174.324 1791.85 183.435 1795.26 C 177.699 1797.02 171.934 1798.68 166.144 1800.26 C 162.676 1801.18 157.574 1802.94 154.249 1802.23 C 149.609 1800.12 126.228 1794.13 119.273 1791.91 C 125.106 1790.33 141.566 1786.65 145.327 1783.67 z" fill="rgb(58,36,32)" transform="translate(0,0)"></path>
<path d="M 311.838 1789.36 C 317.53 1791.38 347.017 1797.87 348.858 1800.62 C 336.522 1803.8 326.422 1808.72 314.037 1805.78 C 304.14 1802.97 294.282 1800.02 284.466 1796.94 C 293.636 1794.58 302.761 1792.05 311.838 1789.36 z" fill="rgb(58,36,32)" transform="translate(0,0)"></path>
<path d="M 123.489 1814.1 C 134.473 1816.1 150.043 1821.39 161.064 1824.9 C 151.84 1827.42 142.571 1829.78 133.262 1831.97 C 120.53 1828.69 108.534 1825.61 95.9841 1821.64 C 104.877 1818.95 114.473 1816.54 123.489 1814.1 z" fill="rgb(58,36,32)" transform="translate(0,0)"></path>
<path d="M 187.595 1798.91 C 194.923 1796.2 195.875 1796.76 203.499 1798.39 C 213.31 1801.46 222.845 1803.95 232.77 1806.54 L 211.962 1812.13 C 204.578 1815.31 203.997 1814.47 195.86 1812.22 C 187.999 1809.47 174.058 1806.11 165.604 1803.77 C 172.882 1802.06 180.246 1800.23 187.595 1798.91 z" fill="rgb(58,36,32)" transform="translate(0,0)"></path>
<path d="M 209.283 1768.94 C 215.39 1766.54 216.58 1765.25 222.682 1766.36 C 234.421 1769.8 246.323 1773.47 258.257 1776.08 C 223.701 1785.86 227.23 1783.85 192.77 1773.79 C 195.964 1772.79 206.572 1769.24 209.283 1768.94 z" fill="rgb(58,36,32)" transform="translate(0,0)"></path>
<path d="M 277.19 1798.07 C 286.249 1801.49 306.704 1806.33 312.994 1809.45 C 306.415 1811.25 287.224 1817.1 281.581 1816.75 C 280.322 1815.72 253.678 1807.42 249.94 1806.16 C 255.811 1804.75 261.92 1803.08 267.792 1801.56 C 270.946 1800.46 274.079 1799.29 277.19 1798.07 z" fill="rgb(58,36,32)" transform="translate(0,0)"></path>
<path d="M 11.304 1820.03 C 19.8481 1817.8 32.4755 1814.92 40.1281 1811.48 C 48.4825 1815.9 65.8868 1819.19 75.8716 1822.83 L 47.0684 1830.45 C 35.8372 1827.28 22.1675 1823.8 11.304 1820.03 z" fill="rgb(58,36,32)" transform="translate(0,0)"></path>
<path d="M 239.879 1808.18 C 246.723 1808.22 270.072 1816.47 277.696 1819.02 C 269.222 1821.09 260.329 1823.82 251.906 1826.26 C 238.919 1822.58 225.661 1819.11 212.613 1815.59 C 220.043 1813.84 233.389 1811.11 239.879 1808.18 z" fill="rgb(58,36,32)" transform="translate(0,0)"></path>
<path d="M 337.61 1758.9 C 339.447 1758.32 339.773 1758.29 341.662 1758.16 C 343.8 1759.66 344.337 1760.12 346.732 1761.08 C 354.267 1762.22 368.775 1766.77 376.62 1768.99 L 348.588 1776.95 L 312.429 1765.89 L 328.949 1761.94 C 331.654 1761.3 334.955 1759.91 337.61 1758.9 z" fill="rgb(58,36,32)" transform="translate(0,0)"></path>
<path d="M 230.697 1786.78 C 241.935 1789.35 255.799 1793.85 267.049 1797.16 L 266.811 1798.06 C 257.246 1800.09 248.589 1802.41 239.168 1804.97 C 227.605 1801.47 215.612 1798.15 203.978 1794.8 C 212.909 1792.21 221.816 1789.54 230.697 1786.78 z" fill="rgb(58,36,32)" transform="translate(0,0)"></path>
<path d="M 196.101 1819.7 C 204.38 1817.74 205.118 1817.49 213.357 1819.54 C 222.043 1821.86 232.702 1824.41 241.003 1827.39 L 241.683 1828.66 C 235.889 1829.39 220.181 1833.64 213.794 1835.2 C 202.936 1831.45 187.727 1827.47 176.409 1824.16 C 182.777 1823.02 189.753 1821.2 196.101 1819.7 z" fill="rgb(58,36,32)" transform="translate(0,0)"></path>
<path d="M 104.767 1795.56 C 110.852 1793.37 112.039 1793.3 118.362 1795.63 C 128.566 1798.53 138.787 1801.38 149.023 1804.17 C 139.443 1806.34 128.766 1808.49 119.574 1811.7 C 106.872 1808.44 96.1457 1805.67 83.6959 1801.49 C 90.765 1799.68 97.7905 1797.7 104.767 1795.56 z" fill="rgb(58,36,32)" transform="translate(0,0)"></path>
<path d="M 110.253 1866.22 C 121.813 1870.5 135.222 1873.69 147.243 1876.85 C 138.553 1879.69 131.075 1881.58 122.172 1883.76 C 114.921 1884.95 92.2011 1876.48 84.1254 1873.8 L 110.253 1866.22 z" fill="rgb(58,36,32)" transform="translate(0,0)"></path>
<path d="M 171.36 1826.46 C 180.963 1830.59 197.1 1833.43 207.721 1836.96 C 199.422 1839.19 189.717 1841.55 181.609 1844.05 C 179.649 1844.38 173.188 1842.76 170.9 1842.27 L 142.467 1833.82 C 152.076 1831.28 161.707 1828.83 171.36 1826.46 z" fill="rgb(58,36,32)" transform="translate(0,0)"></path>
<path d="M 240.047 1785.12 C 248.949 1782.54 258.238 1780.31 266.947 1777.67 C 278.985 1781.19 290.231 1784.22 302.31 1788.09 C 294.01 1790.45 284.387 1792.92 276.328 1795.81 C 272.595 1794.76 270.57 1794.15 266.715 1793.4 C 258.819 1790.54 249.069 1788.4 240.047 1785.12 z" fill="rgb(58,36,32)" transform="translate(0,0)"></path>
<path d="M 282.774 1749.66 C 291.207 1747.63 292.893 1747.53 301.216 1749.64 C 310.208 1752.59 319.247 1755.39 328.33 1758.04 L 312.092 1762.13 C 304.199 1764.3 302.661 1765.5 294.761 1763.35 C 285.125 1760.8 275.002 1757.63 265.397 1754.79 C 270.582 1753.03 277.403 1751.23 282.774 1749.66 z" fill="rgb(58,36,32)" transform="translate(0,0)"></path>
<path d="M 108.443 1842.99 C 114.892 1841.55 127.774 1838.11 133.5 1835.43 C 140.459 1837.4 164.224 1843.82 169.555 1846.52 C 166.357 1848.57 149.788 1852.5 144.63 1853.98 C 132.881 1850.08 120.348 1846.54 108.443 1842.99 z" fill="rgb(58,36,32)" transform="translate(0,0)"></path>
<path d="M 184.527 1775.68 L 220.355 1785.66 C 214.381 1787.3 200.498 1790.75 195.384 1792.96 C 190.513 1793.37 163.329 1784.92 157.097 1782.95 C 159.663 1781.62 178.295 1777.14 182.808 1775.9 L 184.527 1775.68 z" fill="rgb(58,36,32)" transform="translate(0,0)"></path>
<path d="M 154.824 1806.52 C 158.973 1805.13 161.1 1806.49 165.297 1807.67 C 172.446 1808.88 188.17 1813.85 195.412 1816.04 C 188.824 1817.69 176.039 1820.48 170.506 1823.33 C 157.173 1820.36 145.87 1816.84 133.09 1812.18 C 139.812 1810.6 148.53 1808.81 154.824 1806.52 z" fill="rgb(58,36,32)" transform="translate(0,0)"></path>
<path d="M 311.284 1728.45 C 316.314 1729.7 324.817 1731.37 329.047 1733.47 C 323.051 1735.29 296.363 1741.89 292.588 1744.16 C 287.802 1744.38 287.299 1744.3 282.679 1743.58 C 279.233 1741.67 277.949 1742.59 273.081 1739.58 C 282.008 1737.75 303.123 1731.58 311.284 1728.45 z" fill="rgb(58,36,32)" transform="translate(0,0)"></path>
<path d="M 470.557 1783.97 C 473.064 1783.54 490.219 1788.53 494.012 1789.58 C 471.681 1795.78 465.429 1800.24 444.15 1791.25 C 447.78 1789.53 465.617 1785.3 470.557 1783.97 z" fill="rgb(58,36,32)" transform="translate(0,0)"></path>
<path d="M 407.309 1800.54 C 412.441 1798.42 426.785 1794.95 433.302 1792.89 C 440.875 1795.05 448.714 1797.26 456.361 1799.04 C 445.806 1801.94 432.939 1806.66 422.408 1804.81 C 417.522 1803.74 411.87 1802.53 407.309 1800.54 z" fill="rgb(58,36,32)" transform="translate(0,0)"></path>
<path d="M 191.442 1759.25 C 197.61 1761.32 202.754 1763.32 209.285 1765.12 C 203.76 1766.62 196.4 1768.21 191.275 1770.41 C 184.836 1771.89 183.614 1773.06 176.833 1772.32 C 175.142 1770.95 165.191 1767.88 162.366 1766.89 C 172.111 1764.55 181.805 1762 191.442 1759.25 z" fill="rgb(58,36,32)" transform="translate(0,0)"></path>
<path d="M 506.065 1774.33 C 513.358 1777.07 521.024 1778.69 528.476 1780.91 C 518.962 1782.97 510.891 1785.18 501.495 1787.64 C 500.221 1787.57 500.009 1787.51 498.761 1787.03 C 495.823 1785.9 492.833 1784.91 489.802 1784.07 C 486.716 1783.2 484.589 1782.44 481.618 1781.25 C 489.8 1779.06 497.95 1776.75 506.065 1774.33 z" fill="rgb(58,36,32)" transform="translate(0,0)"></path>
<path d="M 44.7143 1796.15 C 50.6134 1797.98 56.3524 1799.93 62.3352 1801.4 C 56.9191 1804.5 44.5379 1807.08 37.8521 1809.43 C 32.1363 1808.53 24.2953 1805.52 18.686 1803.75 C 27.4944 1801.2 35.8934 1798.96 44.7143 1796.15 z" fill="rgb(58,36,32)" transform="translate(0,0)"></path>
<path d="M 153.237 1769.23 C 156.892 1768.5 166.895 1772.75 170.852 1774.2 C 162.815 1776.86 153.681 1779.01 145.414 1781.45 C 138.642 1780.6 132.337 1778.4 125.921 1776.12 C 134.866 1773.82 144.293 1770.93 153.237 1769.23 z" fill="rgb(58,36,32)" transform="translate(0,0)"></path>
<path d="M 82.043 1787.45 C 87.482 1789.04 93.6127 1790.66 98.7974 1792.68 C 95.6642 1795.02 77.2879 1798.5 72.4966 1800.1 C 72.0404 1800.26 65.1194 1798.17 63.6679 1797.8 C 61.122 1796.95 57.2892 1795.95 54.484 1795.09 C 64.095 1792.25 72.2709 1789.89 82.043 1787.45 z" fill="rgb(58,36,32)" transform="translate(0,0)"></path>
<path d="M 90.9122 1784.94 C 99.8712 1782.74 109.244 1780.15 118.235 1777.78 C 124.09 1779.97 128.353 1781.43 134.337 1783.26 C 130.142 1785.1 122.968 1786.79 118.154 1788.22 C 102.442 1791.99 115.955 1792.1 99.5663 1788.57 C 97.3164 1787.47 95.7364 1786.96 93.5099 1786.02 C 92.649 1785.65 91.783 1785.29 90.9122 1784.94 z" fill="rgb(58,36,32)" transform="translate(0,0)"></path>
<path d="M 227.775 1750.35 C 233.405 1751.8 238.955 1753.54 244.4 1755.58 C 238.453 1757.26 229.789 1759.15 224.181 1761.28 C 216.196 1763.37 218.432 1763.3 210.38 1761.36 C 206.658 1760.28 202.899 1759.03 199.161 1757.95 C 206.293 1755.86 213.307 1754.02 220.441 1751.98 C 222.731 1751.78 225.622 1751.09 227.775 1750.35 z" fill="rgb(58,36,32)" transform="translate(0,0)"></path>
<path d="M 235.736 1748.38 C 244.743 1746.58 254.913 1743.19 263.969 1741.25 C 264.294 1741.18 268.333 1743.36 269.273 1743.8 C 272.554 1744.16 276.259 1745.32 279.461 1746.24 C 274.062 1748.03 268.646 1749.52 263.169 1751.22 C 260.784 1751.87 258.412 1752.57 256.056 1753.32 C 255.536 1753.59 255.008 1753.84 254.513 1754.15 C 248.301 1753.49 241.162 1751.5 235.736 1748.38 z" fill="rgb(58,36,32)" transform="translate(0,0)"></path>
<path d="M 454.126 1777.21 C 458.351 1778.64 461.767 1780.03 466.129 1781.37 C 460.039 1784 444.561 1786.97 441.031 1789.32 C 435.616 1788.84 430.686 1787.04 425.519 1785.3 L 454.126 1777.21 z" fill="rgb(58,36,32)" transform="translate(0,0)"></path>
<path d="M 0 1335.52 C 48.5157 1323.37 104.894 1313.33 154.41 1303.31 C 187.526 1394.72 217.445 1489.24 249.71 1581.11 C 262.04 1616.22 273.262 1652.83 286.321 1687.5 L 119.852 1727.57 C 80.0182 1737.69 40.0647 1747.33 0 1756.49 L 0 1623.38 L 0 1621.05 L 0 1335.52 z" fill="rgb(245,237,230)" transform="translate(0,0)"></path>
<path d="M 120.914 1488.16 C 114.391 1490.04 98.9992 1495.42 93.5183 1494.81 L 93.894 1493.97 C 103.701 1490.95 116.092 1487.51 125.559 1484.12 L 126.691 1517.13 L 125.746 1517.35 C 123.194 1513.68 123.038 1495.95 122.67 1489.96 C 114.427 1504.71 103.732 1519.26 94.8009 1533.79 C 73.0894 1569.13 49.3993 1604.39 27.9615 1639.82 C 23.3621 1640.13 5.17093 1626.83 0 1623.38 L 0 1621.05 C 7.40075 1625.19 17.8398 1632.01 24.9339 1637.01 L 26.8971 1636.98 C 41.5579 1616.38 60.6487 1583.37 75.0912 1560.73 C 88.5262 1539.66 109.34 1508.96 120.914 1488.16 z" fill="rgb(58,36,32)" transform="translate(0,0)"></path>
<path d="M 1163.6 1605.89 L 1170 1607.77 L 1170 1608.55 L 1170 1633.63 L 1170 1635.32 L 1170 1654.83 L 1170 1656.44 L 1170 1717.11 L 1170 1719.6 L 1170 1733.42 L 1170 1736.63 L 1170 1816.31 C 1160.19 1833.91 1152.14 1845.9 1135.89 1858.46 C 1122.66 1867.59 1115.38 1870.35 1099.93 1874.09 L 1099.01 1876.2 L 1098.31 1876.46 C 1072.93 1889.18 1057.06 1886.17 1033.55 1871.73 L 1030.69 1871.89 C 1028.54 1871.93 1026.72 1871.14 1024.69 1870.45 C 1023 1871.29 1023.25 1871.6 1022.05 1871.3 C 1008.67 1869.01 997.249 1861.27 987.463 1852.26 C 984.006 1849.25 980.721 1845.18 977.694 1841.67 C 967.998 1828.14 964.008 1816.99 960.611 1801.02 C 957.117 1763.89 965.902 1731.69 986.831 1700.81 C 996.533 1687.81 1005.09 1678.58 1017.39 1668.17 C 1039.92 1652.06 1060.6 1646.31 1087.8 1645.71 C 1106.2 1647.32 1121.15 1654.16 1135.1 1666.19 L 1136.76 1667.97 C 1138.98 1661.99 1141.77 1655.36 1144.17 1649.42 C 1146.36 1649.89 1148.55 1650.39 1150.72 1650.94 L 1150.61 1649.23 C 1151.79 1648.88 1153.48 1648.43 1153.68 1646.98 C 1155.02 1637.15 1163.21 1634.16 1152.2 1630.49 L 1152.37 1629.11 C 1159.67 1629.89 1158.7 1630.95 1160.3 1623.45 C 1161.19 1619.28 1161.89 1614.47 1163.01 1610.43 L 1163.03 1606.97 L 1163.6 1605.89 z" fill="rgb(43,16,22)" transform="translate(0,0)"></path>
<path d="M 1099.93 1874.09 C 1098.74 1874.17 1097.54 1874.24 1096.35 1874.28 C 1083.5 1874.75 1069.4 1871.54 1060.02 1861.96 C 1005.48 1806.35 1108.59 1676.95 1170 1736.63 L 1170 1816.31 C 1160.19 1833.91 1152.14 1845.9 1135.89 1858.46 C 1122.66 1867.59 1115.38 1870.35 1099.93 1874.09 z" fill="rgb(255,140,66)" transform="translate(0,0)"></path>
<path d="M 1017.39 1668.17 C 1039.92 1652.06 1060.6 1646.31 1087.8 1645.71 C 1106.2 1647.32 1121.15 1654.16 1135.1 1666.19 C 1121.01 1665.16 1114.82 1664.99 1100.86 1667.29 C 1098.16 1660.19 1095.3 1654.07 1089.39 1649.09 C 1091.72 1655.47 1095.48 1661.4 1098.91 1667.28 C 1091.86 1669.21 1084.05 1671.1 1077.32 1673.82 C 1073.47 1665.87 1071.28 1661.54 1066.42 1654.21 C 1067.38 1660.56 1072.31 1668.68 1075.52 1674.37 C 1066.75 1678.63 1062.4 1681.01 1054.34 1686.63 C 1048.91 1680.06 1045.54 1675.76 1039.11 1670.21 C 1041.11 1675.03 1049.06 1683.54 1052.85 1687.76 C 1043.31 1694.82 1037.89 1700.68 1029.4 1707.46 L 1027.85 1706.77 L 1027.46 1709.42 C 1026.24 1713.12 1017.79 1722.17 1014.81 1726.74 C 1014.57 1727.63 1014.54 1727.58 1013.96 1728.33 C 1009.16 1736.02 1004.89 1744.01 1001.15 1752.26 C 996.88 1750.44 978.528 1741.73 975.916 1742.09 C 977.927 1745.19 996.299 1752.13 1000.47 1753.81 C 997.546 1761.86 996.067 1766.38 994.194 1774.7 C 988.564 1773.33 972.259 1768.17 968.345 1769.77 C 970.498 1771.51 989.508 1775.5 993.506 1776.42 C 991.917 1785.26 991.057 1790.52 990.618 1799.46 C 985.692 1799.05 972.036 1797.6 967.95 1798.38 C 976.226 1800.7 982.303 1800.97 990.821 1801.13 C 991.155 1810.47 991.85 1816.27 993.454 1825.54 C 988.864 1825.67 977.257 1825.55 973.781 1826.87 L 973.639 1828.03 C 975.872 1829.09 990.043 1827.72 994.12 1827.57 C 996.438 1835.74 998.083 1839.44 1001.67 1847.19 C 999.046 1848.29 993.233 1850.48 991.279 1852.06 C 995.683 1852.14 998.663 1850.66 1002.77 1849.09 C 1009.32 1858.55 1013.65 1863.29 1022.05 1871.3 C 1008.67 1869.01 997.249 1861.27 987.463 1852.26 C 984.006 1849.25 980.721 1845.18 977.694 1841.67 C 967.998 1828.14 964.008 1816.99 960.611 1801.02 C 957.117 1763.89 965.902 1731.69 986.831 1700.81 C 996.533 1687.81 1005.09 1678.58 1017.39 1668.17 z" fill="rgb(255,140,66)" transform="translate(0,0)"></path>
<path d="M 1004.11 1722.52 C 1002.15 1721.06 991.466 1713.71 990.75 1712.77 C 983.833 1703.74 1000.68 1717.33 1001.31 1718.12 C 1005.41 1720.48 1010.77 1724.05 1014.81 1726.74 C 1014.57 1727.63 1014.54 1727.58 1013.96 1728.33 C 1010.41 1726.38 1007.31 1724.27 1004.11 1722.52 z" fill="rgb(58,36,32)" transform="translate(0,0)"></path>
<path d="M 1023.92 1706.18 C 1023.16 1705.52 998.624 1687.64 1007.35 1690.18 C 1008.57 1690.54 1024.43 1703.98 1026.19 1705.67 L 1023.92 1706.18 z" fill="rgb(43,16,22)" transform="translate(0,0)"></path>
<path d="M 1026.19 1705.67 L 1027.85 1706.77 L 1027.46 1709.42 C 1026.27 1708.29 1025.17 1707.25 1023.92 1706.18 L 1026.19 1705.67 z" fill="rgb(134,80,36)" transform="translate(0,0)"></path>
<path d="M 1033.55 1871.73 C 1012.76 1853.36 1008.5 1830.87 1009.79 1804.49 C 1012.72 1744.44 1062.14 1684.89 1124.05 1681.73 C 1126.18 1681.62 1126.54 1682.17 1127.66 1683.59 C 1124.98 1689.28 1111.49 1691.8 1105.18 1693.77 C 1080.47 1701.51 1060.76 1715.38 1044.26 1735.38 C 1034.35 1748.09 1019.06 1768.38 1020.1 1785.13 C 1020.99 1799.7 1037.49 1797.03 1046.95 1795.16 C 1039.3 1819.08 1040.54 1845.02 1059.02 1863.77 C 1059.63 1864.6 1059.58 1864.5 1060.42 1865.14 C 1074.05 1875.67 1081.3 1876.23 1098.31 1876.46 C 1072.93 1889.18 1057.06 1886.17 1033.55 1871.73 z" fill="rgb(255,90,31)" transform="translate(0,0)"></path>
<path d="M 1115.42 1667.81 C 1120.03 1667.99 1121.51 1668.12 1126.17 1667.59 L 1131.14 1668.2 L 1132.41 1669.91 C 1131.85 1673.44 1130.38 1676.17 1128.92 1679.44 C 1064.64 1681.11 1009.28 1740.41 1007.89 1803.56 C 1008.38 1809.41 1008.38 1815.28 1007.89 1821.13 C 1008.8 1841.76 1015.56 1857.64 1030.69 1871.89 C 1028.54 1871.93 1026.72 1871.14 1024.69 1870.45 C 983.473 1835.24 986.245 1783.52 1010.29 1738.59 C 1020.98 1718.62 1033.34 1705.73 1050.93 1691.62 C 1051.6 1691.22 1051.63 1691.29 1052.14 1690.71 C 1073.11 1675.77 1089.87 1669.68 1115.42 1667.81 z" fill="rgb(255,90,31)" transform="translate(0,0)"></path>
<path d="M 1007.89 1821.13 C 1006.63 1814.56 1006.66 1810.12 1007.89 1803.56 C 1008.38 1809.41 1008.38 1815.28 1007.89 1821.13 z" fill="rgb(129,47,32)" transform="translate(0,0)"></path>
<path d="M 1155.23 1649.85 C 1161.15 1651.68 1163.98 1652.34 1170 1654.83 L 1170 1656.44 L 1170 1717.11 L 1169.29 1716.76 C 1167.23 1715.77 1164.72 1714.21 1162.63 1713.06 C 1153.36 1709.26 1151.84 1708.52 1141.57 1707.36 C 1137.95 1707.03 1135.83 1707.31 1133.8 1704.29 C 1134 1696.76 1150.05 1660.76 1153.96 1651.45 C 1154.38 1650.91 1154.81 1650.38 1155.23 1649.85 z" fill="rgb(255,90,31)" transform="translate(0,0)"></path>
<path d="M 1155.23 1649.85 C 1161.15 1651.68 1163.98 1652.34 1170 1654.83 L 1170 1656.44 C 1164.53 1654.59 1159.49 1653.1 1153.96 1651.45 C 1154.38 1650.91 1154.81 1650.38 1155.23 1649.85 z" fill="rgb(58,36,32)" transform="translate(0,0)"></path>
<path d="M 1141.57 1707.36 C 1151.84 1708.52 1153.36 1709.26 1162.63 1713.06 C 1164.72 1714.21 1167.23 1715.77 1169.29 1716.76 L 1170 1717.11 L 1170 1719.6 L 1170 1733.42 C 1133.06 1700.88 1085.9 1730.05 1062.38 1763.88 C 1056.5 1772.36 1051.21 1788.54 1043.57 1794.5 C 1040.24 1795.19 1041.43 1795.45 1038.91 1793.94 L 1038.62 1792.44 C 1046.95 1771.52 1054.03 1757.9 1070.47 1741.72 C 1089.25 1723.25 1112.75 1709.28 1139.75 1709.41 L 1141.57 1707.36 z" fill="rgb(255,90,31)" transform="translate(0,0)"></path>
<path d="M 1141.57 1707.36 C 1151.84 1708.52 1153.36 1709.26 1162.63 1713.06 L 1161.94 1715.08 C 1150.84 1710 1150.93 1711.04 1139.75 1709.41 L 1141.57 1707.36 z" fill="rgb(58,36,32)" transform="translate(0,0)"></path>
<path d="M 1162.63 1713.06 C 1164.72 1714.21 1167.23 1715.77 1169.29 1716.76 L 1170 1717.11 L 1170 1719.6 C 1167.21 1717.9 1164.76 1716.66 1161.94 1715.08 L 1162.63 1713.06 z" fill="url(#Gradient1)" transform="translate(0,0)"></path>
<path d="M 1144.17 1649.42 C 1146.36 1649.89 1148.55 1650.39 1150.72 1650.94 C 1151.05 1653.98 1133.83 1695.49 1131.39 1702.58 C 1129.35 1698.69 1127.58 1694.9 1125.53 1690.99 C 1130.57 1682.1 1132.66 1677.28 1136.76 1667.97 C 1138.98 1661.99 1141.77 1655.36 1144.17 1649.42 z" fill="rgb(255,140,66)" transform="translate(0,0)"></path>
<path d="M 1160.74 1632.14 C 1163.73 1633.14 1167.07 1634.23 1170 1635.32 L 1170 1654.83 C 1163.98 1652.34 1161.15 1651.68 1155.23 1649.85 C 1157.74 1642.81 1159.17 1639.69 1160.74 1632.14 z" fill="rgb(255,140,66)" transform="translate(0,0)"></path>
<path d="M 1164.76 1610.34 C 1166.8 1608.65 1167.36 1608.83 1170 1608.55 L 1170 1633.63 L 1170 1635.32 C 1167.07 1634.23 1163.73 1633.14 1160.74 1632.14 L 1160.49 1630.5 C 1162.32 1626.18 1164.39 1615.15 1164.76 1610.34 z" fill="rgb(255,140,66)" transform="translate(0,0)"></path>
<path d="M 1160.49 1630.5 C 1164.29 1631.16 1166.47 1632.13 1170 1633.63 L 1170 1635.32 C 1167.07 1634.23 1163.73 1633.14 1160.74 1632.14 L 1160.49 1630.5 z" fill="rgb(58,36,32)" transform="translate(0,0)"></path>
<path d="M 1115.42 1667.81 C 1119.95 1666.73 1121.51 1666.28 1126.17 1667.59 C 1121.51 1668.12 1120.03 1667.99 1115.42 1667.81 z" fill="rgb(58,36,32)" transform="translate(0,0)"></path>
<path d="M 1059.02 1863.77 C 1060.03 1864.24 1060.03 1864.14 1060.42 1865.14 C 1059.58 1864.5 1059.63 1864.6 1059.02 1863.77 z" fill="rgb(129,47,32)" transform="translate(0,0)"></path>
<path d="M 1050.93 1691.62 C 1051.51 1690.97 1051.36 1691.07 1052.14 1690.71 C 1051.63 1691.29 1051.6 1691.22 1050.93 1691.62 z" fill="rgb(58,36,32)" transform="translate(0,0)"></path>
<path d="M 1122.51 1691.27 L 1122.81 1691.31 C 1126.31 1693.55 1129.41 1703.19 1130.77 1707.19 C 1093.62 1712.56 1059.19 1742.57 1043.75 1776 C 1041.56 1780.76 1037.52 1792.82 1033.22 1795.11 C 1005.55 1785.9 1039.01 1744.77 1049.43 1732.67 C 1069.21 1709.7 1093.48 1698.19 1122.51 1691.27 z" fill="rgb(255,140,66)" transform="translate(0,0)"></path>
<path d="M 914.516 1846.38 C 834.566 1807.42 843.143 1666.4 922.52 1631.48 C 935.173 1625.91 945.452 1625.85 958.75 1626.15 C 979.719 1630.9 995.287 1640.86 1009.28 1657.12 C 1011.2 1659.35 1015.74 1664.1 1017.02 1666.51 C 1003.01 1676.34 995.098 1686.49 984.6 1700.07 C 978.524 1690.56 969.539 1676.25 958.306 1675.21 C 909.987 1670.75 897.154 1756.32 920.843 1786.98 C 931.845 1801.22 942.625 1807.02 958.393 1801.26 C 962.376 1819.41 965.502 1827.34 975.993 1843 C 953.382 1852.72 938.451 1855.14 914.516 1846.38 z" fill="rgb(255,140,66)" transform="translate(0,0)"></path>
<path d="M 912.174 1570.28 C 922.043 1535.35 937.61 1500.71 964.301 1475.37 C 1010.16 1431.84 1062.79 1422.84 1108.98 1470.89 C 1032.77 1474.36 993.247 1515.54 965.865 1583.77 L 955.812 1581.51 C 943.213 1579.33 926.684 1573.1 912.174 1570.28 z" fill="rgb(255,90,31)" transform="translate(0,0)"></path>
<path d="M 909.53 1570.3 C 921.713 1532.09 935.545 1498.21 966.015 1470.75 C 1012.26 1429.07 1066.9 1421.8 1110.94 1470.39 L 1108.98 1470.89 C 1062.79 1422.84 1010.16 1431.84 964.301 1475.37 C 937.61 1500.71 922.043 1535.35 912.174 1570.28 C 926.684 1573.1 943.213 1579.33 955.812 1581.51 L 955.157 1583.72 C 954.677 1587.95 953.009 1601.53 950.472 1603.95 L 949.705 1605.45 L 952.546 1606.03 C 961.473 1607.88 957.423 1615.05 957.925 1623.98 L 958.75 1626.15 C 945.452 1625.85 935.173 1625.91 922.52 1631.48 C 843.143 1666.4 834.566 1807.42 914.516 1846.38 L 913.978 1848.67 L 914.235 1849.31 C 910.799 1849.48 907.574 1848.7 904.288 1847.71 C 878.509 1840.01 866.761 1823.19 854.715 1800.95 L 853.879 1803.78 C 840.878 1775.27 838.568 1748.4 842.916 1717.67 C 844.308 1714.66 844.635 1714.12 844.793 1710.85 L 843.011 1709.37 C 846.179 1702.37 852.606 1688.68 854.562 1681.9 L 853.476 1681.21 L 852.78 1680.22 C 854.36 1677.23 858.243 1674 861.559 1673.23 C 865.109 1667.67 868.03 1663.56 871.971 1658.3 C 880.303 1648.73 888.646 1643.55 899.222 1636.74 L 898.339 1634.45 C 898.453 1628.52 897.842 1619.31 899.503 1613.83 L 899.482 1612.4 C 903.487 1612.82 907.527 1614.48 907.944 1609.54 C 908.312 1605.17 909.826 1601.11 910.017 1596.61 L 909.626 1594.38 C 908.574 1593.91 907.246 1593.27 906.165 1592.91 C 906.225 1588.12 908.526 1575.5 911.208 1571.65 C 909.023 1571.79 910.113 1571.95 907.939 1570.72 L 909.53 1570.3 z" fill="rgb(43,16,22)" transform="translate(0,0)"></path>
<path d="M 899.222 1636.74 C 905.984 1633.92 910.867 1632.63 917.917 1630.71 C 896.947 1644.12 884.73 1654.49 872.371 1677.51 C 844.489 1729.44 851.579 1808.7 903.948 1842.88 C 907.085 1844.93 910.972 1846.65 913.978 1848.67 L 914.235 1849.31 C 910.799 1849.48 907.574 1848.7 904.288 1847.71 C 878.509 1840.01 866.761 1823.19 854.715 1800.95 L 853.879 1803.78 C 840.878 1775.27 838.568 1748.4 842.916 1717.67 C 844.308 1714.66 844.635 1714.12 844.793 1710.85 L 843.011 1709.37 C 846.179 1702.37 852.606 1688.68 854.562 1681.9 L 853.476 1681.21 L 852.78 1680.22 C 854.36 1677.23 858.243 1674 861.559 1673.23 C 865.109 1667.67 868.03 1663.56 871.971 1658.3 C 880.303 1648.73 888.646 1643.55 899.222 1636.74 z" fill="rgb(255,140,66)" transform="translate(0,0)"></path>
<path d="M 853.476 1681.21 L 852.78 1680.22 C 854.36 1677.23 858.243 1674 861.559 1673.23 C 842.202 1710.71 837.053 1747.36 850.019 1788.18 C 851.433 1792.49 853 1796.75 854.715 1800.95 L 853.879 1803.78 C 840.878 1775.27 838.568 1748.4 842.916 1717.67 C 844.308 1714.66 844.635 1714.12 844.793 1710.85 L 843.011 1709.37 C 846.179 1702.37 852.606 1688.68 854.562 1681.9 L 853.476 1681.21 z" fill="rgb(43,16,22)" transform="translate(0,0)"></path>
<path d="M 912.664 1596.44 C 921.738 1598.56 941.834 1604.25 949.705 1605.45 L 952.546 1606.03 C 961.473 1607.88 957.423 1615.05 957.925 1623.98 C 940.91 1621.51 926.258 1617.28 909.494 1614.06 C 910.383 1605.84 910.763 1604.33 912.664 1596.44 z" fill="rgb(255,140,66)" transform="translate(0,0)"></path>
<path d="M 919.817 1574 C 930.383 1577.22 944.576 1581.27 955.157 1583.72 C 954.677 1587.95 953.009 1601.53 950.472 1603.95 C 938.865 1600.25 926.208 1597.44 914.388 1594.35 C 916.303 1587.67 918.016 1580.76 919.817 1574 z" fill="rgb(255,140,66)" transform="translate(0,0)"></path>
<path d="M 906.165 1592.91 C 906.225 1588.12 908.526 1575.5 911.208 1571.65 C 912.066 1571.98 916.577 1573.39 916.628 1574.21 C 916.937 1579.16 913.81 1588.15 912.543 1593.33 C 912.446 1593.73 910.044 1594.26 909.626 1594.38 C 908.574 1593.91 907.246 1593.27 906.165 1592.91 z" fill="rgb(255,140,66)" transform="translate(0,0)"></path>
<path d="M 899.503 1613.83 C 912.495 1617.49 905.481 1616.61 905.561 1631.19 C 905.565 1632.09 899.451 1633.94 898.339 1634.45 C 898.453 1628.52 897.842 1619.31 899.503 1613.83 z" fill="rgb(255,140,66)" transform="translate(0,0)"></path>
<path d="M 909.383 1616.01 C 913.94 1617.06 937.705 1621.74 940.956 1623.48 L 940.864 1623.63 L 940.937 1623.48 C 938.856 1624.62 937.154 1624.69 934.815 1624.86 C 930.571 1625.69 926.801 1626.2 922.561 1627.26 C 917.582 1628.51 912.647 1629.94 907.765 1631.53 C 908.183 1625 908.609 1622.3 909.383 1616.01 z" fill="rgb(255,140,66)" transform="translate(0,0)"></path>
<path d="M 900.981 897.827 C 988.657 899.723 1081.78 897.882 1170 898.087 L 1170 915.441 L 898.93 915.856 C 898.835 911.326 897.566 900.396 900.981 897.827 z" fill="rgb(255,90,31)" transform="translate(0,0)"></path>
<path d="M 1080.88 1435.37 C 1084.47 1435.43 1085.23 1435.44 1088.74 1436.32 C 1123.5 1444.7 1145.81 1446.58 1170 1474.02 L 1170 1607.77 L 1163.6 1605.89 C 1160.2 1605.09 1156.45 1604.56 1153.77 1602.4 C 1154.53 1597.53 1154.78 1591.74 1155.12 1586.76 C 1155.85 1528.82 1139.49 1469.01 1086.08 1438.57 C 1083.6 1437.56 1083.05 1437.01 1080.88 1435.37 z" fill="rgb(255,90,31)" transform="translate(0,0)"></path>
<path d="M 909.53 1570.3 C 907.023 1569.28 906.816 1569.29 905.047 1567.33 C 904.678 1563.31 905.625 1559.39 906.811 1555.56 C 929.283 1482.99 993.792 1410.62 1076.86 1436.14 L 1080.88 1435.37 C 1083.05 1437.01 1083.6 1437.56 1086.08 1438.57 C 1139.49 1469.01 1155.85 1528.82 1155.12 1586.76 L 1152.66 1593.28 C 1152.13 1596.85 1151.92 1598.07 1152.14 1601.8 C 1148.12 1601.65 1148.85 1602.23 1145.76 1600.31 C 1143.93 1596.53 1145.7 1592.02 1145.8 1587.72 C 1146.73 1543.79 1139.53 1503.92 1110.94 1470.39 C 1066.9 1421.8 1012.26 1429.07 966.015 1470.75 C 935.545 1498.21 921.713 1532.09 909.53 1570.3 z" fill="rgb(255,140,66)" transform="translate(0,0)"></path>
<path d="M 1076.86 1436.14 L 1080.88 1435.37 C 1083.05 1437.01 1083.6 1437.56 1086.08 1438.57 C 1139.49 1469.01 1155.85 1528.82 1155.12 1586.76 L 1152.66 1593.28 C 1154.21 1529.18 1138.87 1466.47 1076.86 1436.14 z" fill="rgb(43,16,22)" transform="translate(0,0)"></path>
<path d="M 1170 1298.31 L 1170 1373.47 L 1140.79 1373.49 L 1140.76 1298.31 L 1170 1298.31 z" fill="rgb(245,237,230)" transform="translate(0,0)"></path>
<path d="M 1140.82 1120.1 C 1150.55 1120.06 1160.28 1120.16 1170 1120.38 L 1170 1187.05 L 1140.77 1187.06 L 1140.82 1120.1 z" fill="rgb(245,237,230)" transform="translate(0,0)"></path>
<path d="M 1170 945.146 L 1170 1007.92 L 1140.75 1007.92 L 1140.73 945.106 L 1170 945.146 z" fill="rgb(245,237,230)" transform="translate(0,0)"></path>
<path d="M 1140.81 1211.96 L 1170 1212.04 L 1170 1274.91 L 1140.89 1275.04 L 1140.81 1211.96 z" fill="rgb(245,237,230)" transform="translate(0,0)"></path>
<path d="M 1140.8 1032.79 L 1170 1032.63 L 1170 1094.94 L 1140.82 1094.95 L 1140.8 1032.79 z" fill="rgb(245,237,230)" transform="translate(0,0)"></path>
<path d="M 853.476 1681.21 L 854.562 1681.9 C 852.606 1688.68 846.179 1702.37 843.011 1709.37 C 834.25 1732.15 834.281 1741.31 836.089 1765.28 C 829.172 1763.12 826.268 1759.03 826.161 1751.44 C 825.763 1723.09 836.017 1702.83 853.476 1681.21 z" fill="rgb(255,140,66)" transform="translate(0,0)"></path>
<path d="M 838.372 1766.88 C 836.695 1753.05 835.608 1729.87 842.916 1717.67 C 838.568 1748.4 840.878 1775.27 853.879 1803.78 L 855.59 1807.76 C 846.997 1800.27 841.428 1778.13 838.372 1766.88 z" fill="rgb(255,90,31)" transform="translate(0,0)"></path>
<path d="M 1144.43 1647.74 C 1141.84 1645.5 1143.79 1640.55 1144.37 1637.26 C 1145.81 1629.17 1145.25 1630.53 1152.2 1630.49 C 1163.21 1634.16 1155.02 1637.15 1153.68 1646.98 C 1153.48 1648.43 1151.79 1648.88 1150.61 1649.23 C 1148.56 1648.72 1146.49 1648.22 1144.43 1647.74 z" fill="rgb(255,140,66)" transform="translate(0,0)"></path>
<path d="M 899.482 1612.4 C 897.319 1608.81 899.222 1604.69 898.948 1600.68 C 898.466 1593.61 901.389 1594.98 906.986 1595.31 L 910.017 1596.61 C 909.826 1601.11 908.312 1605.17 907.944 1609.54 C 907.527 1614.48 903.487 1612.82 899.482 1612.4 z" fill="rgb(255,140,66)" transform="translate(0,0)"></path>
<path d="M 1152.37 1629.11 C 1151.95 1624.4 1154.07 1617.36 1154.83 1612.47 C 1155.97 1605.16 1156.7 1606.01 1162.24 1606.86 L 1163.03 1606.97 L 1163.01 1610.43 C 1161.89 1614.47 1161.19 1619.28 1160.3 1623.45 C 1158.7 1630.95 1159.67 1629.89 1152.37 1629.11 z" fill="rgb(255,140,66)" transform="translate(0,0)"></path>
<path d="M 266.492 1031.83 C 280.292 1032.57 295.702 1031.85 309.733 1031.8 L 379.996 1031.96 L 478.186 1031.91 L 478.12 1049.08 C 478.165 1054.68 478.083 1061.01 478.284 1066.55 L 478.348 1304.53 C 478.362 1317.62 479.42 1417.8 476.78 1421.09 C 472.426 1422.32 472.683 1421.57 469.868 1424.45 C 469.352 1427.83 470.371 1430.22 471.324 1433.54 C 467.197 1434.25 451.363 1434.09 446.639 1434.1 L 400.545 1434.2 L 222.885 1434.01 C 219.184 1424.91 215.786 1414.64 212.494 1405.3 L 210.261 1397.15 C 207.694 1390.81 206.102 1386.74 204.233 1380.12 C 200.004 1368.45 195.56 1355.41 191.279 1344.06 C 187.745 1335.49 184.168 1324.18 181.433 1315.32 C 178.026 1303.8 176.671 1296.25 167.891 1287.82 C 165.568 1286.51 163.341 1285.07 161.087 1283.66 C 146.692 1279.23 139.847 1281.71 125.176 1285.33 C 118.116 1287.33 103.176 1289.66 94.5689 1291.78 C 94.7257 1232.99 95.2079 1130.07 94.0669 1067.01 C 93.4327 1066.09 92.8931 1065.31 92.448 1064.66 C 91.3692 1059.71 91.7225 1053.95 91.641 1048.76 C 91.2302 1046.54 91.2573 1035 91.2138 1032.06 L 266.492 1031.83 z" fill="rgb(255,90,31)" transform="translate(0,0)"></path>
<path d="M 266.492 1031.83 C 280.292 1032.57 295.702 1031.85 309.733 1031.8 L 379.996 1031.96 L 478.186 1031.91 L 478.12 1049.08 C 350.404 1049.74 222.684 1049.71 94.9681 1049.01 C 95.0127 1053.07 95.4699 1060.59 94.2571 1064.15 L 92.448 1064.66 C 91.3692 1059.71 91.7225 1053.95 91.641 1048.76 C 91.2302 1046.54 91.2573 1035 91.2138 1032.06 L 266.492 1031.83 z" fill="rgb(255,140,66)" transform="translate(0,0)"></path>
<path d="M 91.641 1048.76 L 91.9925 1047.76 C 92.137 1047.33 92.2485 1046.86 92.719 1046.7 C 94.9442 1047.11 94.142 1061.63 94.2571 1064.15 L 92.448 1064.66 C 91.3692 1059.71 91.7225 1053.95 91.641 1048.76 z" fill="rgb(255,209,102)" transform="translate(0,0)"></path>
<path d="M 210.611 1343.94 L 246.938 1343.99 L 247.076 1405.23 L 212.494 1405.3 L 210.261 1397.15 C 211.472 1382.4 210.715 1359.22 210.611 1343.94 z" fill="rgb(245,237,230)" transform="translate(0,0)"></path>
<path d="M 167.813 1254.89 L 204.825 1254.98 L 204.702 1315.17 L 181.433 1315.32 C 178.026 1303.8 176.671 1296.25 167.891 1287.82 L 167.813 1254.89 z" fill="rgb(245,237,230)" transform="translate(0,0)"></path>
<path d="M 125.082 1254.86 C 137.136 1254.78 149.19 1254.77 161.244 1254.82 C 161.229 1263.39 161.642 1275.29 161.087 1283.66 C 146.692 1279.23 139.847 1281.71 125.176 1285.33 C 125.092 1275.17 125.061 1265.02 125.082 1254.86 z" fill="rgb(245,237,230)" transform="translate(0,0)"></path>
<path d="M 191.279 1344.06 C 195.754 1343.97 200.23 1343.95 204.706 1344.02 C 204.779 1352 205.426 1373.49 204.233 1380.12 C 200.004 1368.45 195.56 1355.41 191.279 1344.06 z" fill="rgb(245,237,230)" transform="translate(0,0)"></path>
<path d="M 339.961 1343.93 L 377.047 1343.95 L 377.146 1405.25 L 339.777 1405.23 L 339.961 1343.93 z" fill="rgb(245,237,230)" transform="translate(0,0)"></path>
<path d="M 296.853 1343.94 L 333.871 1343.97 L 333.906 1405.17 L 296.63 1405.27 L 296.853 1343.94 z" fill="rgb(245,237,230)" transform="translate(0,0)"></path>
<path d="M 339.689 1073.95 L 377.013 1073.94 L 377.031 1134.68 L 339.58 1134.75 L 339.689 1073.95 z" fill="rgb(245,237,230)" transform="translate(0,0)"></path>
<path d="M 254.032 1343.93 L 290.355 1343.94 L 290.319 1405.39 L 254.06 1405.35 L 254.032 1343.93 z" fill="rgb(245,237,230)" transform="translate(0,0)"></path>
<path d="M 426.054 1343.79 C 437.545 1343.45 450.919 1343.76 462.549 1343.76 L 462.352 1404.96 C 454.853 1405.75 434.559 1405.33 426.108 1405.36 L 426.054 1343.79 z" fill="rgb(245,237,230)" transform="translate(0,0)"></path>
<path d="M 425.955 1073.93 L 462.547 1073.92 L 462.68 1134.76 L 425.992 1134.77 L 425.955 1073.93 z" fill="rgb(245,237,230)" transform="translate(0,0)"></path>
<path d="M 167.814 1073.88 L 204.506 1073.96 C 204.732 1093.96 204.45 1114.51 204.42 1134.55 C 194.664 1135.14 178.044 1134.7 167.812 1134.73 L 167.814 1073.88 z" fill="rgb(245,237,230)" transform="translate(0,0)"></path>
<path d="M 296.827 1073.98 L 333.392 1073.98 L 333.244 1134.63 L 296.753 1134.73 L 296.827 1073.98 z" fill="rgb(245,237,230)" transform="translate(0,0)"></path>
<path d="M 124.759 1073.68 C 136.246 1073.36 149.505 1073.66 161.108 1073.68 L 161.112 1134.87 L 124.932 1134.85 L 124.759 1073.68 z" fill="rgb(245,237,230)" transform="translate(0,0)"></path>
<path d="M 383.332 1073.92 L 419.717 1073.97 L 419.673 1134.69 L 383.283 1134.73 L 383.332 1073.92 z" fill="rgb(245,237,230)" transform="translate(0,0)"></path>
<path d="M 210.619 1073.95 L 247.107 1074.02 L 247.098 1134.57 L 210.72 1134.6 L 210.619 1073.95 z" fill="rgb(245,237,230)" transform="translate(0,0)"></path>
<path d="M 339.904 1255.06 L 376.832 1255.06 L 376.861 1314.86 L 339.994 1314.9 L 339.904 1255.06 z" fill="rgb(245,237,230)" transform="translate(0,0)"></path>
<path d="M 210.979 1165.26 L 247.404 1165.32 L 247.53 1225.59 L 210.863 1225.57 L 210.979 1165.26 z" fill="rgb(245,237,230)" transform="translate(0,0)"></path>
<path d="M 340.144 1165.44 C 352.347 1165.4 364.549 1165.43 376.752 1165.53 L 376.701 1225.59 L 340.003 1225.54 C 339.931 1205.51 339.978 1185.47 340.144 1165.44 z" fill="rgb(245,237,230)" transform="translate(0,0)"></path>
<path d="M 254.047 1074 L 290.192 1073.98 L 290.072 1134.82 L 254.069 1134.9 L 254.047 1074 z" fill="rgb(245,237,230)" transform="translate(0,0)"></path>
<path d="M 297.117 1165.63 L 333.712 1165.64 C 333.634 1185.37 334.054 1205.87 333.48 1225.52 L 297.095 1225.45 L 297.117 1165.63 z" fill="rgb(245,237,230)" transform="translate(0,0)"></path>
<path d="M 168.278 1165.43 L 204.435 1165.5 L 204.305 1225.59 L 168.309 1225.62 L 168.278 1165.43 z" fill="rgb(245,237,230)" transform="translate(0,0)"></path>
<path d="M 297.098 1255.04 L 333.368 1255.06 L 333.262 1314.93 L 297.14 1315.01 L 297.098 1255.04 z" fill="rgb(245,237,230)" transform="translate(0,0)"></path>
<path d="M 125.773 1165.48 C 137.569 1165.28 149.699 1165.46 161.521 1165.5 L 161.461 1225.2 L 125.007 1225.09 C 125.019 1217.44 124.019 1170.37 125.773 1165.48 z" fill="rgb(245,237,230)" transform="translate(0,0)"></path>
<path d="M 210.779 1255.04 L 247.001 1255.03 L 247.052 1315.02 L 210.788 1315.06 C 210.568 1295.19 210.778 1274.93 210.779 1255.04 z" fill="rgb(245,237,230)" transform="translate(0,0)"></path>
<path d="M 426.111 1255.1 L 462.411 1255.19 L 462.35 1314.81 L 426.113 1314.84 L 426.111 1255.1 z" fill="rgb(245,237,230)" transform="translate(0,0)"></path>
<path d="M 383.163 1254.99 L 419.506 1255.04 L 419.154 1314.77 L 383.181 1314.87 L 383.163 1254.99 z" fill="rgb(245,237,230)" transform="translate(0,0)"></path>
<path d="M 254.31 1254.97 L 290.205 1254.99 L 290.215 1315.09 L 254.239 1315.14 L 254.31 1254.97 z" fill="rgb(245,237,230)" transform="translate(0,0)"></path>
<path d="M 383.197 1165.34 C 395.154 1165.18 407.508 1165.34 419.498 1165.34 L 419.391 1225.62 L 383.14 1225.68 L 383.197 1165.34 z" fill="rgb(245,237,230)" transform="translate(0,0)"></path>
<path d="M 426.283 1165.36 L 462.218 1165.42 C 462.246 1181.72 463.151 1209.89 461.849 1225.51 L 426.266 1225.49 L 426.283 1165.36 z" fill="rgb(245,237,230)" transform="translate(0,0)"></path>
<path d="M 254.869 1165.35 L 290.216 1165.44 C 290.247 1179.74 291.19 1212.03 289.767 1225.5 L 254.749 1225.45 C 254.634 1205.42 254.674 1185.38 254.869 1165.35 z" fill="rgb(245,237,230)" transform="translate(0,0)"></path>
<path d="M 609.483 1656.89 C 607.269 1645.57 606.24 1633.91 605.317 1622.41 C 604.153 1607.9 599.08 1517.19 605.108 1510.46 C 615.454 1498.9 653.15 1496.51 667.996 1495.57 C 696.565 1493.78 777.799 1492.69 796.665 1511.1 C 800.786 1515.12 798.876 1530.92 799.055 1537.08 C 799.717 1537.2 800.378 1537.33 801.04 1537.46 C 801.125 1543.88 801.058 1550.31 800.838 1556.74 L 798.876 1557.18 C 797.762 1593.18 796.733 1618.61 791.459 1654.25 C 789.759 1661.2 788.109 1668.83 786.258 1675.66 C 783.759 1683.56 781.466 1690.47 777.797 1697.94 L 775.928 1702.77 C 770.449 1713.85 766.082 1722.59 752.768 1726.57 C 721.487 1735.93 672.906 1736.89 642.42 1724.32 C 633.998 1720.85 628.251 1713.53 624.818 1705.61 C 616.567 1687.66 612.613 1676.49 609.483 1656.89 z" fill="rgb(255,90,31)" transform="translate(0,0)"></path>
<path d="M 799.055 1537.08 C 799.717 1537.2 800.378 1537.33 801.04 1537.46 C 801.125 1543.88 801.058 1550.31 800.838 1556.74 L 798.876 1557.18 C 799.001 1550.93 798.672 1543.02 799.055 1537.08 z" fill="rgb(43,16,22)" transform="translate(0,0)"></path>
<path d="M 628.264 1546.03 C 639.866 1549.95 650.201 1551.94 662.127 1554.43 L 661.918 1708.2 C 653.58 1705.83 644.6 1702.76 636.283 1700.1 C 629.344 1643.42 628.819 1602.96 628.264 1546.03 z" fill="rgb(255,140,66)" transform="translate(0,0)"></path>
<path d="M 684.315 1506.43 C 711.694 1505.72 741.024 1506.64 767.909 1511.8 C 772.493 1512.68 782.045 1514.91 784.468 1519.07 C 784.934 1519.87 784.532 1520.33 784.247 1521.68 C 774.575 1530.82 730.551 1533.55 716.753 1534.32 C 702.903 1535.78 613.526 1535.1 614.854 1518.66 C 623.061 1509.56 670.23 1507.19 684.315 1506.43 z" fill="rgb(58,36,32)" transform="translate(0,0)"></path>
<path d="M 476.328 1570.16 C 481.972 1575.69 487.429 1581.4 492.622 1587.37 C 496.749 1592.11 500.121 1597.78 504.256 1602.36 C 505.272 1601.66 507.274 1601.66 508.677 1601.51 C 511.117 1600.68 522.929 1592.88 527.295 1590.6 C 530.626 1601.79 532.848 1612.49 536.76 1623.68 L 537.606 1625.46 C 541.393 1624.85 544.871 1624.11 548.746 1623.52 C 548.95 1636.04 548.098 1639.77 545.534 1651.79 C 546.133 1652.8 546.607 1653.74 547.147 1654.78 C 551.844 1656.4 557.102 1658.07 561.689 1659.84 C 565.606 1661.51 570.035 1663.53 573.967 1665.01 C 570.399 1670.97 567.616 1675.55 563.522 1681.19 C 549.933 1696.84 529.986 1702.44 510.006 1697.08 L 508.332 1696.5 C 491.56 1709.55 471.137 1709.17 456.184 1693.62 L 454.913 1695.42 L 453.085 1697.29 C 431.739 1703.12 412.683 1694.31 399.585 1677.38 C 398.557 1675.12 394.458 1668.66 392.995 1666.22 C 398.054 1663.49 403.978 1660.98 409.261 1658.59 C 412.904 1657.05 418.804 1654.57 422.609 1655.6 L 424.595 1655.53 C 424.208 1654.58 423.811 1653.64 423.402 1652.71 C 422.976 1652.72 421.98 1652.33 421.507 1652.18 C 419.955 1652.78 413.843 1654.53 413.061 1653.62 C 407.873 1647.59 403.082 1628 401.484 1621.28 C 408.573 1620.9 415.343 1620.38 422.394 1621.45 L 426.101 1623.31 C 428.641 1610.65 429.267 1603.32 433.055 1590.37 C 441.471 1594.43 447.36 1597.86 455.435 1602.7 L 456.4 1601.7 C 455.392 1595.52 471.976 1575.33 476.328 1570.16 z" fill="rgb(43,16,22)" transform="translate(0,0)"></path>
<path d="M 537.606 1625.46 C 541.393 1624.85 544.871 1624.11 548.746 1623.52 C 548.95 1636.04 548.098 1639.77 545.534 1651.79 C 546.133 1652.8 546.607 1653.74 547.147 1654.78 C 551.844 1656.4 557.102 1658.07 561.689 1659.84 C 565.606 1661.51 570.035 1663.53 573.967 1665.01 C 570.399 1670.97 567.616 1675.55 563.522 1681.19 C 549.933 1696.84 529.986 1702.44 510.006 1697.08 L 508.332 1696.5 C 518.324 1684.42 519.151 1677.53 506.823 1666.37 C 506.686 1665.33 506.617 1664.51 506.564 1663.48 L 506.009 1662.92 C 494.905 1657.21 495.216 1658.36 502.518 1645.06 C 509.391 1632.54 524.315 1628.18 537.606 1625.46 z" fill="rgb(255,140,66)" transform="translate(0,0)"></path>
<path d="M 547.147 1654.78 C 551.844 1656.4 557.102 1658.07 561.689 1659.84 C 565.606 1661.51 570.035 1663.53 573.967 1665.01 C 570.399 1670.97 567.616 1675.55 563.522 1681.19 C 549.933 1696.84 529.986 1702.44 510.006 1697.08 C 515.635 1690.37 515.867 1689.1 518.963 1681.11 C 521.761 1679.96 523.728 1679.5 526.476 1677.97 L 528.903 1676.61 C 529.587 1676.22 529.622 1676.3 530.147 1675.72 C 538.783 1669.47 542.549 1664.6 547.147 1654.78 z" fill="rgb(255,90,31)" transform="translate(0,0)"></path>
<path d="M 545.534 1651.79 C 546.133 1652.8 546.607 1653.74 547.147 1654.78 C 542.549 1664.6 538.783 1669.47 530.147 1675.72 C 529.622 1676.3 529.587 1676.22 528.903 1676.61 L 526.476 1677.97 C 523.728 1679.5 521.761 1679.96 518.963 1681.11 C 515.867 1689.1 515.635 1690.37 510.006 1697.08 L 508.332 1696.5 C 518.324 1684.42 519.151 1677.53 506.823 1666.37 C 506.686 1665.33 506.617 1664.51 506.564 1663.48 C 514.136 1669.45 514.431 1671.37 518.37 1679.42 C 534.32 1672.28 538.507 1667.79 545.534 1651.79 z" fill="rgb(43,16,22)" transform="translate(0,0)"></path>
<path d="M 461.03 1666.54 C 473.746 1657 490.138 1657.4 503.936 1664.19 L 506.009 1662.92 L 506.564 1663.48 C 506.617 1664.51 506.686 1665.33 506.823 1666.37 C 519.151 1677.53 518.324 1684.42 508.332 1696.5 C 491.56 1709.55 471.137 1709.17 456.184 1693.62 C 450.418 1684.63 451.289 1679.2 456.803 1670.66 C 458.371 1668.57 458.788 1667.83 461.03 1666.54 z" fill="rgb(255,140,66)" transform="translate(0,0)"></path>
<path d="M 506.009 1662.92 L 506.564 1663.48 C 506.617 1664.51 506.686 1665.33 506.823 1666.37 C 505.451 1665.55 505.12 1665.22 503.936 1664.19 L 506.009 1662.92 z" fill="rgb(134,80,36)" transform="translate(0,0)"></path>
<path d="M 456.803 1670.66 C 458.371 1668.57 458.788 1667.83 461.03 1666.54 C 459.952 1668.47 458.606 1669.44 456.803 1670.66 z" fill="rgb(134,80,36)" transform="translate(0,0)"></path>
<path d="M 421.004 1625.73 C 446.506 1626.4 464.674 1632.71 473.131 1658.27 C 459.084 1663.68 455.902 1666.35 449.745 1679.9 C 434.854 1672.86 432.061 1670.06 424.595 1655.53 C 424.208 1654.58 423.811 1653.64 423.402 1652.71 C 421.142 1640.34 420.956 1638.64 421.004 1625.73 z" fill="rgb(255,140,66)" transform="translate(0,0)"></path>
<path d="M 409.261 1658.59 C 412.904 1657.05 418.804 1654.57 422.609 1655.6 C 429.835 1671.02 434.056 1674.94 449.582 1681.76 C 451.244 1688.51 451.627 1689.45 454.913 1695.42 L 453.085 1697.29 C 431.739 1703.12 412.683 1694.31 399.585 1677.38 C 398.557 1675.12 394.458 1668.66 392.995 1666.22 C 398.054 1663.49 403.978 1660.98 409.261 1658.59 z" fill="rgb(255,90,31)" transform="translate(0,0)"></path>
<path d="M 433.055 1590.37 C 441.471 1594.43 447.36 1597.86 455.435 1602.7 C 457.585 1605.55 461.053 1609.35 463.455 1612.33 C 458.532 1620.45 457.945 1621.72 454.745 1630.77 C 439.022 1624.57 439.834 1626.56 426.101 1623.31 C 428.641 1610.65 429.267 1603.32 433.055 1590.37 z" fill="rgb(255,90,31)" transform="translate(0,0)"></path>
<path d="M 527.295 1590.6 C 530.626 1601.79 532.848 1612.49 536.76 1623.68 C 525.264 1626.41 522.712 1626.69 512.018 1632.15 C 507.99 1619.76 508.405 1619.65 501.136 1608.13 C 503.647 1605.82 506.278 1603.75 508.677 1601.51 C 511.117 1600.68 522.929 1592.88 527.295 1590.6 z" fill="rgb(255,90,31)" transform="translate(0,0)"></path>
<path d="M 476.328 1570.16 C 481.972 1575.69 487.429 1581.4 492.622 1587.37 C 496.749 1592.11 500.121 1597.78 504.256 1602.36 C 503.713 1602.8 500.373 1605.82 499.904 1605.52 C 495.247 1602.47 488.745 1595.91 484.478 1592.2 C 475.982 1598.79 472.427 1602.93 464.979 1610.61 C 461.936 1607.21 459.967 1604.63 456.4 1601.7 C 455.392 1595.52 471.976 1575.33 476.328 1570.16 z" fill="rgb(255,90,31)" transform="translate(0,0)"></path>
<path d="M 401.484 1621.28 C 408.573 1620.9 415.343 1620.38 422.394 1621.45 C 415.728 1629.92 419.005 1642.35 421.507 1652.18 C 419.955 1652.78 413.843 1654.53 413.061 1653.62 C 407.873 1647.59 403.082 1628 401.484 1621.28 z" fill="rgb(255,140,66)" transform="translate(0,0)"></path>
<path d="M 483.893 1595.95 C 499.159 1605.55 504.79 1616.89 510.494 1632.99 C 497.905 1644.32 502.403 1644.15 494.248 1656.29 C 490.437 1658.27 489.74 1657.32 484.629 1656.78 C 476.291 1658.24 475.705 1657.73 471.896 1649.83 C 467.501 1640.7 465.114 1637.29 456.511 1631.66 C 463.215 1614.12 469.128 1607.42 483.893 1595.95 z" fill="rgb(255,140,66)" transform="translate(0,0)"></path>
<path d="M 288.777 873.97 L 379.017 874.044 L 378.971 981.895 C 378.965 988.441 378.433 1026.74 379.763 1030.96 L 379.996 1031.96 L 309.733 1031.8 C 295.702 1031.85 280.292 1032.57 266.492 1031.83 C 271.514 1031.18 282.69 1031.33 288.242 1031.28 C 289.575 1020.83 288.828 990.636 288.831 978.387 L 288.777 873.97 z" fill="rgb(255,90,31)" transform="translate(0,0)"></path>
<path d="M 306.087 990.192 C 314.133 990.109 322.181 990.11 330.227 990.196 L 330.176 1020.03 L 306.018 1020.04 C 306.015 1010.18 305.872 1000.01 306.087 990.192 z" fill="rgb(245,237,230)" transform="translate(0,0)"></path>
<path d="M 307.989 893.472 L 330.15 893.566 C 330.164 898.162 331.131 920.99 328.743 922.865 L 306.22 922.857 C 306.253 918.12 305.087 895.131 307.989 893.472 z" fill="rgb(245,237,230)" transform="translate(0,0)"></path>
<path d="M 306.496 941.841 C 314.359 941.779 322.223 941.795 330.086 941.889 L 330.054 970.989 L 306.69 971.024 C 306.637 961.326 306.366 951.508 306.496 941.841 z" fill="rgb(245,237,230)" transform="translate(0,0)"></path>
<path d="M 338.797 941.855 L 361.887 941.856 L 361.9 970.935 L 338.837 970.968 L 338.797 941.855 z" fill="rgb(245,237,230)" transform="translate(0,0)"></path>
<path d="M 338.94 990.848 L 361.927 990.896 L 361.932 1020.02 L 338.964 1020.03 L 338.94 990.848 z" fill="rgb(245,237,230)" transform="translate(0,0)"></path>
<path d="M 339.031 893.412 C 346.686 893.498 354.341 893.534 361.997 893.52 C 361.965 903.23 362.102 913.122 361.943 922.806 L 338.961 922.842 C 338.952 913.587 338.65 902.55 339.031 893.412 z" fill="rgb(245,237,230)" transform="translate(0,0)"></path>
<path d="M 801.04 1537.46 C 807.229 1534.62 816.168 1533.46 822.913 1534.3 C 868.59 1539.97 878.631 1594.12 864.727 1630.55 C 860.684 1641.14 856.322 1648.39 849.974 1657.71 C 832.451 1678.04 811.665 1695.36 783.42 1698.89 C 781.084 1699.18 781.745 1699.08 779.589 1697.98 C 782.995 1693.2 786.104 1682.46 787.63 1676.67 C 802.916 1670.76 808.079 1667.92 820.697 1657.85 C 841.293 1638.3 853.203 1610.94 848.417 1582.13 C 846.935 1573.21 843.256 1565.36 835.625 1560.05 C 823.844 1551.84 813.973 1554.3 800.838 1556.74 C 801.058 1550.31 801.125 1543.88 801.04 1537.46 z" fill="rgb(255,90,31)" transform="translate(0,0)"></path>
<path d="M 290.705 1477.36 C 308.257 1493.47 319.078 1514.13 328.424 1535.65 C 338.865 1564.96 339.993 1579.49 347.117 1606.67 C 348.133 1612.05 339.699 1643.99 338.575 1655.62 C 334.699 1654.87 329.193 1655.17 325.102 1655.24 C 325.222 1651.07 317.691 1620.2 316.321 1612.58 C 313.539 1597.11 311.092 1581.43 308.685 1565.82 C 305.152 1534.17 298.258 1508.04 290.705 1477.36 z" fill="rgb(255,90,31)" transform="translate(0,0)"></path>
<path d="M 1090.06 1298.24 L 1133.58 1298.33 L 1133.76 1373.63 L 1089.94 1373.66 L 1090.06 1298.24 z" fill="rgb(245,237,230)" transform="translate(0,0)"></path>
<path d="M 1040.03 1298.21 L 1082.81 1298.32 L 1082.63 1373.82 L 1039.89 1373.82 L 1040.03 1298.21 z" fill="rgb(245,237,230)" transform="translate(0,0)"></path>
<path d="M 989.767 1298.22 L 1032.06 1298.29 L 1032.04 1373.75 L 989.849 1373.78 L 989.767 1298.22 z" fill="rgb(245,237,230)" transform="translate(0,0)"></path>
<path d="M 940.096 1298.17 L 981.916 1298.21 L 981.792 1373.52 L 940.055 1373.58 L 940.096 1298.17 z" fill="rgb(245,237,230)" transform="translate(0,0)"></path>
<path d="M 434.667 1505.68 C 419.454 1526.13 405.897 1545.34 393.637 1567.85 C 378.354 1595.92 369.127 1625.45 359.051 1655.57 L 361.998 1656.95 L 363.694 1656.07 L 370.44 1656.07 L 370.487 1657.09 C 365.576 1657.95 338.413 1658.72 335.656 1656.14 L 335.976 1657.27 L 334.374 1656.69 L 338.575 1655.62 C 339.699 1643.99 348.133 1612.05 347.117 1606.67 L 348.941 1606.23 C 350.985 1603.74 368.944 1568.56 371.122 1563.84 L 373.615 1565.22 C 392.328 1539.15 408.624 1523.57 434.667 1505.68 z" fill="rgb(255,90,31)" transform="translate(0,0)"></path>
<path d="M 371.122 1563.84 L 373.615 1565.22 C 352.86 1597.24 345.912 1618.36 340.682 1655.41 C 345.952 1655.54 354.013 1655.97 359.051 1655.57 L 361.998 1656.95 L 363.694 1656.07 L 370.44 1656.07 L 370.487 1657.09 C 365.576 1657.95 338.413 1658.72 335.656 1656.14 L 335.976 1657.27 L 334.374 1656.69 L 338.575 1655.62 C 339.699 1643.99 348.133 1612.05 347.117 1606.67 L 348.941 1606.23 C 350.985 1603.74 368.944 1568.56 371.122 1563.84 z" fill="rgb(43,16,22)" transform="translate(0,0)"></path>
<path d="M 239.57 1505.68 C 262.863 1516.57 293.734 1547.24 306.713 1568.88 C 312.967 1600.49 315.837 1622.63 323.597 1655.12 C 320.985 1655.19 317.135 1655.15 314.691 1655.7 C 303.342 1634.94 291.273 1602.36 281.179 1580.06 C 267.883 1550.69 257.285 1532.48 239.57 1505.68 z" fill="rgb(255,90,31)" transform="translate(0,0)"></path>
<path d="M 1090.08 1120.1 L 1133.3 1120.19 L 1133.59 1186.9 L 1090.03 1186.73 L 1090.08 1120.1 z" fill="rgb(245,237,230)" transform="translate(0,0)"></path>
<path d="M 1040.06 1120.26 L 1082.38 1120.26 L 1082.64 1186.97 L 1039.98 1187.05 L 1040.06 1120.26 z" fill="rgb(245,237,230)" transform="translate(0,0)"></path>
<path d="M 989.775 1120.23 L 1031.86 1120.3 L 1031.9 1186.92 L 989.836 1186.98 L 989.775 1120.23 z" fill="rgb(245,237,230)" transform="translate(0,0)"></path>
<path d="M 939.986 1120.01 L 981.957 1120.2 L 981.934 1186.81 L 940.058 1186.82 L 939.986 1120.01 z" fill="rgb(245,237,230)" transform="translate(0,0)"></path>
<path d="M 1090.08 1211.95 L 1133.54 1211.99 L 1133.61 1274.9 C 1121.31 1275.58 1102.79 1275 1090.01 1275.01 L 1090.08 1211.95 z" fill="rgb(245,237,230)" transform="translate(0,0)"></path>
<path d="M 1090.05 1032.93 L 1133.53 1032.87 L 1133.63 1094.91 C 1120.84 1095.55 1103.24 1095.02 1090.09 1095.01 L 1090.05 1032.93 z" fill="rgb(245,237,230)" transform="translate(0,0)"></path>
<path d="M 1090.02 945.184 C 1104.36 945.039 1118.93 945.205 1133.28 945.246 C 1133.14 966.08 1133.38 987.093 1133.49 1007.94 L 1089.98 1007.96 L 1090.02 945.184 z" fill="rgb(245,237,230)" transform="translate(0,0)"></path>
<path d="M 1039.88 1211.91 L 1082.72 1211.89 L 1082.68 1274.88 C 1069.15 1275.3 1053.57 1274.95 1039.88 1274.98 L 1039.88 1211.91 z" fill="rgb(245,237,230)" transform="translate(0,0)"></path>
<path d="M 1040.03 945.323 C 1054.33 945.223 1068.63 945.243 1082.93 945.384 L 1083 1007.95 L 1039.9 1007.95 L 1040.03 945.323 z" fill="rgb(245,237,230)" transform="translate(0,0)"></path>
<path d="M 989.985 1212.09 L 1031.9 1212.09 L 1031.91 1274.94 L 989.948 1274.95 L 989.985 1212.09 z" fill="rgb(245,237,230)" transform="translate(0,0)"></path>
<path d="M 989.87 945.68 L 1032.05 945.623 L 1032.08 1007.88 L 989.899 1007.91 L 989.87 945.68 z" fill="rgb(245,237,230)" transform="translate(0,0)"></path>
<path d="M 1040.11 1032.93 L 1082.47 1032.93 L 1082.54 1094.8 C 1070.22 1095.42 1052.85 1094.88 1040.14 1094.87 L 1040.11 1032.93 z" fill="rgb(245,237,230)" transform="translate(0,0)"></path>
<path d="M 940.251 1212.04 L 981.853 1212.05 L 981.776 1274.91 L 940.053 1274.88 L 940.251 1212.04 z" fill="rgb(245,237,230)" transform="translate(0,0)"></path>
<path d="M 939.987 945.662 L 981.92 945.767 L 981.883 1007.84 L 940.118 1007.89 L 939.987 945.662 z" fill="rgb(245,237,230)" transform="translate(0,0)"></path>
<path d="M 940.034 1033.22 L 981.117 1033.19 L 981.223 1094.9 L 940.003 1094.87 L 940.034 1033.22 z" fill="rgb(245,237,230)" transform="translate(0,0)"></path>
<path d="M 345.222 1551.86 C 356.091 1516.92 360.368 1506.92 380.661 1476.72 C 377.839 1497.17 375.315 1517.66 373.092 1538.18 C 372.488 1544.1 370.902 1558.6 371.122 1563.84 C 368.944 1568.56 350.985 1603.74 348.941 1606.23 C 343.451 1587.97 340.565 1570.33 345.222 1551.86 z" fill="rgb(255,90,31)" transform="translate(0,0)"></path>
<path d="M 524.338 1541.73 C 527.523 1525.27 551.173 1515.4 566.207 1518.53 C 571.783 1519.69 584.128 1523.74 587.305 1528.4 L 586.433 1529.78 L 588.198 1530.64 L 587.143 1531.79 C 587.772 1536.03 585.734 1536.42 584.081 1539.89 C 577.475 1553.76 533.346 1563.72 525.518 1549.28 L 525.555 1548.38 L 525.504 1546.28 L 524.52 1546.03 L 524.338 1541.73 z" fill="rgb(255,90,31)" transform="translate(0,0)"></path>
<path d="M 524.338 1541.73 C 527.523 1525.27 551.173 1515.4 566.207 1518.53 C 571.783 1519.69 584.128 1523.74 587.305 1528.4 L 586.433 1529.78 C 562.517 1530.01 545.832 1533.03 525.504 1546.28 L 524.52 1546.03 L 524.338 1541.73 z" fill="rgb(255,90,31)" transform="translate(0,0)"></path>
<path d="M 525.504 1546.28 C 545.832 1533.03 562.517 1530.01 586.433 1529.78 L 588.198 1530.64 L 587.143 1531.79 C 565.213 1532.3 544.093 1535.64 525.555 1548.38 L 525.504 1546.28 z" fill="rgb(43,16,22)" transform="translate(0,0)"></path>
<path d="M 532.465 1460.11 C 532.599 1459.93 532.734 1459.75 532.869 1459.58 L 533.561 1458.71 C 535.18 1456.66 536.502 1454.94 538.534 1453.24 C 546.895 1446.34 557.693 1443.11 568.471 1444.29 C 576.874 1445.22 586.655 1449.34 591.988 1456.08 L 591.429 1458 C 579.081 1479.36 554.619 1487.08 532.984 1474.32 C 531.973 1473.72 530.987 1473.08 530.028 1472.4 L 527.799 1473.32 L 527.482 1471.83 L 527.775 1469.16 L 529.367 1468.48 C 530.073 1465.67 531.363 1462.81 532.465 1460.11 z" fill="rgb(255,90,31)" transform="translate(0,0)"></path>
<path d="M 532.465 1460.11 C 532.599 1459.93 532.734 1459.75 532.869 1459.58 L 533.561 1458.71 C 535.18 1456.66 536.502 1454.94 538.534 1453.24 C 546.895 1446.34 557.693 1443.11 568.471 1444.29 C 576.874 1445.22 586.655 1449.34 591.988 1456.08 L 591.429 1458 C 573.109 1457.92 544.743 1460.27 530.028 1472.4 L 527.799 1473.32 L 527.482 1471.83 L 527.775 1469.16 L 529.367 1468.48 C 530.073 1465.67 531.363 1462.81 532.465 1460.11 z" fill="rgb(255,90,31)" transform="translate(0,0)"></path>
<path d="M 529.367 1468.48 C 531.876 1468 541.775 1463.68 545.315 1462.51 C 562.622 1456.76 574.111 1455.61 591.988 1456.08 L 591.429 1458 C 573.109 1457.92 544.743 1460.27 530.028 1472.4 L 527.799 1473.32 L 527.482 1471.83 L 527.775 1469.16 L 529.367 1468.48 z" fill="rgb(43,16,22)" transform="translate(0,0)"></path>
<path d="M 562.651 1296.96 C 548.356 1276.33 576.178 1253.67 596.352 1253.3 L 597.775 1255.44 C 599.769 1258.87 598.869 1260.68 598.969 1264.5 C 599.413 1281.59 583.027 1301.85 564.418 1298.42 C 563.902 1297.96 563.236 1297.33 562.651 1296.96 z" fill="rgb(255,90,31)" transform="translate(0,0)"></path>
<path d="M 562.651 1296.96 C 548.356 1276.33 576.178 1253.67 596.352 1253.3 L 597.775 1255.44 C 584.516 1266.31 570.642 1282.39 564.418 1298.42 C 563.902 1297.96 563.236 1297.33 562.651 1296.96 z" fill="rgb(255,90,31)" transform="translate(0,0)"></path>
<path d="M 596.352 1253.3 L 597.775 1255.44 C 584.516 1266.31 570.642 1282.39 564.418 1298.42 C 563.902 1297.96 563.236 1297.33 562.651 1296.96 C 577.478 1268.97 576.654 1274.22 596.352 1253.3 z" fill="rgb(43,16,22)" transform="translate(0,0)"></path>
<path d="M 510.163 1296.96 C 503.113 1292.93 516.494 1293.31 518.431 1293.46 C 537.217 1294.97 545.899 1303.56 551.387 1320.91 C 550.841 1323.12 550.313 1325.33 549.804 1327.55 L 548.132 1327.14 L 547.022 1328.24 C 548.017 1332.2 537.129 1330.38 534.499 1329.98 C 519.967 1327.8 506.624 1312.66 504.978 1298.41 C 504.777 1296.67 507.624 1298.03 508.162 1298.32 L 511.824 1300.19 L 511.197 1297.48 L 510.163 1296.96 z" fill="rgb(255,90,31)" transform="translate(0,0)"></path>
<path d="M 510.163 1296.96 C 503.113 1292.93 516.494 1293.31 518.431 1293.46 C 537.217 1294.97 545.899 1303.56 551.387 1320.91 C 550.841 1323.12 550.313 1325.33 549.804 1327.55 L 548.132 1327.14 C 543.169 1319.64 534.859 1312.1 527.486 1307.02 C 526.591 1306.3 525.829 1305.71 524.893 1305.05 C 524.421 1304.79 523.948 1304.54 523.476 1304.28 L 521.601 1305.44 L 520.793 1305.34 C 518.551 1303.92 516.297 1302.6 514.057 1301.18 L 511.824 1300.19 L 511.197 1297.48 L 510.163 1296.96 z" fill="rgb(255,90,31)" transform="translate(0,0)"></path>
<path d="M 515.47 1299.52 C 517.16 1300.32 519.038 1300.97 520.251 1302.31 L 520.793 1305.34 C 518.551 1303.92 516.297 1302.6 514.057 1301.18 L 515.47 1299.52 z" fill="rgb(58,36,32)" transform="translate(0,0)"></path>
<path d="M 511.197 1297.48 L 515.47 1299.52 L 514.057 1301.18 L 511.824 1300.19 L 511.197 1297.48 z" fill="rgb(43,16,22)" transform="translate(0,0)"></path>
<path d="M 520.251 1302.31 L 523.476 1304.28 L 521.601 1305.44 L 520.793 1305.34 L 520.251 1302.31 z" fill="rgb(43,16,22)" transform="translate(0,0)"></path>
<path d="M 527.486 1307.02 C 534.859 1312.1 543.169 1319.64 548.132 1327.14 L 547.022 1328.24 C 544.661 1325.93 542.004 1322.7 539.656 1320.16 C 538.187 1317.9 536.398 1316.13 534.142 1314.64 C 532.728 1313.49 531.401 1312.42 529.939 1311.31 L 527.486 1307.02 z" fill="rgb(43,16,22)" transform="translate(0,0)"></path>
<path d="M 523.476 1304.28 C 523.948 1304.54 524.421 1304.79 524.893 1305.05 C 525.829 1305.71 526.591 1306.3 527.486 1307.02 L 529.939 1311.31 C 527.98 1309.84 525.954 1308.47 523.972 1307 L 521.601 1305.44 L 523.476 1304.28 z" fill="rgb(58,36,32)" transform="translate(0,0)"></path>
<path d="M 534.142 1314.64 C 536.398 1316.13 538.187 1317.9 539.656 1320.16 C 537.442 1318.91 535.608 1316.69 534.142 1314.64 z" fill="rgb(129,47,32)" transform="translate(0,0)"></path>
<path d="M 363.694 1656.07 L 362.37 1654.44 C 363.358 1647.62 365.924 1642.24 367.62 1636.14 C 374.196 1612.49 383.506 1600.85 403.001 1586.42 C 410.833 1580.63 419.553 1575.16 428.357 1570.44 C 408.998 1593.06 390.065 1614.45 378.597 1642.08 C 376.841 1646.31 374.023 1653.88 370.44 1656.07 L 363.694 1656.07 z" fill="rgb(255,90,31)" transform="translate(0,0)"></path>
<path d="M 553.901 1321.02 C 556.604 1311.96 558.989 1302.13 563.91 1294.12 C 561.105 1304.35 556.156 1320.96 554.406 1330.84 L 552.159 1337.91 C 547.433 1354.22 544.728 1372.52 541.247 1389.22 L 539.171 1399.62 C 536.185 1418.35 532.585 1437.24 529.961 1455.96 C 529.381 1460.98 529.026 1464.29 527.775 1469.16 L 527.482 1471.83 L 527.799 1473.32 C 524.429 1485.78 523.043 1522.91 522.485 1536.9 L 521.866 1548.84 C 521.503 1556.55 522.223 1588.31 520.627 1592.62 L 518.656 1593.41 L 516.958 1592.07 C 513.534 1569.18 520.438 1490.5 525.145 1466.95 C 524.876 1463.89 527.023 1449.98 527.555 1446.36 C 533.229 1407.32 541.246 1368.65 551.563 1330.57 L 553.901 1321.02 z" fill="rgb(255,90,31)" transform="translate(0,0)"></path>
<path d="M 477.164 1919.92 C 516.278 1910.94 560.362 1894.03 598.818 1885.4 C 597.671 1888.5 596.056 1893.99 592.776 1894.82 C 578.178 1898.53 486.594 1929.62 479.231 1926.78 C 477.236 1924.39 476.654 1923.36 477.164 1919.92 z" fill="rgb(245,237,230)" transform="translate(0,0)"></path>
<path d="M 514.755 1524.78 C 507.097 1530.75 492.045 1524.89 484.702 1523.23 C 474.233 1520.87 451.718 1490.88 461.329 1489.09 C 480.07 1499.1 499.674 1504.37 514.755 1524.78 z" fill="rgb(255,90,31)" transform="translate(0,0)"></path>
<path d="M 585.112 1133.07 C 594.466 1133.08 602.32 1133.28 611.66 1133.85 L 611.703 1166.82 L 585.497 1166.78 C 585.001 1155.72 585.082 1144.17 585.112 1133.07 z" fill="rgb(245,237,230)" transform="translate(0,0)"></path>
<path d="M 585.19 1197.77 C 593.889 1197.4 602.6 1197.43 611.297 1197.85 L 611.362 1231.21 L 585.225 1231.34 L 585.19 1197.77 z" fill="rgb(245,237,230)" transform="translate(0,0)"></path>
<path d="M 510.724 1197.86 C 519.439 1197.53 528.162 1197.44 536.882 1197.62 L 536.895 1231.29 C 528.21 1231.37 519.308 1231.21 510.602 1231.17 L 510.724 1197.86 z" fill="rgb(245,237,230)" transform="translate(0,0)"></path>
<path d="M 510.743 1133.16 C 519.47 1133.06 528.199 1133.05 536.927 1133.12 L 536.883 1166.59 L 510.664 1166.56 C 510.611 1155.43 510.638 1144.29 510.743 1133.16 z" fill="rgb(245,237,230)" transform="translate(0,0)"></path>
<path d="M 549.026 1197.89 C 557.67 1197.77 566.314 1197.75 574.958 1197.81 L 574.975 1231.7 C 566.343 1231.76 557.71 1231.72 549.079 1231.57 C 548.987 1220.34 548.969 1209.11 549.026 1197.89 z" fill="rgb(245,237,230)" transform="translate(0,0)"></path>
<path d="M 549.104 1132.97 L 574.751 1133.01 L 574.739 1166.74 L 549.129 1166.78 L 549.104 1132.97 z" fill="rgb(245,237,230)" transform="translate(0,0)"></path>
<path d="M 510.758 1069.7 C 519.492 1069.63 528.227 1069.65 536.96 1069.76 L 536.934 1102.91 L 510.759 1102.9 L 510.758 1069.7 z" fill="rgb(245,237,230)" transform="translate(0,0)"></path>
<path d="M 548.988 1069.91 C 557.619 1069.85 566.249 1069.87 574.879 1069.96 L 574.917 1102.92 L 549.006 1102.94 L 548.988 1069.91 z" fill="rgb(245,237,230)" transform="translate(0,0)"></path>
<path d="M 585.572 1069.89 C 594.11 1069.85 602.649 1069.89 611.186 1069.99 L 611.143 1102.87 L 585.603 1102.93 C 585.506 1091.92 585.495 1080.9 585.572 1069.89 z" fill="rgb(245,237,230)" transform="translate(0,0)"></path>
<path d="M 1129.13 846.371 C 1137.31 846.309 1145.5 846.305 1153.68 846.357 L 1153.7 877.805 L 1129.14 877.804 C 1129.08 867.884 1128.79 856.162 1129.13 846.371 z" fill="rgb(245,237,230)" transform="translate(0,0)"></path>
<path d="M 1129.38 800.981 L 1153.64 800.975 C 1153.69 811.218 1153.79 822.071 1153.51 832.275 C 1145.49 832.417 1137.47 832.47 1129.44 832.434 L 1129.38 800.981 z" fill="rgb(245,237,230)" transform="translate(0,0)"></path>
<path d="M 461.865 1487.77 C 461.823 1487.57 461.389 1485.93 461.815 1485.74 C 484.062 1476.06 511.78 1489.34 516.961 1513.51 C 517.554 1516.27 516.687 1520.48 516.146 1522.31 C 494.045 1503.26 492.199 1498.25 461.865 1487.77 z" fill="rgb(255,90,31)" transform="translate(0,0)"></path>
<path d="M 473.295 1432.69 C 470.896 1423.3 475.71 1427.41 482.815 1430.34 C 498.343 1436.76 509.843 1445.62 521.197 1457.76 C 521.557 1458.85 521.17 1459.69 520.054 1460.04 C 498.793 1466.74 481.4 1449.66 473.295 1432.69 z" fill="rgb(255,90,31)" transform="translate(0,0)"></path>
<path d="M 1093.05 800.942 C 1101.05 800.888 1109.05 800.885 1117.04 800.933 L 1117.01 832.41 C 1109.03 832.496 1101.05 832.516 1093.07 832.472 L 1093.05 800.942 z" fill="rgb(245,237,230)" transform="translate(0,0)"></path>
<path d="M 807.036 956.616 C 815.24 956.539 823.445 956.588 831.647 956.761 C 831.767 966.521 831.792 976.283 831.723 986.044 C 823.876 986.374 814.966 986.212 807.063 986.227 L 807.036 956.616 z" fill="rgb(255,140,66)" transform="translate(0,0)"></path>
<path d="M 1093.12 846.941 L 1117.05 846.906 L 1117.03 877.141 L 1093.22 877.125 L 1093.12 846.941 z" fill="rgb(245,237,230)" transform="translate(0,0)"></path>
<path d="M 736.779 1122.68 C 744.846 1122.59 752.914 1122.57 760.981 1122.6 L 760.936 1152.65 C 752.885 1152.72 744.833 1152.72 736.782 1152.67 L 736.779 1122.68 z" fill="rgb(255,140,66)" transform="translate(0,0)"></path>
<path d="M 736.441 956.928 L 760.794 956.955 L 760.721 986.736 L 736.507 986.704 C 736.424 976.779 736.402 966.853 736.441 956.928 z" fill="rgb(255,140,66)" transform="translate(0,0)"></path>
<path d="M 736.653 1011.05 L 760.825 1011.08 L 760.793 1040.86 C 752.775 1040.94 744.757 1040.96 736.739 1040.92 L 736.653 1011.05 z" fill="rgb(255,140,66)" transform="translate(0,0)"></path>
<path d="M 806.918 1122.77 C 814.994 1122.67 823.071 1122.62 831.148 1122.61 L 831.035 1152.67 C 823.004 1152.8 814.972 1152.85 806.94 1152.82 L 806.918 1122.77 z" fill="rgb(255,140,66)" transform="translate(0,0)"></path>
<path d="M 806.736 1066.95 L 831.305 1066.98 L 831.271 1095.88 L 806.82 1095.93 C 806.74 1086.27 806.712 1076.61 806.736 1066.95 z" fill="rgb(255,140,66)" transform="translate(0,0)"></path>
<path d="M 771.962 1122.89 C 779.915 1122.83 787.867 1122.82 795.82 1122.85 C 795.82 1132.75 795.77 1142.66 795.671 1152.56 L 771.984 1152.57 L 771.962 1122.89 z" fill="rgb(255,140,66)" transform="translate(0,0)"></path>
<path d="M 694.98 1410.26 C 704.989 1355.04 652.998 1327.88 685.612 1275.24 C 689.932 1268.27 699.37 1255.65 706.121 1251.43 L 707.351 1251.79 C 705.861 1255.63 701.945 1258.31 699.123 1261.69 C 691.151 1271.26 683.496 1283.02 680.244 1295.09 C 668.002 1340.51 710.471 1363 698.122 1410.76 C 694.893 1420.25 680.635 1447.51 671.443 1450.32 C 670.846 1447.71 680.441 1436.3 682.846 1432.92 C 688.372 1425.15 691.54 1419.23 694.98 1410.26 z" fill="rgb(245,237,230)" transform="translate(0,0)"></path>
<path d="M 772.13 957.008 L 795.934 957.014 L 795.921 986.276 L 772.099 986.318 C 772.056 976.548 772.066 966.778 772.13 957.008 z" fill="rgb(255,140,66)" transform="translate(0,0)"></path>
<path d="M 807.004 1011.51 C 811.983 1011.39 829.764 1009.54 831.266 1013.72 C 831.059 1022.68 831.177 1031.73 831.134 1040.71 L 807.066 1040.76 L 807.004 1011.51 z" fill="rgb(255,140,66)" transform="translate(0,0)"></path>
<path d="M 701.231 1122.39 L 724.084 1122.59 C 724.102 1132.16 724.319 1143.24 723.947 1152.68 C 716.381 1152.72 708.814 1152.68 701.248 1152.58 C 701.122 1143.18 700.954 1131.73 701.231 1122.39 z" fill="rgb(255,140,66)" transform="translate(0,0)"></path>
<path d="M 736.732 1067.2 C 744.75 1067.17 752.768 1067.18 760.786 1067.25 C 760.827 1076.81 760.811 1086.38 760.736 1095.95 C 753.032 1096.2 744.569 1096.07 736.815 1096.04 L 736.732 1067.2 z" fill="rgb(255,140,66)" transform="translate(0,0)"></path>
<path d="M 772.022 1011.78 L 795.574 1011.7 C 795.711 1021.38 795.696 1031.07 795.528 1040.75 C 788.176 1041.09 779.495 1040.89 772.033 1040.9 L 772.022 1011.78 z" fill="rgb(255,140,66)" transform="translate(0,0)"></path>
<path d="M 772.176 1067.12 L 795.912 1067.11 L 795.863 1095.99 L 772.236 1095.98 C 772.139 1086.36 772.119 1076.74 772.176 1067.12 z" fill="rgb(255,140,66)" transform="translate(0,0)"></path>
<path d="M 700.963 1066.99 L 724.173 1066.98 L 724.099 1095.95 L 701.001 1095.96 L 700.963 1066.99 z" fill="rgb(255,140,66)" transform="translate(0,0)"></path>
<path d="M 701.177 1011.2 C 708.802 1011.14 716.428 1011.13 724.054 1011.18 C 724.072 1020.84 724.228 1031.17 723.965 1040.77 L 701.209 1040.77 C 701.132 1031.02 701.078 1020.96 701.177 1011.2 z" fill="rgb(255,140,66)" transform="translate(0,0)"></path>
<path d="M 701.092 956.91 C 708.718 956.798 716.345 956.774 723.971 956.839 L 723.967 986.397 C 716.348 986.419 708.728 986.383 701.11 986.289 L 701.092 956.91 z" fill="rgb(255,140,66)" transform="translate(0,0)"></path>
<path d="M 532.438 1391.4 C 533.539 1395.37 530.614 1394.99 527.384 1395.29 C 508.964 1396.98 491.635 1380.33 488.24 1362.97 C 487.842 1360.93 490.482 1361.67 491.441 1361.89 C 495.979 1364.75 503.739 1367.92 509.054 1370.98 C 520.376 1377.49 524.038 1383.43 532.438 1391.4 z" fill="rgb(255,90,31)" transform="translate(0,0)"></path>
<path d="M 544.433 1400.67 C 559.513 1392.72 580.805 1390.67 597.582 1392.43 C 591.334 1406.46 563.29 1414.69 550.504 1406.49 C 548.788 1405.38 541.425 1403.07 544.433 1400.67 z" fill="rgb(255,90,31)" transform="translate(0,0)"></path>
<path d="M 730.128 1418.07 C 738.21 1383.55 693.538 1348.99 717.054 1311.77 C 721.361 1304.95 732.909 1287.34 740.488 1285.11 L 741.805 1286.05 C 740.508 1289.48 734.893 1293.37 732.012 1296.54 C 690.228 1342.55 732.681 1367.43 734.254 1411.08 C 732.738 1426.34 721.495 1452.62 707.266 1460.66 L 706.401 1460.3 C 706.671 1454.94 726.857 1440.74 730.128 1418.07 z" fill="rgb(245,237,230)" transform="translate(0,0)"></path>
<path d="M 430.386 802.73 L 453.092 802.755 C 453.083 808.65 453.476 824.512 452.75 829.475 C 445.324 829.554 437.897 829.576 430.47 829.542 C 430.378 820.605 430.35 811.667 430.386 802.73 z" fill="rgb(245,237,230)" transform="translate(0,0)"></path>
<path d="M 430.49 988.469 C 438.033 988.352 445.577 988.35 453.12 988.464 L 453.061 1015.01 L 430.46 1015.01 L 430.49 988.469 z" fill="rgb(245,237,230)" transform="translate(0,0)"></path>
<path d="M 462.24 941.799 C 469.711 941.775 477.182 941.791 484.653 941.848 L 484.7 968.226 L 462.286 968.193 L 462.24 941.799 z" fill="rgb(245,237,230)" transform="translate(0,0)"></path>
<path d="M 462.551 756.186 C 469.924 756.09 477.297 756.126 484.668 756.294 C 484.685 763.256 485.048 776.315 484.546 782.763 C 477.172 782.715 469.797 782.722 462.423 782.785 C 462.413 774.088 462.402 764.867 462.551 756.186 z" fill="rgb(245,237,230)" transform="translate(0,0)"></path>
<path d="M 430.629 756.218 C 438.048 756.172 445.468 756.202 452.886 756.309 L 452.908 782.942 L 430.638 782.95 L 430.629 756.218 z" fill="rgb(245,237,230)" transform="translate(0,0)"></path>
<path d="M 495.191 756.34 C 502.585 756.19 509.982 756.273 517.37 756.588 C 517.354 765.398 517.382 774.281 517.254 783.086 L 495.23 783.096 C 495.172 774.47 494.935 764.864 495.191 756.34 z" fill="rgb(245,237,230)" transform="translate(0,0)"></path>
<path d="M 462.388 802.865 C 469.778 802.792 477.169 802.785 484.559 802.844 L 484.595 829.422 L 462.487 829.491 L 462.388 802.865 z" fill="rgb(245,237,230)" transform="translate(0,0)"></path>
<path d="M 560.036 1339 C 574.064 1334.69 591.368 1330.3 606.037 1333.29 C 598.343 1357.87 543.042 1349.86 560.036 1339 z" fill="rgb(255,90,31)" transform="translate(0,0)"></path>
<path d="M 495.301 988.195 L 517.438 988.306 C 517.345 997.224 517.302 1006.14 517.308 1015.06 L 495.401 1015.1 L 495.301 988.195 z" fill="rgb(245,237,230)" transform="translate(0,0)"></path>
<path d="M 462.136 895.674 C 469.725 895.598 477.314 895.608 484.902 895.705 L 484.898 921.351 L 462.199 921.353 L 462.136 895.674 z" fill="rgb(245,237,230)" transform="translate(0,0)"></path>
<path d="M 495.296 941.81 L 517.713 941.815 L 517.622 968.041 L 495.293 968.037 C 495.251 959.354 495.204 950.478 495.296 941.81 z" fill="rgb(245,237,230)" transform="translate(0,0)"></path>
<path d="M 430.503 941.898 L 452.909 941.924 L 452.929 968.011 L 430.526 968.01 C 430.425 959.306 430.417 950.602 430.503 941.898 z" fill="rgb(245,237,230)" transform="translate(0,0)"></path>
<path d="M 462.443 988.198 C 469.704 988.16 476.965 988.182 484.226 988.264 C 484.232 997.438 484.276 1005.9 484.807 1015.07 L 462.428 1015.11 L 462.443 988.198 z" fill="rgb(245,237,230)" transform="translate(0,0)"></path>
<path d="M 462.299 849.343 C 469.778 849.275 477.257 849.312 484.735 849.455 L 484.8 875.294 L 462.354 875.384 C 462.291 866.703 462.273 858.023 462.299 849.343 z" fill="rgb(245,237,230)" transform="translate(0,0)"></path>
<path d="M 479.567 1422.19 C 493.761 1420.74 500.622 1421.48 512.772 1430.27 C 518.496 1434.41 529.672 1449.96 522.513 1455.61 C 511.98 1446.84 505.784 1438.41 492.313 1432.6 C 490.961 1432.01 473.412 1423.65 474.118 1424.38 C 474.467 1423 478.243 1422.57 479.567 1422.19 z" fill="rgb(255,90,31)" transform="translate(0,0)"></path>
<path d="M 495.622 802.954 C 502.949 802.902 510.275 802.893 517.601 802.928 L 517.583 829.204 C 510.544 829.456 502.787 829.328 495.713 829.304 C 495.632 820.521 495.601 811.737 495.622 802.954 z" fill="rgb(245,237,230)" transform="translate(0,0)"></path>
<path d="M 430.235 895.457 L 452.848 895.507 L 452.881 921.142 L 430.751 921.162 C 430.115 912.609 429.942 904.029 430.235 895.457 z" fill="rgb(245,237,230)" transform="translate(0,0)"></path>
<path d="M 430.928 849.229 L 452.941 849.415 L 452.948 875.416 C 445.599 875.465 438.251 875.447 430.903 875.363 C 430.831 866.833 430.732 857.744 430.928 849.229 z" fill="rgb(245,237,230)" transform="translate(0,0)"></path>
<path d="M 495.266 849.639 C 502.44 849.504 510.032 849.614 517.242 849.623 L 517.195 875.674 C 509.952 875.729 502.709 875.734 495.466 875.69 L 495.266 849.639 z" fill="rgb(245,237,230)" transform="translate(0,0)"></path>
<path d="M 495.559 895.619 L 517.241 895.636 C 517.23 901.222 517.554 916.788 516.804 921.523 L 495.585 921.495 C 495.53 912.87 495.521 904.244 495.559 895.619 z" fill="rgb(245,237,230)" transform="translate(0,0)"></path>
<path d="M 8.64855 998.697 C 16.0727 998.576 23.4983 998.579 30.9223 998.705 L 30.8943 1022.79 C 23.4967 1022.85 16.0987 1022.87 8.70085 1022.85 C 8.64001 1014.8 8.62257 1006.75 8.64855 998.697 z" fill="rgb(245,237,230)" transform="translate(0,0)"></path>
<path d="M 49.3526 782.196 C 56.5974 782.145 63.8425 782.164 71.0868 782.253 C 71.0657 788.338 71.4198 800.998 70.7749 806.511 C 63.6592 806.602 56.5428 806.608 49.427 806.528 C 49.2753 798.418 49.2505 790.307 49.3526 782.196 z" fill="rgb(245,237,230)" transform="translate(0,0)"></path>
<path d="M 9.07758 523.278 C 16.301 523.228 23.5248 523.241 30.748 523.319 C 30.726 531.346 30.8199 539.589 30.629 547.583 C 23.4218 547.654 16.214 547.649 9.00689 547.569 C 9.01564 539.68 8.83012 531.087 9.07758 523.278 z" fill="rgb(245,237,230)" transform="translate(0,0)"></path>
<path d="M 542.514 1393.39 C 554.06 1378.93 569.093 1375.04 586.467 1382.14 C 590.11 1383.63 596.238 1386.32 597.756 1390.07 C 582.982 1389.33 556.936 1389.91 544.61 1398.84 L 541.377 1398.71 C 541.899 1396.89 542.473 1395.26 542.514 1393.39 z" fill="rgb(255,90,31)" transform="translate(0,0)"></path>
<path d="M 8.96713 912 L 30.976 912.015 L 30.9989 936.058 C 23.6543 936.155 16.3089 936.181 8.96379 936.136 L 8.96713 912 z" fill="rgb(245,237,230)" transform="translate(0,0)"></path>
<path d="M 49.5223 911.997 L 71.2453 912.04 L 71.1807 936.337 L 49.5657 936.441 C 49.4945 928.293 49.48 920.145 49.5223 911.997 z" fill="rgb(245,237,230)" transform="translate(0,0)"></path>
<path d="M 9.13804 566.106 L 30.9323 566.152 L 30.8903 590.032 L 9.09521 590.031 L 9.13804 566.106 z" fill="rgb(245,237,230)" transform="translate(0,0)"></path>
<path d="M 132.05 911.961 L 154.015 912.007 C 154.042 920.008 154.021 928.009 153.951 936.01 L 132.115 936.063 L 132.05 911.961 z" fill="rgb(245,237,230)" transform="translate(0,0)"></path>
<path d="M 8.94127 782.156 C 16.1101 782.105 23.2792 782.099 30.448 782.139 C 30.5731 790.242 30.6119 798.346 30.5645 806.449 L 8.87831 806.495 C 8.89177 798.498 8.75782 790.106 8.94127 782.156 z" fill="rgb(245,237,230)" transform="translate(0,0)"></path>
<path d="M 10.0537 609.484 C 17.0175 609.431 23.9818 609.488 30.9439 609.655 C 30.9524 617.029 31.2058 626.236 30.8179 633.457 L 8.93074 633.409 C 8.915 628.753 8.05063 612.289 10.0537 609.484 z" fill="rgb(245,237,230)" transform="translate(0,0)"></path>
<path d="M 8.7935 955.695 L 31.0553 955.727 L 31.0699 978.938 L 8.79468 978.949 L 8.7935 955.695 z" fill="rgb(245,237,230)" transform="translate(0,0)"></path>
<path d="M 8.86473 739.749 C 16.2607 739.664 23.6575 739.665 31.0535 739.753 L 31.054 763.115 L 8.89703 763.161 L 8.86473 739.749 z" fill="rgb(245,237,230)" transform="translate(0,0)"></path>
<path d="M 132.23 566.265 C 139.503 566.206 146.777 566.227 154.049 566.328 L 154.086 590.096 L 132.227 590.117 C 132.17 582.166 132.171 574.215 132.23 566.265 z" fill="rgb(245,237,230)" transform="translate(0,0)"></path>
<path d="M 132.099 955.091 C 139.38 955.033 146.661 955.03 153.941 955.082 C 153.997 962.919 154.116 971.04 153.978 978.858 L 132.084 978.913 L 132.099 955.091 z" fill="rgb(245,237,230)" transform="translate(0,0)"></path>
<path d="M 133.572 782.474 C 140.402 782.424 147.232 782.422 154.061 782.468 C 154.059 787.199 155.563 804.957 152.137 806.488 L 132.444 806.465 C 132.475 801.765 131.85 785.105 133.572 782.474 z" fill="rgb(245,237,230)" transform="translate(0,0)"></path>
<path d="M 91.3739 911.981 L 112.428 911.987 C 112.318 920.123 112.46 928.589 112.243 936.648 C 105.347 936.699 98.4504 936.686 91.5546 936.606 L 91.3739 911.981 z" fill="rgb(245,237,230)" transform="translate(0,0)"></path>
<path d="M 9.04895 869.06 C 16.3272 869.044 23.6054 869.069 30.8833 869.135 C 30.8956 876.948 31.0003 884.975 30.8496 892.769 L 9.04281 892.817 L 9.04895 869.06 z" fill="rgb(245,237,230)" transform="translate(0,0)"></path>
<path d="M 49.1588 998.759 C 56.3857 998.555 63.9357 998.744 71.1705 998.949 L 71.1662 1022.18 C 63.8511 1022.25 56.5357 1022.27 49.2203 1022.24 L 49.1588 998.759 z" fill="rgb(245,237,230)" transform="translate(0,0)"></path>
<path d="M 8.91099 696.654 L 30.9565 696.698 L 30.9319 719.957 C 23.6191 720.042 16.2436 719.99 8.9246 719.989 L 8.91099 696.654 z" fill="rgb(245,237,230)" transform="translate(0,0)"></path>
<path d="M 91.3176 609.201 C 98.487 609.14 105.657 609.135 112.826 609.187 L 112.825 633.077 L 91.4194 633.067 C 91.2724 625.113 91.2385 617.157 91.3176 609.201 z" fill="rgb(245,237,230)" transform="translate(0,0)"></path>
<path d="M 8.85948 653.733 C 16.2228 653.686 23.5863 653.698 30.9494 653.769 L 30.9797 677.063 C 23.6087 677.124 16.2373 677.13 8.8662 677.082 L 8.85948 653.733 z" fill="rgb(245,237,230)" transform="translate(0,0)"></path>
<path d="M 49.5038 566.369 C 56.8197 566.297 64.1361 566.293 71.452 566.357 C 71.3426 574.246 71.2978 582.136 71.3177 590.026 L 49.5414 590.063 L 49.5038 566.369 z" fill="rgb(245,237,230)" transform="translate(0,0)"></path>
<path d="M 8.81252 825.988 C 16.2113 825.941 23.6102 825.946 31.0089 826.001 L 31.0168 849.171 C 23.613 849.266 16.2084 849.277 8.80438 849.206 L 8.81252 825.988 z" fill="rgb(245,237,230)" transform="translate(0,0)"></path>
<path d="M 132.317 523.174 C 139.51 523.134 146.702 523.142 153.894 523.198 L 153.899 547.023 L 132.921 546.997 C 132.241 538.939 132.281 531.244 132.317 523.174 z" fill="rgb(245,237,230)" transform="translate(0,0)"></path>
<path d="M 49.5876 739.702 C 56.8388 739.632 64.0906 739.639 71.3417 739.722 C 71.2751 747.512 71.2492 755.301 71.2638 763.091 L 49.686 763.092 L 49.5876 739.702 z" fill="rgb(245,237,230)" transform="translate(0,0)"></path>
<path d="M 93.4771 739.486 C 99.8454 739.432 106.214 739.448 112.582 739.537 C 112.598 743.909 113.244 761.516 111.721 763.914 L 91.7793 763.911 C 91.7599 759.525 90.5324 740.941 93.4771 739.486 z" fill="rgb(245,237,230)" transform="translate(0,0)"></path>
<path d="M 555.872 1331.9 C 557.254 1330.4 558.477 1328.82 559.97 1327.41 C 572.815 1315.26 592.864 1316.9 605.518 1328.45 C 605.804 1328.71 605.464 1329.57 605.415 1329.74 C 594.719 1331.65 571.406 1329.54 559.686 1337.54 C 557.976 1338.15 556.27 1338.77 554.57 1339.41 C 554.961 1336.77 555.329 1334.51 555.872 1331.9 z" fill="rgb(255,90,31)" transform="translate(0,0)"></path>
<path d="M 132.179 826.005 L 153.978 826.049 L 153.976 849.331 C 146.732 849.395 139.487 849.409 132.242 849.374 C 132.157 841.585 132.136 833.795 132.179 826.005 z" fill="rgb(245,237,230)" transform="translate(0,0)"></path>
<path d="M 91.4203 523.15 C 98.5443 523.104 105.669 523.106 112.793 523.156 L 112.754 547.299 C 105.713 547.319 98.6724 547.299 91.632 547.238 L 91.4203 523.15 z" fill="rgb(245,237,230)" transform="translate(0,0)"></path>
<path d="M 49.7909 825.934 L 71.1815 825.965 L 71.1597 849.32 C 64.0476 849.378 56.9351 849.389 49.8228 849.352 L 49.7909 825.934 z" fill="rgb(245,237,230)" transform="translate(0,0)"></path>
<path d="M 49.7291 955.34 C 56.8465 955.296 63.9641 955.318 71.0811 955.403 C 71.0571 963.113 71.1752 971.117 70.9784 978.78 L 49.592 978.874 C 49.6327 971.212 49.4948 962.938 49.7291 955.34 z" fill="rgb(245,237,230)" transform="translate(0,0)"></path>
<path d="M 91.3293 869.065 C 98.4898 869.035 105.65 869.044 112.811 869.093 L 112.833 892.816 C 105.721 892.811 98.6102 892.752 91.4998 892.637 C 91.371 884.78 91.3142 876.923 91.3293 869.065 z" fill="rgb(245,237,230)" transform="translate(0,0)"></path>
<path d="M 50.0335 523.3 L 70.9948 523.304 L 71.07 547.098 L 49.9582 547.13 C 49.9279 539.44 49.7386 530.918 50.0335 523.3 z" fill="rgb(245,237,230)" transform="translate(0,0)"></path>
<path d="M 9.15192 1042.27 C 16.3829 1042.27 23.6138 1042.34 30.8434 1042.49 L 30.8587 1065.38 C 23.5991 1065.44 16.339 1065.42 9.07977 1065.32 C 9.06908 1057.75 8.9741 1049.82 9.15192 1042.27 z" fill="rgb(245,237,230)" transform="translate(0,0)"></path>
<path d="M 91.3079 998.943 L 112.643 998.949 L 112.542 1022.54 L 91.489 1022.49 C 91.3629 1014.64 91.3026 1006.79 91.3079 998.943 z" fill="rgb(245,237,230)" transform="translate(0,0)"></path>
<path d="M 49.9424 653.982 L 71.355 654.01 L 71.3251 677.245 C 64.206 677.274 57.0868 677.261 49.9678 677.207 L 49.9424 653.982 z" fill="rgb(245,237,230)" transform="translate(0,0)"></path>
<path d="M 132.055 998.938 C 139.316 998.886 146.578 998.883 153.839 998.93 L 153.823 1021.9 C 146.708 1022.15 139.25 1022.05 132.1 1022.06 L 132.055 998.938 z" fill="rgb(245,237,230)" transform="translate(0,0)"></path>
<path d="M 132.295 653.911 L 153.864 653.97 L 153.867 677 L 132.331 677.02 C 132.252 669.317 132.24 661.614 132.295 653.911 z" fill="rgb(245,237,230)" transform="translate(0,0)"></path>
<path d="M 91.7953 955.333 L 112.488 955.299 L 112.62 978.893 C 106.015 979.195 98.3806 979.018 91.6953 979.021 C 91.6827 971.345 91.5164 962.934 91.7953 955.333 z" fill="rgb(245,237,230)" transform="translate(0,0)"></path>
<path d="M 49.5466 609.86 C 56.7064 609.846 63.8662 609.867 71.0257 609.925 L 71.0088 633.063 C 63.8914 633.126 56.7736 633.141 49.6559 633.108 C 49.5478 625.359 49.5113 617.61 49.5466 609.86 z" fill="rgb(245,237,230)" transform="translate(0,0)"></path>
<path d="M 49.8931 868.997 L 71.0372 869.032 L 71.004 892.352 C 63.9569 892.376 56.9098 892.362 49.8629 892.31 L 49.8931 868.997 z" fill="rgb(245,237,230)" transform="translate(0,0)"></path>
<path d="M 49.9372 1042.33 C 57.0466 1042.28 64.1563 1042.29 71.2654 1042.36 C 71.2121 1050.01 71.2017 1057.65 71.2343 1065.3 C 64.1183 1065.39 57.0015 1065.41 49.8851 1065.36 C 49.8636 1057.96 49.6569 1049.63 49.9372 1042.33 z" fill="rgb(245,237,230)" transform="translate(0,0)"></path>
<path d="M 91.7889 782.905 C 98.689 782.831 105.59 782.835 112.49 782.917 C 112.626 790.745 112.688 798.574 112.675 806.403 C 105.728 806.473 98.7803 806.484 91.8328 806.436 C 91.7427 798.593 91.7281 790.749 91.7889 782.905 z" fill="rgb(245,237,230)" transform="translate(0,0)"></path>
<path d="M 132.697 609.808 L 154.007 609.894 L 154.04 633.016 C 146.939 633.074 139.838 633.088 132.737 633.059 L 132.697 609.808 z" fill="rgb(245,237,230)" transform="translate(0,0)"></path>
<path d="M 91.7322 826.024 C 98.7976 825.976 105.863 825.969 112.929 826.003 L 112.938 849.402 C 105.855 849.446 98.7726 849.438 91.6904 849.38 L 91.7322 826.024 z" fill="rgb(245,237,230)" transform="translate(0,0)"></path>
<path d="M 492.149 1360.55 C 490.663 1357.09 493.828 1357.56 498.008 1357.11 C 507.442 1355.99 516.926 1358.75 524.281 1364.77 C 529.222 1368.88 539.292 1381.37 534.984 1390.11 C 534.741 1390.6 533.946 1390.21 533.524 1390.06 C 520.226 1374.49 511.593 1368.17 492.149 1360.55 z" fill="rgb(255,90,31)" transform="translate(0,0)"></path>
<path d="M 132.915 739.637 C 139.933 739.594 146.95 739.607 153.967 739.675 L 153.991 763.027 C 146.978 763.093 139.965 763.114 132.951 763.092 L 132.915 739.637 z" fill="rgb(245,237,230)" transform="translate(0,0)"></path>
<path d="M 132.393 869.313 C 139.587 869.288 146.782 869.307 153.977 869.372 L 154.012 892.46 C 146.777 892.479 139.541 892.455 132.306 892.39 L 132.393 869.313 z" fill="rgb(245,237,230)" transform="translate(0,0)"></path>
<path d="M 91.821 653.795 C 98.7512 653.737 105.682 653.717 112.612 653.735 L 112.654 677.213 C 105.874 677.429 98.6536 677.316 91.8492 677.282 L 91.821 653.795 z" fill="rgb(245,237,230)" transform="translate(0,0)"></path>
<path d="M 91.5433 566.347 C 98.463 566.286 105.383 566.296 112.303 566.376 L 112.301 590.098 L 91.5576 590.087 L 91.5433 566.347 z" fill="rgb(245,237,230)" transform="translate(0,0)"></path>
<path d="M 132.78 697.007 C 139.887 696.967 146.995 696.972 154.102 697.023 L 154.091 719.908 L 132.805 719.892 L 132.78 697.007 z" fill="rgb(245,237,230)" transform="translate(0,0)"></path>
<path d="M 91.8686 696.843 L 112.518 696.854 L 112.63 719.919 C 105.93 720.173 98.6207 720.005 91.8736 719.993 L 91.8686 696.843 z" fill="rgb(245,237,230)" transform="translate(0,0)"></path>
<path d="M 279.918 1595.89 C 292.319 1607.21 304.155 1637.84 311.925 1654.6 C 308.1 1652.23 292.603 1635.6 291.207 1631.43 C 287.614 1620.72 282.017 1606.85 279.918 1595.89 z" fill="rgb(255,90,31)" transform="translate(0,0)"></path>
<path d="M 330.854 1522.27 C 330.577 1519.91 329.282 1503.84 330.543 1502.67 L 330.722 1502.78 L 330.548 1502.96 C 332.104 1504.31 331.983 1505.77 332.54 1508.02 C 336.929 1521.65 338.906 1535.85 341.465 1549.71 C 342.074 1557.3 341.261 1558.53 340.131 1565.87 C 338.315 1560.05 331.532 1538.97 330.978 1534.11 C 330.926 1530.2 330.743 1526.14 330.854 1522.27 z" fill="rgb(255,90,31)" transform="translate(0,0)"></path>
<path d="M 330.854 1522.27 C 330.577 1519.91 329.282 1503.84 330.543 1502.67 L 330.722 1502.78 L 330.548 1502.96 C 332.104 1504.31 331.983 1505.77 332.54 1508.02 C 330.419 1511.96 331.276 1516.96 330.854 1522.27 z" fill="rgb(190,83,58)" transform="translate(0,0)"></path>
<path d="M 210.992 177.497 C 213.078 176.255 215.674 176.242 217.772 177.465 C 219.869 178.688 221.138 180.953 221.085 183.38 C 221.032 185.808 219.665 188.015 217.516 189.145 C 214.313 190.828 210.352 189.655 208.583 186.498 C 206.815 183.341 207.883 179.349 210.992 177.497 z" fill="rgb(245,237,230)" transform="translate(0,0)"></path>
<path d="M 424.164 440.463 C 426.218 439.256 428.765 439.26 430.816 440.473 C 432.866 441.686 434.095 443.918 434.025 446.299 C 433.955 448.681 432.597 450.836 430.479 451.927 C 427.328 453.549 423.458 452.369 421.748 449.265 C 420.038 446.161 421.109 442.26 424.164 440.463 z" fill="rgb(245,237,230)" transform="translate(0,0)"></path>
<path d="M 1080.44 305.441 C 1083.65 304.649 1086.94 306.423 1088.03 309.54 C 1089.13 312.656 1087.68 316.097 1084.69 317.491 C 1082.47 318.521 1079.87 318.206 1077.96 316.677 C 1076.06 315.149 1075.19 312.673 1075.71 310.289 C 1076.24 307.904 1078.07 306.025 1080.44 305.441 z" fill="rgb(245,237,230)" transform="translate(0,0)"></path>
<path d="M 877.572 600.585 C 880.818 599.398 884.417 601.024 885.673 604.243 C 886.929 607.463 885.382 611.096 882.19 612.421 C 880.063 613.305 877.625 612.968 875.817 611.541 C 874.009 610.115 873.115 607.822 873.479 605.548 C 873.843 603.274 875.409 601.375 877.572 600.585 z" fill="rgb(245,237,230)" transform="translate(0,0)"></path>
<path d="M 267.372 444.545 C 268.949 443.534 271.04 443.917 272.155 445.422 C 273.271 446.927 273.029 449.039 271.602 450.254 C 270.59 451.115 269.182 451.341 267.951 450.84 C 266.719 450.338 265.87 449.192 265.749 447.868 C 265.627 446.544 266.253 445.263 267.372 444.545 z" fill="rgb(245,237,230)" transform="translate(0,0)"></path>
<path d="M 853.073 375.486 C 854.039 374.613 855.408 374.342 856.634 374.781 C 857.86 375.22 858.745 376.298 858.938 377.586 C 859.131 378.874 858.6 380.163 857.556 380.942 C 856.043 382.071 853.91 381.811 852.711 380.352 C 851.513 378.894 851.672 376.751 853.073 375.486 z" fill="rgb(245,237,230)" transform="translate(0,0)"></path>
<path d="M 256.222 325.578 C 257.441 325.085 258.833 325.308 259.837 326.158 C 260.84 327.007 261.291 328.343 261.006 329.626 C 260.722 330.91 259.75 331.93 258.481 332.276 C 256.673 332.77 254.794 331.768 254.195 329.992 C 253.596 328.216 254.485 326.281 256.222 325.578 z" fill="rgb(245,237,230)" transform="translate(0,0)"></path>
<path d="M 899.903 750.464 C 901.606 749.639 903.656 750.324 904.52 752.008 C 905.385 753.691 904.747 755.756 903.084 756.66 C 901.973 757.263 900.623 757.217 899.556 756.54 C 898.489 755.863 897.872 754.662 897.944 753.4 C 898.016 752.139 898.766 751.015 899.903 750.464 z" fill="rgb(245,237,230)" transform="translate(0,0)"></path>
<path d="M 771.367 732.549 C 773.008 731.967 774.826 732.696 775.612 734.25 C 776.397 735.804 775.905 737.7 774.463 738.676 C 773.352 739.429 771.906 739.471 770.753 738.785 C 769.6 738.098 768.948 736.807 769.079 735.472 C 769.21 734.137 770.102 732.997 771.367 732.549 z" fill="rgb(245,237,230)" transform="translate(0,0)"></path>
<path d="M 604.892 189.403 C 606.092 189.103 607.361 189.47 608.215 190.365 C 609.068 191.26 609.376 192.545 609.019 193.729 C 608.663 194.914 607.697 195.816 606.491 196.091 C 604.654 196.51 602.821 195.371 602.383 193.538 C 601.944 191.705 603.063 189.861 604.892 189.403 z" fill="rgb(245,237,230)" transform="translate(0,0)"></path>
<path d="M 497.662 549.581 C 498.712 548.926 500.036 548.894 501.116 549.499 C 502.197 550.103 502.863 551.247 502.854 552.485 C 502.846 553.723 502.164 554.859 501.076 555.448 C 499.462 556.322 497.447 555.756 496.524 554.17 C 495.601 552.584 496.105 550.552 497.662 549.581 z" fill="rgb(245,237,230)" transform="translate(0,0)"></path>
<path d="M 258.049 668.527 C 259.657 667.882 261.492 668.557 262.298 670.091 C 263.104 671.625 262.62 673.52 261.176 674.479 C 260.101 675.192 258.714 675.231 257.601 674.58 C 256.487 673.929 255.842 672.7 255.937 671.414 C 256.032 670.127 256.851 669.007 258.049 668.527 z" fill="rgb(245,237,230)" transform="translate(0,0)"></path>
<path d="M 673.607 605.555 C 674.669 604.912 675.999 604.906 677.068 605.539 C 678.136 606.173 678.769 607.343 678.715 608.583 C 678.661 609.824 677.928 610.934 676.809 611.472 C 675.189 612.25 673.244 611.62 672.389 610.039 C 671.533 608.459 672.069 606.486 673.607 605.555 z" fill="rgb(245,237,230)" transform="translate(0,0)"></path>
<path d="M 1050.48 155.577 C 1051.43 154.734 1052.76 154.494 1053.94 154.956 C 1055.13 155.417 1055.95 156.502 1056.07 157.764 C 1056.19 159.025 1055.6 160.249 1054.53 160.931 C 1053.05 161.876 1051.09 161.525 1050.03 160.125 C 1048.97 158.724 1049.17 156.744 1050.48 155.577 z" fill="rgb(245,237,230)" transform="translate(0,0)"></path>
<path d="M 755.071 294.514 C 755.957 293.643 757.25 293.33 758.437 293.701 C 759.623 294.071 760.508 295.065 760.74 296.286 C 760.972 297.507 760.513 298.756 759.545 299.536 C 758.148 300.662 756.112 300.494 754.918 299.154 C 753.724 297.814 753.791 295.773 755.071 294.514 z" fill="rgb(245,237,230)" transform="translate(0,0)"></path>
<path d="M 298.754 550.489 C 299.836 549.772 301.235 549.751 302.338 550.434 C 303.441 551.117 304.046 552.379 303.886 553.667 C 303.727 554.954 302.833 556.031 301.597 556.425 C 300.017 556.927 298.308 556.189 297.592 554.694 C 296.876 553.198 297.372 551.404 298.754 550.489 z" fill="rgb(245,237,230)" transform="translate(0,0)"></path>
<path d="M 915.255 398.495 C 916.627 397.281 918.725 397.415 919.933 398.793 C 921.141 400.171 920.997 402.269 919.613 403.47 C 918.238 404.662 916.158 404.52 914.959 403.151 C 913.759 401.782 913.892 399.701 915.255 398.495 z" fill="rgb(245,237,230)" transform="translate(0,0)"></path>
<path d="M 656.789 818.544 C 658.527 818.153 660.262 819.208 660.713 820.931 C 661.165 822.654 660.17 824.424 658.463 824.935 C 657.306 825.281 656.052 824.968 655.193 824.119 C 654.334 823.27 654.007 822.02 654.339 820.859 C 654.672 819.697 655.611 818.81 656.789 818.544 z" fill="rgb(245,237,230)" transform="translate(0,0)"></path>
<path d="M 744.726 556.439 C 745.65 555.741 746.88 555.601 747.937 556.072 C 748.994 556.544 749.711 557.554 749.809 558.707 C 749.906 559.861 749.368 560.976 748.404 561.619 C 746.975 562.572 745.046 562.215 744.051 560.814 C 743.056 559.413 743.355 557.475 744.726 556.439 z" fill="rgb(245,237,230)" transform="translate(0,0)"></path>
<metadata><recraft-signature>{"signed_by": "recraft", "signature_b64": "e2uMSc3vghPA6PAZuNGRbR0YelljMEVmOmHR0WD4UDM6F3T8oI0AhlQCKzcRPhknGqOjHDOM5GLWHTAd98nKDA==", "signing_algo": "Ed25519", "generation_timestamp": 1783313399, "identifier": "72661703-e182-4959-8ba2-0bd03e9a9db9"}</recraft-signature></metadata></svg>