<svg xmlns="http://www.w3.org/2000/svg" height="1344" preserveAspectRatio="none" style="display: block;" version="1.1" viewBox="0 0 1170 2048" width="768">
<defs>
	<linearGradient gradientUnits="userSpaceOnUse" id="Gradient1" x1="1131.45" x2="954.117" y1="1262.53" y2="904.213">
		<stop class="stop0" offset="0" stop-color="rgb(146,38,33)" stop-opacity="1"></stop>
		<stop class="stop1" offset="1" stop-color="rgb(234,69,40)" stop-opacity="1"></stop>
	</linearGradient>
	<linearGradient gradientUnits="userSpaceOnUse" id="Gradient2" x1="976.754" x2="899.324" y1="799.189" y2="559.596">
		<stop class="stop0" offset="0" stop-color="rgb(253,92,41)" stop-opacity="1"></stop>
		<stop class="stop1" offset="1" stop-color="rgb(253,124,50)" stop-opacity="1"></stop>
	</linearGradient>
	<linearGradient gradientUnits="userSpaceOnUse" id="Gradient3" x1="663.163" x2="779.668" y1="1289.43" y2="994.188">
		<stop class="stop0" offset="0" stop-color="rgb(72,24,26)" stop-opacity="1"></stop>
		<stop class="stop1" offset="1" stop-color="rgb(128,36,33)" stop-opacity="1"></stop>
	</linearGradient>
	<linearGradient gradientUnits="userSpaceOnUse" id="Gradient4" x1="983.473" x2="760.077" y1="1238.59" y2="897.564">
		<stop class="stop0" offset="0" stop-color="rgb(169,40,33)" stop-opacity="1"></stop>
		<stop class="stop1" offset="1" stop-color="rgb(255,87,42)" stop-opacity="1"></stop>
	</linearGradient>
</defs>
<path d="M 0 0 L 708.063 0 L 1170 0 L 1170 317.624 L 1170 412.13 L 1170 680.099 L 1170 723.656 L 1170 807.082 L 1170 864.116 L 1170 956.433 L 1170 1030.47 L 1170 1374.58 L 1170 1533.63 L 1170 1562.45 L 1170 1690.09 L 1170 1761.21 L 1170 2048 L 337.264 2048 L 157.431 2048 L 0 2048 L 0 337.604 L 0 0 z" fill="rgb(58,36,32)" transform="translate(0,0)"></path>
<path d="M 767.234 579.493 C 787.249 580.048 808.049 579.926 828.125 580.075 C 894.384 580.823 960.461 582.755 1026.73 582.921 C 1035.43 630.202 1041.31 681.933 1049.35 729.937 C 1056.24 723.505 1069.41 715.043 1077.5 709.92 C 1076.72 716.971 1075.37 725.018 1074.35 732.122 C 1077.53 727.868 1081.51 721.39 1084.51 716.8 C 1085.52 715.038 1090.12 706.972 1091.12 705.933 C 1108.89 687.472 1146.89 683.049 1170 680.099 L 1170 723.656 L 1170 807.082 L 1170 864.116 L 1170 956.433 L 1170 1030.47 L 1170 1374.58 L 1170 1533.63 L 1170 1562.45 L 1170 1690.09 L 1170 1761.21 L 1170 2048 L 337.264 2048 L 337.229 1476.61 L 337.28 1344.12 C 337.289 1337.63 336.994 1295.76 338.044 1291.01 C 340.824 1289.44 340.963 1290.14 344.691 1290.74 L 352.423 1291.69 C 355.133 1292.06 360.671 1292.97 363.168 1293.06 C 415.112 1303.43 467.999 1312.03 520.012 1322.16 C 538.596 1325.78 563.321 1329.06 580.857 1333.1 C 587.058 1329.41 600.743 1323.63 608.375 1319.73 C 573.646 1314.17 536.066 1309.42 501.786 1302.59 C 507.317 1297.56 587.695 1304.91 595.76 1300.43 C 601.702 1300.3 608.294 1301.55 614.014 1300.13 C 617.574 1299.24 617.232 1295.85 617.695 1292.8 L 617.414 1290.41 C 618.945 1285.53 621.458 1259.93 622.069 1253.87 C 628.603 1189.08 632.18 1124.29 629.381 1059.18 C 628.933 1048.76 627.759 1029.26 625.293 1019.84 C 621.995 1020.46 618.995 1024.32 616.206 1027.01 C 613.86 1022.4 611.19 1017.42 609.08 1012.75 C 609.931 1019.58 610.696 1024.13 612.188 1030.84 C 607.937 1035.19 599.383 1046.57 593.68 1046.36 C 592.331 1044.88 590.961 1043.43 589.569 1041.99 C 587.697 1038.87 584.522 1036.02 581.912 1033.41 C 584.438 1041.12 586.418 1045.98 589.744 1053.4 L 570.021 1074.11 C 564.737 1069.38 559.627 1064.33 554.524 1059.4 C 556.737 1065.63 560.783 1074.12 563.572 1080.38 C 558.021 1086.46 551.03 1093.25 545.189 1099.21 C 539.307 1096.36 533.173 1093.96 527.117 1091.49 C 531.475 1097.25 534.376 1100.82 539.311 1106.09 C 529.457 1116.17 518.086 1126.39 507.865 1136.57 C 508.353 1109.15 516.282 1081.35 528.171 1056.78 C 535.796 1053.94 543.403 1051.05 550.993 1048.12 C 544.805 1048.82 538.406 1049.73 532.21 1050.53 C 546.081 1030.39 554.682 1027.41 574.201 1014.54 C 583.332 1010.41 592.547 1006.47 601.84 1002.71 L 605.576 1001.8 L 604.642 1001.81 L 607.025 1000.97 C 602.951 1000.12 597.893 1000.97 593.662 1001.44 C 590.396 1001.95 582.885 1002.01 579.287 1002.14 C 580.859 996.421 582.127 988.617 583.272 982.663 C 578.584 991.558 576.585 994.725 570.811 1002.87 C 564.772 1003.89 556.004 1004.56 549.71 1005.21 C 552.122 997.3 553.829 988.548 555.584 980.412 C 551.082 988.797 545.811 997.546 541.014 1005.83 C 534.898 1006.68 528.044 1006.94 521.831 1007.32 L 521.979 993.826 L 520.75 993.054 L 521.504 991.242 L 521.161 991.563 L 521.822 992.658 L 520.575 993.328 L 517.435 1007.8 C 499.489 1009.43 481.564 1011.29 463.665 1013.38 C 485.723 984.22 516.051 964.157 553.252 962.099 C 567.348 961.32 577.992 963.93 591.516 967.503 C 599.723 970.184 609.424 973.366 616.797 977.963 C 618.886 979.506 619.707 980.537 622.122 980.414 C 621.121 977.921 620.203 977.966 617.609 976.276 C 613.644 973.968 604.34 966.349 600.262 963.155 C 605.982 961.758 612.34 960.587 618.152 959.391 L 619.866 958.489 L 619.446 957.392 L 615.646 956.747 C 610.509 957.079 601.192 955.94 595.766 955.44 C 586.575 951.861 580.714 948.316 572.919 942.494 C 581.734 939.083 591.35 935.858 600.334 932.516 C 588.001 933.367 576.817 934.848 564.271 935.02 C 557.499 930.994 549.885 925.363 543.332 920.751 L 552.764 902.066 C 546.668 905.989 540.032 910.903 534.047 915.15 C 521.625 905.678 503.412 894.013 490.067 885.819 C 511.857 881.988 532.54 879.953 554.327 884.915 C 583.687 891.603 585.451 896.508 600.182 919.201 L 595.614 900.568 C 604.764 906.077 611.608 912.15 619.486 919.263 L 626.281 925.447 C 627.89 933.944 628.941 942.539 629.426 951.174 C 631.215 945.465 633.029 939.331 634.933 933.692 L 639.105 942.183 C 639.705 938.044 638.682 933.551 635.14 931.12 C 633.2 932.582 631.859 937.674 630.989 940.271 L 630.853 940.326 C 630.438 939.411 629.726 937.922 629.995 936.993 C 631.534 931.677 623.041 920.84 624.278 915.295 C 625.799 908.474 629.378 899.992 631.517 892.735 L 723.957 679.642 C 737.712 647.682 752.509 610.53 767.234 579.493 z" fill="rgb(43,16,22)" transform="translate(0,0)"></path>
<path d="M 446.746 1533.81 C 548.632 1531.49 654.548 1533.33 756.51 1533.57 L 1170 1533.63 L 1170 1562.45 L 1170 1690.09 L 1170 1761.21 L 696.203 1612.62 L 523.185 1558.47 C 502.377 1551.84 466.099 1541.68 446.746 1533.81 z" fill="rgb(255,90,31)" transform="translate(0,0)"></path>
<path d="M 785.563 1562.23 C 913.705 1560.82 1041.86 1560.9 1170 1562.45 L 1170 1690.09 C 1132.32 1678.66 1088.7 1668.22 1050.11 1657.75 L 702.155 1564.46 C 709.01 1560.54 771.055 1565.44 785.563 1562.23 z" fill="rgb(43,16,22)" transform="translate(0,0)"></path>
<path d="M 702.155 1564.46 C 700.192 1564.16 699.356 1563.77 697.543 1563.09 C 699.609 1561.39 776.126 1562.16 785.563 1562.23 C 771.055 1565.44 709.01 1560.54 702.155 1564.46 z" fill="rgb(58,36,32)" transform="translate(0,0)"></path>
<path d="M 851.739 871.773 L 869.045 840.941 C 869.317 843.053 869.704 845.158 870.066 847.257 C 868.835 854.955 867.482 862.772 866.608 870.507 C 877.654 868.737 887.946 867.748 899.047 866.667 L 909.541 846.182 C 911.178 849.157 910.715 850.771 911.263 854.421 L 909.691 865.373 C 924.622 862.933 940.124 861.253 955.172 859.421 C 957.366 860.02 957.388 860.257 959.337 861.64 C 913.03 879.797 878.385 897.193 849.476 940.426 C 854.208 939.844 859.275 939.319 863.935 938.452 L 864.642 940.972 C 857.894 943.963 851.186 947.046 844.522 950.218 C 826.173 991.732 821.712 1027.17 820.862 1072.15 C 832.386 1057.51 851.848 1033.86 864.722 1020.52 C 858.78 1014.34 853.1 1008.42 848.395 1001.19 C 855.759 1005.04 863.375 1009.27 871.139 1012.13 C 879.96 1001.8 889.082 990.729 898.47 980.99 C 893.047 971.299 887.828 961.497 882.815 951.588 C 890.134 958.774 897.987 966.78 906.491 972.46 C 912.572 963.327 924.659 950.056 932.163 941.376 C 928.348 931.696 924.596 921.99 920.91 912.26 C 927.252 919.114 933.479 926.073 939.588 933.135 C 947.139 923.741 955.656 914.787 963.844 905.916 C 962.266 897.584 960.624 889.345 959.508 880.936 C 962.639 887.931 965.458 894.386 968.242 901.524 L 977.364 890.819 C 975.576 917.599 972.661 943.703 971.108 970.803 C 969.195 1010.92 968.138 1051.07 967.935 1091.23 L 966.928 1188.45 C 966.859 1201.85 967.462 1231.93 966.062 1244.38 C 966.085 1259.67 966.007 1274.97 965.827 1290.27 C 943.996 1288.84 907.144 1289.92 884.092 1289.76 C 855.622 1290.93 819.017 1289.88 790.126 1289.87 C 792.275 1273.18 792.431 1235.52 793.384 1216.95 L 801.957 1058.08 C 802.372 1050.32 803.652 1006.27 804.895 1002.08 C 807.685 1001.98 807.031 1002.42 808.869 1000.98 C 807.724 998.671 806.719 997.003 805.388 994.82 C 807.1 955.936 808.679 914.017 811.633 875.364 C 815.116 875.086 815.34 875.645 817.761 873.7 C 820.53 866.014 820.47 859.182 821.219 850.959 C 822.486 850.239 822.526 850.244 823.811 850.919 C 824.156 857.988 825.251 866.91 825.934 874.093 C 834.556 873.569 843.162 872.795 851.739 871.773 z" fill="url(#Gradient4)" transform="translate(0,0)"></path>
<path d="M 884.092 1289.76 L 884.737 1288.12 L 886.404 1287.96 C 894.121 1278.13 948.015 1260.36 960.603 1253.94 C 965.326 1251.53 964.203 1250.38 966.062 1244.38 C 966.085 1259.67 966.007 1274.97 965.827 1290.27 C 943.996 1288.84 907.144 1289.92 884.092 1289.76 z" fill="rgb(164,44,34)" transform="translate(0,0)"></path>
<path d="M 723.876 997.966 C 721.855 990.139 720.523 983.54 719.05 975.58 C 724.128 983.162 729.288 990.689 734.529 998.16 C 739.47 998.818 746.372 1000.29 750.886 998.801 C 753.548 996.307 752.716 996.806 752.92 992 L 755.617 989.714 C 756.282 993.343 756.435 996.757 758.752 999.426 C 766.754 1001.1 794.968 1001.59 804.895 1002.08 C 803.652 1006.27 802.372 1050.32 801.957 1058.08 L 793.384 1216.95 C 792.431 1235.52 792.275 1273.18 790.126 1289.87 L 655.827 1289.84 C 654.272 1197.7 656.884 1107.95 643.862 1016.09 L 658.279 1027.38 C 659.843 1022.71 662.207 1018.17 664.368 1013.73 L 662.649 1031.32 C 668.397 1035.97 674.151 1041.17 679.73 1046.07 C 684.21 1039.76 689.141 1033.86 694.025 1027.86 C 691.292 1035.57 688.427 1043.22 685.433 1050.83 L 705.109 1070.31 C 711.128 1064.7 716.405 1059.28 722.118 1053.36 C 718.64 1060.82 715.271 1068.68 711.909 1076.22 L 724.149 1088.29 C 725.898 1091.33 738.641 1105.01 742.152 1106.01 C 747.867 1109.42 762.949 1124.91 768.406 1130.32 C 765.243 1099.97 760.897 1076.71 746.522 1048.9 C 741.968 1047.9 735.826 1046.87 731.815 1044.79 C 735.225 1043.88 739.563 1044.72 743.194 1045.14 C 718.65 1017.62 700.994 1011.07 667.384 997.634 C 676.796 995.274 685.244 997.787 695.217 996.572 C 693.894 991.209 692.792 984.043 691.771 978.489 C 695.25 984.039 698.678 991.078 701.742 996.97 C 708.762 997.029 716.778 997.605 723.876 997.966 z" fill="url(#Gradient3)" transform="translate(0,0)"></path>
<path d="M 1103.34 970.705 L 1127.67 945.457 C 1122.84 956.502 1117.64 967.384 1112.08 978.083 C 1119.65 984.872 1134.58 997.492 1140.93 1004.29 C 1147.8 1000.61 1153.81 997.552 1160.89 994.283 L 1149.4 1013.12 C 1156.23 1018.66 1163.38 1025.28 1170 1030.47 L 1170 1374.58 C 1169.57 1374.48 1169.13 1374.38 1168.7 1374.29 C 1151.43 1370.6 1107.91 1364.75 1088.51 1361.53 C 1087.66 1362.08 1086.92 1362.56 1086.29 1362.97 L 1085.22 1360.47 C 1071.53 1358.14 1057.81 1356 1044.06 1354.04 C 1039.11 1353.38 1035.49 1352.16 1031.93 1354.87 C 1033.45 1347.24 1025.84 1311.58 1024.06 1300.92 L 1022.31 1290.86 C 1027.2 1288.83 1075.12 1289.97 1084.1 1290.06 C 1082.56 1178.72 1084.26 1064.07 1084.02 952.312 C 1091.2 958.273 1096.78 964.046 1103.34 970.705 z" fill="rgb(58,36,32)" transform="translate(0,0)"></path>
<path d="M 1022.31 1290.86 C 1027.2 1288.83 1075.12 1289.97 1084.1 1290.06 L 1084.19 1300.71 L 1024.06 1300.92 L 1022.31 1290.86 z" fill="rgb(245,237,230)" transform="translate(0,0)"></path>
<path d="M 767.234 579.493 C 787.249 580.048 808.049 579.926 828.125 580.075 C 827.514 592.033 821.298 689.262 823.132 692.726 L 824.788 693.326 C 821.98 693.827 819.6 693.866 816.778 694.064 C 800.341 695.221 784.823 698.309 769.051 702.961 L 819.77 731.545 C 817.839 756.458 815.67 795.289 815.88 820.612 C 788.135 832.052 765.33 852.547 745.992 874.964 C 726.851 875.476 698.691 880.885 684.647 895.03 C 681.147 898.555 677.712 905.545 675.305 910.134 C 671.188 904.253 681.17 890.88 664.695 903.309 C 659.889 906.935 655.354 912.044 650.382 915.638 C 645.48 920.036 643.015 922.03 641.936 928.578 C 641.45 930.72 640.178 943.462 640.318 943.21 C 639.947 943.14 639.576 943.069 639.205 942.998 L 639.105 942.183 C 639.705 938.044 638.682 933.551 635.14 931.12 C 633.2 932.582 631.859 937.674 630.989 940.271 L 630.853 940.326 C 630.438 939.411 629.726 937.922 629.995 936.993 C 631.534 931.677 623.041 920.84 624.278 915.295 C 625.799 908.474 629.378 899.992 631.517 892.735 L 723.957 679.642 C 737.712 647.682 752.509 610.53 767.234 579.493 z" fill="rgb(144,40,34)" transform="translate(0,0)"></path>
<path d="M 828.125 580.075 C 894.384 580.823 960.461 582.755 1026.73 582.921 C 1035.43 630.202 1041.31 681.933 1049.35 729.937 L 1040.37 736.171 C 1037.77 746.055 1035.7 755.979 1033.55 765.964 L 1030.91 764.067 C 1031.04 757.888 1031.23 751.709 1031.47 745.533 C 1017.63 761.037 1006.85 779.026 999.72 798.545 C 990.776 778.321 981.393 762.99 966.596 746.647 L 967.447 765.166 L 965.506 768.812 L 958.429 740.535 C 945.529 729.015 930.09 720.635 915.007 712.391 C 916.988 721.088 919.35 728.513 922.038 737.033 C 913.436 725.528 906.614 716.141 897.468 704.84 C 872.476 695.998 851.427 692.048 824.788 693.326 L 823.132 692.726 C 821.298 689.262 827.514 592.033 828.125 580.075 z" fill="url(#Gradient2)" transform="translate(0,0)"></path>
<path d="M 998.192 878.583 C 1011.44 888.527 1023.69 899.334 1036.24 910.144 L 1040.31 897.158 C 1042.92 897.828 1041.59 912.057 1042.52 916.185 C 1051.5 923.749 1060.71 931.331 1069.32 939.291 C 1073.7 931.217 1079.75 921.612 1085.45 914.405 C 1082.62 924.829 1079.4 935.906 1076.86 946.344 C 1079.08 947.944 1082.65 950.152 1084.02 952.312 C 1084.26 1064.07 1082.56 1178.72 1084.1 1290.06 C 1075.12 1289.97 1027.2 1288.83 1022.31 1290.86 C 1019.87 1260.82 1013.71 1227.78 1010.09 1197.48 C 1000.83 1119.92 993.265 1042.36 994.134 964.13 C 994.437 936.847 994.166 905.513 998.192 878.583 z" fill="url(#Gradient1)" transform="translate(0,0)"></path>
<path d="M 884.092 1289.76 C 907.144 1289.92 943.996 1288.84 965.827 1290.27 L 965.83 1300.65 C 965.807 1308.12 964.852 1335.78 965.558 1341.5 C 965.366 1346.68 946.237 1391.14 942.969 1401.04 L 695.906 1354.14 C 669.867 1349.45 641.776 1343.44 615.925 1339.56 C 604.939 1337.52 591.404 1335.75 580.857 1333.1 C 587.058 1329.41 600.743 1323.63 608.375 1319.73 C 573.646 1314.17 536.066 1309.42 501.786 1302.59 C 507.317 1297.56 587.695 1304.91 595.76 1300.43 C 601.702 1300.3 608.294 1301.55 614.014 1300.13 C 617.574 1299.24 617.232 1295.85 617.695 1292.8 L 618.254 1299.41 C 622.205 1300.94 649.763 1300.18 656.038 1300.11 L 655.827 1289.84 L 790.126 1289.87 C 819.017 1289.88 855.622 1290.93 884.092 1289.76 z" fill="rgb(245,237,230)" transform="translate(0,0)"></path>
<path d="M 884.092 1289.76 C 907.144 1289.92 943.996 1288.84 965.827 1290.27 L 965.83 1300.65 C 965.807 1308.12 964.852 1335.78 965.558 1341.5 C 931.017 1336.84 896.561 1331.56 862.206 1325.68 C 847.218 1323.25 822.966 1318.6 808.295 1317.52 C 792.927 1316.38 769.103 1317.07 753.286 1317.08 L 651.254 1316.98 C 643.15 1322.18 621.761 1333.71 615.925 1339.56 C 604.939 1337.52 591.404 1335.75 580.857 1333.1 C 587.058 1329.41 600.743 1323.63 608.375 1319.73 C 573.646 1314.17 536.066 1309.42 501.786 1302.59 C 507.317 1297.56 587.695 1304.91 595.76 1300.43 C 601.702 1300.3 608.294 1301.55 614.014 1300.13 C 617.574 1299.24 617.232 1295.85 617.695 1292.8 L 618.254 1299.41 C 622.205 1300.94 649.763 1300.18 656.038 1300.11 L 655.827 1289.84 L 790.126 1289.87 C 819.017 1289.88 855.622 1290.93 884.092 1289.76 z" fill="rgb(58,36,32)" transform="translate(0,0)"></path>
<path d="M 884.092 1289.76 C 907.144 1289.92 943.996 1288.84 965.827 1290.27 L 965.83 1300.65 C 895.32 1302.12 819.521 1300.83 748.677 1300.81 L 687.458 1300.77 C 680.515 1300.77 661.799 1301.19 656.038 1300.11 L 655.827 1289.84 L 790.126 1289.87 C 819.017 1289.88 855.622 1290.93 884.092 1289.76 z" fill="rgb(245,237,230)" transform="translate(0,0)"></path>
<path d="M 736.53 909.126 C 774.446 882.155 760.95 878.425 811.633 875.364 C 808.679 914.017 807.1 955.936 805.388 994.82 C 792.866 979.263 766.924 964.033 747.741 958.871 C 712.05 949.267 689.99 956.081 659.283 972.979 L 658.383 971.287 C 663.671 967.3 668.947 962.841 674.086 958.631 C 676.322 957.024 678.184 954.48 680.443 952.396 C 685.968 948.562 693.794 941.988 699.282 937.67 L 684.38 932.839 C 684.916 930.637 692.313 931.273 695.233 930.948 L 708.047 930.893 C 714.675 925.533 720.429 921.26 727.393 916.333 C 725.081 910.894 720.549 902.753 717.703 897.321 C 723.413 900.338 730.94 905.494 736.53 909.126 z" fill="rgb(144,40,34)" transform="translate(0,0)"></path>
<path d="M 831.165 737.583 C 838.994 731.961 848.813 725.304 856.198 719.363 L 845.765 746.534 C 855.898 751.455 865.204 755.992 874.281 762.756 C 885.772 760.675 898.017 758.65 909.417 756.362 C 911.744 755.981 915.107 754.961 916.838 755.799 C 915.283 756.664 913.606 757.642 912.021 758.409 C 904.339 762.342 894.316 767.905 886.304 770.334 C 896.746 776.02 907.107 781.853 917.383 787.833 C 925.314 786.569 933.145 786.152 941.151 785.599 C 944.793 785.253 948.827 784.534 952.269 785.539 C 951.351 786.074 950.298 786.784 949.323 787.098 L 926.718 793.969 C 941.14 804.032 958.464 816.543 973.638 825.409 L 973.251 827.053 C 968.927 824.88 962.865 822.315 958.335 820.627 C 905.704 801.021 867.149 798.232 815.88 820.612 C 815.67 795.289 817.839 756.458 819.77 731.545 L 831.165 737.583 z" fill="rgb(255,90,31)" transform="translate(0,0)"></path>
<path d="M 1031.93 1354.87 C 1035.49 1352.16 1039.11 1353.38 1044.06 1354.04 C 1057.81 1356 1071.53 1358.14 1085.22 1360.47 L 1086.29 1362.97 C 1093.71 1384.61 1105.45 1411.43 1113.79 1433.79 C 1085.69 1427.82 1053.05 1421.89 1024.66 1417.34 C 1026.39 1404.38 1032.28 1365.58 1031.93 1354.87 z" fill="rgb(245,237,230)" transform="translate(0,0)"></path>
<path d="M 1136.56 710.159 C 1144.34 715.279 1153.59 723.463 1160.91 729.577 L 1170 723.656 L 1170 807.082 C 1136.61 796.992 1118.2 796.425 1083.78 803.489 C 1083.71 797.502 1084.03 788.505 1083.64 782.915 C 1086.09 780.297 1104.97 767.648 1109.76 764.168 C 1103.83 761.909 1085.7 754.521 1081.06 751.539 L 1081.35 750.622 C 1086.24 750.386 1114.66 754.713 1121.44 755.558 C 1129.99 750.439 1139.8 743.549 1148.17 737.894 L 1136.56 710.159 z" fill="rgb(58,36,32)" transform="translate(0,0)"></path>
<path d="M 1120.79 823.529 C 1128.95 835.153 1137.39 850.397 1144.7 862.835 C 1152.99 863.336 1161.74 864.001 1170 864.116 L 1170 956.433 C 1167.4 952.021 1164.71 947.658 1161.95 943.345 C 1152.41 939.711 1142.83 936.227 1133.18 932.896 C 1140.25 933.115 1147.54 933.553 1154.62 933.887 C 1131.6 903.742 1115.81 894.974 1083.03 878.485 C 1083.26 872.066 1082.65 864.037 1084.28 858.199 C 1087.93 853.916 1082.94 837.974 1081.48 832.094 C 1087.02 840.853 1092.21 849.949 1097.64 858.524 C 1106.7 859.619 1122.82 860.485 1130.83 861.939 C 1127.5 849.507 1123.58 836.009 1120.79 823.529 z" fill="rgb(58,36,32)" transform="translate(0,0)"></path>
<path d="M 1027.25 858.795 C 1025.69 858.455 1024.3 858.522 1023.49 857.34 C 1026.25 856.449 1067.77 857.268 1071.68 857.887 L 1072.67 857.9 C 1073.3 862.223 1075.24 870.963 1074 874.738 C 1059.35 868.777 1042.43 863.927 1027.25 858.795 z" fill="rgb(255,90,31)" transform="translate(0,0)"></path>
<path d="M 1083.64 782.915 C 1084.03 788.505 1083.71 797.502 1083.78 803.489 C 1079.18 804.431 1070.86 807.291 1066.36 809.185 C 1065.53 805.858 1064.94 800.593 1063.95 798.296 C 1067.17 795.608 1070.23 793.786 1073.61 791.351 C 1070.04 790.5 1064.99 789.18 1061.44 788.786 L 1062.71 783.393 C 1069.74 782.872 1076.43 783.427 1083.64 782.915 z" fill="rgb(144,40,34)" transform="translate(0,0)"></path>
<path d="M 1063.95 798.296 C 1064.94 800.593 1065.53 805.858 1066.36 809.185 C 1060.77 810.878 1043.18 818.534 1037.51 821.399 L 1036.23 819.125 L 1063.95 798.296 z" fill="rgb(255,90,31)" transform="translate(0,0)"></path>
<path d="M 1072.67 857.9 C 1076.77 857.878 1080.19 857.993 1084.28 858.199 C 1082.65 864.037 1083.26 872.066 1083.03 878.485 C 1080.11 877.251 1076.66 876.185 1074 874.738 C 1075.24 870.963 1073.3 862.223 1072.67 857.9 z" fill="rgb(144,40,34)" transform="translate(0,0)"></path>
<path d="M 639.205 942.998 C 639.576 943.069 639.947 943.14 640.318 943.21 C 640.178 943.462 641.45 930.72 641.936 928.578 C 643.015 922.03 645.48 920.036 650.382 915.638 C 655.354 912.044 659.889 906.935 664.695 903.309 C 681.17 890.88 671.188 904.253 675.305 910.134 C 668.965 921.098 673.077 901.819 673.593 898.503 C 663.41 907.349 654.584 913.927 644.922 923.788 C 644.514 926.333 641.391 948.612 641.185 949.096 C 640.6 949.515 640.806 949.457 640.505 949.48 C 640.311 948.993 639.475 944.044 639.205 942.998 z" fill="rgb(58,36,32)" transform="translate(0,0)"></path>
<path d="M 648.764 953.953 C 659.502 952.45 669.6 952.438 680.443 952.396 C 678.184 954.48 676.322 957.024 674.086 958.631 C 664.38 957.16 658.586 956.313 648.764 953.953 z" fill="rgb(58,36,32)" transform="translate(0,0)"></path>
<path d="M 731.248 1094.61 C 737.549 1090.84 738.793 1090.17 745.416 1087.43 C 742.044 1092.59 740.25 1095.03 736.266 1099.8 C 738.018 1101.5 741.115 1104.06 742.152 1106.01 C 738.641 1105.01 725.898 1091.33 724.149 1088.29 C 727.329 1090.7 728.428 1091.83 731.248 1094.61 z" fill="rgb(58,36,32)" transform="translate(0,0)"></path>
<path d="M 1041.33 783.304 C 1048.73 783.146 1055.46 783.471 1062.71 783.393 L 1061.44 788.786 C 1054.12 786.345 1048.77 785.021 1041.33 783.304 z" fill="rgb(164,44,34)" transform="translate(0,0)"></path>
<path d="M 1040.31 897.158 L 1040.47 896.553 C 1040.78 895.394 1041.13 891.964 1042.45 891.467 C 1043.6 892.066 1042.81 913.977 1042.52 916.185 C 1041.59 912.057 1042.92 897.828 1040.31 897.158 z" fill="rgb(164,44,34)" transform="translate(0,0)"></path>
<path d="M 674.167 929.771 C 681.464 929.841 688.068 929.591 695.233 930.948 C 692.313 931.273 684.916 930.637 684.38 932.839 C 679.55 932.206 678.469 931.345 674.167 929.771 z" fill="rgb(58,36,32)" transform="translate(0,0)"></path>
<path d="M 667.384 997.634 C 665.85 997.506 664.536 996.708 665.601 996.49 C 671.494 995.282 690.459 995.957 695.217 996.572 C 685.244 997.787 676.796 995.274 667.384 997.634 z" fill="rgb(58,36,32)" transform="translate(0,0)"></path>
<path d="M 955.172 859.421 C 957.101 858.837 966.145 857.592 968.041 858.473 L 967.69 858.251 L 967.509 858.847 C 964.771 859.741 962.081 860.763 959.337 861.64 C 957.388 860.257 957.366 860.02 955.172 859.421 z" fill="rgb(255,90,31)" transform="translate(0,0)"></path>
<path d="M 909.541 846.182 C 910.007 844.84 910.98 841.977 912.33 841.446 C 913.681 842.296 911.601 852.571 911.263 854.421 C 910.715 850.771 911.178 849.157 909.541 846.182 z" fill="rgb(255,90,31)" transform="translate(0,0)"></path>
<path d="M 821.219 850.959 C 822.636 838.608 824.75 840.999 823.811 850.919 C 822.526 850.244 822.486 850.239 821.219 850.959 z" fill="rgb(144,40,34)" transform="translate(0,0)"></path>
<path d="M 967.447 765.166 C 967.968 767.156 968.639 773.728 967.588 775.506 C 967.197 775.275 966.799 774.262 966.597 773.851 L 966.771 774.316 C 966.284 772.9 965.958 771.497 965.715 770.023 L 965.506 768.812 L 967.447 765.166 z" fill="rgb(164,44,34)" transform="translate(0,0)"></path>
<path d="M 1030.91 764.067 L 1033.55 765.964 C 1033.15 768.095 1032.99 769.949 1032.39 772.039 L 1031.51 772.721 L 1031.75 773.23 L 1031.59 773.338 C 1030.69 772.5 1030.92 765.482 1030.91 764.067 z" fill="rgb(255,90,31)" transform="translate(0,0)"></path>
<path d="M 1026.1 827.098 C 1029.67 824.111 1032.37 821.792 1036.23 819.125 L 1037.51 821.399 C 1033.77 823.381 1029.87 825.147 1026.1 827.098 z" fill="rgb(164,44,34)" transform="translate(0,0)"></path>
<path d="M 863.935 938.452 C 865.43 937.988 869.945 936.829 871.128 937.734 C 870.814 939.312 866.017 940.549 864.642 940.972 L 863.935 938.452 z" fill="rgb(164,44,34)" transform="translate(0,0)"></path>
<path d="M 658.383 971.287 L 659.283 972.979 C 651.732 979.106 648.971 977.765 658.383 971.287 z" fill="rgb(58,36,32)" transform="translate(0,0)"></path>
<path d="M 973.638 825.409 C 974.738 825.83 980.824 828.99 980.393 830.429 C 979.073 831.477 974.353 827.893 973.251 827.053 L 973.638 825.409 z" fill="rgb(144,40,34)" transform="translate(0,0)"></path>
<path d="M 752.92 992 C 752.921 990.582 752.627 984.565 753.664 983.816 C 755.002 984.062 755.276 988.418 755.617 989.714 L 752.92 992 z" fill="rgb(58,36,32)" transform="translate(0,0)"></path>
<path d="M 869.045 840.941 C 869.663 839.913 870.238 838.047 871.379 837.569 C 872.572 838.081 870.361 846.09 870.066 847.257 C 869.704 845.158 869.317 843.053 869.045 840.941 z" fill="rgb(255,90,31)" transform="translate(0,0)"></path>
<path d="M 0 0 L 708.063 0 L 707.994 219.246 C 672.668 241.64 628.535 267.658 591.929 288.107 L 592.006 387.694 L 592.042 443.95 L 592.062 489.059 L 441.413 487.858 C 431.031 487.864 393.146 487.206 384.453 488.679 C 301.351 489.97 217.197 488.397 133.952 488.9 L 133.9 470.331 L 133.919 456.313 C 119.966 456.534 104.823 456.111 90.7822 455.982 L 90.8202 337.959 L 25.6721 337.93 L 0 337.604 L 0 0 z" fill="rgb(245,237,230)" transform="translate(0,0)"></path>
<path d="M 0 0 L 708.063 0 L 707.994 219.246 C 672.668 241.64 628.535 267.658 591.929 288.107 L 592.006 387.694 C 572.672 387.67 553.339 387.469 534.008 387.092 L 359.128 381.887 C 328.111 380.892 293.961 379.044 263.094 378.999 L 263.847 377.076 C 353.675 372.326 445.442 366.122 535.187 359.864 C 534.673 308.687 517.981 258.985 487.5 217.871 C 447.779 163.148 387.822 126.582 320.986 116.319 C 204.69 98.8601 91.1689 156.994 44.0168 266.772 C 34.1305 289.789 29.382 313.295 25.6721 337.93 L 0 337.604 L 0 0 z" fill="rgb(255,90,31)" transform="translate(0,0)"></path>
<path d="M 534.008 387.092 C 553.339 387.469 572.672 387.67 592.006 387.694 L 592.042 443.95 L 592.062 489.059 L 441.413 487.858 C 431.031 487.864 393.146 487.206 384.453 488.679 C 301.351 489.97 217.197 488.397 133.952 488.9 L 133.9 470.331 C 168.026 469.514 207.154 466.499 241.465 464.326 L 424.526 453.195 C 456.452 451.332 490.837 448.694 522.644 447.782 C 528.469 429.258 533.352 406.454 534.008 387.092 z" fill="rgb(255,90,31)" transform="translate(0,0)"></path>
<path d="M 534.008 387.092 C 553.339 387.469 572.672 387.67 592.006 387.694 L 592.042 443.95 C 570.179 444.67 544.494 446.004 522.644 447.782 C 528.469 429.258 533.352 406.454 534.008 387.092 z" fill="rgb(255,140,66)" transform="translate(0,0)"></path>
<path d="M 253.285 376.911 C 256.836 377.055 260.253 376.941 263.847 377.076 L 263.094 378.999 C 258.948 379.108 254.993 378.929 250.856 379.052 L 253.285 376.911 z" fill="rgb(255,140,66)" transform="translate(0,0)"></path>
<path d="M 0 337.604 L 25.6721 337.93 L 90.8202 337.959 L 90.7822 455.982 C 104.823 456.111 119.966 456.534 133.919 456.313 L 133.9 470.331 L 133.952 488.9 L 133.857 572.659 L 133.861 639.157 L 157.285 639.144 L 157.285 652.646 L 157.216 786.841 C 156.559 880.365 156.588 973.891 157.303 1067.41 L 156.995 1531.06 L 157.139 1857.31 C 157.062 1918.74 155.429 1987.19 157.431 2048 L 0 2048 L 0 337.604 z" fill="rgb(43,16,22)" transform="translate(0,0)"></path>
<path d="M 708.063 0 L 1170 0 L 1170 317.624 L 763.098 498.825 L 651.015 548.27 C 633.938 555.795 607.903 566.425 592.08 575.086 C 592.116 561.829 592.565 546.26 592.157 533.2 C 591.696 519.3 592.078 503.138 592.062 489.059 L 592.042 443.95 L 592.006 387.694 L 591.929 288.107 C 628.535 267.658 672.668 241.64 707.994 219.246 L 708.063 0 z" fill="rgb(43,16,22)" transform="translate(0,0)"></path>
<path d="M 384.453 488.679 C 393.146 487.206 431.031 487.864 441.413 487.858 L 592.062 489.059 C 592.078 503.138 591.696 519.3 592.157 533.2 L 484.74 532.907 L 484.924 648.048 C 477.276 647.997 459.649 647.45 452.864 648.553 C 451.393 651.288 451.826 653.929 451.898 657.134 L 451.941 680.257 L 451.998 776.618 L 452.028 790.019 L 452.17 941.05 L 375.835 941.043 L 375.795 1021.99 L 350.752 1022 L 350.878 1188.32 L 326.139 1188.28 L 326.066 1267.92 L 309.138 1267.98 L 309.837 1055.38 L 283.02 1055.64 L 283.045 874.119 L 258.637 874.166 C 258.532 846.101 259.505 814.424 258.376 786.804 C 228.576 787.773 187.045 787.583 157.216 786.841 L 157.285 652.646 L 157.285 639.144 L 133.861 639.157 L 133.857 572.659 L 133.952 488.9 C 217.197 488.397 301.351 489.97 384.453 488.679 z" fill="rgb(255,140,66)" transform="translate(0,0)"></path>
<path d="M 384.453 488.679 C 423.818 488.97 463.185 488.949 502.55 488.618 C 475.329 541.335 416.84 586.183 360.682 604.156 C 294.589 625.627 222.668 619.911 160.797 588.269 C 152.311 583.886 141.759 578.123 133.857 572.659 L 133.952 488.9 C 217.197 488.397 301.351 489.97 384.453 488.679 z" fill="rgb(245,237,230)" transform="translate(0,0)"></path>
<path d="M 157.724 652.714 C 164.93 650.696 239.045 653.261 251.087 653.54 L 451.898 657.134 L 451.941 680.257 L 157.69 680.036 L 157.724 652.714 z" fill="rgb(245,237,230)" transform="translate(0,0)"></path>
<path d="M 248.695 783.314 C 265.821 783.288 284.919 781.913 302.202 781.467 C 351.965 780.181 402.279 777.133 451.998 776.618 L 452.028 790.019 C 436.625 790.194 418.032 789.095 402.401 788.634 L 323.654 786.792 C 302.087 786.17 280.099 784.952 258.572 785.118 C 253.581 784.71 248.885 784.827 243.893 784.879 C 246.169 784.551 247.04 784.961 248.695 783.314 z" fill="rgb(245,237,230)" transform="translate(0,0)"></path>
<path d="M 243.893 784.879 C 241.112 785.085 232.216 785.391 229.722 784.476 C 229.717 784.467 229.511 784.264 229.574 784.213 C 231.805 782.437 246.751 782.914 248.695 783.314 C 247.04 784.961 246.169 784.551 243.893 784.879 z" fill="rgb(255,209,102)" transform="translate(0,0)"></path>
<path d="M 1026.73 582.921 L 1084.18 583.896 C 1084.1 626.246 1082.93 675.009 1084.51 716.8 C 1081.51 721.39 1077.53 727.868 1074.35 732.122 C 1075.37 725.018 1076.72 716.971 1077.5 709.92 C 1069.41 715.043 1056.24 723.505 1049.35 729.937 C 1041.31 681.933 1035.43 630.202 1026.73 582.921 z" fill="rgb(144,40,34)" transform="translate(0,0)"></path>
<path d="M 508.553 1289.78 L 581.308 1289.95 C 588.251 1289.96 611.46 1289.56 617.414 1290.41 L 617.695 1292.8 C 617.232 1295.85 617.574 1299.24 614.014 1300.13 C 608.294 1301.55 601.702 1300.3 595.76 1300.43 C 587.695 1304.91 507.317 1297.56 501.786 1302.59 C 536.066 1309.42 573.646 1314.17 608.375 1319.73 C 600.743 1323.63 587.058 1329.41 580.857 1333.1 C 563.321 1329.06 538.596 1325.78 520.012 1322.16 C 467.999 1312.03 415.112 1303.43 363.168 1293.06 C 360.671 1292.97 355.133 1292.06 352.423 1291.69 L 352.757 1290.69 C 356.382 1289.56 363.758 1289.92 367.835 1289.93 L 462.006 1289.84 C 476.186 1289.83 494.91 1290.46 508.553 1289.78 z" fill="rgb(245,237,230)" transform="translate(0,0)"></path>
<path d="M 486.067 1299.02 C 523.014 1300.35 558.803 1300.24 595.76 1300.43 C 587.695 1304.91 507.317 1297.56 501.786 1302.59 C 495.335 1301.62 492.219 1300.81 486.067 1299.02 z" fill="rgb(144,40,34)" transform="translate(0,0)"></path>
<path d="M 344.691 1290.74 C 350.039 1287.5 431.985 1288.95 444.193 1288.77 C 454.995 1288.6 499.282 1287.94 508.553 1289.78 C 494.91 1290.46 476.186 1289.83 462.006 1289.84 L 367.835 1289.93 C 363.758 1289.92 356.382 1289.56 352.757 1290.69 L 352.423 1291.69 L 344.691 1290.74 z" fill="rgb(144,40,34)" transform="translate(0,0)"></path>
<metadata><recraft-signature>{"signed_by": "recraft", "signature_b64": "UbT6fUtsUxQ3YdRCmCz+zVLPRazy763IqQElrQJxDZ2W3/Ua5xhhHENEO/4vJqwH/oWHFDlXSW2RHsbaWd4bAA==", "signing_algo": "Ed25519", "generation_timestamp": 1783313411, "identifier": "cfd823c1-c148-4968-92f8-e27e54a473e6"}</recraft-signature></metadata></svg>